<?xml version="1.0" encoding="utf-8"?>
<!-- Generator: Adobe Illustrator 19.0.0, SVG Export Plug-In . SVG Version: 6.00 Build 0)  -->
<svg version="1.1" id="Layer_1" xmlns="http://www.w3.org/2000/svg" xmlns:xlink="http://www.w3.org/1999/xlink" x="0px" y="0px"
	 viewBox="0 0 80.4 60.2" style="enable-background:new 0 0 80.4 60.2;" xml:space="preserve">
<style type="text/css">
	.st0{fill:#DDEFF5;}
	.st1{fill:#01A9DD;}
	.st2{fill:#4DA693;}
	.st3{fill:#6DC7B7;}
</style>
<path class="st0" d="M69.7,35.4 M41.8,34.5l0,18.4c0,3.3,3,6,6.9,6c2.7,0,4.9-1.2,6.2-3.1c0.2,0,0.4,0,0.7,0c3.5,0,6.2-2.1,6.7-4.9
	c2.9-0.2,4.2-2.5,4.7-4.9c0,0,0-3.3-1.2-5.9c2.6-0.9,3.3-4.1,3.4-4.6L67,32.3l1.7-3.2c0,0-5.2-0.8-14.1,0.6
	c-7.1,1.2-11.4,2.7-11.4,2.7L41.8,34.5z"/>
<path class="st0" d="M11.7,35.3 M14.9,47.1c0.5,2.4,1.2,3.4,4.1,3.6c0.5,2.8,3.3,4.9,6.7,4.9c0.3,0,0.5,0,0.7,0
	c1.3,2,3.6,3.1,6.2,3.1c3.9,0,7.2-2.7,7.2-6l0-19.3c0,0-6.4,2.1-13.2,5.9S14.9,47.1,14.9,47.1z"/>
<path class="st1" d="M69.7,36.3c0-1.4-0.7-2.7-1.9-3.6c0.7-1,1.1-2.4,1.1-3.7l-1.9-0.2c0,0.9-0.3,2.1-0.8,2.9
	c-0.8-0.3-1.7-0.5-2.6-0.5c-0.6,0-1,0.3-1,0.8c0,0.5,0.4,0.8,1,0.8c2.3,0,4.1,1.6,4.1,3.5c-0.1,1.4-1.1,2.7-2.7,3.2 M65.2,39.5
	c-1-0.6-2.2-1-3.4-1c-0.6,0-1,0.3-1,0.8s0.4,0.8,1,0.8c4.2,0,4.6,4.6,4,6.9c-0.5,1.7-1.9,3.1-4,3.1c-0.1,0-0.1,0-0.2,0
	c-0.1,0-0.1,0-0.2,0c-0.6,0-1,0.3-1,0.8c0,2.2-2.2,4-4.8,4c-2.7,0-4.8-1.8-4.8-4c0-0.5-0.4-0.8-1-0.8s-1,0.3-1,0.8
	c0,2.4,1.7,4.4,4.1,5.3c-1,1.2-2.6,1.9-4.2,1.9c-2.9,0-5.2-2-5.2-4.4v-7.9c11.4,0,11.4,0.7,11.4,3.7c0,0.5,0.4,0.8,1,0.8
	c0.6,0,1-0.3,1-0.8c0-5-2.9-5.3-13.3-5.3v-4.8c9.2,0,9.2-0.4,9.2-5.3c0-0.5-0.4-0.8-1-0.8c-0.6,0-1,0.3-1,0.8c0,3,0.2,3.7-7.2,3.7
	v-5.4l-2,0.6v20.9c0,3.3,3.3,6,7.2,6c2.7,0,4.9-1.2,6.2-3.1c0.2,0,0.4,0,0.7,0c3.4,0,6.2-2.1,6.7-4.9c2.9-0.2,4.6-2.3,5.1-4.8
	c0.4-2,0.1-5-0.9-6.2c1.9-0.8,3.1-2.5,3.1-4.4"/>
<path class="st1" d="M11.9,36.3 M15.7,46.5 M38,34.2v3.5c-4,0-5.3-0.2-5.7-1l-2,0.9c1.7,2.2,3.4,1.8,7.7,1.8v4.8
	c-10.4,0-13.3,0.3-13.3,5.3c0,0.5,0.4,0.8,1,0.8c0.6,0,1-0.3,1-0.8c0-3,0-3.7,11.4-3.7v7.9c0,2.4-2.4,4.4-5.2,4.4
	c-1.7,0-3.3-0.7-4.2-1.9c2.5-0.9,4.1-2.9,4.1-5.3c0-0.5-0.4-0.8-1-0.8s-1,0.3-1,0.8c0,2.2-2.2,4-4.8,4s-4.8-1.8-4.8-4
	c0-0.5-0.4-0.8-1-0.8c-0.1,0-0.1,0-0.2,0c-0.1,0-0.1,0-0.2,0c-2.1,0-4-2.7-4.1-3.6l-1.5,1.1c0.6,2.2,2.3,3.9,5,4.1
	c0.5,2.8,3.3,4.9,6.7,4.9c0.3,0,0.5,0,0.7,0c1.3,2,3.5,3.1,6.2,3.1c3.9,0,7.2-2.7,7.2-6V33.4L38,34.2z"/>
<g>
	<path class="st2" d="M0,39.3c11.4-9.4,22.3-13.9,29.2-16.1c2.3-0.7,9.9-3.1,20.1-3.8c7.1-0.5,23.6-1.7,29.2,6.3
		c0.5,0.7,2,2.9,2,5.9c-0.1,4.2-3.3,7-4.1,7.7c0.3-0.6,0.7-1.4,1-2.5c0.6-1.9,0.4-4-1-5.9c-3.3-4.5-23.3-5.1-44.9,5
		c-6.2,2.9-15.4,7.6-25.3,17.4L0,39.3z"/>
</g>
<path class="st3" d="M14.5,29.5l5.5,12.6c0,0,3.6-2.3,8.2-4.6c3.7-1.9,8.2-3.8,11.5-4.9c3.9-1.5,8.9-2.8,12.9-3.5
	c3.7-0.7,6.4-1,6.4-1l-1.4-9c0,0-11.2-0.1-22.3,2.5C23.6,24.3,14.5,29.5,14.5,29.5z"/>
<g>
	<path class="st2" d="M17.1,40.3c0,0,0.1-0.1,0.3-0.2c0.2-0.1,0.4-0.3,0.8-0.5c0.2-0.1,0.3-0.2,0.5-0.3c0.2-0.1,0.4-0.2,0.6-0.3
		c0.2-0.1,0.4-0.2,0.6-0.3c0.2-0.1,0.4-0.2,0.7-0.3c0.2-0.1,0.4-0.2,0.7-0.3c0.2-0.1,0.4-0.2,0.6-0.3c0.4-0.2,0.8-0.4,1.2-0.5
		c0.3-0.2,0.6-0.3,0.8-0.4c0.2-0.1,0.3-0.1,0.3-0.1c0.1,0,0.2,0,0.3,0.1c0,0.1,0,0.2-0.1,0.2l0,0c0,0-0.4,0.3-1,0.7
		c-0.3,0.2-0.7,0.4-1.1,0.7c-0.2,0.1-0.4,0.3-0.6,0.4c-0.2,0.1-0.4,0.3-0.6,0.4c-0.2,0.1-0.4,0.3-0.6,0.4c-0.2,0.1-0.4,0.3-0.6,0.4
		c-0.2,0.1-0.4,0.3-0.6,0.4c-0.2,0.1-0.3,0.2-0.5,0.3c-0.3,0.2-0.6,0.4-0.8,0.5c-0.2,0.1-0.3,0.2-0.3,0.2l0,0
		c-0.3,0.2-0.7,0.1-0.8-0.1C16.7,40.8,16.8,40.5,17.1,40.3z"/>
	<path class="st2" d="M17.8,41.7c0,0,0.1-0.1,0.3-0.2c0.2-0.1,0.4-0.3,0.8-0.5c0.2-0.1,0.3-0.2,0.5-0.3c0.2-0.1,0.4-0.2,0.6-0.3
		c0.2-0.1,0.4-0.2,0.6-0.3c0.2-0.1,0.4-0.2,0.7-0.3c0.2-0.1,0.4-0.2,0.7-0.3c0.2-0.1,0.4-0.2,0.6-0.3c0.4-0.2,0.8-0.4,1.2-0.5
		c0.3-0.2,0.6-0.3,0.8-0.4c0.2-0.1,0.3-0.1,0.3-0.1c0.1,0,0.2,0,0.3,0.1c0,0.1,0,0.2-0.1,0.2l0,0c0,0-0.4,0.3-1,0.7
		c-0.3,0.2-0.7,0.4-1.1,0.7c-0.2,0.1-0.4,0.3-0.6,0.4c-0.2,0.1-0.4,0.3-0.6,0.4c-0.2,0.1-0.4,0.3-0.6,0.4c-0.2,0.1-0.4,0.3-0.6,0.4
		c-0.2,0.1-0.4,0.3-0.6,0.4c-0.2,0.1-0.3,0.2-0.5,0.3c-0.3,0.2-0.6,0.4-0.8,0.5c-0.2,0.1-0.3,0.2-0.3,0.2l0,0
		c-0.3,0.2-0.7,0.1-0.8-0.1C17.4,42.3,17.5,41.9,17.8,41.7z"/>
	<path class="st2" d="M16.4,39c0,0,0.1-0.1,0.3-0.2c0.2-0.1,0.4-0.3,0.8-0.5c0.2-0.1,0.3-0.2,0.5-0.3c0.2-0.1,0.4-0.2,0.6-0.3
		c0.2-0.1,0.4-0.2,0.6-0.3c0.2-0.1,0.4-0.2,0.7-0.3c0.2-0.1,0.4-0.2,0.7-0.3c0.2-0.1,0.4-0.2,0.6-0.3c0.4-0.2,0.8-0.4,1.2-0.5
		c0.3-0.2,0.6-0.3,0.8-0.4c0.2-0.1,0.3-0.1,0.3-0.1c0.1,0,0.2,0,0.3,0.1c0,0.1,0,0.2-0.1,0.2l0,0c0,0-0.4,0.3-1,0.7
		c-0.3,0.2-0.7,0.4-1.1,0.7c-0.2,0.1-0.4,0.3-0.6,0.4c-0.2,0.1-0.4,0.3-0.6,0.4c-0.2,0.1-0.4,0.3-0.6,0.4c-0.2,0.1-0.4,0.3-0.6,0.4
		c-0.2,0.1-0.4,0.3-0.6,0.4c-0.2,0.1-0.3,0.2-0.5,0.3c-0.3,0.2-0.6,0.4-0.8,0.5C17.1,39.9,17,40,17,40l0,0c-0.3,0.2-0.7,0.1-0.8-0.1
		C16,39.6,16.1,39.2,16.4,39z"/>
	<path class="st2" d="M15.7,37.8c0,0,0.1-0.1,0.3-0.2c0.2-0.1,0.4-0.3,0.8-0.5c0.2-0.1,0.3-0.2,0.5-0.3c0.2-0.1,0.4-0.2,0.6-0.3
		c0.2-0.1,0.4-0.2,0.6-0.3c0.2-0.1,0.4-0.2,0.7-0.3c0.2-0.1,0.4-0.2,0.7-0.3c0.2-0.1,0.4-0.2,0.6-0.3c0.4-0.2,0.8-0.4,1.2-0.5
		c0.3-0.2,0.6-0.3,0.8-0.4c0.2-0.1,0.3-0.1,0.3-0.1c0.1,0,0.2,0,0.3,0.1c0,0.1,0,0.2-0.1,0.2l0,0c0,0-0.4,0.3-1,0.7
		c-0.3,0.2-0.7,0.4-1.1,0.7c-0.2,0.1-0.4,0.3-0.6,0.4c-0.2,0.1-0.4,0.3-0.6,0.4c-0.2,0.1-0.4,0.3-0.6,0.4c-0.2,0.1-0.4,0.3-0.6,0.4
		c-0.2,0.1-0.4,0.3-0.6,0.4c-0.2,0.1-0.3,0.2-0.5,0.3c-0.3,0.2-0.6,0.4-0.8,0.5c-0.2,0.1-0.3,0.2-0.3,0.2l0,0
		c-0.3,0.2-0.7,0.1-0.8-0.1C15.3,38.3,15.4,38,15.7,37.8z"/>
	<path class="st2" d="M15,36.5c0,0,0.1-0.1,0.3-0.2c0.2-0.1,0.4-0.3,0.8-0.5c0.2-0.1,0.3-0.2,0.5-0.3c0.2-0.1,0.4-0.2,0.6-0.3
		c0.2-0.1,0.4-0.2,0.6-0.3c0.2-0.1,0.4-0.2,0.7-0.3c0.2-0.1,0.4-0.2,0.7-0.3c0.2-0.1,0.4-0.2,0.6-0.3c0.4-0.2,0.8-0.4,1.2-0.5
		c0.3-0.2,0.6-0.3,0.8-0.4c0.2-0.1,0.3-0.1,0.3-0.1c0.1,0,0.2,0,0.3,0.1c0,0.1,0,0.2-0.1,0.2l0,0c0,0-0.4,0.3-1,0.7
		c-0.3,0.2-0.7,0.4-1.1,0.7c-0.2,0.1-0.4,0.3-0.6,0.4c-0.2,0.1-0.4,0.3-0.6,0.4c-0.2,0.1-0.4,0.3-0.6,0.4c-0.2,0.1-0.4,0.3-0.6,0.4
		c-0.2,0.1-0.4,0.3-0.6,0.4c-0.2,0.1-0.3,0.2-0.5,0.3c-0.3,0.2-0.6,0.4-0.8,0.5c-0.2,0.1-0.3,0.2-0.3,0.2l0,0
		c-0.3,0.2-0.7,0.1-0.8-0.1C14.7,37.1,14.8,36.7,15,36.5z"/>
	<path class="st2" d="M14.4,35.3c0,0,0.1-0.1,0.3-0.2c0.2-0.1,0.4-0.3,0.8-0.5c0.2-0.1,0.3-0.2,0.5-0.3c0.2-0.1,0.4-0.2,0.6-0.3
		c0.2-0.1,0.4-0.2,0.6-0.3c0.2-0.1,0.4-0.2,0.7-0.3c0.2-0.1,0.4-0.2,0.7-0.3c0.2-0.1,0.4-0.2,0.6-0.3c0.4-0.2,0.8-0.4,1.2-0.5
		c0.3-0.2,0.6-0.3,0.8-0.4c0.2-0.1,0.3-0.1,0.3-0.1c0.1,0,0.2,0,0.3,0.1c0,0.1,0,0.2-0.1,0.2l0,0c0,0-0.4,0.3-1,0.7
		c-0.3,0.2-0.7,0.4-1.1,0.7c-0.2,0.1-0.4,0.3-0.6,0.4c-0.2,0.1-0.4,0.3-0.6,0.4c-0.2,0.1-0.4,0.3-0.6,0.4c-0.2,0.1-0.4,0.3-0.6,0.4
		c-0.2,0.1-0.4,0.3-0.6,0.4c-0.2,0.1-0.3,0.2-0.5,0.3c-0.3,0.2-0.6,0.4-0.8,0.5c-0.2,0.1-0.3,0.2-0.3,0.2l0,0
		c-0.3,0.2-0.7,0.1-0.8-0.1C14,35.8,14.1,35.5,14.4,35.3z"/>
	<path class="st2" d="M13.7,34c0,0,0.1-0.1,0.3-0.2c0.2-0.1,0.4-0.3,0.8-0.5c0.2-0.1,0.3-0.2,0.5-0.3c0.2-0.1,0.4-0.2,0.6-0.3
		c0.2-0.1,0.4-0.2,0.6-0.3c0.2-0.1,0.4-0.2,0.7-0.3c0.2-0.1,0.4-0.2,0.7-0.3c0.2-0.1,0.4-0.2,0.6-0.3c0.4-0.2,0.8-0.4,1.2-0.5
		c0.3-0.2,0.6-0.3,0.8-0.4c0.2-0.1,0.3-0.1,0.3-0.1c0.1,0,0.2,0,0.3,0.1c0,0.1,0,0.2-0.1,0.2l0,0c0,0-0.4,0.3-1,0.7
		c-0.3,0.2-0.7,0.4-1.1,0.7c-0.2,0.1-0.4,0.3-0.6,0.4c-0.2,0.1-0.4,0.3-0.6,0.4c-0.2,0.1-0.4,0.3-0.6,0.4c-0.2,0.1-0.4,0.3-0.6,0.4
		c-0.2,0.1-0.4,0.3-0.6,0.4c-0.2,0.1-0.3,0.2-0.5,0.3c-0.3,0.2-0.6,0.4-0.8,0.5c-0.2,0.1-0.3,0.2-0.3,0.2l0,0
		c-0.3,0.2-0.7,0.1-0.8-0.1C13.3,34.6,13.4,34.2,13.7,34z"/>
	<path class="st2" d="M13,32.8c0,0,0.1-0.1,0.3-0.2c0.2-0.1,0.4-0.3,0.8-0.5c0.2-0.1,0.3-0.2,0.5-0.3c0.2-0.1,0.4-0.2,0.6-0.3
		c0.2-0.1,0.4-0.2,0.6-0.3c0.2-0.1,0.4-0.2,0.7-0.3c0.2-0.1,0.4-0.2,0.7-0.3c0.2-0.1,0.4-0.2,0.6-0.3c0.4-0.2,0.8-0.4,1.2-0.5
		c0.3-0.2,0.6-0.3,0.8-0.4c0.2-0.1,0.3-0.1,0.3-0.1c0.1,0,0.2,0,0.3,0.1c0,0.1,0,0.2-0.1,0.2l0,0c0,0-0.4,0.3-1,0.7
		c-0.3,0.2-0.7,0.4-1.1,0.7c-0.2,0.1-0.4,0.3-0.6,0.4c-0.2,0.1-0.4,0.3-0.6,0.4c-0.2,0.1-0.4,0.3-0.6,0.4c-0.2,0.1-0.4,0.3-0.6,0.4
		c-0.2,0.1-0.4,0.3-0.6,0.4c-0.2,0.1-0.3,0.2-0.5,0.3c-0.3,0.2-0.6,0.4-0.8,0.5c-0.2,0.1-0.3,0.2-0.3,0.2l0,0
		c-0.3,0.2-0.7,0.1-0.8-0.1C12.6,33.3,12.7,33,13,32.8z"/>
	<path class="st2" d="M12.3,31.5c0,0,0.1-0.1,0.3-0.2c0.2-0.1,0.4-0.3,0.8-0.5c0.2-0.1,0.3-0.2,0.5-0.3c0.2-0.1,0.4-0.2,0.6-0.3
		c0.2-0.1,0.4-0.2,0.6-0.3c0.2-0.1,0.4-0.2,0.7-0.3c0.2-0.1,0.4-0.2,0.7-0.3c0.2-0.1,0.4-0.2,0.6-0.3c0.4-0.2,0.8-0.4,1.2-0.5
		c0.3-0.2,0.6-0.3,0.8-0.4c0.2-0.1,0.3-0.1,0.3-0.1c0.1,0,0.2,0,0.3,0.1c0,0.1,0,0.2-0.1,0.2l0,0c0,0-0.4,0.3-1,0.7
		c-0.3,0.2-0.7,0.4-1.1,0.7c-0.2,0.1-0.4,0.3-0.6,0.4c-0.2,0.1-0.4,0.3-0.6,0.4c-0.2,0.1-0.4,0.3-0.6,0.4c-0.2,0.1-0.4,0.3-0.6,0.4
		c-0.2,0.1-0.4,0.3-0.6,0.4c-0.2,0.1-0.3,0.2-0.5,0.3c-0.3,0.2-0.6,0.4-0.8,0.5c-0.2,0.1-0.3,0.2-0.3,0.2l0,0
		c-0.3,0.2-0.7,0.1-0.8-0.1C11.9,32.1,12,31.7,12.3,31.5z"/>
</g>
<g>
	<path class="st2" d="M60.4,26.8c0,0-0.1,0-0.3,0c-0.2,0-0.5,0-0.8,0c-0.2,0-0.3,0-0.5,0c-0.2,0-0.4,0-0.6,0c-0.2,0-0.4,0-0.6,0.1
		c-0.2,0-0.4,0-0.7,0.1c-0.2,0-0.4,0.1-0.7,0.1c-0.2,0-0.4,0-0.6,0.1c-0.4,0.1-0.8,0.1-1.1,0.2c-0.3,0-0.6,0.1-0.8,0.1
		c-0.2,0-0.3,0.1-0.3,0.1c-0.1,0-0.2,0.1-0.1,0.2c0,0.1,0.1,0.1,0.2,0.1l0,0c0,0,0.4,0,1.1,0c0.3,0,0.7,0,1.1,0c0.2,0,0.4,0,0.6,0
		c0.2,0,0.4,0,0.6,0c0.2,0,0.4,0,0.6,0c0.2,0,0.4,0,0.6,0c0.2,0,0.4,0,0.6,0c0.2,0,0.4,0,0.5,0c0.3,0,0.6,0,0.8,0c0.2,0,0.3,0,0.3,0
		l0,0c0.3,0,0.5-0.2,0.5-0.5C61,27,60.7,26.8,60.4,26.8z"/>
	<path class="st2" d="M60.3,25.6c0,0-0.1,0-0.3,0c-0.2,0-0.5,0-0.8,0c-0.2,0-0.3,0-0.5,0c-0.2,0-0.4,0-0.6,0c-0.2,0-0.4,0-0.6,0.1
		c-0.2,0-0.4,0-0.7,0.1c-0.2,0-0.4,0.1-0.7,0.1c-0.2,0-0.4,0-0.6,0.1c-0.4,0.1-0.8,0.1-1.1,0.2c-0.3,0-0.6,0.1-0.8,0.1
		c-0.2,0-0.3,0.1-0.3,0.1c-0.1,0-0.2,0.1-0.1,0.2c0,0.1,0.1,0.1,0.2,0.1l0,0c0,0,0.4,0,1.1,0c0.3,0,0.7,0,1.1,0c0.2,0,0.4,0,0.6,0
		c0.2,0,0.4,0,0.6,0c0.2,0,0.4,0,0.6,0c0.2,0,0.4,0,0.6,0c0.2,0,0.4,0,0.6,0c0.2,0,0.4,0,0.5,0c0.3,0,0.6,0,0.8,0c0.2,0,0.3,0,0.3,0
		l0,0c0.3,0,0.5-0.2,0.5-0.5C60.9,25.8,60.6,25.6,60.3,25.6z"/>
	<path class="st2" d="M60.2,24.3c0,0-0.1,0-0.3,0c-0.2,0-0.5,0-0.8,0c-0.2,0-0.3,0-0.5,0c-0.2,0-0.4,0-0.6,0c-0.2,0-0.4,0-0.6,0.1
		c-0.2,0-0.4,0-0.7,0.1c-0.2,0-0.4,0.1-0.7,0.1c-0.2,0-0.4,0-0.6,0.1c-0.4,0.1-0.8,0.1-1.1,0.2c-0.3,0-0.6,0.1-0.8,0.1
		c-0.2,0-0.3,0.1-0.3,0.1c-0.1,0-0.2,0.1-0.1,0.2c0,0.1,0.1,0.1,0.2,0.1l0,0c0,0,0.4,0,1.1,0c0.3,0,0.7,0,1.1,0c0.2,0,0.4,0,0.6,0
		c0.2,0,0.4,0,0.6,0c0.2,0,0.4,0,0.6,0c0.2,0,0.4,0,0.6,0c0.2,0,0.4,0,0.6,0c0.2,0,0.4,0,0.5,0c0.3,0,0.6,0,0.8,0c0.2,0,0.3,0,0.3,0
		l0,0c0.3,0,0.5-0.2,0.5-0.5C60.8,24.5,60.5,24.3,60.2,24.3z"/>
	<path class="st2" d="M60.1,23.1c0,0-0.1,0-0.3,0c-0.2,0-0.5,0-0.8,0c-0.2,0-0.3,0-0.5,0c-0.2,0-0.4,0-0.6,0c-0.2,0-0.4,0-0.6,0.1
		c-0.2,0-0.4,0-0.7,0.1c-0.2,0-0.4,0.1-0.7,0.1c-0.2,0-0.4,0-0.6,0.1c-0.4,0.1-0.8,0.1-1.1,0.2c-0.3,0-0.6,0.1-0.8,0.1
		c-0.2,0-0.3,0.1-0.3,0.1C53,23.8,53,23.9,53,24c0,0.1,0.1,0.1,0.2,0.1l0,0c0,0,0.4,0,1.1,0c0.3,0,0.7,0,1.1,0c0.2,0,0.4,0,0.6,0
		c0.2,0,0.4,0,0.6,0c0.2,0,0.4,0,0.6,0c0.2,0,0.4,0,0.6,0c0.2,0,0.4,0,0.6,0c0.2,0,0.4,0,0.5,0c0.3,0,0.6,0,0.8,0c0.2,0,0.3,0,0.3,0
		l0,0c0.3,0,0.5-0.2,0.5-0.5C60.6,23.3,60.4,23.1,60.1,23.1z"/>
	<path class="st2" d="M60,21.8c0,0-0.1,0-0.3,0c-0.2,0-0.5,0-0.8,0c-0.2,0-0.3,0-0.5,0c-0.2,0-0.4,0-0.6,0c-0.2,0-0.4,0-0.6,0.1
		c-0.2,0-0.4,0-0.7,0.1c-0.2,0-0.4,0.1-0.7,0.1c-0.2,0-0.4,0-0.6,0.1c-0.4,0.1-0.8,0.1-1.1,0.2c-0.3,0-0.6,0.1-0.8,0.1
		c-0.2,0-0.3,0.1-0.3,0.1c-0.1,0-0.2,0.1-0.1,0.2c0,0.1,0.1,0.1,0.2,0.1l0,0c0,0,0.4,0,1.1,0c0.3,0,0.7,0,1.1,0c0.2,0,0.4,0,0.6,0
		c0.2,0,0.4,0,0.6,0c0.2,0,0.4,0,0.6,0c0.2,0,0.4,0,0.6,0c0.2,0,0.4,0,0.6,0c0.2,0,0.4,0,0.5,0c0.3,0,0.6,0,0.8,0c0.2,0,0.3,0,0.3,0
		l0,0c0.3,0,0.5-0.2,0.5-0.5C60.5,22,60.3,21.8,60,21.8z"/>
	<path class="st2" d="M59.9,20.6c0,0-0.1,0-0.3,0c-0.2,0-0.5,0-0.8,0c-0.2,0-0.3,0-0.5,0c-0.2,0-0.4,0-0.6,0c-0.2,0-0.4,0-0.6,0.1
		c-0.2,0-0.4,0-0.7,0.1c-0.2,0-0.4,0.1-0.7,0.1c-0.2,0-0.4,0-0.6,0.1c-0.4,0.1-0.8,0.1-1.1,0.2c-0.3,0-0.6,0.1-0.8,0.1
		c-0.2,0-0.3,0.1-0.3,0.1c-0.1,0-0.2,0.1-0.1,0.2c0,0.1,0.1,0.1,0.2,0.1l0,0c0,0,0.4,0,1.1,0c0.3,0,0.7,0,1.1,0c0.2,0,0.4,0,0.6,0
		c0.2,0,0.4,0,0.6,0c0.2,0,0.4,0,0.6,0c0.2,0,0.4,0,0.6,0c0.2,0,0.4,0,0.6,0c0.2,0,0.4,0,0.5,0c0.3,0,0.6,0,0.8,0c0.2,0,0.3,0,0.3,0
		l0,0c0.3,0,0.5-0.2,0.5-0.5C60.4,20.8,60.2,20.6,59.9,20.6z"/>
	<path class="st2" d="M59.8,19.3c0,0-0.1,0-0.3,0c-0.2,0-0.5,0-0.8,0c-0.2,0-0.3,0-0.5,0c-0.2,0-0.4,0-0.6,0c-0.2,0-0.4,0-0.6,0.1
		c-0.2,0-0.4,0-0.7,0.1c-0.2,0-0.4,0.1-0.7,0.1c-0.2,0-0.4,0-0.6,0.1c-0.4,0.1-0.8,0.1-1.1,0.2c-0.3,0-0.6,0.1-0.8,0.1
		c-0.2,0-0.3,0.1-0.3,0.1c-0.1,0-0.2,0.1-0.1,0.2c0,0.1,0.1,0.1,0.2,0.1l0,0c0,0,0.4,0,1.1,0c0.3,0,0.7,0,1.1,0c0.2,0,0.4,0,0.6,0
		c0.2,0,0.4,0,0.6,0c0.2,0,0.4,0,0.6,0c0.2,0,0.4,0,0.6,0c0.2,0,0.4,0,0.6,0c0.2,0,0.4,0,0.5,0c0.3,0,0.6,0,0.8,0c0.2,0,0.3,0,0.3,0
		l0,0c0.3,0,0.5-0.2,0.5-0.5C60.3,19.5,60.1,19.3,59.8,19.3z"/>
</g>
<g>
	<path class="st1" d="M12,29.8L12,29.8c0.1-4.7,1.4-9.1,3.5-12.9h9.2c-0.2,0.7-0.3,1.1-0.5,2c-0.2,0.7-0.7,3.2-1,5.4
		c0.7-0.3,1.5-0.6,2.2-0.8c0.3-2,0.7-3.9,0.8-4.4c0.2-0.8,0.4-1.5,0.6-2.2h12.9v2.8c0.7-0.1,1.3-0.2,2-0.3v-2.5h12.9
		c0.1,0.4,0.3,0.9,0.4,1.3c0.7,0,1.3,0,2,0c-0.1-0.5-0.2-0.8-0.3-1.3h9.2c0.4,0.8,0.8,1.4,1,2c0.8,0.1,1.6,0.3,2.3,0.5
		C64.7,8.1,53.8,0.1,41,0c0,0,0,0,0,0h-0.2h-0.2c0,0,0,0,0,0C23.5,0.2,9.9,14,10,30.9c0,0,0,0,0,0.1C10.7,30.6,11.3,30.1,12,29.8z
		 M64.7,14.9H56c-1.8-5.2-4.4-9.2-7.5-11.8C55.2,5,60.9,9.2,64.7,14.9z M41.7,2c4.9,0.6,9.5,5.4,12.2,12.8H41.7V2z M39.7,2v12.8
		H27.5C30.2,7.5,34.8,2.6,39.7,2z M32.8,3.1c-3.1,2.6-5.7,6.6-7.5,11.8h-8.7C20.5,9.2,26.2,5,32.8,3.1z"/>
</g>
</svg>
