<?xml version="1.0" encoding="utf-8"?>
<!-- Generator: Adobe Illustrator 19.0.0, SVG Export Plug-In . SVG Version: 6.00 Build 0)  -->
<svg version="1.1" xmlns="http://www.w3.org/2000/svg" xmlns:xlink="http://www.w3.org/1999/xlink" x="0px" y="0px"
	 viewBox="0 0 414.9 361.5" style="enable-background:new 0 0 414.9 361.5;" xml:space="preserve">
<style type="text/css">
	.st0{fill:#FFFFFF;stroke:#FFFFFF;stroke-width:2.7;stroke-miterlimit:3.8637;}
	.st1{fill-rule:evenodd;clip-rule:evenodd;}
	.st2{fill:none;stroke:#000000;stroke-width:0.197;stroke-miterlimit:3.8637;}
	.st3{fill:#EE3124;}
	.st4{fill:#FFFFFF;}
</style>
<g id="Ebene_1">
	<g>
		<g>
			<polygon class="st0" points="5.2,9 351.8,9 351.8,355.6 5.2,355.6 5.2,9 			"/>
			<polygon points="229.3,340.6 229.3,237.2 267.6,237.2 300.2,291.2 300.2,237.2 338.5,237.2 338.5,340.6 300.2,340.6 267.6,290.7 
				267.6,340.6 229.3,340.6 			"/>
			<path class="st1" d="M68.7,302.3h21l-10.5-33.2L68.7,302.3L68.7,302.3z M20.9,340.6l37.4-103.3h41.2l38.1,103.3h-39l-3.1-7.7H63
				l-3.1,7.7H20.9L20.9,340.6z"/>
			<polygon class="st2" points="68.8,302.2 89.7,302.2 79.3,269.3 68.8,302.2 			"/>
			<polygon class="st2" points="21.5,340.1 58.5,237.8 99.3,237.8 137,340.1 98.4,340.1 95.4,332.5 63.2,332.5 60.1,340.1 
				21.5,340.1 			"/>
			<path class="st3" d="M132.3,340.5l0-103.3h56.4c0,0,46.2,3.6,46.2,51.7c0,48.8-47.1,51.7-47.1,51.7L132.3,340.5L132.3,340.5z"/>
		</g>
		<g>
			<path class="st4" d="M409.3,27.8c0,11.3-9.2,20.2-20.1,20.2c-10.9,0-20.1-9-20.1-20.2c0-11.3,9.4-20.1,20.1-20.1
				C400.2,7.6,409.3,16.6,409.3,27.8z M371.4,27.8c0,10,8,17.9,17.7,17.9c9.8,0,17.7-8,17.7-17.9c0-9.5-7.7-17.7-17.7-17.7
				C379.4,10,371.4,18,371.4,27.8z M381.8,16.8h7.7c1.6,0,7.4,0,7.4,5.4c0,0.6,0,4-4,5.2c2.2,0.5,3,1.5,3.3,4.2
				c0.3,2.7,0.5,4.7,1.3,6.8h-3.1c-0.4-1.4-0.6-2.2-1.1-5.6c-0.3-3.3-1.2-4.2-4.7-4.2h-3.7v9.8h-3V16.8z M384.8,26.1h4.7
				c1.5,0,4.3,0,4.3-3.3c0-3.4-2.7-3.4-4.3-3.4h-4.7V26.1z"/>
		</g>
	</g>
</g>
<g id="Ebene_2">
</g>
</svg>
