<?xml version="1.0" encoding="utf-8"?>
<!-- Generator: Adobe Illustrator 19.0.0, SVG Export Plug-In . SVG Version: 6.00 Build 0)  -->
<svg version="1.1" id="Layer_1" xmlns="http://www.w3.org/2000/svg" xmlns:xlink="http://www.w3.org/1999/xlink" x="0px" y="0px"
	 viewBox="0 0 283.5 31.2" style="enable-background:new 0 0 283.5 31.2;" xml:space="preserve">
<style type="text/css">
	.st0{fill:#FFFFFF;}
</style>
<g id="XMLID_1_">
	<g id="XMLID_15_">
		<path id="XMLID_73_" class="st0" d="M1.4,25.3V5.6h13.3v3.8H6.3v3.8h7.8V17H6.3v4.3H15v3.9H1.4z"/>
		<path id="XMLID_70_" class="st0" d="M26.3,25.3c-0.1-0.2-0.1-0.3-0.2-0.5c0-0.2-0.1-0.3-0.1-0.5c0-0.2,0-0.4,0-0.6
			c-0.2,0.2-0.4,0.4-0.7,0.7c-0.3,0.2-0.6,0.4-0.9,0.6c-0.3,0.2-0.7,0.3-1.2,0.4c-0.4,0.1-0.9,0.2-1.5,0.2c-0.6,0-1.1-0.1-1.7-0.2
			c-0.6-0.2-1.1-0.4-1.6-0.8c-0.5-0.4-0.9-0.8-1.2-1.4c-0.3-0.6-0.5-1.3-0.5-2.2c0-0.8,0.2-1.5,0.5-2.1c0.3-0.5,0.8-1,1.2-1.3
			c0.5-0.3,1-0.6,1.5-0.7c0.5-0.2,0.9-0.3,1.3-0.4c0.3-0.1,0.7-0.1,1.1-0.2c0.4-0.1,0.8-0.1,1.2-0.1c0.4,0,0.8-0.1,1.2-0.1
			c0.4,0,0.7,0,1,0v-0.5c0-0.4-0.1-0.7-0.2-0.9s-0.3-0.5-0.6-0.6c-0.2-0.2-0.5-0.3-0.9-0.3c-0.3-0.1-0.7-0.1-1.1-0.1s-0.8,0-1.2,0.1
			c-0.4,0.1-0.8,0.2-1.2,0.3s-0.8,0.3-1.1,0.4c-0.4,0.2-0.7,0.3-1,0.5l-1.2-3.2c0.4-0.2,0.8-0.4,1.2-0.5c0.5-0.2,1-0.3,1.5-0.5
			s1.1-0.2,1.7-0.3c0.6-0.1,1.2-0.1,1.8-0.1c1.2,0,2.2,0.1,3.1,0.4c0.9,0.3,1.5,0.6,2.1,1c0.3,0.2,0.5,0.5,0.7,0.7
			c0.2,0.3,0.4,0.6,0.6,1s0.3,0.8,0.4,1.2c0.1,0.5,0.1,1,0.1,1.6v5.6c0,0.8,0,1.4,0.1,2c0.1,0.5,0.3,1.1,0.6,1.5L26.3,25.3z
			 M25.9,18.6c0,0-0.1,0-0.3,0c-0.2,0-0.4,0-0.6,0c-0.2,0-0.5,0-0.7,0.1c-0.2,0-0.5,0-0.7,0.1c-0.2,0-0.4,0.1-0.7,0.2
			c-0.2,0.1-0.5,0.2-0.7,0.3s-0.4,0.3-0.5,0.5c-0.1,0.2-0.2,0.5-0.2,0.8c0,0.3,0.1,0.6,0.2,0.8c0.1,0.2,0.2,0.4,0.4,0.5
			c0.2,0.1,0.4,0.2,0.6,0.3c0.2,0.1,0.4,0.1,0.7,0.1c0.5,0,0.9-0.1,1.4-0.4c0.5-0.3,0.8-0.6,1.1-1.2V18.6z"/>
		<path id="XMLID_68_" class="st0" d="M45.4,20.5c0,0.5-0.1,0.9-0.2,1.3c-0.1,0.4-0.2,0.7-0.4,1c-0.2,0.3-0.3,0.5-0.5,0.7
			c-0.2,0.2-0.4,0.4-0.6,0.5c-0.2,0.1-0.4,0.3-0.6,0.5c-0.3,0.2-0.6,0.3-1,0.5c-0.4,0.1-0.9,0.3-1.4,0.4c-0.6,0.1-1.2,0.1-2,0.1
			c-0.7,0-1.5-0.1-2.1-0.2c-0.7-0.2-1.3-0.3-1.8-0.6c-0.5-0.2-1-0.5-1.4-0.7c-0.4-0.3-0.7-0.5-1-0.7l1.9-3c0.4,0.3,0.7,0.6,1.2,0.8
			c0.4,0.2,0.8,0.4,1.3,0.6c0.4,0.2,0.8,0.3,1.2,0.3c0.4,0.1,0.7,0.1,1,0.1s0.5,0,0.7,0c0.2,0,0.4-0.1,0.6-0.2
			c0.2-0.1,0.3-0.2,0.4-0.3c0.1-0.1,0.2-0.3,0.2-0.5c0-0.2-0.1-0.4-0.2-0.6c-0.2-0.1-0.4-0.3-0.6-0.4c-0.2-0.1-0.5-0.2-0.8-0.3
			c-0.3-0.1-0.5-0.1-0.8-0.2c-0.5-0.1-0.9-0.3-1.3-0.4c-0.4-0.1-0.8-0.3-1.1-0.4c-0.2-0.1-0.4-0.2-0.8-0.4c-0.3-0.2-0.7-0.4-1-0.7
			c-0.3-0.3-0.6-0.7-0.9-1.2c-0.2-0.5-0.4-1.1-0.4-1.8c0-0.7,0.1-1.4,0.4-1.9c0.3-0.6,0.7-1.1,1.2-1.5c0.5-0.4,1.2-0.7,2-1
			c0.8-0.2,1.6-0.3,2.6-0.3c1,0,1.8,0.1,2.6,0.3c0.7,0.2,1.4,0.4,1.9,0.7c0.6,0.3,1.1,0.6,1.5,1L43.7,15c-0.4-0.3-0.7-0.5-1.1-0.7
			c-0.4-0.2-0.7-0.3-1.1-0.5s-0.7-0.2-1-0.3c-0.3-0.1-0.6-0.1-0.9-0.1c-0.3,0-0.5,0-0.7,0c-0.2,0-0.4,0.1-0.6,0.2
			c-0.2,0.1-0.3,0.2-0.4,0.3c-0.1,0.1-0.2,0.3-0.2,0.5s0.1,0.4,0.2,0.5c0.2,0.1,0.3,0.3,0.6,0.4s0.5,0.2,0.8,0.3s0.6,0.1,0.8,0.2
			c0.5,0.2,1,0.3,1.5,0.5c0.4,0.1,0.8,0.3,1,0.4c0.1,0.1,0.4,0.2,0.7,0.3c0.3,0.2,0.6,0.4,0.9,0.7c0.3,0.3,0.6,0.7,0.8,1.1
			C45.3,19.3,45.4,19.9,45.4,20.5z"/>
		<path id="XMLID_66_" class="st0" d="M56.4,25.9c-0.4,0.9-0.7,1.7-1.1,2.3c-0.3,0.6-0.7,1.1-1.1,1.5c-0.4,0.4-0.8,0.6-1.3,0.7
			c-0.5,0.1-1,0.2-1.7,0.2c-0.6,0-1.2,0-1.7-0.1c-0.5-0.1-0.9-0.2-1.3-0.3c-0.4-0.1-0.8-0.2-1.1-0.4l1-3.5c0.2,0.1,0.4,0.2,0.6,0.2
			c0.2,0.1,0.4,0.1,0.6,0.2c0.2,0,0.4,0.1,0.6,0.1c0.4,0,0.7-0.1,0.9-0.2c0.2-0.1,0.4-0.4,0.6-0.9l0.3-0.9l-5.5-14.3h5.1l3,10l3-10
			h5.1L56.4,25.9z"/>
		<path id="XMLID_64_" class="st0" d="M81,22.2c-0.4,0.6-1,1.2-1.7,1.7c-0.3,0.2-0.6,0.4-1,0.6c-0.4,0.2-0.8,0.4-1.3,0.5
			c-0.5,0.2-1,0.3-1.6,0.4c-0.6,0.1-1.2,0.1-1.9,0.1c-1.3,0-2.6-0.2-3.8-0.7c-1.2-0.4-2.2-1.1-3.1-1.9c-0.9-0.9-1.6-1.9-2.1-3.2
			c-0.5-1.3-0.8-2.7-0.8-4.4s0.3-3.1,0.8-4.4c0.5-1.3,1.3-2.3,2.2-3.2c0.9-0.9,2-1.5,3.1-1.9c1.2-0.4,2.4-0.6,3.7-0.6
			c0.8,0,1.6,0.1,2.3,0.2c0.7,0.2,1.3,0.4,1.8,0.6c0.5,0.2,1,0.5,1.4,0.8c0.4,0.3,0.7,0.5,1,0.8c0.3,0.2,0.5,0.5,0.6,0.6
			C80.9,8.5,81,8.6,81,8.6l-2.4,3.3c-0.3-0.4-0.7-0.8-1.2-1.2c-0.2-0.2-0.4-0.3-0.7-0.4c-0.2-0.1-0.5-0.3-0.8-0.4
			c-0.3-0.1-0.6-0.2-0.9-0.3c-0.3-0.1-0.7-0.1-1.1-0.1c-0.8,0-1.4,0.1-2.1,0.4c-0.6,0.3-1.2,0.7-1.6,1.2c-0.4,0.5-0.8,1.1-1.1,1.8
			c-0.3,0.7-0.4,1.5-0.4,2.4c0,0.9,0.1,1.7,0.4,2.4c0.2,0.7,0.6,1.3,1,1.8c0.4,0.5,1,0.9,1.6,1.2c0.6,0.3,1.3,0.4,2.1,0.4
			c0.8,0,1.4-0.1,2-0.4c0.6-0.2,1.1-0.5,1.5-0.8c0.5-0.3,0.9-0.7,1.2-1.2L81,22.2z"/>
		<path id="XMLID_61_" class="st0" d="M91.8,25.3c-0.1-0.2-0.1-0.3-0.2-0.5c0-0.2-0.1-0.3-0.1-0.5c0-0.2,0-0.4,0-0.6
			c-0.2,0.2-0.4,0.4-0.7,0.7c-0.3,0.2-0.6,0.4-0.9,0.6c-0.3,0.2-0.7,0.3-1.2,0.4c-0.4,0.1-0.9,0.2-1.5,0.2s-1.1-0.1-1.7-0.2
			s-1.1-0.4-1.6-0.8c-0.5-0.4-0.9-0.8-1.2-1.4c-0.3-0.6-0.5-1.3-0.5-2.2c0-0.8,0.2-1.5,0.5-2.1c0.3-0.5,0.8-1,1.2-1.3
			c0.5-0.3,1-0.6,1.5-0.7c0.5-0.2,0.9-0.3,1.3-0.4c0.3-0.1,0.7-0.1,1.1-0.2c0.4-0.1,0.8-0.1,1.2-0.1c0.4,0,0.8-0.1,1.2-0.1
			c0.4,0,0.7,0,1,0v-0.5c0-0.4-0.1-0.7-0.2-0.9s-0.3-0.5-0.6-0.6c-0.2-0.2-0.5-0.3-0.9-0.3c-0.3-0.1-0.7-0.1-1.1-0.1s-0.8,0-1.2,0.1
			c-0.4,0.1-0.8,0.2-1.2,0.3s-0.8,0.3-1.1,0.4c-0.4,0.2-0.7,0.3-1,0.5l-1.2-3.2c0.4-0.2,0.8-0.4,1.2-0.5c0.5-0.2,1-0.3,1.5-0.5
			s1.1-0.2,1.7-0.3c0.6-0.1,1.2-0.1,1.8-0.1c1.2,0,2.2,0.1,3.1,0.4c0.9,0.3,1.5,0.6,2.1,1c0.3,0.2,0.5,0.5,0.7,0.7
			c0.2,0.3,0.4,0.6,0.6,1c0.2,0.4,0.3,0.8,0.4,1.2c0.1,0.5,0.1,1,0.1,1.6v5.6c0,0.8,0,1.4,0.1,2c0.1,0.5,0.3,1.1,0.6,1.5L91.8,25.3z
			 M91.3,18.6c0,0-0.1,0-0.3,0c-0.2,0-0.4,0-0.6,0c-0.2,0-0.5,0-0.7,0.1c-0.2,0-0.5,0-0.7,0.1c-0.2,0-0.4,0.1-0.7,0.2
			c-0.2,0.1-0.5,0.2-0.7,0.3c-0.2,0.1-0.4,0.3-0.5,0.5C87.1,20,87,20.3,87,20.6c0,0.3,0.1,0.6,0.2,0.8c0.1,0.2,0.2,0.4,0.4,0.5
			c0.2,0.1,0.4,0.2,0.6,0.3c0.2,0.1,0.4,0.1,0.7,0.1c0.5,0,0.9-0.1,1.4-0.4c0.5-0.3,0.8-0.6,1.1-1.2V18.6z"/>
		<path id="XMLID_59_" class="st0" d="M108.1,14.9c-0.1,0-0.2-0.1-0.4-0.1c-0.1,0-0.3,0-0.4-0.1c-0.2,0-0.3,0-0.5,0
			c-0.3,0-0.6,0-0.9,0.1c-0.3,0.1-0.5,0.2-0.8,0.4c-0.4,0.3-0.7,0.6-1.1,1c-0.3,0.4-0.5,1-0.7,1.6v7.4h-4.8V10.5h4.5l0.3,2.4
			c0.2-0.3,0.4-0.7,0.7-1c0.3-0.3,0.6-0.6,0.9-0.9c0.4-0.3,0.7-0.5,1.2-0.6c0.4-0.2,0.9-0.2,1.4-0.2c0.2,0,0.4,0,0.6,0
			c0.2,0,0.3,0,0.4,0.1c0.1,0,0.2,0.1,0.3,0.1L108.1,14.9z"/>
		<path id="XMLID_56_" class="st0" d="M113.8,19c0,0.5,0.1,1,0.3,1.4c0.2,0.4,0.5,0.7,0.8,0.9c0.3,0.2,0.7,0.4,1.1,0.5
			c0.4,0.1,0.9,0.2,1.3,0.2s0.9,0,1.4-0.1c0.4-0.1,0.9-0.2,1.2-0.3s0.7-0.3,1-0.4c0.3-0.2,0.5-0.3,0.7-0.4l1.5,2.8
			c-0.4,0.4-0.9,0.7-1.6,1c-0.5,0.3-1.2,0.5-2,0.7c-0.8,0.2-1.8,0.3-2.9,0.3s-2.2-0.2-3.1-0.5c-0.9-0.3-1.8-0.8-2.4-1.5
			c-0.7-0.7-1.2-1.5-1.6-2.4c-0.4-0.9-0.6-2-0.6-3.3c0-1.2,0.2-2.3,0.6-3.3s0.9-1.8,1.6-2.4s1.5-1.1,2.4-1.5c0.9-0.3,2-0.5,3.1-0.5
			s2.1,0.2,2.9,0.6c0.9,0.4,1.6,0.9,2.2,1.6c0.6,0.7,1,1.5,1.3,2.4c0.3,0.9,0.5,2,0.5,3.1V19H113.8z M119.1,16.2
			c0-0.4-0.1-0.7-0.2-1.1c-0.1-0.3-0.3-0.6-0.5-0.9c-0.2-0.3-0.5-0.5-0.8-0.6s-0.7-0.2-1.2-0.2c-0.5,0-0.9,0.1-1.2,0.2
			c-0.3,0.2-0.6,0.4-0.9,0.6c-0.2,0.3-0.4,0.6-0.5,0.9c-0.1,0.3-0.2,0.7-0.3,1.1H119.1z"/>
		<path id="XMLID_35_" class="st0" d="M174.4,25.3l-1.1-3.7h-6.9l-1.2,3.7h-4.8L167,5.6h5.9l6.7,19.7H174.4z M169.8,10.2l-2.3,7.5
			h4.7L169.8,10.2z"/>
		<path id="XMLID_29_" class="st0" d="M193,23.4c-0.1,0.1-0.2,0.2-0.5,0.5c-0.3,0.2-0.6,0.5-1.1,0.7c-0.5,0.2-1.1,0.5-1.8,0.7
			c-0.7,0.2-1.6,0.3-2.5,0.3c-1,0-1.9-0.2-2.9-0.5c-0.9-0.3-1.7-0.8-2.4-1.4c-0.7-0.6-1.3-1.4-1.7-2.4c-0.4-1-0.6-2.1-0.6-3.4
			c0-1.3,0.2-2.4,0.7-3.4c0.4-1,1-1.8,1.7-2.4c0.7-0.6,1.5-1.1,2.5-1.4c0.9-0.3,1.9-0.5,2.8-0.5c0.6,0,1.2,0.1,1.8,0.2
			c0.5,0.1,1,0.2,1.4,0.4c0.4,0.1,0.8,0.3,1.1,0.5c0.3,0.2,0.6,0.4,0.8,0.5c0.2,0.2,0.4,0.3,0.5,0.4c0.1,0.1,0.2,0.2,0.2,0.2
			l-1.7,3.1c0,0-0.1-0.1-0.3-0.3c-0.2-0.2-0.4-0.3-0.7-0.5c-0.3-0.2-0.6-0.3-1-0.5c-0.4-0.1-0.8-0.2-1.3-0.2c-0.5,0-0.9,0.1-1.4,0.2
			c-0.4,0.2-0.8,0.4-1.2,0.7c-0.3,0.3-0.6,0.7-0.8,1.2c-0.2,0.5-0.3,1-0.3,1.7c0,0.6,0.1,1.2,0.3,1.7c0.2,0.5,0.5,0.9,0.8,1.2
			c0.3,0.3,0.7,0.6,1.2,0.7c0.4,0.2,0.9,0.2,1.4,0.2c0.5,0,0.9-0.1,1.3-0.2c0.4-0.1,0.8-0.3,1-0.5c0.3-0.2,0.5-0.3,0.7-0.5
			c0.2-0.2,0.3-0.3,0.3-0.3L193,23.4z"/>
		<path id="XMLID_26_" class="st0" d="M203.6,25.3c-0.1-0.2-0.1-0.3-0.2-0.5c0-0.2-0.1-0.3-0.1-0.5c0-0.2,0-0.4,0-0.6
			c-0.2,0.2-0.4,0.4-0.7,0.7c-0.3,0.2-0.6,0.4-0.9,0.6c-0.3,0.2-0.7,0.3-1.2,0.4c-0.4,0.1-0.9,0.2-1.5,0.2c-0.6,0-1.1-0.1-1.7-0.2
			s-1.1-0.4-1.6-0.8c-0.5-0.4-0.9-0.8-1.2-1.4c-0.3-0.6-0.5-1.3-0.5-2.2c0-0.8,0.2-1.5,0.5-2.1c0.3-0.5,0.8-1,1.2-1.3
			c0.5-0.3,1-0.6,1.5-0.7c0.5-0.2,0.9-0.3,1.3-0.4c0.3-0.1,0.7-0.1,1.1-0.2c0.4-0.1,0.8-0.1,1.2-0.1c0.4,0,0.8-0.1,1.2-0.1
			c0.4,0,0.7,0,1,0v-0.5c0-0.4-0.1-0.7-0.2-0.9s-0.3-0.5-0.6-0.6c-0.2-0.2-0.5-0.3-0.9-0.3c-0.3-0.1-0.7-0.1-1.1-0.1s-0.8,0-1.2,0.1
			c-0.4,0.1-0.8,0.2-1.2,0.3c-0.4,0.1-0.8,0.3-1.1,0.4c-0.4,0.2-0.7,0.3-1,0.5l-1.2-3.2c0.4-0.2,0.8-0.4,1.2-0.5
			c0.5-0.2,1-0.3,1.5-0.5s1.1-0.2,1.7-0.3c0.6-0.1,1.2-0.1,1.8-0.1c1.2,0,2.2,0.1,3.1,0.4c0.9,0.3,1.5,0.6,2.1,1
			c0.3,0.2,0.5,0.5,0.7,0.7s0.4,0.6,0.6,1s0.3,0.8,0.4,1.2c0.1,0.5,0.1,1,0.1,1.6v5.6c0,0.8,0,1.4,0.1,2c0.1,0.5,0.3,1.1,0.6,1.5
			L203.6,25.3z M203.1,18.6c0,0-0.1,0-0.3,0c-0.2,0-0.4,0-0.6,0c-0.2,0-0.5,0-0.7,0.1c-0.2,0-0.5,0-0.7,0.1c-0.2,0-0.4,0.1-0.7,0.2
			c-0.2,0.1-0.5,0.2-0.7,0.3s-0.4,0.3-0.5,0.5c-0.1,0.2-0.2,0.5-0.2,0.8c0,0.3,0.1,0.6,0.2,0.8c0.1,0.2,0.2,0.4,0.4,0.5
			c0.2,0.1,0.4,0.2,0.6,0.3c0.2,0.1,0.4,0.1,0.7,0.1c0.5,0,0.9-0.1,1.4-0.4c0.5-0.3,0.8-0.6,1.1-1.2V18.6z"/>
		<path id="XMLID_23_" class="st0" d="M220.6,25.3l-0.4-1.9c-0.1,0.1-0.2,0.3-0.4,0.5c-0.2,0.2-0.5,0.5-0.8,0.7
			c-0.3,0.3-0.8,0.5-1.3,0.7s-1.1,0.3-1.9,0.3c-1,0-1.8-0.2-2.6-0.6c-0.8-0.4-1.5-0.9-2-1.6c-0.6-0.7-1-1.5-1.3-2.4
			c-0.3-0.9-0.5-2-0.5-3.1c0-1.1,0.2-2.2,0.5-3.1c0.3-0.9,0.7-1.7,1.3-2.4c0.6-0.7,1.2-1.2,2-1.6c0.8-0.4,1.7-0.6,2.6-0.6
			c0.7,0,1.3,0.1,1.8,0.3s0.9,0.4,1.3,0.7c0.4,0.3,0.6,0.5,0.8,0.8c0.2,0.3,0.3,0.4,0.4,0.5V5h4.8v20.3H220.6z M220.3,17.9
			c0-0.6-0.1-1.1-0.2-1.6c-0.1-0.5-0.3-0.9-0.6-1.3c-0.3-0.4-0.6-0.7-0.9-0.9c-0.4-0.2-0.8-0.3-1.3-0.3c-0.5,0-0.9,0.1-1.3,0.3
			c-0.4,0.2-0.7,0.5-0.9,0.9c-0.3,0.4-0.4,0.8-0.6,1.3c-0.1,0.5-0.2,1-0.2,1.6c0,0.5,0.1,1.1,0.2,1.5c0.1,0.5,0.3,0.9,0.6,1.3
			c0.2,0.4,0.6,0.7,0.9,0.9c0.4,0.2,0.8,0.3,1.3,0.3c0.5,0,0.9-0.1,1.3-0.3c0.4-0.2,0.7-0.5,1-0.9c0.3-0.4,0.5-0.8,0.6-1.3
			C220.2,18.9,220.3,18.4,220.3,17.9z"/>
		<path id="XMLID_20_" class="st0" d="M230.9,19c0,0.5,0.1,1,0.3,1.4c0.2,0.4,0.5,0.7,0.8,0.9c0.3,0.2,0.7,0.4,1.1,0.5
			c0.4,0.1,0.9,0.2,1.3,0.2c0.5,0,0.9,0,1.4-0.1c0.4-0.1,0.9-0.2,1.2-0.3s0.7-0.3,1-0.4c0.3-0.2,0.5-0.3,0.7-0.4l1.5,2.8
			c-0.4,0.4-0.9,0.7-1.6,1c-0.5,0.3-1.2,0.5-2,0.7c-0.8,0.2-1.8,0.3-2.9,0.3c-1.1,0-2.2-0.2-3.1-0.5c-0.9-0.3-1.8-0.8-2.4-1.5
			c-0.7-0.7-1.2-1.5-1.6-2.4c-0.4-0.9-0.6-2-0.6-3.3c0-1.2,0.2-2.3,0.6-3.3s0.9-1.8,1.6-2.4c0.7-0.7,1.5-1.1,2.4-1.5
			c0.9-0.3,2-0.5,3.1-0.5c1.1,0,2.1,0.2,2.9,0.6c0.9,0.4,1.6,0.9,2.2,1.6c0.6,0.7,1,1.5,1.3,2.4c0.3,0.9,0.5,2,0.5,3.1V19H230.9z
			 M236.3,16.2c0-0.4-0.1-0.7-0.2-1.1c-0.1-0.3-0.3-0.6-0.5-0.9c-0.2-0.3-0.5-0.5-0.8-0.6c-0.3-0.2-0.7-0.2-1.2-0.2
			c-0.5,0-0.9,0.1-1.2,0.2c-0.3,0.2-0.6,0.4-0.9,0.6c-0.2,0.3-0.4,0.6-0.5,0.9c-0.1,0.3-0.2,0.7-0.3,1.1H236.3z"/>
		<path id="XMLID_18_" class="st0" d="M260.7,25.3v-8.4c0-0.4,0-0.7-0.1-1.1c-0.1-0.3-0.2-0.6-0.3-0.8c-0.1-0.2-0.3-0.4-0.6-0.5
			c-0.3-0.1-0.6-0.2-0.9-0.2c-0.4,0-0.7,0.1-1,0.3c-0.3,0.2-0.5,0.4-0.7,0.7c-0.2,0.3-0.3,0.5-0.4,0.8c-0.1,0.3-0.2,0.6-0.2,0.8v8.5
			h-4.8v-8.4c0-0.4,0-0.7-0.1-1.1c-0.1-0.3-0.2-0.6-0.3-0.8c-0.1-0.2-0.3-0.4-0.6-0.5c-0.3-0.1-0.6-0.2-0.9-0.2
			c-0.4,0-0.7,0.1-1,0.3c-0.3,0.2-0.5,0.4-0.7,0.7c-0.2,0.3-0.3,0.5-0.4,0.8c-0.1,0.3-0.2,0.6-0.2,0.8v8.5h-4.8V10.5h4.5l0.3,2.3
			c0.5-0.8,1.1-1.4,1.8-1.9c0.7-0.5,1.5-0.7,2.5-0.7c1,0,1.9,0.2,2.6,0.7c0.7,0.4,1.3,1.1,1.6,2.1c0.3-0.4,0.6-0.8,0.9-1.1
			c0.3-0.3,0.7-0.6,1.1-0.9c0.4-0.2,0.8-0.4,1.3-0.6c0.5-0.1,1-0.2,1.5-0.2c1.5,0,2.7,0.5,3.5,1.4c0.8,0.9,1.2,2.3,1.2,4.1v9.5
			H260.7z"/>
		<path id="XMLID_16_" class="st0" d="M276.1,25.9c-0.4,0.9-0.7,1.7-1.1,2.3s-0.7,1.1-1.1,1.5c-0.4,0.4-0.8,0.6-1.3,0.7
			c-0.5,0.1-1,0.2-1.7,0.2c-0.6,0-1.2,0-1.7-0.1s-0.9-0.2-1.3-0.3c-0.4-0.1-0.8-0.2-1.1-0.4l1-3.5c0.2,0.1,0.4,0.2,0.6,0.2
			c0.2,0.1,0.4,0.1,0.6,0.2c0.2,0,0.4,0.1,0.6,0.1c0.4,0,0.7-0.1,0.9-0.2s0.4-0.4,0.6-0.9l0.3-0.9l-5.5-14.3h5.1l3,10l3-10h5.1
			L276.1,25.9z"/>
	</g>
	<path id="XMLID_2_" class="st0" d="M156.8,4c-0.1-0.5-0.2-1-0.4-1.4c-0.8-1.7-2.5-2.3-4.6-1.9c-2.3,0.5-6.1,4.1-9.1,8.6
		c-0.8-0.3-1.6-0.7-2.4-1c-2.9-1.2-5.4-2.3-7.7-1.3c-0.8,0.3-1.5,1-1.9,1.8c-0.7,0.9-0.8,2.3-0.3,4.3c1.4,5.5,7.6,14.9,12.6,16.1
		c0.4,0.1,0.7,0.1,1.1,0.1c1,0,1.9-0.4,2.6-1.1c2.5-2.1,5-6.9,5.9-8.7c1.7-3.4,3-7,3.8-10C156.9,7.2,157,5.4,156.8,4z M155.3,2.6
		c-3.6,1.4-7.8,6.9-10.6,12.5c-0.4,0.1-0.9,0.2-1.3,0.3c-0.6,0.1-1.3,0.2-2,0.3c-3.6-3.4-7.7-6.2-9.7-7.1c0.3-0.4,0.7-0.7,1.1-0.8
		c0.5-0.2,1.1-0.3,1.7-0.3c1.6,0,3.4,0.8,5.4,1.6c0.9,0.4,1.8,0.8,2.8,1.1l0.3,0.1l0.2-0.3c3.3-5,7-8.1,8.7-8.5
		C153.4,1.3,154.6,1.6,155.3,2.6z M153.5,9.8c-1.6,1.4-4.4,3.6-7.6,4.9c2.7-5.1,6.5-9.9,9.7-11.2c0.1,0.2,0.2,0.4,0.2,0.7
		C156.1,5.8,155.5,8.1,153.5,9.8z M144.1,16.2c-0.3,0.5-0.5,1.1-0.7,1.6c-0.4-0.4-0.8-0.8-1.2-1.2c0.4-0.1,0.9-0.1,1.3-0.2
		C143.7,16.3,143.9,16.3,144.1,16.2z M130.9,10.7c0-0.4,0.2-0.9,0.3-1.2c1.7,0.7,5.5,3.2,8.9,6.3c-2.8,0-5.5-0.5-7.1-1.6
		C131.1,13,130.8,11.6,130.9,10.7z M144.4,28.4C144.4,28.4,144.4,28.4,144.4,28.4c-1.2,0-1.9-0.7-2.1-2.1c-0.2-1.7,0.3-4.2,1.4-6.9
		c1.3,1.6,2.4,3.2,2.8,4.7c0.4,1.4,0.3,2.5-0.5,3.4c-0.1,0.1-0.1,0.1-0.2,0.2C145.3,28.2,144.8,28.4,144.4,28.4z M132.5,15
		c1.8,1.1,4.5,1.7,7.4,1.7c0.4,0,0.8,0,1.2,0c0.7,0.7,1.4,1.4,2,2c-1.2,3.1-1.9,5.9-1.6,7.8c0.1,0.6,0.2,1,0.5,1.4
		c-1.8-0.9-3.9-2.9-5.9-5.6c-1.9-2.6-3.6-5.6-4.5-8.1C131.8,14.5,132.1,14.7,132.5,15z M147.7,25.9c0-0.6,0-1.3-0.3-2
		c-0.5-1.7-1.7-3.5-3.3-5.4c0.4-0.9,0.8-1.8,1.2-2.7c3.7-1.2,7-3.8,8.8-5.4c0.6-0.5,1-1,1.4-1.6c-0.7,2.9-2,6.6-3.8,10.4
		C150.3,22,148.9,24.3,147.7,25.9z"/>
</g>
</svg>
