<svg id="Layer_1" data-name="Layer 1" xmlns="http://www.w3.org/2000/svg" xmlns:xlink="http://www.w3.org/1999/xlink" viewBox="0 0 335.08 80"><defs><style>.cls-1,.cls-4{fill:none;}.cls-2{fill:#fff;}.cls-3{clip-path:url(#clip-path);}.cls-4{stroke:#fff;stroke-width:0.63px;}</style><clipPath id="clip-path" transform="translate(-515 -461)"><rect class="cls-1" x="655" y="467.3" width="195.08" height="58.44"/></clipPath></defs><title>pce-logo-rev</title><path class="cls-2" d="M602.31,461v14.43h10.14l-11.32,42.14L587.08,461H572.43l-15.2,56.57L546.8,475.43h10.56V461H515v14.43h9.39L540.78,541h22.74l10.85-41.26L584.68,541h22.74l17.25-65.57H634V461Z" transform="translate(-515 -461)"/><path class="cls-2" d="M656.8,520a2.85,2.85,0,0,0,3,2.77,3,3,0,0,0,3.09-2.77v-6.17l.81-.83h-2.49l.82.83V520a2,2,0,0,1-2,2,2.05,2.05,0,0,1-2.11-2v-6.17l.83-.83H656l.83.83V520Zm10.76,1.73v-7.16l5.13,8H673v-8.73l.82-.83h-2.49l.83.83v6.07l-4.31-6.9h-2l.81.83v7.9l-.81.83h2.49l-.83-.83Zm8.89-8.73.76.76v8l-.76.76H679l-.76-.76v-8L679,513Zm7.42,0h-2.71l.78.76,2.69,8.8h.49l2.77-8.8.78-.76h-2.3l.75.74-2,6.61-2-6.61.75-.74Zm12.39,9.56v-1.75l-1,1h-2.9v-4h2.15l.76.76v-2.23l-.76.76h-2.15v-3.4h2.9l1,1V513h-5.72l.75.76v8l-.75.76Zm4.29-.76v-3.69H702l2.32,4.45h1.59l-.75-.76L703,517.85a2.51,2.51,0,0,0,1.8-2.23,2.86,2.86,0,0,0-3.09-2.64h-3l.75.76v8l-.75.76h2.56l-.76-.76Zm0-8.08h1.17a1.88,1.88,0,0,1,1.83,1.91,1.79,1.79,0,0,1-1.83,1.77h-1.17v-3.68Zm12.28,6.19a2.12,2.12,0,0,0-.89-1.83L710,516.64a2.25,2.25,0,0,1-1.05-1.64,1.34,1.34,0,0,1,1.38-1.36,5.44,5.44,0,0,1,.62.11l.84.91.89-1.33-1.9-.36a1.5,1.5,0,0,0-.45,0,2.41,2.41,0,0,0-2.43,2.35,2.76,2.76,0,0,0,1.23,2.19l2,1.41a1.62,1.62,0,0,1,.68,1.39,1.58,1.58,0,0,1-1.59,1.69,1.59,1.59,0,0,1-.66-.13l-.91-1.07-.83,1.49,1.83.36a3.27,3.27,0,0,0,.57.06,2.74,2.74,0,0,0,2.66-2.79m2.77-6.9.76.76v8l-.76.76h2.58l-.76-.76v-8l.76-.76Zm8.67,8.79v-8.08h1.81l1,1V513h-6.72v1.73l1-1h1.8v8.08l-.74.76H725l-.76-.76Zm5-8,2.41,4.36v3.68l-.76.76h2.57l-.76-.76V518.1l2.46-4.34L736,513h-2.36l.74.74-2,3.58-1.91-3.58.74-.74h-2.7l.78.76Zm15.59,2.74a3.21,3.21,0,0,0-1.45.48,4.21,4.21,0,0,0-1.94,3.69c0,.94.45,2,1.7,2a3.46,3.46,0,0,0,2-.9,4.83,4.83,0,0,0,1.41-3.39,1.66,1.66,0,0,0-1.72-1.87m-2.3,3.85a3.63,3.63,0,0,1,1.43-3.24,1.25,1.25,0,0,1,.44-.11c.67,0,1.06.51,1.06,1.55,0,1.75-.89,3.34-1.45,3.52a1.35,1.35,0,0,1-.42.09c-.75,0-1.06-.81-1.06-1.81m6.06-3.53-.36.35,0,.13h1.12c-.17,1.21-.34,2.26-.59,4-.36,2.52-.67,3.4-.93,3.62a.49.49,0,0,1-.34.12,1.84,1.84,0,0,1-.59-.2.31.31,0,0,0-.38.09.82.82,0,0,0-.23.46c0,.27.35.4.58.4a2.27,2.27,0,0,0,1.48-.93c.46-.56,1.08-1.87,1.6-4.91.09-.57.2-1.13.43-2.61l1.37-.13.3-.35h-1.59c.4-2.49.74-3.24,1.32-3.24a1.46,1.46,0,0,1,1,.45.27.27,0,0,0,.38,0,.8.8,0,0,0,.27-.5c0-.27-.35-.57-.81-.57a3,3,0,0,0-2.17,1.13,6.09,6.09,0,0,0-1.06,2.75Zm14.16,5.73,2.19-6.92,2.12,6.92h.49l2.77-8.8.78-.76h-2.3l.74.74-2,6.61-2-6.61.74-.74h-2.71l.76.76.19.63-1.83,6-2-6.61.75-.74h-2.71l.78.76,2.69,8.8Zm10.16-.74.7-2h3.16l.66,2-.75.74h2.71l-.76-.78-3-8.78h-.49l-3,8.78-.78.78h2.3l-.74-.74Zm2.3-6.69,1.31,4h-2.67l1.36-4ZM786,519.88a2.12,2.12,0,0,0-.89-1.83l-1.94-1.41a2.25,2.25,0,0,1-1.05-1.64,1.35,1.35,0,0,1,1.38-1.36,5.5,5.5,0,0,1,.62.11l.84.91.89-1.33-1.89-.36a1.51,1.51,0,0,0-.45,0,2.41,2.41,0,0,0-2.43,2.35,2.76,2.76,0,0,0,1.23,2.19l2,1.41a1.62,1.62,0,0,1,.68,1.39,1.58,1.58,0,0,1-1.59,1.69,1.6,1.6,0,0,1-.66-.13l-.91-1.07-.83,1.49,1.83.36a3.28,3.28,0,0,0,.57.06,2.74,2.74,0,0,0,2.66-2.79m4.31-2.14h4v4l-.76.76h2.58l-.76-.76v-8l.76-.76h-2.58l.76.76V517h-4v-3.29L791,513h-2.56l.75.76v8l-.75.76H791l-.76-.76v-4Zm8.49-4.76.76.76v8l-.76.76h2.57l-.76-.76v-8l.76-.76Zm6.85,8.73v-7.16l5,8h.43v-8.73l.83-.83H809.4l.83.83v6.07l-4.31-6.9h-2l.81.83v7.9l-.81.83h2.49l-.83-.83Zm14.17-3.51v3.08a2.06,2.06,0,0,1-1.57.68c-2.12,0-3.19-2.14-3.19-4.2s1.35-4.2,3.19-4.2a1.46,1.46,0,0,1,1.17.45l1.05,1V513.4a4.26,4.26,0,0,0-2.22-.55,4.93,4.93,0,0,0,0,9.82,4.17,4.17,0,0,0,2.62-.7V518.2l.74-.76H819l.76.76Zm7.07,3.58v-8.08h1.81l1,1V513H823v1.73l1-1h1.8v8.08l-.75.76h2.56l-.76-.76Zm4.32-4c0,2.43,1.38,5,3.82,5s3.84-2.56,3.84-5-1.38-5-3.84-5-3.82,2.56-3.82,5M835,522c-1.91,0-2.58-2.29-2.58-4.26s.66-4.26,2.58-4.26,2.59,2.28,2.59,4.26S836.93,522,835,522m7.38-.31v-7.16l5,8h.49v-8.73l.83-.83h-2.5l.83.83v6.07l-4.31-6.9h-2l.81.83v7.9l-.81.83h2.49l-.83-.83Z" transform="translate(-515 -461)"/><g class="cls-3"><line class="cls-4" x1="140" y1="44.17" x2="335.08" y2="44.17"/></g><path class="cls-2" d="M660,468.46h-1.37v4.65H660a2.33,2.33,0,0,0,0-4.65Zm0,5.58h-1.37v3.81l1,1H656l1-1v-9.34l-1-1H660c2.07,0,4.29,1,4.29,3.25S662.12,474,660,474Z" transform="translate(-515 -461)"/><path class="cls-2" d="M670.16,468.46h-1.37v4.25h1.37a1.94,1.94,0,0,0,1.93-2.09,2,2,0,0,0-1.93-2.17ZM673,478.82l-2.69-5.18h-1.5v4.21l1,1H666.1l1-1v-9.34l-1-1h4.06c1.91,0,3.89,1,3.89,3.09a2.92,2.92,0,0,1-2.1,2.68l2.5,4.54,1,1Z" transform="translate(-515 -461)"/><path class="cls-2" d="M681.52,468.22c-2.15,0-2.77,2.73-2.77,5s.62,5,2.77,5,2.77-2.73,2.77-5-.62-5-2.77-5Zm0,10.84c-3,0-4.84-2.93-4.84-5.88s1.86-5.88,4.84-5.88,4.84,2.93,4.84,5.88-1.86,5.88-4.84,5.88Z" transform="translate(-515 -461)"/><polygon class="cls-2" points="179.21 7.46 176.11 7.46 176.11 11.32 178.33 11.32 179.3 10.35 179.3 13.22 178.33 12.24 176.11 12.24 176.11 16.85 177.09 17.82 173.42 17.82 174.39 16.85 174.39 7.51 173.42 6.54 180.5 6.54 180.5 8.75 179.21 7.46 179.21 7.46"/><polygon class="cls-2" points="182.1 17.82 183.07 16.85 183.07 7.51 182.1 6.54 189.18 6.54 189.18 8.75 187.89 7.46 184.8 7.46 184.8 11.32 187.01 11.32 187.98 10.35 187.98 13.22 187.01 12.24 184.8 12.24 184.8 16.9 187.89 16.9 189.18 15.61 189.18 17.82 182.1 17.82 182.1 17.82"/><path class="cls-2" d="M709.09,478.95a6.2,6.2,0,0,1-1-.08l-2.34-.41,1.13-2.07,1.24,1.56a2.32,2.32,0,0,0,1.08.24,1.92,1.92,0,0,0,1.94-2,2,2,0,0,0-1-1.66L707.83,473a3,3,0,0,1,1.7-5.61,7.47,7.47,0,0,1,1.4.18l1.72.32-1.13,1.91-1-1.24a1.22,1.22,0,0,0-.88-.33,1.63,1.63,0,0,0-1.71,1.56,2.1,2.1,0,0,0,1.16,1.77l2,1.32a3.07,3.07,0,0,1,1.66,2.55,3.34,3.34,0,0,1-3.65,3.51Z" transform="translate(-515 -461)"/><path class="cls-2" d="M717.7,478.95a6.2,6.2,0,0,1-1-.08l-2.34-.41,1.13-2.07,1.24,1.56a2.32,2.32,0,0,0,1.08.24,1.92,1.92,0,0,0,1.94-2,2,2,0,0,0-1-1.66L716.45,473a3,3,0,0,1,1.71-5.61,7.48,7.48,0,0,1,1.4.18l1.72.32-1.13,1.91-1-1.24a1.22,1.22,0,0,0-.88-.33,1.63,1.63,0,0,0-1.71,1.56,2.1,2.1,0,0,0,1.16,1.77l2,1.32a3.07,3.07,0,0,1,1.66,2.55,3.34,3.34,0,0,1-3.65,3.51Z" transform="translate(-515 -461)"/><polygon class="cls-2" points="208.49 17.82 209.46 16.85 209.46 7.51 208.49 6.54 212.15 6.54 211.18 7.51 211.18 16.85 212.15 17.82 208.49 17.82 208.49 17.82"/><path class="cls-2" d="M734.21,468.22c-2.15,0-2.77,2.73-2.77,5s.62,5,2.77,5,2.77-2.73,2.77-5-.62-5-2.77-5Zm0,10.84c-3,0-4.84-2.93-4.84-5.88s1.86-5.88,4.84-5.88,4.84,2.93,4.84,5.88-1.86,5.88-4.84,5.88Z" transform="translate(-515 -461)"/><polygon class="cls-2" points="234.7 7.51 234.7 18.75 228.16 8.6 228.16 16.85 229.14 17.82 226.11 17.82 227.08 16.85 227.08 7.51 226.11 6.54 228.93 6.54 233.62 13.89 233.62 7.51 232.64 6.54 235.67 6.54 234.7 7.51 234.7 7.51"/><path class="cls-2" d="M756.34,470.12l-1.58,4.59h3.08l-1.5-4.59Zm1.58,8.7,1-1-.72-2.23h-3.71l-.75,2.23,1,1h-3l1-1,3.59-10.29h1.05l3.51,10.29,1,1Z" transform="translate(-515 -461)"/><polygon class="cls-2" points="247.94 17.82 248.91 16.85 248.91 7.51 247.94 6.54 251.6 6.54 250.63 7.51 250.63 16.9 253.32 16.9 254.61 15.61 254.61 17.82 247.94 17.82 247.94 17.82"/><path class="cls-2" d="M777.74,475.71a2.18,2.18,0,0,0,2.17,2.45,2.62,2.62,0,0,0,2-.88l-3.08-4a3,3,0,0,0-1.05,2.41Zm5.18-2.17v-.1l-.89-.89h2.73l-.89.89v.11a7.71,7.71,0,0,1-.49,2.92l1.07,1.37,1,1H783l-.65-.84a4,4,0,0,1-2.87,1c-2,0-3.57-1.2-3.57-3.2a3.37,3.37,0,0,1,2.36-3.12A4.7,4.7,0,0,1,777.2,470a2.82,2.82,0,0,1,3-2.63,5.32,5.32,0,0,1,2.57.67v2.1l-1.45-1.45a1.41,1.41,0,0,0-1.1-.56c-.73,0-1.32.61-1.32,1.61a3.83,3.83,0,0,0,1.1,2.42l2.69,3.46a8.51,8.51,0,0,0,.22-2.07Z" transform="translate(-515 -461)"/><path class="cls-2" d="M660.92,498.1c-2.92,0-4.8-2.85-4.8-5.8s1.93-5.8,4.8-5.8a5.7,5.7,0,0,1,2.85.67v2.31l-1.55-1.55a1.67,1.67,0,0,0-1.31-.54c-2.15,0-2.72,2.71-2.72,4.91s.65,4.91,2.72,4.91a1.67,1.67,0,0,0,1.31-.54l1.55-1.55v2.33a5,5,0,0,1-2.85.65Z" transform="translate(-515 -461)"/><path class="cls-2" d="M670.67,487.34c-2.15,0-2.77,2.72-2.77,5s.62,5,2.77,5,2.77-2.73,2.77-5-.62-5-2.77-5Zm0,10.84c-3,0-4.84-2.93-4.84-5.88s1.86-5.88,4.84-5.88,4.84,2.93,4.84,5.88-1.86,5.88-4.84,5.88Z" transform="translate(-515 -461)"/><polygon class="cls-2" points="171.16 26.63 171.16 37.87 164.63 27.71 164.63 35.97 165.6 36.94 162.57 36.94 163.54 35.97 163.54 26.63 162.57 25.66 165.39 25.66 170.08 33.01 170.08 26.63 169.1 25.66 172.13 25.66 171.16 26.63 171.16 26.63"/><polygon class="cls-2" points="180.53 26.58 178.63 26.58 178.63 35.97 179.6 36.94 175.94 36.94 176.91 35.97 176.91 26.58 175.01 26.58 173.72 27.87 173.72 25.66 181.82 25.66 181.82 27.87 180.53 26.58 180.53 26.58"/><polygon class="cls-2" points="183.65 36.94 184.62 35.97 184.62 26.63 183.65 25.66 187.31 25.66 186.34 26.63 186.34 35.97 187.31 36.94 183.65 36.94 183.65 36.94"/><polygon class="cls-2" points="197.97 26.63 197.97 37.87 191.44 27.71 191.44 35.97 192.41 36.94 189.38 36.94 190.36 35.97 190.36 26.63 189.38 25.66 192.21 25.66 196.89 33.01 196.89 26.63 195.92 25.66 198.95 25.66 197.97 26.63 197.97 26.63"/><path class="cls-2" d="M724.13,487.63v7.14a3.74,3.74,0,0,1-7.46,0v-7.14l-1-1h3.67l-1,1v7.14a2.33,2.33,0,1,0,4.65,0v-7.14l-1-1h3l-1,1Z" transform="translate(-515 -461)"/><polygon class="cls-2" points="212.09 36.94 213.06 35.97 213.06 26.63 212.09 25.66 215.75 25.66 214.78 26.63 214.78 35.97 215.75 36.94 212.09 36.94 212.09 36.94"/><polygon class="cls-2" points="226.41 26.63 226.41 37.87 219.88 27.71 219.88 35.97 220.85 36.94 217.82 36.94 218.79 35.97 218.79 26.63 217.82 25.66 220.64 25.66 225.33 33.01 225.33 26.63 224.36 25.66 227.38 25.66 226.41 26.63 226.41 26.63"/><path class="cls-2" d="M753.2,492.81v4.46a5.82,5.82,0,1,1-3.32-10.77,5.9,5.9,0,0,1,2.84.65v2.33l-1.54-1.55a1.69,1.69,0,0,0-1.29-.54c-2.17,0-3.44,2.57-3.44,4.91s1.27,4.91,3.44,4.91a2.34,2.34,0,0,0,1.59-.56v-3.84l-1-1h3.66l-1,1Z" transform="translate(-515 -461)"/><polygon class="cls-2" points="245.35 36.94 246.33 35.97 246.33 26.63 245.35 25.66 252.43 25.66 252.43 27.87 251.14 26.58 248.05 26.58 248.05 30.44 250.26 30.44 251.24 29.47 251.24 32.34 250.26 31.36 248.05 31.36 248.05 36.02 251.14 36.02 252.43 34.73 252.43 36.94 245.35 36.94 245.35 36.94"/><path class="cls-2" d="M773.56,487.58H772V497h1.53c2.17,0,3.12-2.18,3.12-4.72s-1-4.72-3.12-4.72Zm0,10.36h-4.22l1-1v-9.34l-1-1h4.22c3.49,0,5.16,2.76,5.16,5.64s-1.67,5.64-5.16,5.64Z" transform="translate(-515 -461)"/><path class="cls-2" d="M789.13,487.63v7.14a3.74,3.74,0,0,1-7.46,0v-7.14l-1-1h3.67l-1,1v7.14a2.33,2.33,0,1,0,4.65,0v-7.14l-1-1h3l-1,1Z" transform="translate(-515 -461)"/><path class="cls-2" d="M796.87,498.1c-2.92,0-4.8-2.85-4.8-5.8s1.93-5.8,4.8-5.8a5.7,5.7,0,0,1,2.85.67v2.31l-1.55-1.55a1.67,1.67,0,0,0-1.31-.54c-2.15,0-2.72,2.71-2.72,4.91s.65,4.91,2.72,4.91a1.66,1.66,0,0,0,1.31-.54l1.55-1.55v2.33a5,5,0,0,1-2.85.65Z" transform="translate(-515 -461)"/><path class="cls-2" d="M805.48,489.24l-1.58,4.59H807l-1.5-4.59Zm1.58,8.7,1-1-.72-2.23h-3.71l-.75,2.23,1,1h-3l1-1,3.59-10.29h1.05L809.89,497l1,1Z" transform="translate(-515 -461)"/><polygon class="cls-2" points="303.64 26.58 301.74 26.58 301.74 35.97 302.71 36.94 299.05 36.94 300.02 35.97 300.02 26.58 298.12 26.58 296.83 27.87 296.83 25.66 304.93 25.66 304.93 27.87 303.64 26.58 303.64 26.58"/><polygon class="cls-2" points="306.76 36.94 307.73 35.97 307.73 26.63 306.76 25.66 310.42 25.66 309.45 26.63 309.45 35.97 310.42 36.94 306.76 36.94 306.76 36.94"/><path class="cls-2" d="M832.48,487.34c-2.15,0-2.77,2.72-2.77,5s.62,5,2.77,5,2.77-2.73,2.77-5-.62-5-2.77-5Zm0,10.84c-3,0-4.84-2.93-4.84-5.88s1.86-5.88,4.84-5.88,4.84,2.93,4.84,5.88-1.86,5.88-4.84,5.88Z" transform="translate(-515 -461)"/><polygon class="cls-2" points="332.97 26.63 332.97 37.87 326.44 27.71 326.44 35.97 327.41 36.94 324.38 36.94 325.35 35.97 325.35 26.63 324.38 25.66 327.2 25.66 331.88 33.01 331.88 26.63 330.91 25.66 333.94 25.66 332.97 26.63 332.97 26.63"/></svg>