<?xml version="1.0" encoding="utf-8"?>
<!-- Generator: Adobe Illustrator 18.1.1, SVG Export Plug-In . SVG Version: 6.00 Build 0)  -->
<svg version="1.1" id="Layer_1" xmlns="http://www.w3.org/2000/svg" xmlns:xlink="http://www.w3.org/1999/xlink" x="0px" y="0px"
	 viewBox="0 0 1013.8 172" enable-background="new 0 0 1013.8 172" xml:space="preserve">
<g>
	<g>
		<defs>
			<rect id="SVGID_1_" x="44" y="32" width="104.7" height="106.9"/>
		</defs>
		<clipPath id="SVGID_2_">
			<use xlink:href="#SVGID_1_"  overflow="visible"/>
		</clipPath>
		<path clip-path="url(#SVGID_2_)" fill="#FFFFFE" d="M148.7,84.4c0,28.9-23.4,52.4-52.4,52.4S44,113.3,44,84.4S67.4,32,96.3,32
			S148.7,55.5,148.7,84.4"/>
		<path clip-path="url(#SVGID_2_)" fill="#006242" d="M101.6,54.7c-0.5-0.1-2.7-0.5-5.3-0.5c-2.6,0-4.8,0.4-5.3,0.5
			c-0.3,0-0.4-0.2-0.2-0.4c0.2-0.1,5.4-4.1,5.4-4.1s5.2,4,5.4,4.1C102,54.5,101.9,54.7,101.6,54.7 M92.5,80.6c0,0-0.3,0.1-0.3,0.3
			c1.1,0.8,1.9,2.8,4.1,2.8c2.3,0,3.1-1.9,4.1-2.8c-0.1-0.2-0.3-0.3-0.3-0.3s-1.4,0.3-3.8,0.3C94,80.9,92.5,80.6,92.5,80.6
			 M96.3,77.4c-0.6,0-0.8-0.2-1.2-0.2c-0.4,0-1.2,0.3-1.4,0.6c0,0.2,0.1,0.3,0.2,0.4c0.9,0.1,1.3,0.7,2.4,0.7c1.1,0,1.5-0.5,2.4-0.7
			c0.1-0.1,0.2-0.3,0.2-0.4c-0.2-0.3-1-0.6-1.4-0.6C97.1,77.1,97,77.4,96.3,77.4 M148.6,87.3c-0.1,1.3-0.2,2.5-0.3,3.7
			c-5.9,1-8-4.3-14.1-4c0.4,1.3,0.7,2.6,0.9,3.9c5,0,7,4.7,12.6,4c-0.3,1.4-0.6,2.8-1.1,4.2c-4.4,0.4-6-3.9-11.1-3.8
			c0,0.7,0.1,1.5,0.1,2.2c0,0.4,0,0.8,0,1.2c4.3,0,5.8,4,9.9,3.8c-0.5,1.4-1.1,2.8-1.7,4.1c-3-0.2-4-4-8.5-3.7
			c-0.1,1-0.3,1.9-0.5,2.9c3.9-0.3,4.8,3.3,7.6,3.6c-0.7,1.3-1.5,2.6-2.3,3.8c-1.7-0.9-3.1-3.6-6.3-3.8c0.3-1,0.6-2,0.9-3
			c-2.8,0-6-1.1-8.7-3.5c0.9-5-6.8-10-6.8-13.7c0-3.9,2-6.1,2-11.5c0-4-1.9-8.2-4.8-11.2c-0.6-0.6-1.1-1-1.8-1.4
			c2.7,3.3,4.7,7.2,4.7,11.7c0,5-2.3,7.7-2.3,12.3c0,4.6,6.8,8.6,6.8,13.4c0,1.9-0.6,3.7-2.6,7.3c3,3,7,4.7,9.6,4.7
			c0.8,0,1.3-0.2,1.6-0.9c0.3-0.6,0.5-1.1,0.7-1.7c2.7,0.1,4,2.6,5.5,3.6c-0.8,1.1-1.7,2.2-2.6,3.3c-1-1.1-2.4-3-4.4-3.6
			c-0.4,0.7-0.7,1.4-1.1,2.1c1.7,0.5,2.9,2.2,3.8,3.4c-1,1-2,2-3.1,2.9c-0.7-1-1.7-2.4-2.9-3.1c-0.4,0.6-0.9,1.2-1.3,1.7
			c1,0.7,1.9,1.9,2.4,2.9c-1.2,1-2.5,1.9-3.8,2.8c-0.7-5.3-7.9-9-6-15.1c-0.6,1.1-1.4,2.5-1.4,4.1c0,4.5,4.8,8,5.1,12.4
			c-1,0.6-2,1.1-3,1.7c-0.2-4.9-5.2-10.2-5.2-14.2c0-4.5,5.9-9,5.9-14.2c0-5.3-6.8-8.9-6.8-13.6c0-4.6,2.9-7.3,2.9-13.2
			c0-4.4-2.1-8.8-5.3-11.6c-0.6-0.5-1.1-0.9-1.8-1.2c3,3.6,4.8,6.9,4.8,11.9c0,5.6-3.3,8.7-3.3,14.1c0,5.5,6.6,8.5,6.6,13.6
			c0,5.1-6.2,9.4-6.2,14.6c0,4.8,5.4,9.5,5.5,15.2c-1.2,0.5-2.4,1-3.6,1.4c0.7-5.7-5.4-11.6-5.4-16.3c0-5.1,6.4-9.5,6.4-15
			c0-5.5-6.5-8-6.5-13.7c0-5.6,4-8.8,4-15c0-4.9-2.4-9.2-5.9-11.9c-0.1-0.1-0.1-0.1-0.2-0.2c-0.3-0.2-0.6,0.1-0.4,0.3
			c2.5,3.1,3.8,6.2,3.8,10.9c0,5.7-4.6,10.3-4.6,15.8c0,6.5,6.2,8.4,6.2,13.7c0,5.3-6.6,9.6-6.6,15.3c0,5.3,6.3,11.1,5.2,17.2
			c-1.3,0.3-2.5,0.6-3.8,0.8c1.2-7.6-5-13-5-17.9c0-5.4,6.8-10.1,6.8-15.4c0-4.9-4.9-6.5-5.6-11.6c-0.1-0.7-0.6-1.2-1.4-1.1
			c-1,0.2-2.3,0.8-4.3,0.8c-2,0-3.3-0.7-4.3-0.8c-0.8-0.1-1.3,0.4-1.4,1.1c-0.6,5-5.5,6.7-5.5,11.6c0,5.2,6.8,10,6.8,15.4
			c0,4.9-6.1,10.4-5,17.9c-1.3-0.2-2.6-0.5-3.8-0.8c-1.1-6.1,5.2-11.9,5.2-17.2c0-5.7-6.6-9.9-6.6-15.3c0-5.3,6.2-7.2,6.2-13.7
			c0-5.5-4.6-10.2-4.6-15.8c0-4.6,1.3-7.8,3.8-10.9c0.2-0.3,0-0.6-0.4-0.3c-0.1,0.1-0.1,0.1-0.2,0.2c-3.5,2.7-5.9,7.1-5.9,11.9
			c0,6.2,4,9.3,4,15c0,5.6-6.5,8.2-6.5,13.7c0,5.5,6.4,9.9,6.4,15c0,4.7-6.1,10.5-5.4,16.3c-1.2-0.4-2.4-0.9-3.6-1.4
			c0.1-5.7,5.5-10.4,5.5-15.2c0-5.2-6.2-9.5-6.2-14.6c0-5.1,6.6-8.1,6.6-13.6c0-5.5-3.3-8.6-3.3-14.1c0-5,1.7-8.2,4.8-11.9
			c-0.7,0.3-1.2,0.7-1.8,1.2c-3.2,2.8-5.3,7.2-5.3,11.6c0,5.9,2.9,8.6,2.9,13.2c0,4.6-6.8,8.3-6.8,13.6c0,5.3,5.9,9.8,5.9,14.2
			c0,4-5,9.3-5.2,14.2c-1-0.5-2-1.1-3-1.7c0.4-4.4,5.1-8,5.1-12.4c0-1.6-0.8-3-1.4-4.1c2,6.2-5.3,9.8-6,15.1
			c-1.3-0.9-2.6-1.8-3.8-2.8c0.6-1,1.4-2.2,2.4-2.9c-0.5-0.6-0.9-1.1-1.3-1.7c-1.2,0.7-2.2,2-2.9,3.1c-1.1-0.9-2.1-1.9-3.1-2.9
			c0.9-1.1,2.1-2.9,3.8-3.4c-0.4-0.7-0.8-1.4-1.1-2.1c-2,0.5-3.4,2.4-4.4,3.6c-0.9-1.1-1.8-2.1-2.6-3.3c1.5-1,2.8-3.5,5.5-3.6
			c0.2,0.6,0.5,1.1,0.7,1.7c0.3,0.7,0.7,0.9,1.6,0.9c2.6,0,6.5-1.7,9.6-4.7c-2-3.6-2.6-5.4-2.6-7.3c0-4.8,6.8-8.8,6.8-13.4
			c0-4.6-2.3-7.3-2.3-12.3c0-4.5,2-8.4,4.7-11.7c-0.7,0.4-1.2,0.9-1.8,1.4c-2.9,2.9-4.8,7.2-4.8,11.2c0,5.3,2,7.5,2,11.5
			c0,3.6-7.7,8.7-6.8,13.7c-2.7,2.5-5.9,3.5-8.7,3.5c0.2,1,0.5,2,0.9,3c-3.2,0.2-4.6,2.9-6.3,3.8c-0.8-1.2-1.6-2.5-2.3-3.8
			c2.8-0.3,3.7-3.9,7.6-3.6c-0.2-1-0.4-1.9-0.5-2.9c-4.5-0.3-5.6,3.5-8.5,3.7c-0.6-1.3-1.2-2.7-1.7-4.1c4.1,0.2,5.6-3.8,9.9-3.8
			c0-0.4,0-0.8,0-1.2c0-0.7,0-1.5,0.1-2.2c-5.1-0.1-6.6,4.3-11.1,3.8c-0.4-1.4-0.8-2.8-1.1-4.2c5.6,0.7,7.6-4,12.6-4
			c0.2-1.3,0.5-2.7,0.9-3.9c-6.1-0.3-8.2,5-14.1,4c-0.2-1.2-0.3-2.5-0.3-3.7c6.9,0.8,9.5-4.9,15.7-4.2c0.6-1.5,1.3-3,2.1-4.3
			C54,77.3,51.3,83.9,44,82.9C44.8,54.7,67.9,32,96.3,32s51.5,22.6,52.3,50.9c-7.3,1-10-5.6-17.9-4.2c0.8,1.4,1.5,2.8,2.1,4.3
			C139.1,82.4,141.7,88,148.6,87.3 M73.8,65.3c-3.9-1.6-8.5-1.2-12.5,1.3c-0.6-3.7-2.6-7-5.5-9c-0.4-0.3-0.8,0-0.8,0.4
			c0.6,7.8-4,14.6-9.6,20.6c5.8,1.7,10.7-5.7,18.3-3.1C66.4,71.6,69.8,68.1,73.8,65.3 M96.3,60.6c-4.9,0-8.9,2.7-10,6.3
			c-0.1,0.3,0,0.5,0.3,0.3c0.9-0.4,1.9-0.6,3-0.6c2,0,3.7,0.7,4.8,2c0.5,1.5,0.5,3.7,0,4.9c-0.8-0.2-1.1-0.8-1.9-0.8
			c-0.8,0-1.4,0.6-2.8,0.6c-1.3,0-1.5-0.6-2.4-0.6c-1,0-1.2,1.1-1.2,2.3c0,5.4,5,12.9,10.3,12.9c5.3,0,10.3-7.5,10.3-12.9
			c0-1.2-0.3-2.3-1.3-2.4c-0.5,0.4-1,0.7-2.3,0.7c-1.4,0-1.7-0.6-2.5-0.6c-1,0-0.9,2-2,2.1c-0.8-1.8-0.8-4.2-0.2-6.3
			c1-1.3,2.8-2,4.8-2c1.1,0,2.1,0.2,2.9,0.6c0.3,0.1,0.4,0,0.3-0.3C105.3,63.3,101.2,60.6,96.3,60.6 M104.1,68.3
			c-1.2,0-2.5,0.4-3.4,1.3c-0.1,0.3-0.1,0.6,0,0.9c2.1-0.7,4-0.8,4.9,0.3c0.5-0.4,0.6-0.8,0.6-1.3C106.2,68.8,105.5,68.3,104.1,68.3
			 M87.1,70.8c1-1,3.2-1,5.4-0.2c0.1-1.1-1.9-2.3-3.9-2.3c-1.4,0-2.2,0.5-2.2,1.2C86.4,70,86.6,70.4,87.1,70.8 M120.6,52.5
			c-3.8,0.3-7.2,1.6-9.9,3.8c1.1-3.2,2.6-6.1,4.4-8.8c-4.9,0.5-9,2.3-11.9,5.4l-2.3-6.1l5.2-4.6l-6.9-0.5l-2.8-6.4l-2.8,6.4
			l-6.9,0.5l5.2,4.6l-2.3,6.1c-3-3.1-7.1-4.8-12-5.4c1.8,2.8,3.3,5.6,4.4,8.8c-2.7-2.2-6-3.5-9.9-3.8c2.3,3,4.3,6.1,5.9,9.5
			c0.2,0.4,0.5,0.5,0.9,0.3c5.3-2.6,11.2-4.1,17.4-4.1c6.3,0,12.2,1.5,17.4,4.1c0.4,0.2,0.8,0.1,0.9-0.3
			C116.2,58.6,118.3,55.4,120.6,52.5 M128.9,75.6c7.5-2.6,12.5,4.9,18.3,3.1c-5.6-6-10.2-12.8-9.6-20.6c0-0.5-0.4-0.7-0.8-0.4
			c-2.9,2-4.9,5.3-5.5,9c-4-2.6-8.7-2.9-12.5-1.3C122.8,68.1,126.2,71.6,128.9,75.6"/>
		<path clip-path="url(#SVGID_2_)" fill="#006242" d="M130.3,130.3c2.4,0,4.4,1.9,4.4,4.3c0,2.5-2,4.4-4.4,4.4
			c-2.4,0-4.4-1.9-4.4-4.4C125.9,132.2,127.9,130.3,130.3,130.3 M130.3,138.3c2,0,3.6-1.6,3.6-3.7c0-2.1-1.6-3.7-3.6-3.7
			c-2,0-3.6,1.6-3.6,3.7C126.7,136.7,128.3,138.3,130.3,138.3 M128.6,132.1h1.9c1.2,0,1.8,0.5,1.8,1.4c0,0.9-0.6,1.3-1.3,1.4
			l1.5,2.2h-0.8l-1.4-2.2h-0.8v2.2h-0.8V132.1z M129.4,134.3h0.8c0.7,0,1.4,0,1.4-0.9c0-0.7-0.6-0.8-1.1-0.8h-1V134.3z"/>
	</g>
	<path fill="#8C0B42" d="M615.8,92.4l5.9-23.8l6,23.8H615.8z M729.8,113.2c0,0-1-1.1-2.5-2.7c-2-2.1-1.9-4.3-1.9-4.3v-9.3V55.7
		h-19.2V96c-0.2,3.8-4,4.8-6.1,4.7c-3-0.1-4.7-1.8-4.7-4.6V55.7h-18.7v0c-4.4,0-7.8,0-13.2,0c-10.2,0-19.9,1.6-23.1,10l-1.9-7.5
		c-0.5-1.5-2.1-2.5-3.7-2.5h-2.5h-25h-1.9h-4.1c-0.5,0-0.6,0.2-0.4,0.5c0,0,0.9,0.9,2.5,2.7c2.3,2.6,1.4,6.1,1.4,6.1l-12.2,48.7
		h17.8l2.6-10.7h17.2l2.7,10.7h18.3h5.1c9.6,0,17.4-1,21.3-7c2.9,5.4,9.1,8,20,7.1c3.8-0.3,7.6-2.1,9.2-4.9l0.7,2.3
		c0.6,1.4,1.9,2.5,3.8,2.5h8.6h1.5h7.8C729.9,113.7,730.1,113.6,729.8,113.2"/>
	<path fill="#FFCA38" d="M636.4,66.5L636.4,66.5L636.4,66.5L636.4,66.5L636.4,66.5L636.4,66.5l3.3,3.1l0.1,0.1l0,0v0l0-0.1
		c0.1-0.5,0.2-1,0.3-1.5v0v0l0,0l-3.2-1.9l0,0h0l0,0l0,0l0.1,0h0.1h0l0,0c-0.2-0.1-0.4-0.1-0.5,0c-0.1,0.1-0.1,0.2-0.1,0.2
		C636.3,66.4,636.3,66.5,636.4,66.5l0,0.1L636.4,66.5L636.4,66.5L636.4,66.5L636.4,66.5z"/>
	<path fill="none" stroke="#FFCA38" stroke-width="0.4799" d="M636.3,66.5L636.3,66.5L636.3,66.5L636.3,66.5L636.3,66.5v0.1l3.3,3.1
		l0.1,0.1l0,0v0l0-0.1c0.1-0.5,0.2-1,0.3-1.5l0,0v0h0l0,0l-3.2-2l0,0h0l0,0v0l0,0h0h0.1h0l0,0c-0.1-0.1-0.4-0.1-0.5,0
		c-0.1,0.1-0.1,0.2-0.1,0.2c0,0.1,0.1,0.2,0.1,0.2l0,0L636.3,66.5L636.3,66.5L636.3,66.5L636.3,66.5z"/>
	<path fill="#FFCA38" d="M633.2,70.6L633.2,70.6L633.2,70.6L633.2,70.6L633.2,70.6L633.2,70.6l6.4,4.2l0.1,0.1l0,0v0l0-0.1
		c-0.1-0.7-0.1-1.4-0.1-2.1c0,0,0-0.1,0-0.1v-0.1v0h0l0,0c0,0,0,0,0,0l-6-2.4l0,0v0v0l0,0h0l0,0h0l0.1,0h0l0,0
		c-0.2-0.1-0.4,0-0.5,0.1c0,0.1-0.1,0.2,0,0.2C633.1,70.6,633.1,70.7,633.2,70.6l0.1,0.1L633.2,70.6L633.2,70.6L633.2,70.6
		L633.2,70.6z"/>
	<path fill="none" stroke="#FFCA38" stroke-width="0.4799" d="M633.2,70.6L633.2,70.6L633.2,70.6L633.2,70.6L633.2,70.6L633.2,70.6
		l6.4,4.3l0.1,0.1l0,0v0l0-0.1c-0.1-0.7-0.1-1.4-0.1-2.1c0,0,0-0.1,0-0.1v-0.1v0h0l0,0c0,0,0,0,0,0l-6-2.4l-0.1,0l0,0v0l0,0h0l0,0
		l0,0l0.1,0h0l0,0c-0.2-0.1-0.4,0-0.5,0.1c0,0.1-0.1,0.2,0,0.3C633,70.6,633.1,70.7,633.2,70.6l0.1,0.1L633.2,70.6L633.2,70.6
		L633.2,70.6L633.2,70.6z"/>
	<path fill="#FFCA38" d="M630.9,75.2L630.9,75.2L630.9,75.2L630.9,75.2L630.9,75.2l10,4.5l0.1,0.1l0,0l0,0l-0.1-0.1
		c-0.4-0.9-0.7-1.9-1-2.9l0,0v0l0,0l-8.8-2l0,0h0l0,0v0l0,0l0,0l0.1,0l0,0l0,0c-0.2,0-0.4,0-0.4,0.2c0,0.1,0,0.2,0,0.2
		C630.7,75.2,630.8,75.3,630.9,75.2l0.1,0.1L630.9,75.2L630.9,75.2L630.9,75.2L630.9,75.2z"/>
	<path fill="none" stroke="#FFCA38" stroke-width="0.4799" d="M630.8,75.2L630.8,75.2L630.8,75.2L630.8,75.2L630.8,75.2L630.8,75.2
		l10.1,4.5l0.1,0.1l0,0l0,0l-0.1-0.1c-0.4-0.9-0.8-1.9-1-2.9l0,0l0,0l-8.8-2l0,0h0l0,0v0.1l0,0l0,0l0.1,0l0,0l0,0
		c-0.2-0.1-0.4,0-0.4,0.2c0,0.1,0,0.2,0,0.2C630.7,75.2,630.8,75.2,630.8,75.2l0.1,0.1L630.8,75.2L630.8,75.2L630.8,75.2L630.8,75.2
		z"/>
	<path fill="#FFCA38" d="M666.3,97.4c0-4.2-4.6-5.8-10.1-7.6c-5.6-1.9-11.9-4.1-14.9-9.5l0,0v0h0l-11.7-0.7h-0.1h0v0l0,0v0v0l0,0
		l0.1,0l0,0h0c-0.2,0-0.4,0.1-0.4,0.3c0,0.1,0,0.2,0,0.2c0.1,0.1,0.1,0.1,0.2,0.1l0,0l0,0l0-0.1l0,0v0v0.1l0,0h0l0,0l11.7,3
		c0.1,0,0.1,0,0.1,0c0,0,0,0.1,0,0.1c0,0.1-0.1,0.1-0.1,0.1h0l-12.1,1.1h0h0v0v0v0v0l0,0l0.1-0.1l0,0h0c-0.2,0-0.3,0.2-0.3,0.3
		c0,0.1,0,0.2,0.1,0.2c0.1,0.1,0.1,0.1,0.3,0.1h0l0,0l-0.1,0l0,0v0v0v0.1h0h0l12.1,1.1h0h0c0.1,0,0.1,0.1,0.1,0.1c0,0,0,0.1,0,0.1
		c0,0-0.1,0-0.1,0h0l-11.7,3l0,0h0v0l0,0v0l0,0l0-0.1l0,0h0c-0.1,0-0.2,0.1-0.2,0.2c0,0.1-0.1,0.2,0,0.2c0,0.2,0.2,0.3,0.4,0.3h0
		l0,0l-0.1,0l0,0v0v0v0.1v0h0l0.1,0l12.1-0.8h0l0,0c0.1,0,0.1,0,0.1,0.1c0,0,0,0.1,0,0.1c0,0-0.1,0-0.1,0h0l-11,4.8l0,0v0l0,0v0v0
		l0,0l0-0.1l0,0l0,0c-0.1,0-0.2,0.1-0.2,0.2c0,0.1,0,0.2,0,0.2c0,0.2,0.3,0.3,0.4,0.2h0l0,0l-0.1,0l0,0l0,0l0,0v0l0,0h0l11.8-2.6h0
		c0.1,0,0.1,0,0.2,0.1c0,0,0,0,0,0.1c0,0,0,0.1-0.1,0.1h0l-9.8,6.4l0,0l0,0v0l0,0v0v0l0,0l0-0.1l0,0l0,0c-0.1,0-0.1,0.1-0.2,0.2
		c0,0.1,0,0.2,0,0.2c0.1,0.1,0.3,0.2,0.5,0.1l0,0l0,0l-0.1,0h0l0,0v0l0,0l0,0v0h0l11.1-4.4c0,0,0.1,0,0.1,0c0,0,0,0.1,0,0.1
		c0,0,0,0,0,0.1l-8.5,7.8l0,0l0,0l0,0l0,0v0l0,0v0l0-0.1l0,0l-0.1,0c0,0.1-0.1,0.1-0.1,0.2c0,0.1,0,0.2,0.1,0.2
		c0.1,0.1,0.3,0.1,0.5,0l0,0h0l-0.1,0h0l0,0l0,0v0v0l0.1,0l10.1-6.1h0h0c0,0,0.1,0,0.2,0c0,0,0.1,0.1,0.1,0.1c0,0,0,0,0,0.1v0
		l-6.8,9l0,0v0l0,0l0,0h0l0,0v0l0-0.1v0l0,0c-0.1,0.1-0.1,0.1-0.1,0.2c0,0.1,0,0.2,0.1,0.2c0.1,0.1,0.4,0.1,0.5,0l0,0h0h-0.1l0,0
		l0,0h0l0,0h0h0l0,0l8.7-7.6h0c0-0.1,0.1-0.1,0.2,0c0,0,0.1,0.1,0.1,0.1c0,0,0,0.1,0,0.1v0l-4.9,9.9l0,0v0v0l0,0l0,0l0,0l0,0l0-0.1
		l0,0l0,0c0,0.1,0,0.2,0,0.2c0,0.1,0.1,0.2,0.2,0.2c0.2,0.1,0.4,0,0.5-0.1l0,0l0,0l-0.1,0l0,0l0,0h0l0.1,0v0l0,0l5-6.2l0,0h0l-0.1,0
		h0v0l0,0.1l0,0l0,0l0.1-0.1l2.2-2.7l0,0h0l-0.1,0l0,0l0,0c1.5,0.7,2.9,1.1,4,1.2c3.4,0.3,6.6-0.4,8.3-2
		C665.8,99.5,666.3,98.6,666.3,97.4"/>
	<path fill="none" stroke="#FFCA38" stroke-width="0.4799" d="M666.3,97.4c0-4.2-4.7-5.8-10.1-7.6c-5.6-1.9-11.9-4.1-14.9-9.6l0,0h0
		l-11.7-0.7h-0.1h0v0l0,0v0l0,0l0,0l0.1,0l0,0h0c-0.2,0-0.4,0.1-0.4,0.3c0,0.1,0,0.2,0,0.2c0.1,0.1,0.1,0.1,0.2,0.1l0,0l0,0l0-0.1
		l0,0l0,0v0.1l0,0h0l0.1,0l11.7,3c0.1,0,0.1,0,0.1,0c0,0,0,0,0,0.1c0,0.1-0.1,0.1-0.1,0.1h0L629,84.5h0h0v0v0v0v0l0,0l0-0.1l0,0h0
		c-0.2,0-0.3,0.2-0.3,0.3c0,0.1,0,0.2,0.1,0.2c0.1,0.1,0.1,0.1,0.2,0.1h0l0,0l0-0.1l0,0v0v0v0.1h0h0l12.1,1.1h0h0
		c0.1,0,0.1,0,0.1,0.1c0,0,0,0.1,0,0.1c0,0,0,0,0,0h0l-11.7,3l-0.1,0h0v0l0,0v0l0,0l0-0.1l0,0h0c-0.1,0-0.2,0.1-0.2,0.2
		c0,0.1-0.1,0.2,0,0.2c0,0.2,0.2,0.3,0.4,0.3h0l0,0l-0.1,0l0,0v0h0v0.1v0h0l0.1,0l12.1-0.8h0l0,0c0.1,0,0.1,0,0.1,0.1
		c0,0,0,0.1,0,0.1c0,0-0.1,0-0.1,0h0l-11,4.8l0,0h0l0,0l0,0v0l0,0l0,0l0-0.1l0,0l0,0c-0.1,0-0.2,0.1-0.2,0.2c0,0.1,0,0.2,0,0.2
		c0.1,0.2,0.2,0.3,0.4,0.2h0l0,0l-0.1,0l0,0l0,0l0,0v0l0,0h0l11.8-2.6h0c0,0,0.1,0,0.2,0.1c0,0,0,0,0,0.1c0,0,0,0-0.1,0.1h0
		l-9.9,6.4l0,0l0,0v0l0,0v0l0,0l0,0l0-0.1l0,0l0,0c-0.1,0-0.1,0.1-0.2,0.2c0,0.1,0,0.2,0,0.2c0.1,0.1,0.3,0.2,0.5,0.1l0,0l0,0
		l-0.1,0h0l0,0v0l0,0l0,0l0,0h0l11.1-4.4h0v0c0,0,0.1,0,0.1,0c0,0,0,0.1,0,0.1c0,0,0,0,0,0.1l-8.5,7.9l0,0l0,0l0,0l0,0l0,0v0l0-0.1
		l0,0l0,0c-0.1,0.1-0.1,0.1-0.1,0.2c0,0.1,0,0.2,0.1,0.2c0.1,0.1,0.3,0.1,0.5,0l0,0h0l-0.1,0h0l0,0l0,0l0,0v0l0,0l10.1-6.1h0h0
		c0,0,0.1,0,0.2,0c0.1,0,0.1,0.1,0.1,0.1c0,0,0,0,0,0.1l-6.8,9l-0.1,0v0l0,0l0,0h0l0,0v0l0-0.1v0l0,0c-0.1,0.1-0.1,0.1-0.1,0.2
		c0,0.1,0,0.2,0.1,0.2c0.1,0.1,0.4,0.1,0.5,0l0,0h0h-0.1l0,0l0,0h0l0,0h0h0l0,0l8.7-7.6h0c0,0,0.1-0.1,0.2,0c0,0,0.1,0.1,0.1,0.1
		c0,0,0,0.1,0,0.1v0l-5,10l0,0.1v0v0l0,0l0,0l0,0l0,0l0-0.1l0,0l0,0c0,0.1,0,0.2,0,0.2c0,0.1,0.1,0.2,0.2,0.2c0.2,0.1,0.4,0,0.5-0.1
		l0,0l0,0l-0.1,0l0,0l0,0l0,0l0,0v0l0,0l5-6.2l0,0h0l-0.1,0h0l0,0l0,0.1l0,0l0,0l0.1-0.1l2.2-2.7l0,0h0l-0.1,0l0,0l0,0
		c1.5,0.7,2.9,1.1,4,1.2c3.4,0.3,6.6-0.4,8.3-2C665.8,99.5,666.3,98.6,666.3,97.4z"/>
	<path fill="#FFCA38" d="M682.2,106.8L682.2,106.8L682.2,106.8L682.2,106.8L682.2,106.8l0-0.1l-2.6-3.5l-0.1-0.1l0,0l0,0l0,0.1
		c-0.2,0.5-0.3,1-0.5,1.5l0,0l0,0l0,0l0,0l2.7,2.4l0,0l0,0h0l0,0h0l0,0l0,0l-0.1,0h0l0,0c0.1,0.1,0.4,0.1,0.5,0
		c0.1,0,0.1-0.1,0.1-0.2c0-0.1,0-0.2-0.1-0.2l0,0V106.8L682.2,106.8L682.2,106.8L682.2,106.8z"/>
	<path fill="none" stroke="#FFCA38" stroke-width="0.4799" d="M682.2,106.9L682.2,106.9L682.2,106.9L682.2,106.9L682.2,106.9l0-0.1
		l-2.7-3.5l-0.1-0.1l0,0l0,0l0,0.1c-0.2,0.5-0.4,1-0.5,1.5l0,0l0,0l0,0l0.1,0l2.7,2.4l0,0l0,0h0l0,0h0l0,0h0l-0.1,0h0l0,0
		c0.1,0.1,0.3,0.2,0.5,0c0.1,0,0.1-0.1,0.1-0.2c0-0.1,0-0.2-0.1-0.2l0,0L682.2,106.9L682.2,106.9L682.2,106.9L682.2,106.9z"/>
	<path fill="#FFCA38" d="M686.1,103.3L686.1,103.3L686.1,103.3L686.1,103.3L686.1,103.3v-0.1l-5.6-5.2l-0.1-0.1l0,0v0l0,0.1
		c0,0.8-0.1,1.6-0.3,2.3v0v0l0,0l5.5,3.3l0,0v0l0,0l0,0h0l0,0l0,0h-0.1h0l0,0c0.1,0.1,0.4,0.1,0.5,0c0.1-0.1,0.1-0.1,0.1-0.2
		c0-0.1-0.1-0.1-0.1-0.2l0,0L686.1,103.3L686.1,103.3L686.1,103.3L686.1,103.3z"/>
	<path fill="none" stroke="#FFCA38" stroke-width="0.4799" d="M686.2,103.3L686.2,103.3L686.2,103.3L686.2,103.3L686.2,103.3v-0.1
		l-5.7-5.3l-0.1-0.1l0,0v0l0,0.1c0,0.8-0.1,1.6-0.3,2.3v0v0l0,0l5.6,3.4l0,0v0l0,0l0,0l0,0l0,0h-0.1h0l0,0c0.1,0.1,0.4,0.1,0.5,0
		c0.1-0.1,0.1-0.2,0.1-0.2c0-0.1-0.1-0.2-0.1-0.2l0,0L686.2,103.3L686.2,103.3L686.2,103.3L686.2,103.3z"/>
	<path fill="#FFCA38" d="M689.3,99.1L689.3,99.1L689.3,99.1L689.3,99.1L689.3,99.1V99l-8.9-5.8l-0.1-0.1l0,0l0,0l0,0.1
		c0.1,0.8,0.2,1.6,0.2,2.5V96v0.1v0h0v0h0c0,0,0,0,0,0l8.4,3.4l0,0h0l0-0.1l0,0l0,0l0,0l-0.1,0l0,0c0.2,0.1,0.4,0,0.5-0.1
		c0-0.1,0.1-0.2,0-0.2c0-0.1-0.1-0.2-0.1-0.2l0,0L689.3,99.1L689.3,99.1L689.3,99.1L689.3,99.1z"/>
	<path fill="none" stroke="#FFCA38" stroke-width="0.4799" d="M689.3,99.1L689.3,99.1L689.3,99.1L689.3,99.1L689.3,99.1V99l-9-5.9
		l-0.1-0.1l0,0l0,0l0,0.1c0.1,0.8,0.2,1.6,0.2,2.5V96v0.1v0h0v0h0c0,0,0,0,0,0l8.5,3.4l0,0h0l0-0.1l0,0l0,0l0,0l-0.1,0l0,0
		c0.2,0.1,0.4,0,0.5-0.1c0-0.1,0.1-0.2,0-0.2c0-0.1-0.1-0.2-0.1-0.2l0,0L689.3,99.1L689.3,99.1L689.3,99.1L689.3,99.1z"/>
	<path fill="#FFCA38" d="M693.7,84.9c0-0.1,0-0.1-0.1-0.2c-0.1-0.1-0.2-0.1-0.2-0.1h0l0,0l0.1,0l0,0v0v-0.1v0h0h0l-12.1-1.1h0h0
		c-0.1,0-0.1,0-0.1-0.1c0,0,0-0.1,0-0.1c0,0,0,0,0.1,0h0h0l11.7-3l0,0h0v0l0,0h0l0-0.1l0,0l0,0.1l0,0l0,0c0.1,0,0.2-0.1,0.2-0.1
		c0.1-0.1,0.1-0.2,0.1-0.2c0-0.2-0.2-0.3-0.4-0.3l0,0l0,0l0,0.1l0,0l0,0v0v0v0h0h0l-12.2,0.8h0c-0.1,0-0.1,0-0.1-0.1
		c0,0,0-0.1,0-0.1c0,0,0,0,0,0h0h0v0l11-4.8l0,0h0v0l0,0l0,0l0,0l0,0.1l0,0l0,0c0.1,0,0.2-0.1,0.2-0.2c0-0.1,0-0.2,0-0.2
		c-0.1-0.2-0.3-0.3-0.5-0.2l0,0l0,0l0.1,0l0,0l0,0v0l0,0v0l0,0l-11.8,2.6v0h0c-0.1,0-0.1,0-0.2,0v-0.1c0,0,0,0,0.1-0.1l9.9-6.4l0,0
		l0,0l0,0l0,0l0,0l0,0v0l0,0.1v0l0,0c0.1,0,0.1-0.1,0.1-0.2c0-0.1,0-0.2,0-0.2c-0.1-0.1-0.3-0.2-0.5-0.1h0l0.1,0l0,0l0,0l0,0l0,0
		l0,0v0h0l0,0l-11.2,4.5h0c-0.1,0-0.1,0-0.2,0c0,0,0-0.1,0-0.1c0,0,0,0,0-0.1h0l8.5-7.9l0,0l0,0h0l0-0.1l0,0l0,0v0.1v0l0,0
		c0.1,0,0.1-0.1,0.1-0.2c0-0.1,0-0.2-0.1-0.2c-0.1-0.1-0.3-0.1-0.5-0.1l0,0h0h0.1l0,0l0,0v0l0,0l0,0l0,0l0,0l-10.1,6.1h0
		c0,0-0.1,0-0.2,0c0,0,0,0,0-0.1c0,0,0,0,0-0.1v0h0v0l6.8-9.1l0,0l0,0l0,0l0,0l0,0v0V63v0l0,0c0.1-0.1,0.1-0.2,0.1-0.2
		c0-0.1-0.1-0.2-0.1-0.2c-0.1-0.1-0.4-0.1-0.5,0l0,0h0h0.1l0,0l0,0l0,0l0,0l0,0l0,0l-8.8,7.6h0v0c0,0-0.1,0-0.2,0c0,0,0-0.1,0-0.1
		c0,0,0,0,0,0v0l5-10v0l0,0l0,0l0,0h0l0,0l0,0l0,0.1l0,0l0,0c0-0.1,0.1-0.1,0-0.2c0-0.1-0.1-0.2-0.2-0.2c-0.2-0.1-0.4,0-0.5,0.1l0,0
		l0,0l0.1,0l0.1,0l0,0h0l0,0l0,0l0,0l0,0l-1.3,1.6l0,0h0l0.1,0l0,0v0v-0.2v0l0,0l-0.1,0.1l-6,7.4l0,0h0l0.1,0l0,0h0
		c-2-1-5.4-1.6-7-1.6h-0.1c-3.2-0.1-5.6,0.6-6.9,1.8c-0.8,0.7-1.1,1.7-1.1,2.8c0,1.6,0.9,2.9,2.8,4.1c1.7,1.1,4.1,2,6.6,2.9
		c3.3,1.2,7,2.6,10,4.7c3.5,2.4,5.5,5.3,6.3,9v0l0,0l11.2,2.5l0,0h0v0l0,0v0l0,0l0,0l-0.1,0l0,0h0c0.2,0.1,0.4,0,0.4-0.2
		c0-0.1,0-0.2,0-0.2c0-0.1-0.1-0.1-0.2-0.2l0,0l0,0l0,0.1v0l0,0v0l0-0.1l0,0l-0.1,0l-10.9-4.8v0c0,0-0.1,0-0.1,0c0,0,0-0.1,0-0.1
		c0-0.1,0.1-0.1,0.1-0.1h0l12.1,0.8h0h0v0v0v0l0,0l0,0l-0.1,0l0,0h0c0.2,0,0.4-0.1,0.4-0.3c0-0.1,0-0.2-0.1-0.3
		c0-0.1-0.1-0.1-0.2-0.1h0l0,0l0,0.1l0,0l0,0l0,0v0l0,0l-0.1,0l-11.7-3c0,0-0.1,0-0.1,0c0,0,0-0.1,0-0.1c0-0.1,0-0.1,0.1-0.1
		l12.1-1.1l0,0h0v0v0v0v0l0,0l-0.1,0l0,0h0c0.1,0,0.2,0,0.2-0.1C693.7,85,693.7,85,693.7,84.9"/>
	<path fill="none" stroke="#FFCA38" stroke-width="0.4799" d="M693.8,84.9c0-0.1,0-0.1-0.1-0.2c-0.1-0.1-0.2-0.1-0.2-0.1h0l0,0
		l0.1,0l0,0v0v-0.1v0h0h0l-12.1-1.1h0h0c-0.1,0-0.1,0-0.1-0.1c0,0,0-0.1,0-0.1c0,0,0,0,0.1,0h0h0l11.7-3l0,0h0v0l0,0h0l0,0l0,0
		l0,0.1l0,0l0,0c0.1,0,0.2-0.1,0.2-0.1c0-0.1,0.1-0.2,0.1-0.2c0-0.2-0.2-0.3-0.4-0.3l0,0l0,0l0,0.1l0,0l0,0v0v0v0h0l0,0l-12.2,0.8
		c-0.1,0-0.1,0-0.1-0.1c0,0,0-0.1,0-0.1c0,0,0,0,0,0h0h0v0l11-4.8l0.1,0h0v0l0,0v0l0,0l0,0.1l0,0l0,0c0.1,0,0.2-0.1,0.2-0.2
		c0-0.1,0-0.2,0-0.2c-0.1-0.2-0.3-0.2-0.5-0.2l0,0l0,0l0.1,0l0,0l0,0v0l0,0v0h0l0,0l-11.8,2.6v0h0c-0.1,0-0.1,0-0.2,0v-0.1
		c0,0,0,0,0.1-0.1l9.9-6.4l0,0l0,0l0,0l0,0l0,0l0,0v0l0,0.1v0l0,0c0.1,0,0.1-0.1,0.2-0.2c0-0.1,0-0.2-0.1-0.2
		c-0.1-0.2-0.3-0.2-0.5-0.1h0l0,0l0,0l0,0l0,0l0,0l0,0l0,0h0l0,0l-11.2,4.5h0c-0.1,0-0.1,0-0.2,0c0,0,0-0.1,0-0.1c0,0,0,0,0-0.1h0
		l8.5-7.9l0,0l0,0h0l0-0.1l0,0l0,0v0.1v0l0,0c0.1-0.1,0.1-0.1,0.1-0.2c0-0.1,0-0.2-0.1-0.2c-0.1-0.1-0.3-0.2-0.5-0.1l0,0h0h0.1l0,0
		l0,0v0l0,0l0,0l0,0l0,0l-10.1,6.1v0h0c0,0-0.1,0-0.2,0c0,0,0,0,0-0.1c0,0,0-0.1,0-0.1v0h0l6.8-9.1l0,0l0,0l0,0l-0.1,0l0,0l0,0V63v0
		l0,0c0.1-0.1,0.1-0.1,0.1-0.2c0-0.1-0.1-0.2-0.1-0.2c-0.1-0.1-0.4-0.1-0.5,0l0,0h0h0.1h0l0,0l-0.1,0v0l0,0l0,0l-8.8,7.6h0v0
		c0,0-0.1,0-0.2,0c0,0,0,0,0-0.1c0,0,0,0,0,0v0l5-10v0l0,0l0,0l0,0h0l0,0l0,0l0,0.1l0,0l0,0c0-0.1,0.1-0.1,0-0.2
		c0-0.1-0.1-0.2-0.2-0.2c-0.2-0.1-0.4,0-0.5,0.1l0,0l0,0l0.1,0l0,0l0,0h0l0,0l0,0l0,0l0,0l-1.3,1.6l0,0h0l0.1,0l0,0v0v0v-0.2v0l0,0
		l-0.1,0.1l-6,7.4l0,0h0l0.1,0l0.1,0h-0.1c-2-1-5.5-1.6-7-1.6h-0.1c-3.2-0.1-5.6,0.6-7,1.8c-0.7,0.7-1.1,1.7-1.1,2.8
		c0,1.6,0.9,2.9,2.8,4.1c1.7,1.1,4.1,2,6.6,2.9c3.3,1.2,7,2.6,10,4.7c3.5,2.4,5.6,5.3,6.3,9v0v0l0,0l11.2,2.5l0,0h0l0,0l0,0l0,0
		l-0.1,0l-0.1,0l0,0h0c0.2,0.1,0.4,0,0.4-0.2c0-0.1,0-0.2,0-0.2c0-0.1-0.1-0.2-0.2-0.2l0,0l0,0l0,0.1v0l0,0v0l0-0.1l0,0l0,0
		l-10.9-4.8v0c0,0-0.1,0-0.1-0.1c0,0,0-0.1,0-0.1c0-0.1,0.1-0.1,0.1-0.1h0l12.2,0.8h0h0v0v0l0,0l0,0l-0.1,0l0,0h0
		c0.2,0,0.4-0.1,0.4-0.3c0-0.1,0-0.2-0.1-0.2c0-0.1-0.1-0.1-0.2-0.1h0l0,0l0,0.1l0,0l0,0l0,0v0l0,0l0,0l-11.7-3v0c0,0-0.1,0-0.1,0
		c0,0,0-0.1,0-0.1c0-0.1,0.1-0.1,0.1-0.1l12.1-1.1l0,0h0v0v0v0v0l0,0l-0.1,0l0,0h0c0.1,0,0.2,0,0.2-0.1
		C693.7,85,693.8,85,693.8,84.9z"/>
	<path fill="#8C0B42" d="M728.8,57.8h0.5c0.3,0,0.6-0.1,0.6-0.4c0-0.3-0.3-0.4-0.6-0.4h-0.5V57.8z M728.4,56.7h1
		c0.6,0,0.9,0.2,0.9,0.8c0,0.4-0.2,0.7-0.7,0.7l0.8,1.2h-0.5l-0.8-1.2h-0.4v1.2h-0.4V56.7z M729.2,60c1.1,0,1.9-0.9,1.9-2
		c0-1.1-0.8-2-1.9-2c-1.1,0-1.9,0.9-1.9,2C727.4,59.1,728.2,60,729.2,60 M729.2,55.7c1.3,0,2.3,1,2.3,2.3c0,1.3-1,2.3-2.3,2.3
		s-2.3-1-2.3-2.3C726.9,56.7,728,55.7,729.2,55.7"/>
	
		<line fill="none" stroke="#C7C8CA" stroke-width="1.8527" stroke-linecap="round" stroke-miterlimit="10" x1="547.1" y1="24.6" x2="547.1" y2="144.7"/>
	<rect x="173.7" y="34.1" fill="none" width="145" height="11.3"/>
	
		<text transform="matrix(1 0 0 1 173.7257 43.9246)" fill="#58595B" font-family="'Avenir-Black'" font-size="12.969" letter-spacing="3">STARBUCKS</text>
	<rect x="173.3" y="54.4" fill="none" width="353.7" height="103.5"/>
	<text transform="matrix(1 0 0 1 173.3259 77.4794)"><tspan x="0" y="0" fill="#58595B" font-family="'Avenir-Black'" font-size="30.5698" letter-spacing="4">GLOBAL ONWARD  </tspan><tspan x="0" y="36.7" fill="#58595B" font-family="'Avenir-Black'" font-size="30.5698" letter-spacing="4">ACADEMY</tspan></text>
	<g>
		<path fill="#8C0B42" d="M767.2,62.4c2.6,0,3.6,0.2,4.3,0.5c1.9,0.8,3.1,2.5,3.1,4.5c0,2.4-1.5,4.2-4.5,4.7v0.1
			c1.7,0.5,2.6,1.8,3.8,3.6l0.1,0.2l1.7,2.7c0,0,0.1,0.1,0.1,0.1c1.5,2.3,2.6,2.8,3.5,3v0.3h-4.7c-0.3-0.3-0.5-0.6-0.9-1.1
			c-0.1-0.1-0.5-0.7-0.6-0.8c0-0.1-0.1-0.1-0.1-0.1l-2.6-4c0,0,0-0.1-0.2-0.2c0-0.1-1.3-2.1-2.5-2.7c-0.5-0.2-1-0.4-2.4-0.4v6.8
			c0,1.6,0.9,2.3,2.2,2.3v0.3h-7.4v-0.3c1.5,0,2.2-0.7,2.2-2.2V65c0-2.2-1.4-2.3-2.3-2.3v-0.3H767.2z M765.6,72
			c2.5,0,5.9-0.2,5.9-4.3c0-1.4-0.6-4.5-4.2-4.5c-0.5,0-1.2,0-1.7,0.2V72z"/>
		<path fill="#8C0B42" d="M787.8,82.1h-7.4v-0.3c0.8,0,2.2-0.1,2.2-2.2V64.9c0-2.1-1.4-2.2-2.2-2.2v-0.3h7.4v0.3
			c-0.8,0.1-2.2,0.2-2.2,2.2v14.7c0,2.1,1.4,2.2,2.2,2.2V82.1z"/>
		<path fill="#8C0B42" d="M807.3,62.4L794,81.2h7.7c4.8,0,5.5-2.1,5.9-3.3h0.3l-0.6,4.2h-17.2v-0.4l13.3-18.3h-8.9
			c-2.5,0-3.8,0.5-4.1,2.7h-0.3v-3.7H807.3z"/>
		<path fill="#8C0B42" d="M818.9,61.9c5.4,0,10.5,4,10.5,10.4c0,5.6-4.2,10.3-10.3,10.3c-5.7,0-10.5-4.3-10.5-10.3
			C808.6,66.3,813.5,61.9,818.9,61.9 M819.3,81.9c4.2,0,6.6-3.9,6.6-9.1c0-6.2-3.3-10.2-7.3-10.2c-2.5,0-6.5,1.7-6.5,9.2
			C812,77.3,814.6,81.9,819.3,81.9"/>
		<path fill="#8C0B42" d="M848,77.5V64.9c0-2-1.4-2.2-2.2-2.2v-0.3h5.5v0.3c-0.9,0.1-2.3,0.2-2.3,2.2v17.7h-0.3L834,66.1v13.4
			c0,2.1,1.4,2.2,2.2,2.2v0.3h-5.4v-0.3c0.8,0,2.2-0.1,2.2-2.2V65.1l-0.8-0.9c0,0-0.1-0.1-0.1-0.1c-1.2-1.4-1.9-1.4-2.5-1.5v-0.3
			h4.8L848,77.5z"/>
		<path fill="#8C0B42" d="M867.1,78.7c0.9,2.6,1.8,2.9,3,3.1v0.3h-7.7v-0.3c0.6,0,2-0.1,2-1.5c0-0.2,0-0.5-0.3-1.4l-1.6-4.8h-6.3
			l-1.5,4.5c-0.2,0.6-0.3,1.3-0.3,1.6c0,1.5,1.2,1.6,1.6,1.6v0.3h-5.3v-0.3c1.6-0.1,2.4-1.4,2.8-2.7l5.4-17h2.4L867.1,78.7z
			 M856.4,73.1h5.7l-2.9-8.6h-0.1L856.4,73.1z"/>
		<path fill="#8C0B42" d="M890.7,62.4c-0.5-2.8-2.3-4.9-5.4-4.9c-2.9,0-4.4,2.1-4.4,4.1c0,2.7,2.5,4.4,5.1,6c3.6,2.3,6.4,4,6.4,8
			c0,1.6-0.4,3.5-2.3,5.2c-1.7,1.6-3.4,1.9-5.4,1.9c-1.7,0-2.9-0.4-3.9-0.7c-1.4-0.6-1.6-0.7-2-0.7c-0.4,0-0.9,0.2-1,1h-0.3l0.3-6.4
			h0.4c0.1,0.9,0.5,2.9,2.3,4.3c1.1,0.9,2.9,1.5,4.3,1.5c2.4,0,4.5-2,4.5-4.4c0-2.5-1.9-4.1-5.3-6.2c-2.9-1.8-5.9-3.7-5.9-7.9
			c0-3,2.1-6.7,7.2-6.7c1.2,0,2.4,0.2,3.4,0.5c0.4,0.1,1,0.3,1.4,0.3c0,0,0.8,0,0.9-0.8h0.3l-0.3,5.8H890.7z"/>
		<path fill="#8C0B42" d="M912.1,66.3h-0.3c-0.2-2.6-2.4-2.8-3.8-2.8h-3.3v16.1c0,2.1,1.4,2.2,2.2,2.2v0.3h-7.4v-0.3
			c0.9,0,2.2-0.2,2.2-2.2V63.5h-3.3c-1.6,0-3.5,0.2-3.8,2.8h-0.3v-4.8h0.3c0.1,0.3,0.2,0.4,0.7,0.6c0.4,0.2,1.9,0.3,2.5,0.3h10.8
			c1.8,0,2.2-0.1,2.6-0.2c0.4-0.1,0.5-0.4,0.6-0.7h0.3V66.3z"/>
		<path fill="#8C0B42" d="M927.4,78.7c0.9,2.6,1.8,2.9,3,3.1v0.3h-7.6v-0.3c0.6,0,2-0.1,2-1.5c0-0.2,0-0.5-0.3-1.4l-1.6-4.8h-6.3
			l-1.4,4.5c-0.2,0.6-0.3,1.3-0.3,1.6c0,1.5,1.2,1.6,1.7,1.6v0.3h-5.3v-0.3c1.6-0.1,2.4-1.4,2.8-2.7l5.4-17h2.4L927.4,78.7z
			 M916.8,73.1h5.7l-2.9-8.6h-0.1L916.8,73.1z"/>
		<path fill="#8C0B42" d="M947.3,66.3h-0.3c-0.2-2.6-2.4-2.8-3.8-2.8h-3.3v16.1c0,2.1,1.4,2.2,2.3,2.2v0.3h-7.4v-0.3
			c0.9,0,2.2-0.2,2.2-2.2V63.5h-3.3c-1.6,0-3.5,0.2-3.8,2.8h-0.3v-4.8h0.3c0.1,0.3,0.2,0.4,0.7,0.6c0.4,0.2,1.9,0.3,2.5,0.3h10.8
			c1.8,0,2.2-0.1,2.6-0.2c0.4-0.1,0.6-0.4,0.6-0.7h0.3V66.3z"/>
		<path fill="#8C0B42" d="M958.5,71.8c0.5,0,2.5,0,2.7-2h0.3v4.8h-0.3c-0.1-1.3-1-2.1-2.5-2.1h-3.9v6.7c0,0.8,0,2.1,2,2.1h2.6
			c1.9,0,2.8-0.6,3.3-2.5h0.3l-0.6,3.2h-12.8v-0.3c0.8,0,2.2-0.1,2.2-2.3V65c0-0.2,0-2.3-2-2.3h-0.3v-0.3h12.8v3.2h-0.3
			c0-1.8-1-2.5-2.7-2.5h-4.6v8.7H958.5z"/>
		<path fill="#8C0B42" d="M754.1,110.3L754.1,110.3c-0.8,1.5-3.1,4.7-7.9,4.7c-3.2,0-8.8-1.7-8.8-9.4V92.9c0-2.6-1.7-2.8-2.8-2.9
			v-0.4h9.4V90c-1.1,0.1-2.8,0.3-2.8,2.9v12.4c0,1.4,0.1,2.8,0.7,4.1c1,2.3,3.3,3.6,5.6,3.6c2.6,0,4.7-1.5,5.7-3
			c0.9-1.4,0.9-3.4,0.9-4.2v-13c0-2.6-1.7-2.8-2.8-2.9v-0.4h9.4V90c-1.2,0.1-2.9,0.3-2.9,2.9v18.4c0,2.6,1.7,2.8,2.9,2.9v0.3h-6.5
			V110.3z"/>
		<path fill="#8C0B42" d="M780.6,110V97.4c0-2-1.4-2.2-2.3-2.2v-0.3h5.5v0.3c-0.9,0.1-2.3,0.2-2.3,2.2V115h-0.3l-14.6-16.4V112
			c0,2.2,1.4,2.2,2.2,2.2v0.3h-5.4v-0.3c0.8,0,2.2-0.1,2.2-2.2V97.6l-0.8-0.9c0,0-0.1,0-0.1-0.1c-1.1-1.4-1.9-1.4-2.6-1.5v-0.3h4.8
			L780.6,110z"/>
		<path fill="#8C0B42" d="M793.7,114.6h-7.4v-0.3c0.8,0,2.2-0.1,2.2-2.2V97.4c0-2.1-1.4-2.2-2.2-2.2v-0.3h7.4v0.3
			c-0.8,0.1-2.2,0.2-2.2,2.2V112c0,2.2,1.4,2.2,2.2,2.2V114.6z"/>
		<path fill="#8C0B42" d="M803,94.8v0.3c-0.5,0-1.9,0-1.9,1.6c0,0.7,0.6,2.1,0.6,2.2l4.4,11l3.8-11c0,0,0-0.2,0.1-0.2
			c0.3-0.7,0.4-1.7,0.4-2c0-1.4-1.2-1.5-1.8-1.5v-0.3h5.7v0.3c-0.9,0.1-2,0.3-3,2.9c0,0.1-0.3,0.8-0.3,0.9l-5.7,16.1H805l-6.9-17.2
			c0-0.1-0.1-0.2-0.1-0.2c0,0-0.1-0.1-0.1-0.2c-0.6-1.1-1-2-2.7-2.3v-0.3H803z"/>
		<path fill="#8C0B42" d="M824.9,104.3c0.5,0,2.5,0,2.7-2h0.3v4.8h-0.3c-0.1-1.3-1-2.1-2.5-2.1h-3.9v6.7c0,0.8,0,2.1,2,2.1h2.6
			c1.9,0,2.8-0.6,3.3-2.4h0.3l-0.6,3.2H816v-0.3c0.8,0,2.3-0.1,2.3-2.3V97.4c0-0.2,0-2.3-2-2.3H816v-0.3h12.8v3.2h-0.3
			c0-1.8-1-2.5-2.7-2.5h-4.7v8.7H824.9z"/>
		<path fill="#8C0B42" d="M839.2,94.8c2.5,0,3.5,0.2,4.3,0.5c1.9,0.8,3.1,2.5,3.1,4.5c0,2.4-1.5,4.2-4.5,4.7v0
			c1.6,0.5,2.6,1.8,3.8,3.6l0.1,0.2l1.8,2.7c0,0,0.1,0.1,0.1,0.1c1.5,2.4,2.6,2.8,3.5,3v0.3h-4.7c-0.3-0.3-0.5-0.6-0.9-1.1
			c-0.1-0.1-0.5-0.7-0.6-0.8c0-0.1-0.1-0.1-0.1-0.2l-2.6-4c0,0,0-0.1-0.1-0.2c0-0.1-1.3-2.1-2.6-2.7c-0.5-0.2-1-0.4-2.4-0.4v6.8
			c0,1.6,0.8,2.3,2.2,2.3v0.3h-7.4v-0.3c1.5,0,2.2-0.7,2.2-2.2V97.4c0-2.2-1.4-2.3-2.2-2.3v-0.3H839.2z M837.6,104.4
			c2.4,0,5.9-0.2,5.9-4.3c0-1.4-0.6-4.5-4.2-4.5c-0.5,0-1.2,0-1.7,0.2V104.4z"/>
		<path fill="#8C0B42" d="M863.4,98.9c-0.4-2.2-1.8-3.8-4.3-3.8c-2.3,0-3.5,1.6-3.5,3.2c0,2.1,2,3.5,4,4.8c2.8,1.8,5.1,3.1,5.1,6.3
			c0,1.2-0.3,2.7-1.8,4.1c-1.3,1.3-2.7,1.5-4.3,1.5c-1.3,0-2.3-0.3-3.1-0.6c-1.1-0.5-1.3-0.5-1.6-0.5c-0.3,0-0.7,0.1-0.8,0.8H853
			l0.2-5h0.3c0.1,0.7,0.4,2.3,1.8,3.4c0.9,0.7,2.3,1.1,3.4,1.1c1.9,0,3.6-1.5,3.6-3.5c0-2-1.5-3.3-4.2-4.9c-2.3-1.4-4.7-2.9-4.7-6.2
			c0-2.4,1.7-5.3,5.7-5.3c0.9,0,1.9,0.1,2.7,0.4c0.3,0.1,0.8,0.3,1.1,0.3c0,0,0.6,0,0.7-0.7h0.3l-0.2,4.6H863.4z"/>
		<path fill="#8C0B42" d="M875.8,114.6h-7.4v-0.3c0.8,0,2.2-0.1,2.2-2.2V97.4c0-2.1-1.4-2.2-2.2-2.2v-0.3h7.4v0.3
			c-0.8,0.1-2.2,0.2-2.2,2.2V112c0,2.2,1.4,2.2,2.2,2.2V114.6z"/>
		<path fill="#8C0B42" d="M896.2,98.7H896c-0.2-2.5-2.4-2.7-3.8-2.7h-3.3V112c0,2.2,1.4,2.2,2.2,2.2v0.3h-7.4v-0.3
			c0.9,0,2.3-0.2,2.3-2.2V96h-3.3c-1.6,0-3.5,0.2-3.8,2.7h-0.3v-4.8h0.3c0.1,0.3,0.2,0.5,0.7,0.6c0.4,0.2,2,0.3,2.5,0.3h10.8
			c1.8,0,2.2-0.1,2.6-0.2c0.4-0.1,0.5-0.4,0.6-0.7h0.3V98.7z"/>
		<path fill="#8C0B42" d="M905.1,94.8v0.3c-0.5,0-1.6,0-1.6,1.1c0,0.5,0.4,1.1,0.7,1.6l3.5,5.5l3.3-5c0,0,0.1-0.1,0.1-0.1
			c0.5-0.7,0.9-1.6,0.9-2c0-0.9-1.2-1-1.6-1v-0.3h6v0.3c-0.6,0.1-1.2,0.1-1.7,0.4c-1,0.6-2.3,2.6-2.4,2.7l-4.1,6.2v7.6
			c0,2.1,1,2.2,2.2,2.2v0.3h-7.4v-0.3c0.9,0,2.2-0.2,2.2-2.2v-7.4l-4.5-7c0,0,0-0.1-0.1-0.1c0-0.1-0.1-0.1-0.6-0.9
			c-0.4-0.6-1.2-1.5-2.7-1.5v-0.3H905.1z"/>
		<path fill="#8C0B42" d="M755.3,77.9l-7.2-21H742v0.3c1.1,0.1,2.7,0.6,2.3,2.1l-6.1,19.1c-0.5,1.6-1.5,3.3-3.5,3.4v0.3h6.7v-0.3
			c-0.6,0-2.1-0.1-2.1-2c0-0.4,0.1-1.2,0.4-2.1l1.8-5.7h8l2.1,6.1c0.4,1.1,0.4,1.5,0.4,1.8c0,1.8-1.7,1.8-2.5,1.9v0.3h9.7v-0.3
			C757.6,81.6,756.4,81.1,755.3,77.9 M741.8,70.7l3.5-10.9h0.1l3.7,10.9H741.8z"/>
		<path fill="#8C0B42" d="M728.9,114.2c0,0-0.9-1-2.5-2.7c-2-2.1-1.8-4.3-1.8-4.3v-9.3V57.1h-19v40.1c-0.2,3.8-4,4.7-6,4.7
			c-3-0.1-4.7-1.7-4.7-4.6V57.1h-18.5v0c-4.3,0-7.8,0-13.1,0c-10.2,0-19.7,1.5-23,10l-1.9-7.5c-0.5-1.5-2.1-2.5-3.7-2.5h-2.5h-24.8
			h-1.8h-4c-0.5,0-0.6,0.2-0.4,0.5c0,0,0.9,0.9,2.5,2.7c2.3,2.6,1.4,6,1.4,6l-12.1,48.4h17.7l2.5-10.6h17.1l2.6,10.6h18.2h5.1
			c9.6,0,17.3-1,21.2-6.9c2.9,5.4,9,8,19.9,7c3.8-0.3,7.5-2.1,9.1-4.9l0.7,2.3c0.6,1.4,1.9,2.4,3.8,2.4h8.6h1.5h7.7
			C729,114.7,729.2,114.6,728.9,114.2 M615.7,93.6l5.9-23.7l5.9,23.7H615.7z"/>
		<path fill="#FFCA38" d="M636.1,67.8L636.1,67.8L636.1,67.8L636.1,67.8L636.1,67.8L636.1,67.8l3.3,3.1l0.1,0.1l0,0v0l0-0.1
			c0.1-0.5,0.2-1,0.3-1.5v0v0l0,0l-3.1-1.9l0,0h0l0,0l0,0l0,0h0.1h0l0,0c-0.2-0.1-0.4-0.1-0.5,0c-0.1,0.1-0.1,0.2-0.1,0.2
			C636,67.8,636,67.8,636.1,67.8l0,0.1L636.1,67.8L636.1,67.8L636.1,67.8L636.1,67.8z"/>
		<path fill="none" stroke="#FFCA38" stroke-width="0.4765" d="M636.1,67.8L636.1,67.8L636.1,67.8L636.1,67.8L636.1,67.8v0.1
			l3.3,3.1l0.1,0.1l0,0v0l0-0.1c0.1-0.5,0.2-1,0.3-1.5l0,0v0h0l0,0l-3.2-1.9l0,0h0l0,0v0l0,0h0h0.1h0l0,0c-0.1-0.1-0.4-0.1-0.5,0
			c-0.1,0.1-0.1,0.2-0.1,0.2c0,0.1,0.1,0.2,0.1,0.2l0,0L636.1,67.8L636.1,67.8L636.1,67.8L636.1,67.8z"/>
		<path fill="#FFCA38" d="M632.9,71.9L632.9,71.9L632.9,71.9L632.9,71.9L632.9,71.9L632.9,71.9l6.3,4.2l0.1,0.1l0,0v0l0-0.1
			c-0.1-0.7-0.1-1.3-0.1-2c0,0,0-0.1,0-0.1v-0.1v0h0l0,0c0,0,0,0,0,0l-5.9-2.4l0,0v0v0l0,0h0l0,0h0l0.1,0h0l0,0
			c-0.2-0.1-0.4,0-0.5,0.1c0,0.1-0.1,0.2,0,0.2C632.8,71.9,632.9,72,632.9,71.9L633,72L632.9,71.9L632.9,71.9L632.9,71.9L632.9,71.9
			z"/>
		<path fill="none" stroke="#FFCA38" stroke-width="0.4765" d="M632.9,71.9L632.9,71.9L632.9,71.9L632.9,71.9L632.9,71.9L632.9,71.9
			l6.4,4.3l0.1,0l0,0v0l0-0.1c-0.1-0.7-0.1-1.4-0.1-2.1c0,0,0-0.1,0-0.1v-0.1v0h0l0,0c0,0,0,0,0,0l-6-2.4l-0.1,0l0,0v0l0,0h0l0,0
			l0,0l0.1,0h0l0,0c-0.2-0.1-0.4,0-0.5,0.1c0,0.1-0.1,0.2,0,0.2C632.8,71.9,632.9,72,632.9,71.9l0.1,0.1L632.9,71.9L632.9,71.9
			L632.9,71.9L632.9,71.9z"/>
		<path fill="#FFCA38" d="M630.6,76.5L630.6,76.5L630.6,76.5L630.6,76.5L630.6,76.5l10,4.4l0.1,0.1l0,0l0,0l0-0.1
			c-0.4-0.9-0.7-1.9-1-2.9l0,0v0l0,0l-8.7-2l0,0h0l0,0v0l0,0l0,0l0.1,0l0,0l0,0c-0.2,0-0.4,0-0.4,0.2c0,0.1,0,0.2,0,0.2
			C630.5,76.5,630.6,76.5,630.6,76.5l0.1,0.1L630.6,76.5L630.6,76.5L630.6,76.5L630.6,76.5z"/>
		<path fill="none" stroke="#FFCA38" stroke-width="0.4765" d="M630.6,76.4L630.6,76.4L630.6,76.4L630.6,76.4L630.6,76.4L630.6,76.4
			l10,4.5l0.1,0.1l0,0l0,0l-0.1-0.1c-0.4-0.9-0.8-1.9-1-2.9l0,0l0,0l-8.8-2l0,0h0l0,0V76l0,0l0,0l0.1,0l0,0l0,0
			c-0.2-0.1-0.4,0-0.4,0.2c0,0.1,0,0.2,0,0.2C630.5,76.4,630.5,76.5,630.6,76.4l0.1,0.1L630.6,76.4L630.6,76.4L630.6,76.4
			L630.6,76.4z"/>
		<path fill="#FFCA38" d="M665.8,98.5c0-4.1-4.6-5.7-10-7.6c-5.5-1.9-11.8-4.1-14.8-9.5l0,0v0h0l-11.6-0.7h-0.1h0v0l0,0v0v0l0,0
			l0.1,0l0,0h0c-0.2,0-0.4,0.1-0.4,0.3c0,0.1,0,0.2,0,0.2c0.1,0.1,0.1,0.1,0.2,0.1l0,0l0,0l0-0.1l0,0v0v0.1l0,0h0l0,0l11.6,3
			c0.1,0,0.1,0,0.1,0c0,0,0,0.1,0,0.1c0,0.1-0.1,0.1-0.1,0.1h0l-12.1,1.1h0h0v0v0v0v0l0,0l0.1-0.1l0,0h0c-0.2,0-0.3,0.2-0.3,0.3
			c0,0.1,0,0.2,0.1,0.2c0.1,0.1,0.1,0.1,0.2,0.1h0l0,0l-0.1,0l0,0v0v0v0.1h0h0l12,1.1h0h0c0.1,0,0.1,0.1,0.1,0.1c0,0,0,0.1,0,0.1
			c0,0-0.1,0-0.1,0h0l-11.6,3l0,0h0v0l0,0v0l0,0l0-0.1l0,0h0c-0.1,0-0.2,0.1-0.2,0.2c0,0.1-0.1,0.2,0,0.2c0,0.2,0.2,0.3,0.4,0.3h0
			l0,0l-0.1,0l0,0v0v0v0.1v0h0l0.1,0l12.1-0.8h0l0,0c0.1,0,0.1,0,0.1,0.1c0,0,0,0.1,0,0.1c0,0-0.1,0-0.1,0h0l-10.9,4.8l0,0v0l0,0v0
			v0l0,0l0-0.1l0,0l0,0c-0.1,0-0.2,0.1-0.2,0.2c0,0.1,0,0.2,0,0.2c0,0.2,0.3,0.2,0.4,0.2h0l0,0l-0.1,0l0,0l0,0l0,0v0l0,0h0l11.7-2.6
			h0c0.1,0,0.1,0,0.2,0.1c0,0,0,0,0,0.1c0,0,0,0.1-0.1,0.1h0l-9.8,6.4l0,0l0,0v0l0,0v0v0l0,0l0-0.1l0,0l0,0c-0.1,0-0.1,0.1-0.2,0.2
			c0,0.1,0,0.2,0,0.2c0.1,0.1,0.3,0.2,0.5,0.1l0,0l0,0l-0.1,0h0l0,0v0l0,0l0,0v0h0l11-4.4c0,0,0.1,0,0.1,0c0,0,0,0.1,0,0.1
			c0,0,0,0,0,0.1l-8.4,7.8l0,0l0,0l0,0l0,0v0l0,0v0l0-0.1l0,0l-0.1,0c0,0.1-0.1,0.1-0.1,0.2c0,0.1,0,0.2,0.1,0.2
			c0.1,0.1,0.3,0.1,0.5,0l0,0h0l-0.1,0h0l0,0l0,0v0v0l0.1,0l10-6.1h0h0c0,0,0.1,0,0.2,0c0,0,0.1,0.1,0.1,0.1c0,0,0,0,0,0.1v0l-6.8,9
			l0,0v0l0,0l0,0h0l0,0v0l0-0.1v0l0,0c-0.1,0.1-0.1,0.1-0.1,0.2c0,0.1,0,0.2,0.1,0.2c0.1,0.1,0.4,0.1,0.5,0l0,0h0h-0.1l0,0l0,0h0
			l0,0h0h0l0,0l8.7-7.5h0c0-0.1,0.1-0.1,0.2,0c0,0,0.1,0.1,0.1,0.1c0,0,0,0.1,0,0.1v0l-4.9,9.9l0,0v0v0l0,0l0,0l0,0l0,0l0-0.1l0,0
			l0,0c0,0.1,0,0.2,0,0.2c0,0.1,0.1,0.2,0.2,0.2c0.2,0.1,0.4,0,0.5-0.1l0,0l0,0l-0.1,0l0,0l0,0h0l0.1,0v0l0,0l5-6.2l0,0h0l-0.1,0h0
			v0l0,0.1l0,0l0,0l0.1-0.1l2.2-2.7l0,0h0l-0.1,0l0,0l0,0c1.5,0.7,2.9,1.1,4,1.2c3.4,0.3,6.5-0.4,8.2-2
			C665.4,100.6,665.8,99.6,665.8,98.5"/>
		<path fill="none" stroke="#FFCA38" stroke-width="0.4765" d="M665.8,98.5c0-4.2-4.6-5.7-10-7.6c-5.5-1.9-11.8-4.1-14.8-9.5l0,0h0
			l-11.6-0.7h-0.1h0v0l0,0v0l0,0l0,0l0.1,0l0,0h0c-0.2,0-0.4,0.1-0.4,0.2c0,0.1,0,0.2,0,0.2c0.1,0.1,0.1,0.1,0.2,0.1l0,0l0,0l0-0.1
			l0,0l0,0v0.1l0,0h0l0.1,0l11.6,3c0.1,0,0.1,0,0.1,0c0,0,0,0,0,0.1c0,0.1-0.1,0.1-0.1,0.1h0l-12.1,1.1h0h0v0v0v0v0l0,0l0-0.1l0,0h0
			c-0.2,0-0.3,0.2-0.3,0.3c0,0.1,0,0.2,0.1,0.2c0.1,0.1,0.1,0.1,0.2,0.1h0l0,0l0-0.1l0,0v0v0v0.1h0h0l12,1.1h0h0
			c0.1,0,0.1,0,0.1,0.1c0,0,0,0.1,0,0.1c0,0,0,0,0,0h0l-11.6,3l-0.1,0h0v0l0,0v0l0,0l0-0.1l0,0h0c-0.1,0-0.2,0.1-0.2,0.2
			c0,0.1-0.1,0.2,0,0.2c0,0.2,0.2,0.3,0.4,0.3h0l0,0l-0.1,0l0,0v0h0v0.1v0h0l0.1,0l12.1-0.8h0l0,0c0.1,0,0.1,0,0.1,0.1
			c0,0,0,0.1,0,0.1c0,0-0.1,0-0.1,0h0l-10.9,4.8l0,0h0l0,0l0,0v0l0,0l0,0l0-0.1l0,0l0,0c-0.1,0-0.2,0.1-0.2,0.2c0,0.1,0,0.2,0,0.2
			c0.1,0.2,0.2,0.2,0.4,0.2h0l0,0l-0.1,0l0,0l0,0l0,0v0l0,0h0l11.8-2.6h0c0,0,0.1,0,0.2,0.1c0,0,0,0,0,0.1c0,0,0,0-0.1,0.1h0
			l-9.8,6.4l0,0l0,0v0l0,0v0l0,0l0,0l0-0.1l0,0l0,0c-0.1,0-0.1,0.1-0.2,0.2c0,0.1,0,0.2,0,0.2c0.1,0.1,0.3,0.2,0.5,0.1l0,0l0,0
			l-0.1,0h0l0,0v0l0,0l0,0l0,0h0l11-4.4h0v0c0,0,0.1,0,0.1,0c0,0,0,0.1,0,0.1c0,0,0,0,0,0.1l-8.4,7.8l0,0l0,0l0,0l0,0l0,0v0l0-0.1
			l0,0l0,0c-0.1,0.1-0.1,0.1-0.1,0.2c0,0.1,0,0.2,0.1,0.2c0.1,0.1,0.3,0.1,0.5,0l0,0h0l-0.1,0h0l0,0l0,0l0,0v0l0,0l10-6.1h0h0
			c0,0,0.1,0,0.2,0c0.1,0,0.1,0.1,0.1,0.1c0,0,0,0,0,0.1l-6.8,9l-0.1,0v0l0,0l0,0h0l0,0v0l0-0.1v0l0,0c-0.1,0.1-0.1,0.1-0.1,0.2
			c0,0.1,0,0.2,0.1,0.2c0.1,0.1,0.4,0.1,0.5,0l0,0h0h-0.1l0,0l0,0h0l0,0h0h0l0,0l8.7-7.5h0c0,0,0.1-0.1,0.2,0c0,0,0.1,0.1,0.1,0.1
			c0,0,0,0.1,0,0.1v0l-4.9,9.9l0,0.1v0v0l0,0l0,0l0,0l0,0l0-0.1l0,0l0,0c0,0.1,0,0.2,0,0.2c0,0.1,0.1,0.2,0.2,0.2
			c0.2,0.1,0.4,0,0.5-0.1l0,0l0,0l-0.1,0l0,0l0,0l0,0l0,0v0l0,0l5-6.2l0,0h0l-0.1,0h0l0,0l0,0.1l0,0l0,0l0.1-0.1l2.2-2.7l0,0h0
			l-0.1,0l0,0l0,0c1.5,0.7,2.9,1.1,4,1.2c3.4,0.3,6.5-0.4,8.2-2C665.4,100.6,665.8,99.7,665.8,98.5z"/>
		<path fill="#FFCA38" d="M681.6,107.9L681.6,107.9L681.6,107.9L681.6,107.9L681.6,107.9l0-0.1l-2.6-3.5l-0.1-0.1l0,0l0,0l0,0.1
			c-0.2,0.5-0.3,1-0.5,1.5l0,0l0,0l0,0l0,0l2.7,2.4l0,0l0,0h0l0,0h0l0,0l0,0l-0.1,0h0l0,0c0.1,0.1,0.4,0.1,0.5,0
			c0.1,0,0.1-0.1,0.1-0.2c0-0.1,0-0.2-0.1-0.2l0,0V107.9L681.6,107.9L681.6,107.9L681.6,107.9z"/>
		<path fill="none" stroke="#FFCA38" stroke-width="0.4765" d="M681.6,107.9L681.6,107.9L681.6,107.9L681.6,107.9L681.6,107.9l0-0.1
			l-2.6-3.5l-0.1-0.1l0,0l0,0l0,0.1c-0.2,0.5-0.4,1-0.5,1.5l0,0l0,0l0,0l0.1,0l2.7,2.4l0,0l0,0h0l0,0h0l0,0h0l-0.1,0h0l0,0
			c0.1,0.1,0.3,0.2,0.5,0c0.1,0,0.1-0.1,0.1-0.2c0-0.1,0-0.2-0.1-0.2l0,0L681.6,107.9L681.6,107.9L681.6,107.9L681.6,107.9z"/>
		<path fill="#FFCA38" d="M685.5,104.3L685.5,104.3L685.5,104.3L685.5,104.3L685.5,104.3v-0.1l-5.6-5.2l-0.1-0.1l0,0v0l0,0.1
			c0,0.8-0.1,1.6-0.3,2.3v0v0l0,0l5.5,3.3l0,0v0l0,0l0,0h0l0,0l0,0H685h0l0,0c0.1,0.1,0.4,0.1,0.5,0c0.1-0.1,0.1-0.1,0.1-0.2
			c0-0.1-0.1-0.1-0.1-0.2l0,0L685.5,104.3L685.5,104.3L685.5,104.3L685.5,104.3z"/>
		<path fill="none" stroke="#FFCA38" stroke-width="0.4765" d="M685.6,104.4L685.6,104.4L685.6,104.4L685.6,104.4L685.6,104.4v-0.1
			l-5.6-5.3l-0.1-0.1l0,0v0l0,0.1c0,0.8-0.1,1.6-0.3,2.3v0v0l0,0l5.5,3.4l0,0v0l0,0l0,0l0,0l0,0h-0.1h0l0,0c0.1,0.1,0.4,0.1,0.5,0
			c0.1-0.1,0.1-0.2,0.1-0.2c0-0.1-0.1-0.2-0.1-0.2l0,0L685.6,104.4L685.6,104.4L685.6,104.4L685.6,104.4z"/>
		<path fill="#FFCA38" d="M688.6,100.2L688.6,100.2L688.6,100.2L688.6,100.2L688.6,100.2v-0.1l-8.9-5.8l-0.1-0.1l0,0l0,0l0,0.1
			c0.1,0.8,0.2,1.6,0.2,2.4v0.3v0.1v0h0v0h0c0,0,0,0,0,0l8.4,3.3l0,0h0l0-0.1l0,0l0,0l0,0l-0.1,0l0,0c0.2,0.1,0.4,0,0.5-0.1
			c0-0.1,0.1-0.2,0-0.2c0-0.1-0.1-0.2-0.1-0.2l0,0L688.6,100.2L688.6,100.2L688.6,100.2L688.6,100.2z"/>
		<path fill="none" stroke="#FFCA38" stroke-width="0.4765" d="M688.7,100.2L688.7,100.2L688.7,100.2L688.7,100.2L688.7,100.2v-0.1
			l-8.9-5.8l-0.1-0.1l0,0l0,0l0,0.1c0.1,0.8,0.2,1.6,0.2,2.5v0.3v0.1v0h0v0h0c0,0,0,0,0,0l8.4,3.4l0,0h0l0-0.1l0,0l0,0l0,0l-0.1,0
			l0,0c0.2,0.1,0.4,0,0.5-0.1c0-0.1,0.1-0.2,0-0.2c0-0.1-0.1-0.2-0.1-0.2l0,0L688.7,100.2L688.7,100.2L688.7,100.2L688.7,100.2z"/>
		<path fill="#FFCA38" d="M693.1,86c0-0.1,0-0.1-0.1-0.2c-0.1-0.1-0.2-0.1-0.2-0.1h0l0,0l0.1,0l0,0v0v-0.1v0h0h0l-12-1.1h0h0
			c-0.1,0-0.1,0-0.1-0.1c0,0,0-0.1,0-0.1c0,0,0,0,0.1,0h0h0l11.6-3l0,0h0v0l0,0h0l0-0.1l0,0l0,0.1l0,0l0,0c0.1,0,0.2-0.1,0.2-0.1
			c0.1-0.1,0.1-0.2,0.1-0.2c0-0.2-0.2-0.3-0.4-0.3l0,0l0,0l0,0.1l0,0l0,0v0v0v0h0h0l-12.1,0.8h0c-0.1,0-0.1,0-0.1-0.1
			c0,0,0-0.1,0-0.1c0,0,0,0,0,0h0h0v0l10.9-4.7l0,0h0v0l0,0l0,0l0,0l0,0.1l0,0l0,0c0.1,0,0.2-0.1,0.2-0.2c0-0.1,0-0.2,0-0.2
			c-0.1-0.2-0.3-0.3-0.5-0.2l0,0l0,0l0.1,0l0,0l0,0v0l0,0v0l0,0L679,78.6v0h0c-0.1,0-0.1,0-0.2,0v-0.1c0,0,0,0,0.1-0.1l9.8-6.4l0,0
			l0,0l0,0l0,0l0,0l0,0v0l0,0.1v0l0,0c0.1,0,0.1-0.1,0.1-0.2c0-0.1,0-0.2,0-0.2c-0.1-0.1-0.3-0.2-0.5-0.1h0l0.1,0l0,0l0,0l0,0l0,0
			l0,0v0h0l0,0l-11.1,4.4h0c-0.1,0-0.1,0-0.2,0c0,0,0-0.1,0-0.1c0,0,0,0,0-0.1h0l8.4-7.8l0,0l0,0h0l0-0.1l0,0l0,0v0.1v0l0,0
			c0.1,0,0.1-0.1,0.1-0.2c0-0.1,0-0.2-0.1-0.2c-0.1-0.1-0.3-0.1-0.5-0.1l0,0h0h0.1l0,0l0,0v0l0,0l0,0l0,0l0,0L675,73.5h0
			c0,0-0.1,0-0.2,0c0,0,0,0,0-0.1c0,0,0,0,0-0.1v0h0v0l6.8-9l0,0l0,0l0,0l0,0l0,0v0v0.1v0l0,0c0.1-0.1,0.1-0.2,0.1-0.2
			c0-0.1-0.1-0.2-0.1-0.2c-0.1-0.1-0.4-0.1-0.5,0l0,0h0h0.1l0,0l0,0l0,0l0,0l0,0l0,0l-8.7,7.6h0v0c0,0-0.1,0-0.2,0c0,0,0-0.1,0-0.1
			c0,0,0,0,0,0v0l5-9.9v0l0,0l0,0l0,0h0l0,0l0,0l0,0.1l0,0l0,0c0-0.1,0.1-0.1,0-0.2c0-0.1-0.1-0.2-0.2-0.2c-0.2-0.1-0.4,0-0.5,0.1
			l0,0l0,0l0.1,0l0.1,0l0,0h0l0,0l0,0l0,0l0,0l-1.3,1.6l0,0h0l0.1,0l0,0v0v-0.2v0l0,0l-0.1,0.1l-6,7.4l0,0h0l0.1,0l0,0h0
			c-2-1-5.4-1.6-7-1.6h-0.1c-3.2-0.1-5.6,0.6-6.9,1.8c-0.8,0.7-1.1,1.7-1.1,2.8c0,1.6,0.9,2.8,2.8,4c1.7,1.1,4.1,1.9,6.5,2.9
			c3.3,1.2,6.9,2.6,9.9,4.7c3.5,2.4,5.5,5.3,6.2,8.9v0l0,0l11.1,2.5l0,0h0v0l0,0v0l0,0l0,0l-0.1,0l0,0h0c0.2,0.1,0.4,0,0.4-0.2
			c0-0.1,0-0.2,0-0.2c0-0.1-0.1-0.1-0.2-0.2l0,0l0,0l0,0.1v0l0,0v0l0-0.1l0,0l-0.1,0l-10.8-4.7v0c0,0-0.1,0-0.1,0c0,0,0-0.1,0-0.1
			c0-0.1,0.1-0.1,0.1-0.1h0l12.1,0.8h0h0v0v0v0l0,0l0,0l-0.1,0l0,0h0c0.2,0,0.4-0.1,0.4-0.2c0-0.1,0-0.2-0.1-0.3
			c0-0.1-0.1-0.1-0.2-0.1h0l0,0l0,0.1l0,0l0,0l0,0v0l0,0l-0.1,0l-11.6-3c0,0-0.1,0-0.1,0c0,0,0-0.1,0-0.1c0-0.1,0-0.1,0.1-0.1
			l12-1.1l0,0h0v0v0v0v0l0,0l-0.1,0l0,0h0c0.1,0,0.2,0,0.2-0.1C693,86.2,693.1,86.1,693.1,86"/>
		<path fill="none" stroke="#FFCA38" stroke-width="0.4765" d="M693.1,86.1c0-0.1,0-0.1-0.1-0.2c-0.1-0.1-0.2-0.1-0.2-0.1h0l0,0
			l0.1,0l0,0v0v-0.1v0h0h0l-12.1-1.1h0h0c-0.1,0-0.1,0-0.1-0.1c0,0,0-0.1,0-0.1c0,0,0,0,0.1,0h0h0l11.6-3l0,0h0v0l0,0h0l0,0l0,0
			l0,0.1l0,0l0,0c0.1,0,0.2-0.1,0.2-0.1c0-0.1,0.1-0.2,0.1-0.2c0-0.2-0.2-0.3-0.4-0.3l0,0l0,0l0,0.1l0,0l0,0v0v0v0h0l0,0l-12.1,0.8
			c-0.1,0-0.1,0-0.1-0.1c0,0,0-0.1,0-0.1c0,0,0,0,0,0h0h0v0l10.9-4.7l0.1,0h0v0l0,0v0l0,0l0,0.1l0,0l0,0c0.1,0,0.2-0.1,0.2-0.2
			c0-0.1,0-0.2,0-0.2c-0.1-0.2-0.3-0.2-0.5-0.2l0,0l0,0l0.1,0l0,0l0,0v0l0,0v0h0l0,0L679,78.6v0h0c-0.1,0-0.1,0-0.2,0v-0.1
			c0,0,0,0,0.1-0.1l9.8-6.4l0,0l0,0l0,0l0,0l0,0l0,0v0l0,0.1v0l0,0c0.1,0,0.1-0.1,0.2-0.2c0-0.1,0-0.2-0.1-0.2
			c-0.1-0.2-0.3-0.2-0.4-0.1h0l0,0l0,0l0,0l0,0l0,0l0,0l0,0h0l0,0l-11.1,4.4h0c-0.1,0-0.1,0-0.2,0c0,0,0-0.1,0-0.1c0,0,0,0,0-0.1h0
			l8.4-7.8l0,0l0,0h0l0-0.1l0,0l0,0v0.1v0l0,0c0.1-0.1,0.1-0.1,0.1-0.2c0-0.1,0-0.2-0.1-0.2c-0.1-0.1-0.3-0.2-0.5-0.1l0,0h0h0.1l0,0
			l0,0v0l0,0l0,0l0,0l0,0L675,73.5v0h0c0,0-0.1,0-0.2,0c0,0,0,0,0-0.1c0,0,0-0.1,0-0.1v0h0l6.8-9l0,0l0,0l0,0l-0.1,0l0,0l0,0v0.1v0
			l0,0c0.1-0.1,0.1-0.1,0.1-0.2c0-0.1-0.1-0.2-0.1-0.2c-0.1-0.1-0.4-0.1-0.5,0l0,0h0h0.1h0l0,0l0,0v0l0,0l0,0l-8.7,7.6h0v0
			c0,0-0.1,0-0.2,0c0,0,0,0,0-0.1c0,0,0,0,0,0v0l5-10v0l0,0l0,0l0,0h0l0,0l0,0l0,0.1l0,0l0,0c0-0.1,0.1-0.1,0-0.2
			c0-0.1-0.1-0.2-0.2-0.2c-0.2-0.1-0.4,0-0.5,0.1l0,0l0,0l0.1,0l0,0l0,0h0l0,0l0,0l0,0l0,0l-1.3,1.6l0,0h0l0.1,0l0,0v0v0v-0.2v0l0,0
			l-0.1,0.1l-6,7.4l0,0h0l0.1,0l0.1,0h-0.1c-2-1-5.4-1.6-7-1.6h-0.1c-3.2-0.1-5.6,0.6-6.9,1.8c-0.7,0.7-1.1,1.7-1.1,2.8
			c0,1.6,0.9,2.8,2.8,4c1.7,1.1,4.1,1.9,6.5,2.9c3.3,1.2,6.9,2.6,9.9,4.7c3.5,2.4,5.5,5.3,6.3,8.9v0v0l0,0l11.1,2.5l0,0h0l0,0l0,0
			l0,0l-0.1,0l-0.1,0l0,0h0c0.2,0.1,0.4,0,0.4-0.2c0-0.1,0-0.2,0-0.2c0-0.1-0.1-0.2-0.2-0.2l0,0l0,0l0,0.1v0l0,0v0l0-0.1l0,0l0,0
			l-10.9-4.7v0c0,0-0.1,0-0.1-0.1c0,0,0-0.1,0-0.1c0-0.1,0.1-0.1,0.1-0.1h0l12.1,0.8h0h0v0v0l0,0l0,0l-0.1,0l0,0h0
			c0.2,0,0.4-0.1,0.4-0.3c0-0.1,0-0.2-0.1-0.2c0-0.1-0.1-0.1-0.2-0.1h0l0,0l0,0.1l0,0l0,0l0,0v0l0,0l0,0l-11.6-3v0c0,0-0.1,0-0.1,0
			c0,0,0-0.1,0-0.1c0-0.1,0.1-0.1,0.1-0.1l12.1-1.1l0,0h0v0v0v0v0l0,0l-0.1,0l0,0h0c0.1,0,0.2,0,0.2-0.1
			C693.1,86.2,693.1,86.2,693.1,86.1z"/>
		<path fill="#8C0B42" d="M728.4,57.1c1.3,0,2.3,1,2.3,2.3c0,1.3-1,2.3-2.3,2.3s-2.3-1-2.3-2.3C726.1,58.1,727.1,57.1,728.4,57.1
			 M728.4,61.3c1.1,0,1.8-0.8,1.8-1.9c0-1.1-0.8-2-1.8-2c-1.1,0-1.9,0.9-1.9,2C726.5,60.5,727.3,61.3,728.4,61.3 M727.5,58h1
			c0.6,0,0.9,0.2,0.9,0.8c0,0.4-0.2,0.7-0.7,0.7l0.8,1.2H729l-0.8-1.2h-0.4v1.2h-0.4V58z M727.9,59.2h0.5c0.3,0,0.6-0.1,0.6-0.4
			c0-0.3-0.3-0.4-0.6-0.4h-0.5V59.2z"/>
	</g>
</g>
</svg>
