<svg id="Layer_1" data-name="Layer 1" xmlns="http://www.w3.org/2000/svg" xmlns:xlink="http://www.w3.org/1999/xlink" viewBox="0 0 335.08 80"><defs><style>.cls-1,.cls-6{fill:none;}.cls-2{clip-path:url(#clip-path);}.cls-3{fill:#4b2e83;}.cls-4{fill:#231f20;}.cls-5{clip-path:url(#clip-path-2);}.cls-6{stroke:#231f20;stroke-width:0.28px;}</style><clipPath id="clip-path" transform="translate(-515 -461)"><rect class="cls-1" x="515" y="461" width="118.97" height="80"/></clipPath><clipPath id="clip-path-2" transform="translate(-515 -461)"><rect class="cls-1" x="655" y="467.3" width="195.08" height="57.86"/></clipPath></defs><title>pce-logo</title><g class="cls-2"><path class="cls-3" d="M602.31,461v14.43h10.14l-11.32,42.14L587.08,461H572.43l-15.2,56.57L546.8,475.43h10.56V461H515v14.43h9.39L540.78,541h22.74l10.85-41.26L584.68,541h22.74l17.25-65.57H634V461Z" transform="translate(-515 -461)"/></g><path class="cls-4" d="M656.14,519.33a2.87,2.87,0,0,0,3,2.8,3,3,0,0,0,3.12-2.8V513.1l.82-.83h-2.52l.83.83v6.23a2,2,0,0,1-2,2,2.08,2.08,0,0,1-2.13-2V513.1l.83-.83h-2.8l.84.83v6.23ZM667,521.08v-7.23l5.18,8.07h.34V513.1l.83-.83h-2.52l.84.83v6.14l-4.35-7h-2l.82.83v8l-.82.83h2.52l-.83-.83Zm9-8.82.77.77v8.12l-.77.77h2.6l-.77-.77V513l.77-.77Zm7.49,0h-2.73l.79.77,2.72,8.89h.49l2.8-8.89.79-.77H686l.75.75-2,6.68-2-6.68.75-.75ZM696,521.92v-1.76l-1,1H692v-4.06h2.18l.77.77v-2.26l-.77.77H692V513H695l1,1v-1.75h-5.78l.75.77v8.12l-.75.77Zm4.34-.77v-3.73h1.46l2.34,4.5h1.6l-.75-.77-2.16-4a2.53,2.53,0,0,0,1.82-2.26,2.89,2.89,0,0,0-3.13-2.67h-3l.75.77v8.12l-.75.77h2.59l-.77-.77Zm0-8.16h1.18a1.89,1.89,0,0,1,1.85,1.93,1.81,1.81,0,0,1-1.85,1.78h-1.18V513Zm12.4,6.25a2.14,2.14,0,0,0-.9-1.85l-2-1.42a2.27,2.27,0,0,1-1.06-1.65,1.36,1.36,0,0,1,1.39-1.37,5.5,5.5,0,0,1,.62.11l.85.92.9-1.34-1.91-.36a1.52,1.52,0,0,0-.46,0,2.43,2.43,0,0,0-2.45,2.37A2.79,2.79,0,0,0,709,516.8l2,1.42a1.64,1.64,0,0,1,.69,1.41,1.59,1.59,0,0,1-1.6,1.7,1.61,1.61,0,0,1-.67-.13l-.92-1.08-.84,1.51,1.85.36a3.25,3.25,0,0,0,.57.07,2.77,2.77,0,0,0,2.68-2.81m2.8-7,.77.77v8.12l-.77.77h2.6l-.77-.77V513l.77-.77Zm8.76,8.88V513h1.83l1,1v-1.75h-6.79V514l1-1h1.82v8.16l-.75.77h2.59l-.77-.77Zm5.09-8.12,2.44,4.4v3.71l-.77.77h2.6l-.77-.77v-3.71l2.49-4.38.8-.79h-2.39l.75.75-2,3.62L730.58,513l.75-.75H728.6l.78.77Zm15.75,2.77a3.24,3.24,0,0,0-1.47.49,4.26,4.26,0,0,0-2,3.72c0,1,.45,2,1.71,2a3.49,3.49,0,0,0,2-.91,4.88,4.88,0,0,0,1.43-3.43,1.67,1.67,0,0,0-1.74-1.89m-2.32,3.89a3.67,3.67,0,0,1,1.44-3.28,1.28,1.28,0,0,1,.45-.11c.68,0,1.07.52,1.07,1.57,0,1.76-.9,3.37-1.47,3.56a1.36,1.36,0,0,1-.42.09c-.76,0-1.07-.82-1.07-1.83m6.12-3.56-.37.35,0,.14h1.13c-.18,1.22-.34,2.28-.6,4-.37,2.54-.68,3.44-.94,3.66a.5.5,0,0,1-.34.12,1.85,1.85,0,0,1-.6-.2.32.32,0,0,0-.38.09.83.83,0,0,0-.23.46c0,.27.35.41.58.41a2.29,2.29,0,0,0,1.5-.94c.46-.57,1.09-1.89,1.62-5,.1-.57.2-1.14.44-2.64l1.39-.14.3-.35h-1.6c.41-2.51.75-3.28,1.33-3.28a1.47,1.47,0,0,1,1,.45.28.28,0,0,0,.38,0,.8.8,0,0,0,.27-.5c0-.27-.35-.57-.82-.57a3,3,0,0,0-2.19,1.14,6.15,6.15,0,0,0-1.07,2.77Zm14.31,5.79,2.21-7,2.14,7h.49l2.8-8.89.79-.77h-2.32l.75.75-2,6.68-2-6.68.75-.75h-2.73l.77.77.2.64-1.85,6-2-6.68.75-.75h-2.73l.79.77,2.72,8.89Zm10.27-.75.7-2h3.19l.67,2-.75.75H780l-.77-.78-3-8.87h-.49l-3.06,8.87-.79.78h2.32l-.75-.75Zm2.32-6.76,1.33,4h-2.7l1.37-4Zm10.8,4.83a2.14,2.14,0,0,0-.9-1.85l-2-1.42a2.28,2.28,0,0,1-1.07-1.65,1.36,1.36,0,0,1,1.39-1.37,5.59,5.59,0,0,1,.62.11l.85.92.9-1.34-1.91-.36a1.53,1.53,0,0,0-.46,0,2.43,2.43,0,0,0-2.45,2.37,2.79,2.79,0,0,0,1.24,2.21l2,1.42a1.64,1.64,0,0,1,.69,1.41,1.59,1.59,0,0,1-1.6,1.7,1.62,1.62,0,0,1-.67-.13l-.92-1.08-.83,1.51,1.85.36a3.26,3.26,0,0,0,.57.07,2.77,2.77,0,0,0,2.69-2.81m4.35-2.16H795v4.07l-.77.77h2.6l-.77-.77V513l.77-.77h-2.6l.77.77v3.32H791V513l.77-.77h-2.59l.75.77v8.12l-.75.77h2.59l-.77-.77v-4.07Zm8.58-4.81.77.77v8.12l-.77.77h2.6l-.77-.77V513l.77-.77Zm6.92,8.82v-7.23l5.08,8.07H812V513.1l.83-.83h-2.52l.84.83v6.14l-4.35-7h-2l.82.83v8l-.82.83h2.52l-.83-.83Zm14.31-3.55v3.11a2.09,2.09,0,0,1-1.59.69c-2.14,0-3.22-2.16-3.22-4.24s1.36-4.24,3.22-4.24a1.47,1.47,0,0,1,1.18.46l1.06,1v-1.67a4.31,4.31,0,0,0-2.24-.56,5,5,0,0,0,0,9.92,4.21,4.21,0,0,0,2.65-.71v-3.81l.75-.77H820l.77.77Zm7.15,3.62V513h1.83l1,1v-1.75H824V514l1-1h1.82v8.16l-.75.77h2.59l-.77-.77Zm4.37-4.06c0,2.46,1.39,5,3.86,5s3.88-2.58,3.88-5-1.39-5-3.88-5-3.86,2.59-3.86,5m3.86,4.31c-1.93,0-2.6-2.31-2.6-4.31s.67-4.3,2.6-4.3,2.62,2.31,2.62,4.3-.67,4.31-2.62,4.31m7.46-.31v-7.23l5,8.07h.49V513.1l.83-.83h-2.52l.84.83v6.14l-4.35-7h-2l.82.83v8l-.82.83h2.52l-.83-.83Z" transform="translate(-515 -461)"/><g class="cls-5"><line class="cls-6" x1="140" y1="44.33" x2="335.02" y2="44.33"/></g><path class="cls-4" d="M659.41,468.47H658v4.7h1.38a2.35,2.35,0,0,0,0-4.7Zm0,5.63H658v3.84l1,1h-3.7l1-1v-9.43l-1-1h4.1c2.09,0,4.33,1,4.33,3.28s-2.24,3.28-4.33,3.28Z" transform="translate(-515 -461)"/><path class="cls-4" d="M669.63,468.47h-1.38v4.29h1.38a2,2,0,0,0,1.95-2.11,2,2,0,0,0-1.95-2.19Zm2.85,10.46-2.72-5.23h-1.51v4.25l1,1h-3.7l1-1v-9.43l-1-1h4.1c1.93,0,3.92,1,3.92,3.12a3,3,0,0,1-2.12,2.7l2.53,4.58,1,1Z" transform="translate(-515 -461)"/><path class="cls-4" d="M681.09,468.23c-2.17,0-2.8,2.75-2.8,5s.63,5,2.8,5,2.8-2.75,2.8-5-.63-5-2.8-5Zm0,10.94c-3,0-4.89-3-4.89-5.94s1.88-5.94,4.89-5.94,4.89,3,4.89,5.94-1.88,5.94-4.89,5.94Z" transform="translate(-515 -461)"/><polygon class="cls-4" points="178.89 7.47 175.77 7.47 175.77 11.37 178.01 11.37 178.99 10.39 178.99 13.28 178.01 12.3 175.77 12.3 175.77 16.95 176.75 17.93 173.05 17.93 174.03 16.95 174.03 7.52 173.05 6.54 180.2 6.54 180.2 8.78 178.89 7.47 178.89 7.47"/><polygon class="cls-4" points="181.82 17.93 182.8 16.95 182.8 7.52 181.82 6.54 188.96 6.54 188.96 8.78 187.66 7.47 184.54 7.47 184.54 11.37 186.77 11.37 187.75 10.39 187.75 13.28 186.77 12.3 184.54 12.3 184.54 17 187.66 17 188.96 15.69 188.96 17.93 181.82 17.93 181.82 17.93"/><path class="cls-4" d="M708.91,479.06a6.27,6.27,0,0,1-1-.08l-2.36-.42,1.14-2.09,1.25,1.58a2.34,2.34,0,0,0,1.09.24,1.94,1.94,0,0,0,2-2,2,2,0,0,0-1-1.67l-2.33-1.53a3,3,0,0,1,1.72-5.66,7.56,7.56,0,0,1,1.42.18l1.74.32-1.14,1.93-1-1.25a1.23,1.23,0,0,0-.88-.34,1.64,1.64,0,0,0-1.72,1.58,2.12,2.12,0,0,0,1.17,1.79l2,1.34a3.1,3.1,0,0,1,1.67,2.57,3.37,3.37,0,0,1-3.68,3.54Z" transform="translate(-515 -461)"/><path class="cls-4" d="M717.61,479.06a6.27,6.27,0,0,1-1-.08l-2.36-.42,1.14-2.09,1.25,1.58a2.34,2.34,0,0,0,1.09.24,1.94,1.94,0,0,0,2-2,2,2,0,0,0-1-1.67l-2.33-1.53a3,3,0,0,1,1.72-5.66,7.56,7.56,0,0,1,1.42.18l1.74.32-1.14,1.93-1-1.25a1.23,1.23,0,0,0-.88-.34,1.64,1.64,0,0,0-1.72,1.58,2.12,2.12,0,0,0,1.17,1.79l2,1.34a3.1,3.1,0,0,1,1.67,2.57,3.37,3.37,0,0,1-3.68,3.54Z" transform="translate(-515 -461)"/><polygon class="cls-4" points="208.45 17.93 209.43 16.95 209.43 7.52 208.45 6.54 212.15 6.54 211.17 7.52 211.17 16.95 212.15 17.93 208.45 17.93 208.45 17.93"/><path class="cls-4" d="M734.27,468.23c-2.17,0-2.8,2.75-2.8,5s.63,5,2.8,5,2.8-2.75,2.8-5-.63-5-2.8-5Zm0,10.94c-3,0-4.89-3-4.89-5.94s1.88-5.94,4.89-5.94,4.89,3,4.89,5.94-1.88,5.94-4.89,5.94Z" transform="translate(-515 -461)"/><polygon class="cls-4" points="234.91 7.52 234.91 18.86 228.31 8.62 228.31 16.95 229.29 17.93 226.24 17.93 227.22 16.95 227.22 7.52 226.24 6.54 229.08 6.54 233.81 13.96 233.81 7.52 232.83 6.54 235.89 6.54 234.91 7.52 234.91 7.52"/><path class="cls-4" d="M756.61,470.15,755,474.78h3.1l-1.51-4.63Zm1.59,8.78,1-1-.72-2.25H754.7l-.76,2.25,1,1h-3.06l1-1,3.62-10.39h1.06l3.54,10.39,1,1Z" transform="translate(-515 -461)"/><polygon class="cls-4" points="248.27 17.93 249.25 16.95 249.25 7.52 248.27 6.54 251.97 6.54 250.99 7.52 250.99 17 253.71 17 255.01 15.69 255.01 17.93 248.27 17.93 248.27 17.93"/><path class="cls-4" d="M778.21,475.79a2.2,2.2,0,0,0,2.19,2.48,2.64,2.64,0,0,0,2-.88l-3.1-4a3.07,3.07,0,0,0-1.06,2.43Zm5.23-2.19v-.1l-.9-.9h2.75l-.9.9v.11a7.78,7.78,0,0,1-.5,2.94l1.08,1.38,1,1h-2.38l-.66-.85a4,4,0,0,1-2.9,1c-2,0-3.6-1.21-3.6-3.23a3.4,3.4,0,0,1,2.38-3.15,4.74,4.74,0,0,1-1.13-2.72,2.85,2.85,0,0,1,3-2.65,5.37,5.37,0,0,1,2.59.68v2.12l-1.46-1.46a1.42,1.42,0,0,0-1.11-.56c-.74,0-1.34.61-1.34,1.62a3.86,3.86,0,0,0,1.11,2.45l2.72,3.49a8.6,8.6,0,0,0,.22-2.09Z" transform="translate(-515 -461)"/><path class="cls-4" d="M660.3,497.95c-2.94,0-4.84-2.88-4.84-5.86s1.95-5.86,4.84-5.86a5.75,5.75,0,0,1,2.88.68v2.33l-1.56-1.56a1.68,1.68,0,0,0-1.32-.55c-2.17,0-2.75,2.73-2.75,5s.66,5,2.75,5a1.68,1.68,0,0,0,1.32-.55l1.56-1.56v2.35a5,5,0,0,1-2.88.66Z" transform="translate(-515 -461)"/><path class="cls-4" d="M670.14,487.09c-2.17,0-2.8,2.75-2.8,5s.63,5,2.8,5,2.8-2.75,2.8-5-.63-5-2.8-5Zm0,10.94c-3,0-4.89-3-4.89-5.94s1.88-5.94,4.89-5.94,4.89,3,4.89,5.94-1.88,5.94-4.89,5.94Z" transform="translate(-515 -461)"/><polygon class="cls-4" points="170.77 26.38 170.77 37.72 164.18 27.47 164.18 35.8 165.16 36.78 162.1 36.78 163.08 35.8 163.08 26.38 162.1 25.4 164.95 25.4 169.68 32.81 169.68 26.38 168.7 25.4 171.75 25.4 170.77 26.38 170.77 26.38"/><polygon class="cls-4" points="180.23 26.33 178.31 26.33 178.31 35.8 179.29 36.78 175.6 36.78 176.58 35.8 176.58 26.33 174.66 26.33 173.36 27.63 173.36 25.4 181.53 25.4 181.53 27.63 180.23 26.33 180.23 26.33"/><polygon class="cls-4" points="183.38 36.78 184.36 35.8 184.36 26.38 183.38 25.4 187.08 25.4 186.1 26.38 186.1 35.8 187.08 36.78 183.38 36.78 183.38 36.78"/><polygon class="cls-4" points="197.84 26.38 197.84 37.72 191.24 27.47 191.24 35.8 192.22 36.78 189.17 36.78 190.15 35.8 190.15 26.38 189.17 25.4 192.01 25.4 196.74 32.81 196.74 26.38 195.76 25.4 198.82 25.4 197.84 26.38 197.84 26.38"/><path class="cls-4" d="M724.09,487.38v7.21a3.78,3.78,0,0,1-7.53,0v-7.21l-1-1h3.7l-1,1v7.21a2.35,2.35,0,1,0,4.7,0v-7.21l-1-1h3.06l-1,1Z" transform="translate(-515 -461)"/><polygon class="cls-4" points="212.08 36.78 213.06 35.8 213.06 26.38 212.08 25.4 215.78 25.4 214.8 26.38 214.8 35.8 215.78 36.78 212.08 36.78 212.08 36.78"/><polygon class="cls-4" points="226.54 26.38 226.54 37.72 219.95 27.47 219.95 35.8 220.93 36.78 217.87 36.78 218.85 35.8 218.85 26.38 217.87 25.4 220.72 25.4 225.45 32.81 225.45 26.38 224.47 25.4 227.52 25.4 226.54 26.38 226.54 26.38"/><path class="cls-4" d="M753.44,492.6v4.5a5.87,5.87,0,1,1-3.35-10.87,6,6,0,0,1,2.86.66v2.35l-1.56-1.56a1.7,1.7,0,0,0-1.3-.55c-2.19,0-3.47,2.59-3.47,5s1.29,5,3.47,5a2.36,2.36,0,0,0,1.61-.56V492.6l-1-1h3.7l-1,1Z" transform="translate(-515 -461)"/><polygon class="cls-4" points="245.66 36.78 246.64 35.8 246.64 26.38 245.66 25.4 252.8 25.4 252.8 27.63 251.5 26.33 248.38 26.33 248.38 30.22 250.62 30.22 251.6 29.24 251.6 32.14 250.62 31.15 248.38 31.15 248.38 35.85 251.5 35.85 252.8 34.55 252.8 36.78 245.66 36.78 245.66 36.78"/><path class="cls-4" d="M774,487.33h-1.54v9.52H774c2.19,0,3.15-2.2,3.15-4.76s-1-4.76-3.15-4.76Zm0,10.46h-4.26l1-1v-9.43l-1-1H774c3.52,0,5.21,2.78,5.21,5.69s-1.69,5.69-5.21,5.69Z" transform="translate(-515 -461)"/><path class="cls-4" d="M789.71,487.38v7.21a3.78,3.78,0,0,1-7.53,0v-7.21l-1-1h3.7l-1,1v7.21a2.35,2.35,0,1,0,4.7,0v-7.21l-1-1h3.06l-1,1Z" transform="translate(-515 -461)"/><path class="cls-4" d="M797.52,497.95c-2.94,0-4.84-2.88-4.84-5.86s1.95-5.86,4.84-5.86a5.75,5.75,0,0,1,2.88.68v2.33l-1.56-1.56a1.68,1.68,0,0,0-1.32-.55c-2.17,0-2.75,2.73-2.75,5s.66,5,2.75,5a1.68,1.68,0,0,0,1.32-.55l1.56-1.56v2.35a5,5,0,0,1-2.88.66Z" transform="translate(-515 -461)"/><path class="cls-4" d="M806.21,489l-1.59,4.63h3.1L806.21,489Zm1.59,8.78,1-1-.72-2.25h-3.75l-.76,2.25,1,1h-3.06l1-1,3.62-10.39h1.06l3.54,10.39,1,1Z" transform="translate(-515 -461)"/><polygon class="cls-4" points="304.49 26.33 302.58 26.33 302.58 35.8 303.56 36.78 299.86 36.78 300.84 35.8 300.84 26.33 298.92 26.33 297.62 27.63 297.62 25.4 305.79 25.4 305.79 27.63 304.49 26.33 304.49 26.33"/><polygon class="cls-4" points="307.64 36.78 308.62 35.8 308.62 26.38 307.64 25.4 311.34 25.4 310.36 26.38 310.36 35.8 311.34 36.78 307.64 36.78 307.64 36.78"/><path class="cls-4" d="M833.46,487.09c-2.17,0-2.8,2.75-2.8,5s.63,5,2.8,5,2.8-2.75,2.8-5-.63-5-2.8-5Zm0,10.94c-3,0-4.89-3-4.89-5.94s1.88-5.94,4.89-5.94,4.89,3,4.89,5.94-1.88,5.94-4.89,5.94Z" transform="translate(-515 -461)"/><polygon class="cls-4" points="334.1 26.38 334.1 37.72 327.5 27.47 327.5 35.8 328.48 36.78 325.43 36.78 326.41 35.8 326.41 26.38 325.43 25.4 328.27 25.4 333 32.81 333 26.38 332.02 25.4 335.08 25.4 334.1 26.38 334.1 26.38"/></svg>