<?xml version="1.0" encoding="utf-8"?>
<!-- Generator: Adobe Illustrator 19.0.0, SVG Export Plug-In . SVG Version: 6.00 Build 0)  -->
<svg version="1.1"
	 id="svg2" xmlns:cc="http://creativecommons.org/ns#" xmlns:dc="http://purl.org/dc/elements/1.1/" xmlns:rdf="http://www.w3.org/1999/02/22-rdf-syntax-ns#" xmlns:svg="http://www.w3.org/2000/svg"
	 xmlns="http://www.w3.org/2000/svg" xmlns:xlink="http://www.w3.org/1999/xlink" x="0px" y="0px" viewBox="33 78.5 293.5 70.2"
	 style="enable-background:new 33 78.5 293.5 70.2;" xml:space="preserve">
<style type="text/css">
	.st0{fill:#FFFFFF;}
	.st1{fill:#3AAE9B;}
	.st2{fill:#25B4A9;}
</style>
<path id="path14" class="st0" d="M71.4,119.4h6V87.4h-6V119.4z"/>
<path id="path16" class="st0" d="M101.1,119.4h-5.9V106c0-3.1-2.1-4.5-4.4-4.5c-2.2,0-4.4,1.3-4.4,4.5v13.4h-5.9v-23h5.9v2
	c1-1.6,3.3-2.6,5.4-2.6c4.7,0,9.2,3.2,9.2,10V119.4"/>
<path id="path18" class="st0" d="M116,114.1v5.3h-5.7c-4.1,0-5.9-2.2-5.9-5.9V91.2h5.9v5.2h5.7v5.3h-5.7v10.6c0,1.1,0.3,1.8,1.7,1.8
	H116"/>
<path id="path20" class="st0" d="M123.7,104.6L123.7,104.6l8.7,0v0c-0.2-2.4-1.7-3.9-4.3-3.9C125.5,100.7,124,102.2,123.7,104.6z
	 M123.7,109.5v0.1c0,2.7,1.6,4.5,4.4,4.5c2,0,3.5-1,4.1-2.5h6c-0.9,4.8-4.4,7.8-10,7.8c-6.6,0-10.2-4.2-10.2-10.6v-2.9
	c0-6.4,3.7-10.6,10.2-10.6s10.2,4.2,10.2,10.6v3.6H123.7"/>
<path id="path22" class="st0" d="M147.6,119.4h-5.9v-23h5.9v2.5c0.7-1.5,2.6-2.9,5.3-2.9h1.8v5.7H152c-2.2,0-4.4,1.3-4.4,4.5V119.4"
	/>
<path id="path24" class="st0" d="M157.6,109.1h6.1c0.4,2.6,2.4,4.4,5.4,4.4c2.6,0,4.5-1,4.5-3.1c0-1.7-1-2.7-3.2-3.3l-5.3-1.4
	c-4.8-1.3-7.1-4.6-7.1-9.2c0-6.2,4.9-9.1,10.3-9.1c6.2,0,10.1,3.7,10.8,9h-6.1c-0.5-2.1-2.7-3-4.7-3c-2.5,0-4.3,1-4.3,3.2
	c0,1.8,1.4,2.6,3.1,3.1l5.1,1.4c4.8,1.3,7.4,4.2,7.4,9.5c0,5.6-3.7,9-10.4,9C162.3,119.4,157.9,115.3,157.6,109.1"/>
<path id="path26" class="st0" d="M193.8,121.5c-1.2,3.5-1.6,6-5.7,6h-4.4v-5.3h2.4c1.1,0,1.4-0.5,1.6-1l0.7-1.9l-8.2-23h6.2
	l5.1,14.7l5.1-14.7h6.2L193.8,121.5"/>
<path id="path28" class="st0" d="M202.3,111.6h5.9c0.3,1.8,2.4,2.6,4.3,2.6c1.2,0,2.9-0.3,2.9-1.8c0-0.9-0.7-1.5-2-1.8l-4.8-1.1
	c-2.5-0.6-5.7-2.5-5.7-7s4.1-7.1,8.8-7.1c4.7,0,8.5,2.2,8.9,7.4h-6c-0.3-1.5-1.6-2.1-3.1-2.1c-1.7,0-2.7,0.7-2.7,1.7
	c0,1,0.8,1.5,1.8,1.7l5.2,1.2c2.5,0.6,5.6,2.3,5.6,7.1c0,5.1-4.1,7.1-9,7.1C207.5,119.4,202.5,117,202.3,111.6"/>
<path id="path30" class="st0" d="M243.1,104.6L243.1,104.6l8.7,0v0c-0.2-2.4-1.7-3.9-4.3-3.9C244.8,100.7,243.3,102.2,243.1,104.6z
	 M243.1,109.5v0.1c0,2.7,1.6,4.5,4.4,4.5c2.1,0,3.5-1,4.1-2.5h6c-0.9,4.8-4.4,7.8-10,7.8c-6.6,0-10.2-4.2-10.2-10.6v-2.9
	c0-6.4,3.7-10.6,10.2-10.6s10.2,4.2,10.2,10.6v3.6H243.1"/>
<path id="path32" class="st0" d="M281.3,119.4h-5.9V106c0-3.1-2.1-4.5-4.2-4.5S267,103,267,106v13.4h-5.9v-23h5.9v1.9
	c1.1-1.6,3.2-2.5,5.2-2.5c2.4,0,4.6,0.9,6.2,3c1.6-2,4-3,7.2-3c5.8,0,10.1,3.3,10.1,10v13.6h-5.9V106c0-3.1-2.1-4.5-4.2-4.5
	s-4.2,1.4-4.2,4.5V119.4"/>
<path id="path34" class="st0" d="M297.9,111.6h5.9c0.3,1.8,2.4,2.6,4.3,2.6c1.2,0,2.9-0.3,2.9-1.8c0-0.9-0.7-1.5-2-1.8l-4.8-1.1
	c-2.5-0.6-5.7-2.5-5.7-7s4.1-7.1,8.8-7.1c4.7,0,8.5,2.2,8.9,7.4h-6c-0.3-1.5-1.6-2.1-3.1-2.1c-1.7,0-2.7,0.7-2.7,1.7
	c0,1,0.8,1.5,1.8,1.7l5.2,1.2c2.5,0.6,5.6,2.3,5.6,7.1c0,5.1-4.1,7.1-9,7.1C303.1,119.4,298.1,117,297.9,111.6"/>
<path id="path36" class="st0" d="M234.7,114.1v5.3H229c-4.1,0-5.9-2.2-5.9-5.9V91.2h5.9v5.2h5.7v5.3H229v10.6c0,1.1,0.3,1.8,1.7,1.8
	H234.7"/>
<path id="path38" class="st0" d="M78.1,131.4h2.3v11.9h-2.3v-4.9h-4.4v4.9h-2.3v-11.9h2.3v4.8h4.4V131.4"/>
<path id="path40" class="st0" d="M84.7,137.8L84.7,137.8l3.3,0v0c-0.1-0.9-0.6-1.5-1.7-1.5C85.4,136.3,84.8,136.9,84.7,137.8z
	 M84.7,139.7L84.7,139.7c0,1.1,0.6,1.8,1.7,1.8c0.8,0,1.3-0.4,1.6-1h2.3c-0.4,1.8-1.7,3-3.8,3c-2.5,0-3.9-1.6-3.9-4v-1.1
	c0-2.4,1.4-4,3.9-4c2.5,0,3.9,1.6,3.9,4v1.4H84.7"/>
<path id="path42" class="st0" d="M94.2,140.6c0,0.4,0.3,0.9,1.3,0.9c1.2,0,2.1-0.6,2.1-1.8v-0.3c-1.3,0.1-2.5,0.2-2.9,0.4
	C94.3,140.1,94.2,140.3,94.2,140.6z M97.6,137.6c-0.2-0.8-0.7-1.3-1.6-1.3c-0.8,0-1.3,0.4-1.6,1h-2.3c0.4-1.8,1.7-3,3.8-3
	c2.5,0,3.9,1.6,3.9,4v5h-2.3v-1c-0.4,0.7-1.1,1.2-2.5,1.2c-2,0-3.2-1-3.2-2.6c0-1.3,0.4-2,1.7-2.6C94.5,137.8,96.3,137.7,97.6,137.6
	L97.6,137.6"/>
<path id="path44" class="st0" d="M105.4,141.3v2h-1.1c-1.6,0-2.3-0.8-2.3-2.3v-9.7h2.3v9.2c0,0.4,0.1,0.7,0.6,0.7H105.4"/>
<path id="path46" class="st0" d="M111.9,141.3v2h-2.2c-1.6,0-2.3-0.8-2.3-2.3v-4.5h-1.2v-2h1.2v-2h2.3v2h2.2v2h-2.2v4
	c0,0.4,0.1,0.7,0.6,0.7H111.9"/>
<path id="path48" class="st0" d="M121.5,143.3h-2.3v-5.1c0-1.2-0.8-1.7-1.7-1.7c-0.9,0-1.7,0.5-1.7,1.7v5.1h-2.3v-11.9h2.3v3.9
	c0.4-0.6,1.3-1,2.1-1c1.8,0,3.5,1.2,3.5,3.8V143.3"/>
<path id="path50" class="st0" d="M142.8,141c0.9,0,1.4-0.5,1.4-1.3c0-0.9-0.6-1.3-1.4-1.3h-3v2.6C139.8,141,142.8,141,142.8,141z
	 M142.5,133.6h-2.7v2.5h2.7c0.9,0,1.4-0.4,1.4-1.3C144,134,143.4,133.6,142.5,133.6z M137.5,131.3h4.9c2.4,0,3.8,1.4,3.8,3.4
	c0,1-0.4,1.9-1.1,2.4c0.8,0.6,1.4,1.6,1.4,2.6c0,2.1-1.3,3.5-3.8,3.5h-5.2V131.3"/>
<path id="path52" class="st0" d="M153.7,139.5v-5.1h2.3v8.8h-2.3v-1c-0.4,0.6-1.1,1.1-2.1,1.1c-1.6,0-3.4-1.2-3.4-3.8v-5.2h2.3v5.1
	c0,1.2,0.8,1.7,1.6,1.7C152.9,141.2,153.7,140.7,153.7,139.5"/>
<path id="path54" class="st0" d="M157.7,140.4h2.3c0.1,0.7,0.9,1,1.6,1c0.4,0,1.1-0.1,1.1-0.7c0-0.4-0.3-0.6-0.8-0.7l-1.8-0.4
	c-1-0.2-2.2-1-2.2-2.7c0-1.7,1.6-2.7,3.4-2.7c1.8,0,3.3,0.9,3.4,2.9h-2.3c-0.1-0.6-0.6-0.8-1.2-0.8c-0.6,0-1,0.3-1,0.7
	c0,0.4,0.3,0.6,0.7,0.6l2,0.4c1,0.2,2.1,0.9,2.1,2.7c0,2-1.6,2.7-3.4,2.7C159.7,143.4,157.7,142.5,157.7,140.4"/>
<path id="path56" class="st0" d="M168.9,143.2h-2.3v-8.8h2.3V143.2z M168.9,133.3h-2.3v-2h2.3V133.3"/>
<path id="path58" class="st0" d="M179,143.2h-2.3v-5.1c0-1.2-0.8-1.7-1.7-1.7c-0.9,0-1.7,0.5-1.7,1.7v5.1h-2.3v-8.8h2.3v0.8
	c0.4-0.6,1.3-1,2.1-1c1.8,0,3.5,1.2,3.5,3.8V143.2"/>
<path id="path60" class="st0" d="M183.2,137.7L183.2,137.7l3.3,0v0c-0.1-0.9-0.6-1.5-1.7-1.5C183.9,136.2,183.3,136.8,183.2,137.7z
	 M183.2,139.6L183.2,139.6c0,1.1,0.6,1.8,1.7,1.8c0.8,0,1.3-0.4,1.6-1h2.3c-0.4,1.8-1.7,3-3.8,3c-2.5,0-3.9-1.6-3.9-4v-1.1
	c0-2.4,1.4-4,3.9-4c2.5,0,3.9,1.6,3.9,4v1.4H183.2"/>
<path id="path62" class="st0" d="M190.2,140.4h2.3c0.1,0.7,0.9,1,1.6,1c0.4,0,1.1-0.1,1.1-0.7c0-0.4-0.3-0.6-0.8-0.7l-1.8-0.4
	c-1-0.2-2.2-1-2.2-2.7c0-1.7,1.6-2.7,3.4-2.7c1.8,0,3.3,0.9,3.4,2.9h-2.3c-0.1-0.6-0.6-0.8-1.2-0.8c-0.6,0-1,0.3-1,0.7
	c0,0.4,0.3,0.6,0.7,0.6l2,0.4c1,0.2,2.1,0.9,2.1,2.7c0,2-1.6,2.7-3.4,2.7C192.2,143.4,190.3,142.5,190.2,140.4"/>
<path id="path64" class="st0" d="M198.4,140.4h2.3c0.1,0.7,0.9,1,1.6,1c0.4,0,1.1-0.1,1.1-0.7c0-0.4-0.3-0.6-0.8-0.7l-1.8-0.4
	c-1-0.2-2.2-1-2.2-2.7c0-1.7,1.6-2.7,3.4-2.7c1.8,0,3.3,0.9,3.4,2.9h-2.3c-0.1-0.6-0.6-0.8-1.2-0.8c-0.6,0-1,0.3-1,0.7
	c0,0.4,0.3,0.6,0.7,0.6l2,0.4c1,0.2,2.1,0.9,2.1,2.7c0,2-1.6,2.7-3.4,2.7C200.4,143.4,198.5,142.5,198.4,140.4"/>
<path id="path66" class="st0" d="M226.4,136.5h4.5v2.6c0,2.6-1.6,4.4-4.5,4.4c-2.9,0-4.5-1.8-4.5-4.4v-3.4c0-2.6,1.6-4.4,4.5-4.4
	c2.7,0,4.3,1.6,4.5,3.9h-2.3c-0.2-1.1-1.1-1.7-2.2-1.7c-1.2,0-2.2,0.8-2.2,2.2v3.4c0,1.4,1,2.2,2.2,2.2c1.2,0,2.2-0.8,2.2-2.2v-0.3
	h-2.2L226.4,136.5"/>
<path id="path68" class="st0" d="M238.2,138c0-1-0.6-1.7-1.7-1.7s-1.7,0.7-1.7,1.7v1.7c0,1,0.6,1.7,1.7,1.7s1.7-0.7,1.7-1.7V138z
	 M232.6,138.3c0-2.4,1.4-4,3.9-4c2.5,0,3.9,1.6,3.9,4v1.1c0,2.4-1.4,4-3.9,4c-2.5,0-3.9-1.6-3.9-4V138.3"/>
<path id="path70" class="st0" d="M247.6,134.5h2.4l-3.2,8.8h-2.3l-3.2-8.8h2.4l2,5.6L247.6,134.5"/>
<path id="path72" class="st0" d="M253,137.8L253,137.8l3.3,0v0c-0.1-0.9-0.6-1.5-1.7-1.5C253.6,136.3,253.1,136.9,253,137.8z
	 M253,139.7L253,139.7c0,1.1,0.6,1.8,1.7,1.8c0.8,0,1.3-0.4,1.6-1h2.3c-0.4,1.8-1.7,3-3.8,3c-2.5,0-3.9-1.6-3.9-4v-1.1
	c0-2.4,1.4-4,3.9-4c2.5,0,3.9,1.6,3.9,4v1.4H253"/>
<path id="path74" class="st0" d="M262.8,143.3h-2.3v-8.8h2.3v1c0.3-0.6,1-1.1,2-1.1h0.7v2.2h-1.1c-0.9,0-1.7,0.5-1.7,1.7V143.3"/>
<path id="path76" class="st0" d="M274.9,143.3h-2.3v-5.1c0-1.2-0.8-1.7-1.7-1.7c-0.9,0-1.7,0.5-1.7,1.7v5.1H267v-8.8h2.3v0.8
	c0.4-0.6,1.3-1,2.1-1c1.8,0,3.5,1.2,3.5,3.8V143.3"/>
<path id="path78" class="st0" d="M284.8,143.3h-2.3v-5.1c0-1.2-0.8-1.7-1.6-1.7s-1.6,0.5-1.6,1.7v5.1H277v-8.8h2.3v0.7
	c0.4-0.6,1.2-1,2-1c0.9,0,1.8,0.3,2.4,1.2c0.6-0.8,1.5-1.2,2.7-1.2c2.2,0,3.9,1.2,3.9,3.8v5.2H288v-5.1c0-1.2-0.8-1.7-1.6-1.7
	s-1.6,0.5-1.6,1.7V143.3"/>
<path id="path80" class="st0" d="M294.4,137.8L294.4,137.8l3.3,0v0c-0.1-0.9-0.6-1.5-1.7-1.5C295.1,136.3,294.5,136.9,294.4,137.8
	L294.4,137.8z M294.4,139.7L294.4,139.7c0,1.1,0.6,1.8,1.7,1.8c0.8,0,1.3-0.4,1.6-1h2.3c-0.4,1.8-1.7,3-3.8,3c-2.5,0-3.9-1.6-3.9-4
	v-1.1c0-2.4,1.4-4,3.9-4c2.5,0,3.9,1.6,3.9,4v1.4H294.4"/>
<path id="path82" class="st0" d="M309.9,143.3h-2.3v-5.1c0-1.2-0.8-1.7-1.7-1.7c-0.9,0-1.7,0.5-1.7,1.7v5.1H302v-8.8h2.3v0.8
	c0.4-0.6,1.3-1,2.1-1c1.8,0,3.5,1.2,3.5,3.8L309.9,143.3"/>
<path id="path84" class="st0" d="M316.7,141.3v2h-2.2c-1.6,0-2.3-0.8-2.3-2.3v-4.5h-1.2v-2h1.2v-2h2.3v2h2.2v2h-2.2v4
	c0,0.4,0.1,0.7,0.6,0.7H316.7"/>
<path id="path86" class="st1" d="M128.4,143.3h2.2v-11.9h-2.2V143.3z"/>
<path id="path88" class="st2" d="M212.6,143.3h2.2v-11.9h-2.2V143.3z"/>
<path id="path90" class="st0" d="M322.1,97.5h1c0.4,0,0.6,0.2,0.6,0.5c0,0.4-0.2,0.5-0.6,0.5h-1V97.5z M324.6,101.1l-1.1-1.8
	c0.6-0.1,0.9-0.5,0.9-1.2c0-0.8-0.5-1.2-1.3-1.2h-1.7v4.3h0.7v-1.8h0.7l1.1,1.8H324.6z M322.8,102c1.7,0,3-1.3,3-3c0-1.7-1.3-3-3-3
	s-3,1.3-3,3C319.8,100.7,321.1,102,322.8,102z M322.8,95.3c2,0,3.7,1.6,3.7,3.7c0,2-1.6,3.7-3.7,3.7s-3.7-1.6-3.7-3.7
	C319.1,97,320.8,95.3,322.8,95.3"/>
<path id="path92" class="st0" d="M41.8,88.4L33,84v56l17.6,8.8v-9.9l-8.8-4.4V88.4"/>
<path id="path94" class="st2" d="M50.6,138.9l8.8,4.4v-56l-17.6-8.8v9.9l8.8,4.4V138.9"/>
</svg>
