<?xml version="1.0" encoding="utf-8"?>
<!-- Generator: Adobe Illustrator 21.0.0, SVG Export Plug-In . SVG Version: 6.00 Build 0)  -->
<svg version="1.1" id="Layer_1" xmlns="http://www.w3.org/2000/svg" xmlns:xlink="http://www.w3.org/1999/xlink" x="0px" y="0px"
	 viewBox="0 0 690 290" style="enable-background:new 0 0 690 290;" xml:space="preserve">
<style type="text/css">
	.st0{clip-path:url(#SVGID_1_);fill:#E58524;}
	.st1{clip-path:url(#SVGID_1_);fill:#1F221D;}
	.st2{clip-path:url(#SVGID_1_);fill:#009FE1;}
</style>
<g>
	<defs>
		<rect id="SVGID_3_" x="5.5" y="3.3" width="679" height="283.4"/>
	</defs>
	<clipPath id="SVGID_1_">
		<use xlink:href="#SVGID_3_"  style="overflow:visible;"/>
	</clipPath>
	<path class="st0" d="M516.9,86h-15.4c-5.8,0-10.5,4.7-10.5,10.5v110.7c0,7,5.7,12.8,12.8,12.8h13.1V86z"/>
	<path class="st0" d="M516.9,48.6h-15.4c-5.8,0-10.5,4.7-10.5,10.5v8.4c0,7,5.7,12.8,12.8,12.8h13.1V48.6z"/>
	<path class="st0" d="M545.9,86c-5.8,0-10.5,4.7-10.5,10.5v86.3c0,7,5.7,12.7,12.8,12.7H679v-15.6c-0.2-5.6-4.8-10.1-10.5-10.1
		H561.2v-58h107.3c5.7,0,10.3-4.6,10.5-10.3h0V86H545.9z"/>
	<path class="st0" d="M465,85.5H342.3c-5.8,0-10.1,5.1-10.1,10.9v31.1h-134v-16h107.1c5.8,0,10.9-4.5,10.9-10.3V85.5H182.6
		c-5.8,0-10.4,5.1-10.4,10.9v86.3c0,7,5.7,12.8,12.7,12.8h131.3v-15.3c0-5.8-5.2-10.7-10.9-10.7H198.2v-16h134v53.6
		c0,7,5,12.4,12,12.4h13v-66H465c5.8,0,10.2-4.6,10.2-10.4V96.4C475.2,90.6,470.8,85.5,465,85.5 M449.2,127.5h-92v-16h92V127.5z"/>
	<rect x="177.9" y="230.5" class="st1" width="4.7" height="44.7"/>
	<path class="st1" d="M207.5,271.8c4.3,0,7.4-1.8,10-4.5l2.9,2.6c-3.2,3.5-7,5.9-13,5.9c-8.7,0-15.8-6.7-15.8-16.5
		c0-9.2,6.4-16.5,15.2-16.5c9.4,0,14.8,7.5,14.8,16.8c0,0.4,0,0.9-0.1,1.5h-25.1C197,268,201.9,271.8,207.5,271.8 M216.7,257.6
		c-0.5-5.8-3.8-10.8-10.1-10.8c-5.5,0-9.7,4.6-10.3,10.8H216.7z"/>
	<path class="st1" d="M231.6,249.6l-1.4-3.9c3.5-1.6,6.9-2.6,11.5-2.6c8.6,0,13.5,4.4,13.5,12.7v19.3h-4.5v-4.8
		c-2.2,2.9-5.9,5.5-11.4,5.5c-5.9,0-11.8-3.3-11.8-9.9c0-6.7,5.5-10.3,13.5-10.3c4,0,6.9,0.6,9.7,1.3v-1.1c0-5.7-3.5-8.6-9.4-8.6
		C237.5,247.3,234.6,248.3,231.6,249.6 M232.2,265.8c0,4,3.7,6.4,8,6.4c5.8,0,10.6-3.6,10.6-8.6v-3.1c-2.3-0.7-5.4-1.3-9.3-1.3
		C235.5,259.1,232.2,261.7,232.2,265.8"/>
	<path class="st1" d="M269.9,275.2h-4.7v-31.6h4.7v8.3c2.3-5.3,6.9-9.1,12.9-8.8v5.1h-0.4c-6.9,0-12.6,5-12.6,14.5V275.2z"/>
	<path class="st1" d="M294.7,275.2H290v-31.6h4.7v5.5c2.1-3.4,5.4-6.2,10.8-6.2c7.7,0,12.1,5.1,12.1,12.7v19.7H313v-18.5
		c0-5.9-3.2-9.5-8.8-9.5c-5.4,0-9.5,4-9.5,9.9V275.2z"/>
	<path class="st1" d="M327.8,231.4h5.4v5.2h-5.4V231.4z M328.2,243.5h4.7v31.6h-4.7V243.5z"/>
	<path class="st1" d="M348.5,275.2h-4.7v-31.6h4.7v5.5c2.1-3.4,5.4-6.2,10.8-6.2c7.7,0,12.1,5.1,12.1,12.7v19.7h-4.7v-18.5
		c0-5.9-3.2-9.5-8.8-9.5c-5.4,0-9.5,4-9.5,9.9V275.2z"/>
	<path class="st1" d="M395.6,285.1c-5.3,0-10.2-1.5-14.4-4.4l2.1-3.7c3.6,2.6,7.7,4,12.2,4c7,0,11.5-3.9,11.5-11.3v-3.7
		c-2.8,3.7-6.6,6.7-12.4,6.7c-7.6,0-14.9-5.6-14.9-14.9c0-9.3,7.3-15,14.9-15c5.9,0,9.8,2.9,12.4,6.4v-5.7h4.7v26.1
		C411.7,279.9,405.3,285.1,395.6,285.1 M395.5,247c-6,0-11,4.1-11,10.7c0,6.5,5.1,10.8,11,10.8c6,0,11.6-4.3,11.6-10.8
		C407.1,251.3,401.5,247,395.5,247"/>
	<path class="st1" d="M445.3,275.2h-4.7v-31.6h4.7v5.5c2.1-3.4,5.4-6.2,10.8-6.2c7.7,0,12.1,5.1,12.1,12.7v19.7h-4.7v-18.5
		c0-5.9-3.2-9.5-8.8-9.5c-5.4,0-9.5,4-9.5,9.9V275.2z"/>
	<path class="st1" d="M492.2,271.8c4.3,0,7.4-1.8,10-4.5l2.9,2.6c-3.2,3.5-7,5.9-13,5.9c-8.7,0-15.8-6.7-15.8-16.5
		c0-9.2,6.4-16.5,15.2-16.5c9.4,0,14.8,7.5,14.8,16.8c0,0.4,0,0.9-0.1,1.5h-25.1C481.8,268,486.7,271.8,492.2,271.8 M501.5,257.6
		c-0.5-5.8-3.8-10.8-10.1-10.8c-5.5,0-9.7,4.6-10.3,10.8H501.5z"/>
	<path class="st1" d="M520.9,266.2c0,3.9,2.1,5.3,5.3,5.3c1.6,0,2.9-0.3,4.6-1.1v4c-1.7,0.9-3.4,1.3-5.7,1.3c-5.1,0-8.9-2.5-8.9-8.9
		v-19.1h-4.4v-4.2h4.4V234h4.7v9.6h10v4.2h-10V266.2z"/>
	<polygon class="st1" points="570.9,268.9 579.2,243.5 584.1,243.5 573,275.4 568.9,275.4 560.4,250.5 551.8,275.4 547.6,275.4 
		536.5,243.5 541.6,243.5 549.9,268.9 558.4,243.4 562.3,243.4 	"/>
	<path class="st1" d="M604.9,275.9c-9.5,0-16.4-7.5-16.4-16.5c0-9,7-16.6,16.5-16.6c9.5,0,16.5,7.5,16.5,16.5
		C621.5,268.3,614.4,275.9,604.9,275.9 M604.9,247c-6.9,0-11.6,5.4-11.6,12.3c0,6.9,5,12.4,11.7,12.4c6.9,0,11.6-5.4,11.6-12.2
		C616.6,252.5,611.5,247,604.9,247"/>
	<path class="st1" d="M634.7,275.2H630v-31.6h4.7v8.3c2.3-5.3,6.9-9.1,12.9-8.8v5.1h-0.4c-6.9,0-12.5,5-12.5,14.5V275.2z"/>
	<polygon class="st1" points="682.9,275.2 677.2,275.2 665.9,260.4 659.5,266.9 659.5,275.2 654.8,275.2 654.8,230.5 659.5,230.5 
		659.5,261.4 676.6,243.5 682.4,243.5 669.1,257.1 	"/>
	<path class="st2" d="M67.4,145.2l-28.3,17.2L8.9,180.8c18.9,54.7,75.3,94.5,142.3,94.5V212C106.2,212,70.1,182.4,67.4,145.2"/>
	<path class="st2" d="M8.9,100.7l30.2,18.4l28.3,17.2c2.7-37.2,38.8-66.8,83.8-66.8V6.2C84.2,6.2,27.8,46,8.9,100.7"/>
	<polygon class="st2" points="115.8,162.4 151.3,184 151.3,140.7 151.3,97.5 115.8,119.1 80.2,140.7 	"/>
</g>
</svg>
