<?xml version="1.0" encoding="utf-8"?>
<!-- Generator: Adobe Illustrator 19.0.0, SVG Export Plug-In . SVG Version: 6.00 Build 0)  -->
<svg version="1.1" id="Layer_1" xmlns="http://www.w3.org/2000/svg" xmlns:xlink="http://www.w3.org/1999/xlink" x="0px" y="0px"
	 viewBox="0 0 283.5 65.2" style="enable-background:new 0 0 283.5 65.2;" xml:space="preserve">
<style type="text/css">
	.st0{fill:#FFFFFF;}
</style>
<g id="XMLID_3_">
	<path id="XMLID_202_" class="st0" d="M112.9,15.5c0,0.2-0.2,0.4-0.4,0.4H95.1c-0.2,0-0.4-0.2-0.4-0.4v-0.2c0-0.2,0.2-0.4,0.4-0.4
		h17.4c0.2,0,0.4,0.2,0.4,0.4V15.5z"/>
	<path id="XMLID_199_" class="st0" d="M18.2,15.5c0,0.2-0.2,0.4-0.4,0.4H0.4c-0.2,0-0.4-0.2-0.4-0.4v-0.2c0-0.2,0.2-0.4,0.4-0.4
		h17.4c0.2,0,0.4,0.2,0.4,0.4V15.5z"/>
	<path id="XMLID_195_" class="st0" d="M112.9,64.3c0,0.2-0.2,0.4-0.4,0.4H95.1c-0.2,0-0.4-0.2-0.4-0.4v-0.6c0-0.2,0.2-0.4,0.4-0.4
		h17.4c0.2,0,0.4,0.2,0.4,0.4V64.3z"/>
	<path id="XMLID_192_" class="st0" d="M83.8,5.7c0,0.2-0.2,0.4-0.4,0.4H62.3c-0.2,0-0.4-0.2-0.4-0.4V5.3c0-0.2,0.2-0.4,0.4-0.4h21.1
		c0.2,0,0.4,0.2,0.4,0.4V5.7z"/>
	<path id="XMLID_187_" class="st0" d="M100.2,10.7c0,0.2-0.2,0.4-0.4,0.4H78.7c-0.2,0-0.4-0.2-0.4-0.4v-0.4c0-0.2,0.2-0.4,0.4-0.4
		h21.1c0.2,0,0.4,0.2,0.4,0.4V10.7z"/>
	<path id="XMLID_175_" class="st0" d="M83.8,54.5c0,0.2-0.2,0.4-0.4,0.4H62.3c-0.2,0-0.4-0.2-0.4-0.4v-0.4c0-0.2,0.2-0.4,0.4-0.4
		h21.1c0.2,0,0.4,0.2,0.4,0.4V54.5z"/>
	<path id="XMLID_167_" class="st0" d="M100.2,59.3c0,0.2-0.2,0.4-0.4,0.4H78.7c-0.2,0-0.4-0.2-0.4-0.4v-0.4c0-0.2,0.2-0.4,0.4-0.4
		h21.1c0.2,0,0.4,0.2,0.4,0.4V59.3z"/>
	<path id="XMLID_159_" class="st0" d="M67.4,0.7c0,0.2-0.1,0.3-0.3,0.3H45.8c-0.2,0-0.3-0.1-0.3-0.3V0.6c0-0.2,0.1-0.3,0.3-0.3h21.2
		c0.2,0,0.3,0.1,0.3,0.3V0.7z"/>
	<path id="XMLID_155_" class="st0" d="M67.4,49.7c0,0.2-0.2,0.4-0.4,0.4H45.9c-0.2,0-0.4-0.2-0.4-0.4v-0.6c0-0.2,0.2-0.4,0.4-0.4H67
		c0.2,0,0.4,0.2,0.4,0.4V49.7z"/>
	<path id="XMLID_152_" class="st0" d="M0,25.4c0,0.2,0.2,0.4,0.4,0.4h17.4c0.2,0,0.4-0.2,0.4-0.4v-0.7c0-0.2-0.2-0.4-0.4-0.4H0.4
		c-0.2,0-0.4,0.2-0.4,0.4V25.4z"/>
	<path id="XMLID_149_" class="st0" d="M94.7,25.4c0,0.2,0.2,0.4,0.4,0.4h17.4c0.2,0,0.4-0.2,0.4-0.4v-0.7c0-0.2-0.2-0.4-0.4-0.4
		H95.1c-0.2,0-0.4,0.2-0.4,0.4V25.4z"/>
	<path id="XMLID_143_" class="st0" d="M0,64.3c0,0.2,0.2,0.4,0.4,0.4h17.4c0.2,0,0.4-0.2,0.4-0.4v-0.6c0-0.2-0.2-0.4-0.4-0.4H0.4
		c-0.2,0-0.4,0.2-0.4,0.4V64.3z"/>
	<path id="XMLID_134_" class="st0" d="M29.1,5.7c0,0.2,0.2,0.4,0.4,0.4h21.1c0.2,0,0.4-0.2,0.4-0.4V5.3C51,5.1,50.8,5,50.6,5H29.5
		c-0.2,0-0.4,0.2-0.4,0.4V5.7z"/>
	<path id="XMLID_133_" class="st0" d="M12.7,10.7c0,0.2,0.2,0.4,0.4,0.4h21.1c0.2,0,0.4-0.2,0.4-0.4v-0.4c0-0.2-0.2-0.4-0.4-0.4
		H13.1c-0.2,0-0.4,0.2-0.4,0.4V10.7z"/>
	<path id="XMLID_132_" class="st0" d="M29.1,54.5c0,0.2,0.2,0.4,0.4,0.4h21.1c0.2,0,0.4-0.2,0.4-0.4v-0.4c0-0.2-0.2-0.4-0.4-0.4
		H29.5c-0.2,0-0.4,0.2-0.4,0.4V54.5z"/>
	<path id="XMLID_105_" class="st0" d="M12.7,59.3c0,0.2,0.2,0.4,0.4,0.4h21.1c0.2,0,0.4-0.2,0.4-0.4v-0.4c0-0.2-0.2-0.4-0.4-0.4
		H13.1c-0.2,0-0.4,0.2-0.4,0.4V59.3z"/>
	<path id="XMLID_104_" class="st0" d="M67.4,11.2c0,0.4-0.3,0.7-0.7,0.7H46.2c-0.4,0-0.7-0.3-0.7-0.7V9.9c0-0.4,0.3-0.7,0.7-0.7
		h20.4c0.4,0,0.7,0.3,0.7,0.7V11.2z"/>
	<path id="XMLID_103_" class="st0" d="M34.6,20.6c0,0.4-0.3,0.7-0.7,0.7H13.4c-0.4,0-0.7-0.3-0.7-0.7v-0.7c0-0.4,0.3-0.7,0.7-0.7
		h20.4c0.4,0,0.7,0.3,0.7,0.7V20.6z"/>
	<path id="XMLID_102_" class="st0" d="M67.4,21.3c0,0.4-0.3,0.7-0.7,0.7H46.2c-0.4,0-0.7-0.3-0.7-0.7v-2.2c0-0.4,0.3-0.7,0.7-0.7
		h20.4c0.4,0,0.7,0.3,0.7,0.7V21.3z"/>
	<path id="XMLID_101_" class="st0" d="M100.2,20.6c0,0.4-0.3,0.7-0.7,0.7H79.1c-0.4,0-0.7-0.3-0.7-0.7v-0.7c0-0.4,0.3-0.7,0.7-0.7
		h20.4c0.4,0,0.7,0.3,0.7,0.7V20.6z"/>
	<path id="XMLID_100_" class="st0" d="M34.6,30.7c0,0.4-0.3,0.7-0.7,0.7H13.4c-0.4,0-0.7-0.3-0.7-0.7v-1.5c0-0.4,0.3-0.7,0.7-0.7
		h20.4c0.4,0,0.7,0.3,0.7,0.7V30.7z"/>
	<path id="XMLID_99_" class="st0" d="M67.4,30.7c0,0.4-0.3,0.7-0.7,0.7H46.2c-0.4,0-0.7-0.3-0.7-0.7v-1.5c0-0.4,0.3-0.7,0.7-0.7
		h20.4c0.4,0,0.7,0.3,0.7,0.7V30.7z"/>
	<path id="XMLID_98_" class="st0" d="M100.2,30.7c0,0.4-0.3,0.7-0.7,0.7H79.1c-0.4,0-0.7-0.3-0.7-0.7v-1.5c0-0.4,0.3-0.7,0.7-0.7
		h20.4c0.4,0,0.7,0.3,0.7,0.7V30.7z"/>
	<path id="XMLID_97_" class="st0" d="M34.6,40.3c0,0.4-0.3,0.7-0.7,0.7H13.4c-0.4,0-0.7-0.3-0.7-0.7V39c0-0.4,0.3-0.7,0.7-0.7h20.4
		c0.4,0,0.7,0.3,0.7,0.7V40.3z"/>
	<path id="XMLID_96_" class="st0" d="M67.4,40.1c0,0.4-0.3,0.7-0.7,0.7H46.2c-0.4,0-0.7-0.3-0.7-0.7v-0.7c0-0.4,0.3-0.7,0.7-0.7
		h20.4c0.4,0,0.7,0.3,0.7,0.7V40.1z"/>
	<path id="XMLID_95_" class="st0" d="M100.2,40.3c0,0.4-0.3,0.7-0.7,0.7H79.1c-0.4,0-0.7-0.3-0.7-0.7V39c0-0.4,0.3-0.7,0.7-0.7h20.4
		c0.4,0,0.7,0.3,0.7,0.7V40.3z"/>
	<path id="XMLID_94_" class="st0" d="M34.6,49.7c0,0.4-0.3,0.7-0.7,0.7H13.4c-0.4,0-0.7-0.3-0.7-0.7v-0.6c0-0.4,0.3-0.7,0.7-0.7
		h20.4c0.4,0,0.7,0.3,0.7,0.7V49.7z"/>
	<path id="XMLID_93_" class="st0" d="M100.2,49.7c0,0.4-0.3,0.7-0.7,0.7H79.1c-0.4,0-0.7-0.3-0.7-0.7v-0.6c0-0.4,0.3-0.7,0.7-0.7
		h20.4c0.4,0,0.7,0.3,0.7,0.7V49.7z"/>
	<path id="XMLID_92_" class="st0" d="M51,16.2c0,0.4-0.3,0.7-0.7,0.7H29.8c-0.4,0-0.7-0.3-0.7-0.7v-1.6c0-0.4,0.3-0.7,0.7-0.7h20.4
		c0.4,0,0.7,0.3,0.7,0.7V16.2z"/>
	<path id="XMLID_91_" class="st0" d="M83.8,16.2c0,0.4-0.3,0.7-0.7,0.7H62.6c-0.4,0-0.7-0.3-0.7-0.7v-1.6c0-0.4,0.3-0.7,0.7-0.7H83
		c0.4,0,0.7,0.3,0.7,0.7V16.2z"/>
	<path id="XMLID_90_" class="st0" d="M51,26c0,0.4-0.3,0.7-0.7,0.7H29.8c-0.4,0-0.7-0.3-0.7-0.7v-1.9c0-0.4,0.3-0.7,0.7-0.7h20.4
		c0.4,0,0.7,0.3,0.7,0.7V26z"/>
	<path id="XMLID_89_" class="st0" d="M83.8,26c0,0.4-0.3,0.7-0.7,0.7H62.6c-0.4,0-0.7-0.3-0.7-0.7v-1.9c0-0.4,0.3-0.7,0.7-0.7H83
		c0.4,0,0.7,0.3,0.7,0.7V26z"/>
	<path id="XMLID_88_" class="st0" d="M18.2,34.9c0,0.4-0.3,0.7-0.7,0.7H0.7c-0.4,0-0.7-0.3-0.7-0.7v-0.2C0,34.3,0.3,34,0.7,34h16.7
		c0.4,0,0.7,0.3,0.7,0.7V34.9z"/>
	<path id="XMLID_87_" class="st0" d="M51,35.6c0,0.4-0.3,0.7-0.7,0.7H29.8c-0.4,0-0.7-0.3-0.7-0.7v-1.5c0-0.4,0.3-0.7,0.7-0.7h20.4
		c0.4,0,0.7,0.3,0.7,0.7V35.6z"/>
	<path id="XMLID_86_" class="st0" d="M112.9,34.9c0,0.4-0.3,0.7-0.7,0.7H95.5c-0.4,0-0.7-0.3-0.7-0.7v-0.2c0-0.4,0.3-0.7,0.7-0.7
		h16.7c0.4,0,0.7,0.3,0.7,0.7V34.9z"/>
	<path id="XMLID_85_" class="st0" d="M83.8,35.6c0,0.4-0.3,0.7-0.7,0.7H62.6c-0.4,0-0.7-0.3-0.7-0.7v-1.5c0-0.4,0.3-0.7,0.7-0.7H83
		c0.4,0,0.7,0.3,0.7,0.7V35.6z"/>
	<path id="XMLID_84_" class="st0" d="M18.2,44.8c0,0.4-0.3,0.7-0.7,0.7H0.7c-0.4,0-0.7-0.3-0.7-0.7v-0.6c0-0.4,0.3-0.7,0.7-0.7h16.7
		c0.4,0,0.7,0.3,0.7,0.7V44.8z"/>
	<path id="XMLID_83_" class="st0" d="M51,44.8c0,0.4-0.3,0.7-0.7,0.7H29.8c-0.4,0-0.7-0.3-0.7-0.7v-0.6c0-0.4,0.3-0.7,0.7-0.7h20.4
		c0.4,0,0.7,0.3,0.7,0.7V44.8z"/>
	<path id="XMLID_82_" class="st0" d="M112.9,44.8c0,0.4-0.3,0.7-0.7,0.7H95.5c-0.4,0-0.7-0.3-0.7-0.7v-0.6c0-0.4,0.3-0.7,0.7-0.7
		h16.7c0.4,0,0.7,0.3,0.7,0.7V44.8z"/>
	<path id="XMLID_81_" class="st0" d="M83.8,44.8c0,0.4-0.3,0.7-0.7,0.7H62.6c-0.4,0-0.7-0.3-0.7-0.7v-0.6c0-0.4,0.3-0.7,0.7-0.7H83
		c0.4,0,0.7,0.3,0.7,0.7V44.8z"/>
	<path id="XMLID_80_" class="st0" d="M18.2,54.6c0,0.4-0.3,0.7-0.7,0.7H0.7C0.3,55.3,0,55,0,54.6V54c0-0.4,0.3-0.7,0.7-0.7h16.7
		c0.4,0,0.7,0.3,0.7,0.7V54.6z"/>
	<path id="XMLID_79_" class="st0" d="M112.9,54.6c0,0.4-0.3,0.7-0.7,0.7H95.5c-0.4,0-0.7-0.3-0.7-0.7V54c0-0.4,0.3-0.7,0.7-0.7h16.7
		c0.4,0,0.7,0.3,0.7,0.7V54.6z"/>
	<path id="XMLID_76_" class="st0" d="M135.5,24.4c-0.7,0.8-1.6,1.2-2.7,1.2s-2-0.4-2.7-1.2c-1-1.1-1-2.3-1-4.4c0-2.1,0-3.3,1-4.4
		c0.7-0.8,1.6-1.2,2.7-1.2s2,0.4,2.7,1.2c1,1.1,1,2.3,1,4.4C136.5,22.1,136.5,23.3,135.5,24.4 M134.3,16.6c-0.4-0.4-0.9-0.7-1.5-0.7
		c-0.6,0-1.2,0.3-1.5,0.7c-0.5,0.6-0.6,1.2-0.6,3.4s0.1,2.8,0.6,3.4c0.4,0.4,0.9,0.7,1.5,0.7c0.6,0,1.2-0.3,1.5-0.7
		c0.5-0.6,0.6-1.2,0.6-3.4S134.8,17.2,134.3,16.6"/>
	<path id="XMLID_75_" class="st0" d="M142.3,25.5c-1.6,0-2.7-0.4-3.7-1.4l1.1-1.1c0.8,0.8,1.6,1,2.6,1c1.4,0,2.1-0.6,2.1-1.7
		c0-0.5-0.1-0.9-0.4-1.1c-0.3-0.3-0.5-0.4-1.1-0.5l-1.2-0.2c-0.8-0.1-1.5-0.4-2-0.9c-0.5-0.5-0.8-1.2-0.8-2.1c0-1.9,1.3-3.2,3.5-3.2
		c1.4,0,2.3,0.4,3.2,1.2l-1,1c-0.6-0.6-1.4-0.8-2.3-0.8c-1.2,0-1.9,0.7-1.9,1.7c0,0.4,0.1,0.7,0.4,1c0.3,0.2,0.7,0.4,1.2,0.5
		l1.2,0.2c1,0.2,1.5,0.4,1.9,0.8c0.6,0.5,0.8,1.3,0.8,2.2C146,24.3,144.4,25.5,142.3,25.5"/>
	<polygon id="XMLID_74_" class="st0" points="148.9,25.4 148.9,14.6 150.4,14.6 150.4,24 155.4,24 155.4,25.4 	"/>
	<path id="XMLID_71_" class="st0" d="M163.7,24.4c-0.7,0.8-1.6,1.2-2.7,1.2s-2-0.4-2.7-1.2c-1-1.1-1-2.3-1-4.4c0-2.1,0-3.3,1-4.4
		c0.7-0.8,1.6-1.2,2.7-1.2s2,0.4,2.7,1.2c1,1.1,1,2.3,1,4.4C164.6,22.1,164.7,23.3,163.7,24.4 M162.5,16.6c-0.4-0.4-0.9-0.7-1.5-0.7
		s-1.2,0.3-1.5,0.7c-0.5,0.6-0.6,1.2-0.6,3.4s0.1,2.8,0.6,3.4c0.4,0.4,0.9,0.7,1.5,0.7s1.2-0.3,1.5-0.7c0.5-0.6,0.6-1.2,0.6-3.4
		S163,17.2,162.5,16.6"/>
	<path id="XMLID_68_" class="st0" d="M177.6,25.4l-0.7-2.2h-4.1l-0.7,2.2h-1.7l3.8-10.9h1.3l3.8,10.9H177.6z M174.9,17l-1.6,4.8h3.2
		L174.9,17z"/>
	<polygon id="XMLID_67_" class="st0" points="187.7,25.4 183,17.8 183,25.4 181.4,25.4 181.4,14.6 182.8,14.6 187.6,22.2 
		187.6,14.6 189.2,14.6 189.2,25.4 	"/>
	<path id="XMLID_64_" class="st0" d="M198.9,24.4c-0.7,0.7-1.6,1-2.7,1h-3.6V14.5h3.6c1.1,0,2,0.3,2.7,1c1.1,1.2,1,2.8,1,4.3
		C200,21.5,200,23.2,198.9,24.4 M197.8,16.8c-0.4-0.5-1-0.7-1.8-0.7h-1.9V24h1.9c0.7,0,1.3-0.2,1.8-0.7c0.5-0.6,0.6-1.8,0.6-3.3
		C198.4,18.4,198.4,17.4,197.8,16.8"/>
	<path id="XMLID_61_" class="st0" d="M212.8,25.4l-0.7-2.2H208l-0.7,2.2h-1.7l3.8-10.9h1.3l3.8,10.9H212.8z M210.1,17l-1.6,4.8h3.2
		L210.1,17z"/>
	<polygon id="XMLID_60_" class="st0" points="222.8,25.4 219.9,20.1 218.2,22.3 218.2,25.4 216.6,25.4 216.6,14.6 218.2,14.6 
		218.2,20 222.4,14.6 224.3,14.6 221,18.8 224.7,25.4 	"/>
	<polygon id="XMLID_59_" class="st0" points="226.8,25.4 226.8,14.6 233.4,14.6 233.4,16 228.4,16 228.4,19.2 232.7,19.2 
		232.7,20.7 228.4,20.7 228.4,24 233.4,24 233.4,25.4 	"/>
	<path id="XMLID_56_" class="st0" d="M242,25.4l-2.2-4.6h-2v4.6h-1.6V14.5h4c2,0,3.2,1.3,3.2,3.2c0,1.6-0.9,2.6-2.1,2.9l2.4,4.8H242
		z M240.2,16h-2.3v3.4h2.3c1,0,1.8-0.6,1.8-1.7C242,16.7,241.2,16,240.2,16"/>
	<path id="XMLID_55_" class="st0" d="M249.4,25.5c-1.6,0-2.7-0.4-3.7-1.4l1.1-1.1c0.8,0.8,1.6,1,2.6,1c1.4,0,2.1-0.6,2.1-1.7
		c0-0.5-0.1-0.9-0.4-1.1c-0.3-0.3-0.5-0.4-1.1-0.5l-1.2-0.2c-0.8-0.1-1.5-0.4-2-0.9c-0.5-0.5-0.8-1.2-0.8-2.1c0-1.9,1.3-3.2,3.5-3.2
		c1.4,0,2.3,0.4,3.2,1.2l-1,1c-0.6-0.6-1.4-0.8-2.3-0.8c-1.2,0-1.9,0.7-1.9,1.7c0,0.4,0.1,0.7,0.4,1c0.3,0.2,0.7,0.4,1.2,0.5
		l1.2,0.2c1,0.2,1.5,0.4,1.9,0.8c0.6,0.5,0.8,1.3,0.8,2.2C253.1,24.3,251.6,25.5,249.4,25.5"/>
	<polygon id="XMLID_54_" class="st0" points="261.6,25.4 261.6,20.7 257.3,20.7 257.3,25.4 255.8,25.4 255.8,14.6 257.3,14.6 
		257.3,19.2 261.6,19.2 261.6,14.6 263.1,14.6 263.1,25.4 	"/>
	<path id="XMLID_53_" class="st0" d="M270.1,25.5c-2.1,0-3.7-1.5-3.7-3.8v-7.2h1.6v7.2c0,1.5,0.8,2.4,2.1,2.4c1.3,0,2.2-0.9,2.2-2.4
		v-7.2h1.6v7.2C273.8,24,272.2,25.5,270.1,25.5"/>
	<path id="XMLID_52_" class="st0" d="M279.7,25.5c-1.6,0-2.7-0.4-3.7-1.4l1.1-1.1c0.8,0.8,1.6,1,2.6,1c1.4,0,2.1-0.6,2.1-1.7
		c0-0.5-0.1-0.9-0.4-1.1c-0.3-0.3-0.5-0.4-1.1-0.5l-1.2-0.2c-0.8-0.1-1.5-0.4-2-0.9c-0.5-0.5-0.8-1.2-0.8-2.1c0-1.9,1.3-3.2,3.5-3.2
		c1.4,0,2.3,0.4,3.2,1.2l-1,1c-0.6-0.6-1.4-0.8-2.3-0.8c-1.2,0-1.9,0.7-1.9,1.7c0,0.4,0.1,0.7,0.4,1c0.3,0.2,0.7,0.4,1.2,0.5
		l1.2,0.2c1,0.2,1.5,0.4,1.9,0.8c0.6,0.5,0.8,1.3,0.8,2.2C283.5,24.3,281.9,25.5,279.7,25.5"/>
	<path id="XMLID_51_" class="st0" d="M132.9,45.2c-2.1,0-3.7-1.5-3.7-3.8v-7.2h1.6v7.2c0,1.5,0.8,2.4,2.1,2.4s2.2-0.9,2.2-2.4v-7.2
		h1.6v7.2C136.7,43.7,135.1,45.2,132.9,45.2"/>
	<polygon id="XMLID_50_" class="st0" points="146.2,45.1 141.4,37.5 141.4,45.1 139.8,45.1 139.8,34.2 141.3,34.2 146,41.9 
		146,34.2 147.6,34.2 147.6,45.1 	"/>
	<rect id="XMLID_49_" x="150.9" y="34.2" class="st0" width="1.6" height="10.9"/>
	<polygon id="XMLID_48_" class="st0" points="159.4,45.1 158.1,45.1 154.7,34.2 156.4,34.2 158.8,42.2 161.1,34.2 162.8,34.2 	"/>
	<polygon id="XMLID_47_" class="st0" points="164.9,45.1 164.9,34.2 171.6,34.2 171.6,35.7 166.5,35.7 166.5,38.9 170.8,38.9 
		170.8,40.4 166.5,40.4 166.5,43.6 171.6,43.6 171.6,45.1 	"/>
	<path id="XMLID_44_" class="st0" d="M180,45.1l-2.2-4.6h-2v4.6h-1.6V34.2h4c2,0,3.2,1.3,3.2,3.2c0,1.6-0.9,2.6-2.1,2.9l2.4,4.8H180
		z M178.2,35.7h-2.3v3.4h2.3c1,0,1.8-0.6,1.8-1.7C180,36.4,179.3,35.7,178.2,35.7"/>
	<path id="XMLID_43_" class="st0" d="M187,45.2c-1.6,0-2.7-0.4-3.7-1.4l1.1-1.1c0.8,0.8,1.6,1,2.6,1c1.4,0,2.1-0.6,2.1-1.7
		c0-0.5-0.1-0.9-0.4-1.1c-0.3-0.3-0.5-0.4-1.1-0.5l-1.2-0.2c-0.8-0.1-1.5-0.4-2-0.9c-0.5-0.5-0.8-1.2-0.8-2.1c0-1.9,1.3-3.2,3.5-3.2
		c1.4,0,2.3,0.4,3.2,1.2l-1,1c-0.6-0.6-1.4-0.8-2.3-0.8c-1.2,0-1.9,0.7-1.9,1.7c0,0.4,0.1,0.7,0.4,1c0.3,0.2,0.7,0.4,1.2,0.5L188,39
		c1,0.2,1.5,0.4,1.9,0.8c0.6,0.5,0.8,1.3,0.8,2.2C190.7,44,189.2,45.2,187,45.2"/>
	<rect id="XMLID_42_" x="193.4" y="34.2" class="st0" width="1.6" height="10.9"/>
	<polygon id="XMLID_41_" class="st0" points="201.6,35.7 201.6,45.1 200,45.1 200,35.7 197.2,35.7 197.2,34.2 204.4,34.2 
		204.4,35.7 	"/>
	<polygon id="XMLID_40_" class="st0" points="210.4,40.7 210.4,45.1 208.9,45.1 208.9,40.7 205.8,34.2 207.5,34.2 209.7,39 
		211.8,34.2 213.5,34.2 	"/>
	<path id="XMLID_39_" class="st0" d="M222.9,45.2c-1.1,0-2-0.4-2.7-1.2c-1-1.1-1-2.3-1-4.4c0-2.1,0-3.3,1-4.4
		c0.7-0.7,1.6-1.2,2.7-1.2c1.9,0,3.3,1.2,3.7,3.4H225c-0.3-1.1-0.9-1.9-2.1-1.9c-0.6,0-1.2,0.2-1.5,0.7c-0.5,0.6-0.6,1.2-0.6,3.4
		c0,2.2,0.1,2.8,0.6,3.4c0.4,0.4,0.9,0.7,1.5,0.7c1.2,0,1.9-0.8,2.1-1.9h1.6C226.3,44,224.8,45.2,222.9,45.2"/>
	<path id="XMLID_36_" class="st0" d="M235.3,44.1c-0.7,0.8-1.6,1.2-2.7,1.2c-1.1,0-2-0.4-2.7-1.2c-1-1.1-1-2.3-1-4.4
		c0-2.1,0-3.3,1-4.4c0.7-0.7,1.6-1.2,2.7-1.2c1.1,0,2,0.4,2.7,1.2c1,1.1,1,2.3,1,4.4C236.3,41.8,236.3,43,235.3,44.1 M234.1,36.3
		c-0.4-0.4-0.9-0.7-1.5-0.7c-0.6,0-1.2,0.3-1.5,0.7c-0.5,0.6-0.6,1.2-0.6,3.4c0,2.2,0.1,2.8,0.6,3.4c0.4,0.4,0.9,0.7,1.5,0.7
		c0.6,0,1.2-0.3,1.5-0.7c0.5-0.6,0.6-1.2,0.6-3.4C234.7,37.5,234.6,36.9,234.1,36.3"/>
	<polygon id="XMLID_35_" class="st0" points="239.1,45.1 239.1,34.2 240.7,34.2 240.7,43.6 245.7,43.6 245.7,45.1 	"/>
	<polygon id="XMLID_34_" class="st0" points="248.1,45.1 248.1,34.2 249.6,34.2 249.6,43.6 254.6,43.6 254.6,45.1 	"/>
	<polygon id="XMLID_33_" class="st0" points="256.8,45.1 256.8,34.2 263.5,34.2 263.5,35.7 258.4,35.7 258.4,38.9 262.7,38.9 
		262.7,40.4 258.4,40.4 258.4,43.6 263.5,43.6 263.5,45.1 	"/>
	<path id="XMLID_32_" class="st0" d="M272.5,44c-0.8,0.9-1.8,1.2-2.9,1.2c-1.1,0-2-0.4-2.7-1.2c-1-1.1-1-2.3-1-4.4
		c0-2.1,0-3.3,1-4.4c0.7-0.7,1.6-1.2,2.7-1.2c2.2,0,3.5,1.5,3.8,3.4h-1.6c-0.3-1.2-1-1.9-2.2-1.9c-0.6,0-1.2,0.3-1.5,0.7
		c-0.5,0.6-0.6,1.2-0.6,3.4c0,2.2,0.1,2.8,0.6,3.4c0.4,0.4,0.9,0.7,1.5,0.7c0.7,0,1.3-0.3,1.7-0.8c0.4-0.5,0.5-1,0.5-1.7v-0.6h-2.2
		v-1.4h3.8v1.7C273.4,42.3,273.1,43.2,272.5,44"/>
	<polygon id="XMLID_31_" class="st0" points="276.3,45.1 276.3,34.2 282.9,34.2 282.9,35.7 277.9,35.7 277.9,38.9 282.2,38.9 
		282.2,40.4 277.9,40.4 277.9,43.6 282.9,43.6 282.9,45.1 	"/>
	<path id="XMLID_28_" class="st0" d="M135.5,63.8c-0.7,0.8-1.6,1.2-2.7,1.2s-2-0.4-2.7-1.2c-1-1.1-1-2.3-1-4.4c0-2.1,0-3.3,1-4.4
		c0.7-0.7,1.6-1.2,2.7-1.2s2,0.4,2.7,1.2c1,1.1,1,2.3,1,4.4C136.5,61.5,136.5,62.7,135.5,63.8 M134.3,56c-0.4-0.4-0.9-0.7-1.5-0.7
		c-0.6,0-1.2,0.3-1.5,0.7c-0.5,0.6-0.6,1.2-0.6,3.4s0.1,2.8,0.6,3.4c0.4,0.4,0.9,0.7,1.5,0.7c0.6,0,1.2-0.3,1.5-0.7
		c0.5-0.6,0.6-1.2,0.6-3.4S134.8,56.6,134.3,56"/>
	<polygon id="XMLID_27_" class="st0" points="140.7,55.4 140.7,58.7 145,58.7 145,60.2 140.7,60.2 140.7,64.8 139.1,64.8 
		139.1,53.9 145.8,53.9 145.8,55.4 	"/>
	<path id="XMLID_24_" class="st0" d="M156.8,64.8l-0.7-2.2H152l-0.7,2.2h-1.7l3.8-10.9h1.3l3.8,10.9H156.8z M154,56.4l-1.6,4.8h3.2
		L154,56.4z"/>
	<path id="XMLID_21_" class="st0" d="M164.2,60.5h-2.4v4.3h-1.6V53.9h3.9c2,0,3.3,1.4,3.3,3.3C167.5,59.1,166.2,60.5,164.2,60.5
		 M164.1,55.4h-2.3V59h2.3c1.1,0,1.8-0.7,1.8-1.8C166,56.1,165.2,55.4,164.1,55.4"/>
	<path id="XMLID_18_" class="st0" d="M173.7,60.5h-2.4v4.3h-1.6V53.9h3.9c2,0,3.3,1.4,3.3,3.3C177,59.1,175.7,60.5,173.7,60.5
		 M173.6,55.4h-2.3V59h2.3c1.1,0,1.8-0.7,1.8-1.8C175.4,56.1,174.7,55.4,173.6,55.4"/>
	<polygon id="XMLID_17_" class="st0" points="179.2,64.8 179.2,53.9 180.8,53.9 180.8,63.3 185.8,63.3 185.8,64.8 	"/>
	<rect id="XMLID_16_" x="187.8" y="53.9" class="st0" width="1.6" height="10.9"/>
	<polygon id="XMLID_15_" class="st0" points="192.4,64.8 192.4,53.9 199.1,53.9 199.1,55.4 194,55.4 194,58.6 198.3,58.6 
		198.3,60.1 194,60.1 194,63.3 199.1,63.3 199.1,64.8 	"/>
	<path id="XMLID_12_" class="st0" d="M207.9,63.8c-0.7,0.7-1.6,1-2.7,1h-3.6V53.9h3.6c1.1,0,2,0.3,2.7,1c1.1,1.2,1,2.8,1,4.3
		C208.9,60.9,209,62.6,207.9,63.8 M206.8,56.1c-0.4-0.5-1-0.7-1.8-0.7h-1.9v7.9h1.9c0.7,0,1.3-0.2,1.8-0.7c0.5-0.6,0.6-1.8,0.6-3.3
		C207.4,57.8,207.4,56.8,206.8,56.1"/>
	<path id="XMLID_11_" class="st0" d="M218.3,64.9c-1.6,0-2.7-0.4-3.7-1.4l1.1-1.1c0.8,0.8,1.6,1,2.6,1c1.4,0,2.1-0.6,2.1-1.7
		c0-0.5-0.1-0.9-0.4-1.1c-0.3-0.3-0.5-0.4-1.1-0.5l-1.2-0.2c-0.8-0.1-1.5-0.4-2-0.9c-0.5-0.5-0.8-1.2-0.8-2.1c0-1.9,1.3-3.2,3.5-3.2
		c1.4,0,2.3,0.4,3.2,1.2l-1,1c-0.6-0.6-1.4-0.8-2.3-0.8c-1.2,0-1.9,0.7-1.9,1.7c0,0.4,0.1,0.7,0.4,1c0.3,0.2,0.7,0.4,1.2,0.5
		l1.2,0.2c1,0.2,1.5,0.4,1.9,0.8c0.6,0.5,0.8,1.3,0.8,2.2C222,63.7,220.4,64.9,218.3,64.9"/>
	<path id="XMLID_10_" class="st0" d="M227.7,64.9c-1.1,0-2-0.4-2.7-1.2c-1-1.1-1-2.3-1-4.4c0-2.1,0-3.3,1-4.4
		c0.7-0.7,1.6-1.2,2.7-1.2c1.9,0,3.3,1.2,3.7,3.4h-1.6c-0.3-1.1-0.9-1.9-2.1-1.9c-0.6,0-1.2,0.2-1.5,0.7c-0.5,0.6-0.6,1.2-0.6,3.4
		c0,2.2,0.1,2.8,0.6,3.4c0.4,0.4,0.9,0.7,1.5,0.7c1.2,0,1.9-0.8,2.1-1.9h1.6C231,63.7,229.6,64.9,227.7,64.9"/>
	<rect id="XMLID_9_" x="233.7" y="53.9" class="st0" width="1.6" height="10.9"/>
	<polygon id="XMLID_8_" class="st0" points="238.5,64.8 238.5,53.9 245.1,53.9 245.1,55.4 240,55.4 240,58.6 244.4,58.6 244.4,60.1 
		240,60.1 240,63.3 245.1,63.3 245.1,64.8 	"/>
	<polygon id="XMLID_7_" class="st0" points="254,64.8 249.2,57.2 249.2,64.8 247.6,64.8 247.6,53.9 249.1,53.9 253.9,61.6 
		253.9,53.9 255.4,53.9 255.4,64.8 	"/>
	<path id="XMLID_6_" class="st0" d="M261.8,64.9c-1.1,0-2-0.4-2.7-1.2c-1-1.1-1-2.3-1-4.4c0-2.1,0-3.3,1-4.4
		c0.7-0.7,1.6-1.2,2.7-1.2c1.9,0,3.3,1.2,3.7,3.4h-1.6c-0.3-1.1-0.9-1.9-2.1-1.9c-0.6,0-1.2,0.2-1.5,0.7c-0.5,0.6-0.6,1.2-0.6,3.4
		c0,2.2,0.1,2.8,0.6,3.4c0.4,0.4,0.9,0.7,1.5,0.7c1.2,0,1.9-0.8,2.1-1.9h1.6C265.1,63.7,263.7,64.9,261.8,64.9"/>
	<polygon id="XMLID_5_" class="st0" points="267.8,64.8 267.8,53.9 274.4,53.9 274.4,55.4 269.4,55.4 269.4,58.6 273.7,58.6 
		273.7,60.1 269.4,60.1 269.4,63.3 274.4,63.3 274.4,64.8 	"/>
	<path id="XMLID_4_" class="st0" d="M279.6,64.9c-1.6,0-2.7-0.4-3.7-1.4l1.1-1.1c0.8,0.8,1.6,1,2.6,1c1.4,0,2.1-0.6,2.1-1.7
		c0-0.5-0.1-0.9-0.4-1.1c-0.3-0.3-0.5-0.4-1.1-0.5L279,60c-0.8-0.1-1.5-0.4-2-0.9c-0.5-0.5-0.8-1.2-0.8-2.1c0-1.9,1.3-3.2,3.5-3.2
		c1.4,0,2.3,0.4,3.2,1.2l-1,1c-0.6-0.6-1.4-0.8-2.3-0.8c-1.2,0-1.9,0.7-1.9,1.7c0,0.4,0.1,0.7,0.4,1c0.3,0.2,0.7,0.4,1.2,0.5
		l1.2,0.2c1,0.2,1.5,0.4,1.9,0.8c0.6,0.5,0.8,1.3,0.8,2.2C283.4,63.7,281.8,64.9,279.6,64.9"/>
</g>
</svg>
