<?xml version="1.0" encoding="utf-8"?>
<!-- Generator: Adobe Illustrator 19.0.0, SVG Export Plug-In . SVG Version: 6.00 Build 0)  -->
<svg version="1.1" id="Layer_1" xmlns="http://www.w3.org/2000/svg" xmlns:xlink="http://www.w3.org/1999/xlink" x="0px" y="0px"
	 viewBox="15 -9.2 164 69.2" style="enable-background:new 15 -9.2 164 69.2;" xml:space="preserve">
<style type="text/css">
	.st0{fill:#FFFFFF;}
</style>
<title>extracare-trust-logo</title>
<polygon class="st0" points="15.1,23.3 15.1,-5.1 29.6,-5.1 28.4,-1.7 18.9,-1.7 18.9,7.1 28.3,7.1 28.3,10.4 18.9,10.4 18.9,19.9 
	29.7,19.9 29.7,23.3 "/>
<polygon class="st0" points="47.1,23.3 41.7,15.2 36.3,23.3 32.1,23.3 39.5,12.7 32.7,2.9 37.1,2.9 42.1,10.5 47.3,2.9 51.4,2.9 
	44.4,12.9 51.4,23.3 "/>
<path class="st0" d="M60.4,23.7c-3.2,0-4.6-1.8-4.6-4.5V5.9h-3.4V2.9h3.4v-4.6l3.8-1.2v5.8h6.3l-1.2,3.1h-5v12c0,1.7,0.7,2.5,2,2.5
	c1.3-0.1,2.5-0.5,3.5-1.3l1.1,2.6C64.6,22.9,62.6,23.6,60.4,23.7"/>
<path class="st0" d="M79.8,6.6c-0.7-0.3-1.4-0.5-2.1-0.5c-1.6,0.2-3.2,1-4.3,2.2v14.9h-3.8V2.9h3.2l0.5,2.3c2.5-2.3,4.1-2.8,5.7-2.8
	c0.8,0,1.6,0.2,2.3,0.7L79.8,6.6z"/>
<path class="st0" d="M94.3,13.6l-3.7,0.2c-3.3,0.1-4.7,1.2-4.7,3.3s1.2,3.4,3.8,3.4c1.8,0,3.5-0.7,4.7-2L94.3,13.6L94.3,13.6z
	 M95.3,23.3l-0.8-1.9c-1.7,1.6-3.9,2.4-6.2,2.4c-3.4,0.1-6.2-2.5-6.4-5.9c0-0.1,0-0.3,0-0.4c0-4.1,3-6.5,8.3-6.7l4-0.1V9.8
	c0-3.1-1.8-4.3-4.2-4.3c-1.9,0-3.8,0.6-5.4,1.8l-1.4-2.6c2.2-1.6,4.8-2.4,7.4-2.3c4.3,0,7.3,1.8,7.3,7.1v6.8c0,4.8,0.1,6.2,0.4,7
	L95.3,23.3L95.3,23.3z"/>
<path class="st0" d="M116.6,23.4c-8.6,0-13.8-6.1-13.8-14.3s5.9-14.7,14.6-14.7c2.5-0.1,5,0.5,7.3,1.6v3.8c-2.2-1.4-4.7-2.2-7.3-2.1
	c-6.4,0-10.4,5-10.4,11.2c0,6.4,3.8,11.1,10.2,11.1c2.4,0,4.7-0.7,6.8-1.8l1.1,3C122.5,22.7,119.6,23.4,116.6,23.4"/>
<path class="st0" d="M140.2,13.3l-3.7,0.1c-3.3,0.1-4.7,1.2-4.7,3.3c0,1.9,1.2,3.4,3.8,3.4c1.8,0,3.5-0.7,4.7-2L140.2,13.3
	L140.2,13.3z M141.3,23l-0.8-1.9c-1.7,1.6-3.9,2.4-6.2,2.4c-3.4,0.1-6.2-2.5-6.3-5.9c0-0.1,0-0.3,0-0.4c0-4.1,3-6.5,8.3-6.7l4-0.1
	V9.5c0-3.1-1.8-4.3-4.2-4.3c-1.9,0-3.8,0.6-5.3,1.8l-1.4-2.6c2.2-1.6,4.8-2.4,7.4-2.3c4.3,0,7.3,1.8,7.3,7.1V16c0,4.8,0.1,6.2,0.4,7
	L141.3,23L141.3,23z"/>
<path class="st0" d="M159.5,6.3c-0.7-0.3-1.4-0.5-2.1-0.5c-1.6,0.2-3.2,1-4.3,2.2V23h-3.8V2.6h3.2l0.5,2.3c2.5-2.3,4.1-2.8,5.7-2.8
	c0.8,0,1.6,0.2,2.3,0.7L159.5,6.3z"/>
<path class="st0" d="M170.6,5.2c-2.8,0-4.6,2.5-4.6,5.4h9C174.9,8,173.5,5.2,170.6,5.2 M166,13.6c0,3.6,2.3,6.6,6.4,6.6
	c1.7,0,3.4-0.5,4.9-1.4l1.1,2.5c-2,1.4-4.3,2.1-6.8,2.1c-6.6,0-9.7-5.2-9.7-10.9c0-5.9,3.4-10.4,8.6-10.4s8.4,4.2,8.4,10.5v1
	L166,13.6L166,13.6z"/>
<polygon class="st0" points="38.5,-7.6 36.5,-7.6 36.5,-1.5 35.2,-1.5 35.2,-7.6 33.2,-7.6 33.2,-8.7 38.8,-8.7 "/>
<path class="st0" d="M42.6-1.5v-3c0-0.6-0.1-1.1-0.8-1.1c-0.5,0-0.9,0.2-1.2,0.5v3.6h-1.3v-7.7h1.3v3.1c0.5-0.4,1.1-0.7,1.7-0.7
	c0.8,0,1.6,0.4,1.6,1.9v3.3L42.6-1.5L42.6-1.5z"/>
<path class="st0" d="M47.2-5.8c-0.6,0-1,0.5-1,1.1l0,0h2c0.1-0.5-0.3-1-0.9-1.1C47.3-5.8,47.3-5.8,47.2-5.8L47.2-5.8 M46.2-3.8
	c0,0.7,0.6,1.3,1.3,1.4c0,0,0,0,0,0h0.1c0.5,0,0.9-0.1,1.3-0.4L49.3-2c-0.5,0.4-1.2,0.6-1.9,0.6c-1.4,0.1-2.5-1-2.6-2.3
	c0-0.1,0-0.2,0-0.3c-0.1-1.4,0.9-2.6,2.3-2.7c0,0,0,0,0.1,0c1.5,0,2.3,1.1,2.3,2.7v0.4h-3.3L46.2-3.8z"/>
<path class="st0" d="M108.5,35.8c-1.9,0.1-3.5-1.3-3.6-3.2c0-0.1,0-0.3,0-0.4c0-2,1.6-3.7,3.6-3.7c0,0,0,0,0,0h0.3
	c0.6,0,1.3,0.1,1.9,0.4V30c-0.5-0.3-1.2-0.5-1.8-0.5c-1.4,0.1-2.5,1.2-2.5,2.7c0.1,1.3,1.1,2.3,2.4,2.5c0.6,0,1.2-0.2,1.8-0.5
	l0.4,0.9C110.2,35.5,109.4,35.8,108.5,35.8"/>
<path class="st0" d="M115,35.7v-3c0-0.6-0.1-1.1-0.8-1.1c-0.5,0-0.9,0.2-1.2,0.5v3.6h-1.3V28h1.3v3.1c0.5-0.4,1.1-0.7,1.7-0.7
	c0.8,0,1.6,0.4,1.6,1.9v3.3L115,35.7L115,35.7z"/>
<path class="st0" d="M120.3,33.3h-0.7c-0.7,0-1,0.3-1,0.7c0,0.4,0.3,0.7,0.7,0.7l0,0h0.1c0.3,0,0.7-0.1,0.9-0.3L120.3,33.3
	L120.3,33.3z M120.7,35.7l-0.2-0.5c-0.4,0.4-0.9,0.6-1.4,0.6c-0.9,0-1.6-0.6-1.7-1.5c0,0,0-0.1,0-0.1c0-1.1,0.8-1.6,2.2-1.7h0.9
	v-0.2c0-0.5-0.3-0.9-0.8-0.9c0,0,0,0,0,0h-0.2c-0.5,0-1,0.1-1.4,0.4l-0.4-0.8c0.6-0.4,1.3-0.6,2-0.6c1.3,0,2,0.5,2,1.9v2
	c0,0.4,0,0.9,0.1,1.3L120.7,35.7L120.7,35.7z"/>
<path class="st0" d="M125.8,31.8c-0.2-0.1-0.4-0.2-0.6-0.2c-0.4,0-0.7,0.2-1,0.5v3.6h-1.3v-5.2h1.1l0.1,0.5c0.4-0.4,0.9-0.6,1.4-0.7
	c0.3,0,0.5,0.1,0.7,0.2L125.8,31.8z"/>
<path class="st0" d="M126.9,30.5h1.3v5.1h-1.3V30.5z M127.5,29.7c-0.4,0-0.8-0.4-0.8-0.8c0-0.4,0.4-0.8,0.8-0.8
	c0.4,0,0.8,0.4,0.8,0.8C128.3,29.4,128,29.7,127.5,29.7C127.5,29.7,127.5,29.7,127.5,29.7L127.5,29.7"/>
<path class="st0" d="M131.3,35.8c-0.6,0.1-1.2-0.3-1.3-0.9c0-0.1,0-0.2,0-0.3v-3.1h-0.9v-1h0.9v-1.2l1.3-0.4v1.6h1.6l-0.4,1h-1.2
	v2.5c-0.1,0.2,0.1,0.5,0.3,0.6h0.2c0.3,0,0.6-0.1,0.9-0.3l0.3,0.8C132.5,35.5,131.9,35.7,131.3,35.8"/>
<path class="st0" d="M136.5,33.3h-0.7c-0.7,0-1,0.3-1,0.7c0,0.4,0.3,0.7,0.7,0.7l0,0h0.1c0.3,0,0.7-0.1,0.9-0.3L136.5,33.3
	L136.5,33.3z M136.9,35.7l-0.2-0.5c-0.4,0.4-0.9,0.6-1.5,0.6c-0.9,0-1.6-0.6-1.7-1.5c0,0,0-0.1,0-0.1c0-1.1,0.8-1.6,2.1-1.7h0.9
	v-0.2c0-0.5-0.3-0.9-0.8-0.9c0,0,0,0,0,0h-0.2c-0.5,0-0.9,0.1-1.3,0.4l-0.4-0.8c0.6-0.4,1.3-0.6,2-0.6c1.3,0,2,0.5,2,1.9v2
	c0,0.4,0,0.9,0.1,1.3L136.9,35.7L136.9,35.7z"/>
<path class="st0" d="M141.1,31.5c-0.3,0-0.5,0.1-0.7,0.2v2.9c0.2,0.1,0.4,0.1,0.7,0.1c0.9,0,1.5-0.8,1.5-1.6V33
	c0-0.8-0.5-1.5-1.3-1.5L141.1,31.5 M140.8,35.8c-0.6,0-1.2-0.1-1.7-0.4V28h1.3v2.6c0.3-0.1,0.7-0.1,1-0.2c1.3-0.1,2.4,0.9,2.5,2.2
	c0,0.1,0,0.2,0,0.3c0,1.6-1.3,2.9-2.8,2.9c0,0,0,0,0,0H140.8"/>
<path class="st0" d="M145.9,35.8c-0.5,0.1-1.1-0.2-1.2-0.8c0-0.1,0-0.2,0-0.3V28h1.3v6.1c0,0.4,0.1,0.5,0.4,0.5c0.1,0,0.3,0,0.4,0
	l0.2,1C146.7,35.7,146.3,35.8,145.9,35.8"/>
<path class="st0" d="M149.8,31.4c-0.6,0-1,0.5-1,1.1l0,0h2c0.1-0.5-0.3-1-0.9-1.1C149.9,31.4,149.9,31.4,149.8,31.4L149.8,31.4
	 M148.8,33.4c0,0.7,0.6,1.3,1.4,1.3h0.1c0.5,0,0.9-0.1,1.3-0.4l0.3,0.8c-0.6,0.4-1.2,0.7-1.9,0.7c-1.5-0.1-2.6-1.3-2.6-2.8
	c0-1.3,1.1-2.4,2.4-2.6c1.5,0,2.3,1,2.3,2.7v0.4h-3.3L148.8,33.4z"/>
<polygon class="st0" points="159.9,29.6 158,29.6 158,35.7 156.7,35.7 156.7,29.6 154.6,29.6 154.6,28.5 160.2,28.5 "/>
<path class="st0" d="M163,31.8c-0.2-0.1-0.4-0.2-0.6-0.2c-0.4,0-0.7,0.2-1,0.5v3.6h-1.3v-5.2h1.1l0.1,0.5c0.4-0.4,0.9-0.6,1.4-0.7
	c0.3,0,0.5,0.1,0.7,0.2L163,31.8z"/>
<path class="st0" d="M167.5,35.7l-0.2-0.5c-0.4,0.4-1,0.6-1.6,0.6c-0.7,0-1.7-0.3-1.7-2v-3.2h1.3v3.2c-0.1,0.5,0.3,0.9,0.7,1h0.2
	c0.4,0,0.7-0.2,1-0.4v-3.7h1.3v3.7c0,0.5,0,1,0.1,1.4L167.5,35.7L167.5,35.7z"/>
<path class="st0" d="M171.2,35.8c-0.7,0-1.3-0.1-1.9-0.5l0.4-1c0.4,0.3,0.9,0.4,1.4,0.5c0.5,0,0.9-0.2,0.9-0.5
	c0-0.9-2.4-0.6-2.4-2.3c0-0.9,0.7-1.5,1.9-1.5c0.5,0,1,0.1,1.5,0.3v1.2c-0.5-0.2-1-0.3-1.5-0.3c-0.4,0-0.7,0.1-0.7,0.5
	c0,0.8,2.4,0.5,2.4,2.3C173.3,35.4,172.3,35.8,171.2,35.8"/>
<path class="st0" d="M176,35.8c-0.6,0.1-1.2-0.3-1.3-0.9c0-0.1,0-0.2,0-0.3v-3.1h-0.9v-1h0.9v-1.2L176,29v1.6h1.6l-0.4,1H176v2.5
	c-0.1,0.2,0.1,0.5,0.3,0.6h0.2c0.3,0,0.6-0.1,0.9-0.3l0.4,0.8C177.2,35.6,176.6,35.8,176,35.8"/>
<path class="st0" d="M17.8,56.8H15v-8.9h2.9c1.3-0.1,2.4,0.8,2.6,2c0,0.1,0,0.1,0,0.2c0,0.8-0.4,1.5-1.1,1.9l0,0
	c1,0.2,1.7,1.1,1.7,2.2C21,55.4,20.1,56.8,17.8,56.8z M17.5,49.2h-0.8v2.4h1c0.6,0,1.2-0.5,1.2-1.2C18.8,49.7,18.4,49.2,17.5,49.2
	L17.5,49.2z M17.8,52.9h-1.1v2.5h1c1.1,0,1.6-0.5,1.6-1.3C19.3,53.4,18.8,52.9,17.8,52.9L17.8,52.9z"/>
<path class="st0" d="M23.5,54c0,0.9,0.8,1.7,1.8,1.6c0,0,0,0,0,0l0,0c0.6,0,1.2-0.2,1.7-0.5l0.4,1c-0.7,0.5-1.5,0.7-2.3,0.7
	C23.4,57,22,55.7,21.9,54c0-0.1,0-0.3,0-0.4c0-1.8,1.1-3.3,2.9-3.3s2.9,1.3,2.9,3.3v0.5L23.5,54L23.5,54z M24.8,51.5
	c-0.7,0-1.3,0.7-1.3,1.4H26C26,52.1,25.5,51.5,24.8,51.5L24.8,51.5z"/>
<path class="st0" d="M31.1,57c-0.8,0.1-1.5-0.4-1.6-1.2c0-0.1,0-0.2,0-0.3v-3.8h-1.1v-1.2h1.1v-1.5l1.6-0.5v2h2l-0.5,1.2h-1.5v3.2
	c-0.1,0.3,0.1,0.6,0.4,0.7c0.1,0,0.1,0,0.2,0c0.4,0,0.8-0.1,1.1-0.3l0.4,1C32.6,56.7,31.9,56.9,31.1,57z"/>
<path class="st0" d="M36.3,57c-0.8,0.1-1.5-0.4-1.6-1.2c0-0.1,0-0.2,0-0.3v-3.8h-1.1v-1.2h1.1v-1.5l1.6-0.5v2h2l-0.5,1.2h-1.5v3.2
	c-0.1,0.3,0.1,0.6,0.4,0.7c0.1,0,0.1,0,0.2,0c0.4,0,0.7-0.2,1-0.4l0.4,1C37.8,56.7,37.1,56.9,36.3,57z"/>
<path class="st0" d="M40.7,54c0,0.9,0.8,1.7,1.8,1.6c0,0,0,0,0,0l0,0c0.6,0,1.2-0.2,1.7-0.4l0.4,1c-0.7,0.5-1.5,0.7-2.3,0.7
	C40.6,57,39.1,55.7,39,54c0-0.1,0-0.3,0-0.4c0-1.8,1.1-3.3,2.9-3.3c1.8,0,2.9,1.3,2.9,3.3V54L40.7,54L40.7,54z M42,51.5
	c-0.7,0-1.3,0.7-1.3,1.4h2.5C43.3,52.1,42.7,51.5,42,51.5z"/>
<path class="st0" d="M49.7,51.9c-0.2-0.1-0.5-0.2-0.8-0.2c-0.5,0-0.9,0.2-1.2,0.6v4.5h-1.6v-6.4h1.4l0.2,0.7
	c0.5-0.5,1.1-0.8,1.8-0.8c0.3,0,0.6,0.1,0.9,0.3L49.7,51.9z"/>
<path class="st0" d="M54.4,56.8v-8.9h1.6v7.6h3.2v1.4H54.4z"/>
<path class="st0" d="M61.2,49.4c-0.6,0-1-0.4-1-1s0.4-1,1-1s1,0.4,1,1S61.7,49.4,61.2,49.4z M60.3,56.8v-6.4H62v6.4H60.3z"/>
<path class="st0" d="M66.8,56.8h-1.2L63,50.4h1.7l1.6,4.4l0,0l1.6-4.4h1.6L66.8,56.8z"/>
<path class="st0" d="M71.4,54c0.1,0.9,0.9,1.7,1.8,1.6c0,0,0,0,0,0c0.6,0,1.2-0.2,1.7-0.4l0.4,1c-0.7,0.5-1.5,0.7-2.3,0.7
	c-1.7,0.1-3.1-1.2-3.2-2.9c0-0.1,0-0.3,0-0.4c0-1.8,1.1-3.3,2.9-3.3s2.9,1.3,2.9,3.3V54L71.4,54L71.4,54z M72.7,51.5
	c-0.7,0-1.3,0.7-1.3,1.4h2.5C73.9,52.1,73.4,51.5,72.7,51.5L72.7,51.5z"/>
<path class="st0" d="M78.7,57c-0.8,0-1.7-0.2-2.4-0.6l0.5-1.2c0.5,0.4,1.1,0.6,1.7,0.6c0.7,0,1.1-0.2,1.1-0.7c0-1.2-3-0.7-3-2.9
	c0-1.1,0.9-1.9,2.4-1.9c0.7,0,1.3,0.1,1.9,0.3v1.3c-0.6-0.3-1.2-0.4-1.8-0.4c-0.6,0-0.9,0.2-0.9,0.5c0,1,3,0.7,3,2.9
	C81.3,56.4,80,57,78.7,57z"/>
<path class="st0" d="M89.4,48.7c-0.3-0.1-0.5-0.2-0.8-0.2c-0.4,0-0.7,0.3-0.8,0.7c0,0.1,0,0.1,0,0.2v1h1.7l-0.4,1.2h-1.3v5.2h-1.6
	v-5.2h-0.9v-1.2h0.9v-0.9c-0.1-1.2,0.7-2.2,1.9-2.3c0.1,0,0.3,0,0.4,0c0.4,0,0.9,0.1,1.3,0.3L89.4,48.7z"/>
<path class="st0" d="M95.5,56c-1.2,1.2-3.2,1.2-4.5,0.1c-0.7-0.7-1-1.6-1-2.5c0-0.9,0.3-1.8,0.9-2.5c0.6-0.6,1.4-0.9,2.3-0.9
	c0.9,0,1.7,0.3,2.4,0.9c0.6,0.7,0.9,1.5,0.8,2.4C96.4,54.5,96.1,55.4,95.5,56z M93.2,51.5c-1,0-1.5,0.9-1.5,2.1s0.6,2.1,1.6,2.1
	s1.5-0.9,1.5-2.1S94.2,51.5,93.2,51.5z"/>
<path class="st0" d="M101.3,51.9c-0.2-0.1-0.5-0.2-0.8-0.2c-0.5,0-0.9,0.2-1.2,0.6v4.5h-1.6v-6.4H99l0.2,0.7
	c0.5-0.5,1.1-0.8,1.8-0.8c0.3,0,0.6,0.1,0.9,0.3L101.3,51.9z"/>
<path class="st0" d="M113.4,55.7c-1.8,1.6-4.5,1.7-6.4,0.2c-0.9-0.9-1.5-2.1-1.4-3.4c0-1.2,0.4-2.4,1.3-3.3c1.9-1.8,4.9-1.7,6.7,0.1
	C115.1,51.1,115,53.8,113.4,55.7z M110.1,49.2c-1.7,0-2.8,1.2-2.8,3.2s1.2,3.2,2.8,3.2s2.8-1.2,2.8-3.2S111.8,49.2,110.1,49.2
	L110.1,49.2z"/>
<path class="st0" d="M117.4,57c-0.7,0.1-1.4-0.5-1.5-1.2c0-0.1,0-0.2,0-0.2v-8.3h1.6v7.6c0,0.5,0.1,0.7,0.4,0.7c0.2,0,0.3,0,0.5-0.1
	l0.2,1.2C118.3,56.8,117.9,56.9,117.4,57z"/>
<path class="st0" d="M122.8,57c-1.8,0.2-3.3-1.1-3.5-2.9c0-0.1,0-0.3,0-0.4c0-1.8,1.4-3.4,3.3-3.4c0,0,0,0,0,0h0.3
	c0.3,0,0.5,0,0.8,0v-3.1h1.6v9.2C124.5,56.8,123.7,57,122.8,57z M123.7,51.6c-0.2-0.1-0.5-0.1-0.8-0.1c-1-0.1-1.9,0.7-2,1.8
	c0,0.1,0,0.1,0,0.2c0,1,0.7,1.9,1.8,2h0.2c0.2,0,0.5,0,0.7-0.1L123.7,51.6L123.7,51.6z"/>
<path class="st0" d="M128.2,54c0,0.9,0.8,1.7,1.8,1.6c0,0,0,0,0,0l0,0c0.6,0,1.2-0.2,1.7-0.4l0.4,1c-0.7,0.5-1.5,0.7-2.3,0.7
	c-1.7,0.1-3.1-1.2-3.2-2.9c0-0.1,0-0.3,0-0.4c0-1.8,1.1-3.3,2.9-3.3s2.9,1.3,2.9,3.3V54H128.2L128.2,54z M129.4,51.5
	c-0.7,0-1.3,0.7-1.3,1.4h2.5C130.7,52.1,130.1,51.5,129.4,51.5L129.4,51.5z"/>
<path class="st0" d="M137.2,51.9c-0.2-0.1-0.5-0.2-0.8-0.2c-0.5,0-0.9,0.2-1.2,0.6v4.5h-1.6v-6.4h1.4l0.2,0.7
	c0.5-0.5,1.1-0.8,1.8-0.8c0.3,0,0.6,0.1,0.9,0.3L137.2,51.9z"/>
<path class="st0" d="M143.9,53.7h-0.4v3.1h-1.6v-8.9h2.3c1.9,0,3.2,1,3.2,2.9C147.4,52,146.5,53.7,143.9,53.7z M143.9,49.2h-0.5v3.2
	h0.6c0.8,0.1,1.6-0.4,1.7-1.3c0-0.1,0-0.2,0-0.4c0-0.8-0.6-1.5-1.5-1.5L143.9,49.2z"/>
<path class="st0" d="M149.7,54c0,0.9,0.8,1.7,1.8,1.6c0,0,0,0,0,0l0,0c0.6,0,1.2-0.2,1.7-0.4l0.4,1c-0.7,0.5-1.5,0.7-2.3,0.7
	c-1.7,0.1-3.1-1.2-3.2-2.9c0-0.1,0-0.2,0-0.4c0-1.8,1.1-3.3,2.9-3.3s2.9,1.3,2.9,3.3v0.5L149.7,54L149.7,54z M150.9,51.5
	c-0.7,0-1.3,0.7-1.3,1.4h2.5C152.2,52.1,151.6,51.5,150.9,51.5L150.9,51.5z"/>
<path class="st0" d="M160.3,56c-1.3,1.2-3.2,1.2-4.6,0.1c-0.7-0.7-1-1.6-1-2.5c0-0.9,0.3-1.8,0.9-2.5c0.6-0.6,1.4-0.9,2.3-0.9
	c0.9,0,1.7,0.3,2.4,0.9c0.6,0.7,0.9,1.5,0.9,2.4C161.2,54.5,160.9,55.3,160.3,56z M158,51.5c-1,0-1.5,0.9-1.5,2.1s0.6,2.1,1.6,2.1
	s1.5-0.9,1.5-2.1S159,51.5,158,51.5z"/>
<path class="st0" d="M165,57c-0.3,0-0.6-0.1-0.9-0.2V60h-1.6v-9.3c0.8-0.3,1.6-0.4,2.5-0.4c2.3,0,3.5,1.3,3.5,3.3
	c0.1,1.8-1.4,3.4-3.2,3.5H165z M164.8,51.6c-0.3,0-0.5,0-0.8,0.1v3.8c0.3,0.1,0.6,0.2,0.8,0.2c1.1,0,1.8-0.8,1.8-2.1
	c0.1-1-0.6-1.9-1.6-2c0,0,0,0,0,0L164.8,51.6z"/>
<path class="st0" d="M171.1,57c-0.7,0.1-1.4-0.5-1.5-1.2c0-0.1,0-0.2,0-0.2v-8.3h1.6v7.6c0,0.5,0.1,0.7,0.4,0.7c0.2,0,0.3,0,0.5-0.1
	l0.2,1.2C172,56.8,171.6,56.9,171.1,57z"/>
<path class="st0" d="M174.6,54c0,0.9,0.8,1.7,1.8,1.6c0,0,0,0,0,0l0,0c0.6,0,1.2-0.2,1.7-0.4l0.4,1c-0.7,0.5-1.5,0.7-2.3,0.7
	c-1.7,0.1-3.1-1.3-3.2-3c0-0.1,0-0.2,0-0.3c0-1.8,1.1-3.3,2.9-3.3s2.9,1.3,2.9,3.3v0.5L174.6,54L174.6,54z M175.9,51.5
	c-0.7,0-1.3,0.7-1.3,1.4h2.5C177.2,52.1,176.6,51.5,175.9,51.5L175.9,51.5z"/>
</svg>
