<?xml version="1.0" encoding="utf-8"?>
<!-- Generator: Adobe Illustrator 21.0.0, SVG Export Plug-In . SVG Version: 6.00 Build 0)  -->
<svg version="1.1" id="Layer_1" xmlns="http://www.w3.org/2000/svg" xmlns:xlink="http://www.w3.org/1999/xlink" x="0px" y="0px"
	 viewBox="0 0 295.2 144" style="enable-background:new 0 0 295.2 144;" xml:space="preserve">
<style type="text/css">
	.st0{fill:#B2334E;}
	.st1{fill:#00529B;}
	.st2{fill:none;}
</style>
<rect x="3.1" y="113.8" class="st0" width="279.5" height="2"/>
<path class="st1" d="M13.2,137.1c-0.9,0.2-1.9,0.4-2.8,0.4c-4,0-6.8-2.2-6.8-6.9c0-4.7,2.6-7.4,6.8-7.4c0.8,0,1.9,0.2,2.8,0.6
	l-0.2,2.3c-0.9-0.6-1.8-0.7-2.7-0.7c-2.6,0-4.2,2.2-4.2,5c0,2.8,1.6,4.9,4.2,4.9c1,0,2.1-0.2,2.7-0.6L13.2,137.1z"/>
<path class="st1" d="M18.8,132c0-1.5,0.7-3,2.3-3c1.6,0,2.3,1.5,2.3,3c0,1.7-0.5,3.5-2.3,3.5C19.3,135.5,18.8,133.7,18.8,132z
	 M16.3,132.3c0,2.9,1.8,5.2,4.8,5.2c3,0,4.8-2.3,4.8-5.2c0-3.4-2.1-5.4-4.8-5.4C18.4,126.9,16.3,129,16.3,132.3z"/>
<path class="st1" d="M29.8,127.2H32v1.4h0c0.7-1.2,1.8-1.7,2.7-1.7c1.3,0,2.2,0.5,2.7,1.8c0.6-1.2,1.7-1.8,2.9-1.8
	c2.3,0,2.9,1.7,2.9,4v6.4h-2.4v-6.1c0-0.9,0-2.3-1.4-2.3c-1.6,0-1.8,2.1-1.8,3.4v4.9h-2.4v-6.1c0-0.9,0-2.3-1.4-2.3
	c-1.6,0-1.8,2.1-1.8,3.4v4.9h-2.4V127.2z"/>
<path class="st1" d="M52.2,129c1.5,0,2,1.9,2,3.2c0,1.4-0.4,3.3-2,3.3c-1.6,0-2.1-1.9-2.1-3.3C50.1,130.8,50.7,129,52.2,129z
	 M47.7,141.5h2.4v-5.3h0c0.8,1.1,1.7,1.4,2.7,1.4c2.9,0,3.9-2.6,3.9-5.3c0-2.8-1-5.3-3.8-5.3c-1.4,0-2.3,0.7-2.8,1.7h0v-1.4h-2.3
	V141.5z"/>
<path class="st1" d="M69,137.3h-2.3V136h0c-0.7,1-1.8,1.6-3,1.6c-2.2,0-3.1-1.7-3.1-4v-6.4H63v5.4c0,1.2,0,2.9,1.5,2.9
	c1.7,0,2.1-2.1,2.1-3.4v-5H69V137.3z"/>
<path class="st1" d="M74.4,129.1h-1.8v-1.9h1.8v-2l2.4-0.8v2.9h2.1v1.9h-2.1v4.7c0,0.9,0.2,1.7,1.1,1.7c0.4,0,0.8-0.1,1.1-0.3
	l0.1,2.1c-0.5,0.2-1,0.2-1.8,0.2c-1.9,0-2.9-1.3-2.9-3.3V129.1z"/>
<path class="st1" d="M84.2,131.3c0.1-1.4,0.8-2.4,2.1-2.4c1.3,0,1.9,1.1,1.9,2.4H84.2z M89.9,134.6c-0.9,0.6-1.9,1-3,1
	c-1.5,0-2.5-0.9-2.6-2.6h6.3c0-3.6-1-6.1-4.4-6.1c-2.8,0-4.2,2.4-4.2,5.4c0,3.3,1.8,5.3,4.8,5.3c1.3,0,2.3-0.3,3.1-0.8V134.6z"/>
<path class="st1" d="M94.6,127.2h2.1v2.3h0c0.1-0.9,1.1-2.5,2.5-2.5c0.2,0,0.5,0,0.7,0.1v2.7c-0.2-0.1-0.6-0.2-1.1-0.2
	c-1.9,0-1.9,2.7-1.9,4.1v3.7h-2.4V127.2z"/>
<path class="st1" d="M111.5,123.6h2.5v11.6h4.8v2.2h-7.3V123.6z"/>
<path class="st1" d="M123.9,131.3c0.1-1.4,0.8-2.4,2.1-2.4c1.3,0,1.9,1.1,1.9,2.4H123.9z M129.6,134.6c-0.9,0.6-1.9,1-3,1
	c-1.5,0-2.5-0.9-2.6-2.6h6.3c0-3.6-1-6.1-4.4-6.1c-2.8,0-4.2,2.4-4.2,5.4c0,3.3,1.8,5.3,4.8,5.3c1.3,0,2.3-0.3,3.1-0.8V134.6z"/>
<path class="st1" d="M135.9,134.4c0-1.6,1.6-1.8,2.6-1.8h1c0,0.8-0.1,1.5-0.5,2.1c-0.4,0.6-0.9,0.9-1.7,0.9
	C136.5,135.6,135.9,135.3,135.9,134.4z M134.7,130c0.8-0.7,1.8-1.1,2.8-1.1c1.4,0,2.1,0.6,2.1,2.2h-1.3c-1,0-2.2,0.1-3.1,0.6
	c-0.9,0.5-1.6,1.4-1.6,2.9c0,1.9,1.6,3,3.2,3c1.1,0,2.3-0.6,2.8-1.8h0c0,0.3,0,1,0.1,1.5h2.1c-0.1-0.8-0.1-1.5-0.1-2.3
	c0-0.7,0-1.5,0-2.5v-1.3c0-3-1.2-4.3-3.9-4.3c-1,0-2.3,0.3-3.2,0.8L134.7,130z"/>
<path class="st1" d="M146.2,127.2h2.1v2.3h0c0.1-0.9,1.1-2.5,2.5-2.5c0.2,0,0.5,0,0.7,0.1v2.7c-0.2-0.1-0.6-0.2-1.1-0.2
	c-1.9,0-1.9,2.7-1.9,4.1v3.7h-2.4V127.2z"/>
<path class="st1" d="M155.4,127.2h2.3v1.4h0c0.7-1.2,1.8-1.6,3-1.6c2.2,0,3.1,1.7,3.1,4v6.4h-2.4v-5.4c0-1.2,0-2.9-1.5-2.9
	c-1.7,0-2.1,2.1-2.1,3.4v5h-2.4V127.2z"/>
<path class="st1" d="M168.4,127.2h2.4v10.2h-2.4V127.2z M168.4,122.8h2.4v2.5h-2.4V122.8z"/>
<path class="st1" d="M175.4,127.2h2.3v1.4h0c0.7-1.2,1.8-1.6,3-1.6c2.2,0,3.1,1.7,3.1,4v6.4h-2.4v-5.4c0-1.2,0-2.9-1.5-2.9
	c-1.7,0-2.1,2.1-2.1,3.4v5h-2.4V127.2z"/>
<path class="st1" d="M192.2,135.3c-1.4,0-2-1.7-2-3.1c0-1.6,0.5-3.2,2.1-3.2c1.4,0,2,1.4,2,3.2C194.3,133.8,193.7,135.3,192.2,135.3
	z M194.4,127.2v1.4h0c-0.7-1.2-1.6-1.6-2.8-1.6c-2.7,0-3.9,2.8-3.9,5.3c0,2.7,1,5.1,3.7,5.1c1.3,0,2.4-0.8,2.8-1.6h0
	c0,1.8-0.1,3.9-2.8,3.9c-0.7,0-1.9-0.5-2.7-0.9l-0.2,2.2c1.1,0.5,2.2,0.7,3.2,0.7c3.8,0,4.8-2.6,4.8-5.4v-9.2H194.4z"/>
<path class="st1" d="M217.8,136.9c-0.9,0.2-1.9,0.4-2.8,0.4c-4,0-6.8-2.2-6.8-6.9c0-4.7,2.6-7.4,6.8-7.4c0.8,0,1.9,0.2,2.8,0.6
	l-0.2,2.3c-0.9-0.6-1.8-0.7-2.7-0.7c-2.6,0-4.2,2.2-4.2,5c0,2.8,1.6,4.9,4.2,4.9c1,0,2.1-0.2,2.7-0.6L217.8,136.9z"/>
<path class="st1" d="M223.1,131c0.1-1.4,0.8-2.4,2.1-2.4c1.3,0,1.9,1.1,1.9,2.4H223.1z M228.8,134.4c-0.9,0.6-1.9,1-3,1
	c-1.5,0-2.5-0.9-2.6-2.6h6.3c0-3.6-1-6.1-4.4-6.1c-2.8,0-4.2,2.4-4.2,5.4c0,3.3,1.8,5.3,4.8,5.3c1.3,0,2.3-0.3,3.1-0.8V134.4z"/>
<path class="st1" d="M233.4,126.9h2.3v1.4h0c0.7-1.2,1.8-1.6,3-1.6c2.2,0,3.1,1.7,3.1,4v6.4h-2.4v-5.4c0-1.2,0-2.9-1.5-2.9
	c-1.7,0-2.1,2.1-2.1,3.4v5h-2.4V126.9z"/>
<path class="st1" d="M247.1,128.9h-1.8v-1.9h1.8v-2l2.4-0.8v2.9h2.1v1.9h-2.1v4.7c0,0.9,0.2,1.7,1.1,1.7c0.4,0,0.8-0.1,1.1-0.3
	l0.1,2.1c-0.5,0.2-1,0.2-1.8,0.2c-1.9,0-2.9-1.3-2.9-3.3V128.9z"/>
<path class="st1" d="M257,131c0.1-1.4,0.8-2.4,2.1-2.4c1.3,0,1.9,1.1,1.9,2.4H257z M262.6,134.4c-0.9,0.6-1.9,1-3,1
	c-1.5,0-2.5-0.9-2.6-2.6h6.3c0-3.6-1-6.1-4.3-6.1c-2.8,0-4.2,2.4-4.2,5.4c0,3.3,1.8,5.3,4.8,5.3c1.3,0,2.3-0.3,3.1-0.8V134.4z"/>
<path class="st1" d="M267.3,126.9h2.1v2.3h0c0.1-0.9,1.1-2.5,2.5-2.5c0.2,0,0.5,0,0.7,0.1v2.7c-0.2-0.1-0.6-0.2-1.1-0.2
	c-1.9,0-1.9,2.7-1.9,4.1v3.7h-2.4V126.9z"/>
<path class="st1" d="M281.7,129c-0.7-0.3-1.3-0.4-2.1-0.4c-0.6,0-1.4,0.3-1.4,1.1c0,1.6,4.1,0.6,4.1,4.3c0,2.4-1.9,3.3-3.8,3.3
	c-0.9,0-1.8-0.2-2.7-0.4l0.1-2.2c0.7,0.4,1.5,0.7,2.3,0.7c0.6,0,1.6-0.3,1.6-1.2c0-2-4.1-0.6-4.1-4.3c0-2.2,1.7-3.2,3.6-3.2
	c1.1,0,1.8,0.2,2.6,0.4L281.7,129z"/>
<g>
	<path class="st2" d="M288.2,80.4h-0.7v1.1h0.8c0.5,0,0.8-0.1,0.8-0.6C289.1,80.5,288.6,80.4,288.2,80.4z"/>
	<path class="st2" d="M155.2,84.2c-3.4,0-6.4,4-6.4,8.6c0,6.8,3.5,12.3,7.8,12.3c3,0,6.3-3.4,6.3-9
		C162.9,89.7,159.4,84.2,155.2,84.2z"/>
	<path class="st2" d="M230.3,84.2c-3.4,0-6.4,4-6.4,8.6c0,6.8,3.5,12.3,7.8,12.3c3,0,6.3-3.4,6.3-9
		C238.1,89.7,234.5,84.2,230.3,84.2z"/>
	<path class="st2" d="M56.4,89.6c-0.6-3.4-2.5-5.7-4.9-5.7c-2.5,0-4.3,2-5.2,5.7H56.4z"/>
	<path class="st2" d="M288.2,78.8c-1.6,0-2.9,1.3-2.9,3.2c0,1.9,1.3,3.2,2.9,3.2c1.6,0,2.9-1.3,2.9-3.2
		C291.1,80.1,289.8,78.8,288.2,78.8z M290.1,84.2h-1l-1.1-1.9h-0.5v1.9h-1v-4.5h1.7c1.2,0,1.8,0.3,1.8,1.4c0,0.8-0.5,1.2-1.2,1.2
		L290.1,84.2z"/>
	<path class="st1" d="M43.2,71.5v-1.6H30.6v1.6l0.2,0c4.1,0.1,4.9,0.7,4.9,4v22.3L11.6,70l-0.1-0.1H3v1.6l0.2,0
		c1.7,0.1,3,0.5,4.1,1.3v28.3c0,2.6-1.1,3.6-4,3.6H2.9v1.6h12.6v-1.6h-0.2c-4.3,0-5-0.7-5-4.8V75.8l26.6,30.9h1.7V74.2
		c0-2.1,0.6-2.8,4.5-2.8H43.2z"/>
	<path class="st1" d="M60.2,87.8c-1-2.3-2.3-5.5-7.7-5.5c-6.7,0-10.3,6.5-10.3,12.6c0,6.8,4.1,12.1,9.3,12.1c4.5,0,7.8-3.8,9.5-6.1
		l0.1-0.2l-0.9-1.1L60,100c-1.9,2.5-3.9,3.7-6.4,3.7c-3.8,0-7.7-3.7-7.7-9.8c0-0.7,0.1-1.4,0.2-2.2h15.2V90l-0.1-0.1
		C60.8,89.4,60.5,88.7,60.2,87.8z M51.6,83.9c2.3,0,4.2,2.3,4.9,5.7H46.4C47.3,85.9,49.1,83.9,51.6,83.9z"/>
	<path class="st1" d="M89.2,84.5h0.2c1.7,0,2.6,0.3,3,0.8c0.4,0.5,0.3,1.5-0.2,2.9l-4.8,12.9L82.6,88c-0.5-1.4-0.6-2.3-0.3-2.8
		c0.3-0.5,1-0.7,2.3-0.7l0.2,0v-1.5H73.6v1.5l1.5,0.2c1.7,0.2,2.5,1.1,3.6,4l-4.8,12.7L68.4,88c-0.6-1.5-0.7-2.3-0.4-2.8
		c0.3-0.4,1-0.7,2.4-0.8l0.2,0v-1.5H60.1v1.5l0.2,0c2.3,0.3,2.9,1,3.6,2.8l7.8,19.6h1.8L79.6,91l6,15.8h1.8l6.8-18.4
		c1-2.7,2.1-3.8,4.1-4l0.2,0v-1.5h-9.2V84.5z"/>
	<path class="st1" d="M140.3,99.9V76c0-3.5,0.8-4.4,3.7-4.5l0.2,0v-1.6h-13.9v1.6h1.2c3,0,3.9,0.9,3.9,4v11.1h-19.9v-9.8
		c0-4.5,0.6-5.3,4.1-5.3h0.2v-1.6H107v1.6l0.2,0c2.8,0.2,3.5,1,3.5,3.9v25.4c0,3.1-0.9,4-3.9,4h-0.6v1.6h13.6v-1.6h-0.4
		c-3.3,0-3.9-1.2-3.9-4.8V89.2h19.9v11.5c0,2.8-0.6,4.1-3.9,4.1h-1.9v1.6H145v-1.6h-0.8C141.3,104.7,140.3,104,140.3,99.9z"/>
	<path class="st1" d="M155.9,82.3c-5.6,0-11.5,4.4-11.5,12.5c0,7,5,12.2,11.6,12.2c6.3,0,11.3-5.4,11.3-12.3
		C167.3,87.6,162.4,82.3,155.9,82.3z M156.6,105.1c-4.3,0-7.8-5.5-7.8-12.3c0-4.7,2.9-8.6,6.4-8.6c4.2,0,7.8,5.5,7.8,11.9
		C162.9,101.7,159.7,105.1,156.6,105.1z"/>
	<path class="st1" d="M183.7,83.6c-0.6-0.2-1.1-0.3-1.4-0.4c-1-0.5-1.2-0.5-1.9-0.5c-1.8,0-2.5,1.1-4.8,5.3v-5.6h-1.3l-6.2,2.4v1.3
		l3.5,1.4v13.2c0,3-0.8,4-3.2,4.1l-0.2,0v1.6H181v-1.6h-2.2c-2.5,0-3.1-0.6-3.1-2.9V90.7c0.4-0.8,0.9-1.8,1.6-2.8
		c0.5-0.9,1-1.4,1.8-1.4c0.6,0,1.2,0.3,1.7,0.5c0.9,0.5,1.9,0.8,2.8,1l0.2,0l1.4-3.9L185,84C184.5,83.9,184.1,83.8,183.7,83.6z"/>
	<path class="st1" d="M194.4,101.7V82h-1l-7,2.7V86l2.6,0.6c1.2,0.2,1.4,0.4,1.4,2.6v11.6c0,2.9-1.1,4-4.1,4h-0.2v1.6h12v-1.6h-0.2
		C195.5,104.7,194.4,103.8,194.4,101.7z"/>
	<path class="st1" d="M192,73.9c1.4,0,2.5-1.1,2.5-2.4c0-1.3-1.1-2.4-2.5-2.4c-1.4,0-2.5,1.1-2.5,2.4
		C189.6,72.8,190.7,73.9,192,73.9z"/>
	<path class="st1" d="M217.5,99.7c-1,2.8-1.8,4.1-3.4,4.1h-9.1l12.8-19.4l0-0.1v-1.4h-12.6c-2,0-2.2-0.3-2.2-1.3v-0.2h-1.3l-1.7,9.7
		h1.5l0.4-1.4c0.9-3.2,1.2-4.2,2.2-4.2h8.3l-12.9,19.3l0,0.1v1.4h17.2l2.3-6.8h-1.5L217.5,99.7z"/>
	<path class="st1" d="M231,82.3c-5.6,0-11.5,4.4-11.5,12.5c0,7,5,12.2,11.6,12.2c6.3,0,11.3-5.4,11.3-12.3
		C242.5,87.6,237.6,82.3,231,82.3z M231.8,105.1c-4.3,0-7.8-5.5-7.8-12.3c0-4.7,2.9-8.6,6.4-8.6c4.2,0,7.8,5.5,7.8,11.9
		C238.1,101.7,234.8,105.1,231.8,105.1z"/>
	<path class="st1" d="M265.3,104.1c-0.3-0.3-0.4-0.8-0.4-1.4c0-0.7,0.1-1.3,0.1-2.1c0.1-1.7,0.3-4.1,0.3-9.4c0-5.8-2.1-8.9-5.8-8.9
		c-2.5,0-5.3,1.9-8.5,4.2l-0.2,0.1v-4.3h-1.1l-6.2,2.5v1.3l2,0.5c1.2,0.2,1.4,0.5,1.4,2.6v12.1c0,2.2-1.1,3.4-3.2,3.4h-0.2v1.6h11
		v-1.6H254c-2.7,0-3.2-0.7-3.2-3.7V88.6c3.1-2.4,5.3-3.6,6.7-3.6c1.4,0,3.9,0.8,3.9,5.8c0,7.1-0.1,11.8-1,12.8c-0.6,0.6-1.5,1-2.8,1
		l-0.2,0v1.6H269v-1.6h-1.4C266.5,104.7,265.7,104.5,265.3,104.1z"/>
	<path class="st1" d="M276.8,92.3c-2.2-1.6-4.1-2.9-4.1-5.1c0-1.7,1.3-3,2.9-3c2,0,3.6,1.8,3.9,4.6l0,0.2h1.4l-0.1-5.7l-0.1-0.1
		c-1.4-0.6-2.9-0.9-4.3-0.9c-4.1,0-6.9,2.8-6.9,6.7c0,3.2,1.8,4.5,4.1,6.2c1.2,0.9,2.5,1.8,3.8,3.3c1.4,1.5,1.6,2.2,1.6,3.4
		c0,2-1.5,3.6-3.4,3.6c-2.3,0-4.1-2-4.7-5.2l0-0.2h-1.3l0.6,7h1.2l0.1-0.1c0.2-0.4,0.4-0.6,0.7-0.6c0.3,0,0.6,0.1,1,0.2
		c0.1,0,0.2,0.1,0.3,0.1c0.7,0.3,1.5,0.4,2.4,0.4c3.8,0,6.7-2.9,6.7-6.8C282.3,96.2,279.4,94.2,276.8,92.3z"/>
	<path class="st1" d="M290.1,81c0-1-0.7-1.4-1.8-1.4h-1.7v4.5h1v-1.9h0.5l1.1,1.9h1l-1.2-2C289.6,82.2,290.1,81.9,290.1,81z
		 M288.4,81.5h-0.8v-1.1h0.7c0.4,0,0.9,0.1,0.9,0.5C289.1,81.5,288.8,81.5,288.4,81.5z"/>
	<path class="st1" d="M288.2,77.9c-2.2,0-4.1,1.8-4.1,4.1c0,2.2,1.8,4.1,4.1,4.1c2.2,0,4.1-1.8,4.1-4.1
		C292.3,79.7,290.5,77.9,288.2,77.9z M288.2,85.1c-1.6,0-2.9-1.3-2.9-3.2c0-1.9,1.3-3.2,2.9-3.2c1.6,0,2.9,1.3,2.9,3.2
		C291.1,83.8,289.8,85.1,288.2,85.1z"/>
</g>
<g>
	<path class="st1" d="M66.5,37.5c-4.9,6.9-8.7,14.8-11.2,23.7h2.1c4.4-14.8,12.3-26.9,23.1-35.8c0.8-0.6,1.5-1.1,2.3-1.6
		c-5.8,7.7-8.4,18.6-8.7,29.2l-14.4,8.2h4l10.4-5.9c0,2,0.1,4,0.3,5.9h2c-0.2-2.3-0.3-4.7-0.3-7l26.1-14.9l12.5,21.9h2.3L104,38.3
		l24.4-13.9c9.1,5.5,19.9,14.2,32.6,27.1L144,61.2h4l14.5-8.3c2.5,2.6,5.1,5.4,7.8,8.3h2.1l0.4-0.3c-2.9-3.2-5.7-6.2-8.5-9l30-17.2
		c9,7.4,17.2,16.4,24.3,26.6h2.4c-7.2-10.6-15.6-19.9-24.8-27.7l16.5-9.5c13.5,9.4,24.8,22,33.1,37.2h2.3
		c-17.6-32.9-49.1-53.9-86.1-58.1L162,2.9L161.8,3c-4.5-0.5-9-0.8-13.6-0.8c-0.4,0-0.8,0-1.2,0C130,2.5,113.9,6,99.4,12.4
		c-7.5,2.8-14.4,6.7-20.3,11.6c-13.4,9.7-24.4,22.2-31.9,37.1l0.2,0.1h2C54,52.5,59.7,44.5,66.5,37.5z M115.1,10.3
		c10.6-1.7,21.5-1.3,32.3,1l-19,10.8c-11.1-6.6-19.9-8.7-26.7-8.4C106,12.2,110.4,11.1,115.1,10.3z M76.2,51.9
		c0.5-13.1,4.9-26.6,14.5-32.8l10.6,18.5L76.2,51.9z M103,36.6L92.4,18.1c0.3-0.2,0.7-0.4,1-0.5c6.9-3.1,17.4-3.3,33,5.6L103,36.6z
		 M162.9,50.4c-12.5-12.7-23.3-21.4-32.5-27.1l19.9-11.3c14.9,3.7,29.4,11,42.4,21.4L162.9,50.4z M194.6,32.2
		c-7.5-6.1-15.6-11.2-24-15.2c-5.8-2.7-11.8-4.9-17.8-6.5l9.4-5.4c17.9,2.1,34.4,8.2,48.7,17.7L194.6,32.2z M147,4.3
		c4,0,7.9,0.1,11.8,0.5l-8.8,5c-10.3-2.4-20.7-3.1-30.8-2C128.1,5.6,137.4,4.4,147,4.3z"/>
</g>
</svg>
