<?xml version="1.0" encoding="utf-8"?>
<!-- Generator: Adobe Illustrator 19.0.0, SVG Export Plug-In . SVG Version: 6.00 Build 0)  -->
<svg version="1.1" id="Layer_1" xmlns="http://www.w3.org/2000/svg" xmlns:xlink="http://www.w3.org/1999/xlink" x="0px" y="0px"
	 viewBox="0 0 283.5 141.7" style="enable-background:new 0 0 283.5 141.7;" xml:space="preserve">
<style type="text/css">
	.st0{fill:#D2D4E0;}
	.st1{fill:#18B7EB;}
	.st2{fill:#F9A91A;}
	.st3{fill:none;}
	.st4{fill:#137D3F;}
	.st5{fill:#1498D0;}
	.st6{fill:#D18E2A;}
	.st7{fill:#20B8EC;}
	.st8{fill:#FBAA1C;}
</style>
<g id="XMLID_8_">
	<g id="XMLID_4_">
		<path id="XMLID_64_" class="st0" d="M104.6,26.8c10.8,3.1,58.2,39.5,44.9,55.4C133.3,100.3,93.5,37,104.6,26.8z"/>
		<path id="XMLID_61_" class="st1" d="M139,29.3c-11.9-4.3-21.3-10.8-29.8-7.1c-6,2.6-10.8,13.6,0.6,21c6.8,4.3,19.6,6.2,31.2,4
			c13.4-2.8,25.6-12.5,30.1-16.8c11.9-10.8,9.4-29.5-6-26.4C159.4,5.2,148.6,14.8,139,29.3z"/>
		<path id="XMLID_18_" class="st2" d="M177,9.2c-22.2,7.1-56,75.3-33.5,75.9C157.1,85.6,186.4,20.5,177,9.2z"/>
		<g id="XMLID_70_">
			<path id="XMLID_71_" class="st3" d="M178.4,12.6c0.9,5.7-1.4,12.8-7.4,17.9c-4.3,3.7-14.2,11.9-25.9,15.6
				c-9.7,19.3-13.6,38.6-1.7,39.2C156.3,85.6,182.1,29.6,178.4,12.6z"/>
		</g>
		<path id="XMLID_72_" class="st4" d="M178.4,12.6c-0.3-1.4-0.9-2.6-1.4-3.4c-10.2,3.4-23.3,19.9-31.8,36.6
			c11.6-3.7,21.6-11.9,25.9-15.6C177,25.1,179.3,18,178.4,12.6z"/>
		<path id="XMLID_68_" class="st5" d="M134.7,48.1c-11.4-10.8-24.7-19.9-29.8-21.3c-0.3,0-0.3,0.3-0.3,0.6
			c-2.6,4.5-2.3,11.4,5.4,16.2C115.4,46.7,125,48.6,134.7,48.1z"/>
		<path id="XMLID_73_" class="st6" d="M141.2,54.9c-6.5,15.9-7.7,29.8,2.3,30.1c1.7,0,3.4-0.9,5.4-2.6c0.3-0.3,0.3-0.3,0.6-0.6
			C155.4,75.3,150,64.8,141.2,54.9z"/>
	</g>
	<g id="XMLID_7_">
		<path id="XMLID_334_" class="st7" d="M1.4,132v-22.5h15.2v4.3H7v4.3h8.9v4.4H7v4.9h9.9v4.4L1.4,132L1.4,132z"/>
		<path id="XMLID_331_" class="st7" d="M29.8,132c-0.1-0.2-0.1-0.3-0.2-0.6c0-0.2-0.1-0.3-0.1-0.6c0-0.2,0-0.5,0-0.7
			c-0.2,0.2-0.5,0.5-0.8,0.8c-0.3,0.2-0.7,0.5-1,0.7c-0.3,0.2-0.8,0.3-1.4,0.5c-0.5,0.1-1,0.2-1.7,0.2s-1.3-0.1-1.9-0.2
			c-0.7-0.2-1.3-0.5-1.8-0.9c-0.6-0.5-1-0.9-1.4-1.6s-0.6-1.5-0.6-2.5c0-0.9,0.2-1.7,0.6-2.4c0.3-0.6,0.9-1.1,1.4-1.5
			c0.6-0.3,1.1-0.7,1.7-0.8c0.6-0.2,1-0.3,1.5-0.5c0.3-0.1,0.8-0.1,1.3-0.2c0.5-0.1,0.9-0.1,1.4-0.1c0.5,0,0.9-0.1,1.4-0.1
			c0.5,0,0.8,0,1.1,0v-0.6c0-0.5-0.1-0.8-0.2-1c-0.1-0.3-0.3-0.6-0.7-0.7c-0.2-0.2-0.6-0.3-1-0.3c-0.3-0.1-0.8-0.1-1.3-0.1
			c-0.5,0-0.9,0-1.4,0.1c-0.5,0.1-0.9,0.2-1.4,0.3c-0.5,0.1-0.9,0.3-1.3,0.5c-0.5,0.2-0.8,0.3-1.1,0.6l-1.4-3.6
			c0.5-0.2,0.9-0.5,1.4-0.6c0.6-0.2,1.1-0.3,1.7-0.6c0.6-0.1,1.3-0.2,1.9-0.3c0.7-0.1,1.4-0.1,2.1-0.1c1.4,0,2.5,0.1,3.5,0.5
			c1,0.3,1.7,0.7,2.4,1.1c0.3,0.2,0.6,0.6,0.8,0.8c0.2,0.3,0.5,0.7,0.7,1.1c0.2,0.5,0.3,0.9,0.5,1.4c0.1,0.5,0.1,1.1,0.1,1.8v6.4
			c0,0.9,0,1.6,0.1,2.3c0.1,0.6,0.3,1.3,0.7,1.7L29.8,132z M29.3,124.5c0,0-0.1,0-0.3,0c-0.2,0-0.5,0-0.7,0c-0.2,0-0.6,0-0.8,0.1
			c-0.2,0-0.6,0-0.8,0.1c-0.2,0-0.5,0.1-0.8,0.2c-0.2,0.1-0.6,0.2-0.8,0.3c-0.2,0.1-0.5,0.3-0.6,0.6c-0.1,0.2-0.2,0.6-0.2,0.9
			s0.1,0.7,0.2,0.9c0.1,0.2,0.2,0.5,0.5,0.6s0.5,0.2,0.7,0.3c0.2,0.1,0.5,0.1,0.8,0.1c0.6,0,1-0.1,1.6-0.5c0.6-0.3,0.9-0.7,1.3-1.4
			C29.3,126.9,29.3,124.5,29.3,124.5z"/>
		<path id="XMLID_329_" class="st7" d="M51.6,126.6c0,0.6-0.1,1-0.2,1.5c-0.1,0.5-0.2,0.8-0.5,1.1c-0.2,0.3-0.3,0.6-0.6,0.8
			c-0.2,0.2-0.5,0.5-0.7,0.6c-0.2,0.1-0.5,0.3-0.7,0.6c-0.3,0.2-0.7,0.3-1.1,0.6c-0.5,0.1-1,0.3-1.6,0.5c-0.7,0.1-1.4,0.1-2.3,0.1
			c-0.8,0-1.7-0.1-2.4-0.2c-0.7-0.1-1.5-0.3-2.1-0.7c-0.6-0.2-1.1-0.6-1.6-0.8c-0.5-0.3-0.8-0.6-1.1-0.8l2.2-3.4
			c0.5,0.3,0.8,0.7,1.4,0.9c0.5,0.2,0.9,0.5,1.5,0.7c0.5,0.2,0.9,0.3,1.4,0.3c0.5,0.1,0.8,0.1,1.1,0.1c0.3,0,0.6,0,0.8,0
			c0.2,0,0.5-0.1,0.7-0.2c0.2-0.1,0.3-0.2,0.5-0.3c0.1-0.1,0.2-0.3,0.2-0.6c0-0.2-0.1-0.5-0.2-0.7c-0.2-0.1-0.5-0.3-0.7-0.5
			c-0.2-0.1-0.6-0.2-0.9-0.3c-0.3-0.1-0.6-0.1-0.9-0.2c-0.6-0.1-1-0.3-1.5-0.5c-0.5-0.1-0.9-0.3-1.3-0.5c-0.2-0.1-0.5-0.2-0.9-0.5
			c-0.5-0.2-0.8-0.5-1.1-0.8c-0.3-0.3-0.7-0.8-1-1.4c-0.2-0.6-0.5-1.3-0.5-2.1c0-0.8,0.1-1.6,0.5-2.2c0.3-0.7,0.8-1.3,1.4-1.7
			c0.6-0.5,1.4-0.8,2.3-1.1c0.9-0.2,1.8-0.3,3-0.3s2.1,0.1,3,0.3c0.8,0.2,1.6,0.5,2.2,0.8c0.7,0.3,1.3,0.7,1.7,1.1l-1.8,3.2
			c-0.5-0.3-0.8-0.6-1.3-0.8s-0.8-0.3-1.3-0.6s-0.8-0.2-1.1-0.3c-0.3-0.1-0.7-0.1-1-0.1c-0.3,0-0.6,0-0.8,0c-0.2,0-0.5,0.1-0.7,0.2
			c-0.2,0.1-0.3,0.2-0.5,0.3c-0.1,0.1-0.2,0.3-0.2,0.6s0.1,0.5,0.2,0.6c0.2,0.1,0.3,0.3,0.7,0.5c0.3,0.1,0.6,0.2,0.9,0.3
			c0.3,0.1,0.7,0.1,0.9,0.2c0.6,0.2,1.1,0.3,1.7,0.6c0.5,0.1,0.9,0.3,1.1,0.5c0.1,0.1,0.5,0.2,0.8,0.3c0.3,0.2,0.7,0.5,1,0.8
			c0.3,0.3,0.7,0.8,0.9,1.3C51.5,125.3,51.6,125.8,51.6,126.6z"/>
		<path id="XMLID_327_" class="st7" d="M64.1,132.7c-0.5,1-0.8,1.9-1.3,2.6c-0.3,0.7-0.8,1.3-1.3,1.7s-0.9,0.7-1.5,0.8
			c-0.6,0.1-1.1,0.2-1.9,0.2c-0.7,0-1.4,0-1.9-0.1c-0.6-0.1-1-0.2-1.5-0.3c-0.5-0.1-0.9-0.2-1.3-0.5l1.1-4c0.2,0.1,0.5,0.2,0.7,0.2
			c0.2,0.1,0.5,0.1,0.7,0.2c0.2,0,0.5,0.1,0.7,0.1c0.5,0,0.8-0.1,1-0.2c0.2-0.1,0.5-0.5,0.7-1l0.3-1l-6.3-16.3h5.8l3.4,11.4
			l3.4-11.4h5.8L64.1,132.7z"/>
		<path id="XMLID_325_" class="st7" d="M92.1,128.6c-0.5,0.7-1.1,1.4-1.9,1.9c-0.3,0.2-0.7,0.5-1.1,0.7c-0.5,0.2-0.9,0.5-1.5,0.6
			c-0.6,0.2-1.1,0.3-1.8,0.5c-0.7,0.1-1.4,0.1-2.2,0.1c-1.5,0-3-0.2-4.3-0.8c-1.4-0.5-2.5-1.3-3.5-2.2c-1-1-1.8-2.2-2.4-3.6
			c-0.6-1.5-0.9-3.1-0.9-5s0.3-3.5,0.9-5s1.5-2.6,2.5-3.6c1-1,2.3-1.7,3.5-2.2c1.4-0.5,2.7-0.7,4.2-0.7c0.9,0,1.8,0.1,2.6,0.2
			c0.8,0.2,1.5,0.5,2.1,0.7s1.1,0.6,1.6,0.9c0.5,0.3,0.8,0.6,1.1,0.9c0.3,0.2,0.6,0.6,0.7,0.7c0.3,0.2,0.5,0.3,0.5,0.3l-2.8,3.8
			c-0.3-0.5-0.8-0.9-1.4-1.4c-0.2-0.2-0.5-0.3-0.8-0.5c-0.2-0.1-0.6-0.3-0.9-0.5c-0.3-0.1-0.7-0.2-1-0.3c-0.3-0.1-0.8-0.1-1.3-0.1
			c-0.9,0-1.6,0.1-2.4,0.5c-0.7,0.3-1.4,0.8-1.8,1.4c-0.5,0.6-0.9,1.3-1.3,2.1c-0.3,0.8-0.5,1.7-0.5,2.7c0,1,0.1,1.9,0.5,2.7
			c0.2,0.8,0.7,1.5,1.1,2.1c0.5,0.6,1.1,1,1.8,1.4c0.7,0.3,1.5,0.5,2.4,0.5c0.9,0,1.6-0.1,2.3-0.5c0.7-0.2,1.3-0.6,1.7-0.9
			c0.6-0.3,1-0.8,1.4-1.4L92.1,128.6z"/>
		<path id="XMLID_322_" class="st7" d="M104.5,132c-0.1-0.2-0.1-0.3-0.2-0.6c0-0.2-0.1-0.3-0.1-0.6c0-0.2,0-0.5,0-0.7
			c-0.2,0.2-0.5,0.5-0.8,0.8c-0.3,0.2-0.7,0.5-1,0.7c-0.3,0.2-0.8,0.3-1.4,0.5c-0.5,0.1-1,0.2-1.7,0.2c-0.7,0-1.3-0.1-1.9-0.2
			c-0.7-0.1-1.3-0.5-1.8-0.9c-0.6-0.5-1-0.9-1.4-1.6c-0.3-0.7-0.6-1.5-0.6-2.5c0-0.9,0.2-1.7,0.6-2.4c0.3-0.6,0.9-1.1,1.4-1.5
			c0.6-0.3,1.1-0.7,1.7-0.8c0.6-0.2,1-0.3,1.5-0.5c0.3-0.1,0.8-0.1,1.3-0.2c0.5-0.1,0.9-0.1,1.4-0.1c0.5,0,0.9-0.1,1.4-0.1
			s0.8,0,1.1,0v-0.6c0-0.5-0.1-0.8-0.2-1c-0.1-0.3-0.3-0.6-0.7-0.7c-0.2-0.2-0.6-0.3-1-0.3c-0.3-0.1-0.8-0.1-1.3-0.1
			c-0.5,0-0.9,0-1.4,0.1c-0.5,0.1-0.9,0.2-1.4,0.3c-0.5,0.1-0.9,0.3-1.3,0.5c-0.5,0.2-0.8,0.3-1.1,0.6l-1.4-3.6
			c0.5-0.2,0.9-0.5,1.4-0.6c0.6-0.2,1.1-0.3,1.7-0.6c0.6-0.1,1.3-0.2,1.9-0.3c0.7-0.1,1.4-0.1,2.1-0.1c1.4,0,2.5,0.1,3.5,0.5
			c1,0.3,1.7,0.7,2.4,1.1c0.3,0.2,0.6,0.6,0.8,0.8c0.2,0.3,0.5,0.7,0.7,1.1c0.2,0.5,0.3,0.9,0.5,1.4c0.1,0.6,0.1,1.1,0.1,1.8v6.4
			c0,0.9,0,1.6,0.1,2.3c0.1,0.6,0.3,1.3,0.7,1.7L104.5,132z M103.9,124.5c0,0-0.1,0-0.3,0c-0.2,0-0.5,0-0.7,0s-0.6,0-0.8,0.1
			c-0.2,0-0.6,0-0.8,0.1c-0.2,0-0.5,0.1-0.8,0.2c-0.2,0.1-0.6,0.2-0.8,0.3c-0.2,0.1-0.5,0.3-0.6,0.6c-0.1,0.2-0.2,0.6-0.2,0.9
			s0.1,0.7,0.2,0.9c0.1,0.2,0.2,0.5,0.5,0.6c0.2,0.1,0.5,0.2,0.7,0.3c0.2,0.1,0.5,0.1,0.8,0.1c0.6,0,1-0.1,1.6-0.5s0.9-0.7,1.3-1.4
			C103.9,126.9,103.9,124.5,103.9,124.5z"/>
		<path id="XMLID_320_" class="st7" d="M123,120.1c-0.1,0-0.2-0.1-0.5-0.1c-0.1,0-0.3,0-0.5-0.1c-0.2,0-0.3,0-0.6,0
			c-0.3,0-0.7,0-1,0.1c-0.3,0.1-0.6,0.2-0.9,0.5c-0.5,0.3-0.8,0.7-1.3,1.1c-0.3,0.5-0.6,1.1-0.8,1.8v8.4h-5.5v-16.6h5.1l0.3,2.7
			c0.2-0.3,0.5-0.8,0.8-1.1s0.7-0.7,1-1c0.3-0.3,0.8-0.6,1.4-0.7c0.5-0.2,1-0.2,1.6-0.2c0.2,0,0.5,0,0.7,0s0.3,0,0.5,0.1
			c0.1,0,0.2,0.1,0.3,0.1L123,120.1z"/>
		<path id="XMLID_317_" class="st7" d="M129.5,124.9c0,0.6,0.1,1.1,0.3,1.6c0.2,0.5,0.6,0.8,0.9,1c0.3,0.2,0.8,0.5,1.3,0.6
			c0.5,0.1,1,0.2,1.5,0.2c0.5,0,1,0,1.6-0.1c0.5-0.1,1-0.2,1.4-0.3c0.5-0.1,0.8-0.3,1.1-0.5c0.3-0.2,0.6-0.3,0.8-0.5l1.7,3.2
			c-0.5,0.5-1,0.8-1.8,1.1c-0.6,0.3-1.4,0.6-2.3,0.8s-2.1,0.3-3.3,0.3c-1.3,0-2.5-0.2-3.5-0.6c-1-0.3-2.1-0.9-2.7-1.7
			c-0.8-0.8-1.4-1.7-1.8-2.7c-0.5-1-0.7-2.3-0.7-3.8c0-1.4,0.2-2.6,0.7-3.8c0.5-1.1,1-2.1,1.8-2.7c0.8-0.7,1.7-1.3,2.7-1.7
			c1-0.3,2.3-0.6,3.5-0.6c1.3,0,2.4,0.2,3.3,0.7c1,0.5,1.8,1,2.5,1.8s1.1,1.7,1.5,2.7s0.6,2.3,0.6,3.5v1.4h-11.1V124.9z
			 M135.6,121.6c0-0.5-0.1-0.8-0.2-1.3c-0.1-0.3-0.3-0.7-0.6-1c-0.2-0.3-0.6-0.6-0.9-0.7c-0.3-0.2-0.8-0.2-1.4-0.2s-1,0.1-1.4,0.2
			c-0.3,0.2-0.7,0.5-1,0.7c-0.2,0.3-0.5,0.7-0.6,1c-0.1,0.3-0.2,0.8-0.3,1.3H135.6z"/>
	</g>
	<g id="XMLID_1_">
		<path id="XMLID_314_" class="st8" d="M159.3,132l-1.3-4.2h-7.9l-1.4,4.2h-5.5l7.5-22.5h6.7l7.6,22.5
			C165.2,132,159.3,132,159.3,132z M154,114.9l-2.6,8.5h5.4L154,114.9z"/>
		<path id="XMLID_312_" class="st8" d="M180.5,129.9c-0.1,0.1-0.2,0.2-0.6,0.6c-0.3,0.2-0.7,0.6-1.3,0.8c-0.6,0.2-1.3,0.6-2.1,0.8
			c-0.8,0.2-1.8,0.3-2.8,0.3c-1.1,0-2.2-0.2-3.3-0.6c-1-0.3-1.9-0.9-2.7-1.6s-1.5-1.6-1.9-2.7c-0.5-1.1-0.7-2.4-0.7-3.9
			s0.2-2.7,0.8-3.9c0.5-1.1,1.1-2.1,1.9-2.7c0.8-0.7,1.7-1.3,2.8-1.6c1-0.3,2.2-0.6,3.2-0.6c0.7,0,1.4,0.1,2.1,0.2
			c0.6,0.1,1.1,0.2,1.6,0.5c0.5,0.1,0.9,0.3,1.3,0.6s0.7,0.5,0.9,0.6c0.2,0.2,0.5,0.3,0.6,0.5c0.1,0.1,0.2,0.2,0.2,0.2l-1.9,3.5
			c0,0-0.1-0.1-0.3-0.3c-0.2-0.2-0.5-0.3-0.8-0.6s-0.7-0.3-1.1-0.6c-0.5-0.1-0.9-0.2-1.5-0.2c-0.6,0-1,0.1-1.6,0.2
			c-0.5,0.2-0.9,0.5-1.4,0.8c-0.3,0.3-0.7,0.8-0.9,1.4c-0.2,0.6-0.3,1.1-0.3,1.9c0,0.7,0.1,1.4,0.3,1.9c0.2,0.6,0.6,1,0.9,1.4
			c0.3,0.3,0.8,0.7,1.4,0.8c0.5,0.2,1,0.2,1.6,0.2c0.6,0,1-0.1,1.5-0.2c0.5-0.1,0.9-0.3,1.1-0.6c0.3-0.2,0.6-0.3,0.8-0.6
			c0.2-0.2,0.3-0.3,0.3-0.3L180.5,129.9z"/>
		<path id="XMLID_309_" class="st8" d="M192.6,132c-0.1-0.2-0.1-0.3-0.2-0.6c0-0.2-0.1-0.3-0.1-0.6c0-0.2,0-0.5,0-0.7
			c-0.2,0.2-0.5,0.5-0.8,0.8c-0.3,0.2-0.7,0.5-1,0.7c-0.3,0.2-0.8,0.3-1.4,0.5c-0.5,0.1-1,0.2-1.7,0.2c-0.7,0-1.3-0.1-1.9-0.2
			c-0.7-0.1-1.3-0.5-1.8-0.9c-0.6-0.5-1-0.9-1.4-1.6s-0.6-1.5-0.6-2.5c0-0.9,0.2-1.7,0.6-2.4c0.3-0.6,0.9-1.1,1.4-1.5
			c0.6-0.3,1.1-0.7,1.7-0.8c0.6-0.2,1-0.3,1.5-0.5c0.3-0.1,0.8-0.1,1.3-0.2c0.5-0.1,0.9-0.1,1.4-0.1s0.9-0.1,1.4-0.1
			c0.5,0,0.8,0,1.1,0v-0.6c0-0.5-0.1-0.8-0.2-1c-0.1-0.3-0.3-0.6-0.7-0.7c-0.2-0.2-0.6-0.3-1-0.3c-0.3-0.1-0.8-0.1-1.3-0.1
			s-0.9,0-1.4,0.1c-0.5,0.1-0.9,0.2-1.4,0.3c-0.5,0.1-0.9,0.3-1.3,0.5c-0.5,0.2-0.8,0.3-1.1,0.6l-1.4-3.6c0.5-0.2,0.9-0.5,1.4-0.6
			c0.6-0.2,1.1-0.3,1.7-0.6c0.6-0.1,1.3-0.2,1.9-0.3c0.7-0.1,1.4-0.1,2.1-0.1c1.4,0,2.5,0.1,3.5,0.5c1,0.3,1.7,0.7,2.4,1.1
			c0.3,0.2,0.6,0.6,0.8,0.8c0.2,0.3,0.5,0.7,0.7,1.1s0.3,0.9,0.5,1.4s0.1,1.1,0.1,1.8v6.4c0,0.9,0,1.6,0.1,2.3
			c0.1,0.6,0.3,1.3,0.7,1.7L192.6,132z M192,124.5c0,0-0.1,0-0.3,0c-0.2,0-0.5,0-0.7,0c-0.2,0-0.6,0-0.8,0.1c-0.2,0-0.6,0-0.8,0.1
			c-0.2,0-0.5,0.1-0.8,0.2c-0.2,0.1-0.6,0.2-0.8,0.3c-0.2,0.1-0.5,0.3-0.6,0.6c-0.1,0.2-0.2,0.6-0.2,0.9s0.1,0.7,0.2,0.9
			c0.1,0.2,0.2,0.5,0.5,0.6c0.2,0.1,0.5,0.2,0.7,0.3c0.2,0.1,0.5,0.1,0.8,0.1c0.6,0,1-0.1,1.6-0.5c0.6-0.3,0.9-0.7,1.3-1.4V124.5z"
			/>
		<path id="XMLID_6_" class="st8" d="M211.9,132l-0.5-2.2c-0.1,0.1-0.2,0.3-0.5,0.6c-0.2,0.2-0.6,0.6-0.9,0.8
			c-0.3,0.3-0.9,0.6-1.5,0.8c-0.6,0.2-1.3,0.3-2.2,0.3c-1.1,0-2.1-0.2-3-0.7c-0.9-0.5-1.7-1-2.3-1.8c-0.7-0.8-1.1-1.7-1.5-2.7
			c-0.3-1-0.6-2.3-0.6-3.5c0-1.3,0.2-2.5,0.6-3.5c0.3-1,0.8-1.9,1.5-2.7c0.7-0.8,1.4-1.4,2.3-1.8c0.9-0.5,1.9-0.7,3-0.7
			c0.8,0,1.5,0.1,2.1,0.3c0.6,0.2,1,0.5,1.5,0.8c0.5,0.3,0.7,0.6,0.9,0.9c0.2,0.3,0.3,0.5,0.5,0.6V109h5.5v23.1L211.9,132L211.9,132
			z M211.6,123.6c0-0.7-0.1-1.3-0.2-1.8c-0.1-0.6-0.3-1-0.7-1.5c-0.3-0.5-0.7-0.8-1-1c-0.5-0.2-0.9-0.3-1.5-0.3
			c-0.6,0-1,0.1-1.5,0.3c-0.5,0.2-0.8,0.6-1,1c-0.3,0.5-0.5,0.9-0.7,1.5c-0.1,0.6-0.2,1.1-0.2,1.8c0,0.6,0.1,1.3,0.2,1.7
			c0.1,0.6,0.3,1,0.7,1.5c0.2,0.5,0.7,0.8,1,1c0.5,0.2,0.9,0.3,1.5,0.3c0.6,0,1-0.1,1.5-0.3c0.5-0.2,0.8-0.6,1.1-1
			c0.3-0.5,0.6-0.9,0.7-1.5C211.5,124.8,211.6,124.2,211.6,123.6z"/>
		<path id="XMLID_5_" class="st8" d="M223.7,124.9c0,0.6,0.1,1.1,0.3,1.6c0.2,0.5,0.6,0.8,0.9,1c0.3,0.2,0.8,0.5,1.3,0.6
			s1,0.2,1.5,0.2c0.6,0,1,0,1.6-0.1c0.5-0.1,1-0.2,1.4-0.3c0.5-0.1,0.8-0.3,1.1-0.5c0.3-0.2,0.6-0.3,0.8-0.5l1.7,3.2
			c-0.5,0.5-1,0.8-1.8,1.1c-0.6,0.3-1.4,0.6-2.3,0.8s-2.1,0.3-3.3,0.3c-1.3,0-2.5-0.2-3.5-0.6c-1-0.3-2.1-0.9-2.7-1.7
			c-0.8-0.8-1.4-1.7-1.8-2.7s-0.7-2.3-0.7-3.8c0-1.4,0.2-2.6,0.7-3.8c0.5-1.1,1-2.1,1.8-2.7c0.8-0.8,1.7-1.3,2.7-1.7
			c1-0.3,2.3-0.6,3.5-0.6c1.3,0,2.4,0.2,3.3,0.7c1,0.5,1.8,1,2.5,1.8c0.7,0.8,1.1,1.7,1.5,2.7s0.6,2.3,0.6,3.5v1.4h-11.1
			L223.7,124.9L223.7,124.9z M229.8,121.6c0-0.5-0.1-0.8-0.2-1.3c-0.1-0.3-0.3-0.7-0.6-1s-0.6-0.6-0.9-0.7c-0.3-0.2-0.8-0.2-1.4-0.2
			c-0.6,0-1,0.1-1.4,0.2c-0.3,0.2-0.7,0.5-1,0.7c-0.2,0.3-0.5,0.7-0.6,1c-0.1,0.3-0.2,0.8-0.3,1.3H229.8z"/>
		<path id="XMLID_3_" class="st8" d="M257.7,132v-9.6c0-0.5,0-0.8-0.1-1.3c-0.1-0.3-0.2-0.7-0.3-0.9c-0.1-0.2-0.3-0.5-0.7-0.6
			c-0.3-0.1-0.7-0.2-1-0.2c-0.5,0-0.8,0.1-1.1,0.3s-0.6,0.5-0.8,0.8c-0.2,0.3-0.3,0.6-0.5,0.9c-0.1,0.3-0.2,0.7-0.2,0.9v9.7h-5.5
			v-9.7c0-0.5,0-0.8-0.1-1.3c-0.1-0.3-0.2-0.7-0.3-0.9s-0.3-0.5-0.7-0.6c-0.3-0.1-0.7-0.2-1-0.2c-0.5,0-0.8,0.1-1.1,0.3
			c-0.3,0.2-0.6,0.5-0.8,0.8s-0.3,0.6-0.5,0.9c-0.1,0.3-0.2,0.7-0.2,0.9v9.7h-5.5v-16.9h5.1l0.3,2.6c0.6-0.9,1.3-1.6,2.1-2.2
			c0.8-0.6,1.7-0.8,2.8-0.8s2.2,0.2,3,0.8c0.8,0.5,1.5,1.3,1.8,2.4c0.3-0.5,0.7-0.9,1-1.3c0.3-0.3,0.8-0.7,1.3-1
			c0.5-0.2,0.9-0.5,1.5-0.7c0.6-0.1,1.1-0.2,1.7-0.2c1.7,0,3.1,0.6,4,1.6c0.9,1,1.4,2.6,1.4,4.7V132L257.7,132L257.7,132z"/>
		<path id="XMLID_2_" class="st8" d="M275.2,132.7c-0.5,1-0.8,1.9-1.3,2.6c-0.5,0.7-0.8,1.3-1.3,1.7s-0.9,0.7-1.5,0.8
			c-0.6,0.1-1.1,0.2-1.9,0.2c-0.7,0-1.4,0-1.9-0.1c-0.6-0.1-1-0.2-1.5-0.3c-0.5-0.1-0.9-0.2-1.3-0.5l1.1-4c0.2,0.1,0.5,0.2,0.7,0.2
			c0.2,0.1,0.5,0.1,0.7,0.2c0.2,0,0.5,0.1,0.7,0.1c0.5,0,0.8-0.1,1-0.2c0.2-0.1,0.5-0.5,0.7-1l0.3-1l-6.3-16.3h5.8l3.4,11.4
			l3.4-11.4h5.8L275.2,132.7z"/>
	</g>
</g>
</svg>
