<?xml version="1.0" encoding="utf-8"?>
<!-- Generator: Adobe Illustrator 19.0.0, SVG Export Plug-In . SVG Version: 6.00 Build 0)  -->
<svg version="1.1" id="Layer_1" xmlns="http://www.w3.org/2000/svg" xmlns:xlink="http://www.w3.org/1999/xlink" x="0px" y="0px"
	 viewBox="0 0 177.6 45.3" style="enable-background:new 0 0 177.6 45.3;" xml:space="preserve">
<style type="text/css">
	.st0{fill:#0E113A;}
	.st1{fill:#ED2024;}
	.st2{fill:#ED2024;stroke:#ED2024;}
</style>
<g id="XMLID_9_">
	<polyline id="XMLID_7_" class="st0" points="4.5,34.3 16.1,34.3 23.4,15 26,34.2 35.9,34.2 51.8,15.5 44.7,34.1 64.7,34.1 
		67.1,27.8 57.7,27.9 58.9,25.2 66.8,25.2 69.2,19.6 69.3,19.3 60.9,19.4 61.7,17.1 71,17.1 73.4,10.9 44.3,10.9 34.2,24.5 
		34.6,10.9 25,10.9 28.4,1 16.8,1.2 4.7,34.3 	"/>
	<path id="XMLID_12_" class="st0" d="M165.8,10.9l-4.3,11.7l-4.7-11.8h-10.4l-3.1,7.8c0,0,0.3-9.3-11.5-8.7c0,0-10.4,0.8-15.3,12
		c0,0-0.7-2.3-6.7-2.8c0,0-3.5-0.6-2.2-2.2c1.4-1.6,7.4,1.2,7.4,1.2l5.3-5.6c0,0-13.9-6.4-22.8,3.3c0,0-0.9-4.6-6.2-4.9
		c-5.3-0.3-17-0.2-17-0.2l-8.7,23.4H76l3-7.6l2.1,7.7h12l-0.9-1.9c0,0,16.8,5.9,23.7-4.7c0,0,6.7,15.7,23.8,0.2l-2.2,6.4h10.3
		l4.6-12l4.2,12.1h10.4l9.2-23.4L165.8,10.9z M86.9,18.4c-0.7,3.7-6.1,3-6.1,3l2.2-4.9C87.1,16.2,86.9,18.4,86.9,18.4z M104.3,27.5
		c-3.7,1.2-8-2.3-8-2.3l-4.7,5.4l-2.5-6.1c5.3-0.6,7-4.3,7-4.3c1.7,5.3,6.2,4,8.6,5C107,26.3,104.3,27.5,104.3,27.5z M134,24.5
		c-1.9,3.7-5.4,5.7-7.6,4.5c-2.3-1.2-2.5-5.2-0.6-8.8c1.9-3.7,5.4-5.7,7.6-4.5C135.7,16.9,135.9,20.8,134,24.5z"/>
	<polygon id="XMLID_2_" class="st1" points="74.4,10.8 80.2,24.3 65.7,34.2 	"/>
	<polygon id="XMLID_8_" class="st2" points="4.2,35.9 1.2,43.6 163.7,43.6 166.9,35.6 	"/>
</g>
</svg>
