<?xml version="1.0" encoding="utf-8"?>
<!-- Generator: Adobe Illustrator 19.0.0, SVG Export Plug-In . SVG Version: 6.00 Build 0)  -->
<svg version="1.1" id="Layer_1" xmlns="http://www.w3.org/2000/svg" xmlns:xlink="http://www.w3.org/1999/xlink" x="0px" y="0px"
	 viewBox="28 98.6 283.5 31.2" style="enable-background:new 28 98.6 283.5 31.2;" xml:space="preserve">
<style type="text/css">
	.st0{fill:#14B8EC;}
	.st1{fill:#FBAA19;}
	.st2{fill:#D1D4E0;}
	.st3{fill:#10B7EB;}
	.st4{fill:#FAA819;}
	.st5{fill:none;}
	.st6{fill:#0F7C3F;}
	.st7{fill:#1298D0;}
	.st8{fill:#D18E2A;}
</style>
<g>
	<g id="XMLID_298_">
		<path id="XMLID_334_" class="st0" d="M29.4,124v-19.7h13.3v3.8h-8.4v3.8h7.8v3.9h-7.8v4.3H43v3.9H29.4z"/>
		<path id="XMLID_331_" class="st0" d="M54.3,124c-0.1-0.2-0.1-0.3-0.2-0.5c0-0.2-0.1-0.3-0.1-0.5c0-0.2,0-0.4,0-0.6
			c-0.2,0.2-0.4,0.4-0.7,0.7c-0.3,0.2-0.6,0.4-0.9,0.6c-0.3,0.2-0.7,0.3-1.2,0.4c-0.4,0.1-0.9,0.2-1.5,0.2s-1.1-0.1-1.7-0.2
			c-0.6-0.2-1.1-0.4-1.6-0.8c-0.5-0.4-0.9-0.8-1.2-1.4c-0.3-0.6-0.5-1.3-0.5-2.2c0-0.8,0.2-1.5,0.5-2.1c0.3-0.5,0.8-1,1.2-1.3
			c0.5-0.3,1-0.6,1.5-0.7c0.5-0.2,0.9-0.3,1.3-0.4c0.3-0.1,0.7-0.1,1.1-0.2c0.4-0.1,0.8-0.1,1.2-0.1c0.4,0,0.8-0.1,1.2-0.1
			s0.7,0,1,0v-0.5c0-0.4-0.1-0.7-0.2-0.9c-0.1-0.3-0.3-0.5-0.6-0.6c-0.2-0.2-0.5-0.3-0.9-0.3c-0.3-0.1-0.7-0.1-1.1-0.1
			c-0.4,0-0.8,0-1.2,0.1c-0.4,0.1-0.8,0.2-1.2,0.3c-0.4,0.1-0.8,0.3-1.1,0.4c-0.4,0.2-0.7,0.3-1,0.5l-1.2-3.2
			c0.4-0.2,0.8-0.4,1.2-0.5c0.5-0.2,1-0.3,1.5-0.5c0.5-0.1,1.1-0.2,1.7-0.3s1.2-0.1,1.8-0.1c1.2,0,2.2,0.1,3.1,0.4
			c0.9,0.3,1.5,0.6,2.1,1c0.3,0.2,0.5,0.5,0.7,0.7c0.2,0.3,0.4,0.6,0.6,1c0.2,0.4,0.3,0.8,0.4,1.2s0.1,1,0.1,1.6v5.6
			c0,0.8,0,1.4,0.1,2c0.1,0.5,0.3,1.1,0.6,1.5L54.3,124z M53.9,117.4c0,0-0.1,0-0.3,0c-0.2,0-0.4,0-0.6,0s-0.5,0-0.7,0.1
			c-0.2,0-0.5,0-0.7,0.1c-0.2,0-0.4,0.1-0.7,0.2c-0.2,0.1-0.5,0.2-0.7,0.3s-0.4,0.3-0.5,0.5c-0.1,0.2-0.2,0.5-0.2,0.8
			c0,0.3,0.1,0.6,0.2,0.8s0.2,0.4,0.4,0.5c0.2,0.1,0.4,0.2,0.6,0.3c0.2,0.1,0.4,0.1,0.7,0.1c0.5,0,0.9-0.1,1.4-0.4
			c0.5-0.3,0.8-0.6,1.1-1.2C53.9,119.5,53.9,117.4,53.9,117.4z"/>
		<path id="XMLID_329_" class="st0" d="M73.4,119.3c0,0.5-0.1,0.9-0.2,1.3c-0.1,0.4-0.2,0.7-0.4,1c-0.2,0.3-0.3,0.5-0.5,0.7
			c-0.2,0.2-0.4,0.4-0.6,0.5c-0.2,0.1-0.4,0.3-0.6,0.5c-0.3,0.2-0.6,0.3-1,0.5c-0.4,0.1-0.9,0.3-1.4,0.4c-0.6,0.1-1.2,0.1-2,0.1
			c-0.7,0-1.5-0.1-2.1-0.2c-0.6-0.1-1.3-0.3-1.8-0.6c-0.5-0.2-1-0.5-1.4-0.7c-0.4-0.3-0.7-0.5-1-0.7l1.9-3c0.4,0.3,0.7,0.6,1.2,0.8
			c0.4,0.2,0.8,0.4,1.3,0.6c0.4,0.2,0.8,0.3,1.2,0.3c0.4,0.1,0.7,0.1,1,0.1c0.3,0,0.5,0,0.7,0s0.4-0.1,0.6-0.2
			c0.2-0.1,0.3-0.2,0.4-0.3s0.2-0.3,0.2-0.5c0-0.2-0.1-0.4-0.2-0.6c-0.2-0.1-0.4-0.3-0.6-0.4s-0.5-0.2-0.8-0.3
			c-0.3-0.1-0.5-0.1-0.8-0.2c-0.5-0.1-0.9-0.3-1.3-0.4c-0.4-0.1-0.8-0.3-1.1-0.4c-0.2-0.1-0.4-0.2-0.8-0.4s-0.7-0.4-1-0.7
			c-0.3-0.3-0.6-0.7-0.9-1.2c-0.2-0.5-0.4-1.1-0.4-1.8c0-0.7,0.1-1.4,0.4-1.9c0.3-0.6,0.7-1.1,1.2-1.5c0.5-0.4,1.2-0.7,2-1
			c0.8-0.2,1.6-0.3,2.6-0.3s1.8,0.1,2.6,0.3c0.7,0.2,1.4,0.4,1.9,0.7c0.6,0.3,1.1,0.6,1.5,1l-1.6,2.8c-0.4-0.3-0.7-0.5-1.1-0.7
			c-0.4-0.2-0.7-0.3-1.1-0.5c-0.4-0.2-0.7-0.2-1-0.3c-0.3-0.1-0.6-0.1-0.9-0.1s-0.5,0-0.7,0s-0.4,0.1-0.6,0.2s-0.3,0.2-0.4,0.3
			c-0.1,0.1-0.2,0.3-0.2,0.5c0,0.2,0.1,0.4,0.2,0.5c0.2,0.1,0.3,0.3,0.6,0.4s0.5,0.2,0.8,0.3c0.3,0.1,0.6,0.1,0.8,0.2
			c0.5,0.2,1,0.3,1.5,0.5c0.4,0.1,0.8,0.3,1,0.4c0.1,0.1,0.4,0.2,0.7,0.3c0.3,0.2,0.6,0.4,0.9,0.7c0.3,0.3,0.6,0.7,0.8,1.1
			C73.3,118.1,73.4,118.6,73.4,119.3z"/>
		<path id="XMLID_327_" class="st0" d="M84.4,124.6c-0.4,0.9-0.7,1.7-1.1,2.3c-0.3,0.6-0.7,1.1-1.1,1.5c-0.4,0.4-0.8,0.6-1.3,0.7
			c-0.5,0.1-1,0.2-1.7,0.2c-0.6,0-1.2,0-1.7-0.1s-0.9-0.2-1.3-0.3c-0.4-0.1-0.8-0.2-1.1-0.4l1-3.5c0.2,0.1,0.4,0.2,0.6,0.2
			c0.2,0.1,0.4,0.1,0.6,0.2c0.2,0,0.4,0.1,0.6,0.1c0.4,0,0.7-0.1,0.9-0.2c0.2-0.1,0.4-0.4,0.6-0.9l0.3-0.9l-5.5-14.3h5.1l3,10l3-10
			h5.1L84.4,124.6z"/>
		<path id="XMLID_325_" class="st0" d="M109,121c-0.4,0.6-1,1.2-1.7,1.7c-0.3,0.2-0.6,0.4-1,0.6c-0.4,0.2-0.8,0.4-1.3,0.5
			c-0.5,0.2-1,0.3-1.6,0.4s-1.2,0.1-1.9,0.1c-1.3,0-2.6-0.2-3.8-0.7c-1.2-0.4-2.2-1.1-3.1-1.9c-0.9-0.9-1.6-1.9-2.1-3.2
			c-0.5-1.3-0.8-2.7-0.8-4.4s0.3-3.1,0.8-4.4c0.5-1.3,1.3-2.3,2.2-3.2c0.9-0.9,2-1.5,3.1-1.9c1.2-0.4,2.4-0.6,3.7-0.6
			c0.8,0,1.6,0.1,2.3,0.2c0.7,0.2,1.3,0.4,1.8,0.6c0.5,0.2,1,0.5,1.4,0.8s0.7,0.5,1,0.8c0.3,0.2,0.5,0.5,0.6,0.6
			c0.3,0.2,0.4,0.3,0.4,0.3l-2.5,3.3c-0.3-0.4-0.7-0.8-1.2-1.2c-0.2-0.2-0.4-0.3-0.7-0.4c-0.2-0.1-0.5-0.3-0.8-0.4s-0.6-0.2-0.9-0.3
			c-0.3-0.1-0.7-0.1-1.1-0.1c-0.8,0-1.4,0.1-2.1,0.4c-0.6,0.3-1.2,0.7-1.6,1.2s-0.8,1.1-1.1,1.8c-0.3,0.7-0.4,1.5-0.4,2.4
			c0,0.9,0.1,1.7,0.4,2.4c0.2,0.7,0.6,1.3,1,1.8s1,0.9,1.6,1.2c0.6,0.3,1.3,0.4,2.1,0.4c0.8,0,1.4-0.1,2-0.4
			c0.6-0.2,1.1-0.5,1.5-0.8c0.5-0.3,0.9-0.7,1.2-1.2L109,121z"/>
		<path id="XMLID_322_" class="st0" d="M119.8,124c-0.1-0.2-0.1-0.3-0.2-0.5c0-0.2-0.1-0.3-0.1-0.5c0-0.2,0-0.4,0-0.6
			c-0.2,0.2-0.4,0.4-0.7,0.7c-0.3,0.2-0.6,0.4-0.9,0.6c-0.3,0.2-0.7,0.3-1.2,0.4c-0.4,0.1-0.9,0.2-1.5,0.2s-1.1-0.1-1.7-0.2
			s-1.1-0.4-1.6-0.8c-0.5-0.4-0.9-0.8-1.2-1.4c-0.3-0.6-0.5-1.3-0.5-2.2c0-0.8,0.2-1.5,0.5-2.1c0.3-0.5,0.8-1,1.2-1.3
			c0.5-0.3,1-0.6,1.5-0.7c0.5-0.2,0.9-0.3,1.3-0.4c0.3-0.1,0.7-0.1,1.1-0.2c0.4-0.1,0.8-0.1,1.2-0.1c0.4,0,0.8-0.1,1.2-0.1
			s0.7,0,1,0v-0.5c0-0.4-0.1-0.7-0.2-0.9c-0.1-0.3-0.3-0.5-0.6-0.6c-0.2-0.2-0.5-0.3-0.9-0.3c-0.3-0.1-0.7-0.1-1.1-0.1
			s-0.8,0-1.2,0.1c-0.4,0.1-0.8,0.2-1.2,0.3c-0.4,0.1-0.8,0.3-1.1,0.4c-0.4,0.2-0.7,0.3-1,0.5l-1.2-3.2c0.4-0.2,0.8-0.4,1.2-0.5
			c0.5-0.2,1-0.3,1.5-0.5c0.5-0.1,1.1-0.2,1.7-0.3s1.2-0.1,1.8-0.1c1.2,0,2.2,0.1,3.1,0.4c0.9,0.3,1.5,0.6,2.1,1
			c0.3,0.2,0.5,0.5,0.7,0.7c0.2,0.3,0.4,0.6,0.6,1s0.3,0.8,0.4,1.2c0.1,0.5,0.1,1,0.1,1.6v5.6c0,0.8,0,1.4,0.1,2
			c0.1,0.5,0.3,1.1,0.6,1.5L119.8,124z M119.3,117.4c0,0-0.1,0-0.3,0c-0.2,0-0.4,0-0.6,0s-0.5,0-0.7,0.1c-0.2,0-0.5,0-0.7,0.1
			c-0.2,0-0.4,0.1-0.7,0.2c-0.2,0.1-0.5,0.2-0.7,0.3s-0.4,0.3-0.5,0.5c-0.1,0.2-0.2,0.5-0.2,0.8c0,0.3,0.1,0.6,0.2,0.8
			s0.2,0.4,0.4,0.5c0.2,0.1,0.4,0.2,0.6,0.3c0.2,0.1,0.4,0.1,0.7,0.1c0.5,0,0.9-0.1,1.4-0.4c0.5-0.3,0.8-0.6,1.1-1.2
			C119.3,119.5,119.3,117.4,119.3,117.4z"/>
		<path id="XMLID_320_" class="st0" d="M136.1,113.6c-0.1,0-0.2-0.1-0.4-0.1c-0.1,0-0.3,0-0.4-0.1c-0.2,0-0.3,0-0.5,0
			c-0.3,0-0.6,0-0.9,0.1c-0.3,0.1-0.5,0.2-0.8,0.4c-0.4,0.3-0.7,0.6-1.1,1c-0.3,0.4-0.5,1-0.7,1.6v7.4h-4.8v-14.6h4.5l0.3,2.4
			c0.2-0.3,0.4-0.7,0.7-1c0.3-0.3,0.6-0.6,0.9-0.9c0.3-0.3,0.7-0.5,1.2-0.6c0.4-0.2,0.9-0.2,1.4-0.2c0.2,0,0.4,0,0.6,0
			s0.3,0,0.4,0.1c0.1,0,0.2,0.1,0.3,0.1L136.1,113.6z"/>
		<path id="XMLID_317_" class="st0" d="M141.8,117.8c0,0.5,0.1,1,0.3,1.4c0.2,0.4,0.5,0.7,0.8,0.9s0.7,0.4,1.1,0.5
			c0.4,0.1,0.9,0.2,1.3,0.2c0.4,0,0.9,0,1.4-0.1c0.4-0.1,0.9-0.2,1.2-0.3c0.4-0.1,0.7-0.3,1-0.4c0.3-0.2,0.5-0.3,0.7-0.4l1.5,2.8
			c-0.4,0.4-0.9,0.7-1.6,1c-0.5,0.3-1.2,0.5-2,0.7c-0.8,0.2-1.8,0.3-2.9,0.3s-2.2-0.2-3.1-0.5c-0.9-0.3-1.8-0.8-2.4-1.5
			c-0.7-0.7-1.2-1.5-1.6-2.4c-0.4-0.9-0.6-2-0.6-3.3c0-1.2,0.2-2.3,0.6-3.3c0.4-1,0.9-1.8,1.6-2.4s1.5-1.1,2.4-1.5
			c0.9-0.3,2-0.5,3.1-0.5s2.1,0.2,2.9,0.6c0.9,0.4,1.6,0.9,2.2,1.6c0.6,0.7,1,1.5,1.3,2.4c0.3,0.9,0.5,2,0.5,3.1v1.2h-9.7V117.8z
			 M147.1,114.9c0-0.4-0.1-0.7-0.2-1.1c-0.1-0.3-0.3-0.6-0.5-0.9c-0.2-0.3-0.5-0.5-0.8-0.6c-0.3-0.2-0.7-0.2-1.2-0.2
			s-0.9,0.1-1.2,0.2c-0.3,0.2-0.6,0.4-0.9,0.6c-0.2,0.3-0.4,0.6-0.5,0.9c-0.1,0.3-0.2,0.7-0.3,1.1H147.1z"/>
		<path id="XMLID_314_" class="st1" d="M202.4,124l-1.1-3.7h-6.9l-1.2,3.7h-4.8l6.6-19.7h5.9l6.7,19.7
			C207.6,124,202.4,124,202.4,124z M197.8,109l-2.3,7.5h4.7L197.8,109z"/>
		<path id="XMLID_312_" class="st1" d="M221,122.2c-0.1,0.1-0.2,0.2-0.5,0.5c-0.3,0.2-0.6,0.5-1.1,0.7c-0.5,0.2-1.1,0.5-1.8,0.7
			c-0.7,0.2-1.6,0.3-2.5,0.3c-1,0-1.9-0.2-2.9-0.5c-0.9-0.3-1.7-0.8-2.4-1.4s-1.3-1.4-1.7-2.4s-0.6-2.1-0.6-3.4
			c0-1.3,0.2-2.4,0.7-3.4c0.4-1,1-1.8,1.7-2.4s1.5-1.1,2.5-1.4c0.9-0.3,1.9-0.5,2.8-0.5c0.6,0,1.2,0.1,1.8,0.2
			c0.5,0.1,1,0.2,1.4,0.4c0.4,0.1,0.8,0.3,1.1,0.5c0.3,0.2,0.6,0.4,0.8,0.5c0.2,0.2,0.4,0.3,0.5,0.4s0.2,0.2,0.2,0.2l-1.7,3.1
			c0,0-0.1-0.1-0.3-0.3s-0.4-0.3-0.7-0.5s-0.6-0.3-1-0.5c-0.4-0.1-0.8-0.2-1.3-0.2s-0.9,0.1-1.4,0.2c-0.4,0.2-0.8,0.4-1.2,0.7
			c-0.3,0.3-0.6,0.7-0.8,1.2s-0.3,1-0.3,1.7c0,0.6,0.1,1.2,0.3,1.7s0.5,0.9,0.8,1.2c0.3,0.3,0.7,0.6,1.2,0.7
			c0.4,0.2,0.9,0.2,1.4,0.2s0.9-0.1,1.3-0.2c0.4-0.1,0.8-0.3,1-0.5c0.3-0.2,0.5-0.3,0.7-0.5c0.2-0.2,0.3-0.3,0.3-0.3L221,122.2z"/>
		<path id="XMLID_309_" class="st1" d="M231.6,124c-0.1-0.2-0.1-0.3-0.2-0.5c0-0.2-0.1-0.3-0.1-0.5c0-0.2,0-0.4,0-0.6
			c-0.2,0.2-0.4,0.4-0.7,0.7c-0.3,0.2-0.6,0.4-0.9,0.6c-0.3,0.2-0.7,0.3-1.2,0.4c-0.4,0.1-0.9,0.2-1.5,0.2s-1.1-0.1-1.7-0.2
			s-1.1-0.4-1.6-0.8c-0.5-0.4-0.9-0.8-1.2-1.4c-0.3-0.6-0.5-1.3-0.5-2.2c0-0.8,0.2-1.5,0.5-2.1c0.3-0.5,0.8-1,1.2-1.3
			c0.5-0.3,1-0.6,1.5-0.7c0.5-0.2,0.9-0.3,1.3-0.4c0.3-0.1,0.7-0.1,1.1-0.2c0.4-0.1,0.8-0.1,1.2-0.1s0.8-0.1,1.2-0.1s0.7,0,1,0v-0.5
			c0-0.4-0.1-0.7-0.2-0.9c-0.1-0.3-0.3-0.5-0.6-0.6c-0.2-0.2-0.5-0.3-0.9-0.3c-0.3-0.1-0.7-0.1-1.1-0.1s-0.8,0-1.2,0.1
			c-0.4,0.1-0.8,0.2-1.2,0.3s-0.8,0.3-1.1,0.4c-0.4,0.2-0.7,0.3-1,0.5l-1.2-3.2c0.4-0.2,0.8-0.4,1.2-0.5c0.5-0.2,1-0.3,1.5-0.5
			c0.5-0.1,1.1-0.2,1.7-0.3c0.6-0.1,1.2-0.1,1.8-0.1c1.2,0,2.2,0.1,3.1,0.4c0.9,0.3,1.5,0.6,2.1,1c0.3,0.2,0.5,0.5,0.7,0.7
			c0.2,0.3,0.4,0.6,0.6,1s0.3,0.8,0.4,1.2s0.1,1,0.1,1.6v5.6c0,0.8,0,1.4,0.1,2c0.1,0.5,0.3,1.1,0.6,1.5L231.6,124z M231.1,117.4
			c0,0-0.1,0-0.3,0s-0.4,0-0.6,0c-0.2,0-0.5,0-0.7,0.1c-0.2,0-0.5,0-0.7,0.1c-0.2,0-0.4,0.1-0.7,0.2c-0.2,0.1-0.5,0.2-0.7,0.3
			s-0.4,0.3-0.5,0.5c-0.1,0.2-0.2,0.5-0.2,0.8c0,0.3,0.1,0.6,0.2,0.8c0.1,0.2,0.2,0.4,0.4,0.5s0.4,0.2,0.6,0.3
			c0.2,0.1,0.4,0.1,0.7,0.1c0.5,0,0.9-0.1,1.4-0.4c0.5-0.3,0.8-0.6,1.1-1.2V117.4z"/>
		<path id="XMLID_306_" class="st1" d="M248.6,124l-0.4-1.9c-0.1,0.1-0.2,0.3-0.4,0.5c-0.2,0.2-0.5,0.5-0.8,0.7
			c-0.3,0.3-0.8,0.5-1.3,0.7c-0.5,0.2-1.1,0.3-1.9,0.3c-1,0-1.8-0.2-2.6-0.6s-1.5-0.9-2-1.6c-0.6-0.7-1-1.5-1.3-2.4s-0.5-2-0.5-3.1
			s0.2-2.2,0.5-3.1s0.7-1.7,1.3-2.4s1.2-1.2,2-1.6s1.7-0.6,2.6-0.6c0.7,0,1.3,0.1,1.8,0.3s0.9,0.4,1.3,0.7c0.4,0.3,0.6,0.5,0.8,0.8
			s0.3,0.4,0.4,0.5v-7.4h4.8v20.3L248.6,124L248.6,124z M248.3,116.6c0-0.6-0.1-1.1-0.2-1.6c-0.1-0.5-0.3-0.9-0.6-1.3
			s-0.6-0.7-0.9-0.9c-0.4-0.2-0.8-0.3-1.3-0.3s-0.9,0.1-1.3,0.3c-0.4,0.2-0.7,0.5-0.9,0.9c-0.3,0.4-0.4,0.8-0.6,1.3
			c-0.1,0.5-0.2,1-0.2,1.6c0,0.5,0.1,1.1,0.2,1.5c0.1,0.5,0.3,0.9,0.6,1.3c0.2,0.4,0.6,0.7,0.9,0.9c0.4,0.2,0.8,0.3,1.3,0.3
			s0.9-0.1,1.3-0.3c0.4-0.2,0.7-0.5,1-0.9c0.3-0.4,0.5-0.8,0.6-1.3C248.2,117.7,248.3,117.2,248.3,116.6z"/>
		<path id="XMLID_303_" class="st1" d="M258.9,117.8c0,0.5,0.1,1,0.3,1.4c0.2,0.4,0.5,0.7,0.8,0.9s0.7,0.4,1.1,0.5s0.9,0.2,1.3,0.2
			c0.5,0,0.9,0,1.4-0.1c0.4-0.1,0.9-0.2,1.2-0.3c0.4-0.1,0.7-0.3,1-0.4c0.3-0.2,0.5-0.3,0.7-0.4l1.5,2.8c-0.4,0.4-0.9,0.7-1.6,1
			c-0.5,0.3-1.2,0.5-2,0.7c-0.8,0.2-1.8,0.3-2.9,0.3c-1.1,0-2.2-0.2-3.1-0.5c-0.9-0.3-1.8-0.8-2.4-1.5c-0.7-0.7-1.2-1.5-1.6-2.4
			c-0.4-0.9-0.6-2-0.6-3.3c0-1.2,0.2-2.3,0.6-3.3s0.9-1.8,1.6-2.4c0.7-0.7,1.5-1.1,2.4-1.5c0.9-0.3,2-0.5,3.1-0.5
			c1.1,0,2.1,0.2,2.9,0.6c0.9,0.4,1.6,0.9,2.2,1.6c0.6,0.7,1,1.5,1.3,2.4c0.3,0.9,0.5,2,0.5,3.1v1.2h-9.7V117.8z M264.3,114.9
			c0-0.4-0.1-0.7-0.2-1.1c-0.1-0.3-0.3-0.6-0.5-0.9c-0.2-0.3-0.5-0.5-0.8-0.6c-0.3-0.2-0.7-0.2-1.2-0.2s-0.9,0.1-1.2,0.2
			c-0.3,0.2-0.6,0.4-0.9,0.6c-0.2,0.3-0.4,0.6-0.5,0.9c-0.1,0.3-0.2,0.7-0.3,1.1H264.3z"/>
		<path id="XMLID_301_" class="st1" d="M288.7,124v-8.4c0-0.4,0-0.7-0.1-1.1c-0.1-0.3-0.2-0.6-0.3-0.8c-0.1-0.2-0.3-0.4-0.6-0.5
			c-0.3-0.1-0.6-0.2-0.9-0.2c-0.4,0-0.7,0.1-1,0.3c-0.3,0.2-0.5,0.4-0.7,0.7c-0.2,0.3-0.3,0.5-0.4,0.8c-0.1,0.3-0.2,0.6-0.2,0.8v8.5
			h-4.8v-8.5c0-0.4,0-0.7-0.1-1.1c-0.1-0.3-0.2-0.6-0.3-0.8s-0.3-0.4-0.6-0.5s-0.6-0.2-0.9-0.2c-0.4,0-0.7,0.1-1,0.3
			c-0.3,0.2-0.5,0.4-0.7,0.7c-0.2,0.3-0.3,0.5-0.4,0.8c-0.1,0.3-0.2,0.6-0.2,0.8v8.5h-4.8v-14.8h4.5l0.3,2.3
			c0.5-0.8,1.1-1.4,1.8-1.9c0.7-0.5,1.5-0.7,2.5-0.7s1.9,0.2,2.6,0.7c0.7,0.4,1.3,1.1,1.6,2.1c0.3-0.4,0.6-0.8,0.9-1.1
			c0.3-0.3,0.7-0.6,1.1-0.9c0.4-0.2,0.8-0.4,1.3-0.6c0.5-0.1,1-0.2,1.5-0.2c1.5,0,2.7,0.5,3.5,1.4c0.8,0.9,1.2,2.3,1.2,4.1v9.5
			H288.7z"/>
		<path id="XMLID_299_" class="st1" d="M304.1,124.6c-0.4,0.9-0.7,1.7-1.1,2.3s-0.7,1.1-1.1,1.5c-0.4,0.4-0.8,0.6-1.3,0.7
			c-0.5,0.1-1,0.2-1.7,0.2c-0.6,0-1.2,0-1.7-0.1s-0.9-0.2-1.3-0.3c-0.4-0.1-0.8-0.2-1.1-0.4l1-3.5c0.2,0.1,0.4,0.2,0.6,0.2
			c0.2,0.1,0.4,0.1,0.6,0.2c0.2,0,0.4,0.1,0.6,0.1c0.4,0,0.7-0.1,0.9-0.2c0.2-0.1,0.4-0.4,0.6-0.9l0.3-0.9l-5.5-14.3h5.1l3,10l3-10
			h5.1L304.1,124.6z"/>
	</g>
</g>
<g id="XMLID_4_">
	<path id="XMLID_64_" class="st2" d="M158.5,107.1c3.8,1.1,20.5,13.9,15.8,19.5C168.6,133,154.6,110.7,158.5,107.1z"/>
	<path id="XMLID_61_" class="st3" d="M170.6,108c-4.2-1.5-7.5-3.8-10.5-2.5c-2.1,0.9-3.8,4.8,0.2,7.4c2.4,1.5,6.9,2.2,11,1.4
		c4.7-1,9-4.4,10.6-5.9c4.2-3.8,3.3-10.4-2.1-9.3C177.8,99.5,174,102.9,170.6,108z"/>
	<path id="XMLID_18_" class="st4" d="M184,100.9c-7.8,2.5-19.7,26.5-11.8,26.7C177,127.8,187.3,104.9,184,100.9z"/>
	<g id="XMLID_70_">
		<path id="XMLID_71_" class="st5" d="M184.5,102.1c0.3,2-0.5,4.5-2.6,6.3c-1.5,1.3-5,4.2-9.1,5.5c-3.4,6.8-4.8,13.6-0.6,13.8
			C176.7,127.8,185.8,108.1,184.5,102.1z"/>
	</g>
	<path id="XMLID_72_" class="st6" d="M184.5,102.1c-0.1-0.5-0.3-0.9-0.5-1.2c-3.6,1.2-8.2,7-11.2,12.9c4.1-1.3,7.6-4.2,9.1-5.5
		C184,106.5,184.8,104,184.5,102.1z"/>
	<path id="XMLID_68_" class="st7" d="M169.1,114.6c-4-3.8-8.7-7-10.5-7.5c-0.1,0-0.1,0.1-0.1,0.2c-0.9,1.6-0.8,4,1.9,5.7
		C162.3,114.1,165.7,114.8,169.1,114.6z"/>
	<path id="XMLID_73_" class="st8" d="M171.4,117c-2.3,5.6-2.7,10.5,0.8,10.6c0.6,0,1.2-0.3,1.9-0.9c0.1-0.1,0.1-0.1,0.2-0.2
		C176.4,124.2,174.5,120.5,171.4,117z"/>
</g>
</svg>
