<svg id="Layer_1" data-name="Layer 1" xmlns="http://www.w3.org/2000/svg" xmlns:xlink="http://www.w3.org/1999/xlink" viewBox="0 0 478.61 80"><defs><style>.cls-1{fill:none;}.cls-2{clip-path:url(#clip-path);}.cls-3{fill:#4b2e83;}</style><clipPath id="clip-path" transform="translate(-444 -461)"><rect class="cls-1" x="444" y="461" width="118.97" height="80"/></clipPath></defs><title>uw-logo</title><g class="cls-2"><path class="cls-3" d="M531.31,461v14.43h10.14l-11.32,42.14L516.08,461H501.43l-15.2,56.57L475.8,475.43h10.56V461H444v14.43h9.39L469.78,541h22.74l10.85-41.26L513.68,541h22.74l17.25-65.57H563V461Z" transform="translate(-444 -461)"/></g><path d="M584.48,505a5,5,0,0,0,5.22,4.88c2.74,0,5.45-2,5.45-4.88V494.18l1.43-1.46h-4.4l1.46,1.46V505a3.46,3.46,0,0,1-3.48,3.48,3.62,3.62,0,0,1-3.71-3.48V494.18l1.46-1.46H583l1.46,1.46V505Zm19,3.05V495.49l9,14.07h.58V494.18l1.46-1.46h-4.4l1.46,1.46v10.7L604,492.72h-3.48l1.43,1.46V508.1l-1.43,1.46h4.4l-1.46-1.46Zm15.67-15.39,1.34,1.34v14.16l-1.34,1.34h4.54l-1.34-1.34V494.06l1.34-1.34Zm13.07,0h-4.77l1.37,1.34,4.74,15.5h.86l4.88-15.5,1.37-1.34h-4.05l1.31,1.31-3.57,11.65L630.86,494l1.31-1.31ZM654,509.56v-3.08l-1.8,1.83h-5.11v-7.08h3.8l1.34,1.34v-3.94L650.9,500h-3.8v-6h5.11l1.8,1.8v-3.05H643.94l1.31,1.34v14.16l-1.31,1.34Zm7.56-1.34v-6.51h2.54l4.08,7.85H671l-1.31-1.34-3.77-6.91a4.42,4.42,0,0,0,3.17-3.94c0-2.85-2.65-4.65-5.45-4.65h-5.22l1.31,1.34v14.16l-1.31,1.34h4.51l-1.34-1.34Zm0-14.24h2.06a3.31,3.31,0,0,1,3.23,3.37,3.16,3.16,0,0,1-3.23,3.11h-2.06V494Zm21.64,10.9a3.73,3.73,0,0,0-1.57-3.23l-3.43-2.48a4,4,0,0,1-1.85-2.88,2.37,2.37,0,0,1,2.43-2.4,9.6,9.6,0,0,1,1.08.2l1.49,1.6,1.57-2.34-3.34-.63a2.66,2.66,0,0,0-.8-.09,4.24,4.24,0,0,0-4.28,4.14,4.87,4.87,0,0,0,2.17,3.85l3.46,2.48a2.86,2.86,0,0,1,1.2,2.46,2.78,2.78,0,0,1-2.8,3,2.85,2.85,0,0,1-1.17-.23l-1.6-1.88L674.31,509l3.23.63a5.84,5.84,0,0,0,1,.11,4.83,4.83,0,0,0,4.68-4.91m4.88-12.16,1.34,1.34v14.16l-1.34,1.34h4.54l-1.34-1.34V494.06l1.34-1.34Zm15.27,15.5V494h3.2l1.8,1.8v-3.05H696.52v3.05l1.83-1.8h3.17v14.24l-1.31,1.34h4.51l-1.34-1.34Zm8.88-14.16,4.25,7.68v6.48l-1.34,1.34h4.54l-1.34-1.34v-6.48l4.34-7.65,1.4-1.37h-4.17l1.31,1.31-3.54,6.31L714.33,494l1.31-1.31h-4.77l1.37,1.34Zm27.48,4.84a5.63,5.63,0,0,0-2.56.85,7.43,7.43,0,0,0-3.41,6.5c0,1.66.78,3.51,3,3.51a6.09,6.09,0,0,0,3.53-1.59,8.49,8.49,0,0,0,2.49-6c0-2-1-3.3-3-3.3m-4.05,6.78c0-3.51,1.78-5.41,2.51-5.72a2.22,2.22,0,0,1,.78-.19c1.19,0,1.87.9,1.87,2.73,0,3.08-1.57,5.88-2.56,6.21a2.42,2.42,0,0,1-.73.17c-1.33,0-1.88-1.42-1.88-3.2m10.67-6.21-.64.62.07.24h2c-.31,2.13-.59,4-1,7-.64,4.43-1.19,6-1.64,6.38a.87.87,0,0,1-.59.21,3.19,3.19,0,0,1-1-.36.56.56,0,0,0-.66.17,1.45,1.45,0,0,0-.4.8c0,.47.62.71,1,.71a4,4,0,0,0,2.61-1.64c.8-1,1.9-3.3,2.82-8.66.17-1,.36-2,.76-4.6l2.42-.24.52-.62h-2.8c.71-4.39,1.3-5.72,2.32-5.72a2.57,2.57,0,0,1,1.83.78.48.48,0,0,0,.66,0,1.39,1.39,0,0,0,.48-.88c0-.47-.62-1-1.42-1a5.27,5.27,0,0,0-3.82,2,10.72,10.72,0,0,0-1.87,4.84Zm25,10.09,3.85-12.19,3.74,12.19h.86l4.88-15.5,1.37-1.34h-4.05l1.31,1.31-3.57,11.65L776.24,494l1.31-1.31h-4.77l1.34,1.34.34,1.11-3.23,10.5L767.79,494l1.31-1.31h-4.77l1.37,1.34,4.74,15.5Zm17.91-1.31,1.23-3.57H796l1.17,3.57-1.31,1.31h4.77l-1.34-1.37L794,492.72h-.86l-5.34,15.47-1.37,1.37h4.05l-1.31-1.31Zm4.05-11.79,2.31,7h-4.71l2.4-7Zm18.84,8.42a3.73,3.73,0,0,0-1.57-3.23l-3.43-2.48a4,4,0,0,1-1.86-2.88,2.37,2.37,0,0,1,2.43-2.4,9.57,9.57,0,0,1,1.08.2l1.49,1.6,1.57-2.34-3.34-.63a2.66,2.66,0,0,0-.8-.09,4.24,4.24,0,0,0-4.28,4.14,4.86,4.86,0,0,0,2.17,3.85l3.45,2.48a2.86,2.86,0,0,1,1.2,2.46,2.78,2.78,0,0,1-2.8,3,2.86,2.86,0,0,1-1.17-.23l-1.6-1.88L803.2,509l3.22.63a5.86,5.86,0,0,0,1,.11,4.83,4.83,0,0,0,4.68-4.91m7.59-3.77h7.08v7.11l-1.34,1.34H830l-1.34-1.34V494.06l1.34-1.34h-4.54l1.34,1.34v5.79H819.7v-5.79l1.34-1.34h-4.51l1.32,1.34v14.16l-1.32,1.34H821l-1.34-1.34v-7.11Zm15-8.39,1.34,1.34v14.16l-1.34,1.34h4.54l-1.34-1.34V494.06l1.34-1.34Zm12.07,15.39V495.49l8.86,14.08h.76V494.18l1.46-1.46h-4.4l1.46,1.46v10.7l-7.59-12.16h-3.48l1.43,1.46V508.1l-1.43,1.46h4.4l-1.46-1.46Zm25-6.19v5.42a3.63,3.63,0,0,1-2.77,1.2c-3.74,0-5.62-3.77-5.62-7.39s2.37-7.39,5.62-7.39a2.57,2.57,0,0,1,2.06.8l1.86,1.83v-2.91a7.52,7.52,0,0,0-3.91-1c-4.59,0-7.82,4.11-7.82,8.65s3.23,8.65,7.82,8.65a7.36,7.36,0,0,0,4.63-1.23v-6.65l1.31-1.34h-4.51l1.34,1.34Zm12.47,6.31V494h3.2l1.8,1.8v-3.05H877.32v3.05l1.83-1.8h3.17v14.24L881,509.56h4.51l-1.34-1.34Zm7.62-7.08c0,4.28,2.42,8.79,6.74,8.79s6.77-4.51,6.77-8.79-2.43-8.79-6.77-8.79-6.74,4.51-6.74,8.79m6.74,7.51c-3.37,0-4.54-4-4.54-7.51s1.17-7.51,4.54-7.51,4.57,4,4.57,7.51-1.17,7.51-4.57,7.51m13-.54V495.49l8.76,14.07h.86V494.18l1.46-1.46h-4.4l1.46,1.46v10.7l-7.59-12.16h-3.48l1.43,1.46V508.1l-1.43,1.46H913l-1.46-1.46Z" transform="translate(-444 -461)"/></svg>