<?xml version="1.0" encoding="utf-8"?>
<!-- Generator: Adobe Illustrator 19.0.0, SVG Export Plug-In . SVG Version: 6.00 Build 0)  -->
<svg version="1.1" id="Layer_1" xmlns="http://www.w3.org/2000/svg" xmlns:xlink="http://www.w3.org/1999/xlink" x="0px" y="0px"
	 viewBox="0 0 283.5 102" style="enable-background:new 0 0 283.5 102;" xml:space="preserve">
<style type="text/css">
	.st0{clip-path:url(#XMLID_36_);}
	.st1{clip-path:url(#XMLID_37_);fill:#FFFFFF;}
	.st2{clip-path:url(#SVGID_2_);}
	.st3{clip-path:url(#XMLID_38_);fill:#FFFFFF;}
	.st4{clip-path:url(#SVGID_4_);}
	.st5{clip-path:url(#XMLID_39_);fill:#FFFFFF;}
	.st6{clip-path:url(#SVGID_6_);}
	.st7{clip-path:url(#XMLID_40_);fill:#FFFFFF;}
	.st8{clip-path:url(#SVGID_8_);}
	.st9{clip-path:url(#XMLID_41_);fill:#D7D6D6;}
</style>
<g id="XMLID_1_">
	<g>
		<defs>
			<polygon id="XMLID_19_" points="127,78.5 148.9,78.5 148.9,88.7 113.2,88.7 113.2,33.6 127,33.6 			"/>
		</defs>
		<clipPath id="XMLID_36_">
			<use xlink:href="#XMLID_19_"  style="overflow:visible;"/>
		</clipPath>
		<g class="st0">
			<defs>
				<rect id="XMLID_20_" x="-1902" y="-155" width="2945" height="2666.8"/>
			</defs>
			<clipPath id="XMLID_37_">
				<use xlink:href="#XMLID_20_"  style="overflow:visible;"/>
			</clipPath>
			<rect id="XMLID_21_" x="103" y="23.3" class="st1" width="56.1" height="75.6"/>
		</g>
	</g>
	<g>
		<defs>
			<path id="SVGID_1_" d="M172.6,80.7c2.9,0,5-0.9,6.4-2.9c1.4-2,2.1-4.9,2.1-8.7c0-4-0.7-6.9-2.1-8.7c-1.4-2-3.6-2.9-6.4-2.9
				c-3.1,0-5.2,0.9-6.4,2.9c-1.4,2-2.1,4.9-2.1,8.7c0,4,0.7,6.9,2.1,8.7C167.4,79.6,169.6,80.7,172.6,80.7z M172.6,48.7
				c3.1,0,6.2,0.4,8.8,1.3c2.6,0.9,4.8,2.2,6.7,4c1.9,1.8,3.3,3.8,4.3,6.4c1,2.4,1.7,5.3,1.7,8.4s-0.5,6-1.7,8.4
				c-1,2.4-2.6,4.7-4.3,6.4c-1.9,1.8-4,3.1-6.7,4c-2.6,0.9-5.7,1.6-8.8,1.6c-3.3,0-6.2-0.4-8.8-1.3c-2.6-0.9-5-2.2-6.9-4
				s-3.3-4-4.5-6.4c-1-2.4-1.7-5.3-1.7-8.4s0.5-6,1.7-8.4c1-2.4,2.6-4.7,4.5-6.4c1.9-1.8,4.3-3.1,6.9-4
				C166.5,49.4,169.3,48.7,172.6,48.7z"/>
		</defs>
		<clipPath id="SVGID_2_">
			<use xlink:href="#SVGID_1_"  style="overflow:visible;"/>
		</clipPath>
		<g class="st2">
			<defs>
				<rect id="XMLID_17_" x="-1902" y="-155" width="2945" height="2666.8"/>
			</defs>
			<clipPath id="XMLID_38_">
				<use xlink:href="#XMLID_17_"  style="overflow:visible;"/>
			</clipPath>
			<rect id="XMLID_18_" x="140.5" y="38.5" class="st3" width="63.7" height="61.1"/>
		</g>
	</g>
	<g>
		<defs>
			<path id="SVGID_3_" d="M215.7,66.9c2.1,0,3.6-0.4,4.5-1.6c1-0.9,1.4-2.2,1.4-3.8c0-1.6-0.5-2.9-1.4-3.8c-1-0.9-2.4-1.3-4.5-1.3
				c-2.1,0-3.6,0.4-4.5,1.3c-1,0.9-1.4,2.2-1.4,3.8c0,0.7,0,1.6,0.2,2c0.2,0.4,0.5,1.1,1.2,1.6c0.5,0.4,1.2,0.9,1.9,1.1
				C213.8,66.9,214.7,66.9,215.7,66.9z M225,90c0-0.7-0.2-1.1-0.7-1.6c-0.5-0.4-1-0.7-1.7-0.9c-0.5-0.2-1.4-0.4-2.4-0.4
				c-1,0-1.9-0.2-3.1-0.2h-3.6c-1.2,0-2.4,0-3.6-0.2c-0.7,0.4-1.4,1.1-1.9,1.8c-0.5,0.7-0.7,1.3-0.7,2c0,0.7,0.2,1.1,0.5,1.6
				s0.7,0.9,1.4,1.1c0.7,0.2,1.4,0.7,2.6,0.7c1.2,0.2,2.4,0.2,4,0.2c1.9,0,3.3,0,4.5-0.2s2.1-0.4,2.9-0.9c0.7-0.4,1.2-0.9,1.4-1.3
				C225,91.1,225,90.7,225,90z M215.7,48.7c1.7,0,3.6,0.2,5,0.4c1.7,0.2,3.1,0.9,4.3,1.3h12.6v4.2c0,0.7-0.2,1.1-0.5,1.6
				c-0.5,0.4-1,0.7-1.9,0.9l-3.1,0.7c0.5,1.1,0.5,2.2,0.5,3.6c0,2-0.5,3.8-1.4,5.3c-1,1.6-2.1,2.9-3.6,4c-1.4,1.1-3.3,2-5.5,2.4
				c-2.1,0.7-4.3,0.9-6.7,0.9c-1.4,0-2.6,0-3.8-0.2c-1,0.4-1.4,1.1-1.4,1.8c0,0.7,0.5,1.1,1.2,1.3c0.7,0.2,1.7,0.4,2.9,0.7
				c1.2,0.2,2.6,0.2,4.3,0.2c1.7,0,3.1,0,4.8,0.2c1.7,0.2,3.3,0.4,4.8,0.7c1.7,0.2,2.9,0.9,4.3,1.6c1.2,0.7,2.1,1.8,2.9,2.9
				c0.7,1.3,1.2,2.9,1.2,4.7s-0.5,3.6-1.4,5.1c-1,1.8-2.4,3.1-4,4.4c-1.9,1.3-4,2.4-6.7,3.1c-2.6,0.9-5.5,1.1-9,1.1
				c-3.3,0-6.2-0.2-8.6-0.9c-2.4-0.7-4.3-1.3-5.9-2.2c-1.7-0.9-2.9-2-3.6-3.3c-0.7-1.3-1.2-2.4-1.2-3.8c0-1.8,0.5-3.1,1.7-4.4
				c1.2-1.1,2.6-2.2,4.8-2.9c-1-0.7-1.7-1.3-2.4-2.2c0.2-0.2-0.2-1.3-0.2-2.9c0-0.7,0-1.1,0.2-1.8c0.2-0.7,0.5-1.3,1-1.8
				c0.5-0.7,1-1.1,1.7-1.8c0.7-0.4,1.4-1.1,2.6-1.6c-2.1-1.1-3.8-2.4-5.2-4.2c-1.2-1.8-1.9-3.8-1.9-6.2c0-2,0.5-3.8,1.4-5.3
				s2.1-2.9,3.6-4c1.7-1.1,3.3-2,5.5-2.4C210.9,48.9,213.3,48.7,215.7,48.7z"/>
		</defs>
		<clipPath id="SVGID_4_">
			<use xlink:href="#SVGID_3_"  style="overflow:visible;"/>
		</clipPath>
		<g class="st4">
			<defs>
				<rect id="XMLID_13_" x="-1902" y="-155" width="2945" height="2666.8"/>
			</defs>
			<clipPath id="XMLID_39_">
				<use xlink:href="#XMLID_13_"  style="overflow:visible;"/>
			</clipPath>
			<rect id="XMLID_14_" x="185.7" y="38.5" class="st5" width="62.1" height="73.4"/>
		</g>
	</g>
	<g>
		<defs>
			<path id="SVGID_5_" d="M262.1,80.7c2.9,0,5-0.9,6.4-2.9c1.4-2,2.1-4.9,2.1-8.7c0-4-0.7-6.9-2.1-8.7c-1.4-2-3.6-2.9-6.4-2.9
				c-3.1,0-5.2,0.9-6.4,2.9c-1.4,2-2.1,4.9-2.1,8.7c0,4,0.7,6.9,2.1,8.7C256.8,79.6,259.2,80.7,262.1,80.7z M262.1,48.7
				c3.1,0,6.2,0.4,8.8,1.3c2.6,0.9,4.8,2.2,6.7,4c1.9,1.8,3.3,3.8,4.3,6.4c1,2.4,1.7,5.3,1.7,8.4s-0.5,6-1.7,8.4
				c-1,2.4-2.6,4.7-4.3,6.4c-1.9,1.8-4,3.1-6.7,4c-2.6,0.9-5.5,1.3-8.8,1.3s-6.2-0.4-8.8-1.3c-2.6-0.9-5-2.2-6.9-4
				c-1.9-1.8-3.3-4-4.5-6.4c-1-2.4-1.7-5.3-1.7-8.4s0.5-6,1.7-8.4c1-2.4,2.6-4.7,4.5-6.4c1.9-1.8,4.3-3.1,6.9-4
				C255.9,49.4,259,48.7,262.1,48.7z"/>
		</defs>
		<clipPath id="SVGID_6_">
			<use xlink:href="#SVGID_5_"  style="overflow:visible;"/>
		</clipPath>
		<g class="st6">
			<defs>
				<rect id="XMLID_8_" x="-1902" y="-155" width="2945" height="2666.8"/>
			</defs>
			<clipPath id="XMLID_40_">
				<use xlink:href="#XMLID_8_"  style="overflow:visible;"/>
			</clipPath>
			<rect id="XMLID_9_" x="230" y="38.5" class="st7" width="63.7" height="60.9"/>
		</g>
	</g>
	<g>
		<defs>
			<path id="SVGID_7_" d="M62.5,70V46.5c0-3.3-2.9-6.2-6.4-6.2H27.3c-3.6,0-6.4,2.9-6.4,6.2v27.3c0,3.3,2.9,6.2,6.4,6.2H73L62.5,70z
				 M18.5,20.2h44L83.5,0.5V82c0,9.6-8.1,17.8-18.5,17.8H18.5C8.1,99.8,0,91.6,0,82V38.2C0,28.5,8.1,20.2,18.5,20.2z"/>
		</defs>
		<clipPath id="SVGID_8_">
			<use xlink:href="#SVGID_7_"  style="overflow:visible;"/>
		</clipPath>
		<g class="st8">
			<defs>
				<rect id="XMLID_4_" x="-1902" y="-155" width="2945" height="2666.8"/>
			</defs>
			<clipPath id="XMLID_41_">
				<use xlink:href="#XMLID_4_"  style="overflow:visible;"/>
			</clipPath>
			<rect id="XMLID_5_" x="-10.2" y="-9.8" class="st9" width="103.9" height="119.8"/>
		</g>
	</g>
</g>
</svg>
