<?xml version="1.0" encoding="UTF-8"?>
<!DOCTYPE svg PUBLIC "-//W3C//DTD SVG 1.1//EN" "http://www.w3.org/Graphics/SVG/1.1/DTD/svg11.dtd">
<!-- Creator: CorelDRAW X7 -->
<svg xmlns="http://www.w3.org/2000/svg" xml:space="preserve" width="100mm" height="32mm" version="1.1" style="shape-rendering:geometricPrecision; text-rendering:geometricPrecision; image-rendering:optimizeQuality; fill-rule:evenodd; clip-rule:evenodd"
viewBox="0 0 10000 3200"
 xmlns:xlink="http://www.w3.org/1999/xlink">
 <defs>
  <style type="text/css">
   <![CDATA[
    .fil0 {fill:#FEFEFE;fill-rule:nonzero}
   ]]>
  </style>
 </defs>
 <g id="Layer_x0020_1">
  <metadata id="CorelCorpID_0Corel-Layer"/>
  <g id="_941539008">
   <path class="fil0" d="M3679 1124c0,-264 187,-345 333,-345 180,0 249,96 288,202l-168 56c-25,-84 -64,-112 -122,-112 -81,0 -131,68 -131,200 0,117 37,202 128,202 54,0 102,-29 130,-118l165 57c-42,103 -124,201 -298,201 -155,0 -325,-87 -325,-343z"/>
   <path class="fil0" d="M4810 1125c0,-110 -38,-200 -137,-200 -96,0 -139,81 -139,200 0,110 37,202 139,202 94,0 137,-82 137,-202zm-476 -1c0,-259 178,-345 339,-345 159,0 337,86 337,345 0,256 -178,343 -337,343 -160,0 -339,-87 -339,-343z"/>
   <path class="fil0" d="M5540 1125c0,-110 -38,-200 -138,-200 -95,0 -138,81 -138,200 0,110 37,202 138,202 95,0 138,-82 138,-202zm-476 -1c0,-259 177,-345 338,-345 160,0 337,86 337,345 0,256 -177,343 -337,343 -159,0 -338,-87 -338,-343z"/>
   <path class="fil0" d="M5830 793l199 0 0 110 2 0c36,-56 99,-124 223,-124l6 0 -3 177c-7,-1 -39,-3 -52,-3 -79,0 -138,42 -176,90l0 410 -199 0 0 -660z"/>
   <path class="fil0" d="M6748 1249l0 -244c-43,-41 -79,-61 -131,-61 -83,0 -127,63 -127,183 0,111 40,186 129,186 51,0 97,-31 129,-64zm-457 -120c0,-228 105,-350 256,-350 90,0 154,32 201,97l0 -340 200 0 0 756c0,79 5,128 19,161l-204 0c-9,-16 -15,-65 -15,-99 -43,59 -105,109 -203,109 -150,0 -254,-106 -254,-334z"/>
   <path class="fil0" d="M7083 793l198 0 0 660 -198 0 0 -660zm-2 -251l201 0 0 160 -201 0 0 -160z"/>
   <path class="fil0" d="M7416 793l200 0 0 104c39,-52 112,-118 228,-118 111,0 191,56 191,192l0 482 -198 0 0 -419c0,-59 -22,-90 -78,-90 -53,0 -99,27 -143,66l0 443 -200 0 0 -660z"/>
   <path class="fil0" d="M8531 1256l0 -123c-157,17 -224,56 -224,117 0,42 30,63 73,63 69,0 118,-23 151,-57zm-419 29c0,-153 129,-237 419,-261l0 -16c0,-48 -25,-79 -89,-79 -84,0 -156,35 -217,82l-84 -114c66,-60 165,-118 329,-118 181,0 256,89 256,259l0 254c0,79 5,128 18,161l-198 0c-9,-27 -15,-59 -15,-96 -61,68 -132,106 -230,106 -102,0 -189,-66 -189,-178z"/>
   <path class="fil0" d="M8899 1267l0 -329 -110 0 0 -145 110 0 0 -227 199 0 0 227 169 0 0 145 -169 0 0 286c0,71 19,93 91,93 23,0 52,-3 66,-8l0 143c-15,4 -88,10 -131,10 -196,0 -225,-71 -225,-195z"/>
   <path class="fil0" d="M9772 1059c-10,-93 -52,-137 -127,-137 -62,0 -115,41 -130,137l257 0zm-458 65c0,-257 196,-345 332,-345 137,0 304,68 304,368l0 30 -437 0c10,109 70,151 153,151 78,0 151,-38 196,-79l77 119c-77,65 -172,99 -288,99 -172,0 -337,-88 -337,-343z"/>
   <path class="fil0" d="M3715 1851l199 0 0 104c40,-52 113,-118 217,-118 111,0 163,46 181,118 40,-51 114,-118 218,-118 134,0 194,84 194,202l0 472 -200 0 0 -418c0,-60 -14,-91 -72,-91 -49,0 -89,27 -132,66l0 443 -200 0 0 -418c0,-60 -14,-91 -72,-91 -49,0 -89,27 -134,66l0 443 -199 0 0 -660z"/>
   <path class="fil0" d="M4748 2741l43 -154c18,5 65,17 125,17 43,0 68,-16 84,-57l12 -32 -252 -664 205 0 145 429 3 0 146 -429 193 0 -277 730c-45,114 -106,183 -238,183 -98,0 -154,-14 -189,-23z"/>
   <path class="fil0" d="M5675 2182c0,-264 187,-345 334,-345 179,0 249,96 287,202l-167 56c-26,-84 -65,-112 -123,-112 -80,0 -131,69 -131,200 0,118 37,202 129,202 53,0 101,-29 130,-118l164 57c-42,103 -123,201 -298,201 -155,0 -325,-87 -325,-343z"/>
   <path class="fil0" d="M6774 2314l0 -122c-157,16 -224,55 -224,116 0,42 30,63 73,63 70,0 118,-23 151,-57zm-418 29c0,-153 128,-237 418,-260l0 -16c0,-49 -25,-80 -89,-80 -84,0 -156,35 -217,82l-84 -114c66,-59 165,-118 330,-118 181,0 255,89 255,259l0 254c0,79 5,128 18,161l-198 0c-8,-27 -15,-59 -15,-96 -60,68 -132,106 -230,106 -102,0 -188,-65 -188,-178z"/>
   <path class="fil0" d="M7089 1851l200 0 0 110 1 0c36,-56 99,-124 223,-124l6 0 -2 177c-8,-1 -40,-3 -53,-3 -79,0 -138,42 -175,90l0 410 -200 0 0 -660z"/>
   <path class="fil0" d="M8007 2117c-10,-93 -52,-137 -126,-137 -62,0 -115,41 -130,137l256 0zm-457 65c0,-257 196,-345 332,-345 136,0 304,68 304,368l0 30 -438 0c10,109 71,151 154,151 78,0 151,-38 196,-79l77 119c-77,66 -173,99 -288,99 -172,0 -337,-88 -337,-343z"/>
   <path class="fil0" d="M1629 937l0 -916c-870,0 -1576,704 -1579,1573l0 12c3,869 709,1573 1579,1573l0 -913 0 -3c-395,0 -692,-297 -692,-663 0,-367 297,-663 692,-663z"/>
   <path class="fil0" d="M1766 2264l0 915c872,0 1579,-707 1579,-1579 0,-872 -707,-1579 -1579,-1579l0 913 0 3c395,0 691,297 691,664 0,366 -296,663 -691,663z"/>
   <path class="fil0" d="M2245 1599c0,268 -245,485 -547,485 -303,0 -548,-217 -548,-485 0,-268 245,-486 548,-486 302,0 547,218 547,486z"/>
  </g>
 </g>
</svg>
