<?xml version="1.0" encoding="utf-8"?>
<!-- Generator: Adobe Illustrator 21.0.0, SVG Export Plug-In . SVG Version: 6.00 Build 0)  -->
<svg version="1.1"
	 id="svg2" xmlns:cc="http://creativecommons.org/ns#" xmlns:dc="http://purl.org/dc/elements/1.1/" xmlns:rdf="http://www.w3.org/1999/02/22-rdf-syntax-ns#" xmlns:svg="http://www.w3.org/2000/svg"
	 xmlns="http://www.w3.org/2000/svg" xmlns:xlink="http://www.w3.org/1999/xlink" x="0px" y="0px" viewBox="0 0 666.4 401.2"
	 style="enable-background:new 0 0 666.4 401.2;" xml:space="preserve">
<style type="text/css">
	.st0{fill:#1D5288;stroke:#FFFFFF;stroke-width:0.9396;}
	.st1{fill:#FFFFFF;stroke:#FFFFFF;stroke-opacity:0;}
	.st2{fill:#1F70C3;stroke:#FFFFFF;stroke-width:1.5;}
	.st3{fill:#1F70C3;stroke:#FFFFFF;stroke-width:3;}
	.st4{fill:#FFFFFF;}
</style>
<g id="layer3" transform="translate(-72.21875,-91.625)">
	<rect id="rect3753" x="72.7" y="92.1" class="st0" width="665.5" height="400.3"/>
</g>
<g id="layer6" transform="translate(-72.21875,-91.625)">
	<g id="text3011" transform="scale(1.0493529,0.95296826)">
		<path id="path3860" class="st1" d="M134.4,409.1h-24.7l-3.9,11.1H90l22.7-61.2h18.8l22.7,61.2h-15.9L134.4,409.1 M113.7,397.7
			h16.8l-8.4-24.3L113.7,397.7"/>
		<path id="path3862" class="st1" d="M226.2,375.8v12c-2-1.4-4-2.4-6-3c-2-0.7-4.1-1-6.2-1c-4.1,0-7.3,1.2-9.6,3.6s-3.4,5.7-3.4,10
			s1.1,7.6,3.4,10c2.3,2.4,5.5,3.6,9.6,3.6c2.3,0,4.5-0.3,6.5-1c2.1-0.7,4-1.7,5.7-3v12c-2.3,0.8-4.6,1.5-7,1.9s-4.7,0.7-7.1,0.7
			c-8.3,0-14.8-2.1-19.4-6.4c-4.7-4.3-7-10.2-7-17.7c0-7.6,2.3-13.5,7-17.7c4.7-4.3,11.1-6.4,19.4-6.4c2.4,0,4.8,0.2,7.1,0.7
			C221.5,374.3,223.8,374.9,226.2,375.8"/>
		<path id="path3864" class="st1" d="M287,399.6c-3.1,0-5.4,0.5-6.9,1.6c-1.5,1-2.3,2.6-2.3,4.6c0,1.9,0.6,3.3,1.8,4.4
			c1.3,1,3,1.6,5.2,1.6c2.8,0,5.1-1,7-3s2.8-4.5,2.8-7.5v-1.7H287 M309.4,394.1v26.2h-14.8v-6.8c-2,2.8-4.2,4.8-6.6,6.1
			c-2.5,1.3-5.5,1.9-9,1.9c-4.8,0-8.6-1.4-11.6-4.1c-3-2.8-4.4-6.4-4.4-10.8c0-5.4,1.8-9.3,5.5-11.8S278,391,286,391h8.6v-1.1
			c0-2.3-0.9-4-2.7-5.1c-1.8-1.1-4.7-1.6-8.6-1.6c-3.1,0-6.1,0.3-8.8,0.9c-2.7,0.6-5.2,1.6-7.5,2.8v-11.2c3.1-0.8,6.3-1.3,9.5-1.7
			c3.2-0.4,6.3-0.6,9.5-0.6c8.3,0,14.3,1.6,17.9,4.9C307.5,381.4,309.4,386.7,309.4,394.1"/>
		<path id="path3866" class="st1" d="M381.9,381.1v-24.6h14.8v63.8h-14.8v-6.6c-2,2.7-4.2,4.7-6.7,5.9c-2.4,1.3-5.2,1.9-8.4,1.9
			c-5.7,0-10.3-2.2-13.9-6.7s-5.5-10.3-5.5-17.4s1.8-12.9,5.5-17.3c3.6-4.5,8.3-6.8,13.9-6.8c3.2,0,6,0.6,8.4,1.9
			C377.6,376.4,379.8,378.4,381.9,381.1 M372.2,410.8c3.1,0,5.5-1.1,7.2-3.4s2.5-5.6,2.5-10s-0.8-7.7-2.5-10c-1.6-2.3-4-3.4-7.2-3.4
			c-3.1,0-5.5,1.1-7.2,3.4c-1.6,2.3-2.5,5.6-2.5,10s0.8,7.7,2.5,10C366.7,409.6,369.1,410.8,372.2,410.8"/>
		<path id="path3868" class="st1" d="M484.1,397.2v4.2h-34.3c0.4,3.4,1.6,6,3.7,7.7s5.1,2.6,8.9,2.6c3.1,0,6.2-0.5,9.5-1.4
			s6.6-2.3,10-4.2v11.3c-3.5,1.3-6.9,2.3-10.4,3s-6.9,1-10.4,1c-8.3,0-14.8-2.1-19.4-6.3c-4.6-4.2-6.9-10.2-6.9-17.8
			c0-7.5,2.3-13.4,6.8-17.7c4.5-4.3,10.8-6.4,18.7-6.4c7.2,0,13,2.2,17.3,6.5C481.9,384.1,484.1,389.9,484.1,397.2 M469,392.3
			c0-2.8-0.8-5-2.5-6.7c-1.6-1.7-3.7-2.6-6.4-2.6c-2.8,0-5.2,0.8-6.9,2.4c-1.8,1.6-2.9,3.9-3.3,6.9L469,392.3"/>
		<path id="path3870" class="st1" d="M565.2,382c1.9-2.8,4.1-5,6.6-6.5c2.6-1.5,5.4-2.3,8.4-2.3c5.3,0,9.3,1.6,12.1,4.9
			s4.1,8,4.1,14.2v28h-14.8v-23.9c0-0.4,0-0.7,0-1.1s0-0.9,0-1.6c0-3.3-0.5-5.6-1.4-7.1c-1-1.5-2.5-2.2-4.6-2.2
			c-2.8,0-4.9,1.1-6.5,3.4c-1.5,2.3-2.3,5.6-2.3,10v22.5H552v-23.9c0-5.1-0.4-8.3-1.3-9.8c-0.9-1.5-2.4-2.2-4.7-2.2
			c-2.8,0-5,1.2-6.5,3.5s-2.3,5.6-2.3,9.9v22.6h-14.8v-45.9h14.8v6.7c1.8-2.6,3.9-4.5,6.2-5.9c2.4-1.3,4.9-2,7.7-2
			c3.2,0,6,0.8,8.4,2.3C562.1,377.1,564,379.2,565.2,382"/>
		<path id="path3872" class="st1" d="M631.7,374.3h14.7l12.3,31.2l10.5-31.2h14.7l-19.3,50.3c-1.9,5.1-4.2,8.7-6.8,10.7
			s-6,3.1-10.2,3.1h-8.5v-9.6h4.6c2.5,0,4.3-0.4,5.4-1.2c1.1-0.8,2-2.2,2.7-4.3l0.4-1.3L631.7,374.3"/>
	</g>
</g>
<g id="g3836" transform="translate(-72.21875,-91.625)">
	<g id="text3838" transform="scale(1.0493529,0.95296826)">
		<path id="path3875" class="st2" d="M370.8,463c-2.9,0-5.1,1-6.7,3.1c-1.5,2.1-2.3,5.1-2.3,9s0.8,6.9,2.3,9s3.8,3.1,6.7,3.1
			c2.9,0,5-1,6.6-3.1c1.5-2.1,2.3-5.1,2.3-9s-0.8-6.9-2.3-9C375.8,464.1,373.6,463,370.8,463 M370.8,453.7c7.1,0,12.6,1.9,16.5,5.7
			c4,3.8,6,9.1,6,15.8c0,6.7-2,12-6,15.8s-9.5,5.7-16.5,5.7c-7.1,0-12.6-1.9-16.6-5.7c-4-3.8-6-9.1-6-15.8c0-6.7,2-12,6-15.8
			C358.2,455.6,363.7,453.7,370.8,453.7"/>
		<path id="path3877" class="st2" d="M448.6,470.7v25h-13.2v-4.1v-15.1c0-3.5-0.1-6-0.3-7.3c-0.1-1.3-0.4-2.3-0.8-3
			c-0.5-0.9-1.2-1.5-2.1-2s-1.9-0.7-3-0.7c-2.7,0-4.9,1.1-6.4,3.2c-1.6,2.1-2.3,5-2.3,8.8v20.2h-13.1v-41h13.1v6
			c2-2.4,4.1-4.2,6.3-5.3c2.2-1.1,4.7-1.7,7.4-1.7c4.7,0,8.3,1.5,10.8,4.4C447.3,460.9,448.6,465.2,448.6,470.7"/>
		<path id="path3879" class="st2" d="M465.3,438.7h13.1v57h-13.1V438.7"/>
		<path id="path3881" class="st2" d="M495.6,454.7h13.1v41h-13.1V454.7 M495.6,438.7h13.1v10.7h-13.1V438.7"/>
		<path id="path3883" class="st2" d="M567.1,470.7v25h-13.2v-4.1v-15.1c0-3.5-0.1-6-0.3-7.3c-0.1-1.3-0.4-2.3-0.8-3
			c-0.5-0.9-1.2-1.5-2.1-2c-0.9-0.5-1.9-0.7-3-0.7c-2.7,0-4.9,1.1-6.4,3.2c-1.6,2.1-2.3,5-2.3,8.8v20.2h-13.1v-41H539v6
			c2-2.4,4.1-4.2,6.3-5.3c2.2-1.1,4.7-1.7,7.4-1.7c4.7,0,8.3,1.5,10.8,4.4C565.9,460.9,567.1,465.2,567.1,470.7"/>
		<path id="path3885" class="st2" d="M624.8,475.1v3.7h-30.7c0.3,3.1,1.4,5.4,3.3,6.9s4.6,2.3,8,2.3c2.8,0,5.6-0.4,8.5-1.2
			c2.9-0.8,5.9-2.1,8.9-3.7v10.1c-3.1,1.2-6.2,2.1-9.3,2.6c-3.1,0.6-6.2,0.9-9.3,0.9c-7.4,0-13.2-1.9-17.3-5.6
			c-4.1-3.8-6.2-9.1-6.2-15.9c0-6.7,2-12,6-15.8c4.1-3.8,9.6-5.7,16.7-5.7c6.4,0,11.6,1.9,15.5,5.8
			C622.8,463.4,624.8,468.6,624.8,475.1 M611.3,470.7c0-2.5-0.7-4.5-2.2-6c-1.4-1.5-3.3-2.3-5.7-2.3c-2.5,0-4.6,0.7-6.2,2.2
			c-1.6,1.4-2.6,3.5-3,6.2h17.1"/>
	</g>
</g>
<g id="layer2" transform="translate(-72.21875,-91.625)">
	<path id="path3793" class="st3" d="M715.9,226.3c0,62.3-50.7,112.8-113.3,112.8s-113.4-50.4-113.4-112.7v-0.1
		c0-62.3,50.7-112.8,113.3-112.8s113.4,50.4,113.4,112.7C715.9,226.2,715.9,226.3,715.9,226.3z"/>
</g>
<g id="layer1" transform="translate(-72.21875,-91.625)">
	<g id="flowRoot3755" transform="matrix(9.5931332,0,0,9.8022588,-1256.5719,-2727.1871)">
		<path id="path3007" class="st4" d="M149.1,298.7v-5.9h3.5V308h-3.5v-1.6c-0.5,0.6-1,1.1-1.6,1.4s-1.3,0.4-2,0.4
			c-1.3,0-2.5-0.5-3.3-1.6c-0.9-1.1-1.3-2.5-1.3-4.1c0-1.7,0.4-3.1,1.3-4.1c0.9-1.1,2-1.6,3.3-1.6c0.8,0,1.4,0.2,2,0.5
			C148.1,297.6,148.6,298,149.1,298.7 M146.8,305.7c0.7,0,1.3-0.3,1.7-0.8s0.6-1.3,0.6-2.4c0-1-0.2-1.8-0.6-2.4
			c-0.4-0.5-1-0.8-1.7-0.8s-1.3,0.3-1.7,0.8s-0.6,1.3-0.6,2.4s0.2,1.8,0.6,2.4C145.5,305.5,146.1,305.7,146.8,305.7"/>
		<path id="path3009" class="st4" d="M167,301.3v6.7h-3.5v-1.1v-4c0-1,0-1.6-0.1-2c0-0.4-0.1-0.6-0.2-0.8c-0.1-0.2-0.3-0.4-0.6-0.5
			c-0.2-0.1-0.5-0.2-0.8-0.2c-0.7,0-1.3,0.3-1.7,0.8c-0.4,0.6-0.6,1.3-0.6,2.3v5.4H156v-15.2h3.5v5.9c0.5-0.6,1.1-1.1,1.7-1.4
			c0.6-0.3,1.2-0.5,2-0.5c1.3,0,2.2,0.4,2.9,1.2C166.7,298.7,167,299.9,167,301.3"/>
		<path id="path3011" class="st4" d="M170.3,297.1h3.5V308h-3.5V297.1 M170.3,292.8h3.5v2.9h-3.5V292.8"/>
		<path id="path3013" class="st4" d="M185.7,297.4v2.7c-0.7-0.3-1.5-0.5-2.2-0.7s-1.4-0.2-2-0.2c-0.7,0-1.2,0.1-1.5,0.3
			c-0.3,0.2-0.5,0.4-0.5,0.8c0,0.3,0.1,0.5,0.4,0.6c0.2,0.1,0.7,0.3,1.3,0.3l0.6,0.1c1.8,0.2,3,0.6,3.6,1.1s0.9,1.3,0.9,2.5
			c0,1.2-0.4,2-1.3,2.6c-0.9,0.6-2.1,0.9-3.8,0.9c-0.7,0-1.5-0.1-2.2-0.2c-0.8-0.1-1.6-0.3-2.4-0.5V305c0.7,0.3,1.4,0.6,2.1,0.8
			c0.7,0.2,1.5,0.3,2.2,0.3s1.2-0.1,1.5-0.3c0.3-0.2,0.5-0.5,0.5-0.8s-0.1-0.5-0.4-0.7c-0.2-0.2-0.7-0.3-1.4-0.4l-0.6-0.1
			c-1.6-0.2-2.6-0.6-3.3-1.1c-0.6-0.5-0.9-1.3-0.9-2.4c0-1.2,0.4-2,1.2-2.6s2-0.8,3.7-0.8c0.6,0,1.3,0,2,0.1
			C184.1,297,184.9,297.2,185.7,297.4"/>
	</g>
</g>
<g id="g3826" transform="translate(-72.21875,-91.625)">
	<g id="flowRoot3828" transform="matrix(9.5931332,0,0,9.8022588,-802.5719,-2727.1871)">
		<path id="path3016" class="st4" d="M145.8,305.2h6.4v2.8h-10.6v-2.8l5.3-4.7c0.5-0.4,0.8-0.8,1.1-1.3c0.2-0.4,0.3-0.8,0.3-1.3
			c0-0.7-0.2-1.2-0.7-1.7c-0.5-0.4-1.1-0.6-1.8-0.6c-0.6,0-1.2,0.1-1.9,0.4c-0.7,0.2-1.4,0.6-2.2,1.1V294c0.8-0.3,1.7-0.5,2.5-0.6
			s1.6-0.2,2.4-0.2c1.7,0,3.1,0.4,4.1,1.2c1,0.8,1.5,1.8,1.5,3.2c0,0.8-0.2,1.5-0.6,2.2c-0.4,0.7-1.3,1.6-2.6,2.8L145.8,305.2"/>
	</g>
</g>
</svg>
