<?xml version="1.0" encoding="utf-8"?>
<!-- Generator: Adobe Illustrator 19.0.0, SVG Export Plug-In . SVG Version: 6.00 Build 0)  -->
<svg version="1.1" xmlns="http://www.w3.org/2000/svg" xmlns:xlink="http://www.w3.org/1999/xlink" x="0px" y="0px"
	 viewBox="0 0 102 50" style="enable-background:new 0 0 102 50;" xml:space="preserve">
<style type="text/css">
	.st0{display:none;}
	.st1{display:inline;}
	.st2{fill:#FFFFFF;}
</style>
<g id="Layer_2" class="st0">
	<rect x="-49" class="st1" width="200" height="50"/>
</g>
<g id="Layer_1">
	<g>
		<rect x="0.6" y="39.8" class="st2" width="97.7" height="0.7"/>
		<path class="st2" d="M4.1,48c-0.3,0.1-0.7,0.2-1,0.2c-1.4,0-2.4-0.8-2.4-2.4c0-1.6,0.9-2.6,2.4-2.6c0.3,0,0.7,0.1,1,0.2l-0.1,0.8
			c-0.3-0.2-0.6-0.3-0.9-0.3c-0.9,0-1.5,0.8-1.5,1.7c0,1,0.5,1.7,1.5,1.7c0.3,0,0.7-0.1,0.9-0.2L4.1,48z"/>
		<path class="st2" d="M6.1,46.2c0-0.5,0.3-1.1,0.8-1.1c0.5,0,0.8,0.5,0.8,1.1c0,0.6-0.2,1.2-0.8,1.2C6.2,47.4,6.1,46.7,6.1,46.2z
			 M5.2,46.3c0,1,0.6,1.8,1.7,1.8c1.1,0,1.7-0.8,1.7-1.8c0-1.2-0.7-1.9-1.7-1.9C5.9,44.4,5.2,45.1,5.2,46.3z"/>
		<path class="st2" d="M9.9,44.5h0.8V45h0c0.3-0.4,0.6-0.6,0.9-0.6c0.4,0,0.8,0.2,0.9,0.6c0.2-0.4,0.6-0.6,1-0.6c0.8,0,1,0.6,1,1.4
			V48h-0.8v-2.1c0-0.3,0-0.8-0.5-0.8c-0.6,0-0.6,0.7-0.6,1.2V48h-0.8v-2.1c0-0.3,0-0.8-0.5-0.8c-0.6,0-0.6,0.7-0.6,1.2V48H9.9V44.5z
			"/>
		<path class="st2" d="M17.8,45.1c0.5,0,0.7,0.7,0.7,1.1c0,0.5-0.2,1.2-0.7,1.2c-0.6,0-0.7-0.6-0.7-1.2C17,45.7,17.2,45.1,17.8,45.1
			z M16.2,49.5H17v-1.9h0c0.3,0.4,0.6,0.5,0.9,0.5c1,0,1.4-0.9,1.4-1.9c0-1-0.4-1.8-1.3-1.8c-0.5,0-0.8,0.2-1,0.6h0v-0.5h-0.8V49.5z
			"/>
		<path class="st2" d="M23.6,48h-0.8v-0.5h0c-0.3,0.3-0.6,0.6-1,0.6c-0.8,0-1.1-0.6-1.1-1.4v-2.2h0.8v1.9c0,0.4,0,1,0.5,1
			c0.6,0,0.7-0.7,0.7-1.2v-1.7h0.8V48z"/>
		<path class="st2" d="M25.5,45.1h-0.6v-0.7h0.6v-0.7l0.8-0.3v1h0.7v0.7h-0.7v1.7c0,0.3,0.1,0.6,0.4,0.6c0.1,0,0.3,0,0.4-0.1l0,0.7
			c-0.2,0.1-0.4,0.1-0.6,0.1c-0.7,0-1-0.4-1-1.2V45.1z"/>
		<path class="st2" d="M28.9,45.9c0-0.5,0.3-0.8,0.7-0.8c0.5,0,0.7,0.4,0.7,0.8H28.9z M30.9,47.1c-0.3,0.2-0.7,0.4-1.1,0.4
			c-0.5,0-0.9-0.3-0.9-0.9h2.2c0-1.2-0.3-2.1-1.5-2.1c-1,0-1.5,0.8-1.5,1.9c0,1.2,0.6,1.8,1.7,1.8c0.4,0,0.8-0.1,1.1-0.3V47.1z"/>
		<path class="st2" d="M32.6,44.5h0.7v0.8h0c0-0.3,0.4-0.9,0.9-0.9c0.1,0,0.2,0,0.3,0v0.9c-0.1,0-0.2-0.1-0.4-0.1
			c-0.7,0-0.7,0.9-0.7,1.4V48h-0.8V44.5z"/>
		<path class="st2" d="M38.5,43.2h0.9v4.1H41V48h-2.6V43.2z"/>
		<path class="st2" d="M42.8,45.9c0-0.5,0.3-0.8,0.7-0.8c0.5,0,0.7,0.4,0.7,0.8H42.8z M44.8,47.1c-0.3,0.2-0.7,0.4-1.1,0.4
			c-0.5,0-0.9-0.3-0.9-0.9H45c0-1.2-0.3-2.1-1.5-2.1c-1,0-1.5,0.8-1.5,1.9c0,1.2,0.6,1.8,1.7,1.8c0.4,0,0.8-0.1,1.1-0.3V47.1z"/>
		<path class="st2" d="M47,47c0-0.5,0.6-0.6,0.9-0.6h0.4c0,0.3,0,0.5-0.2,0.7c-0.1,0.2-0.3,0.3-0.6,0.3C47.2,47.4,47,47.3,47,47z
			 M46.6,45.4c0.3-0.2,0.6-0.4,1-0.4c0.5,0,0.7,0.2,0.7,0.8h-0.5c-0.3,0-0.8,0-1.1,0.2c-0.3,0.2-0.5,0.5-0.5,1
			c0,0.7,0.6,1.1,1.1,1.1c0.4,0,0.8-0.2,1-0.6h0c0,0.1,0,0.3,0,0.5h0.7c0-0.3,0-0.5,0-0.8c0-0.3,0-0.5,0-0.9v-0.5
			c0-1-0.4-1.5-1.4-1.5c-0.4,0-0.8,0.1-1.1,0.3L46.6,45.4z"/>
		<path class="st2" d="M50.6,44.5h0.7v0.8h0c0-0.3,0.4-0.9,0.9-0.9c0.1,0,0.2,0,0.3,0v0.9c-0.1,0-0.2-0.1-0.4-0.1
			c-0.7,0-0.7,0.9-0.7,1.4V48h-0.8V44.5z"/>
		<path class="st2" d="M53.8,44.5h0.8V45h0c0.3-0.4,0.6-0.6,1-0.6c0.8,0,1.1,0.6,1.1,1.4V48h-0.8v-1.9c0-0.4,0-1-0.5-1
			c-0.6,0-0.7,0.7-0.7,1.2V48h-0.8V44.5z"/>
		<path class="st2" d="M58.4,44.5h0.8V48h-0.8V44.5z M58.4,42.9h0.8v0.9h-0.8V42.9z"/>
		<path class="st2" d="M60.8,44.5h0.8V45h0c0.3-0.4,0.6-0.6,1-0.6c0.8,0,1.1,0.6,1.1,1.4V48h-0.8v-1.9c0-0.4,0-1-0.5-1
			c-0.6,0-0.7,0.7-0.7,1.2V48h-0.8V44.5z"/>
		<path class="st2" d="M66.7,47.3c-0.5,0-0.7-0.6-0.7-1.1c0-0.5,0.2-1.1,0.7-1.1c0.5,0,0.7,0.5,0.7,1.1
			C67.4,46.8,67.2,47.3,66.7,47.3z M67.5,44.5V45h0c-0.2-0.4-0.6-0.6-1-0.6c-1,0-1.4,1-1.4,1.8c0,1,0.4,1.8,1.3,1.8
			c0.5,0,0.8-0.3,1-0.6h0c0,0.6,0,1.4-1,1.4c-0.3,0-0.7-0.2-0.9-0.3l-0.1,0.8c0.4,0.2,0.8,0.2,1.1,0.2c1.3,0,1.7-0.9,1.7-1.9v-3.2
			H67.5z"/>
		<path class="st2" d="M75.6,47.9c-0.3,0.1-0.7,0.2-1,0.2c-1.4,0-2.4-0.8-2.4-2.4c0-1.6,0.9-2.6,2.4-2.6c0.3,0,0.7,0.1,1,0.2
			L75.5,44c-0.3-0.2-0.6-0.3-0.9-0.3c-0.9,0-1.5,0.8-1.5,1.7c0,1,0.5,1.7,1.5,1.7c0.3,0,0.7-0.1,0.9-0.2L75.6,47.9z"/>
		<path class="st2" d="M77.5,45.8c0-0.5,0.3-0.8,0.7-0.8c0.5,0,0.7,0.4,0.7,0.8H77.5z M79.5,47c-0.3,0.2-0.7,0.4-1.1,0.4
			c-0.5,0-0.9-0.3-0.9-0.9h2.2c0-1.2-0.3-2.1-1.5-2.1c-1,0-1.5,0.8-1.5,1.9c0,1.2,0.6,1.8,1.7,1.8c0.4,0,0.8-0.1,1.1-0.3V47z"/>
		<path class="st2" d="M81.1,44.4h0.8v0.5h0c0.3-0.4,0.6-0.6,1-0.6c0.8,0,1.1,0.6,1.1,1.4v2.2h-0.8V46c0-0.4,0-1-0.5-1
			c-0.6,0-0.7,0.7-0.7,1.2v1.7h-0.8V44.4z"/>
		<path class="st2" d="M85.9,45.1h-0.6v-0.7h0.6v-0.7l0.8-0.3v1h0.7v0.7h-0.7v1.7c0,0.3,0.1,0.6,0.4,0.6c0.1,0,0.3,0,0.4-0.1l0,0.7
			C87.3,48,87.1,48,86.9,48c-0.7,0-1-0.4-1-1.2V45.1z"/>
		<path class="st2" d="M89.3,45.8c0-0.5,0.3-0.8,0.7-0.8c0.5,0,0.7,0.4,0.7,0.8H89.3z M91.3,47c-0.3,0.2-0.7,0.4-1.1,0.4
			c-0.5,0-0.9-0.3-0.9-0.9h2.2c0-1.2-0.3-2.1-1.5-2.1c-1,0-1.5,0.8-1.5,1.9c0,1.2,0.6,1.8,1.7,1.8c0.4,0,0.8-0.1,1.1-0.3V47z"/>
		<path class="st2" d="M92.9,44.4h0.7v0.8h0c0-0.3,0.4-0.9,0.9-0.9c0.1,0,0.2,0,0.3,0v0.9c-0.1,0-0.2-0.1-0.4-0.1
			c-0.7,0-0.7,0.9-0.7,1.4v1.3h-0.8V44.4z"/>
		<path class="st2" d="M97.9,45.1C97.7,45,97.5,45,97.2,45c-0.2,0-0.5,0.1-0.5,0.4c0,0.6,1.4,0.2,1.4,1.5c0,0.8-0.7,1.2-1.3,1.2
			c-0.3,0-0.6-0.1-0.9-0.2l0-0.8c0.3,0.1,0.5,0.2,0.8,0.2c0.2,0,0.5-0.1,0.5-0.4c0-0.7-1.4-0.2-1.4-1.5c0-0.8,0.6-1.1,1.3-1.1
			c0.4,0,0.6,0.1,0.9,0.1L97.9,45.1z"/>
		<g>
			<path class="st2" d="M14.6,25v-0.6h-4.4V25l0.1,0c1.4,0,1.7,0.3,1.7,1.4v7.8l-8.4-9.7l0,0h-3V25l0.1,0c0.6,0,1,0.2,1.4,0.5v9.9
				c0,0.9-0.4,1.3-1.4,1.3H0.5v0.6h4.4v-0.6H4.8c-1.5,0-1.7-0.2-1.7-1.7v-8.4l9.3,10.8H13V26C13,25.2,13.2,25,14.6,25L14.6,25z"/>
			<path class="st2" d="M20.5,30.7c-0.3-0.8-0.8-1.9-2.7-1.9c-2.3,0-3.6,2.3-3.6,4.4c0,2.4,1.4,4.2,3.2,4.2c1.6,0,2.7-1.3,3.3-2.1
				l0-0.1l-0.3-0.4L20.5,35c-0.7,0.9-1.4,1.3-2.2,1.3c-1.3,0-2.7-1.3-2.7-3.4c0-0.2,0-0.5,0.1-0.8h5.3v-0.6l0,0
				C20.8,31.3,20.7,31,20.5,30.7z M17.5,29.3c0.8,0,1.5,0.8,1.7,2h-3.5C16,30,16.7,29.3,17.5,29.3z"/>
			<path class="st2" d="M30.7,29.5L30.7,29.5c0.7,0,1,0.1,1.1,0.3c0.1,0.2,0.1,0.5-0.1,1l-1.7,4.5l-1.7-4.6c-0.2-0.5-0.2-0.8-0.1-1
				c0.1-0.2,0.4-0.2,0.8-0.2l0.1,0V29h-3.9v0.5l0.5,0.1c0.6,0.1,0.9,0.4,1.3,1.4l-1.7,4.4l-1.9-4.7c-0.2-0.5-0.3-0.8-0.2-1
				c0.1-0.2,0.4-0.2,0.8-0.3l0.1,0V29h-3.7v0.5l0.1,0c0.8,0.1,1,0.4,1.3,1l2.7,6.8h0.6l2.1-5.5l2.1,5.5H30l2.4-6.4
				c0.3-0.9,0.7-1.3,1.4-1.4l0.1,0V29h-3.2V29.5z"/>
			<path class="st2" d="M48.5,35v-8.4c0-1.2,0.3-1.5,1.3-1.6l0.1,0v-0.6h-4.8V25h0.4c1,0,1.3,0.3,1.3,1.4v3.9h-7v-3.4
				c0-1.6,0.2-1.9,1.4-1.9h0.1v-0.6h-4.5V25l0.1,0c1,0.1,1.2,0.4,1.2,1.3v8.9c0,1.1-0.3,1.4-1.3,1.4h-0.2v0.6h4.7v-0.6h-0.1
				c-1.2,0-1.4-0.4-1.4-1.7v-3.7h7v4c0,1-0.2,1.4-1.3,1.4h-0.7v0.6h5.3v-0.6h-0.3C48.9,36.6,48.5,36.4,48.5,35z"/>
			<path class="st2" d="M54,28.8c-1.9,0-4,1.5-4,4.4c0,2.4,1.7,4.3,4.1,4.3c2.2,0,3.9-1.9,3.9-4.3C58,30.6,56.3,28.8,54,28.8z
				 M54.2,36.8c-1.5,0-2.7-1.9-2.7-4.3c0-1.6,1-3,2.2-3c1.5,0,2.7,1.9,2.7,4.2C56.4,35.6,55.3,36.8,54.2,36.8z"/>
			<path class="st2" d="M63.7,29.3c-0.2-0.1-0.4-0.1-0.5-0.2c-0.4-0.2-0.4-0.2-0.7-0.2c-0.6,0-0.9,0.4-1.7,1.9v-2h-0.5l-2.2,0.8v0.5
				l1.2,0.5v4.6c0,1-0.3,1.4-1.1,1.4l-0.1,0v0.6h4.5v-0.6H62c-0.9,0-1.1-0.2-1.1-1v-3.9c0.1-0.3,0.3-0.6,0.6-1
				c0.2-0.3,0.4-0.5,0.6-0.5c0.2,0,0.4,0.1,0.6,0.2c0.3,0.2,0.7,0.3,1,0.3l0.1,0l0.5-1.4l-0.1,0C64,29.3,63.8,29.3,63.7,29.3z"/>
			<path class="st2" d="M67.4,35.6v-6.9h-0.4l-2.4,0.9v0.5l0.9,0.2c0.4,0.1,0.5,0.1,0.5,0.9v4.1c0,1-0.4,1.4-1.4,1.4h-0.1v0.6h4.2
				v-0.6h-0.1C67.8,36.6,67.4,36.3,67.4,35.6z"/>
			<path class="st2" d="M66.6,25.8c0.5,0,0.9-0.4,0.9-0.9c0-0.5-0.4-0.9-0.9-0.9c-0.5,0-0.9,0.4-0.9,0.9
				C65.7,25.5,66.1,25.8,66.6,25.8z"/>
			<path class="st2" d="M75.5,34.9c-0.4,1-0.6,1.4-1.2,1.4h-3.2l4.5-6.8l0,0V29h-4.4c-0.7,0-0.8-0.1-0.8-0.5v-0.1H70l-0.6,3.4H70
				l0.1-0.5c0.3-1.1,0.4-1.5,0.8-1.5h2.9l-4.5,6.8l0,0v0.5h6l0.8-2.4L75.5,34.9L75.5,34.9z"/>
			<path class="st2" d="M80.2,28.8c-1.9,0-4,1.5-4,4.4c0,2.4,1.7,4.3,4.1,4.3c2.2,0,3.9-1.9,3.9-4.3C84.2,30.6,82.5,28.8,80.2,28.8z
				 M80.5,36.8c-1.5,0-2.7-1.9-2.7-4.3c0-1.6,1-3,2.2-3c1.5,0,2.7,1.9,2.7,4.2C82.7,35.6,81.6,36.8,80.5,36.8z"/>
			<path class="st2" d="M92.2,36.4c-0.1-0.1-0.2-0.3-0.1-0.5c0-0.2,0-0.5,0-0.7c0-0.6,0.1-1.4,0.1-3.3c0-2-0.7-3.1-2-3.1
				c-0.9,0-1.8,0.7-3,1.5l-0.1,0v-1.5h-0.4l-2.2,0.9v0.5l0.7,0.2c0.4,0.1,0.5,0.2,0.5,0.9v4.2c0,0.8-0.4,1.2-1.1,1.2h-0.1v0.6h3.8
				v-0.6h-0.1c-0.9,0-1.1-0.2-1.1-1.3V31c1.1-0.8,1.9-1.2,2.3-1.2c0.5,0,1.3,0.3,1.3,2c0,2.5,0,4.1-0.4,4.5c-0.2,0.2-0.5,0.3-1,0.4
				l-0.1,0v0.6h4.1v-0.6H93C92.6,36.6,92.4,36.5,92.2,36.4z"/>
			<path class="st2" d="M96.2,32.3c-0.8-0.6-1.4-1-1.4-1.8c0-0.6,0.4-1,1-1c0.7,0,1.2,0.6,1.4,1.6l0,0.1h0.5l0-2l-0.1,0
				c-0.5-0.2-1-0.3-1.5-0.3c-1.4,0-2.4,1-2.4,2.3c0,1.1,0.6,1.6,1.4,2.2c0.4,0.3,0.9,0.6,1.3,1.1c0.5,0.5,0.6,0.8,0.6,1.2
				c0,0.7-0.5,1.2-1.2,1.2c-0.8,0-1.4-0.7-1.6-1.8l0-0.1h-0.5l0.2,2.4h0.4l0,0c0.1-0.1,0.2-0.2,0.2-0.2c0.1,0,0.2,0,0.3,0.1
				c0,0,0.1,0,0.1,0c0.2,0.1,0.5,0.1,0.8,0.1c1.3,0,2.3-1,2.3-2.4C98.2,33.7,97.1,32.9,96.2,32.3z"/>
			<path class="st2" d="M100.9,28.3c0-0.4-0.2-0.5-0.6-0.5h-0.6v1.6h0.3v-0.7h0.2l0.4,0.7h0.3l-0.4-0.7
				C100.7,28.7,100.9,28.6,100.9,28.3z M100.3,28.5H100v-0.4h0.2c0.1,0,0.3,0,0.3,0.2C100.5,28.5,100.4,28.5,100.3,28.5z"/>
			<path class="st2" d="M100.2,27.2c-0.8,0-1.4,0.6-1.4,1.4c0,0.8,0.6,1.4,1.4,1.4c0.8,0,1.4-0.6,1.4-1.4
				C101.7,27.9,101,27.2,100.2,27.2z M100.2,29.8c-0.6,0-1-0.4-1-1.1c0-0.7,0.4-1.1,1-1.1c0.6,0,1,0.5,1,1.1
				C101.2,29.3,100.8,29.8,100.2,29.8z"/>
		</g>
		<g>
			<path class="st2" d="M22.7,13.1c-1.7,2.4-3,5.2-3.9,8.3h0.7c1.5-5.2,4.3-9.4,8.1-12.5c0.3-0.2,0.5-0.4,0.8-0.6
				c-2,2.7-2.9,6.5-3,10.2l-5,2.9h1.4l3.6-2.1c0,0.7,0,1.4,0.1,2.1h0.7c-0.1-0.8-0.1-1.6-0.1-2.5l9.1-5.2l4.4,7.7h0.8l-4.6-8
				l8.5-4.9c3.2,1.9,7,5,11.4,9.5l-6,3.4h1.4l5.1-2.9c0.9,0.9,1.8,1.9,2.7,2.9h0.7l0.1-0.1c-1-1.1-2-2.2-3-3.2l10.5-6
				c3.1,2.6,6,5.7,8.5,9.3h0.9c-2.5-3.7-5.4-7-8.7-9.7l5.8-3.3c4.7,3.3,8.7,7.7,11.6,13h0.8C80.1,9.9,69.1,2.6,56.2,1.1l0-0.1
				l-0.1,0c-1.6-0.2-3.1-0.3-4.8-0.3c-0.1,0-0.3,0-0.4,0C45,0.9,39.3,2.1,34.3,4.4c-2.6,1-5,2.4-7.1,4.1c-4.7,3.4-8.5,7.8-11.1,13
				l0.1,0h0.7C18.4,18.4,20.4,15.6,22.7,13.1z M39.7,3.6C43.4,3,47.2,3.2,51,4l-6.6,3.8c-3.9-2.3-6.9-3-9.3-2.9
				C36.5,4.3,38.1,3.9,39.7,3.6z M26.1,18.1c0.2-4.6,1.7-9.3,5.1-11.5l3.7,6.5L26.1,18.1z M35.5,12.8l-3.7-6.5
				c0.1-0.1,0.2-0.1,0.4-0.2c2.4-1.1,6.1-1.2,11.5,2L35.5,12.8z M56.4,17.6c-4.4-4.5-8.1-7.5-11.4-9.5l6.9-4
				c5.2,1.3,10.3,3.8,14.8,7.5L56.4,17.6z M67.5,11.3c-2.6-2.1-5.4-3.9-8.4-5.3c-2-1-4.1-1.7-6.2-2.3l3.3-1.9c6.2,0.7,12,2.9,17,6.2
				L67.5,11.3z M50.9,1.5c1.4,0,2.8,0,4.1,0.2l-3.1,1.8c-3.6-0.8-7.2-1.1-10.8-0.7C44.3,2,47.5,1.6,50.9,1.5z"/>
		</g>
	</g>
</g>
</svg>
