<?xml version="1.0" encoding="UTF-8"?>
<svg width="359px" height="40px" viewBox="0 0 359 40" version="1.1" xmlns="http://www.w3.org/2000/svg" xmlns:xlink="http://www.w3.org/1999/xlink">
    <!-- Generator: Sketch 52.2 (67145) - http://www.bohemiancoding.com/sketch -->
    <title>Artboard</title>
    <desc>Created with Sketch.</desc>
    <g id="Artboard" stroke="none" stroke-width="1" fill="none" fill-rule="evenodd">
        <text id="Academies-Placeholde" font-family="OpenSans-Bold, Open Sans" font-size="25" font-weight="bold" fill="#4A90E2">
            <tspan x="56" y="30">Academies Placeholder</tspan>
        </text>
        <g id="flaticon1541254428-svg" transform="translate(13.000000, 4.000000)" fill="#000000">
            <path d="M29.0289706,11.4530672 L29.0289706,7.73168067 C29.0289706,7.71983193 29.0278361,7.70829832 29.0272059,7.69663866 C29.027521,7.68813025 29.0289706,7.67987395 29.0289706,7.67136555 C29.0289706,7.43413866 28.8956723,7.21695378 28.6841597,7.1094958 L14.8205672,0.0683193277 C14.6411975,-0.0227521008 14.4291807,-0.0227521008 14.2498109,0.0683193277 L0.386218487,7.10955882 C0.174642857,7.21701681 0.041407563,7.43413866 0.041407563,7.67142857 C0.041407563,7.90871849 0.174705882,8.12584034 0.386218487,8.23329832 L6.59508403,11.3867647 L6.59508403,13.3813866 C6.59508403,13.5556513 6.6680042,13.7195168 6.79203782,13.8373739 C6.27542017,14.3655882 5.81237395,14.9481303 5.40686975,15.5814706 C2.18439076,20.6148529 3.65773109,27.3314496 8.69111345,30.5539286 C10.4737815,31.6951891 12.5018697,32.2689706 14.5346849,32.2689076 C16.3791176,32.2688445 18.227521,31.7963445 19.8986345,30.8467437 C20.2012185,30.6747479 20.3071008,30.290105 20.1351681,29.987521 C19.9632353,29.685 19.5785294,29.5789916 19.2759454,29.7509874 C17.7985084,30.5904832 16.1653992,31.0081513 14.5348739,31.0080252 C14.5058193,31.0080252 14.4767647,31.0067647 14.4476471,31.0065126 C14.3097479,30.6221218 14.3202101,30.0867227 14.7622689,29.6681723 L17.6162395,26.9660924 C18.0988235,26.5091597 18.2488866,25.7910504 17.9894748,25.1790756 L17.2354412,23.4001261 C17.1547689,23.2097269 17.0397479,23.0390546 16.8935294,22.8927731 L16.5870378,22.5862815 C16.490042,22.4893487 16.4836134,22.3764076 16.4884664,22.3178571 C16.4933193,22.2592437 16.5179622,22.1488235 16.6293908,22.0690336 L18.015,21.0754412 C18.1222059,20.9985504 18.2656513,20.9907983 18.3805462,21.0555252 L19.1121429,21.4679622 C19.6944328,21.7961345 20.4273529,21.7254832 20.9360924,21.2921218 C21.7319118,20.6142857 22.0740126,19.599958 21.8512815,18.5785714 C21.6284874,17.5571849 20.895,16.777437 19.8891807,16.4926891 L19.3428782,16.3379622 C19.2130462,16.3012185 19.1522899,16.2078151 19.127584,16.1554412 C19.1073529,16.112521 19.0813866,16.0332983 19.1026261,15.9382563 C19.365063,15.5872689 19.4070378,15.1158403 19.1989286,14.7178992 L18.5592227,13.495084 C18.7690966,13.4732773 18.9809244,13.4613025 19.1944538,13.4613025 C19.4382983,13.4613025 19.68,13.4758613 19.9188655,13.5040966 C24.1782983,16.3970168 25.3863025,22.2413445 22.6021008,26.5901471 C22.4144118,26.8832143 22.499937,27.2728992 22.7930672,27.4605882 C22.8982563,27.5279622 23.0159244,27.5601681 23.1322059,27.5601681 C23.3398739,27.5601681 23.5431933,27.457563 23.6635084,27.2697479 C25.2087605,24.8561345 25.732563,21.9831303 25.1388025,19.1797689 C24.704937,17.1317647 23.7105252,15.2921849 22.2748739,13.8337815 C22.4010504,13.7157353 22.4752941,13.5503571 22.4752941,13.3744538 L22.4752941,11.3867647 L27.7686555,8.69823529 L27.7686555,11.4530672 C27.2216597,11.6956513 26.8390336,12.2435294 26.8390336,12.8793908 L26.8390336,16.6084034 C26.8390336,16.9564286 27.1211345,17.2385924 27.4692227,17.2385924 L29.3284664,17.2385924 C29.6764916,17.2385924 29.9586555,16.9564916 29.9586555,16.6084034 L29.9586555,12.8793908 C29.9585924,12.2434664 29.5759664,11.6957143 29.0289706,11.4530672 Z M8.22838235,27.5278361 L8.86046218,29.0628151 C8.87546218,29.0991807 8.88819328,29.134979 8.90067227,29.1707143 C4.83428571,26.2164706 3.72365546,20.5481092 6.46827731,16.2608824 C6.57478992,16.0944958 6.68628151,15.9326471 6.80161765,15.7743277 L6.67159664,16.3460294 C6.53205882,16.9663866 6.74823529,17.6053992 7.23567227,18.0136765 L8.11184874,18.747542 C8.26689076,18.877437 8.31094538,19.0939286 8.21886555,19.2740546 L7.42569328,20.8260504 C7.15563025,21.3545798 7.17932773,21.9722269 7.48909664,22.4785084 C7.79892857,22.9847899 8.33817227,23.2869958 8.9317437,23.2869958 C9.14539916,23.2869958 9.25720588,23.4266597 9.29539916,23.4867227 C9.33359244,23.5467857 9.41262605,23.7073109 9.3219958,23.9007983 L8.26065126,26.1664286 C8.06016807,26.5944958 8.04838235,27.0907563 8.22838235,27.5278361 Z M18.9994538,17.5505042 L19.5457563,17.7052311 C20.0963445,17.8611555 20.4978782,18.2880252 20.6198319,18.8470588 C20.7417857,19.4061555 20.5544748,19.9614706 20.1188445,20.3325 C20.0105672,20.4246429 19.8547689,20.4396429 19.7309874,20.3698739 L18.9993908,19.957437 C18.4590756,19.6528992 17.7844538,19.6897059 17.2805672,20.0510294 L15.894895,21.0446218 C15.5122059,21.3189706 15.2706933,21.7455882 15.2322479,22.2148739 C15.1938025,22.6841597 15.3628361,23.1443697 15.6957353,23.4773319 L16.0022269,23.7838235 C16.0333613,23.814895 16.0578151,23.8511975 16.074958,23.8917227 L16.8289916,25.6707983 C16.8841387,25.8009454 16.8522479,25.9536555 16.7496429,26.0508403 L13.8956723,28.7528571 C13.2966176,29.320021 13.0272479,30.1198109 13.1311134,30.9032143 C12.1355042,30.7551681 11.1586765,30.4491807 10.2377521,29.9857563 C10.2913866,29.5204412 10.2210504,29.0577731 10.0255462,28.5830042 L9.39346639,27.0479622 C9.34758403,26.9365966 9.35060924,26.8102311 9.40172269,26.7011345 L10.4630672,24.4355042 C10.7098109,23.9088025 10.6707983,23.3013655 10.3586975,22.8105882 C10.0466597,22.3198109 9.51308824,22.0268067 8.9314916,22.0268067 C8.71355042,22.0268067 8.60186975,21.8827311 8.56392857,21.8207773 C8.52598739,21.7588235 8.44852941,21.5938235 8.54773109,21.3997059 L9.34090336,19.8477101 C9.70216387,19.1408824 9.52947479,18.2911134 8.92090336,17.7814916 L8.04472689,17.0476261 C7.92044118,16.9435714 7.86535714,16.7807773 7.90058824,16.6241597 L8.50102941,13.9834664 C8.7072479,13.8163866 8.92065126,13.6573739 9.14161765,13.5070588 C9.38886555,13.4768067 9.63907563,13.4613025 9.89168067,13.4613025 C11.4694538,13.4613025 12.9663655,14.0638235 14.1066807,15.1576891 C14.2286345,15.2746639 14.3857563,15.3331513 14.5429412,15.3331513 C14.7001261,15.3331513 14.8572479,15.2746639 14.9792017,15.1576891 C15.6432983,14.5205672 16.4288445,14.0515966 17.2803782,13.7698109 L18.0472689,15.2355252 C18.0167017,15.2754202 17.9909244,15.3189076 17.9705672,15.365042 C17.7836975,15.7891387 17.7898109,16.2728571 17.9872059,16.6921639 C18.1846639,17.1114076 18.5535504,17.4242647 18.9994538,17.5505042 Z M22.4752941,9.97317227 L22.4752941,7.65485294 C22.4752941,7.38352941 22.3015966,7.14264706 22.0441387,7.05693277 C21.9490336,7.02529412 19.6822059,6.27838235 16.7860084,5.97819328 C16.4396218,5.94239496 16.1301681,6.19386555 16.0942437,6.54006303 C16.0583193,6.8862605 16.309979,7.19596639 16.6561134,7.23189076 C18.6943487,7.44315126 20.4383824,7.89743697 21.214979,8.12186975 L21.214979,12.4821429 C20.5615966,12.2952731 19.8851471,12.2010504 19.1945168,12.2010504 C17.4851471,12.2010504 15.8544958,12.7867437 14.5432563,13.8612605 C13.2320798,12.7867437 11.6014286,12.2010504 9.8919958,12.2010504 C9.19556723,12.2010504 8.5137605,12.2969118 7.85546218,12.4868067 L7.85546218,8.12161765 C8.6412605,7.89428571 10.4183193,7.43136555 12.497458,7.22344538 C12.8437815,7.18884454 13.0964496,6.88002101 13.0617857,6.5337605 C13.0271849,6.18743697 12.7180462,5.93451681 12.3721008,5.96943277 C9.435,6.26319328 7.12336134,7.02478992 7.02636555,7.05705882 C6.76897059,7.14277311 6.59521008,7.38365546 6.59521008,7.65497899 L6.59521008,9.97329832 L2.0632563,7.67155462 L14.5353151,1.33695378 L27.0073109,7.67142857 L22.4752941,9.97317227 Z M28.6982773,15.9782143 L28.0993487,15.9782143 L28.0993487,12.8793908 C28.0993487,12.7170378 28.2364916,12.579958 28.3987815,12.579958 C28.5611345,12.579958 28.6982143,12.7171008 28.6982143,12.8793908 L28.6982143,15.9782143 L28.6982773,15.9782143 Z" id="Shape" fill-rule="nonzero"></path>
            <path d="M22.0472269,28.3717437 C21.8071639,28.1198319 21.4082143,28.1103782 21.1563025,28.3503782 L21.1427521,28.3633613 C20.8917857,28.6044328 20.8837815,29.0033824 21.1248529,29.2543487 C21.2485714,29.3831723 21.4138235,29.4479622 21.5793908,29.4479622 C21.7364496,29.4479622 21.8936345,29.3896008 22.0158403,29.2721849 L22.0258613,29.2626681 C22.2777731,29.022542 22.2873529,28.6237185 22.0472269,28.3717437 Z" id="Path"></path>
            <path d="M14.5627941,5.8569958 L14.5351891,5.8569958 C14.1871639,5.8569958 13.905,6.13909664 13.905,6.48718487 C13.905,6.83521008 14.1871008,7.11737395 14.5351891,7.11737395 L14.5627941,7.11737395 C14.9108193,7.11737395 15.1929832,6.83527311 15.1929832,6.48718487 C15.1929832,6.13909664 14.9108824,5.8569958 14.5627941,5.8569958 Z" id="Path"></path>
        </g>
    </g>
</svg>