<?xml version="1.0" encoding="utf-8"?>
<!-- Generator: Adobe Illustrator 19.0.0, SVG Export Plug-In . SVG Version: 6.00 Build 0)  -->
<svg version="1.1" id="Layer_1" xmlns="http://www.w3.org/2000/svg" xmlns:xlink="http://www.w3.org/1999/xlink" x="0px" y="0px"
	 viewBox="0 91.1 283.5 102" style="enable-background:new 0 91.1 283.5 102;" xml:space="preserve">
<style type="text/css">
	.st0{fill:#FFFFFF;}
</style>
<g>
	<path class="st0" d="M111.8,123.9l-5.7,0l-7.1,36l4.4,0c5.1,0,9.3-1.8,12.4-5.4c3.1-3.6,5-9,5.6-16.4l0.1-1.3
		c0.2-4.2-0.5-7.4-2.2-9.6C117.6,125.2,115.1,124,111.8,123.9z"/>
	<path class="st0" d="M18.9,92.3L1.4,191.9h263.1l17.5-99.7H18.9z M77.5,159.9l-2.1,10.6H32.7L44,113.2h42.8l-2.1,10.7H56.9
		L54.5,136h23.5l-2,10.2H52.5l-2.7,13.7H77.5z M136.3,140.7l-0.3,2.4c-0.8,5.1-2.7,9.8-5.7,14c-3,4.2-6.9,7.4-11.6,9.8
		c-4.7,2.4-9.9,3.6-15.3,3.6H81.8l11.3-57.3l18.7,0c5.5,0,10.3,1.3,14.4,3.9c4.1,2.6,7,6.2,8.7,10.7
		C136.5,131.9,136.9,136.1,136.3,140.7z M156.4,151.1c0.4,6.3,3.6,9.5,9.5,9.6c3.6,0.1,6.7-0.7,9.4-2.3l2-8.9h-10.4l1.9-9.5h25.4
		l-4.2,23.6c-2.4,2.5-5.9,4.5-10.5,5.8c-4.6,1.4-9.7,2-15.2,1.9c-5.3-0.1-9.8-1.3-13.5-3.6c-3.7-2.4-6.3-5.7-7.8-9.9
		c-1.6-4.2-2-9-1.2-14.3l0.4-2.4c1.4-8.9,4.9-15.9,10.5-21.1c5.6-5.2,12.5-7.7,20.7-7.6c7.1,0.1,12.6,1.8,16.4,5.2
		c3.8,3.3,5.9,8.2,6.3,14.5l-14.4,0c-0.2-3.1-1-5.3-2.5-6.7c-1.5-1.4-3.6-2.2-6.3-2.2c-4-0.1-7.4,1.3-10,4.3
		c-2.6,3-4.5,7.2-5.4,12.8C156.5,144.8,156.2,148.5,156.4,151.1z M248.7,123.9h-27.8l-2.4,12.1H242l-2,10.2h-23.4l-2.7,13.7h27.7
		l-2.1,10.6h-42.7l11.3-57.3h42.8L248.7,123.9z"/>
</g>
</svg>
