<?xml version="1.0" encoding="utf-8"?>
<!-- Generator: Adobe Illustrator 21.0.0, SVG Export Plug-In . SVG Version: 6.00 Build 0)  -->
<svg version="1.1" id="Layer_1" xmlns="http://www.w3.org/2000/svg" xmlns:xlink="http://www.w3.org/1999/xlink" x="0px" y="0px"
	 viewBox="0 0 295.2 108" style="enable-background:new 0 0 295.2 108;" xml:space="preserve">
<style type="text/css">
	.st0{fill:none;}
	.st1{fill:#D7D6D6;}
</style>
<g>
	<path class="st0" d="M288.2,79.8h-0.7v1.1h0.8c0.5,0,0.8-0.1,0.8-0.6C289.1,79.8,288.6,79.8,288.2,79.8z"/>
	<path class="st0" d="M155.2,83.5c-3.4,0-6.4,4-6.4,8.6c0,6.8,3.5,12.3,7.8,12.3c3,0,6.3-3.4,6.3-9C162.9,89,159.4,83.5,155.2,83.5z
		"/>
	<path class="st0" d="M230.3,83.5c-3.4,0-6.4,4-6.4,8.6c0,6.8,3.5,12.3,7.8,12.3c3,0,6.3-3.4,6.3-9C238.1,89,234.5,83.5,230.3,83.5z
		"/>
	<path class="st0" d="M56.4,89c-0.6-3.4-2.5-5.7-4.9-5.7c-2.5,0-4.3,2-5.2,5.7H56.4z"/>
	<path class="st0" d="M288.2,78.1c-1.6,0-2.9,1.3-2.9,3.2c0,1.9,1.3,3.2,2.9,3.2c1.6,0,2.9-1.3,2.9-3.2
		C291.1,79.4,289.8,78.1,288.2,78.1z M290.1,83.6h-1l-1.1-1.9h-0.5v1.9h-1V79h1.7c1.2,0,1.8,0.3,1.8,1.4c0,0.8-0.5,1.2-1.2,1.2
		L290.1,83.6z"/>
	<path class="st1" d="M43.2,70.8v-1.6H30.6v1.6l0.2,0c4.1,0.1,4.9,0.7,4.9,4v22.3L11.6,69.3l-0.1-0.1H3v1.6l0.2,0
		c1.7,0.1,3,0.5,4.1,1.3v28.3c0,2.6-1.1,3.6-4,3.6H2.9v1.6h12.6v-1.6h-0.2c-4.3,0-5-0.7-5-4.8V75.2l26.6,30.9h1.7V73.6
		c0-2.1,0.6-2.8,4.5-2.8H43.2z"/>
	<path class="st1" d="M60.2,87.2c-1-2.3-2.3-5.5-7.7-5.5c-6.7,0-10.3,6.5-10.3,12.6c0,6.8,4.1,12.1,9.3,12.1c4.5,0,7.8-3.8,9.5-6.1
		l0.1-0.2l-0.9-1.1L60,99.3c-1.9,2.5-3.9,3.7-6.4,3.7c-3.8,0-7.7-3.7-7.7-9.8c0-0.7,0.1-1.4,0.2-2.2h15.2v-1.7l-0.1-0.1
		C60.8,88.8,60.5,88,60.2,87.2z M51.6,83.2c2.3,0,4.2,2.3,4.9,5.7H46.4C47.3,85.2,49.1,83.2,51.6,83.2z"/>
	<path class="st1" d="M89.2,83.8h0.2c1.7,0,2.6,0.3,3,0.8c0.4,0.5,0.3,1.5-0.2,2.9l-4.8,12.9l-4.9-13.1c-0.5-1.4-0.6-2.3-0.3-2.8
		c0.3-0.5,1-0.7,2.3-0.7l0.2,0v-1.5H73.6v1.5L75,84c1.7,0.2,2.5,1.1,3.6,4l-4.8,12.7l-5.4-13.3c-0.6-1.5-0.7-2.3-0.4-2.8
		c0.3-0.4,1-0.7,2.4-0.8l0.2,0v-1.5H60.1v1.5l0.2,0c2.3,0.3,2.9,1,3.6,2.8l7.8,19.6h1.8l6.1-15.8l6,15.8h1.8l6.8-18.4
		c1-2.7,2.1-3.8,4.1-4l0.2,0v-1.5h-9.2V83.8z"/>
	<path class="st1" d="M140.3,99.3v-24c0-3.5,0.8-4.4,3.7-4.5l0.2,0v-1.6h-13.9v1.6h1.2c3,0,3.9,0.9,3.9,4v11.1h-19.9v-9.8
		c0-4.5,0.6-5.3,4.1-5.3h0.2v-1.6H107v1.6l0.2,0c2.8,0.2,3.5,1,3.5,3.9v25.4c0,3.1-0.9,4-3.9,4h-0.6v1.6h13.6v-1.6h-0.4
		c-3.3,0-3.9-1.2-3.9-4.8V88.5h19.9V100c0,2.8-0.6,4.1-3.9,4.1h-1.9v1.6H145v-1.6h-0.8C141.3,104.1,140.3,103.4,140.3,99.3z"/>
	<path class="st1" d="M155.9,81.7c-5.6,0-11.5,4.4-11.5,12.5c0,7,5,12.2,11.6,12.2c6.3,0,11.3-5.4,11.3-12.3
		C167.3,87,162.4,81.7,155.9,81.7z M156.6,104.5c-4.3,0-7.8-5.5-7.8-12.3c0-4.7,2.9-8.6,6.4-8.6c4.2,0,7.8,5.5,7.8,11.9
		C162.9,101,159.7,104.5,156.6,104.5z"/>
	<path class="st1" d="M183.7,83c-0.6-0.2-1.1-0.3-1.4-0.4c-1-0.5-1.2-0.5-1.9-0.5c-1.8,0-2.5,1.1-4.8,5.3v-5.6h-1.3l-6.2,2.4v1.3
		l3.5,1.4V100c0,3-0.8,4-3.2,4.1l-0.2,0v1.6H181v-1.6h-2.2c-2.5,0-3.1-0.6-3.1-2.9V90c0.4-0.8,0.9-1.8,1.6-2.8
		c0.5-0.9,1-1.4,1.8-1.4c0.6,0,1.2,0.3,1.7,0.5c0.9,0.5,1.9,0.8,2.8,1l0.2,0l1.4-3.9l-0.2-0.1C184.5,83.2,184.1,83.1,183.7,83z"/>
	<path class="st1" d="M194.4,101V81.4h-1l-7,2.7v1.3l2.6,0.6c1.2,0.2,1.4,0.4,1.4,2.6v11.6c0,2.9-1.1,4-4.1,4h-0.2v1.6h12v-1.6h-0.2
		C195.5,104.1,194.4,103.1,194.4,101z"/>
	<path class="st1" d="M192,73.3c1.4,0,2.5-1.1,2.5-2.4c0-1.3-1.1-2.4-2.5-2.4c-1.4,0-2.5,1.1-2.5,2.4
		C189.6,72.2,190.7,73.3,192,73.3z"/>
	<path class="st1" d="M217.5,99c-1,2.8-1.8,4.1-3.4,4.1h-9.1l12.8-19.4l0-0.1v-1.4h-12.6c-2,0-2.2-0.3-2.2-1.3v-0.2h-1.3l-1.7,9.7
		h1.5L202,89c0.9-3.2,1.2-4.2,2.2-4.2h8.3l-12.9,19.3l0,0.1v1.4h17.2l2.3-6.8h-1.5L217.5,99z"/>
	<path class="st1" d="M231,81.7c-5.6,0-11.5,4.4-11.5,12.5c0,7,5,12.2,11.6,12.2c6.3,0,11.3-5.4,11.3-12.3
		C242.5,87,237.6,81.7,231,81.7z M231.8,104.5c-4.3,0-7.8-5.5-7.8-12.3c0-4.7,2.9-8.6,6.4-8.6c4.2,0,7.8,5.5,7.8,11.9
		C238.1,101,234.8,104.5,231.8,104.5z"/>
	<path class="st1" d="M265.3,103.5c-0.3-0.3-0.4-0.8-0.4-1.4c0-0.7,0.1-1.3,0.1-2.1c0.1-1.7,0.3-4.1,0.3-9.4c0-5.8-2.1-8.9-5.8-8.9
		c-2.5,0-5.3,1.9-8.5,4.2l-0.2,0.1v-4.3h-1.1l-6.2,2.5v1.3l2,0.5c1.2,0.2,1.4,0.5,1.4,2.6v12.1c0,2.2-1.1,3.4-3.2,3.4h-0.2v1.6h11
		v-1.6H254c-2.7,0-3.2-0.7-3.2-3.7V88c3.1-2.4,5.3-3.6,6.7-3.6c1.4,0,3.9,0.8,3.9,5.8c0,7.1-0.1,11.8-1,12.8c-0.6,0.6-1.5,1-2.8,1
		l-0.2,0v1.6H269v-1.6h-1.4C266.5,104.1,265.7,103.9,265.3,103.5z"/>
	<path class="st1" d="M276.8,91.7c-2.2-1.6-4.1-2.9-4.1-5.1c0-1.7,1.3-3,2.9-3c2,0,3.6,1.8,3.9,4.6l0,0.2h1.4l-0.1-5.7l-0.1-0.1
		c-1.4-0.6-2.9-0.9-4.3-0.9c-4.1,0-6.9,2.8-6.9,6.7c0,3.2,1.8,4.5,4.1,6.2c1.2,0.9,2.5,1.8,3.8,3.3c1.4,1.5,1.6,2.2,1.6,3.4
		c0,2-1.5,3.6-3.4,3.6c-2.3,0-4.1-2-4.7-5.2l0-0.2h-1.3l0.6,7h1.2l0.1-0.1c0.2-0.4,0.4-0.6,0.7-0.6c0.3,0,0.6,0.1,1,0.2
		c0.1,0,0.2,0.1,0.3,0.1c0.7,0.3,1.5,0.4,2.4,0.4c3.8,0,6.7-2.9,6.7-6.8C282.3,95.6,279.4,93.5,276.8,91.7z"/>
	<path class="st1" d="M290.1,80.4c0-1-0.7-1.4-1.8-1.4h-1.7v4.5h1v-1.9h0.5l1.1,1.9h1l-1.2-2C289.6,81.5,290.1,81.2,290.1,80.4z
		 M288.4,80.9h-0.8v-1.1h0.7c0.4,0,0.9,0.1,0.9,0.5C289.1,80.8,288.8,80.9,288.4,80.9z"/>
	<path class="st1" d="M288.2,77.2c-2.2,0-4.1,1.8-4.1,4.1c0,2.2,1.8,4.1,4.1,4.1c2.2,0,4.1-1.8,4.1-4.1
		C292.3,79.1,290.5,77.2,288.2,77.2z M288.2,84.5c-1.6,0-2.9-1.3-2.9-3.2c0-1.9,1.3-3.2,2.9-3.2c1.6,0,2.9,1.3,2.9,3.2
		C291.1,83.2,289.8,84.5,288.2,84.5z"/>
</g>
<g>
	<path class="st1" d="M66.5,36.9c-4.9,6.9-8.7,14.8-11.2,23.7h2.1c4.4-14.8,12.3-26.9,23.1-35.8c0.8-0.6,1.5-1.1,2.3-1.6
		c-5.8,7.7-8.4,18.6-8.7,29.2l-14.4,8.2h4l10.4-5.9c0,2,0.1,4,0.3,5.9h2c-0.2-2.3-0.3-4.7-0.3-7l26.1-14.9l12.5,21.9h2.3L104,37.6
		l24.4-13.9c9.1,5.5,19.9,14.2,32.6,27.1L144,60.6h4l14.5-8.3c2.5,2.6,5.1,5.4,7.8,8.3h2.1l0.4-0.3c-2.9-3.2-5.7-6.2-8.5-9l30-17.2
		c9,7.4,17.2,16.4,24.3,26.6h2.4c-7.2-10.6-15.6-19.9-24.8-27.7l16.5-9.5c13.5,9.4,24.8,22,33.1,37.2h2.3
		c-17.6-32.9-49.1-53.9-86.1-58.1L162,2.3l-0.2,0.1c-4.5-0.5-9-0.8-13.6-0.8c-0.4,0-0.8,0-1.2,0C130,1.8,113.9,5.4,99.4,11.7
		c-7.5,2.8-14.4,6.7-20.3,11.6C65.7,33,54.7,45.6,47.2,60.5l0.2,0.1h2C54,51.8,59.7,43.9,66.5,36.9z M115.1,9.7
		c10.6-1.7,21.5-1.3,32.3,1l-19,10.8c-11.1-6.6-19.9-8.7-26.7-8.4C106,11.6,110.4,10.4,115.1,9.7z M76.2,51.2
		c0.5-13.1,4.9-26.6,14.5-32.8l10.6,18.5L76.2,51.2z M103,35.9L92.4,17.4c0.3-0.2,0.7-0.4,1-0.5c6.9-3.1,17.4-3.3,33,5.6L103,35.9z
		 M162.9,49.8c-12.5-12.7-23.3-21.4-32.5-27.1l19.9-11.3c14.9,3.7,29.4,11,42.4,21.4L162.9,49.8z M194.6,31.5
		c-7.5-6.1-15.6-11.2-24-15.2c-5.8-2.7-11.8-4.9-17.8-6.5l9.4-5.4c17.9,2.1,34.4,8.2,48.7,17.7L194.6,31.5z M147,3.6
		c4,0,7.9,0.1,11.8,0.5l-8.8,5c-10.3-2.4-20.7-3.1-30.8-2C128.1,4.9,137.4,3.7,147,3.6z"/>
</g>
</svg>
