<?xml version="1.0" encoding="utf-8"?>
<!-- Generator: Adobe Illustrator 18.1.1, SVG Export Plug-In . SVG Version: 6.00 Build 0)  -->
<svg version="1.1" id="Layer_1" xmlns="http://www.w3.org/2000/svg" xmlns:xlink="http://www.w3.org/1999/xlink" x="0px" y="0px"
	 viewBox="0 0 648 76" enable-background="new 0 0 648 76" xml:space="preserve">
<g>
	<g>
		<path fill="#55565A" d="M245.4,62.6c-3.5,1.8-7.4,2.6-11.4,2.6c-8.5,0-14.7-5.6-14.7-14.3s6.2-14.3,14.7-14.3
			c4.3,0,8.1,1,10.8,3.5l-4.2,4.6c-1.6-1.7-3.6-2.6-6.6-2.6c-5.1,0-8.4,3.7-8.4,8.7s3.3,8.7,8.4,8.7c2.6,0,4.5-0.7,5.6-1.3v-4.4
			h-4.9v-5.5h10.6V62.6z"/>
		<path fill="#55565A" d="M254.7,37.3h6V59h11.1v5.5h-17.1V37.3z"/>
		<path fill="#55565A" d="M292.1,36.6c8.5,0,14.7,5.6,14.7,14.3s-6.2,14.3-14.7,14.3s-14.7-5.6-14.7-14.3S283.6,36.6,292.1,36.6z
			 M292.1,59.7c5.1,0,8.4-3.7,8.4-8.7s-3.3-8.7-8.4-8.7s-8.4,3.7-8.4,8.7S287,59.7,292.1,59.7z"/>
		<path fill="#55565A" d="M314.7,37.3h10.1c4.8,0,9.9,1,9.9,6.9c0,3-1.9,5.1-4.7,6v0.1c3.6,0.5,5.9,3.1,5.9,6.6
			c0,5.7-5.4,7.6-10.2,7.6h-11.1V37.3z M320.7,48.2h4.3c1.8,0,3.8-0.8,3.8-3c0-2.3-2.1-2.8-4-2.8h-4.1V48.2z M320.7,59.4h5.4
			c1.9,0,4-0.8,4-3.2c0-2.6-2.9-3-4.8-3h-4.5V59.4z"/>
		<path fill="#55565A" d="M352.3,37.3h4.9l11.8,27.2h-6.8l-2.3-5.8h-10.5l-2.3,5.8h-6.6L352.3,37.3z M354.6,45.2l-3.3,8.4h6.6
			L354.6,45.2z"/>
		<path fill="#55565A" d="M375.9,37.3h6V59h11.1v5.5h-17.1V37.3z"/>
		<path fill="#55565A" d="M424.2,37.3h4.9L441,64.5h-6.8l-2.3-5.8h-10.5l-2.3,5.8h-6.6L424.2,37.3z M426.5,45.2l-3.3,8.4h6.6
			L426.5,45.2z"/>
		<path fill="#55565A" d="M465.3,44.4c-1.2-1.4-2.9-2.2-5.1-2.2c-4.5,0-7.9,3.7-7.9,8.7s3.3,8.7,7.7,8.7c2.4,0,4.4-1.1,5.6-2.9
			l5,3.7c-2.3,3.2-6.1,4.7-9.8,4.7c-8.5,0-14.7-5.6-14.7-14.3s6.2-14.3,14.7-14.3c3,0,6.9,1,9.2,4L465.3,44.4z"/>
		<path fill="#55565A" d="M486.6,37.3h4.9l11.8,27.2h-6.8l-2.3-5.8h-10.5l-2.3,5.8h-6.6L486.6,37.3z M488.9,45.2l-3.3,8.4h6.6
			L488.9,45.2z"/>
		<path fill="#55565A" d="M509.9,37.3h9c8.7,0,16.1,3.7,16.1,13.7c0,8.8-7.2,13.5-15.3,13.5h-9.8V37.3z M515.9,59h3.1
			c5.6,0,9.7-2.1,9.7-8.3c0-5.3-4.3-7.8-9.3-7.8h-3.5V59z"/>
		<path fill="#55565A" d="M543.1,37.3h18.5v5.5h-12.5v5.1h11.8v5.5h-11.8V59h13.2v5.5h-19.1V37.3z"/>
		<path fill="#55565A" d="M570.9,37.3h9.1l6.3,17.7h0.1l6.3-17.7h9v27.2h-6V43.7h-0.1l-7.1,20.8h-4.6L577,43.7h-0.1v20.8h-6V37.3z"
			/>
		<path fill="#55565A" d="M617.6,52.9l-10.2-15.6h7.4l5.8,10.2l6.1-10.2h7.1l-10.2,15.6v11.6h-6V52.9z"/>
	</g>
	<g>
		<g>
			<g>
				<path fill="#55565A" d="M297.2,21.6c0,3.5-1.9,5.3-5.5,5.3c-3.5,0-5.5-1.9-5.5-5.3v-6.1h4v5.9c0,1.6,0.5,2.4,1.5,2.4
					c1.1,0,1.6-0.7,1.6-2.5v-5.8h4V21.6z"/>
				<polygon fill="#55565A" points="240,18.3 240,26.6 236,26.6 236,18.3 232.6,18.3 232.6,15.5 243.4,15.5 243.4,18.3 				"/>
				<path fill="#55565A" d="M250.2,18l-1,3.8h2L250.2,18z M252.8,26.6l-0.7-2h-3.8l-0.7,2h-4l4.1-11.2h5.1l4,11.2H252.8z"/>
				<path fill="#55565A" d="M310.1,25.8l-1.2-2.9c-0.7,0.5-1.4,1-2.6,1c-1.6,0-2.6-1.3-2.6-2.9c0-1.6,0.9-3,2.6-3
					c1,0,1.9,0.5,2.7,1.1l1.2-2.8c-1.3-0.7-2.7-1.1-4.5-1.1c-3.4,0-6,2.3-6,5.7c0,3.6,2.5,5.9,6.1,5.9
					C307.7,26.9,309.1,26.4,310.1,25.8z"/>
				<polygon fill="#55565A" points="319.2,26.6 316.6,22.6 316.6,26.6 312.7,26.6 312.7,15.5 316.6,15.5 316.6,19.6 319,15.5 
					323.4,15.5 319.7,21 323.8,26.6 				"/>
				<path fill="#55565A" d="M225.9,26.9c2.5,0,5.2-0.9,5.2-3.8c0-2.6-2.2-3.3-3.9-3.6c-1.3-0.3-1.9-0.4-1.9-0.9
					c0-0.7,0.9-0.7,1.3-0.7c1.2,0,2.2,0.5,3.2,1l1-2.6c-1.4-0.6-3-1.1-4.6-1.1c-2.6,0-4.7,1.3-4.7,3.8c0,2.1,1.6,2.9,3.3,3.3
					c1.2,0.3,2,0.4,2,1c0,0.6-0.6,0.8-1.2,0.8c-1.3,0-2.5-0.6-3.3-1.2l-1.3,2.5C222.6,26.3,224.2,26.9,225.9,26.9z"/>
				<path fill="#55565A" d="M329.8,26.9c2.5,0,5.2-0.9,5.2-3.8c0-2.6-2.2-3.3-3.9-3.6c-1.3-0.3-1.9-0.4-1.9-0.9
					c0-0.7,0.9-0.7,1.3-0.7c1.2,0,2.2,0.5,3.2,1l1-2.6c-1.4-0.6-3-1.1-4.6-1.1c-2.6,0-4.7,1.3-4.7,3.8c0,2.1,1.6,2.9,3.3,3.3
					c1.2,0.3,2,0.4,2,1c0,0.6-0.6,0.8-1.2,0.8c-1.3,0-2.5-0.6-3.3-1.2l-1.3,2.5C326.4,26.3,328.1,26.9,329.8,26.9z"/>
				<g>
					<path fill="#55565A" d="M267.4,22.5c1.4-0.5,2.1-1.9,2.1-3.2c0-2.6-1.8-3.8-4.4-3.8h-6v11.2h3.9v-3.3h1l2,3.3h4.2L267.4,22.5z
						 M265.6,19.3c0,0.7-0.5,1.2-1.2,1.2H263v-2.3h1.4C265.1,18.1,265.6,18.5,265.6,19.3L265.6,19.3z"/>
				</g>
				<g>
					<path fill="#55565A" d="M281,20.9c1.5-0.3,2.2-1.1,2.2-2.5c0-1.9-1.4-3-3.9-3h-6.4v11.2h6.1c3,0,4.4-1,4.4-3.2
						C283.4,22,282.5,21.1,281,20.9z M276.7,17.9h1.4c0.7,0,1.2,0.3,1.2,1v0c0,0.6-0.5,1-1.2,1h-1.4V17.9z M279.4,23.2
						c0,0.7-0.5,1-1.3,1h-1.4v-2.1h1.4C278.9,22.1,279.4,22.5,279.4,23.2L279.4,23.2z"/>
				</g>
			</g>
		</g>
		<g>
			<g>
				<path fill="#55565A" d="M337.3,17.6H337v-1.8h-0.7v-0.3h1.6v0.3h-0.7V17.6z"/>
				<path fill="#55565A" d="M339.3,17.1L339.3,17.1l0.6-1.6h0.5v2.1h-0.3v-1.7h0l-0.7,1.7h-0.2l-0.7-1.7h0v1.7h-0.3v-2.1h0.5
					L339.3,17.1z"/>
			</g>
		</g>
	</g>
</g>
<g>
	<g>
		<path fill="#8C0B42" d="M191.1,53c0,0-0.5-0.5-1.3-1.4c-1-1.1-0.9-2.2-0.9-2.2V23.8h-9.7v20.5c-0.1,1.9-2,2.4-3.1,2.4
			c-1.5,0-2.4-0.9-2.4-2.3V23.8h-9.4v0c-2.2,0-3.9,0-6.6,0c-5.2,0-10,0.8-11.7,5.1l-1-3.8c-0.2-0.8-1.1-1.3-1.9-1.3h-16.9
			c-0.2,0-0.3,0.1-0.2,0.3c0,0,0.5,0.4,1.3,1.4c1.2,1.3,0.7,3.1,0.7,3.1l-6.2,24.7h9l1.3-5.4h8.7l1.4,5.4h9.2c0.9,0,1.8,0,2.6,0
			c4.9,0,8.8-0.5,10.8-3.5c1.5,2.8,4.6,4.1,10.1,3.6c1.9-0.2,3.8-1.1,4.6-2.5L180,52c0.3,0.7,1,1.3,1.9,1.3h9
			C191.2,53.3,191.3,53.2,191.1,53 M133.6,42.5l3-12.1l3,12.1H133.6z"/>
		<path fill="#FFCA38" d="M143.9,29.1c0,0-0.1,0.1,0,0.1c0,0,0,0.1,0,0.1l1.7,1.6l0,0l0,0v0l0-0.1c0-0.3,0.1-0.5,0.1-0.8v0l0,0
			l-1.6-1C144.1,29.1,144,29,143.9,29.1"/>
		<path fill="#FFCA38" d="M142.3,31.4l3.2,2.1l0,0l0,0l0,0l0,0c0-0.3,0-0.7,0-1c0,0,0,0,0,0v-0.1c0,0,0,0,0,0l-3-1.2
			c0,0-0.1,0-0.2,0.1C142.2,31.3,142.3,31.4,142.3,31.4"/>
		<path fill="#FFCA38" d="M141.1,33.8l5.1,2.2l0.1,0l0,0l0,0l0-0.1c-0.2-0.5-0.4-0.9-0.5-1.5v0h0l-4.5-1c0,0-0.1,0-0.2,0.1
			C141,33.7,141.1,33.8,141.1,33.8"/>
		<path fill="#FFCA38" d="M159,45c0-2.1-2.4-2.9-5.1-3.9c-2.8-1-6-2.1-7.5-4.8l0,0h0l-5.9-0.4c0,0-0.2,0-0.2,0.1
			c0,0.1,0.1,0.2,0.1,0.2l6,1.5c0,0,0.1,0,0.1,0.1c0,0-0.1,0.1-0.1,0.1l-6.2,0.6c0,0-0.1,0-0.1,0.2c0,0.1,0.1,0.2,0.1,0.2l6.2,0.6
			c0,0,0.1,0,0.1,0c0,0.1-0.1,0.1-0.1,0.1l-5.9,1.5c0,0-0.1,0.1-0.1,0.2c0,0.1,0.2,0.1,0.2,0.1l6.2-0.4c0,0,0.1,0,0.1,0
			c0,0.1,0,0.1,0,0.1l-5.6,2.4c0,0-0.1,0.1-0.1,0.2c0,0.1,0.2,0.1,0.2,0.1l6-1.3c0,0,0.1,0,0.1,0c0,0,0,0.1,0,0.1l-5,3.3
			c0,0-0.1,0.1,0,0.2c0.1,0.1,0.2,0.1,0.2,0.1l5.6-2.3c0,0,0.1,0,0.1,0c0,0,0,0.1,0,0.1l-4.3,4c0,0-0.1,0.1,0,0.2
			c0.1,0.1,0.2,0,0.2,0l5.1-3.1c0,0,0.1,0,0.1,0c0.1,0,0,0.1,0,0.1l-3.5,4.6c0,0-0.1,0.1,0.1,0.2c0.1,0.1,0.2,0,0.2,0l4.4-3.9
			c0,0,0.1,0,0.1,0c0.1,0,0,0.1,0,0.1l-2.5,5.1c0,0,0,0.1,0.1,0.2c0.1,0.1,0.2,0,0.2,0l3.7-4.5c0,0,1.4,0.5,2,0.6
			c1.7,0.2,3.3-0.2,4.2-1C158.8,46.1,159,45.6,159,45"/>
		<path fill="#FFCA38" d="M167.1,49.8l-1.4-1.9c-0.1,0.3-0.3,0.8-0.3,0.8l1.4,1.2c0,0,0.1,0.1,0.2,0
			C167.2,49.9,167.1,49.8,167.1,49.8"/>
		<path fill="#FFCA38" d="M169.1,47.9l-2.9-2.7c0,0.5-0.1,1.3-0.1,1.3l2.8,1.7c0,0,0.1,0.1,0.2,0C169.2,48,169.1,47.9,169.1,47.9"/>
		<path fill="#FFCA38" d="M170.7,45.8l-4.6-3c0.1,0.6,0.1,1.6,0.1,1.6l4.3,1.7c0,0,0.1,0,0.2-0.1C170.8,45.9,170.7,45.8,170.7,45.8"
			/>
		<path fill="#FFCA38" d="M172.9,38.6c0,0,0-0.1-0.1-0.1c-0.1,0-0.1-0.1-0.1-0.1l-6.1-0.6h0c0,0-0.1,0-0.1,0c0,0,0,0,0,0
			c0,0,0,0,0,0h0l6-1.5c0,0,0.1,0,0.1-0.1c0,0,0-0.1,0-0.1c0-0.1-0.1-0.1-0.2-0.1c-0.1,0-6.1,0.4-6.1,0.4h0c0,0-0.1,0-0.1,0
			c0,0,0,0,0,0c0,0,0,0,0,0l5.6-2.4c0,0,0,0,0.1-0.1c0,0,0-0.1,0-0.1c0-0.1-0.2-0.1-0.2-0.1c-0.1,0-6,1.4-6,1.4h0c0,0-0.1,0-0.1,0
			c0,0,0,0,0,0c0,0,0,0,0,0h0l5-3.3c0,0,0.1-0.1,0.1-0.1c0,0,0-0.1,0-0.1c-0.1-0.1-0.2-0.1-0.2-0.1c-0.1,0-5.6,2.3-5.6,2.3h0
			c0,0-0.1,0-0.1,0c0,0,0,0,0,0c0,0,0,0,0,0h0l4.3-4c0,0,0.1,0,0.1-0.1c0,0,0-0.1,0-0.1c-0.1-0.1-0.2,0-0.2,0l-5.1,3.1v0h0
			c0,0-0.1,0-0.1,0c0,0,0,0,0,0c0,0,0,0,0,0h0l0,0c0,0,3.3-4.3,3.4-4.6c0,0,0.1-0.1,0.1-0.1c0,0,0-0.1-0.1-0.1c0,0-0.2-0.1-0.2,0
			c-0.1,0.1-4.4,3.9-4.4,3.9v0c0,0-0.1,0-0.1,0c0,0,0,0,0,0c0,0,0,0,0,0v0l2.5-5.1c0,0,0.1-0.2-0.1-0.2c-0.1-0.1-0.2,0-0.2,0
			l-3.7,4.6c0,0-1.9-0.8-3.6-0.8c-1.6,0-2.8,0.3-3.5,0.9c-0.4,0.4-0.6,0.9-0.6,1.4c0,0.8,0.5,1.4,1.4,2.1c0.9,0.5,2.1,1,3.3,1.5
			c1.6,0.6,3.5,1.3,5.1,2.4c2.9,2,3.2,4.6,3.2,4.6l5.7,1.3c0,0,0.1,0,0.2-0.1c0,0,0-0.1,0-0.1c0,0-0.1-0.1-0.1-0.1l-5.5-2.4h0
			c0,0,0,0,0,0c0,0,0,0,0,0c0,0,0,0,0.1,0h0c0,0,5.9,0.4,6.2,0.4c0,0,0.1,0,0.2-0.1c0,0,0-0.1,0-0.1c0,0-0.1-0.1-0.1-0.1l-5.9-1.5h0
			c0,0,0,0,0,0c0,0,0,0,0,0c0,0,0-0.1,0.1-0.1h0c0,0,6.1-0.6,6.1-0.6c0,0,0.1,0,0.1,0C172.9,38.7,172.9,38.7,172.9,38.6"/>
		<path fill="#8C0B42" d="M192.3,27.7c-1,0-1.8-0.8-1.8-1.8c0-1,0.8-1.8,1.8-1.8c1,0,1.8,0.8,1.8,1.8
			C194.1,26.9,193.3,27.7,192.3,27.7 M192.3,23.8c-1.1,0-2.1,0.9-2.1,2.1c0,1.2,1,2.1,2.1,2.1c1.2,0,2.1-0.9,2.1-2.1
			C194.4,24.8,193.5,23.8,192.3,23.8z M191.5,24.7h0.7c0.3,0,0.5,0,0.7,0.2c0.1,0.1,0.3,0.3,0.3,0.6c0,0.4-0.3,0.6-0.5,0.6l0.5,0.9
			h-0.5l-0.5-0.9H192V27h-0.4V24.7z M192,25.1v0.7h0.1c0.1,0,0.2,0,0.3,0c0.1,0,0.4,0,0.4-0.4c0,0,0-0.2-0.2-0.3c-0.1,0-0.2,0-0.5,0
			H192z"/>
	</g>
	<line fill="none" stroke="#55565A" stroke-width="0.5572" stroke-miterlimit="10" x1="97" y1="67.8" x2="97" y2="12.6"/>
	<g>
		<g>
			<g>
				<path fill="none" d="M27,45.7l-0.4-2.6l0,0l-0.2,2.7l-0.6,0.1l-1.1-2.5l0,0l0.5,2.6l-0.8,0.1l-0.7-3.8l1.1-0.2l1,2.4l0,0
					l0.2-2.6l1.2-0.2l0.7,3.8L27,45.7z"/>
				<path fill="none" d="M30.2,45.1l-0.3-0.7l-0.9,0.2l0,0.7l-0.9,0.2l0.3-4l1.1-0.2l1.6,3.7L30.2,45.1z M29.1,42.2L29.1,42.2
					L29,43.9l0.7-0.1L29.1,42.2z"/>
				<path fill="none" d="M32.5,41.7c-0.2-0.1-0.4-0.2-0.5-0.1c-0.2,0-0.4,0.2-0.3,0.5c0,0.2,0.2,0.3,0.6,0.4c0.4,0.1,0.9,0.3,1,1
					c0.1,0.8-0.3,1.3-1,1.5c-0.5,0.1-0.9,0-1.2-0.2l0.3-0.7c0.2,0.1,0.4,0.2,0.7,0.2c0.2,0,0.3-0.2,0.3-0.5c0-0.2-0.2-0.3-0.6-0.4
					c-0.5-0.1-0.8-0.3-1-1c-0.1-0.8,0.4-1.3,1-1.4c0.4-0.1,0.8,0,1,0.2L32.5,41.7z"/>
				<path fill="none" d="M34.5,41.2l0.5,3.1l-0.8,0.1l-0.5-3.1L33,41.4l-0.1-0.7l2.2-0.4l0.1,0.7L34.5,41.2z"/>
				<path fill="none" d="M36.1,44.1l-0.7-3.8l1.8-0.3l0.1,0.8l-1,0.2l0.1,0.7l0.9-0.2l0.1,0.7l-0.9,0.2l0.1,0.8l1.1-0.2l0.1,0.8
					L36.1,44.1z"/>
				<path fill="none" d="M40.1,43.4l-0.8-1.4l-0.3,0l0.3,1.5l-0.8,0.1l-0.7-3.8l1.2-0.2c0.7-0.1,1.2,0.2,1.4,0.9
					c0.1,0.6-0.1,0.9-0.4,1.1l1,1.6L40.1,43.4z M39.1,40.4l-0.3,0l0.2,1l0.3,0c0.2,0,0.4-0.2,0.4-0.6C39.6,40.4,39.3,40.3,39.1,40.4
					z"/>
				<path fill="none" d="M42.5,42.9l-0.7-3.8l0.9-0.2l0.5,3l1-0.2l0.1,0.8L42.5,42.9z"/>
				<path fill="none" d="M46,42.4c-0.9,0.2-1.6-0.6-1.8-1.8c-0.2-1.2,0.2-2.1,1.1-2.3c0.9-0.2,1.6,0.5,1.8,1.7
					C47.3,41.4,46.9,42.3,46,42.4z M45.4,39.3c-0.4,0.1-0.5,0.6-0.4,1.3c0.1,0.7,0.4,1.1,0.8,1.1c0.4-0.1,0.5-0.6,0.4-1.3
					C46.1,39.7,45.8,39.2,45.4,39.3z"/>
				<path fill="none" d="M49.4,41.8c-1,0.2-1.7-0.5-1.9-1.7c-0.2-1.2,0.2-2.1,1.1-2.3c0.5-0.1,0.9,0,1.1,0.3l-0.4,0.7
					c-0.2-0.2-0.3-0.2-0.6-0.2c-0.5,0.1-0.6,0.7-0.5,1.3c0.1,0.6,0.4,1.2,0.9,1.1c0.1,0,0.2-0.1,0.3-0.1l-0.1-0.7L49,40.3l-0.1-0.8
					l1.2-0.2l0.4,2C50.1,41.6,49.8,41.8,49.4,41.8z"/>
				<path fill="none" d="M52.3,41.3c-0.9,0.2-1.6-0.6-1.8-1.8c-0.2-1.2,0.2-2.1,1.1-2.3c0.9-0.2,1.6,0.5,1.8,1.7
					C53.6,40.3,53.2,41.2,52.3,41.3z M51.8,38.1c-0.4,0.1-0.5,0.6-0.4,1.3c0.1,0.7,0.4,1.1,0.8,1.1c0.4-0.1,0.5-0.6,0.4-1.3
					C52.4,38.5,52.1,38.1,51.8,38.1z"/>
				<path fill="none" d="M56.4,40.5l-0.9,0.2l0.6-3.3l-1.3,0.2l-0.1-0.8l2.2-0.4l0.1,0.6L56.4,40.5z"/>
				<path fill="none" d="M58.4,40.4l-0.5,0l0.3-4.4l0.5,0L58.4,40.4z"/>
				<path fill="none" d="M61.1,38l-0.6,1l1.2-0.2l0.1,0.7l-2.3,0.4l-0.1-0.8l0.9-1.5c0.1-0.2,0.2-0.5,0.2-0.7c0-0.2-0.2-0.4-0.4-0.3
					c-0.2,0-0.3,0.2-0.3,0.6l-0.8,0.1c-0.1-0.8,0.4-1.3,1-1.4c0.7-0.1,1.2,0.2,1.3,0.9C61.6,37.2,61.4,37.7,61.1,38z"/>
				<path fill="none" d="M63.7,39.3c-1,0.2-1.5-0.9-1.6-1.8c-0.2-0.9-0.1-2,0.9-2.2c1-0.2,1.5,0.9,1.6,1.8
					C64.8,38,64.7,39.1,63.7,39.3z M63.1,36.1c-0.3,0.1-0.3,0.8-0.2,1.3c0.1,0.5,0.3,1.2,0.6,1.2c0.3-0.1,0.3-0.8,0.2-1.3
					C63.6,36.7,63.5,36,63.1,36.1z"/>
				<path fill="none" d="M66.3,38.8l-0.5-2.8l-0.5,0.5l-0.5-0.6l0.9-1l0.8-0.1l0.7,3.8L66.3,38.8z"/>
				<path fill="none" d="M70.1,37.3l0.1,0.8l-0.8,0.1l-0.1-0.8l-1.4,0.2l-0.1-0.7l0.7-2.5l1-0.2l0.4,2.3l0.4-0.1l0.1,0.7L70.1,37.3z
					 M68.9,35.2L68.9,35.2l-0.4,1.6l0.7-0.1L68.9,35.2z"/>
			</g>
			<g>
				<g>
					<circle fill="#FFFFFF" cx="47.1" cy="40.2" r="25"/>
					<path fill="#007042" d="M49.6,26c-0.2,0-1.3-0.2-2.5-0.2c-1.2,0-2.3,0.2-2.5,0.2c-0.1,0-0.2-0.1-0.1-0.2c0.1-0.1,2.6-2,2.6-2
						s2.5,1.9,2.6,2C49.8,25.9,49.7,26.1,49.6,26z M45.3,38.4c0,0-0.1,0-0.2,0.2c0.5,0.4,0.9,1.3,2,1.3c1.1,0,1.5-0.9,2-1.3
						c0-0.1-0.2-0.2-0.2-0.2s-0.7,0.2-1.8,0.2C45.9,38.6,45.3,38.4,45.3,38.4z M47.1,36.9c-0.3,0-0.4-0.1-0.6-0.1
						c-0.2,0-0.6,0.2-0.7,0.3c0,0.1,0,0.1,0.1,0.2c0.4,0.1,0.6,0.3,1.2,0.3c0.5,0,0.7-0.2,1.2-0.3c0.1-0.1,0.1-0.1,0.1-0.2
						c-0.1-0.1-0.5-0.3-0.7-0.3C47.4,36.7,47.4,36.9,47.1,36.9z M72,41.6c0,0.6-0.1,1.2-0.2,1.8c-2.8,0.5-3.8-2-6.7-1.9
						c0.2,0.6,0.3,1.2,0.4,1.9c2.4,0,3.3,2.2,6,1.9c-0.1,0.7-0.3,1.4-0.5,2c-2.1,0.2-2.8-1.9-5.3-1.8c0,0.3,0,0.7,0,1
						c0,0.2,0,0.4,0,0.6c2.1,0,2.7,1.9,4.7,1.8c-0.2,0.7-0.5,1.3-0.8,2c-1.4-0.1-1.9-1.9-4.1-1.8c-0.1,0.5-0.1,0.9-0.2,1.4
						c1.9-0.1,2.3,1.6,3.6,1.7c-0.3,0.6-0.7,1.2-1.1,1.8c-0.8-0.4-1.5-1.7-3-1.8c0.2-0.5,0.3-1,0.4-1.5c-1.3,0-2.9-0.5-4.2-1.7
						c0.4-2.4-3.3-4.8-3.3-6.5c0-1.9,1-2.9,1-5.5c0-1.9-0.9-3.9-2.3-5.3c-0.3-0.3-0.5-0.5-0.9-0.7c1.3,1.6,2.2,3.4,2.2,5.6
						c0,2.4-1.1,3.7-1.1,5.9c0,2.2,3.2,4.1,3.2,6.4c0,0.9-0.3,1.8-1.2,3.5c1.4,1.4,3.3,2.2,4.6,2.2c0.4,0,0.6-0.1,0.7-0.4
						c0.1-0.3,0.2-0.5,0.3-0.8c1.3,0.1,1.9,1.2,2.6,1.7c-0.4,0.5-0.8,1.1-1.3,1.6c-0.5-0.5-1.1-1.4-2.1-1.7c-0.2,0.3-0.4,0.7-0.5,1
						c0.8,0.2,1.4,1.1,1.8,1.6c-0.5,0.5-1,1-1.5,1.4c-0.3-0.5-0.8-1.1-1.4-1.5c-0.2,0.3-0.4,0.5-0.6,0.8c0.5,0.3,0.9,0.9,1.2,1.4
						c-0.6,0.5-1.2,0.9-1.8,1.3c-0.3-2.5-3.8-4.3-2.8-7.2c-0.3,0.5-0.7,1.2-0.7,1.9c0,2.1,2.3,3.8,2.4,5.9c-0.5,0.3-1,0.5-1.4,0.8
						c-0.1-2.3-2.5-4.9-2.5-6.8c0-2.1,2.8-4.3,2.8-6.8c0-2.5-3.2-4.3-3.2-6.5c0-2.2,1.4-3.5,1.4-6.3c0-2.1-1-4.2-2.5-5.5
						c-0.3-0.2-0.5-0.4-0.9-0.6c1.4,1.7,2.3,3.3,2.3,5.7c0,2.7-1.6,4.1-1.6,6.7c0,2.6,3.2,4.1,3.2,6.5c0,2.4-2.9,4.5-2.9,7
						c0,2.3,2.6,4.5,2.6,7.2c-0.6,0.2-1.1,0.5-1.7,0.7c0.3-2.7-2.6-5.5-2.6-7.7c0-2.4,3.1-4.5,3.1-7.1c0-2.6-3.1-3.8-3.1-6.5
						s1.9-4.2,1.9-7.1c0-2.3-1.1-4.4-2.8-5.7c0,0-0.1-0.1-0.1-0.1c-0.2-0.1-0.3,0-0.2,0.2c1.2,1.5,1.8,3,1.8,5.2
						c0,2.7-2.2,4.9-2.2,7.6c0,3.1,2.9,4,2.9,6.5c0,2.5-3.1,4.6-3.1,7.3c0,2.5,3,5.3,2.5,8.2c-0.6,0.2-1.2,0.3-1.8,0.4
						c0.6-3.6-2.4-6.2-2.4-8.5c0-2.6,3.3-4.8,3.3-7.3c0-2.4-2.3-3.1-2.6-5.5c0-0.3-0.3-0.6-0.7-0.5c-0.5,0.1-1.1,0.4-2,0.4
						c-1,0-1.6-0.3-2-0.4c-0.4-0.1-0.6,0.2-0.7,0.5c-0.3,2.4-2.6,3.2-2.6,5.5c0,2.5,3.3,4.8,3.3,7.3c0,2.4-2.9,4.9-2.4,8.5
						c-0.6-0.1-1.2-0.2-1.8-0.4c-0.5-2.9,2.5-5.7,2.5-8.2c0-2.7-3.1-4.7-3.1-7.3c0-2.5,2.9-3.4,2.9-6.5c0-2.6-2.2-4.8-2.2-7.6
						c0-2.2,0.6-3.7,1.8-5.2c0.1-0.1,0-0.3-0.2-0.2c0,0-0.1,0.1-0.1,0.1c-1.7,1.3-2.8,3.4-2.8,5.7c0,3,1.9,4.5,1.9,7.1
						s-3.1,3.9-3.1,6.5c0,2.6,3,4.7,3,7.1c0,2.2-2.9,5-2.6,7.7c-0.6-0.2-1.2-0.4-1.7-0.7c0-2.7,2.6-5,2.6-7.2c0-2.5-2.9-4.5-2.9-7
						c0-2.4,3.2-3.9,3.2-6.5c0-2.6-1.6-4.1-1.6-6.7c0-2.4,0.8-3.9,2.3-5.7c-0.3,0.2-0.6,0.4-0.9,0.6c-1.5,1.3-2.5,3.4-2.5,5.5
						c0,2.8,1.4,4.1,1.4,6.3c0,2.2-3.2,4-3.2,6.5c0,2.5,2.8,4.7,2.8,6.8c0,1.9-2.4,4.5-2.5,6.8c-0.5-0.3-1-0.5-1.4-0.8
						c0.2-2.1,2.4-3.8,2.4-5.9c0-0.8-0.4-1.4-0.7-1.9c0.9,2.9-2.5,4.7-2.8,7.2c-0.6-0.4-1.2-0.9-1.8-1.3c0.3-0.5,0.7-1,1.2-1.4
						c-0.2-0.3-0.4-0.5-0.6-0.8c-0.6,0.3-1.1,1-1.4,1.5c-0.5-0.4-1-0.9-1.5-1.4c0.4-0.5,1-1.4,1.8-1.6c-0.2-0.3-0.4-0.6-0.5-1
						c-1,0.3-1.6,1.2-2.1,1.7c-0.4-0.5-0.9-1-1.3-1.6c0.7-0.5,1.3-1.7,2.6-1.7c0.1,0.3,0.2,0.5,0.3,0.8c0.1,0.3,0.4,0.4,0.7,0.4
						c1.2,0,3.1-0.8,4.6-2.2c-0.9-1.7-1.2-2.6-1.2-3.5c0-2.3,3.2-4.2,3.2-6.4c0-2.2-1.1-3.5-1.1-5.9c0-2.2,1-4,2.2-5.6
						c-0.3,0.2-0.6,0.4-0.9,0.7c-1.4,1.4-2.3,3.4-2.3,5.3c0,2.5,1,3.6,1,5.5c0,1.7-3.7,4.1-3.3,6.5c-1.3,1.2-2.8,1.7-4.2,1.7
						c0.1,0.5,0.3,1,0.4,1.5c-1.5,0.1-2.2,1.4-3,1.8c-0.4-0.6-0.8-1.2-1.1-1.8c1.3-0.1,1.7-1.9,3.6-1.7c-0.1-0.5-0.2-0.9-0.2-1.4
						c-2.2-0.1-2.6,1.7-4.1,1.8c-0.3-0.6-0.6-1.3-0.8-2c2,0.1,2.6-1.8,4.7-1.8c0-0.2,0-0.4,0-0.6c0-0.4,0-0.7,0-1
						c-2.4-0.1-3.2,2-5.3,1.8c-0.2-0.7-0.4-1.3-0.5-2c2.7,0.3,3.6-1.9,6-1.9c0.1-0.6,0.2-1.3,0.4-1.9c-2.9-0.1-3.9,2.4-6.7,1.9
						c-0.1-0.6-0.1-1.2-0.2-1.8c3.3,0.4,4.5-2.3,7.5-2c0.3-0.7,0.6-1.4,1-2.1c-3.7-0.7-5,2.5-8.5,2C22.5,26,33.5,15.2,47.1,15.2
						C60.6,15.2,71.6,26,72,39.5c-3.5,0.5-4.8-2.7-8.5-2c0.4,0.7,0.7,1.4,1,2.1C67.5,39.2,68.7,41.9,72,41.6z M36.3,31.1
						c-1.8-0.8-4.1-0.6-6,0.6c-0.3-1.8-1.3-3.3-2.6-4.3c-0.2-0.1-0.4,0-0.4,0.2c0.3,3.7-1.9,7-4.6,9.8c2.8,0.8,5.1-2.7,8.7-1.5
						C32.8,34.1,34.4,32.4,36.3,31.1z M47.1,28.8c-2.3,0-4.3,1.3-4.8,3c0,0.1,0,0.2,0.2,0.1c0.4-0.2,0.9-0.3,1.4-0.3
						c0.9,0,1.8,0.3,2.3,1c0.2,0.7,0.2,1.8,0,2.4c-0.4-0.1-0.5-0.4-0.9-0.4c-0.4,0-0.7,0.3-1.3,0.3c-0.6,0-0.7-0.3-1.1-0.3
						c-0.5,0-0.6,0.5-0.6,1.1c0,2.6,2.4,6.1,4.9,6.1c2.5,0,4.9-3.6,4.9-6.1c0-0.6-0.1-1.1-0.6-1.1c-0.3,0.2-0.5,0.4-1.1,0.4
						c-0.6,0-0.8-0.3-1.2-0.3c-0.5,0-0.4,1-1,1c-0.4-0.9-0.4-2-0.1-3c0.5-0.6,1.3-1,2.3-1c0.5,0,1,0.1,1.4,0.3
						c0.2,0.1,0.2,0,0.2-0.1C51.3,30.2,49.4,28.8,47.1,28.8z M50.8,32.5c-0.6,0-1.2,0.2-1.6,0.6c0,0.1,0,0.3,0,0.4
						c1-0.3,1.9-0.4,2.3,0.1c0.2-0.2,0.3-0.4,0.3-0.6C51.8,32.8,51.4,32.5,50.8,32.5z M42.7,33.7c0.5-0.5,1.5-0.5,2.6-0.1
						c0-0.5-0.9-1.1-1.8-1.1c-0.7,0-1,0.2-1,0.6C42.4,33.3,42.4,33.5,42.7,33.7z M58.6,25c-1.8,0.1-3.4,0.8-4.7,1.8
						c0.5-1.5,1.2-2.9,2.1-4.2c-2.3,0.2-4.3,1.1-5.7,2.6l-1.1-2.9l2.5-2.2l-3.3-0.2l-1.3-3.1l-1.3,3.1L42.4,20l2.5,2.2l-1.1,2.9
						c-1.4-1.5-3.4-2.3-5.7-2.6c0.9,1.3,1.6,2.7,2.1,4.2c-1.3-1-2.9-1.7-4.7-1.8c1.1,1.4,2.1,2.9,2.8,4.5c0.1,0.2,0.3,0.2,0.4,0.1
						c2.5-1.2,5.3-1.9,8.3-1.9c3,0,5.8,0.7,8.3,1.9c0.2,0.1,0.4,0,0.4-0.1C56.5,27.9,57.5,26.4,58.6,25z M62.6,36
						c3.6-1.2,5.9,2.3,8.7,1.5c-2.7-2.9-4.9-6.1-4.6-9.8c0-0.2-0.2-0.3-0.4-0.2c-1.4,0.9-2.3,2.5-2.6,4.3c-1.9-1.2-4.1-1.4-6-0.6
						C59.7,32.4,61.3,34.1,62.6,36z"/>
				</g>
			</g>
		</g>
		<g>
			<path fill="#007042" d="M63.2,62.1c1.1,0,2.1,0.9,2.1,2.1c0,1.2-0.9,2.1-2.1,2.1c-1.1,0-2.1-0.9-2.1-2.1
				C61.2,63,62.1,62.1,63.2,62.1z M63.2,65.9c0.9,0,1.7-0.8,1.7-1.8c0-1-0.8-1.8-1.7-1.8c-1,0-1.7,0.8-1.7,1.8
				C61.5,65.1,62.3,65.9,63.2,65.9z M62.5,62.9h0.9c0.6,0,0.8,0.2,0.8,0.7c0,0.4-0.3,0.6-0.6,0.7l0.7,1.1h-0.4l-0.7-1h-0.4v1h-0.4
				V62.9z M62.8,64h0.4c0.3,0,0.6,0,0.6-0.4c0-0.3-0.3-0.4-0.5-0.4h-0.5V64z"/>
		</g>
	</g>
</g>
</svg>
