<?xml version="1.0" encoding="utf-8"?>
<!-- Generator: Adobe Illustrator 21.0.0, SVG Export Plug-In . SVG Version: 6.00 Build 0)  -->
<svg version="1.1"
	 id="svg2" xmlns:cc="http://creativecommons.org/ns#" xmlns:dc="http://purl.org/dc/elements/1.1/" xmlns:rdf="http://www.w3.org/1999/02/22-rdf-syntax-ns#" xmlns:svg="http://www.w3.org/2000/svg"
	 xmlns="http://www.w3.org/2000/svg" xmlns:xlink="http://www.w3.org/1999/xlink" x="0px" y="0px" viewBox="0 0 632 370"
	 style="enable-background:new 0 0 632 370;" xml:space="preserve">
<style type="text/css">
	.st0{fill:#FFFFFF;stroke:#FFFFFF;stroke-opacity:0;}
	.st1{fill:#1F70C3;stroke:#FFFFFF;}
	.st2{fill:#1F70C3;stroke:#FFFFFF;stroke-width:3;}
	.st3{fill:#FFFFFF;}
</style>
<g id="text3011" transform="scale(1.0493529,0.95296826)">
	<path id="path3860" class="st0" d="M48.6,295.3H23.9l-3.9,11.1H4.2l22.7-61.2h18.8l22.7,61.2H52.5L48.6,295.3 M27.9,283.9h16.8
		l-8.4-24.3L27.9,283.9"/>
	<path id="path3862" class="st0" d="M140.4,261.9v12c-2-1.4-4-2.4-6-3c-2-0.7-4.1-1-6.2-1c-4.1,0-7.3,1.2-9.6,3.6
		c-2.3,2.4-3.4,5.7-3.4,10c0,4.3,1.1,7.6,3.4,10c2.3,2.4,5.5,3.6,9.6,3.6c2.3,0,4.5-0.3,6.5-1c2.1-0.7,4-1.7,5.7-3v12
		c-2.3,0.8-4.6,1.5-7,1.9c-2.4,0.4-4.7,0.7-7.1,0.7c-8.3,0-14.8-2.1-19.4-6.4c-4.7-4.3-7-10.2-7-17.7c0-7.6,2.3-13.5,7-17.7
		c4.7-4.3,11.1-6.4,19.4-6.4c2.4,0,4.8,0.2,7.1,0.7C135.7,260.5,138,261.1,140.4,261.9"/>
	<path id="path3864" class="st0" d="M201.2,285.7c-3.1,0-5.4,0.5-6.9,1.6c-1.5,1-2.3,2.6-2.3,4.6c0,1.9,0.6,3.3,1.8,4.4
		c1.3,1,3,1.6,5.2,1.6c2.8,0,5.1-1,7-3c1.9-2,2.8-4.5,2.8-7.5v-1.7L201.2,285.7 M223.6,280.2v26.2h-14.8v-6.8
		c-2,2.8-4.2,4.8-6.6,6.1c-2.5,1.3-5.5,1.9-9,1.9c-4.8,0-8.6-1.4-11.6-4.1c-3-2.8-4.4-6.4-4.4-10.8c0-5.4,1.8-9.3,5.5-11.8
		c3.7-2.5,9.5-3.8,17.5-3.8h8.6v-1.1c0-2.3-0.9-4-2.7-5.1c-1.8-1.1-4.7-1.6-8.6-1.6c-3.1,0-6.1,0.3-8.8,0.9
		c-2.7,0.6-5.2,1.6-7.5,2.8v-11.2c3.1-0.8,6.3-1.3,9.5-1.7c3.2-0.4,6.3-0.6,9.5-0.6c8.3,0,14.3,1.6,17.9,4.9
		C221.7,267.6,223.6,272.9,223.6,280.2"/>
	<path id="path3866" class="st0" d="M296.1,267.2v-24.6h14.8v63.8h-14.8v-6.6c-2,2.7-4.2,4.7-6.7,5.9c-2.4,1.3-5.2,1.9-8.4,1.9
		c-5.7,0-10.3-2.2-13.9-6.7c-3.6-4.5-5.5-10.3-5.5-17.4c0-7.1,1.8-12.9,5.5-17.3c3.6-4.5,8.3-6.8,13.9-6.8c3.2,0,6,0.6,8.4,1.9
		C291.8,262.6,294,264.5,296.1,267.2 M286.4,296.9c3.1,0,5.5-1.1,7.2-3.4c1.7-2.3,2.5-5.6,2.5-10c0-4.4-0.8-7.7-2.5-10
		c-1.6-2.3-4-3.4-7.2-3.4c-3.1,0-5.5,1.1-7.2,3.4c-1.6,2.3-2.5,5.6-2.5,10c0,4.4,0.8,7.7,2.5,10
		C280.9,295.8,283.3,296.9,286.4,296.9"/>
	<path id="path3868" class="st0" d="M398.3,283.3v4.2H364c0.4,3.4,1.6,6,3.7,7.7c2.1,1.7,5.1,2.6,8.9,2.6c3.1,0,6.2-0.5,9.5-1.4
		c3.3-0.9,6.6-2.3,10-4.2v11.3c-3.5,1.3-6.9,2.3-10.4,3c-3.5,0.7-6.9,1-10.4,1c-8.3,0-14.8-2.1-19.4-6.3c-4.6-4.2-6.9-10.2-6.9-17.8
		c0-7.5,2.3-13.4,6.8-17.7c4.5-4.3,10.8-6.4,18.7-6.4c7.2,0,13,2.2,17.3,6.5C396.1,270.3,398.3,276.1,398.3,283.3 M383.2,278.5
		c0-2.8-0.8-5-2.5-6.7c-1.6-1.7-3.7-2.6-6.4-2.6c-2.8,0-5.2,0.8-6.9,2.4c-1.8,1.6-2.9,3.9-3.3,6.9H383.2"/>
	<path id="path3870" class="st0" d="M479.4,268.1c1.9-2.8,4.1-5,6.6-6.5c2.6-1.5,5.4-2.3,8.4-2.3c5.3,0,9.3,1.6,12.1,4.9
		c2.8,3.3,4.1,8,4.1,14.2v28h-14.8v-23.9c0-0.4,0-0.7,0-1.1c0-0.4,0-0.9,0-1.6c0-3.3-0.5-5.6-1.4-7.1c-1-1.5-2.5-2.2-4.6-2.2
		c-2.8,0-4.9,1.1-6.5,3.4c-1.5,2.3-2.3,5.6-2.3,10v22.5h-14.8v-23.9c0-5.1-0.4-8.3-1.3-9.8c-0.9-1.5-2.4-2.2-4.7-2.2
		c-2.8,0-5,1.2-6.5,3.5c-1.5,2.3-2.3,5.6-2.3,9.9v22.6h-14.8v-45.9h14.8v6.7c1.8-2.6,3.9-4.5,6.2-5.9c2.4-1.3,4.9-2,7.7-2
		c3.2,0,6,0.8,8.4,2.3C476.3,263.2,478.2,265.4,479.4,268.1"/>
	<path id="path3872" class="st0" d="M545.9,260.5h14.7l12.3,31.2l10.5-31.2h14.7l-19.3,50.3c-1.9,5.1-4.2,8.7-6.8,10.7
		c-2.6,2-6,3.1-10.2,3.1h-8.5v-9.6h4.6c2.5,0,4.3-0.4,5.4-1.2c1.1-0.8,2-2.2,2.7-4.3l0.4-1.3L545.9,260.5"/>
</g>
<g id="g3836" transform="translate(-72.21875,-91.625)">
	<g id="text3838" transform="scale(1.0493529,0.95296826)">
		<path id="path3875" class="st1" d="M353.8,445.3c-2.9,0-5.1,1-6.7,3.1c-1.5,2.1-2.3,5.1-2.3,9c0,3.9,0.8,6.9,2.3,9
			c1.5,2.1,3.8,3.1,6.7,3.1c2.9,0,5-1,6.6-3.1c1.5-2.1,2.3-5.1,2.3-9c0-3.9-0.8-6.9-2.3-9C358.9,446.4,356.7,445.3,353.8,445.3
			 M353.8,436c7.1,0,12.6,1.9,16.5,5.7c4,3.8,6,9.1,6,15.8c0,6.7-2,12-6,15.8c-4,3.8-9.5,5.7-16.5,5.7c-7.1,0-12.6-1.9-16.6-5.7
			c-4-3.8-6-9.1-6-15.8c0-6.7,2-12,6-15.8C341.2,437.9,346.7,436,353.8,436"/>
		<path id="path3877" class="st1" d="M431.6,453v25h-13.2v-4.1v-15.1c0-3.5-0.1-6-0.3-7.3c-0.1-1.3-0.4-2.3-0.8-3
			c-0.5-0.9-1.2-1.5-2.1-2c-0.9-0.5-1.9-0.7-3-0.7c-2.7,0-4.9,1.1-6.4,3.2c-1.6,2.1-2.3,5-2.3,8.8V478h-13.1v-41h13.1v6
			c2-2.4,4.1-4.2,6.3-5.3c2.2-1.1,4.7-1.7,7.4-1.7c4.7,0,8.3,1.5,10.8,4.4C430.4,443.2,431.6,447.5,431.6,453"/>
		<path id="path3879" class="st1" d="M448.3,421h13.1v57h-13.1V421"/>
		<path id="path3881" class="st1" d="M478.6,437h13.1v41h-13.1V437 M478.6,421h13.1v10.7h-13.1V421"/>
		<path id="path3883" class="st1" d="M550.1,453v25h-13.2v-4.1v-15.1c0-3.5-0.1-6-0.3-7.3c-0.1-1.3-0.4-2.3-0.8-3
			c-0.5-0.9-1.2-1.5-2.1-2c-0.9-0.5-1.9-0.7-3-0.7c-2.7,0-4.9,1.1-6.4,3.2c-1.6,2.1-2.3,5-2.3,8.8V478h-13.1v-41H522v6
			c2-2.4,4.1-4.2,6.3-5.3c2.2-1.1,4.7-1.7,7.4-1.7c4.7,0,8.3,1.5,10.8,4.4C548.9,443.2,550.1,447.5,550.1,453"/>
		<path id="path3885" class="st1" d="M607.8,457.4v3.7h-30.7c0.3,3.1,1.4,5.4,3.3,6.9s4.6,2.3,8,2.3c2.8,0,5.6-0.4,8.5-1.2
			c2.9-0.8,5.9-2.1,8.9-3.7v10.1c-3.1,1.2-6.2,2.1-9.3,2.6c-3.1,0.6-6.2,0.9-9.3,0.9c-7.4,0-13.2-1.9-17.3-5.6
			c-4.1-3.8-6.2-9.1-6.2-15.9c0-6.7,2-12,6-15.8c4.1-3.8,9.6-5.7,16.7-5.7c6.4,0,11.6,1.9,15.5,5.8
			C605.9,445.7,607.8,450.9,607.8,457.4 M594.3,453c0-2.5-0.7-4.5-2.2-6c-1.4-1.5-3.3-2.3-5.7-2.3c-2.5,0-4.6,0.7-6.2,2.2
			c-1.6,1.4-2.6,3.5-3,6.2H594.3"/>
	</g>
</g>
<g id="layer2" transform="translate(-72.21875,-91.625)">
	<path id="path3793" class="st2" d="M698.1,209.4c0,62.3-50.7,112.8-113.3,112.8c-62.6,0-113.4-50.4-113.4-112.7c0,0,0-0.1,0-0.1
		c0-62.3,50.7-112.8,113.3-112.8c62.6,0,113.4,50.4,113.4,112.7C698.1,209.4,698.1,209.4,698.1,209.4z"/>
</g>
<g id="layer1" transform="translate(-72.21875,-91.625)">
	<g id="flowRoot3755" transform="matrix(9.5931332,0,0,9.8022588,-1256.5719,-2727.1871)">
		<path id="path3007" class="st3" d="M147.3,296.9v-5.9h3.5v15.2h-3.5v-1.6c-0.5,0.6-1,1.1-1.6,1.4c-0.6,0.3-1.3,0.4-2,0.4
			c-1.3,0-2.5-0.5-3.3-1.6c-0.9-1.1-1.3-2.5-1.3-4.1c0-1.7,0.4-3.1,1.3-4.1c0.9-1.1,2-1.6,3.3-1.6c0.8,0,1.4,0.2,2,0.5
			C146.2,295.8,146.8,296.3,147.3,296.9 M145,304c0.7,0,1.3-0.3,1.7-0.8c0.4-0.5,0.6-1.3,0.6-2.4c0-1-0.2-1.8-0.6-2.4
			c-0.4-0.5-1-0.8-1.7-0.8c-0.7,0-1.3,0.3-1.7,0.8c-0.4,0.5-0.6,1.3-0.6,2.4s0.2,1.8,0.6,2.4C143.6,303.7,144.2,304,145,304"/>
		<path id="path3009" class="st3" d="M165.2,299.6v6.7h-3.5v-1.1v-4c0-1,0-1.6-0.1-2c0-0.4-0.1-0.6-0.2-0.8
			c-0.1-0.2-0.3-0.4-0.6-0.5c-0.2-0.1-0.5-0.2-0.8-0.2c-0.7,0-1.3,0.3-1.7,0.8c-0.4,0.6-0.6,1.3-0.6,2.3v5.4h-3.5v-15.2h3.5v5.9
			c0.5-0.6,1.1-1.1,1.7-1.4c0.6-0.3,1.2-0.5,2-0.5c1.3,0,2.2,0.4,2.9,1.2C164.8,297,165.2,298.1,165.2,299.6"/>
		<path id="path3011" class="st3" d="M168.4,295.3h3.5v10.9h-3.5V295.3 M168.4,291.1h3.5v2.9h-3.5V291.1"/>
		<path id="path3013" class="st3" d="M183.8,295.7v2.7c-0.7-0.3-1.5-0.5-2.2-0.7c-0.7-0.2-1.4-0.2-2-0.2c-0.7,0-1.2,0.1-1.5,0.3
			c-0.3,0.2-0.5,0.4-0.5,0.8c0,0.3,0.1,0.5,0.4,0.6c0.2,0.1,0.7,0.3,1.3,0.3l0.6,0.1c1.8,0.2,3,0.6,3.6,1.1c0.6,0.5,0.9,1.3,0.9,2.5
			c0,1.2-0.4,2-1.3,2.6c-0.9,0.6-2.1,0.9-3.8,0.9c-0.7,0-1.5-0.1-2.2-0.2c-0.8-0.1-1.6-0.3-2.4-0.5v-2.7c0.7,0.3,1.4,0.6,2.1,0.8
			c0.7,0.2,1.5,0.3,2.2,0.3c0.7,0,1.2-0.1,1.5-0.3c0.3-0.2,0.5-0.5,0.5-0.8c0-0.3-0.1-0.5-0.4-0.7c-0.2-0.2-0.7-0.3-1.4-0.4
			l-0.6-0.1c-1.6-0.2-2.6-0.6-3.3-1.1c-0.6-0.5-0.9-1.3-0.9-2.4c0-1.2,0.4-2,1.2-2.6c0.8-0.6,2-0.8,3.7-0.8c0.6,0,1.3,0,2,0.1
			C182.2,295.3,183,295.5,183.8,295.7"/>
	</g>
</g>
<g id="g3826" transform="translate(-72.21875,-91.625)">
	<g id="flowRoot3828" transform="matrix(9.5931332,0,0,9.8022588,-802.5719,-2727.1871)">
		<path id="path3016" class="st3" d="M143.9,303.5h6.4v2.8h-10.6v-2.8l5.3-4.7c0.5-0.4,0.8-0.8,1.1-1.3c0.2-0.4,0.3-0.8,0.3-1.3
			c0-0.7-0.2-1.2-0.7-1.7c-0.5-0.4-1.1-0.6-1.8-0.6c-0.6,0-1.2,0.1-1.9,0.4c-0.7,0.2-1.4,0.6-2.2,1.1v-3.2c0.8-0.3,1.7-0.5,2.5-0.6
			c0.8-0.1,1.6-0.2,2.4-0.2c1.7,0,3.1,0.4,4.1,1.2c1,0.8,1.5,1.8,1.5,3.2c0,0.8-0.2,1.5-0.6,2.2c-0.4,0.7-1.3,1.6-2.6,2.8
			L143.9,303.5"/>
	</g>
</g>
</svg>
