<?xml version="1.0" encoding="UTF-8" standalone="no"?>
<svg
   xmlns:dc="http://purl.org/dc/elements/1.1/"
   xmlns:cc="http://creativecommons.org/ns#"
   xmlns:rdf="http://www.w3.org/1999/02/22-rdf-syntax-ns#"
   xmlns:svg="http://www.w3.org/2000/svg"
   xmlns="http://www.w3.org/2000/svg"
   viewBox="0 0 293.45001 70.224998"
   height="70.224998"
   width="293.45001"
   xml:space="preserve"
   version="1.1"
   id="svg2"><metadata
     id="metadata8"><rdf:RDF><cc:Work
         rdf:about=""><dc:format>image/svg+xml</dc:format><dc:type
           rdf:resource="http://purl.org/dc/dcmitype/StillImage" /></cc:Work></rdf:RDF></metadata><defs
     id="defs6" /><g
     transform="matrix(1.25,0,0,-1.25,0,70.225)"
     id="g10"><g
       transform="scale(0.1,0.1)"
       id="g12"><path
         id="path14"
         style="fill:#2e3191;fill-opacity:1;fill-rule:nonzero;stroke:none"
         d="m 307.027,234.625 47.7578,0 0,256.59 -47.7578,0 0,-256.59 z" /><path
         id="path16"
         style="fill:#2e3191;fill-opacity:1;fill-rule:nonzero;stroke:none"
         d="m 545.121,234.625 -47.047,0 0,107.285 c 0,24.949 -17.109,35.645 -34.929,35.645 -17.821,0 -34.93,-10.696 -34.93,-35.645 l 0,-107.285 -47.051,0 0,183.918 47.051,0 0,-16.039 c 8.195,12.476 26.73,21.027 43.129,21.027 37.422,0 73.777,-25.66 73.777,-79.84 l 0,-109.066" /><path
         id="path18"
         style="fill:#2e3191;fill-opacity:1;fill-rule:nonzero;stroke:none"
         d="m 663.813,277.043 0,-42.418 -45.266,0 c -32.789,0 -47.047,17.465 -47.047,47.051 l 0,178.57 47.047,0 0,-41.703 45.266,0 0,-42.414 -45.266,0 0,-84.477 c 0,-8.55 2.137,-14.609 13.543,-14.609 l 31.723,0" /><path
         id="path20"
         style="fill:#2e3191;fill-opacity:1;fill-rule:nonzero;stroke:none"
         d="m 725.832,353.316 0,-0.355 69.504,0 0,0.355 c -1.426,19.247 -13.547,31.368 -34.574,31.368 -21.032,0 -33.149,-12.477 -34.93,-31.368 z m 0,-39.207 0,-1.07 c 0,-21.738 12.477,-35.996 34.93,-35.996 16.394,0 27.801,7.84 32.433,20.312 l 47.762,0 c -7.484,-38.492 -35.285,-62.73 -80.195,-62.73 -52.754,0 -81.981,33.504 -81.981,84.477 l 0,23.523 c 0,50.969 29.227,84.473 81.981,84.473 52.754,0 81.98,-33.504 81.98,-84.473 l 0,-28.516 -116.91,0" /><path
         id="path22"
         style="fill:#2e3191;fill-opacity:1;fill-rule:nonzero;stroke:none"
         d="m 916.879,234.625 -47.047,0 0,183.918 47.047,0 0,-19.961 c 5.348,12.121 21.031,23.168 42.773,23.168 l 14.254,0 0,-45.977 -22.093,0 c -17.825,0 -34.934,-10.695 -34.934,-35.644 l 0,-105.504" /><path
         id="path24"
         style="fill:#2e3191;fill-opacity:1;fill-rule:nonzero;stroke:none"
         d="m 996.477,316.961 49.183,0 c 2.86,-21.027 19.25,-34.93 43.13,-34.93 21.03,0 35.65,7.84 35.65,24.949 0,13.903 -8.2,21.743 -25.67,26.375 l -42.06,11.407 c -38.13,10.34 -57.026,37.07 -57.026,73.781 0,49.898 39.206,72.711 82.696,72.711 49.9,0 80.91,-29.227 86.25,-71.641 l -49.18,0 c -4.28,16.75 -21.75,24.239 -37.79,24.239 -19.96,0 -34.21,-7.844 -34.21,-25.309 0,-14.613 11.4,-21.027 24.95,-24.594 l 40.63,-11.051 c 38.49,-10.335 59.17,-33.859 59.17,-75.918 0,-44.91 -29.23,-72.355 -83.41,-72.355 -54.53,0 -89.817,32.793 -92.313,82.336" /><path
         id="path26"
         style="fill:#2e3191;fill-opacity:1;fill-rule:nonzero;stroke:none"
         d="m 1286.19,218.23 c -9.98,-27.8 -12.83,-48.117 -45.62,-48.117 l -34.93,0 0,42.414 19.6,0 c 8.55,0 11.05,4.278 12.48,8.2 l 5.34,14.968 -65.58,183.918 49.54,0 40.99,-117.265 40.99,117.265 49.55,0 -72.36,-201.383" /><path
         id="path28"
         style="fill:#2e3191;fill-opacity:1;fill-rule:nonzero;stroke:none"
         d="m 1354.27,297.715 47.05,0 c 2.14,-14.258 18.89,-20.672 34.21,-20.672 9.27,0 23.17,2.137 23.17,14.258 0,7.484 -5.34,11.758 -16.39,14.254 l -38.5,8.554 c -19.96,4.633 -45.26,20.317 -45.26,56.317 0,36 32.43,56.672 70.21,56.672 37.43,0 68.08,-17.821 71.29,-59.524 l -48.12,0 c -2.5,11.762 -12.83,17.11 -24.59,17.11 -13.55,0 -21.39,-5.348 -21.75,-13.903 0,-7.84 6.42,-11.761 14.26,-13.543 l 41.35,-9.269 c 19.96,-4.633 44.55,-18.531 44.55,-56.668 0,-40.992 -33.15,-56.676 -71.64,-56.676 -38.14,0 -78.06,19.605 -79.84,63.09" /><path
         id="path30"
         style="fill:#2e3191;fill-opacity:1;fill-rule:nonzero;stroke:none"
         d="m 1680.62,353.316 0,-0.355 69.5,0 0,0.355 c -1.42,19.247 -13.54,31.368 -34.57,31.368 -21.03,0 -33.15,-12.477 -34.93,-31.368 z m 0,-39.207 0,-1.07 c 0,-21.738 12.48,-35.996 34.93,-35.996 16.4,0 27.8,7.84 32.44,20.312 l 47.76,0 c -7.49,-38.492 -35.29,-62.73 -80.2,-62.73 -52.75,0 -81.98,33.504 -81.98,84.477 l 0,23.523 c 0,50.969 29.23,84.473 81.98,84.473 52.75,0 81.98,-33.504 81.98,-84.473 l 0,-28.516 -116.91,0" /><path
         id="path32"
         style="fill:#2e3191;fill-opacity:1;fill-rule:nonzero;stroke:none"
         d="m 1986.44,234.625 -47.05,0 0,107.285 c 0,24.594 -17.11,35.645 -33.86,35.645 -16.75,0 -33.86,-11.051 -33.86,-35.645 l 0,-107.285 -47.05,0 0,183.918 47.05,0 0,-15.328 c 8.91,12.476 25.66,20.316 41.7,20.316 19.25,0 36.71,-7.125 49.55,-24.234 13.18,16.039 32.07,24.234 57.38,24.234 46.69,0 80.91,-26.015 80.91,-79.84 l 0,-109.066 -47.05,0 0,107.285 c 0,24.594 -17.11,35.645 -33.86,35.645 -16.75,0 -33.86,-11.051 -33.86,-35.645 l 0,-107.285" /><path
         id="path34"
         style="fill:#2e3191;fill-opacity:1;fill-rule:nonzero;stroke:none"
         d="m 2119.04,297.715 47.05,0 c 2.13,-14.258 18.88,-20.672 34.21,-20.672 9.27,0 23.17,2.137 23.17,14.258 0,7.484 -5.35,11.758 -16.4,14.254 l -38.49,8.554 c -19.96,4.633 -45.27,20.317 -45.27,56.317 0,36 32.44,56.672 70.22,56.672 37.42,0 68.08,-17.821 71.28,-59.524 l -48.11,0 c -2.5,11.762 -12.83,17.11 -24.6,17.11 -13.54,0 -21.38,-5.348 -21.74,-13.903 0,-7.84 6.42,-11.761 14.26,-13.543 l 41.34,-9.269 c 19.96,-4.633 44.56,-18.531 44.56,-56.668 0,-40.992 -33.15,-56.676 -71.64,-56.676 -38.14,0 -78.06,19.605 -79.84,63.09" /><path
         id="path36"
         style="fill:#2e3191;fill-opacity:1;fill-rule:nonzero;stroke:none"
         d="m 1613.65,277.043 0,-42.418 -45.27,0 c -32.79,0 -47.05,17.465 -47.05,47.051 l 0,178.57 47.05,0 0,-41.703 45.27,0 0,-42.414 -45.27,0 0,-84.477 c 0,-8.55 2.14,-14.609 13.55,-14.609 l 31.72,0" /><path
         id="path38"
         style="fill:#2e3191;fill-opacity:1;fill-rule:nonzero;stroke:none"
         d="m 360.82,139.133 18.293,0 0,-95.5705 -18.293,0 0,39.1836 -35.5,0 0,-39.1836 -18.293,0 0,95.5705 18.293,0 0,-38.227 35.5,0 0,38.227" /><path
         id="path40"
         style="fill:#2e3191;fill-opacity:1;fill-rule:nonzero;stroke:none"
         d="m 413.617,87.6602 0,-0.1329 26.621,0 0,0.1329 c -0.543,7.3711 -5.183,12.0156 -13.242,12.0156 -8.055,0 -12.695,-4.7774 -13.379,-12.0156 z m 0,-15.0157 0,-0.4101 c 0,-8.3281 4.778,-13.7891 13.379,-13.7891 6.281,0 10.652,3.0039 12.426,7.7813 l 18.293,0 c -2.863,-14.7461 -13.516,-24.0313 -30.719,-24.0313 -20.203,0 -31.398,12.836 -31.398,32.3594 l 0,9.0117 c 0,19.5236 11.195,32.3596 31.398,32.3596 20.207,0 31.406,-12.836 31.406,-32.3596 l 0,-10.9219 -44.785,0" /><path
         id="path42"
         style="fill:#2e3191;fill-opacity:1;fill-rule:nonzero;stroke:none"
         d="m 489.793,65.1367 c 0,-3.414 2.594,-7.1015 10.648,-7.1015 9.286,0 16.657,5.1875 16.657,14.0625 l 0,2.3203 c -10.239,-0.6797 -20.071,-1.5 -23.481,-3.2774 -3.008,-1.5 -3.824,-3.0039 -3.824,-6.0039 z m 27.031,24.3008 c -1.226,6.2813 -5.73,10.2383 -13.105,10.2383 -6.281,0 -10.653,-3.0039 -12.426,-7.7813 l -18.156,0 c 2.867,14.7465 13.379,24.0315 30.582,24.0315 20.203,0 31.402,-12.836 31.402,-32.3596 l 0,-40.0039 -18.023,0 0,8.0547 c -3.278,-5.3242 -8.875,-9.4219 -19.66,-9.4219 -16.11,0 -25.668,7.9219 -25.668,20.8906 0,10.2383 3.55,16.3829 13.382,21.0235 6.961,3.2812 21.024,4.3711 31.672,5.1914 l 0,0.1367" /><path
         id="path44"
         style="fill:#2e3191;fill-opacity:1;fill-rule:nonzero;stroke:none"
         d="m 578.93,59.8086 0,-16.2461 -8.739,0 c -12.558,0 -18.019,6.6914 -18.019,18.0234 l 0,77.5471 18.019,0 0,-73.7267 c 0,-3.2774 0.821,-5.5977 5.188,-5.5977 l 3.551,0" /><path
         id="path46"
         style="fill:#2e3191;fill-opacity:1;fill-rule:nonzero;stroke:none"
         d="m 631.348,59.8086 0,-16.2461 -17.336,0 c -12.563,0 -18.024,6.6914 -18.024,18.0234 l 0,36.1797 -9.965,0 0,16.2464 9.965,0 0,15.972 18.024,0 0,-15.972 17.336,0 0,-16.2464 -17.336,0 0,-32.3593 c 0,-3.2774 0.82,-5.5977 5.187,-5.5977 l 12.149,0" /><path
         id="path48"
         style="fill:#2e3191;fill-opacity:1;fill-rule:nonzero;stroke:none"
         d="m 707.66,43.5625 -18.019,0 0,41.0977 c 0,9.5546 -6.555,13.6523 -13.383,13.6523 -6.824,0 -13.379,-4.0977 -13.379,-13.6523 l 0,-41.0977 -18.02,0 0,95.5705 18.02,0 0,-31.266 c 3.141,4.778 10.242,8.059 16.523,8.059 14.332,0 28.258,-9.832 28.258,-30.5862 l 0,-41.7773" /><path
         id="path50"
         style="fill:#2e3191;fill-opacity:1;fill-rule:nonzero;stroke:none"
         d="m 878.684,62.4023 c 7.507,0 11.468,3.8243 11.468,10.5157 0,6.8242 -4.504,10.5117 -11.468,10.5117 l -24.032,0 0,-21.0274 24.032,0 z m -2.321,59.2537 -21.711,0 0,-20.066 21.711,0 c 6.965,0 11.469,3.551 11.469,10.101 0,6.692 -4.504,9.965 -11.469,9.965 z m -40.004,18.16 39.594,0 c 19.387,0 30.172,-10.921 30.172,-27.441 0,-7.922 -2.863,-14.8828 -8.602,-19.2539 6.692,-5.0508 10.922,-12.4219 10.922,-20.8867 0,-16.9297 -10.648,-27.9883 -30.308,-27.9883 l -41.778,0 0,95.5699" /><path
         id="path52"
         style="fill:#2e3191;fill-opacity:1;fill-rule:nonzero;stroke:none"
         d="m 965.914,74.1445 0,40.5505 18.024,0 0,-70.4489 -18.024,0 0,7.6445 c -3.004,-4.7773 -8.465,-9.0117 -17.066,-9.0117 -13.106,0 -26.899,9.4219 -26.899,30.5859 l 0,41.2302 18.028,0 0,-40.5505 c 0,-9.4179 6.414,-13.6523 12.964,-13.6523 6.559,0 12.973,4.2344 12.973,13.6523" /><path
         id="path54"
         style="fill:#2e3191;fill-opacity:1;fill-rule:nonzero;stroke:none"
         d="m 997.305,67.0469 18.025,0 c 0.81,-5.461 7.23,-7.918 13.1,-7.918 3.55,0 8.88,0.8164 8.88,5.4609 0,2.8633 -2.05,4.504 -6.28,5.461 l -14.75,3.2773 c -7.64,1.7735 -17.339,7.7813 -17.339,21.5703 0,13.7896 12.419,21.7066 26.899,21.7066 14.33,0 26.07,-6.824 27.3,-22.8003 l -18.43,0 c -0.95,4.5039 -4.92,6.5543 -9.42,6.5543 -5.19,0 -8.19,-2.0504 -8.33,-5.3238 0,-3.0039 2.46,-4.5039 5.46,-5.1875 l 15.84,-3.5508 c 7.65,-1.7735 17.07,-7.0977 17.07,-21.7071 0,-15.7031 -12.7,-21.7109 -27.44,-21.7109 -14.61,0 -29.906,7.5117 -30.585,24.168" /><path
         id="path56"
         style="fill:#2e3191;fill-opacity:1;fill-rule:nonzero;stroke:none"
         d="m 1087.26,44.2461 -18.02,0 0,70.4489 18.02,0 0,-70.4489 z m 0,79.5979 -18.02,0 0,15.972 18.02,0 0,-15.972" /><path
         id="path58"
         style="fill:#2e3191;fill-opacity:1;fill-rule:nonzero;stroke:none"
         d="m 1168.35,44.2461 -18.02,0 0,41.0977 c 0,9.5546 -6.55,13.6523 -13.38,13.6523 -6.82,0 -13.38,-4.0977 -13.38,-13.6523 l 0,-41.0977 -18.02,0 0,70.4489 18.02,0 0,-6.144 c 3.14,4.777 10.24,8.054 16.52,8.054 14.34,0 28.26,-9.832 28.26,-30.5816 l 0,-41.7773" /><path
         id="path60"
         style="fill:#2e3191;fill-opacity:1;fill-rule:nonzero;stroke:none"
         d="m 1201.52,88.3438 0,-0.1329 26.62,0 0,0.1329 c -0.54,7.375 -5.18,12.0152 -13.24,12.0152 -8.06,0 -12.7,-4.7809 -13.38,-12.0152 z m 0,-15.0157 0,-0.4101 c 0,-8.3282 4.78,-13.7891 13.38,-13.7891 6.28,0 10.65,3.0039 12.42,7.7813 l 18.3,0 c -2.87,-14.7461 -13.52,-24.0313 -30.72,-24.0313 -20.21,0 -31.4,12.8359 -31.4,32.3594 l 0,9.0117 c 0,19.523 11.19,32.355 31.4,32.355 20.2,0 31.4,-12.832 31.4,-32.355 l 0,-10.9219 -44.78,0" /><path
         id="path62"
         style="fill:#2e3191;fill-opacity:1;fill-rule:nonzero;stroke:none"
         d="m 1257.35,67.0469 18.02,0 c 0.82,-5.461 7.24,-7.918 13.11,-7.918 3.55,0 8.87,0.8164 8.87,5.4609 0,2.8633 -2.04,4.504 -6.28,5.461 l -14.74,3.2773 c -7.65,1.7735 -17.34,7.7813 -17.34,21.5703 0,13.7896 12.42,21.7066 26.9,21.7066 14.33,0 26.07,-6.824 27.3,-22.8003 l -18.43,0 c -0.96,4.5039 -4.92,6.5543 -9.42,6.5543 -5.19,0 -8.19,-2.0504 -8.33,-5.3238 0,-3.0039 2.46,-4.5039 5.46,-5.1875 l 15.84,-3.5508 c 7.65,-1.7735 17.07,-7.0977 17.07,-21.7071 0,-15.7031 -12.7,-21.7109 -27.45,-21.7109 -14.61,0 -29.9,7.5117 -30.58,24.168" /><path
         id="path64"
         style="fill:#2e3191;fill-opacity:1;fill-rule:nonzero;stroke:none"
         d="m 1323.56,67.0469 18.02,0 c 0.82,-5.461 7.24,-7.918 13.11,-7.918 3.55,0 8.87,0.8164 8.87,5.4609 0,2.8633 -2.05,4.504 -6.28,5.461 l -14.75,3.2773 c -7.64,1.7735 -17.33,7.7813 -17.33,21.5703 0,13.7896 12.42,21.7066 26.89,21.7066 14.34,0 26.08,-6.824 27.31,-22.8003 l -18.43,0 c -0.96,4.5039 -4.92,6.5543 -9.43,6.5543 -5.18,0 -8.19,-2.0504 -8.32,-5.3238 0,-3.0039 2.46,-4.5039 5.46,-5.1875 l 15.84,-3.5508 c 7.64,-1.7735 17.06,-7.0977 17.06,-21.7071 0,-15.7031 -12.7,-21.7109 -27.44,-21.7109 -14.61,0 -29.9,7.5117 -30.58,24.168" /><path
         id="path66"
         style="fill:#2e3191;fill-opacity:1;fill-rule:nonzero;stroke:none"
         d="m 1547.14,98.1758 36.04,0 0,-20.6172 c 0,-21.1602 -13.1,-35.3633 -36.04,-35.3633 -22.94,0 -36.05,14.2031 -36.05,35.3633 l 0,27.5784 c 0,21.164 13.11,35.359 36.05,35.359 21.57,0 34.4,-12.558 35.91,-31.535 l -18.44,0 c -1.63,8.602 -8.74,13.379 -17.47,13.379 -9.97,0 -17.75,-6.145 -17.75,-17.203 l 0,-27.5784 c 0,-11.0586 7.78,-17.2031 17.75,-17.2031 9.96,0 17.74,6.1445 17.74,17.2031 l 0,2.457 -17.74,0 0,18.1602" /><path
         id="path68"
         style="fill:#2e3191;fill-opacity:1;fill-rule:nonzero;stroke:none"
         d="m 1641.6,85.8867 c 0,8.3281 -4.78,13.7891 -13.38,13.7891 -8.6,0 -13.38,-5.461 -13.38,-13.7891 l 0,-13.6523 c 0,-8.3281 4.78,-13.7891 13.38,-13.7891 8.6,0 13.38,5.461 13.38,13.7891 l 0,13.6523 z m -44.78,-2.3203 c 0,19.5236 11.2,32.3596 31.4,32.3596 20.21,0 31.41,-12.836 31.41,-32.3596 l 0,-9.0117 c 0,-19.5234 -11.2,-32.3594 -31.41,-32.3594 -20.2,0 -31.4,12.836 -31.4,32.3594 l 0,9.0117" /><path
         id="path70"
         style="fill:#2e3191;fill-opacity:1;fill-rule:nonzero;stroke:none"
         d="m 1716.4,114.012 18.98,0 -25.39,-70.4495 -18.57,0 -25.4,70.4495 18.98,0 15.7,-44.9182 15.7,44.9182" /><path
         id="path72"
         style="fill:#2e3191;fill-opacity:1;fill-rule:nonzero;stroke:none"
         d="m 1759.81,87.6602 0,-0.1329 26.62,0 0,0.1329 c -0.54,7.3711 -5.18,12.0156 -13.24,12.0156 -8.05,0 -12.7,-4.7774 -13.38,-12.0156 z m 0,-15.0157 0,-0.4101 c 0,-8.3281 4.78,-13.7891 13.38,-13.7891 6.28,0 10.65,3.0039 12.43,7.7813 l 18.29,0 c -2.87,-14.7461 -13.52,-24.0313 -30.72,-24.0313 -20.2,0 -31.4,12.836 -31.4,32.3594 l 0,9.0117 c 0,19.5236 11.2,32.3596 31.4,32.3596 20.21,0 31.41,-12.836 31.41,-32.3596 l 0,-10.9219 -44.79,0" /><path
         id="path74"
         style="fill:#2e3191;fill-opacity:1;fill-rule:nonzero;stroke:none"
         d="m 1838.58,43.5625 -18.02,0 0,70.4495 18.02,0 0,-7.649 c 2.05,4.645 8.06,8.879 16.38,8.879 l 5.46,0 0,-17.6131 -8.46,0 c -6.83,0 -13.38,-4.0937 -13.38,-13.6523 l 0,-40.4141" /><path
         id="path76"
         style="fill:#2e3191;fill-opacity:1;fill-rule:nonzero;stroke:none"
         d="m 1934.96,43.5625 -18.02,0 0,41.0977 c 0,9.5546 -6.56,13.6523 -13.38,13.6523 -6.83,0 -13.38,-4.0977 -13.38,-13.6523 l 0,-41.0977 -18.02,0 0,70.4495 18.02,0 0,-6.145 c 3.14,4.778 10.24,8.059 16.52,8.059 14.34,0 28.26,-9.832 28.26,-30.5862 l 0,-41.7773" /><path
         id="path78"
         style="fill:#2e3191;fill-opacity:1;fill-rule:nonzero;stroke:none"
         d="m 2014.27,43.5625 -18.02,0 0,41.0977 c 0,9.4179 -6.55,13.6523 -12.97,13.6523 -6.42,0 -12.97,-4.2344 -12.97,-13.6523 l 0,-41.0977 -18.02,0 0,70.4495 18.02,0 0,-5.871 c 3.41,4.777 9.83,7.785 15.97,7.785 7.37,0 14.07,-2.731 18.98,-9.285 5.05,6.14 12.29,9.285 21.98,9.285 17.88,0 30.99,-9.969 30.99,-30.5862 l 0,-41.7773 -18.02,0 0,41.0977 c 0,9.4179 -6.55,13.6523 -12.97,13.6523 -6.42,0 -12.97,-4.2344 -12.97,-13.6523 l 0,-41.0977" /><path
         id="path80"
         style="fill:#2e3191;fill-opacity:1;fill-rule:nonzero;stroke:none"
         d="m 2091.39,87.6602 0,-0.1329 26.62,0 0,0.1329 c -0.54,7.3711 -5.18,12.0156 -13.24,12.0156 -8.05,0 -12.7,-4.7774 -13.38,-12.0156 z m 0,-15.0157 0,-0.4101 c 0,-8.3281 4.78,-13.7891 13.38,-13.7891 6.28,0 10.65,3.0039 12.43,7.7813 l 18.29,0 c -2.87,-14.7461 -13.52,-24.0313 -30.72,-24.0313 -20.2,0 -31.4,12.836 -31.4,32.3594 l 0,9.0117 c 0,19.5236 11.2,32.3596 31.4,32.3596 20.21,0 31.4,-12.836 31.4,-32.3596 l 0,-10.9219 -44.78,0" /><path
         id="path82"
         style="fill:#2e3191;fill-opacity:1;fill-rule:nonzero;stroke:none"
         d="m 2214.94,43.5625 -18.02,0 0,41.0977 c 0,9.5546 -6.55,13.6523 -13.38,13.6523 -6.83,0 -13.38,-4.0977 -13.38,-13.6523 l 0,-41.0977 -18.02,0 0,70.4495 18.02,0 0,-6.145 c 3.14,4.778 10.24,8.059 16.52,8.059 14.34,0 28.26,-9.832 28.26,-30.5862 l 0,-41.7773" /><path
         id="path84"
         style="fill:#2e3191;fill-opacity:1;fill-rule:nonzero;stroke:none"
         d="m 2269.94,59.8086 0,-16.2461 -17.34,0 c -12.56,0 -18.02,6.6914 -18.02,18.0234 l 0,36.1797 -9.97,0 0,16.2464 9.97,0 0,15.972 18.02,0 0,-15.972 17.34,0 0,-16.2464 -17.34,0 0,-32.3593 c 0,-3.2774 0.82,-5.5977 5.19,-5.5977 l 12.15,0" /><path
         id="path86"
         style="fill:#3aae9b;fill-opacity:1;fill-rule:nonzero;stroke:none"
         d="m 763.164,43.5625 17.6914,0 0,95.5703 -17.6914,0 0,-95.5703 z" /><path
         id="path88"
         style="fill:#25b4a9;fill-opacity:1;fill-rule:nonzero;stroke:none"
         d="m 1437.09,43.5625 17.6914,0 0,95.5703 -17.6914,0 0,-95.5703 z" /><path
         id="path90"
         style="fill:#2e3191;fill-opacity:1;fill-rule:nonzero;stroke:none"
         d="m 2312.5,409.762 8.31,0 c 2.93,0 4.88,-1.465 4.88,-4.399 0,-2.851 -1.95,-4.316 -4.88,-4.316 l -8.31,0 0,8.715 z m 19.95,-28.516 -8.63,14.668 c 4.81,0.977 7.58,4.316 7.58,9.531 0,6.192 -4,9.856 -10.59,9.856 l -13.86,0 0,-34.055 5.55,0 0,14.422 5.29,0 8.47,-14.422 6.19,0 z m -14.17,-7.086 c 13.36,0 24.04,10.754 24.04,24.117 0,13.36 -10.68,24.114 -24.04,24.114 -13.36,0 -24.03,-10.754 -24.03,-24.114 0,-13.363 10.67,-24.117 24.03,-24.117 z m 0,53.445 c 16.21,0 29.33,-13.121 29.33,-29.328 0,-16.214 -13.12,-29.332 -29.33,-29.332 -16.21,0 -29.33,13.118 -29.33,29.332 0,16.207 13.12,29.328 29.33,29.328" /><path
         id="path92"
         style="fill:#2e3191;fill-opacity:1;fill-rule:nonzero;stroke:none"
         d="M 70.5156,482.969 0,518.254 0,70.5664 141.031,0 l 0,78.8594 -70.5154,35.2736 0,368.836" /><path
         id="path94"
         style="fill:#25b4a9;fill-opacity:1;fill-rule:nonzero;stroke:none"
         d="m 141.031,78.8594 70.516,-35.3047 0,447.6993 -141.0314,70.566 0,-78.851 70.5154,-35.266 0,-368.8436" /></g></g></svg>