<?xml version="1.0" encoding="utf-8"?>
<!-- Generator: Adobe Illustrator 19.0.0, SVG Export Plug-In . SVG Version: 6.00 Build 0)  -->
<svg version="1.1" xmlns="http://www.w3.org/2000/svg" xmlns:xlink="http://www.w3.org/1999/xlink" x="0px" y="0px"
	 viewBox="0 0 156.8 40.6" style="enable-background:new 0 0 156.8 40.6;" xml:space="preserve">
<style type="text/css">
	.st0{display:none;}
	.st1{display:inline;stroke:#000000;stroke-miterlimit:10;}
	.st2{fill:#FFFFFF;}
	.st3{fill:#BCBEC0;}
	.st4{fill:#BCBEC0;stroke:#BCBEC0;}
</style>
<g id="Layer_2" class="st0">
	<rect id="XMLID_8_" x="-21.1" y="-3.2" class="st1" width="200" height="50"/>
</g>
<g id="Layer_1">
	<g id="XMLID_1_">
		<polyline id="XMLID_7_" class="st2" points="4.5,30.7 14.7,30.7 21.2,13.6 23.4,30.6 32.2,30.6 46.3,14.1 40,30.6 57.7,30.6 
			59.8,25 51.5,25 52.5,22.6 59.6,22.7 61.7,17.7 61.8,17.4 54.3,17.6 55,15.5 63.3,15.5 65.4,10 39.6,10 30.7,22.1 31.1,10 
			22.5,10 25.6,1.3 15.3,1.4 4.6,30.7 		"/>
		<path id="XMLID_12_" class="st2" d="M147.2,10l-3.8,10.4l-4.1-10.5H130l-2.7,6.9c0,0,0.2-8.3-10.2-7.7c0,0-9.2,0.7-13.6,10.6
			c0,0-0.6-2-5.9-2.5c0,0-3.1-0.5-1.9-1.9c1.2-1.4,6.6,1.1,6.6,1.1l4.7-5c0,0-12.3-5.7-20.2,2.9c0,0-0.8-4.1-5.5-4.3
			c-4.7-0.2-15.1-0.1-15.1-0.1l-7.7,20.7h9.1l2.7-6.7l1.9,6.8h10.6L82,29c0,0,14.9,5.2,21-4.2c0,0,6,13.9,21.1,0.2l-1.9,5.7h9.1
			l4.1-10.7l3.7,10.7h9.2l8.1-20.7L147.2,10z M77.3,16.6c-0.6,3.3-5.4,2.7-5.4,2.7l1.9-4.3C77.5,14.7,77.3,16.6,77.3,16.6z
			 M92.7,24.7c-3.3,1.1-7.1-2-7.1-2l-4.1,4.8l-2.3-5.4c4.7-0.5,6.2-3.8,6.2-3.8c1.5,4.7,5.5,3.5,7.6,4.5
			C95.1,23.7,92.7,24.7,92.7,24.7z M119,22.1c-1.7,3.3-4.7,5-6.7,4c-2-1.1-2.2-4.6-0.5-7.8c1.7-3.3,4.7-5,6.7-4
			C120.5,15.3,120.7,18.8,119,22.1z"/>
		<polygon id="XMLID_2_" class="st3" points="66.3,9.9 71.4,21.8 58.6,30.6 		"/>
		<polygon id="XMLID_9_" class="st4" points="4.2,32.1 1.5,39 145.3,39 148.1,31.9 		"/>
	</g>
</g>
</svg>
