<?xml version="1.0" encoding="utf-8"?>
<!-- Generator: Adobe Illustrator 19.0.0, SVG Export Plug-In . SVG Version: 6.00 Build 0)  -->
<svg version="1.1" id="Layer_1" xmlns="http://www.w3.org/2000/svg" xmlns:xlink="http://www.w3.org/1999/xlink" x="0px" y="0px"
	 viewBox="71 31.4 283.5 93.5" style="enable-background:new 71 31.4 283.5 93.5;" xml:space="preserve">
<style type="text/css">
	.st0{fill:#FFFFFF;}
	.st1{fill:#1E417D;}
	.st2{fill:#97BEE5;}
</style>
<g id="XMLID_47_">
	<g id="XMLID_67_">
		<path id="XMLID_107_" class="st0" d="M114.1,124.2c-18.5-11-41.7-27-41.7-55.1V39.3c8.6-3.2,21.7-7.2,41.7-7.2
			c20.3,0,34.2,4.4,41.7,7.3v29.8C155.9,97.6,131.7,114,114.1,124.2z"/>
	</g>
	<g id="XMLID_52_">
		<path id="XMLID_58_" class="st1" d="M126.7,85.7c0-0.6,0.5-1.6,0.5-2.5c0-1-1.3-1.4-2.3-1.5c-2.1-0.3-2.8-0.2-2.8-0.7
			c0-0.3,0.3-0.7,0.7-1.2c0.6-0.8,1.9-1.1,2.6-1.2c0.9-0.1,2-0.3,3.2-0.3c1.4,0,2.6,0.2,3.1,0.3c1.3,0.2,1.5,0.8,1.5,1.4
			c0,0.1,0,0.4,0,0.6c0,0.6-0.5,0.9-1.4,1.1c-0.2,0-0.5,0.1-0.7,0.1c-0.6,0.1-1.4,0.3-1.7,1.1c-0.6,1.8-1.7,3.1-2.5,3.1
			C126.9,86.1,126.7,86,126.7,85.7z M128.6,57.4c-0.1,0-0.3-0.1-0.3-0.4s0.2-0.6,0.7-1.2c1-1.4,2.5-3.1,3-3.1c0.3,0,0.4,0.2,0.7,0.8
			c0.2,0.4,0.4,1,0.4,1.5c0,1.9-0.6,3.2-1.6,4.7C130.8,59.1,129.9,58.2,128.6,57.4z M97.9,60.9c0.5,0,0.8-0.3,1.5-1.1
			c1.6-1.8,3.1-2,3.1-2.7c0-0.3-0.2-0.7-0.4-1c-1.7-2.6-2.4-4.1-3.4-6c-0.4-0.7-0.8-1.2-1.2-1.2c-0.6,0-1.2,0.7-1.6,1.3
			c-0.5,0.8-1,1.8-1,2.6c0,1.3,0.3,3.6,0.8,5.1C96.4,59.5,97.2,60.9,97.9,60.9z M116.9,67c0-1.1-1.2-2.7-3.4-2.7
			c-1.9,0-3.4,1.4-3.7,2.6c0.5,0.9,0.9,1.8,2.7,2.4c0.2,0.1,0.5,0.1,0.5,0.3c0,0.3-0.3,0.4-1,0.4c-2.1,0-3.3-0.8-3.8-1.6
			c-0.5,0.1-1.2,0.3-1.9,0.3c-0.6,0-0.9-0.4-0.9-1c0-0.4,0.1-0.8,0.3-1.2c0.1-0.2,0.2-0.5,0.3-0.7c0.3-0.6,0.8-2,2.7-3.1
			c0.2-0.1,0.8-0.5,1.1-0.6c1.1-0.6,1.9-0.8,3.2-0.8c0.1,0,0.8,0,0.9,0c1.5,0,2.3,0.4,3,1c1.4,1.1,2.1,1.8,2.1,2.6
			c0,0.9-0.1,1.7-0.8,2.7c-0.7,0.9-1.6,1.4-2.2,1.4c-0.2,0-0.2-0.1-0.2-0.2s0.1-0.2,0.3-0.3C116.5,68.1,116.8,67.4,116.9,67z
			 M126.1,96.3c-0.4,0.1-1.1,0.3-4.2,0.3c-4.7,0-5.5-1.2-5.5-2.1c0-1.5,6.8-2.6,9.5-2.6c2.6,0,3.7,0.8,3.7,1.5
			C129.6,94,128.4,95.8,126.1,96.3z M98.9,110.2c4.9,3.9,10.2,7.3,15.4,10.3l0,0l0,0c0-4.6-0.1-7.4,3-10.7c1.3-1.3,2.6-2.7,3.8-3.9
			c0.9-0.9,1.6-1.6,2-1.6c0.3,0,0.4,0.2,0.4,0.6s0.2,1.9,1.1,3.8c1.2,2.3,2.9,2.6,3.5,2.7c13.5-10.2,24.8-23.5,24.8-42.2
			c0-10.4,0-27.5,0-27.5c-3.3-1.1-17-6.4-38.5-6.4s-35.3,5.2-38.6,6.3c0,0,0,17.2,0,27.5c0,8.3,2.2,15.5,5.8,21.9
			c0.4-3.8,2.9-5.6,2.9-9.4c0-2.6-0.7-4.3-0.7-6.5c0-4,5.4-12.1,8.1-15.5c0.1-0.1,0.3-0.3,0.5-0.3s0.4,0.1,0.5,0.3
			c0.3,0.4,0.4,0.7,0.7,0.7c0.3,0,0.4-0.2,0.4-0.4c0-0.7-0.8-1.8-0.8-6.4c0-3.2,0.7-3.8,2.7-5.7c0.4-0.4,1.5-1.4,2.5-1.4
			c1.2,0,1.7,0.7,2.5,1.4c1.2,1.2,2.9,3.4,3.2,3.8c0.1,0.1,0.1,0.2,0.3,0.2c0.6,0,1-0.2,3.5-0.2c4.4,0,11.1,0.7,14.5,1.8
			c1.8,0.6,2.1,1,2.6,1c0.2,0,0.2-0.1,0.2-0.3c0-0.2-0.5-0.6-0.5-0.9c0-0.2,0.2-0.3,0.3-0.4c2.6-1.4,4.7-2.4,6.7-2.4
			c1.2,0,1.7,1,2.2,2c0.4,0.8,0.8,1.8,0.8,2.9c0,2.7-1,4.4-1.9,5.5c0.4,0.4,1,1,1.3,1.4c0.6,0.7,1.3,1.7,1.3,2.7
			c0,0.4-0.2,1.1-0.3,1.6c-0.1,0.2-0.3,0.7-0.7,0.7s-0.5-0.4-0.5-0.8c0-0.1,0-0.2,0-0.3c0-0.8-0.2-1.8-0.9-2.6
			c-0.8-0.9-1.6-1.5-2.6-1.5c-0.1,0-0.3,0-0.3,0c-1.6,0-2.3,0.7-2.7,1.1c-0.5,0.5-0.8,1.1-0.8,1.9c0,0.5,0.3,1,0.8,1.9
			c0.3,0.5,0.9,1.7,1.3,2.4c0.3,0.5,0.7,0.7,1.2,0.7c1.1,0,2.1-0.2,2.1-0.5c0-0.1,0-0.2-0.2-0.2c-0.1,0-0.2,0-0.4,0
			c-1.4,0-2.2-1.8-2.9-3.5c0.5-0.5,1.2-1.1,2.3-1.1c1.4,0,2.4,1,2.4,2.2c0,0.6-0.2,1.1-0.3,1.4c-0.1,0.1-0.1,0.2-0.1,0.3
			c0,0.2,0.2,0.2,0.6,0.3c0.1,0,0.4,0.1,0.6,0.1c0.4,0.1,0.9,0.5,1.1,1c0.1,0.3,0.4,1.1,0.5,1.3c0.2,0.7,0.6,1.7,0.6,3
			c0,1.3-0.1,1.6-0.4,2.9c-0.4,1.6-0.6,2.3-0.7,3.2c0.2,0.3,0.2,0.4,0.2,0.5c0.2,0.5,0.6,1.5,0.6,2.5c0,0.3,0,0.8,0,0.8
			c0,1.6-0.7,2.9-1.4,3.9c-0.6,0.7-1.3,1.8-1.8,2.4c-0.3,0.4-0.7,0.6-1.1,0.6c-0.2,0-0.5-0.1-0.7-0.1c-0.3-0.1-0.9-0.2-1.1-0.3
			c-1-0.2-1.3-0.9-1.6-1.7c0-0.1-0.2-0.5-0.2-0.6c-0.2-0.6-0.4-1-0.7-1c-0.3,0-0.5,0.2-0.8,0.6c-1,1.4-1.5,2-3.2,2.4
			c-0.6,0.1-1.8,0.4-2.5,0.5c-1,0.2-2.8,0.7-3.8,0.7c-0.2,0-0.4,0-0.7,0c-1.4-0.2-2.4-0.3-4.1-2.4c-2.4-2.8-2.1-3.2-2.3-7.1
			c0-0.4-0.2-1-0.6-1s-0.6,0.8-0.7,2c-0.2,1.4-0.5,2.8-1.1,2.8c-0.5,0-0.8-0.1-1.5-0.3c-0.9-0.3-3-1-4.2-1.4c-1.5-0.5-3-0.9-3.6-2.3
			c-0.3-0.6-0.8-1.8-1.1-2.5c-0.2-0.4-0.3-0.7-0.6-0.7c-0.4,0-0.5,0.5-0.5,0.9c-0.1,0.4-0.2,1.4-0.2,2.1c-0.2,2.7-0.8,3.8-1.9,5.3
			c-0.5,0.7-1,1.4-1.6,2.1c-1.2,1.6-1.9,3.2-1.9,6.2c0,0.2,0,1.3,0,1.9C90.1,101.9,91.2,104.1,98.9,110.2z"/>
		<path id="XMLID_53_" class="st2" d="M134.7,70.1L134.7,70.1c0.1,0.3,0.4,1.1,0.5,1.3c0.2,0.7,0.6,1.7,0.6,3c0,1.3-0.1,1.6-0.4,2.9
			c-0.4,1.6-0.6,2.3-0.7,3.2c-0.1-0.3-2.4-4.3-2.6-4.6c-0.2-0.3-0.3-0.6-0.3-1s0.2-0.7,0.7-1c0.3-0.2,0.7-0.4,0.9-0.5
			c1.2-0.6,1.5-1.4,1.5-2.2C134.8,70.8,134.7,70.5,134.7,70.1z M124.5,76.5c0.1,0.3,0.2,0.7,0.2,0.9c0,0.6-0.1,0.8-0.5,1.1
			c-0.2,0.2-0.4,0.4-0.6,0.6c-0.3,0.2-0.6,0.4-0.8,0.7c-0.4,0.5-0.7,0.9-0.7,1.2c0,0.1,0,0.2,0.1,0.2c-0.5-0.3-0.6-0.9-0.6-1.3
			s0.1-0.6,0.1-1c0-0.3-0.1-0.7-0.2-0.9c-0.6-2.2-1.7-4.7-2.4-6.5c-0.7-1.8-1.2-2.8-2-2.8c-0.4,0-0.8,0.2-1.3,0.2
			c0.6,0,1.6-0.6,2.2-1.4c0.8-1,0.8-1.7,0.8-2.7c0-0.4-0.2-0.8-0.5-1.1c1,1,1.6,2.3,2.3,3.7C122.2,70.6,123.5,73.9,124.5,76.5z
			 M90,97.4c0-0.5,0-1.7,0-1.9c0-3,0.7-4.7,1.9-6.2c0.6-0.8,1.1-1.5,1.6-2.1c1.1-1.5,1.7-2.6,1.9-5.3c0.1-0.6,0.2-1.6,0.2-2.1
			c0-0.4,0.1-0.9,0.5-0.9c0.3,0,0.4,0.2,0.6,0.7c0.3,0.6,0.8,1.8,1.1,2.5c0.6,1.4,2.1,1.8,3.6,2.3c1.1,0.4,3.3,1.1,4.2,1.4
			c0.7,0.2,1,0.3,1.5,0.3c0.7,0,1-1.4,1.1-2.8c0.1-1.2,0.3-2,0.7-2c0.4,0,0.6,0.5,0.6,1c0.1,3.8-0.1,4.2,2.3,7.1
			c1.7,2.1,2.7,2.2,4.1,2.4c-0.5-0.2-1.2-0.8-1.2-2c0-0.2,0-1.2,0-1.4c0-0.7,0.1-1.4,0.4-2.2c0.2-0.4,0.3-1,0.5-1.5
			c0.3-0.7,0.2-0.9,0.2-1.4s-0.2-1-0.6-2.3c-0.2-0.6-0.5-1.6-0.8-2.4c-0.9-2.4-1.2-3-4.1-3.4c-0.9-0.1-5-0.7-5.8-0.8
			c-3.2-0.5-5.8-0.6-7.1-2.8c-1.6-2.6-1.4-5.7-2.9-5.7c-0.7,0-1.1,0.8-1.1,2s0.5,3.2,0.5,6.7c0,3-0.3,3.8-2,6
			c-0.5,0.6-1.1,1.4-1.5,1.9c-1.3,1.6-1.9,2.5-1.8,4.4C88.8,91.9,89.6,95.5,90,97.4z M122.8,108.9c0.1-1.2,0.6-3.2,0.6-4l0,0
			c0-0.4-0.1-0.6-0.4-0.6c-0.4,0-1.1,0.7-2,1.6c-1.2,1.2-2.5,2.6-3.8,3.9c-3.1,3.3-3,6-3,10.7l0,0c3.5-2.1,6.7-4.1,9.1-5.7
			C122.9,112.9,122.6,111.5,122.8,108.9z"/>
	</g>
</g>
<g id="XMLID_1_">
	<path id="XMLID_20_" class="st0" d="M172.6,45.3h-2.4v-3.8H182c6.2,0,9.4,3.2,9.4,7.9c0,5.5-4.3,7.9-9.4,7.9h-3.9v6.1h2.5v3.7
		h-10.4v-3.7h2.5V45.3H172.6z M181.3,53.5c2.7,0,4.4-1.5,4.4-4.1c0-2.4-1.5-4.1-4.5-4.1H178v8.2H181.3z M197.8,58.7
		c0.1,3,2.5,4.9,6.1,4.9c3.2,0,5.1-0.9,5.9-1.2v4c-0.8,0.3-2.9,1.2-7.1,1.2c-7.4,0-10.5-4.6-10.5-9.9c0-6,3.6-10.1,9.6-10.1
		c6.6,0,9.3,5,9.3,11.2L197.8,58.7L197.8,58.7z M205.6,55.2c0-2.6-1.5-4.1-3.9-4.1c-2.3,0-3.7,1.5-3.9,4.1H205.6z M339.4,58.7
		c0.1,3,2.5,4.9,6.1,4.9c3.2,0,5.1-0.9,5.9-1.2v4c-0.8,0.3-2.9,1.2-7.1,1.2c-7.4,0-10.5-4.6-10.5-9.9c0-6,3.6-10.1,9.6-10.1
		c6.6,0,9.3,5,9.3,11.2L339.4,58.7L339.4,58.7z M347.1,55.2c0-2.6-1.5-4.1-3.9-4.1c-2.3,0-3.7,1.5-3.9,4.1H347.1z M215.9,51.7h-2.5
		V48h7l0.1,2.5h0.1c0.3-0.5,2-2.9,5.9-2.9c4.9,0,7.4,3.4,7.4,7.6v8.2h2.2v3.7h-9.4v-3.7h2.1v-7.3c0-2.7-1.5-4.1-3.9-4.1
		c-2.2,0-3.9,1.2-3.9,4.1v7.3h2.2v3.7h-9.4v-3.7h2.1L215.9,51.7L215.9,51.7z M240.7,51.7h-2.5V48h7l0.1,2.5h0.1
		c0.3-0.5,2-2.9,5.9-2.9c4.9,0,7.4,3.4,7.4,7.6v8.2h2.2v3.7h-9.4v-3.7h2.1v-7.3c0-2.7-1.5-4.1-3.9-4.1c-2.2,0-3.9,1.2-3.9,4.1v7.3
		h2.2v3.7h-9.4v-3.7h2.1L240.7,51.7L240.7,51.7z M322.2,43.9h5.1V48h5.1v3.7h-5.1v8.5c0,2.6,0.9,3.4,3,3.4c0.8,0,1.9-0.2,2.3-0.3
		v3.6c-0.4,0.1-2.3,0.6-4.2,0.6c-3.8,0-6.2-2-6.2-5.4V51.7h-2.6V48h2.6L322.2,43.9L322.2,43.9z M287.8,43.9h5.1V48h5.1v3.7h-5.1v8.5
		c0,2.6,0.9,3.4,3,3.4c0.8,0,1.9-0.2,2.3-0.3v3.6c-0.4,0.1-2.3,0.6-4.2,0.6c-3.8,0-6.2-2-6.2-5.4V51.7h-2.6V48h2.6V43.9L287.8,43.9z
		 M312,54.9c0-2.6-1.3-3.7-3.9-3.7c-1.6,0-2.8,0.4-3.2,0.5v2.6h-4.1v-4.8c0.7-0.4,3.8-2,7.3-2c5.3,0,8.8,2.2,8.8,7.5
		c0,3.1,0,8.3,0,8.3h2V67h-6.2l-0.1-2.6h-0.1c-0.4,0.5-1.8,3-6.1,3s-6.4-2.6-6.4-5.6c0-3.6,2.8-6.1,9.8-6.1c0.3,0,2,0,2.3,0
		L312,54.9L312,54.9z M310.5,59c-4.2,0-5.5,0.9-5.5,2.5c0,1.1,0.8,2.3,2.8,2.3s4.1-1.6,4.1-4.8H310.5z M277.5,45.4
		c-0.4-0.1-1.9-0.6-3.3-0.6c-3,0-4.2,1.6-4.2,3c0,1.9,1.4,2.7,3,3.1l2.5,0.7c3.6,1,7.5,2.5,7.5,7.8c0,4.9-3.1,8.1-10,8.1
		c-2.7,0-5.5-0.3-8.7-1.4v-6.8h4.6v3.3c0.7,0.2,2.8,0.7,4.6,0.7c2.7,0,4-1.1,4-3.1c0-1.6-0.9-2.8-4.2-3.6l-2.2-0.6
		c-5-1.4-6.7-3.8-6.7-7.7c0-4.1,2.7-7.3,9.6-7.3c3,0,5.9,0.5,8,1.4v6.1h-4.6L277.5,45.4L277.5,45.4z"/>
</g>
<g>
	<path class="st0" d="M170.4,95h3.2V77h-3.2v-3.7h23.1v7.6h-4.5V77H179v6.9h3.8v-3.5h4.1v10.4h-4.1v-3.4H179V95h10.1v-4.6h4.5v8.3
		h-23.1V95z"/>
	<path class="st0" d="M195.5,95.2h1.7l5.8-5.9l-5.2-5.3H196v-3.5h9.4V84h-1.7l3,3.1l2.9-3.1h-1.7v-3.5h8.9V84h-1.7l-5.3,5.2l5.7,5.9
		h1.7v3.5h-10v-3.5h2.3l-3.5-3.7l-3.5,3.7h2.3v3.5h-9.3V95.2z"/>
	<path class="st0" d="M230.6,84h-4.9v8.8c0,1.3,0,2.8,1.5,2.8c1.5,0,1.6-1.9,1.6-2.7h3.1c0.2,4.2-1.4,6.4-5.7,6.4
		c-3.5,0-5.6-2.5-5.6-5.2V84h-2.9v-3.5h2.9V77l5.2-1.8v5.4h4.9V84z"/>
	<path class="st0" d="M238.4,91.1c0,2.9,1.7,4.7,4.5,4.7c1.8,0,3.1-0.7,3.6-2.7h4.9c-0.9,4.4-4.4,6.2-8.6,6.2
		c-6.4,0-9.8-3.8-9.8-9.9c0-5.7,3.9-9.4,9.6-9.4c4.4,0,7.9,2.5,8.7,7c0.2,1.4,0.2,2.8,0.2,4.1H238.4z M246.4,87.8
		c0-2.6-1.3-4.3-4-4.3c-2.6,0-4,1.9-4,4.3H246.4z"/>
	<path class="st0" d="M254,95.2h2.5V84H254v-3.5h7.2v3.1h0.1c1.2-2.3,3.6-3.6,6.2-3.6c4.8,0,6.5,2.6,6.5,7.2v8.1h2.5v3.5h-10v-3.5
		h2.3v-7.9c0-1.9-1.1-3.7-3.2-3.7c-2.8,0-3.9,2.6-3.9,4.9v6.6h2.3v3.5h-10V95.2z"/>
	<path class="st0" d="M279.1,92.3h4.1c0,2.3,1.8,3.5,3.9,3.5c1.1,0,2.7-0.4,2.7-2.1c0-3.8-10.8,0-10.8-8.1c0-3.8,3.2-5.6,6.5-5.6
		c2.1,0,3.7,0.6,4.9,2.4h0.1v-1.9h3.9v6h-4.1c0-2.1-1.4-3.1-3.3-3.1c-1,0-2.8,0.2-2.8,1.9c0,3.7,10.8,0,10.8,8
		c0,3.2-2.6,5.8-6.5,5.8c-2.7,0-4.4-1-5.4-2.5H283v1.9h-3.9V92.3z"/>
	<path class="st0" d="M297.2,95.2h2.5V84h-2.5v-3.5h7.7v14.7h2.5v3.5h-10.2V95.2z M304.9,77.9h-5.4v-5.2h5.4V77.9z"/>
	<path class="st0" d="M328.4,89.6c0,6.1-4,9.6-9.7,9.6c-5.7,0-9.7-3.6-9.7-9.6c0-6.1,4-9.6,9.7-9.6C324.4,80,328.4,83.6,328.4,89.6z
		 M318.7,95.6c3.3,0,4.4-3.1,4.4-5.9s-1-5.9-4.4-5.9c-3.3,0-4.4,3.1-4.4,5.9S315.4,95.6,318.7,95.6z"/>
	<path class="st0" d="M330.3,95.2h2.5V84h-2.5v-3.5h7.2v3.1h0.1c1.2-2.3,3.6-3.6,6.2-3.6c4.8,0,6.5,2.6,6.5,7.2v8.1h2.5v3.5h-10
		v-3.5h2.3v-7.9c0-1.9-1.1-3.7-3.2-3.7c-2.8,0-3.9,2.6-3.9,4.9v6.6h2.3v3.5h-10V95.2z"/>
</g>
</svg>
