<?xml version="1.0" encoding="utf-8"?>
<!-- Generator: Adobe Illustrator 19.0.0, SVG Export Plug-In . SVG Version: 6.00 Build 0)  -->
<svg version="1.1" id="Layer_1" xmlns="http://www.w3.org/2000/svg" xmlns:xlink="http://www.w3.org/1999/xlink" x="0px" y="0px"
	 viewBox="373.8 124.5 283.5 34" style="enable-background:new 373.8 124.5 283.5 34;" xml:space="preserve">
<style type="text/css">
	.st0{display:none;}
	.st1{display:inline;}
	.st2{fill:none;stroke:#9E1F63;stroke-width:0.1596;stroke-miterlimit:10;}
	.st3{fill:none;stroke:#00A651;stroke-width:0.75;stroke-miterlimit:10;}
	.st4{fill:#9E1F63;}
	.st5{display:inline;fill:#9E1F63;}
	.st6{fill:#C22036;}
	.st7{fill:#8DA5B5;}
	.st8{fill:#F05235;}
	.st9{fill:#FAAA3A;}
	.st10{display:inline;fill:none;stroke:#000000;stroke-width:1.3072;stroke-miterlimit:10;}
	.st11{display:inline;fill:#FFFFFF;}
	.st12{display:inline;fill:#414042;}
	.st13{display:inline;fill:#C22036;}
	.st14{display:inline;fill:#F05235;}
	.st15{display:inline;fill:#D1D3D4;}
	.st16{display:inline;fill:#8DA5B5;}
	.st17{display:inline;fill:#560935;}
	.st18{display:inline;fill:#991C50;}
	.st19{display:inline;fill:#9A3354;}
	.st20{display:inline;fill:#9A4259;}
	.st21{display:inline;fill:#FAAA3A;}
</style>
<g id="Layer_7" class="st0">
	<g class="st1">
		<rect x="174.6" y="-105.2" class="st2" width="61.8" height="61.8"/>
		<rect x="236.4" y="-105.2" class="st2" width="61.8" height="61.8"/>
		<rect x="298.2" y="-105.2" class="st2" width="61.8" height="61.8"/>
		<rect x="359.9" y="-105.2" class="st2" width="61.8" height="61.8"/>
		<rect x="174.6" y="-43.4" class="st2" width="61.8" height="61.8"/>
		<rect x="236.4" y="-43.4" class="st2" width="61.8" height="61.8"/>
		<rect x="298.2" y="-43.4" class="st2" width="61.8" height="61.8"/>
		<rect x="359.9" y="-43.4" class="st2" width="61.8" height="61.8"/>
		<rect x="174.6" y="18.3" class="st2" width="61.8" height="61.8"/>
		<rect x="236.4" y="18.3" class="st2" width="61.8" height="61.8"/>
		<rect x="298.2" y="18.3" class="st2" width="61.8" height="61.8"/>
		<rect x="359.9" y="18.3" class="st2" width="61.8" height="61.8"/>
		<rect x="174.6" y="80.1" class="st2" width="61.8" height="61.8"/>
		<rect x="236.4" y="80.1" class="st2" width="61.8" height="61.8"/>
		<rect x="298.2" y="80.1" class="st2" width="61.8" height="61.8"/>
		<rect x="359.9" y="80.1" class="st2" width="61.8" height="61.8"/>
		<circle class="st2" cx="298.2" cy="18.3" r="123.5"/>
	</g>
	<g class="st1">
		<rect x="421.7" y="-105.2" class="st2" width="61.8" height="61.8"/>
		<rect x="483.4" y="-105.2" class="st2" width="61.8" height="61.8"/>
		<rect x="545.2" y="-105.2" class="st2" width="61.8" height="61.8"/>
		<rect x="606.9" y="-105.2" class="st2" width="61.8" height="61.8"/>
		<rect x="421.7" y="-43.4" class="st2" width="61.8" height="61.8"/>
		<rect x="483.4" y="-43.4" class="st2" width="61.8" height="61.8"/>
		<rect x="545.2" y="-43.4" class="st2" width="61.8" height="61.8"/>
		<rect x="606.9" y="-43.4" class="st2" width="61.8" height="61.8"/>
		<rect x="421.7" y="18.3" class="st2" width="61.8" height="61.8"/>
		<rect x="483.4" y="18.3" class="st2" width="61.8" height="61.8"/>
		<rect x="545.2" y="18.3" class="st2" width="61.8" height="61.8"/>
		<rect x="606.9" y="18.3" class="st2" width="61.8" height="61.8"/>
		<rect x="421.7" y="80.1" class="st2" width="61.8" height="61.8"/>
		<rect x="483.4" y="80.1" class="st2" width="61.8" height="61.8"/>
		<rect x="545.2" y="80.1" class="st2" width="61.8" height="61.8"/>
		<rect x="606.9" y="80.1" class="st2" width="61.8" height="61.8"/>
		<circle class="st2" cx="545.2" cy="18.3" r="123.5"/>
	</g>
	<g class="st1">
		<rect x="174.6" y="141.5" class="st2" width="61.8" height="61.8"/>
		<rect x="236.4" y="141.5" class="st2" width="61.8" height="61.8"/>
		<rect x="298.2" y="141.5" class="st2" width="61.8" height="61.8"/>
		<rect x="359.9" y="141.5" class="st2" width="61.8" height="61.8"/>
		<rect x="174.6" y="203.3" class="st2" width="61.8" height="61.8"/>
		<rect x="236.4" y="203.3" class="st2" width="61.8" height="61.8"/>
		<rect x="298.2" y="203.3" class="st2" width="61.8" height="61.8"/>
		<rect x="359.9" y="203.3" class="st2" width="61.8" height="61.8"/>
		<rect x="174.6" y="265.1" class="st2" width="61.8" height="61.8"/>
		<rect x="236.4" y="265.1" class="st2" width="61.8" height="61.8"/>
		<rect x="298.2" y="265.1" class="st2" width="61.8" height="61.8"/>
		<rect x="359.9" y="265.1" class="st2" width="61.8" height="61.8"/>
		<rect x="174.6" y="326.8" class="st2" width="61.8" height="61.8"/>
		<rect x="236.4" y="326.8" class="st2" width="61.8" height="61.8"/>
		<rect x="298.2" y="326.8" class="st2" width="61.8" height="61.8"/>
		<rect x="359.9" y="326.8" class="st2" width="61.8" height="61.8"/>
		<circle class="st2" cx="298.2" cy="265.1" r="123.5"/>
	</g>
	<g class="st1">
		<rect x="421.7" y="141.5" class="st2" width="61.8" height="61.8"/>
		<rect x="483.4" y="141.5" class="st2" width="61.8" height="61.8"/>
		<rect x="545.2" y="141.5" class="st2" width="61.8" height="61.8"/>
		<rect x="606.9" y="141.5" class="st2" width="61.8" height="61.8"/>
		<rect x="421.7" y="203.3" class="st2" width="61.8" height="61.8"/>
		<rect x="483.4" y="203.3" class="st2" width="61.8" height="61.8"/>
		<rect x="545.2" y="203.3" class="st2" width="61.8" height="61.8"/>
		<rect x="606.9" y="203.3" class="st2" width="61.8" height="61.8"/>
		<rect x="421.7" y="265.1" class="st2" width="61.8" height="61.8"/>
		<rect x="483.4" y="265.1" class="st2" width="61.8" height="61.8"/>
		<rect x="545.2" y="265.1" class="st2" width="61.8" height="61.8"/>
		<rect x="606.9" y="265.1" class="st2" width="61.8" height="61.8"/>
		<rect x="421.7" y="326.8" class="st2" width="61.8" height="61.8"/>
		<rect x="483.4" y="326.8" class="st2" width="61.8" height="61.8"/>
		<rect x="545.2" y="326.8" class="st2" width="61.8" height="61.8"/>
		<rect x="606.9" y="326.8" class="st2" width="61.8" height="61.8"/>
		<circle class="st2" cx="545.2" cy="265.1" r="123.5"/>
	</g>
	<g class="st1">
		<polygon class="st3" points="481.9,105.4 372.8,105.4 394.1,81.9 485.8,81.8 		"/>
		<polygon class="st3" points="475.3,153.1 329.8,153.1 350.9,128.8 479,128.8 		"/>
		<polygon class="st3" points="468.5,200.9 287.2,200.9 308.3,177.8 472.1,177.8 		"/>
		<path class="st3" d="M552.5,105.3l-41.6,0.2l-3.2,23.3h38.4l-3.5,24.4h-38.4l-6.9,47.7h-28.9l16.8-119h70.3L552.5,105.3z"/>
		<circle class="st3" cx="421.3" cy="141.4" r="184.8"/>
	</g>
</g>
<g id="Layer_2" class="st0">
	<g class="st1">
		<polygon class="st4" points="301.3,-6.3 270,-6.3 276.8,-13.8 301.3,-13.8 		"/>
		<polygon class="st4" points="301.3,8.9 256.3,8.9 263,1.1 301.3,1.1 		"/>
		<polygon class="st4" points="301.3,24.1 242.7,24.1 249.4,16.7 301.3,16.7 		"/>
	</g>
	<g class="st1">
		<path class="st4" d="M310.9-6.4v9.1h12.2v7.4h-12.2v14h-9.2v-37.9h22.4v7.4H310.9z"/>
		<path class="st4" d="M345.8,24.1l-0.5-3.2c-1.4,2.2-3.8,4.1-8,4.1c-7.8,0-10.7-5.8-10.7-15c0-8.8,3.2-15,11.1-15
			c4.4,0,6.5,1.9,7.6,4h0.1l0.4-3.2h8.1v28.4L345.8,24.1L345.8,24.1z M344.9,7.9c0-3.6-1.9-5.9-4.4-5.9c-3.3,0-4.6,2.6-4.6,6.1v3.6
			c0,4,1.6,6.1,4.4,6.1c3,0,4.7-2.6,4.7-5.8L344.9,7.9L344.9,7.9z"/>
		<path class="st4" d="M368.2,24.9c-3.5,0-6.7-0.6-9.8-2l0.5-6.8c2.5,1.4,5.5,2.3,8.3,2.3c3.4,0,4-1.2,4-2.4c0-1.3-0.9-1.9-3.3-2.8
			l-1.9-0.6c-4-1.4-7.4-3.6-7.4-9.1c0-6,4.9-8.7,11.8-8.7c3.1,0,6.5,0.9,8.5,1.8l-0.4,6.8c-2.5-1.3-5.6-2.2-7.4-2.2
			c-2.4,0-3.2,0.8-3.2,1.9c0,1.2,1,1.9,3.5,2.8l1.6,0.7c3.8,1.3,7.2,3.5,7.2,9C380.2,21.5,376,24.9,368.2,24.9z"/>
		<path class="st4" d="M395.6,25c-5.7,0-8.3-3-8.3-8.6l0.1-13.6h-5.7v-7.2h5.7l0.1-7l9-1l-0.1,8h6.6v7.2h-6.6l-0.1,11.7
			c0,2.6,0.9,3.3,3,3.3c1.2,0,2.8-0.4,3.4-0.6l0.4,6.4C401.9,24.1,398.9,25,395.6,25z"/>
		<path class="st4" d="M407.4,24.1v-37.9h9.2v30.6l13.6,0.1v7.2C430.2,24.1,407.4,24.1,407.4,24.1z"/>
		<path class="st4" d="M451.5,24.1l-0.5-3.2c-1.4,2.2-3.8,4.1-8,4.1c-7.8,0-10.7-5.8-10.7-15c0-8.8,3.2-15,11.1-15
			c4.4,0,6.5,1.9,7.6,4h0.1l0.4-3.2h8.1v28.4L451.5,24.1L451.5,24.1z M450.6,7.9c0-3.6-1.9-5.9-4.4-5.9c-3.3,0-4.6,2.6-4.6,6.1v3.6
			c0,4,1.6,6.1,4.4,6.1c3,0,4.7-2.6,4.7-5.8V7.9C450.7,7.9,450.6,7.9,450.6,7.9z"/>
		<path class="st4" d="M483.5,24.1V7.2c0-2.4-0.8-4.5-4.1-4.5c-2.7,0-4.9,2-4.9,4.3v17.1h-9V-4.3h8.6v3.2h0.1c1-1.3,4.2-4,9-4
			c5.1,0,9.3,2.5,9.3,9.5v19.7C492.5,24.1,483.5,24.1,483.5,24.1z"/>
		<path class="st4" d="M522.6,12.3h-16.9v0.3c0,2.6,1.5,5.3,6.2,5.3c3.2,0,6.3-0.9,8.9-2l0.4,6.8c-2.2,1.2-5.7,2.2-10.3,2.2
			c-11.1,0-14-5.6-14-14.9c0-9.1,3.6-15.2,13.9-15.2c9.1,0,12,5.4,12,14.1C522.7,9.5,522.7,11.4,522.6,12.3z M510.3,0.7
			c-3.4,0-4.8,3-4.8,5.9h8.9C514.4,4,513.9,0.7,510.3,0.7z"/>
	</g>
	<g class="st1">
		<polygon class="st4" points="713.3,-5.5 678.6,-5.5 685.3,-13 714.5,-13 		"/>
		<polygon class="st4" points="711.2,9.6 664.9,9.6 671.6,1.9 712.4,1.9 		"/>
		<polygon class="st4" points="709,24.8 651.3,24.8 658,17.5 710.2,17.5 		"/>
	</g>
	<path class="st5" d="M735.7-5.7l-13.2,0.1l-1.2,9.1h12.2l-1.1,7.4h-12.2l-1.9,14H709l5.3-37.9h22.4L735.7-5.7z"/>
	<path class="st5" d="M761.6,24.8h-7.9l0.3-4.2h-0.1c-1,1.6-4.2,5.1-9.1,5.1c-5.8,0-8.7-3.9-8.7-10.9C736,3.7,741-4.4,749.6-4.4
		c4,0,6.4,1.9,7,2.9h0.1l0.3-2h8.6L761.6,24.8z M751.2,2.7c-3.1,0-4.9,3-5.5,6.5l-0.5,3.7c-0.1,0.5-0.1,1.1-0.1,1.5
		c0,2.5,1.1,4,3.2,4c3,0,5.7-4,6.2-7.9l0.9-6.1C754.9,3.9,753.4,2.7,751.2,2.7z"/>
	<path class="st5" d="M790.4,4.5c-1.3-0.8-4.8-2.4-7.8-2.4c-1.2,0-3.2,0.3-3.2,2c0,1.3,1.1,1.9,3.1,2.7l0.8,0.3
		c3.4,1.4,7.2,3.3,7.2,8.2c0,7.4-6.1,10.4-13.2,10.4c-4.8,0-8.4-1.4-9.6-2l1.4-6.9c1.2,0.8,4.4,2.4,7.9,2.4c1.9,0,4.3-0.6,4.3-2.5
		c0-1.3-1.5-2-3.6-2.9l-0.7-0.3c-3.5-1.4-6.7-3.8-6.7-8.2c0-6.8,5.6-9.7,12.1-9.7c4.9,0,8.4,1.4,9.6,2L790.4,4.5z"/>
	<path class="st5" d="M815.5,3.6h-6.6l-1.7,12.1c-0.1,0.4-0.1,0.6-0.1,0.7c0,1.8,1.2,2.2,2.8,2.2c1.3,0,3.2-0.6,3.9-1l-0.5,6.7
		c-1,0.5-4,1.4-7.6,1.4c-5.2,0-7.8-2.4-7.8-7.3c0-0.7,0.1-1.5,0.2-2.3l1.8-12.6h-5.7l1-7.2h5.7l1-7l9.1-1l-1.1,8h6.6L815.5,3.6z"/>
	<path class="st5" d="M841,24.8h-22.8l5.3-37.9h9.2l-4.2,30.7l13.6,0.1L841,24.8z"/>
	<path class="st5" d="M871.6,24.8h-7.9l0.3-4.2h-0.1c-1,1.6-4.2,5.1-9.1,5.1c-5.8,0-8.7-3.9-8.7-10.9C846,3.7,851-4.4,859.6-4.4
		c4,0,6.4,1.9,7,2.9h0.1l0.3-2h8.6L871.6,24.8z M861.2,2.7c-3.1,0-4.9,3-5.5,6.5l-0.5,3.7c-0.1,0.5-0.1,1.1-0.1,1.5
		c0,2.5,1.1,4,3.2,4c3,0,5.7-4,6.2-7.9l0.9-6.1C864.9,3.9,863.4,2.7,861.2,2.7z"/>
	<path class="st5" d="M905.7,24.8h-9l2.5-17.5c0.1-0.4,0.1-0.6,0.1-0.9c0-1.4-0.5-3.4-2.8-3.4c-3.6,0-6.4,4.8-6.9,8.4l-1.9,13.4h-9
		l4-28.4h8.2l-0.6,4.5h0.1c1.1-1.8,4.7-5.3,10.2-5.3c5.2,0,8,3.2,8,8.2c0,0.7-0.1,1.4-0.2,2.2L905.7,24.8z"/>
	<path class="st5" d="M921.4,14.2v0.5c0,2,1.6,4,5.2,4c4.3,0,8.2-2.3,9.7-3.4l-0.6,7.4c-1.4,1-5.5,3-10.9,3
		c-7.4,0-12.2-3.7-12.2-11.4c0-13.1,7.5-18.7,16-18.7c7.2,0,10.9,3.6,10.9,8.8C939.6,11.8,929,14.2,921.4,14.2z M928.2,1.4
		c-3,0-5.7,2.6-6.3,7c5.3,0,9.4-1.5,9.4-4.1C931.3,2.5,930.2,1.4,928.2,1.4z"/>
	<g class="st1">
		<polygon points="301.3,-88.5 270,-88.5 276.8,-96 301.3,-96 		"/>
		<polygon points="301.3,-73.4 256.3,-73.4 263,-81.1 301.3,-81.1 		"/>
		<polygon points="301.3,-58.1 242.7,-58.1 249.4,-65.5 301.3,-65.5 		"/>
	</g>
	<g class="st1">
		<path d="M310.9-88.6v9.1h12.2v7.4h-12.2v14h-9.2V-96h22.4v7.4L310.9-88.6z"/>
		<path d="M345.8-58.2l-0.5-3.2c-1.4,2.2-3.8,4.1-8,4.1c-7.8,0-10.7-5.8-10.7-15c0-8.8,3.2-15,11.1-15c4.4,0,6.5,1.9,7.6,4h0.1
			l0.4-3.2h8.1v28.4h-8.1V-58.2L345.8-58.2z M344.9-74.3c0-3.6-1.9-5.9-4.4-5.9c-3.3,0-4.6,2.6-4.6,6.1v3.6c0,4,1.6,6.1,4.4,6.1
			c3,0,4.7-2.6,4.7-5.8L344.9-74.3L344.9-74.3z"/>
		<path d="M368.2-57.3c-3.5,0-6.7-0.6-9.8-2l0.5-6.8c2.5,1.4,5.5,2.3,8.3,2.3c3.4,0,4-1.2,4-2.4c0-1.3-0.9-1.9-3.3-2.8l-1.9-0.6
			c-4-1.4-7.4-3.6-7.4-9.1c0-6,4.9-8.7,11.8-8.7c3.1,0,6.5,0.9,8.5,1.8l-0.4,6.8c-2.5-1.3-5.6-2.2-7.4-2.2c-2.4,0-3.2,0.8-3.2,1.9
			c0,1.2,1,1.9,3.5,2.8l1.9,0.6c3.8,1.3,7.2,3.5,7.2,9C380.2-60.7,376-57.3,368.2-57.3z"/>
		<path d="M395.6-57.3c-5.7,0-8.3-3-8.3-8.6l0.1-13.6h-5.7v-7.2h5.7l0.1-7l9-1l-0.1,8h6.6v7.2h-6.6l-0.1,11.7c0,2.6,0.9,3.3,3,3.3
			c1.2,0,2.8-0.4,3.4-0.6l0.4,6.4C401.9-58.2,398.9-57.3,395.6-57.3z"/>
		<path d="M407.4-58.2v-37.9h9.2v30.6l13.6,0.1v7.2H407.4z"/>
		<path d="M451.5-58.2l-0.5-3.2c-1.4,2.2-3.8,4.1-8,4.1c-7.8,0-10.7-5.8-10.7-15c0-8.8,3.2-15,11.1-15c4.4,0,6.5,1.9,7.6,4h0.1
			l0.4-3.2h8.1v28.4h-8.1V-58.2z M450.6-74.3c0-3.6-1.9-5.9-4.4-5.9c-3.3,0-4.6,2.6-4.6,6.1v3.6c0,4,1.6,6.1,4.4,6.1
			c3,0,4.7-2.6,4.7-5.8v-4.1L450.6-74.3L450.6-74.3z"/>
		<path d="M483.5-58.2v-16.9c0-2.4-0.8-4.5-4.1-4.5c-2.7,0-4.9,2-4.9,4.3v17.1h-9v-28.4h8.6v3.2h0.1c1-1.3,4.2-4,9-4
			c5.1,0,9.3,2.5,9.3,9.5v19.7H483.5z"/>
		<path d="M522.6-70h-16.9v0.3c0,2.6,1.5,5.3,6.2,5.3c3.2,0,6.3-0.9,8.9-2l0.4,6.8c-2.2,1.2-5.7,2.2-10.3,2.2
			c-11.1,0-14-5.6-14-14.9c0-9.1,3.6-15.2,13.9-15.2c9.1,0,12,5.4,12,14.1C522.7-72.7,522.7-70.8,522.6-70z M510.3-81.6
			c-3.4,0-4.8,3-4.8,5.9h8.9C514.4-78.3,513.9-81.6,510.3-81.6z"/>
	</g>
	<path class="st1" d="M761.6-57.4h-7.9l0.3-4.3h-0.1c-1,1.6-4.2,5.1-9.1,5.1c-5.8,0-8.7-3.9-8.7-10.9c0-11.2,4.9-19.3,13.5-19.3
		c4,0,6.4,1.9,7,2.9h0.1l0.3-2h8.6L761.6-57.4z M751.2-79.5c-3.1,0-4.9,3-5.5,6.5l-0.5,3.7c-0.1,0.5-0.1,1.1-0.1,1.5
		c0,2.5,1.1,4,3.2,4c3,0,5.7-4,6.2-7.9l0.9-6.1C754.9-78.4,753.4-79.5,751.2-79.5z"/>
	<path class="st1" d="M790.4-77.8c-1.3-0.8-4.8-2.4-7.8-2.4c-1.2,0-3.2,0.3-3.2,2c0,1.3,1.1,1.9,3.1,2.7l0.8,0.3
		c3.4,1.4,7.2,3.3,7.2,8.2c0,7.4-6.1,10.4-13.2,10.4c-4.8,0-8.4-1.4-9.6-2l1.4-6.9c1.2,0.8,4.4,2.4,7.9,2.4c1.9,0,4.3-0.6,4.3-2.5
		c0-1.3-1.5-2-3.6-2.9l-0.7-0.3c-3.5-1.4-6.7-3.8-6.7-8.2c0-6.8,5.6-9.7,12.1-9.7c4.9,0,8.4,1.4,9.6,2L790.4-77.8z"/>
	<path class="st1" d="M815.5-78.6h-6.6l-1.7,12.1c-0.1,0.4-0.1,0.6-0.1,0.7c0,1.8,1.2,2.2,2.8,2.2c1.3,0,3.2-0.6,3.9-1l-0.5,6.7
		c-1,0.5-4,1.4-7.6,1.4c-5.2,0-7.8-2.4-7.8-7.3c0-0.7,0.1-1.5,0.2-2.3l1.8-12.6h-5.7l1-7.2h5.7l1-7l9.1-1l-1.1,8h6.6L815.5-78.6z"/>
	<path class="st1" d="M841-57.4h-22.8l5.3-37.9h9.2l-4.3,30.6l13.6,0.1L841-57.4z"/>
	<path class="st1" d="M871.6-57.4h-7.9l0.3-4.3h-0.1c-1,1.6-4.2,5.1-9.1,5.1c-5.8,0-8.7-3.9-8.7-10.9c0-11.2,4.9-19.3,13.5-19.3
		c4,0,6.4,1.9,7,2.9h0.1l0.3-2h8.6L871.6-57.4z M861.2-79.5c-3.1,0-4.9,3-5.5,6.5l-0.5,3.7c-0.1,0.5-0.1,1.1-0.1,1.5
		c0,2.5,1.1,4,3.2,4c3,0,5.7-4,6.2-7.9l0.9-6.1C864.9-78.4,863.4-79.5,861.2-79.5z"/>
	<path class="st1" d="M905.7-57.4h-9l2.5-17.5c0.1-0.4,0.1-0.6,0.1-0.9c0-1.4-0.5-3.4-2.8-3.4c-3.6,0-6.4,4.8-6.9,8.4l-1.9,13.4h-9
		l4-28.4h8.2l-0.6,4.5h0.1c1.1-1.8,4.7-5.3,10.2-5.3c5.2,0,8,3.2,8,8.2c0,0.7-0.1,1.4-0.2,2.2L905.7-57.4z"/>
	<path class="st1" d="M921.4-68v0.5c0,2,1.6,4,5.2,4c4.3,0,8.2-2.3,9.7-3.4l-0.6,7.4c-1.4,1-5.5,3-10.9,3c-7.4,0-12.2-3.7-12.2-11.4
		c0-13.1,7.5-18.7,16-18.7c7.2,0,10.9,3.6,10.9,8.8C939.6-70.5,929-68,921.4-68z M928.2-80.8c-3,0-5.7,2.6-6.3,7
		c5.3,0,9.4-1.5,9.4-4.1C931.3-79.8,930.2-80.8,928.2-80.8z"/>
	<g class="st1">
		<polygon class="st6" points="301.3,83 270,83 276.8,75.5 301.3,75.5 		"/>
		<polygon class="st6" points="301.3,98.2 256.3,98.2 263,90.5 301.3,90.4 		"/>
		<polygon class="st6" points="301.3,113.4 242.7,113.4 249.4,106.1 301.3,106 		"/>
	</g>
	<g class="st1">
		<path class="st6" d="M310.9,82.9V92h12.2v7.4h-12.2v14h-9.2V75.5h22.4v7.4H310.9z"/>
		<path class="st6" d="M345.8,113.4l-0.5-3.2c-1.4,2.2-3.8,4.1-8,4.1c-7.8,0-10.7-5.8-10.7-15c0-8.8,3.2-15,11.1-15
			c4.4,0,6.5,1.9,7.6,4h0.1l0.4-3.2h8.1v28.4L345.8,113.4L345.8,113.4z M344.9,97.2c0-3.6-1.9-5.9-4.4-5.9c-3.3,0-4.6,2.6-4.6,6.1
			v3.6c0,4,1.6,6.1,4.4,6.1c3,0,4.7-2.6,4.7-5.8L344.9,97.2L344.9,97.2z"/>
		<path class="st6" d="M368.2,114.2c-3.5,0-6.7-0.6-9.8-2l0.5-6.8c2.5,1.4,5.5,2.3,8.3,2.3c3.4,0,4-1.2,4-2.4c0-1.3-0.9-1.9-3.3-2.8
			l-1.9-0.6c-4-1.4-7.4-3.6-7.4-9.1c0-6,4.9-8.7,11.8-8.7c3.1,0,6.5,0.9,8.5,1.8l-0.4,6.8c-2.5-1.3-5.6-2.2-7.4-2.2
			c-2.4,0-3.2,0.8-3.2,1.9c0,1.2,1,1.9,3.5,2.8l1.9,0.6c3.8,1.3,7.2,3.5,7.2,9C380.2,110.8,376,114.2,368.2,114.2z"/>
		<path class="st6" d="M395.6,114.3c-5.7,0-8.3-3-8.3-8.6l0.1-13.6h-5.7v-7.2h5.7l0.1-7l9-1l-0.1,8h6.6v7.2h-6.6l-0.1,11.7
			c0,2.6,0.9,3.3,3,3.3c1.2,0,2.8-0.4,3.4-0.6l0.4,6.4C401.9,113.4,398.9,114.3,395.6,114.3z"/>
		<path class="st6" d="M407.4,113.4V75.5h9.2v30.6l13.6,0.1v7.2H407.4z"/>
		<path class="st6" d="M451.5,113.4l-0.5-3.2c-1.4,2.2-3.8,4.1-8,4.1c-7.8,0-10.7-5.8-10.7-15c0-8.8,3.2-15,11.1-15
			c4.4,0,6.5,1.9,7.6,4h0.1l0.4-3.2h8.1v28.4L451.5,113.4L451.5,113.4z M450.6,97.2c0-3.6-1.9-5.9-4.4-5.9c-3.3,0-4.6,2.6-4.6,6.1
			v3.6c0,4,1.6,6.1,4.4,6.1c3,0,4.7-2.6,4.7-5.8v-4.1H450.6z"/>
		<path class="st6" d="M483.5,113.4V96.5c0-2.4-0.8-4.5-4.1-4.5c-2.7,0-4.9,2-4.9,4.3v17.1h-9V85h8.6v3.2h0.1c1-1.3,4.2-4,9-4
			c5.1,0,9.3,2.5,9.3,9.5v19.7C492.5,113.4,483.5,113.4,483.5,113.4z"/>
		<path class="st6" d="M522.6,101.6h-16.9v0.3c0,2.6,1.5,5.3,6.2,5.3c3.2,0,6.3-0.9,8.9-2l0.4,6.8c-2.2,1.2-5.7,2.2-10.3,2.2
			c-11.1,0-14-5.6-14-14.9c0-9.1,3.6-15.2,13.9-15.2c9.1,0,12,5.4,12,14.1C522.7,98.8,522.7,100.7,522.6,101.6z M510.3,90
			c-3.4,0-4.8,3-4.8,5.9h8.9C514.4,93.3,513.9,90,510.3,90z"/>
	</g>
	<g class="st1">
		<polygon class="st6" points="713.3,83.8 678.6,83.8 685.3,76.3 714.5,76.3 		"/>
		<polygon class="st6" points="711.2,98.9 664.9,98.9 671.6,91.2 712.4,91.2 		"/>
		<polygon class="st6" points="709,114.2 651.3,114.2 658,106.8 710.2,106.8 		"/>
	</g>
	<g class="st1">
		<g>
			<path class="st6" d="M735.7,83.6l-13.2,0.1l-1.2,9.1h12.2l-1.1,7.4h-12.2l-1.9,14H709l5.3-37.9h22.4L735.7,83.6z"/>
			<path class="st6" d="M761.6,114.2h-7.9l0.3-4.3h-0.1c-1,1.6-4.2,5.1-9.1,5.1c-5.8,0-8.7-3.9-8.7-10.9c0-11.2,4.9-19.3,13.5-19.3
				c4,0,6.4,1.9,7,2.9h0.1l0.3-2h8.6L761.6,114.2z M751.2,92c-3.1,0-4.9,3-5.5,6.5l-0.5,3.7c-0.1,0.5-0.1,1.1-0.1,1.5
				c0,2.5,1.1,4,3.2,4c3,0,5.7-4,6.2-7.9l0.9-6.1C754.9,93.2,753.4,92,751.2,92z"/>
			<path class="st6" d="M790.4,93.8c-1.3-0.8-4.8-2.4-7.8-2.4c-1.2,0-3.2,0.3-3.2,2c0,1.3,1.1,1.9,3.1,2.7l0.8,0.3
				c3.4,1.4,7.2,3.3,7.2,8.2c0,7.4-6.1,10.4-13.2,10.4c-4.8,0-8.4-1.4-9.6-2l1.4-6.9c1.2,0.8,4.4,2.4,7.9,2.4c1.9,0,4.3-0.6,4.3-2.5
				c0-1.3-1.5-2-3.6-2.9l-0.7-0.3c-3.5-1.4-6.7-3.8-6.7-8.2c0-6.8,5.6-9.7,12.1-9.7c4.9,0,8.4,1.4,9.6,2L790.4,93.8z"/>
			<path class="st6" d="M815.5,92.9h-6.6l-1.7,12.1c-0.1,0.4-0.1,0.6-0.1,0.7c0,1.8,1.2,2.2,2.8,2.2c1.3,0,3.2-0.6,3.9-1l-0.5,6.7
				c-1,0.5-4,1.4-7.6,1.4c-5.2,0-7.8-2.4-7.8-7.3c0-0.7,0.1-1.5,0.2-2.3l1.8-12.6h-5.7l1-7.2h5.7l1-7l9.1-1l-1.1,8h6.6L815.5,92.9z"
				/>
			<path class="st6" d="M841,114.2h-22.8l5.3-37.9h9.2l-4.3,30.6L842,107L841,114.2z"/>
			<path class="st6" d="M871.6,114.2h-7.9l0.3-4.3h-0.1c-1,1.6-4.2,5.1-9.1,5.1c-5.8,0-8.7-3.9-8.7-10.9c0-11.2,4.9-19.3,13.5-19.3
				c4,0,6.4,1.9,7,2.9h0.1l0.3-2h8.6L871.6,114.2z M861.2,92c-3.1,0-4.9,3-5.5,6.5l-0.5,3.7c-0.1,0.5-0.1,1.1-0.1,1.5
				c0,2.5,1.1,4,3.2,4c3,0,5.7-4,6.2-7.9l0.9-6.1C864.9,93.2,863.4,92,861.2,92z"/>
			<path class="st6" d="M905.7,114.2h-9l2.5-17.5c0.1-0.4,0.1-0.6,0.1-0.9c0-1.4-0.5-3.4-2.8-3.4c-3.6,0-6.4,4.8-6.9,8.4l-1.9,13.4
				h-9l4-28.4h8.2l-0.6,4.5h0.1c1.1-1.8,4.7-5.3,10.2-5.3c5.2,0,8,3.2,8,8.2c0,0.7-0.1,1.4-0.2,2.2L905.7,114.2z"/>
			<path class="st6" d="M921.4,103.5v0.5c0,2,1.6,4,5.2,4c4.3,0,8.2-2.3,9.7-3.4l-0.6,7.4c-1.4,1-5.5,3-10.9,3
				c-7.4,0-12.2-3.7-12.2-11.4c0-13.1,7.5-18.7,16-18.7c7.2,0,10.9,3.6,10.9,8.8C939.6,101.1,929,103.5,921.4,103.5z M928.2,90.7
				c-3,0-5.7,2.6-6.3,7c5.3,0,9.4-1.5,9.4-4.1C931.3,91.8,930.2,90.7,928.2,90.7z"/>
		</g>
	</g>
	<g class="st1">
		<polygon class="st7" points="301.3,173.1 270,173.1 276.8,165.6 301.3,165.6 		"/>
		<polygon class="st7" points="301.3,188.3 256.3,188.3 263,180.5 301.3,180.5 		"/>
		<polygon class="st7" points="301.3,203.5 242.7,203.5 249.4,196.1 301.3,196.1 		"/>
	</g>
	<g class="st1">
		<path class="st7" d="M310.9,173v9.1h12.2v7.4h-12.2v14h-9.2v-37.9h22.4v7.4H310.9z"/>
		<path class="st7" d="M345.8,203.4l-0.5-3.2c-1.4,2.2-3.8,4.1-8,4.1c-7.8,0-10.7-5.8-10.7-15c0-8.8,3.2-15,11.1-15
			c4.4,0,6.5,1.9,7.6,4h0.1l0.4-3.2h8.1v28.4h-8.1V203.4L345.8,203.4z M344.9,187.3c0-3.6-1.9-5.9-4.4-5.9c-3.3,0-4.6,2.6-4.6,6.1
			v3.6c0,4,1.6,6.1,4.4,6.1c3,0,4.7-2.6,4.7-5.8L344.9,187.3L344.9,187.3z"/>
		<path class="st7" d="M368.2,204.3c-3.5,0-6.7-0.6-9.8-2l0.5-6.8c2.5,1.4,5.5,2.3,8.3,2.3c3.4,0,4-1.2,4-2.4c0-1.3-0.9-1.9-3.3-2.8
			L366,192c-4-1.4-7.4-3.6-7.4-9.1c0-6,4.9-8.7,11.8-8.7c3.1,0,6.5,0.9,8.5,1.8l-0.4,6.8c-2.5-1.3-5.6-2.2-7.4-2.2
			c-2.4,0-3.2,0.8-3.2,1.9c0,1.2,1,1.9,3.5,2.8l1.9,0.6c3.8,1.3,7.2,3.5,7.2,9C380.2,200.9,376,204.3,368.2,204.3z"/>
		<path class="st7" d="M395.6,204.4c-5.7,0-8.3-3-8.3-8.6l0.1-13.6h-5.7V175h5.7l0.1-7l9-1l-0.1,8h6.6v7.2h-6.6l-0.1,11.7
			c0,2.6,0.9,3.3,3,3.3c1.2,0,2.8-0.4,3.4-0.6l0.4,6.4C401.9,203.4,398.9,204.4,395.6,204.4z"/>
		<path class="st7" d="M407.4,203.4v-37.8h9.2v30.6l13.6,0.1v7.2h-22.8V203.4z"/>
		<path class="st7" d="M451.5,203.4l-0.5-3.2c-1.4,2.2-3.8,4.1-8,4.1c-7.8,0-10.7-5.8-10.7-15c0-8.8,3.2-15,11.1-15
			c4.4,0,6.5,1.9,7.6,4h0.1l0.4-3.2h8.1v28.4h-8.1V203.4z M450.6,187.3c0-3.6-1.9-5.9-4.4-5.9c-3.3,0-4.6,2.6-4.6,6.1v3.6
			c0,4,1.6,6.1,4.4,6.1c3,0,4.7-2.6,4.7-5.8v-4.1C450.7,187.3,450.6,187.3,450.6,187.3z"/>
		<path class="st7" d="M483.5,203.4v-16.9c0-2.4-0.8-4.5-4.1-4.5c-2.7,0-4.9,2-4.9,4.3v17.1h-9V175h8.6v3.2h0.1c1-1.3,4.2-4,9-4
			c5.1,0,9.3,2.5,9.3,9.5v19.7H483.5z"/>
		<path class="st7" d="M522.6,191.6h-16.9v0.3c0,2.6,1.5,5.3,6.2,5.3c3.2,0,6.3-0.9,8.9-2l0.4,6.8c-2.2,1.2-5.7,2.2-10.3,2.2
			c-11.1,0-14-5.6-14-14.9c0-9.1,3.6-15.2,13.9-15.2c9.1,0,12,5.4,12,14.1C522.7,188.9,522.7,190.8,522.6,191.6z M510.3,180.1
			c-3.4,0-4.8,3-4.8,5.9h8.9C514.4,183.3,513.9,180.1,510.3,180.1z"/>
	</g>
	<g class="st1">
		<polygon class="st7" points="713.3,173.8 678.6,173.8 685.3,166.3 714.5,166.3 		"/>
		<polygon class="st7" points="711.2,189 664.9,189 671.6,181.3 712.4,181.3 		"/>
		<polygon class="st7" points="709,204.2 651.3,204.2 658,196.9 710.2,196.9 		"/>
	</g>
	<g class="st1">
		<g>
			<path class="st7" d="M735.7,173.7l-13.2,0.1l-1.2,9.1h12.2l-1.1,7.4h-12.2l-1.9,14H709l5.3-37.9h22.4L735.7,173.7z"/>
			<path class="st7" d="M761.6,204.2h-7.9l0.3-4.3h-0.1c-1,1.6-4.2,5.1-9.1,5.1c-5.8,0-8.7-3.9-8.7-10.9c0-11.2,4.9-19.3,13.5-19.3
				c4,0,6.4,1.9,7,2.9h0.1l0.3-2h8.6L761.6,204.2z M751.2,182.1c-3.1,0-4.9,3-5.5,6.5l-0.5,3.7c-0.1,0.5-0.1,1.1-0.1,1.5
				c0,2.5,1.1,4,3.2,4c3,0,5.7-4,6.2-7.9l0.9-6.1C754.9,183.3,753.4,182.1,751.2,182.1z"/>
			<path class="st7" d="M790.4,183.8c-1.3-0.8-4.8-2.4-7.8-2.4c-1.2,0-3.2,0.3-3.2,2c0,1.3,1.1,1.9,3.1,2.7l0.8,0.3
				c3.4,1.4,7.2,3.3,7.2,8.2c0,7.4-6.1,10.4-13.2,10.4c-4.8,0-8.4-1.4-9.6-2l1.4-6.9c1.2,0.8,4.4,2.4,7.9,2.4c1.9,0,4.3-0.6,4.3-2.5
				c0-1.3-1.5-2-3.6-2.9l-0.7-0.3c-3.5-1.4-6.7-3.8-6.7-8.2c0-6.8,5.6-9.7,12.1-9.7c4.9,0,8.4,1.4,9.6,2L790.4,183.8z"/>
			<path class="st7" d="M815.5,183h-6.6l-1.7,12.1c-0.1,0.4-0.1,0.6-0.1,0.7c0,1.8,1.2,2.2,2.8,2.2c1.3,0,3.2-0.6,3.9-1l-0.5,6.7
				c-1,0.5-4,1.4-7.6,1.4c-5.2,0-7.8-2.4-7.8-7.3c0-0.7,0.1-1.5,0.2-2.3l1.8-12.6h-5.7l1-7.2h5.7l1-7l9.1-1l-1.1,8h6.6L815.5,183z"
				/>
			<path class="st7" d="M841,204.2h-22.8l5.3-37.9h9.2l-4.3,30.6L842,197L841,204.2z"/>
			<path class="st7" d="M871.6,204.2h-7.9l0.3-4.3h-0.1c-1,1.6-4.2,5.1-9.1,5.1c-5.8,0-8.7-3.9-8.7-10.9c0-11.2,4.9-19.3,13.5-19.3
				c4,0,6.4,1.9,7,2.9h0.1l0.3-2h8.6L871.6,204.2z M861.2,182.1c-3.1,0-4.9,3-5.5,6.5l-0.5,3.7c-0.1,0.5-0.1,1.1-0.1,1.5
				c0,2.5,1.1,4,3.2,4c3,0,5.7-4,6.2-7.9l0.9-6.1C864.9,183.3,863.4,182.1,861.2,182.1z"/>
			<path class="st7" d="M905.7,204.2h-9l2.5-17.5c0.1-0.4,0.1-0.6,0.1-0.9c0-1.4-0.5-3.4-2.8-3.4c-3.6,0-6.4,4.8-6.9,8.4l-1.9,13.4
				h-9l4-28.4h8.2l-0.6,4.5h0.1c1.1-1.8,4.7-5.3,10.2-5.3c5.2,0,8,3.2,8,8.2c0,0.7-0.1,1.4-0.2,2.2L905.7,204.2z"/>
			<path class="st7" d="M921.4,193.6v0.5c0,2,1.6,4,5.2,4c4.3,0,8.2-2.3,9.7-3.4l-0.6,7.4c-1.4,1-5.5,3-10.9,3
				c-7.4,0-12.2-3.7-12.2-11.4c0-13.1,7.5-18.7,16-18.7c7.2,0,10.9,3.6,10.9,8.8C939.6,191.2,929,193.6,921.4,193.6z M928.2,180.8
				c-3,0-5.7,2.6-6.3,7c5.3,0,9.4-1.5,9.4-4.1C931.3,181.8,930.2,180.8,928.2,180.8z"/>
		</g>
	</g>
	<g class="st1">
		<polygon class="st8" points="301.3,260.4 270,260.4 276.8,252.9 301.3,252.9 		"/>
		<polygon class="st8" points="301.3,275.6 256.3,275.6 263,267.8 301.3,267.8 		"/>
		<polygon class="st8" points="301.3,290.8 242.7,290.8 249.4,283.4 301.3,283.4 		"/>
	</g>
	<g class="st1">
		<path class="st8" d="M310.9,260.3v9.1h12.2v7.4h-12.2v14h-9.2v-37.9h22.4v7.4H310.9z"/>
		<path class="st8" d="M345.8,290.8l-0.5-3.2c-1.4,2.2-3.8,4.1-8,4.1c-7.8,0-10.7-5.8-10.7-15c0-8.8,3.2-15,11.1-15
			c4.4,0,6.5,1.9,7.6,4h0.1l0.4-3.2h8.1v28.4h-8.1V290.8L345.8,290.8z M344.9,274.6c0-3.6-1.9-5.9-4.4-5.9c-3.3,0-4.6,2.6-4.6,6.1
			v3.6c0,4,1.6,6.1,4.4,6.1c3,0,4.7-2.6,4.7-5.8L344.9,274.6L344.9,274.6z"/>
		<path class="st8" d="M368.2,291.6c-3.5,0-6.7-0.6-9.8-2l0.5-6.8c2.5,1.4,5.5,2.3,8.3,2.3c3.4,0,4-1.2,4-2.4c0-1.3-0.9-1.9-3.3-2.8
			l-1.9-0.6c-4-1.4-7.4-3.6-7.4-9.1c0-6,4.9-8.7,11.8-8.7c3.1,0,6.5,0.9,8.5,1.8l-0.4,6.8c-2.5-1.3-5.6-2.2-7.4-2.2
			c-2.4,0-3.2,0.8-3.2,1.9c0,1.2,1,1.9,3.5,2.8l1.9,0.6c3.8,1.3,7.2,3.5,7.2,9C380.2,288.2,376,291.6,368.2,291.6z"/>
		<path class="st8" d="M395.6,291.7c-5.7,0-8.3-3-8.3-8.6l0.1-13.6h-5.7v-7.2h5.7l0.1-7l9-1l-0.1,8h6.6v7.2h-6.6l-0.1,11.7
			c0,2.6,0.9,3.3,3,3.3c1.2,0,2.8-0.4,3.4-0.6l0.4,6.4C401.9,290.8,398.9,291.7,395.6,291.7z"/>
		<path class="st8" d="M407.4,290.8v-37.9h9.2v30.6l13.6,0.1v7.2H407.4z"/>
		<path class="st8" d="M451.5,290.8l-0.5-3.2c-1.4,2.2-3.8,4.1-8,4.1c-7.8,0-10.7-5.8-10.7-15c0-8.8,3.2-15,11.1-15
			c4.4,0,6.5,1.9,7.6,4h0.1l0.4-3.2h8.1v28.4h-8.1V290.8z M450.6,274.6c0-3.6-1.9-5.9-4.4-5.9c-3.3,0-4.6,2.6-4.6,6.1v3.6
			c0,4,1.6,6.1,4.4,6.1c3,0,4.7-2.6,4.7-5.8v-4.1H450.6z"/>
		<path class="st8" d="M483.5,290.8v-16.9c0-2.4-0.8-4.5-4.1-4.5c-2.7,0-4.9,2-4.9,4.3v17.1h-9v-28.4h8.6v3.2h0.1c1-1.3,4.2-4,9-4
			c5.1,0,9.3,2.5,9.3,9.5v19.7L483.5,290.8L483.5,290.8z"/>
		<path class="st8" d="M522.6,278.9h-16.9v0.3c0,2.6,1.5,5.3,6.2,5.3c3.2,0,6.3-0.9,8.9-2l0.4,6.8c-2.2,1.2-5.7,2.2-10.3,2.2
			c-11.1,0-14-5.6-14-14.9c0-9.1,3.6-15.2,13.9-15.2c9.1,0,12,5.4,12,14.1C522.7,276.2,522.7,278.1,522.6,278.9z M510.3,267.4
			c-3.4,0-4.8,3-4.8,5.9h8.9C514.4,270.6,513.9,267.4,510.3,267.4z"/>
	</g>
	<g class="st1">
		<polygon class="st8" points="713.3,261.1 678.6,261.1 685.3,253.6 714.5,253.6 		"/>
		<polygon class="st8" points="711.2,276.3 664.9,276.3 671.6,268.6 712.4,268.6 		"/>
		<polygon class="st8" points="709,291.5 651.3,291.5 658,284.2 710.2,284.2 		"/>
	</g>
	<g class="st1">
		<g>
			<path class="st8" d="M735.7,261l-13.2,0.1l-1.2,9.1h12.2l-1.1,7.4h-12.2l-1.9,14H709l5.3-37.9h22.4L735.7,261z"/>
			<path class="st8" d="M761.6,291.5h-7.9l0.3-4.3h-0.1c-1,1.6-4.2,5.1-9.1,5.1c-5.8,0-8.7-3.9-8.7-10.9c0-11.2,4.9-19.3,13.5-19.3
				c4,0,6.4,1.9,7,2.9h0.1l0.3-2h8.6L761.6,291.5z M751.2,269.4c-3.1,0-4.9,3-5.5,6.5l-0.5,3.7c-0.1,0.5-0.1,1.1-0.1,1.5
				c0,2.5,1.1,4,3.2,4c3,0,5.7-4,6.2-7.9l0.9-6.1C754.9,270.6,753.4,269.4,751.2,269.4z"/>
			<path class="st8" d="M790.4,271.1c-1.3-0.8-4.8-2.4-7.8-2.4c-1.2,0-3.2,0.3-3.2,2c0,1.3,1.1,1.9,3.1,2.7l0.8,0.3
				c3.4,1.4,7.2,3.3,7.2,8.2c0,7.4-6.1,10.4-13.2,10.4c-4.8,0-8.4-1.4-9.6-2l1.4-6.9c1.2,0.8,4.4,2.4,7.9,2.4c1.9,0,4.3-0.6,4.3-2.5
				c0-1.3-1.5-2-3.6-2.9l-0.7-0.3c-3.5-1.4-6.7-3.8-6.7-8.2c0-6.8,5.6-9.7,12.1-9.7c4.9,0,8.4,1.4,9.6,2L790.4,271.1z"/>
			<path class="st8" d="M815.5,270.3h-6.6l-1.7,12.1c-0.1,0.4-0.1,0.6-0.1,0.7c0,1.8,1.2,2.2,2.8,2.2c1.3,0,3.2-0.6,3.9-1l-0.5,6.7
				c-1,0.5-4,1.4-7.6,1.4c-5.2,0-7.8-2.4-7.8-7.3c0-0.7,0.1-1.5,0.2-2.3l1.8-12.6h-5.7l1-7.2h5.7l1-7l9.1-1l-1.1,8h6.6L815.5,270.3z
				"/>
			<path class="st8" d="M841,291.5h-22.8l5.3-37.9h9.2l-4.3,30.6l13.6,0.1L841,291.5z"/>
			<path class="st8" d="M871.6,291.5h-7.9l0.3-4.3h-0.1c-1,1.6-4.2,5.1-9.1,5.1c-5.8,0-8.7-3.9-8.7-10.9c0-11.2,4.9-19.3,13.5-19.3
				c4,0,6.4,1.9,7,2.9h0.1l0.3-2h8.6L871.6,291.5z M861.2,269.4c-3.1,0-4.9,3-5.5,6.5l-0.5,3.7c-0.1,0.5-0.1,1.1-0.1,1.5
				c0,2.5,1.1,4,3.2,4c3,0,5.7-4,6.2-7.9l0.9-6.1C864.9,270.6,863.4,269.4,861.2,269.4z"/>
			<path class="st8" d="M905.7,291.5h-9l2.5-17.5c0.1-0.4,0.1-0.6,0.1-0.9c0-1.4-0.5-3.4-2.8-3.4c-3.6,0-6.4,4.8-6.9,8.4l-1.9,13.4
				h-9l4-28.4h8.2l-0.6,4.5h0.1c1.1-1.8,4.7-5.3,10.2-5.3c5.2,0,8,3.2,8,8.2c0,0.7-0.1,1.4-0.2,2.2L905.7,291.5z"/>
			<path class="st8" d="M921.4,280.9v0.5c0,2,1.6,4,5.2,4c4.3,0,8.2-2.3,9.7-3.4l-0.6,7.4c-1.4,1-5.5,3-10.9,3
				c-7.4,0-12.2-3.7-12.2-11.4c0-13.1,7.5-18.7,16-18.7c7.2,0,10.9,3.6,10.9,8.8C939.6,278.5,929,280.9,921.4,280.9z M928.2,268.1
				c-3,0-5.7,2.6-6.3,7c5.3,0,9.4-1.5,9.4-4.1C931.3,269.1,930.2,268.1,928.2,268.1z"/>
		</g>
	</g>
	<g class="st1">
		<polygon class="st9" points="301.3,348.5 270,348.5 276.8,340.9 301.3,340.9 		"/>
		<polygon class="st9" points="301.3,363.6 256.3,363.6 263,355.9 301.3,355.9 		"/>
		<polygon class="st9" points="301.3,378.8 242.7,378.8 249.4,371.5 301.3,371.5 		"/>
	</g>
	<g class="st1">
		<path class="st9" d="M310.9,348.4v9.1h12.2v7.4h-12.2v14h-9.2V341h22.4v7.4H310.9z"/>
		<path class="st9" d="M345.8,378.8l-0.5-3.2c-1.4,2.2-3.8,4.1-8,4.1c-7.8,0-10.7-5.8-10.7-15c0-8.8,3.2-15,11.1-15
			c4.4,0,6.5,1.9,7.6,4h0.1l0.4-3.2h8.1v28.4L345.8,378.8L345.8,378.8z M344.9,362.6c0-3.6-1.9-5.9-4.4-5.9c-3.3,0-4.6,2.6-4.6,6.1
			v3.6c0,4,1.6,6.1,4.4,6.1c3,0,4.7-2.6,4.7-5.8L344.9,362.6L344.9,362.6z"/>
		<path class="st9" d="M368.2,379.7c-3.5,0-6.7-0.6-9.8-2l0.5-6.8c2.5,1.4,5.5,2.3,8.3,2.3c3.4,0,4-1.2,4-2.4c0-1.3-0.9-1.9-3.3-2.8
			l-1.9-0.6c-4-1.4-7.4-3.6-7.4-9.1c0-6,4.9-8.7,11.8-8.7c3.1,0,6.5,0.9,8.5,1.8l-0.4,6.8c-2.5-1.3-5.6-2.2-7.4-2.2
			c-2.4,0-3.2,0.8-3.2,1.9c0,1.2,1,1.9,3.5,2.8l1.9,0.6c3.8,1.3,7.2,3.5,7.2,9C380.2,376.3,376,379.7,368.2,379.7z"/>
		<path class="st9" d="M395.6,379.7c-5.7,0-8.3-3-8.3-8.6l0.1-13.6h-5.7v-7.2h5.7l0.1-7l9-1l-0.1,8h6.6v7.2h-6.6l-0.1,11.7
			c0,2.6,0.9,3.3,3,3.3c1.2,0,2.8-0.4,3.4-0.6l0.4,6.4C401.9,378.8,398.9,379.7,395.6,379.7z"/>
		<path class="st9" d="M407.4,378.8v-37.9h9.2v30.6l13.6,0.1v7.2L407.4,378.8L407.4,378.8z"/>
		<path class="st9" d="M451.5,378.8l-0.5-3.2c-1.4,2.2-3.8,4.1-8,4.1c-7.8,0-10.7-5.8-10.7-15c0-8.8,3.2-15,11.1-15
			c4.4,0,6.5,1.9,7.6,4h0.1l0.4-3.2h8.1v28.4L451.5,378.8L451.5,378.8z M450.6,362.6c0-3.6-1.9-5.9-4.4-5.9c-3.3,0-4.6,2.6-4.6,6.1
			v3.6c0,4,1.6,6.1,4.4,6.1c3,0,4.7-2.6,4.7-5.8v-4.1H450.6z"/>
		<path class="st9" d="M483.5,378.8v-16.9c0-2.4-0.8-4.5-4.1-4.5c-2.7,0-4.9,2-4.9,4.3v17.1h-9v-28.4h8.6v3.2h0.1c1-1.3,4.2-4,9-4
			c5.1,0,9.3,2.5,9.3,9.5v19.7L483.5,378.8L483.5,378.8z"/>
		<path class="st9" d="M522.6,367h-16.9v0.3c0,2.6,1.5,5.3,6.2,5.3c3.2,0,6.3-0.9,8.9-2l0.4,6.8c-2.2,1.2-5.7,2.2-10.3,2.2
			c-11.1,0-14-5.6-14-14.9c0-9.1,3.6-15.2,13.9-15.2c9.1,0,12,5.4,12,14.1C522.7,364.3,522.7,366.2,522.6,367z M510.3,355.4
			c-3.4,0-4.8,3-4.8,5.9h8.9C514.4,358.7,513.9,355.4,510.3,355.4z"/>
	</g>
	<g class="st1">
		<polygon class="st9" points="713.3,349.2 678.6,349.2 685.3,341.7 714.5,341.7 		"/>
		<polygon class="st9" points="711.2,364.4 664.9,364.4 671.6,356.6 712.4,356.6 		"/>
		<polygon class="st9" points="709,379.6 651.3,379.6 658,372.2 710.2,372.2 		"/>
	</g>
	<g class="st1">
		<g>
			<path class="st9" d="M735.7,349.1l-13.2,0.1l-1.2,9.1h12.2l-1.1,7.4h-12.2l-1.9,14H709l5.3-37.9h22.4L735.7,349.1z"/>
			<path class="st9" d="M761.6,379.6h-7.9l0.3-4.3h-0.1c-1,1.6-4.2,5.1-9.1,5.1c-5.8,0-8.7-3.9-8.7-10.9c0-11.2,4.9-19.3,13.5-19.3
				c4,0,6.4,1.9,7,2.9h0.1l0.3-2h8.6L761.6,379.6z M751.2,357.4c-3.1,0-4.9,3-5.5,6.5l-0.5,3.7c-0.1,0.5-0.1,1.1-0.1,1.5
				c0,2.5,1.1,4,3.2,4c3,0,5.7-4,6.2-7.9l0.9-6.1C754.9,358.6,753.4,357.4,751.2,357.4z"/>
			<path class="st9" d="M790.4,359.2c-1.3-0.8-4.8-2.4-7.8-2.4c-1.2,0-3.2,0.3-3.2,2c0,1.3,1.1,1.9,3.1,2.7l0.8,0.3
				c3.4,1.4,7.2,3.3,7.2,8.2c0,7.4-6.1,10.4-13.2,10.4c-4.8,0-8.4-1.4-9.6-2l1.4-6.9c1.2,0.8,4.4,2.4,7.9,2.4c1.9,0,4.3-0.6,4.3-2.5
				c0-1.3-1.5-2-3.6-2.9l-0.7-0.3c-3.5-1.4-6.7-3.8-6.7-8.2c0-6.8,5.6-9.7,12.1-9.7c4.9,0,8.4,1.4,9.6,2L790.4,359.2z"/>
			<path class="st9" d="M815.5,358.3h-6.6l-1.7,12.1c-0.1,0.4-0.1,0.6-0.1,0.7c0,1.8,1.2,2.2,2.8,2.2c1.3,0,3.2-0.6,3.9-1l-0.5,6.7
				c-1,0.5-4,1.4-7.6,1.4c-5.2,0-7.8-2.4-7.8-7.3c0-0.7,0.1-1.5,0.2-2.3l1.8-12.6h-5.7l1-7.2h5.7l1-7l9.1-1l-1.1,8h6.6L815.5,358.3z
				"/>
			<path class="st9" d="M841,379.6h-22.8l5.3-37.9h9.2l-4.3,30.6l13.6,0.1L841,379.6z"/>
			<path class="st9" d="M871.6,379.6h-7.9l0.3-4.3h-0.1c-1,1.6-4.2,5.1-9.1,5.1c-5.8,0-8.7-3.9-8.7-10.9c0-11.2,4.9-19.3,13.5-19.3
				c4,0,6.4,1.9,7,2.9h0.1l0.3-2h8.6L871.6,379.6z M861.2,357.4c-3.1,0-4.9,3-5.5,6.5l-0.5,3.7c-0.1,0.5-0.1,1.1-0.1,1.5
				c0,2.5,1.1,4,3.2,4c3,0,5.7-4,6.2-7.9l0.9-6.1C864.9,358.6,863.4,357.4,861.2,357.4z"/>
			<path class="st9" d="M905.7,379.6h-9l2.5-17.5c0.1-0.4,0.1-0.6,0.1-0.9c0-1.4-0.5-3.4-2.8-3.4c-3.6,0-6.4,4.8-6.9,8.4l-1.9,13.4
				h-9l4-28.4h8.2l-0.6,4.5h0.1c1.1-1.8,4.7-5.3,10.2-5.3c5.2,0,8,3.2,8,8.2c0,0.7-0.1,1.4-0.2,2.2L905.7,379.6z"/>
			<path class="st9" d="M921.4,369v0.5c0,2,1.6,4,5.2,4c4.3,0,8.2-2.3,9.7-3.4l-0.6,7.4c-1.4,1-5.5,3-10.9,3
				c-7.4,0-12.2-3.7-12.2-11.4c0-13.1,7.5-18.7,16-18.7c7.2,0,10.9,3.6,10.9,8.8C939.6,366.5,929,369,921.4,369z M928.2,356.2
				c-3,0-5.7,2.6-6.3,7c5.3,0,9.4-1.5,9.4-4.1C931.3,357.2,930.2,356.2,928.2,356.2z"/>
		</g>
	</g>
	<g class="st1">
		<polygon points="40.9,1.4 -19.1,1.4 -7.3,-11.5 43,-11.5 		"/>
		<polygon points="37.3,27.6 -42.7,27.6 -31.1,14.3 39.3,14.3 		"/>
		<polygon points="33.5,53.9 -66.1,53.9 -54.5,41.2 35.5,41.2 		"/>
		<path d="M79.5,1.2L56.7,1.3L54.5,17h21.1l-1.9,12.7H52.6l-3.3,24.1H33.4l9.2-65.4h38.6L79.5,1.2z"/>
	</g>
	<circle class="st10" cx="7.6" cy="21.2" r="101.5"/>
	<g class="st1">
		<polygon points="36.4,255.8 -23.6,255.8 -11.8,242.9 38.5,242.9 		"/>
		<polygon points="32.8,282 -47.2,282 -35.6,268.7 34.8,268.7 		"/>
		<polygon points="29,308.2 -70.6,308.2 -59,295.6 31,295.6 		"/>
		<path d="M84,255.6l-22.8,0.1L59,271.4h21.1l-1.9,12.7H57.1l-3.3,24.1H38l9.2-65.4h38.6L84,255.6z"/>
	</g>
	<circle class="st10" cx="7.6" cy="275.6" r="101.5"/>
	<polygon class="st1" points="735.8,-87.8 736.7,-95.3 714.3,-95.3 714.3,-95.3 685.3,-95.3 678.6,-87.8 713.3,-87.8 712.2,-80.3 
		671.6,-80.3 664.9,-72.6 711.1,-72.6 710,-64.7 658,-64.7 651.3,-57.4 709,-57.4 709,-57.4 718.2,-57.4 720.4,-72.6 732.6,-72.6 
		733.7,-80.3 721.5,-80.3 722.5,-87.8 	"/>
</g>
<g id="Layer_3" class="st0">
	<g class="st1">
		<polygon class="st4" points="-262.3,-6.3 -293.7,-6.3 -286.9,-13.8 -262.3,-13.8 		"/>
		<polygon class="st4" points="-262.3,8.9 -307.4,8.9 -300.6,1.1 -262.3,1.1 		"/>
		<polygon class="st4" points="-262.3,24.1 -320.9,24.1 -314.2,16.7 -262.3,16.7 		"/>
	</g>
	<g class="st1">
		<path class="st4" d="M-241.8-6.4v9.1h12.2v7.4h-12.2v14h-9.2v-37.9h22.4v7.4H-241.8z"/>
		<path class="st4" d="M-206.8,24.1l-0.5-3.2c-1.4,2.2-3.8,4.1-8,4.1c-7.8,0-10.7-5.8-10.7-15c0-8.8,3.2-15,11.1-15
			c4.4,0,6.5,1.9,7.6,4h0.1l0.4-3.2h8.1v28.4L-206.8,24.1L-206.8,24.1z M-207.7,7.9c0-3.6-1.9-5.9-4.4-5.9c-3.3,0-4.6,2.6-4.6,6.1
			v3.6c0,4,1.6,6.1,4.4,6.1c3,0,4.7-2.6,4.7-5.8V7.9C-207.6,7.9-207.7,7.9-207.7,7.9z"/>
		<path class="st4" d="M-184.5,24.9c-3.5,0-6.7-0.6-9.8-2l0.5-6.8c2.5,1.4,5.5,2.3,8.3,2.3c3.4,0,4-1.2,4-2.4c0-1.3-0.9-1.9-3.3-2.8
			l-1.9-0.6c-4-1.4-7.4-3.6-7.4-9.1c0-6,4.9-8.7,11.8-8.7c3.1,0,6.5,0.9,8.5,1.8l-0.4,6.8c-2.5-1.3-5.6-2.2-7.4-2.2
			c-2.4,0-3.2,0.8-3.2,1.9c0,1.2,1,1.9,3.5,2.8l1.9,0.6c3.8,1.3,7.2,3.5,7.2,9C-172.5,21.5-176.7,24.9-184.5,24.9z"/>
		<path class="st4" d="M-157.1,25c-5.7,0-8.3-3-8.3-8.6l0.1-13.6h-5.7v-7.2h5.7l0.1-7l9-1l-0.1,8h6.6v7.2h-6.6l-0.1,11.7
			c0,2.6,0.9,3.3,3,3.3c1.2,0,2.8-0.4,3.4-0.6l0.4,6.4C-150.8,24.1-153.7,25-157.1,25z"/>
		<path class="st4" d="M-145.3,24.1v-37.9h9.2v30.6l13.6,0.1v7.2C-122.5,24.1-145.3,24.1-145.3,24.1z"/>
		<path class="st4" d="M-101.1,24.1l-0.5-3.2c-1.4,2.2-3.8,4.1-8,4.1c-7.8,0-10.7-5.8-10.7-15c0-8.8,3.2-15,11.1-15
			c4.4,0,6.5,1.9,7.6,4h0.1l0.4-3.2h8.1v28.4L-101.1,24.1L-101.1,24.1z M-102.1,7.9c0-3.6-1.9-5.9-4.4-5.9c-3.3,0-4.6,2.6-4.6,6.1
			v3.6c0,4,1.6,6.1,4.4,6.1c3,0,4.7-2.6,4.7-5.8V7.9C-102,7.9-102.1,7.9-102.1,7.9z"/>
		<path class="st4" d="M-69.1,24.1V7.2c0-2.4-0.8-4.5-4.1-4.5c-2.7,0-4.9,2-4.9,4.3v17.1h-9V-4.3h8.6v3.2h0.1c1-1.3,4.2-4,9-4
			c5.1,0,9.3,2.5,9.3,9.5v19.7C-60.1,24.1-69.1,24.1-69.1,24.1z"/>
		<path class="st4" d="M-30.1,12.3H-47v0.3c0,2.6,1.5,5.3,6.2,5.3c3.2,0,6.3-0.9,8.9-2l0.4,6.8c-2.2,1.2-5.7,2.2-10.3,2.2
			c-11.1,0-14-5.6-14-14.9c0-9.1,3.6-15.2,13.9-15.2c9.1,0,12,5.4,12,14.1C-29.9,9.5-30,11.4-30.1,12.3z M-42.3,0.7
			c-3.4,0-4.8,3-4.8,5.9h8.9C-38.2,4-38.7,0.7-42.3,0.7z"/>
	</g>
	<g class="st1">
		<polygon class="st4" points="285.8,-6.6 251.1,-6.6 257.9,-14.1 287.1,-14.1 		"/>
		<polygon class="st4" points="283.7,8.6 237.4,8.6 244.1,0.8 284.9,0.8 		"/>
		<polygon class="st4" points="281.6,23.8 223.8,23.8 230.6,16.4 282.7,16.4 		"/>
	</g>
	<g class="st1">
		<g>
			<path class="st4" d="M319.2-6.7H306l-1.2,9.1H317l-1.1,7.4h-12.2l-1.9,14h-9.2l5.3-37.9h22.4L319.2-6.7z"/>
			<path class="st4" d="M345.1,23.8h-7.9l0.3-4.3h-0.1c-1,1.6-4.2,5.1-9.1,5.1c-5.8,0-8.7-3.9-8.7-10.9c0-11.2,4.9-19.3,13.5-19.3
				c4,0,6.4,1.9,7,2.9h0.1l0.3-2h8.6L345.1,23.8z M334.7,1.6c-3.1,0-4.9,3-5.5,6.5l-0.5,3.7c-0.1,0.5-0.1,1.1-0.1,1.5
				c0,2.5,1.1,4,3.2,4c3,0,5.7-4,6.2-7.9l0.9-6.1C338.4,2.8,336.9,1.6,334.7,1.6z"/>
			<path class="st4" d="M373.9,3.4c-1.3-0.8-4.8-2.4-7.8-2.4c-1.2,0-3.2,0.3-3.2,2c0,1.3,1.1,1.9,3.1,2.7l0.8,0.3
				c3.4,1.4,7.2,3.3,7.2,8.2c0,7.4-6.1,10.4-13.2,10.4c-4.8,0-8.4-1.4-9.6-2l1.4-6.9c1.2,0.8,4.4,2.4,7.9,2.4c1.9,0,4.3-0.6,4.3-2.5
				c0-1.3-1.5-2-3.6-2.9l-0.7-0.3c-3.5-1.4-6.7-3.8-6.7-8.2c0-6.8,5.6-9.7,12.1-9.7c4.9,0,8.4,1.4,9.6,2L373.9,3.4z"/>
			<path class="st4" d="M399.1,2.5h-6.6l-1.8,12.1c-0.1,0.4-0.1,0.6-0.1,0.7c0,1.8,1.2,2.2,2.8,2.2c1.3,0,3.2-0.6,3.9-1l-0.5,6.7
				c-1,0.5-4,1.4-7.6,1.4c-5.2,0-7.8-2.4-7.8-7.3c0-0.7,0.1-1.5,0.2-2.3l1.8-12.6h-5.7l1-7.2h5.7l1-7l9.1-1l-1.1,8h6.6L399.1,2.5z"
				/>
			<path class="st4" d="M424.6,23.8h-22.8l5.3-37.9h9.2L412,16.5l13.6,0.1L424.6,23.8z"/>
			<path class="st4" d="M455.1,23.8h-7.9l0.3-4.3h-0.1c-1,1.6-4.2,5.1-9.1,5.1c-5.8,0-8.7-3.9-8.7-10.9c0-11.2,4.9-19.3,13.5-19.3
				c4,0,6.4,1.9,7,2.9h0.1l0.3-2h8.6L455.1,23.8z M444.7,1.6c-3.1,0-4.9,3-5.5,6.5l-0.5,3.7c-0.1,0.5-0.1,1.1-0.1,1.5
				c0,2.5,1.1,4,3.2,4c3,0,5.7-4,6.2-7.9l0.9-6.1C448.4,2.8,446.9,1.6,444.7,1.6z"/>
			<path class="st4" d="M489.3,23.8h-9l2.5-17.5c0.1-0.4,0.1-0.6,0.1-0.9c0-1.4-0.5-3.4-2.8-3.4c-3.6,0-6.4,4.8-6.9,8.4l-1.9,13.4
				h-9l4-28.4h8.2l-0.6,4.5h0.1c1.1-1.8,4.7-5.3,10.2-5.3c5.2,0,8,3.2,8,8.2c0,0.7-0.1,1.4-0.2,2.2L489.3,23.8z"/>
			<path class="st4" d="M505,13.2v0.5c0,2,1.6,4,5.2,4c4.3,0,8.2-2.3,9.7-3.4l-0.6,7.4c-1.4,1-5.5,3-10.9,3
				c-7.4,0-12.2-3.7-12.2-11.4c0-13.1,7.5-18.7,16-18.7c7.2,0,10.9,3.6,10.9,8.8C523.1,10.7,512.6,13.2,505,13.2z M511.7,0.4
				c-3,0-5.7,2.6-6.3,7c5.3,0,9.4-1.5,9.4-4.1C514.8,1.4,513.8,0.4,511.7,0.4z"/>
		</g>
	</g>
	<g class="st1">
		<polygon points="-262.3,-88.5 -293.7,-88.5 -286.9,-96 -262.3,-96 		"/>
		<polygon points="-262.3,-73.4 -307.4,-73.4 -300.6,-81.1 -262.3,-81.1 		"/>
		<polygon points="-262.3,-58.1 -320.9,-58.1 -314.2,-65.5 -262.3,-65.5 		"/>
	</g>
	<g class="st1">
		<path d="M-241.8-88.6v9.1h12.2v7.4h-12.2v14h-9.2V-96h22.4v7.4L-241.8-88.6z"/>
		<path d="M-206.8-58.2l-0.5-3.2c-1.4,2.2-3.8,4.1-8,4.1c-7.8,0-10.7-5.8-10.7-15c0-8.8,3.2-15,11.1-15c4.4,0,6.5,1.9,7.6,4h0.1
			l0.4-3.2h8.1v28.4h-8.1V-58.2z M-207.7-74.3c0-3.6-1.9-5.9-4.4-5.9c-3.3,0-4.6,2.6-4.6,6.1v3.6c0,4,1.6,6.1,4.4,6.1
			c3,0,4.7-2.6,4.7-5.8v-4.1L-207.7-74.3L-207.7-74.3z"/>
		<path d="M-184.5-57.3c-3.5,0-6.7-0.6-9.8-2l0.5-6.8c2.5,1.4,5.5,2.3,8.3,2.3c3.4,0,4-1.2,4-2.4c0-1.3-0.9-1.9-3.3-2.8l-1.9-0.6
			c-4-1.4-7.4-3.6-7.4-9.1c0-6,4.9-8.7,11.8-8.7c3.1,0,6.5,0.9,8.5,1.8l-0.4,6.8c-2.5-1.3-5.6-2.2-7.4-2.2c-2.4,0-3.2,0.8-3.2,1.9
			c0,1.2,1,1.9,3.5,2.8l1.9,0.6c3.8,1.3,7.2,3.5,7.2,9C-172.5-60.7-176.7-57.3-184.5-57.3z"/>
		<path d="M-157.1-57.3c-5.7,0-8.3-3-8.3-8.6l0.1-13.6h-5.7v-7.2h5.7l0.1-7l9-1l-0.1,8h6.6v7.2h-6.6l-0.1,11.7c0,2.6,0.9,3.3,3,3.3
			c1.2,0,2.8-0.4,3.4-0.6l0.4,6.4C-150.8-58.2-153.7-57.3-157.1-57.3z"/>
		<path d="M-145.3-58.2v-37.9h9.2v30.6l13.6,0.1v7.2H-145.3z"/>
		<path d="M-101.1-58.2l-0.5-3.2c-1.4,2.2-3.8,4.1-8,4.1c-7.8,0-10.7-5.8-10.7-15c0-8.8,3.2-15,11.1-15c4.4,0,6.5,1.9,7.6,4h0.1
			l0.4-3.2h8.1v28.4h-8.1V-58.2z M-102.1-74.3c0-3.6-1.9-5.9-4.4-5.9c-3.3,0-4.6,2.6-4.6,6.1v3.6c0,4,1.6,6.1,4.4,6.1
			c3,0,4.7-2.6,4.7-5.8v-4.1L-102.1-74.3L-102.1-74.3z"/>
		<path d="M-69.1-58.2v-16.9c0-2.4-0.8-4.5-4.1-4.5c-2.7,0-4.9,2-4.9,4.3v17.1h-9v-28.4h8.6v3.2h0.1c1-1.3,4.2-4,9-4
			c5.1,0,9.3,2.5,9.3,9.5v19.7H-69.1z"/>
		<path d="M-30.1-70H-47v0.3c0,2.6,1.5,5.3,6.2,5.3c3.2,0,6.3-0.9,8.9-2l0.4,6.8c-2.2,1.2-5.7,2.2-10.3,2.2c-11.1,0-14-5.6-14-14.9
			c0-9.1,3.6-15.2,13.9-15.2c9.1,0,12,5.4,12,14.1C-29.9-72.7-30-70.8-30.1-70z M-42.3-81.6c-3.4,0-4.8,3-4.8,5.9h8.9
			C-38.2-78.3-38.7-81.6-42.3-81.6z"/>
	</g>
	<g class="st1">
		<polygon points="285.8,-88.8 251.1,-88.8 257.9,-96.3 287.1,-96.3 		"/>
		<polygon points="283.7,-73.7 237.4,-73.7 244.1,-81.4 284.9,-81.4 		"/>
		<polygon points="281.6,-58.5 223.8,-58.5 230.6,-65.8 282.7,-65.8 		"/>
	</g>
	<g class="st1">
		<g>
			<path d="M319.2-89L306-88.9l-1.2,9.1H317l-1.1,7.4h-12.2l-1.9,14h-9.2l5.3-37.9h22.4L319.2-89z"/>
			<path d="M345.1-58.5h-7.9l0.3-4.3h-0.1c-1,1.6-4.2,5.1-9.1,5.1c-5.8,0-8.7-3.9-8.7-10.9c0-11.2,4.9-19.3,13.5-19.3
				c4,0,6.4,1.9,7,2.9h0.1l0.3-2h8.6L345.1-58.5z M334.7-80.6c-3.1,0-4.9,3-5.5,6.5l-0.5,3.7c-0.1,0.5-0.1,1.1-0.1,1.5
				c0,2.5,1.1,4,3.2,4c3,0,5.7-4,6.2-7.9l0.9-6.1C338.4-79.4,336.9-80.6,334.7-80.6z"/>
			<path d="M373.9-78.8c-1.3-0.8-4.8-2.4-7.8-2.4c-1.2,0-3.2,0.3-3.2,2c0,1.3,1.1,1.9,3.1,2.7l0.8,0.3c3.4,1.4,7.2,3.3,7.2,8.2
				c0,7.4-6.1,10.4-13.2,10.4c-4.8,0-8.4-1.4-9.6-2l1.4-6.9c1.2,0.8,4.4,2.4,7.9,2.4c1.9,0,4.3-0.6,4.3-2.5c0-1.3-1.5-2-3.6-2.9
				l-0.7-0.3c-3.5-1.4-6.7-3.8-6.7-8.2c0-6.8,5.6-9.7,12.1-9.7c4.9,0,8.4,1.4,9.6,2L373.9-78.8z"/>
			<path d="M399.1-79.7h-6.6l-1.7,12.1c-0.1,0.4-0.1,0.6-0.1,0.7c0,1.8,1.2,2.2,2.8,2.2c1.3,0,3.2-0.6,3.9-1l-0.5,6.7
				c-1,0.5-4,1.4-7.6,1.4c-5.2,0-7.8-2.4-7.8-7.3c0-0.7,0.1-1.5,0.2-2.3l1.8-12.6h-5.7l1-7.2h5.7l1-7l9.1-1l-1.1,8h6.6L399.1-79.7z"
				/>
			<path d="M424.6-58.5h-22.8l5.3-37.9h9.2L412-65.8l13.6,0.1L424.6-58.5z"/>
			<path d="M455.1-58.5h-7.9l0.3-4.3h-0.1c-1,1.6-4.2,5.1-9.1,5.1c-5.8,0-8.7-3.9-8.7-10.9c0-11.2,4.9-19.3,13.5-19.3
				c4,0,6.4,1.9,7,2.9h0.1l0.3-2h8.6L455.1-58.5z M444.7-80.6c-3.1,0-4.9,3-5.5,6.5l-0.5,3.7c-0.1,0.5-0.1,1.1-0.1,1.5
				c0,2.5,1.1,4,3.2,4c3,0,5.7-4,6.2-7.9l0.9-6.1C448.4-79.4,446.9-80.6,444.7-80.6z"/>
			<path d="M489.3-58.5h-9l2.5-17.5c0.1-0.4,0.1-0.6,0.1-0.9c0-1.4-0.5-3.4-2.8-3.4c-3.6,0-6.4,4.8-6.9,8.4l-1.9,13.4h-9l4-28.4h8.2
				l-0.6,4.5h0.1c1.1-1.8,4.7-5.3,10.2-5.3c5.2,0,8,3.2,8,8.2c0,0.7-0.1,1.4-0.2,2.2L489.3-58.5z"/>
			<path d="M505-69.1v0.5c0,2,1.6,4,5.2,4c4.3,0,8.2-2.3,9.7-3.4l-0.6,7.4c-1.4,1-5.5,3-10.9,3c-7.4,0-12.2-3.7-12.2-11.4
				c0-13.1,7.5-18.7,16-18.7c7.2,0,10.9,3.6,10.9,8.8C523.1-71.5,512.6-69.1,505-69.1z M511.7-81.9c-3,0-5.7,2.6-6.3,7
				c5.3,0,9.4-1.5,9.4-4.1C514.8-80.8,513.8-81.9,511.7-81.9z"/>
		</g>
	</g>
	<g class="st1">
		<polygon class="st6" points="-262.3,83 -293.7,83 -286.9,75.5 -262.3,75.5 		"/>
		<polygon class="st6" points="-262.3,98.2 -307.4,98.2 -300.6,90.5 -262.3,90.4 		"/>
		<polygon class="st6" points="-262.3,113.4 -320.9,113.4 -314.2,106.1 -262.3,106 		"/>
	</g>
	<g class="st1">
		<path class="st6" d="M-241.8,82.9V92h12.2v7.4h-12.2v14h-9.2V75.5h22.4v7.4H-241.8z"/>
		<path class="st6" d="M-206.8,113.4l-0.5-3.2c-1.4,2.2-3.8,4.1-8,4.1c-7.8,0-10.7-5.8-10.7-15c0-8.8,3.2-15,11.1-15
			c4.4,0,6.5,1.9,7.6,4h0.1l0.4-3.2h8.1v28.4L-206.8,113.4L-206.8,113.4z M-207.7,97.2c0-3.6-1.9-5.9-4.4-5.9
			c-3.3,0-4.6,2.6-4.6,6.1v3.6c0,4,1.6,6.1,4.4,6.1c3,0,4.7-2.6,4.7-5.8v-4.1H-207.7z"/>
		<path class="st6" d="M-184.5,114.2c-3.5,0-6.7-0.6-9.8-2l0.5-6.8c2.5,1.4,5.5,2.3,8.3,2.3c3.4,0,4-1.2,4-2.4
			c0-1.3-0.9-1.9-3.3-2.8l-1.9-0.6c-4-1.4-7.4-3.6-7.4-9.1c0-6,4.9-8.7,11.8-8.7c3.1,0,6.5,0.9,8.5,1.8l-0.4,6.8
			c-2.5-1.3-5.6-2.2-7.4-2.2c-2.4,0-3.2,0.8-3.2,1.9c0,1.2,1,1.9,3.5,2.8l1.9,0.6c3.8,1.3,7.2,3.5,7.2,9
			C-172.5,110.8-176.7,114.2-184.5,114.2z"/>
		<path class="st6" d="M-157.1,114.3c-5.7,0-8.3-3-8.3-8.6l0.1-13.6h-5.7v-7.2h5.7l0.1-7l9-1l-0.1,8h6.6v7.2h-6.6l-0.1,11.7
			c0,2.6,0.9,3.3,3,3.3c1.2,0,2.8-0.4,3.4-0.6l0.4,6.4C-150.8,113.4-153.7,114.3-157.1,114.3z"/>
		<path class="st6" d="M-145.3,113.4V75.5h9.2v30.6l13.6,0.1v7.2H-145.3z"/>
		<path class="st6" d="M-101.1,113.4l-0.5-3.2c-1.4,2.2-3.8,4.1-8,4.1c-7.8,0-10.7-5.8-10.7-15c0-8.8,3.2-15,11.1-15
			c4.4,0,6.5,1.9,7.6,4h0.1l0.4-3.2h8.1v28.4L-101.1,113.4L-101.1,113.4z M-102.1,97.2c0-3.6-1.9-5.9-4.4-5.9
			c-3.3,0-4.6,2.6-4.6,6.1v3.6c0,4,1.6,6.1,4.4,6.1c3,0,4.7-2.6,4.7-5.8v-4.1H-102.1z"/>
		<path class="st6" d="M-69.1,113.4V96.5c0-2.4-0.8-4.5-4.1-4.5c-2.7,0-4.9,2-4.9,4.3v17.1h-9V85h8.6v3.2h0.1c1-1.3,4.2-4,9-4
			c5.1,0,9.3,2.5,9.3,9.5v19.7C-60.1,113.4-69.1,113.4-69.1,113.4z"/>
		<path class="st6" d="M-30.1,101.6H-47v0.3c0,2.6,1.5,5.3,6.2,5.3c3.2,0,6.3-0.9,8.9-2l0.4,6.8c-2.2,1.2-5.7,2.2-10.3,2.2
			c-11.1,0-14-5.6-14-14.9c0-9.1,3.6-15.2,13.9-15.2c9.1,0,12,5.4,12,14.1C-29.9,98.8-30,100.7-30.1,101.6z M-42.3,90
			c-3.4,0-4.8,3-4.8,5.9h8.9C-38.2,93.3-38.7,90-42.3,90z"/>
	</g>
	<g class="st1">
		<polygon class="st6" points="285.8,82.7 251.1,82.7 257.9,75.2 287.1,75.2 		"/>
		<polygon class="st6" points="283.7,97.9 237.4,97.9 244.1,90.1 284.9,90.1 		"/>
		<polygon class="st6" points="281.6,113.1 223.8,113.1 230.6,105.7 282.7,105.7 		"/>
	</g>
	<g class="st1">
		<g>
			<path class="st6" d="M319.2,82.6H306l-1.2,9.1H317l-1.1,7.4h-12.2l-1.9,14h-9.2l5.3-37.9h22.4L319.2,82.6z"/>
			<path class="st6" d="M345.1,113.1h-7.9l0.3-4.3h-0.1c-1,1.6-4.2,5.1-9.1,5.1c-5.8,0-8.7-3.9-8.7-10.9c0-11.2,4.9-19.3,13.5-19.3
				c4,0,6.4,1.9,7,2.9h0.1l0.3-2h8.6L345.1,113.1z M334.7,90.9c-3.1,0-4.9,3-5.5,6.5l-0.5,3.7c-0.1,0.5-0.1,1.1-0.1,1.5
				c0,2.5,1.1,4,3.2,4c3,0,5.7-4,6.2-7.9l0.9-6.1C338.4,92.1,336.9,90.9,334.7,90.9z"/>
			<path class="st6" d="M373.9,92.7c-1.3-0.8-4.8-2.4-7.8-2.4c-1.2,0-3.2,0.3-3.2,2c0,1.3,1.1,1.9,3.1,2.7l0.8,0.3
				c3.4,1.4,7.2,3.3,7.2,8.2c0,7.4-6.1,10.4-13.2,10.4c-4.8,0-8.4-1.4-9.6-2l1.4-6.9c1.2,0.8,4.4,2.4,7.9,2.4c1.9,0,4.3-0.6,4.3-2.5
				c0-1.3-1.5-2-3.6-2.9l-0.7-0.3c-3.5-1.4-6.7-3.8-6.7-8.2c0-6.8,5.6-9.7,12.1-9.7c4.9,0,8.4,1.4,9.6,2L373.9,92.7z"/>
			<path class="st6" d="M399.1,91.8h-6.6l-1.7,12.1c-0.1,0.4-0.1,0.6-0.1,0.7c0,1.8,1.2,2.2,2.8,2.2c1.3,0,3.2-0.6,3.9-1l-0.5,6.7
				c-1,0.5-4,1.4-7.6,1.4c-5.2,0-7.8-2.4-7.8-7.3c0-0.7,0.1-1.5,0.2-2.3l1.8-12.6h-5.7l1-7.2h5.7l1-7l9.1-1l-1.1,8h6.6L399.1,91.8z"
				/>
			<path class="st6" d="M424.6,113.1h-22.8l5.3-37.9h9.2l-4.3,30.6l13.6,0.1L424.6,113.1z"/>
			<path class="st6" d="M455.1,113.1h-7.9l0.3-4.3h-0.1c-1,1.6-4.2,5.1-9.1,5.1c-5.8,0-8.7-3.9-8.7-10.9c0-11.2,4.9-19.3,13.5-19.3
				c4,0,6.4,1.9,7,2.9h0.1l0.3-2h8.6L455.1,113.1z M444.7,90.9c-3.1,0-4.9,3-5.5,6.5l-0.5,3.7c-0.1,0.5-0.1,1.1-0.1,1.5
				c0,2.5,1.1,4,3.2,4c3,0,5.7-4,6.2-7.9l0.9-6.1C448.4,92.1,446.9,90.9,444.7,90.9z"/>
			<path class="st6" d="M489.3,113.1h-9l2.5-17.5c0.1-0.4,0.1-0.6,0.1-0.9c0-1.4-0.5-3.4-2.8-3.4c-3.6,0-6.4,4.8-6.9,8.4l-1.9,13.4
				h-9l4-28.4h8.2l-0.6,4.5h0.1c1.1-1.8,4.7-5.3,10.2-5.3c5.2,0,8,3.2,8,8.2c0,0.7-0.1,1.4-0.2,2.2L489.3,113.1z"/>
			<path class="st6" d="M505,102.5v0.5c0,2,1.6,4,5.2,4c4.3,0,8.2-2.3,9.7-3.4l-0.6,7.4c-1.4,1-5.5,3-10.9,3
				c-7.4,0-12.2-3.7-12.2-11.4c0-13.1,7.5-18.7,16-18.7c7.2,0,10.9,3.6,10.9,8.8C523.1,100,512.6,102.5,505,102.5z M511.7,89.7
				c-3,0-5.7,2.6-6.3,7c5.3,0,9.4-1.5,9.4-4.1C514.8,90.7,513.8,89.7,511.7,89.7z"/>
		</g>
	</g>
	<g class="st1">
		<polygon class="st7" points="-262.3,173.1 -293.7,173.1 -286.9,165.6 -262.3,165.6 		"/>
		<polygon class="st7" points="-262.3,188.3 -307.4,188.3 -300.6,180.5 -262.3,180.5 		"/>
		<polygon class="st7" points="-262.3,203.5 -320.9,203.5 -314.2,196.1 -262.3,196.1 		"/>
	</g>
	<g class="st1">
		<path class="st7" d="M-241.8,173v9.1h12.2v7.4h-12.2v14h-9.2v-37.9h22.4v7.4H-241.8z"/>
		<path class="st7" d="M-206.8,203.4l-0.5-3.2c-1.4,2.2-3.8,4.1-8,4.1c-7.8,0-10.7-5.8-10.7-15c0-8.8,3.2-15,11.1-15
			c4.4,0,6.5,1.9,7.6,4h0.1l0.4-3.2h8.1v28.4h-8.1V203.4z M-207.7,187.3c0-3.6-1.9-5.9-4.4-5.9c-3.3,0-4.6,2.6-4.6,6.1v3.6
			c0,4,1.6,6.1,4.4,6.1c3,0,4.7-2.6,4.7-5.8v-4.1C-207.6,187.3-207.7,187.3-207.7,187.3z"/>
		<path class="st7" d="M-184.5,204.3c-3.5,0-6.7-0.6-9.8-2l0.5-6.8c2.5,1.4,5.5,2.3,8.3,2.3c3.4,0,4-1.2,4-2.4
			c0-1.3-0.9-1.9-3.3-2.8l-1.9-0.6c-4-1.4-7.4-3.6-7.4-9.1c0-6,4.9-8.7,11.8-8.7c3.1,0,6.5,0.9,8.5,1.8l-0.4,6.8
			c-2.5-1.3-5.6-2.2-7.4-2.2c-2.4,0-3.2,0.8-3.2,1.9c0,1.2,1,1.9,3.5,2.8l1.9,0.6c3.8,1.3,7.2,3.5,7.2,9
			C-172.5,200.9-176.7,204.3-184.5,204.3z"/>
		<path class="st7" d="M-157.1,204.4c-5.7,0-8.3-3-8.3-8.6l0.1-13.6h-5.7V175h5.7l0.1-7l9-1l-0.1,8h6.6v7.2h-6.6l-0.1,11.7
			c0,2.6,0.9,3.3,3,3.3c1.2,0,2.8-0.4,3.4-0.6l0.4,6.4C-150.8,203.4-153.7,204.4-157.1,204.4z"/>
		<path class="st7" d="M-145.3,203.4v-37.8h9.2v30.6l13.6,0.1v7.2h-22.8L-145.3,203.4L-145.3,203.4z"/>
		<path class="st7" d="M-101.1,203.4l-0.5-3.2c-1.4,2.2-3.8,4.1-8,4.1c-7.8,0-10.7-5.8-10.7-15c0-8.8,3.2-15,11.1-15
			c4.4,0,6.5,1.9,7.6,4h0.1l0.4-3.2h8.1v28.4h-8.1V203.4z M-102.1,187.3c0-3.6-1.9-5.9-4.4-5.9c-3.3,0-4.6,2.6-4.6,6.1v3.6
			c0,4,1.6,6.1,4.4,6.1c3,0,4.7-2.6,4.7-5.8v-4.1C-102,187.3-102.1,187.3-102.1,187.3z"/>
		<path class="st7" d="M-69.1,203.4v-16.9c0-2.4-0.8-4.5-4.1-4.5c-2.7,0-4.9,2-4.9,4.3v17.1h-9V175h8.6v3.2h0.1c1-1.3,4.2-4,9-4
			c5.1,0,9.3,2.5,9.3,9.5v19.7H-69.1z"/>
		<path class="st7" d="M-30.1,191.6H-47v0.3c0,2.6,1.5,5.3,6.2,5.3c3.2,0,6.3-0.9,8.9-2l0.4,6.8c-2.2,1.2-5.7,2.2-10.3,2.2
			c-11.1,0-14-5.6-14-14.9c0-9.1,3.6-15.2,13.9-15.2c9.1,0,12,5.4,12,14.1C-29.9,188.9-30,190.8-30.1,191.6z M-42.3,180.1
			c-3.4,0-4.8,3-4.8,5.9h8.9C-38.2,183.3-38.7,180.1-42.3,180.1z"/>
	</g>
	<g class="st1">
		<polygon class="st7" points="285.8,172.8 251.1,172.8 257.9,165.3 287.1,165.3 		"/>
		<polygon class="st7" points="283.7,187.9 237.4,187.9 244.1,180.2 284.9,180.2 		"/>
		<polygon class="st7" points="281.6,203.2 223.8,203.2 230.6,195.8 282.7,195.8 		"/>
	</g>
	<g class="st1">
		<g>
			<path class="st7" d="M319.2,172.6l-13.2,0.1l-1.2,9.1H317l-1.1,7.4h-12.2l-1.9,14h-9.2l5.3-37.9h22.4L319.2,172.6z"/>
			<path class="st7" d="M345.1,203.2h-7.9l0.3-4.3h-0.1c-1,1.6-4.2,5.1-9.1,5.1c-5.8,0-8.7-3.9-8.7-10.9c0-11.2,4.9-19.3,13.5-19.3
				c4,0,6.4,1.9,7,2.9h0.1l0.3-2h8.6L345.1,203.2z M334.7,181c-3.1,0-4.9,3-5.5,6.5l-0.5,3.7c-0.1,0.5-0.1,1.1-0.1,1.5
				c0,2.5,1.1,4,3.2,4c3,0,5.7-4,6.2-7.9l0.9-6.1C338.4,182.2,336.9,181,334.7,181z"/>
			<path class="st7" d="M373.9,182.8c-1.3-0.8-4.8-2.4-7.8-2.4c-1.2,0-3.2,0.3-3.2,2c0,1.3,1.1,1.9,3.1,2.7l0.8,0.3
				c3.4,1.4,7.2,3.3,7.2,8.2c0,7.4-6.1,10.4-13.2,10.4c-4.8,0-8.4-1.4-9.6-2l1.4-6.9c1.2,0.8,4.4,2.4,7.9,2.4c1.9,0,4.3-0.6,4.3-2.5
				c0-1.3-1.5-2-3.6-2.9l-0.7-0.3c-3.5-1.4-6.7-3.8-6.7-8.2c0-6.8,5.6-9.7,12.1-9.7c4.9,0,8.4,1.4,9.6,2L373.9,182.8z"/>
			<path class="st7" d="M399.1,181.9h-6.6l-1.7,12.1c-0.1,0.4-0.1,0.6-0.1,0.7c0,1.8,1.2,2.2,2.8,2.2c1.3,0,3.2-0.6,3.9-1l-0.5,6.7
				c-1,0.5-4,1.4-7.6,1.4c-5.2,0-7.8-2.4-7.8-7.3c0-0.7,0.1-1.5,0.2-2.3l1.8-12.6h-5.7l1-7.2h5.7l1-7l9.1-1l-1.1,8h6.6L399.1,181.9z
				"/>
			<path class="st7" d="M424.6,203.2h-22.8l5.3-37.9h9.2l-4.3,30.6l13.6,0.1L424.6,203.2z"/>
			<path class="st7" d="M455.1,203.2h-7.9l0.3-4.3h-0.1c-1,1.6-4.2,5.1-9.1,5.1c-5.8,0-8.7-3.9-8.7-10.9c0-11.2,4.9-19.3,13.5-19.3
				c4,0,6.4,1.9,7,2.9h0.1l0.3-2h8.6L455.1,203.2z M444.7,181c-3.1,0-4.9,3-5.5,6.5l-0.5,3.7c-0.1,0.5-0.1,1.1-0.1,1.5
				c0,2.5,1.1,4,3.2,4c3,0,5.7-4,6.2-7.9l0.9-6.1C448.4,182.2,446.9,181,444.7,181z"/>
			<path class="st7" d="M489.3,203.2h-9l2.5-17.5c0.1-0.4,0.1-0.6,0.1-0.9c0-1.4-0.5-3.4-2.8-3.4c-3.6,0-6.4,4.8-6.9,8.4l-1.9,13.4
				h-9l4-28.4h8.2l-0.6,4.5h0.1c1.1-1.8,4.7-5.3,10.2-5.3c5.2,0,8,3.2,8,8.2c0,0.7-0.1,1.4-0.2,2.2L489.3,203.2z"/>
			<path class="st7" d="M505,192.5v0.5c0,2,1.6,4,5.2,4c4.3,0,8.2-2.3,9.7-3.4l-0.6,7.4c-1.4,1-5.5,3-10.9,3
				c-7.4,0-12.2-3.7-12.2-11.4c0-13.1,7.5-18.7,16-18.7c7.2,0,10.9,3.6,10.9,8.8C523.1,190.1,512.6,192.5,505,192.5z M511.7,179.8
				c-3,0-5.7,2.6-6.3,7c5.3,0,9.4-1.5,9.4-4.1C514.8,180.8,513.8,179.8,511.7,179.8z"/>
		</g>
	</g>
	<g class="st1">
		<polygon class="st8" points="-262.3,260.4 -293.7,260.4 -286.9,252.9 -262.3,252.9 		"/>
		<polygon class="st8" points="-262.3,275.6 -307.4,275.6 -300.6,267.8 -262.3,267.8 		"/>
		<polygon class="st8" points="-262.3,290.8 -320.9,290.8 -314.2,283.4 -262.3,283.4 		"/>
	</g>
	<g class="st1">
		<path class="st8" d="M-241.8,260.3v9.1h12.2v7.4h-12.2v14h-9.2v-37.9h22.4v7.4H-241.8z"/>
		<path class="st8" d="M-206.8,290.8l-0.5-3.2c-1.4,2.2-3.8,4.1-8,4.1c-7.8,0-10.7-5.8-10.7-15c0-8.8,3.2-15,11.1-15
			c4.4,0,6.5,1.9,7.6,4h0.1l0.4-3.2h8.1v28.4h-8.1V290.8z M-207.7,274.6c0-3.6-1.9-5.9-4.4-5.9c-3.3,0-4.6,2.6-4.6,6.1v3.6
			c0,4,1.6,6.1,4.4,6.1c3,0,4.7-2.6,4.7-5.8v-4.1H-207.7z"/>
		<path class="st8" d="M-184.5,291.6c-3.5,0-6.7-0.6-9.8-2l0.5-6.8c2.5,1.4,5.5,2.3,8.3,2.3c3.4,0,4-1.2,4-2.4
			c0-1.3-0.9-1.9-3.3-2.8l-1.9-0.6c-4-1.4-7.4-3.6-7.4-9.1c0-6,4.9-8.7,11.8-8.7c3.1,0,6.5,0.9,8.5,1.8l-0.4,6.8
			c-2.5-1.3-5.6-2.2-7.4-2.2c-2.4,0-3.2,0.8-3.2,1.9c0,1.2,1,1.9,3.5,2.8l1.9,0.6c3.8,1.3,7.2,3.5,7.2,9
			C-172.5,288.2-176.7,291.6-184.5,291.6z"/>
		<path class="st8" d="M-157.1,291.7c-5.7,0-8.3-3-8.3-8.6l0.1-13.6h-5.7v-7.2h5.7l0.1-7l9-1l-0.1,8h6.6v7.2h-6.6l-0.1,11.7
			c0,2.6,0.9,3.3,3,3.3c1.2,0,2.8-0.4,3.4-0.6l0.4,6.4C-150.8,290.8-153.7,291.7-157.1,291.7z"/>
		<path class="st8" d="M-145.3,290.8v-37.9h9.2v30.6l13.6,0.1v7.2H-145.3z"/>
		<path class="st8" d="M-101.1,290.8l-0.5-3.2c-1.4,2.2-3.8,4.1-8,4.1c-7.8,0-10.7-5.8-10.7-15c0-8.8,3.2-15,11.1-15
			c4.4,0,6.5,1.9,7.6,4h0.1l0.4-3.2h8.1v28.4h-8.1V290.8z M-102.1,274.6c0-3.6-1.9-5.9-4.4-5.9c-3.3,0-4.6,2.6-4.6,6.1v3.6
			c0,4,1.6,6.1,4.4,6.1c3,0,4.7-2.6,4.7-5.8v-4.1H-102.1z"/>
		<path class="st8" d="M-69.1,290.8v-16.9c0-2.4-0.8-4.5-4.1-4.5c-2.7,0-4.9,2-4.9,4.3v17.1h-9v-28.4h8.6v3.2h0.1c1-1.3,4.2-4,9-4
			c5.1,0,9.3,2.5,9.3,9.5v19.7L-69.1,290.8L-69.1,290.8z"/>
		<path class="st8" d="M-30.1,278.9H-47v0.3c0,2.6,1.5,5.3,6.2,5.3c3.2,0,6.3-0.9,8.9-2l0.4,6.8c-2.2,1.2-5.7,2.2-10.3,2.2
			c-11.1,0-14-5.6-14-14.9c0-9.1,3.6-15.2,13.9-15.2c9.1,0,12,5.4,12,14.1C-29.9,276.2-30,278.1-30.1,278.9z M-42.3,267.4
			c-3.4,0-4.8,3-4.8,5.9h8.9C-38.2,270.6-38.7,267.4-42.3,267.4z"/>
	</g>
	<g class="st1">
		<polygon class="st8" points="285.8,260.1 251.1,260.1 257.9,252.6 287.1,252.6 		"/>
		<polygon class="st8" points="283.7,275.3 237.4,275.3 244.1,267.5 284.9,267.5 		"/>
		<polygon class="st8" points="281.6,290.5 223.8,290.5 230.6,283.1 282.7,283.1 		"/>
	</g>
	<g class="st1">
		<g>
			<path class="st8" d="M319.2,260l-13.2,0.1l-1.2,9.1H317l-1.1,7.4h-12.2l-1.9,14h-9.2l5.3-37.9h22.4L319.2,260z"/>
			<path class="st8" d="M345.1,290.5h-7.9l0.3-4.3h-0.1c-1,1.6-4.2,5.1-9.1,5.1c-5.8,0-8.7-3.9-8.7-10.9c0-11.2,4.9-19.3,13.5-19.3
				c4,0,6.4,1.9,7,2.9h0.1l0.3-2h8.6L345.1,290.5z M334.7,268.3c-3.1,0-4.9,3-5.5,6.5l-0.5,3.7c-0.1,0.5-0.1,1.1-0.1,1.5
				c0,2.5,1.1,4,3.2,4c3,0,5.7-4,6.2-7.9l0.9-6.1C338.4,269.5,336.9,268.3,334.7,268.3z"/>
			<path class="st8" d="M373.9,270.1c-1.3-0.8-4.8-2.4-7.8-2.4c-1.2,0-3.2,0.3-3.2,2c0,1.3,1.1,1.9,3.1,2.7l0.8,0.3
				c3.4,1.4,7.2,3.3,7.2,8.2c0,7.4-6.1,10.4-13.2,10.4c-4.8,0-8.4-1.4-9.6-2l1.4-6.9c1.2,0.8,4.4,2.4,7.9,2.4c1.9,0,4.3-0.6,4.3-2.5
				c0-1.3-1.5-2-3.6-2.9l-0.7-0.3c-3.5-1.4-6.7-3.8-6.7-8.2c0-6.8,5.6-9.7,12.1-9.7c4.9,0,8.4,1.4,9.6,2L373.9,270.1z"/>
			<path class="st8" d="M399.1,269.2h-6.6l-1.7,12.1c-0.1,0.4-0.1,0.6-0.1,0.7c0,1.8,1.2,2.2,2.8,2.2c1.3,0,3.2-0.6,3.9-1l-0.5,6.7
				c-1,0.5-4,1.4-7.6,1.4c-5.2,0-7.8-2.4-7.8-7.3c0-0.7,0.1-1.5,0.2-2.3l1.8-12.6h-5.7l1-7.2h5.7l1-7l9.1-1l-1.1,8h6.6L399.1,269.2z
				"/>
			<path class="st8" d="M424.6,290.5h-22.8l5.3-37.9h9.2l-4.3,30.6l13.6,0.1L424.6,290.5z"/>
			<path class="st8" d="M455.1,290.5h-7.9l0.3-4.3h-0.1c-1,1.6-4.2,5.1-9.1,5.1c-5.8,0-8.7-3.9-8.7-10.9c0-11.2,4.9-19.3,13.5-19.3
				c4,0,6.4,1.9,7,2.9h0.1l0.3-2h8.6L455.1,290.5z M444.7,268.3c-3.1,0-4.9,3-5.5,6.5l-0.5,3.7c-0.1,0.5-0.1,1.1-0.1,1.5
				c0,2.5,1.1,4,3.2,4c3,0,5.7-4,6.2-7.9l0.9-6.1C448.4,269.5,446.9,268.3,444.7,268.3z"/>
			<path class="st8" d="M489.3,290.5h-9l2.5-17.5c0.1-0.4,0.1-0.6,0.1-0.9c0-1.4-0.5-3.4-2.8-3.4c-3.6,0-6.4,4.8-6.9,8.4l-1.9,13.4
				h-9l4-28.4h8.2l-0.6,4.5h0.1c1.1-1.8,4.7-5.3,10.2-5.3c5.2,0,8,3.2,8,8.2c0,0.7-0.1,1.4-0.2,2.2L489.3,290.5z"/>
			<path class="st8" d="M505,279.8v0.5c0,2,1.6,4,5.2,4c4.3,0,8.2-2.3,9.7-3.4l-0.6,7.4c-1.4,1-5.5,3-10.9,3
				c-7.4,0-12.2-3.7-12.2-11.4c0-13.1,7.5-18.7,16-18.7c7.2,0,10.9,3.6,10.9,8.8C523.1,277.4,512.6,279.8,505,279.8z M511.7,267.1
				c-3,0-5.7,2.6-6.3,7c5.3,0,9.4-1.5,9.4-4.1C514.8,268.1,513.8,267.1,511.7,267.1z"/>
		</g>
	</g>
	<g class="st1">
		<polygon class="st9" points="-262.3,348.5 -293.7,348.5 -286.9,340.9 -262.3,340.9 		"/>
		<polygon class="st9" points="-262.3,363.6 -307.4,363.6 -300.6,355.9 -262.3,355.9 		"/>
		<polygon class="st9" points="-262.3,378.8 -320.9,378.8 -314.2,371.5 -262.3,371.5 		"/>
	</g>
	<g class="st1">
		<path class="st9" d="M-241.8,348.4v9.1h12.2v7.4h-12.2v14h-9.2V341h22.4v7.4H-241.8z"/>
		<path class="st9" d="M-206.8,378.8l-0.5-3.2c-1.4,2.2-3.8,4.1-8,4.1c-7.8,0-10.7-5.8-10.7-15c0-8.8,3.2-15,11.1-15
			c4.4,0,6.5,1.9,7.6,4h0.1l0.4-3.2h8.1v28.4L-206.8,378.8L-206.8,378.8z M-207.7,362.6c0-3.6-1.9-5.9-4.4-5.9
			c-3.3,0-4.6,2.6-4.6,6.1v3.6c0,4,1.6,6.1,4.4,6.1c3,0,4.7-2.6,4.7-5.8v-4.1H-207.7z"/>
		<path class="st9" d="M-184.5,379.7c-3.5,0-6.7-0.6-9.8-2l0.5-6.8c2.5,1.4,5.5,2.3,8.3,2.3c3.4,0,4-1.2,4-2.4
			c0-1.3-0.9-1.9-3.3-2.8l-1.9-0.6c-4-1.4-7.4-3.6-7.4-9.1c0-6,4.9-8.7,11.8-8.7c3.1,0,6.5,0.9,8.5,1.8l-0.4,6.8
			c-2.5-1.3-5.6-2.2-7.4-2.2c-2.4,0-3.2,0.8-3.2,1.9c0,1.2,1,1.9,3.5,2.8l1.9,0.6c3.8,1.3,7.2,3.5,7.2,9
			C-172.5,376.3-176.7,379.7-184.5,379.7z"/>
		<path class="st9" d="M-157.1,379.7c-5.7,0-8.3-3-8.3-8.6l0.1-13.6h-5.7v-7.2h5.7l0.1-7l9-1l-0.1,8h6.6v7.2h-6.6l-0.1,11.7
			c0,2.6,0.9,3.3,3,3.3c1.2,0,2.8-0.4,3.4-0.6l0.4,6.4C-150.8,378.8-153.7,379.7-157.1,379.7z"/>
		<path class="st9" d="M-145.3,378.8v-37.9h9.2v30.6l13.6,0.1v7.2L-145.3,378.8L-145.3,378.8z"/>
		<path class="st9" d="M-101.1,378.8l-0.5-3.2c-1.4,2.2-3.8,4.1-8,4.1c-7.8,0-10.7-5.8-10.7-15c0-8.8,3.2-15,11.1-15
			c4.4,0,6.5,1.9,7.6,4h0.1l0.4-3.2h8.1v28.4L-101.1,378.8L-101.1,378.8z M-102.1,362.6c0-3.6-1.9-5.9-4.4-5.9
			c-3.3,0-4.6,2.6-4.6,6.1v3.6c0,4,1.6,6.1,4.4,6.1c3,0,4.7-2.6,4.7-5.8v-4.1H-102.1z"/>
		<path class="st9" d="M-69.1,378.8v-16.9c0-2.4-0.8-4.5-4.1-4.5c-2.7,0-4.9,2-4.9,4.3v17.1h-9v-28.4h8.6v3.2h0.1c1-1.3,4.2-4,9-4
			c5.1,0,9.3,2.5,9.3,9.5v19.7L-69.1,378.8L-69.1,378.8z"/>
		<path class="st9" d="M-30.1,367H-47v0.3c0,2.6,1.5,5.3,6.2,5.3c3.2,0,6.3-0.9,8.9-2l0.4,6.8c-2.2,1.2-5.7,2.2-10.3,2.2
			c-11.1,0-14-5.6-14-14.9c0-9.1,3.6-15.2,13.9-15.2c9.1,0,12,5.4,12,14.1C-29.9,364.3-30,366.2-30.1,367z M-42.3,355.4
			c-3.4,0-4.8,3-4.8,5.9h8.9C-38.2,358.7-38.7,355.4-42.3,355.4z"/>
	</g>
	<g class="st1">
		<polygon class="st9" points="285.8,348.1 251.1,348.1 257.9,340.6 287.1,340.6 		"/>
		<polygon class="st9" points="283.7,363.3 237.4,363.3 244.1,355.6 284.9,355.6 		"/>
		<polygon class="st9" points="281.6,378.5 223.8,378.5 230.6,371.2 282.7,371.2 		"/>
	</g>
	<g class="st1">
		<g>
			<path class="st9" d="M319.2,348l-13.2,0.1l-1.2,9.1H317l-1.1,7.4h-12.2l-1.9,14h-9.2l5.3-37.9h22.4L319.2,348z"/>
			<path class="st9" d="M345.1,378.5h-7.9l0.3-4.3h-0.1c-1,1.6-4.2,5.1-9.1,5.1c-5.8,0-8.7-3.9-8.7-10.9c0-11.2,4.9-19.3,13.5-19.3
				c4,0,6.4,1.9,7,2.9h0.1l0.3-2h8.6L345.1,378.5z M334.7,356.4c-3.1,0-4.9,3-5.5,6.5l-0.5,3.7c-0.1,0.5-0.1,1.1-0.1,1.5
				c0,2.5,1.1,4,3.2,4c3,0,5.7-4,6.2-7.9l0.9-6.1C338.4,357.6,336.9,356.4,334.7,356.4z"/>
			<path class="st9" d="M373.9,358.1c-1.3-0.8-4.8-2.4-7.8-2.4c-1.2,0-3.2,0.3-3.2,2c0,1.3,1.1,1.9,3.1,2.7l0.8,0.3
				c3.4,1.4,7.2,3.3,7.2,8.2c0,7.4-6.1,10.4-13.2,10.4c-4.8,0-8.4-1.4-9.6-2l1.4-6.9c1.2,0.8,4.4,2.4,7.9,2.4c1.9,0,4.3-0.6,4.3-2.5
				c0-1.3-1.5-2-3.6-2.9l-0.7-0.3c-3.5-1.4-6.7-3.8-6.7-8.2c0-6.8,5.6-9.7,12.1-9.7c4.9,0,8.4,1.4,9.6,2L373.9,358.1z"/>
			<path class="st9" d="M399.1,357.3h-6.6l-1.7,12.1c-0.1,0.4-0.1,0.6-0.1,0.7c0,1.8,1.2,2.2,2.8,2.2c1.3,0,3.2-0.6,3.9-1l-0.5,6.7
				c-1,0.5-4,1.4-7.6,1.4c-5.2,0-7.8-2.4-7.8-7.3c0-0.7,0.1-1.5,0.2-2.3l1.8-12.6h-5.7l1-7.2h5.7l1-7l9.1-1l-1.1,8h6.6L399.1,357.3z
				"/>
			<path class="st9" d="M424.6,378.5h-22.8l5.3-37.9h9.2l-4.3,30.6l13.6,0.1L424.6,378.5z"/>
			<path class="st9" d="M455.1,378.5h-7.9l0.3-4.3h-0.1c-1,1.6-4.2,5.1-9.1,5.1c-5.8,0-8.7-3.9-8.7-10.9c0-11.2,4.9-19.3,13.5-19.3
				c4,0,6.4,1.9,7,2.9h0.1l0.3-2h8.6L455.1,378.5z M444.7,356.4c-3.1,0-4.9,3-5.5,6.5l-0.5,3.7c-0.1,0.5-0.1,1.1-0.1,1.5
				c0,2.5,1.1,4,3.2,4c3,0,5.7-4,6.2-7.9l0.9-6.1C448.4,357.6,446.9,356.4,444.7,356.4z"/>
			<path class="st9" d="M489.3,378.5h-9l2.5-17.5c0.1-0.4,0.1-0.6,0.1-0.9c0-1.4-0.5-3.4-2.8-3.4c-3.6,0-6.4,4.8-6.9,8.4l-1.9,13.4
				h-9l4-28.4h8.2l-0.6,4.5h0.1c1.1-1.8,4.7-5.3,10.2-5.3c5.2,0,8,3.2,8,8.2c0,0.7-0.1,1.4-0.2,2.2L489.3,378.5z"/>
			<path class="st9" d="M505,367.9v0.5c0,2,1.6,4,5.2,4c4.3,0,8.2-2.3,9.7-3.4l-0.6,7.4c-1.4,1-5.5,3-10.9,3
				c-7.4,0-12.2-3.7-12.2-11.4c0-13.1,7.5-18.7,16-18.7c7.2,0,10.9,3.6,10.9,8.8C523.1,365.5,512.6,367.9,505,367.9z M511.7,355.1
				c-3,0-5.7,2.6-6.3,7c5.3,0,9.4-1.5,9.4-4.1C514.8,356.1,513.8,355.1,511.7,355.1z"/>
		</g>
	</g>
	<rect x="772.2" y="-44.5" class="st11" width="98.6" height="98.6"/>
	<rect x="870.7" y="-44.5" class="st12" width="98.6" height="98.6"/>
	<rect x="969.1" y="-44.5" class="st13" width="98.6" height="98.6"/>
	<rect x="1067.6" y="-44.5" class="st14" width="98.6" height="98.6"/>
	<rect x="772.2" y="54" class="st15" width="98.6" height="98.6"/>
	<rect x="870.7" y="54" class="st16" width="98.6" height="98.6"/>
	<rect x="969.1" y="54" class="st17" width="98.6" height="98.6"/>
	<rect x="1067.6" y="54" class="st5" width="98.6" height="98.6"/>
	<rect x="772.2" y="152.6" class="st18" width="98.6" height="98.6"/>
	<rect x="870.7" y="152.6" class="st19" width="98.6" height="98.6"/>
	<rect x="969.1" y="152.6" class="st20" width="98.6" height="98.6"/>
	<rect x="1067.6" y="152.6" class="st21" width="98.6" height="98.6"/>
</g>
<g id="Layer_4" class="st0">
	<g class="st1">
		<path d="M-43.1-22.4v11.5h15.5v9.4h-15.5v17.7h-11.7v-48h28.4v9.4L-43.1-22.4z"/>
		<path d="M2.2,16.2l-0.6-4.1c-1.8,2.7-4.8,5.2-10.2,5.2c-9.9,0-13.5-7.4-13.5-19.1c0-11.2,4-19.1,14-19.1c5.5,0,8.3,2.4,9.6,5.1
			h0.1l0.5-4h10.3v36H2.2z M1-4.3c0-4.5-2.4-7.5-5.6-7.5c-4.2,0-5.8,3.3-5.8,7.8v4.5c0,5.1,2.1,7.7,5.5,7.7C-1.1,8.2,1,5,1,0.8
			L1-4.3L1-4.3z"/>
		<path d="M32.5,17.3c-4.5,0-8.5-0.8-12.5-2.5l0.6-8.6c3.2,1.7,7,3,10.5,3c4.2,0,5-1.5,5-3c0-1.7-1.1-2.4-4.2-3.5l-2.4-0.8
			c-5-1.7-9.4-4.6-9.4-11.6c0-7.6,6.3-11,14.9-11c4,0,8.2,1.1,10.7,2.2l-0.5,8.6c-3.2-1.7-7.1-2.7-9.4-2.7c-3,0-4.1,1-4.1,2.4
			c0,1.5,1.2,2.4,4.5,3.5l2.4,0.8c4.8,1.7,9.1,4.4,9.1,11.4C47.7,13,42.4,17.3,32.5,17.3z"/>
		<path d="M68.2,17.4c-7.3,0-10.6-3.7-10.6-10.9l0.1-17.2h-7.3v-9.1h7.3l0.1-8.9l11.4-1.2l-0.1,10.1h8.4v9.1h-8.4L69,4.1
			c0,3.2,1.2,4.2,3.7,4.2c1.6,0,3.5-0.5,4.2-0.7l0.5,8.1C76.2,16.2,72.5,17.4,68.2,17.4z"/>
		<path d="M85.2,16.2v-48h11.7V7l17.2,0.1v9.1H85.2z"/>
		<path d="M142.2,16.2l-0.6-4.1c-1.8,2.7-4.8,5.2-10.2,5.2c-9.9,0-13.5-7.4-13.5-19.1c0-11.2,4-19.1,14-19.1c5.5,0,8.3,2.4,9.6,5.1
			h0.1l0.5-4h10.3v36H142.2z M141-4.3c0-4.5-2.4-7.5-5.6-7.5c-4.2,0-5.8,3.3-5.8,7.8v4.5c0,5.1,2.1,7.7,5.5,7.7
			c3.8,0,5.9-3.2,5.9-7.4C141,0.8,141-4.3,141-4.3z"/>
		<path d="M184.7,16.2V-5.3c0-3.1-1-5.7-5.2-5.7c-3.4,0-6.2,2.6-6.2,5.5v21.7h-11.4v-36h10.9v4h0.1c1.3-1.7,5.3-5.1,11.4-5.1
			c6.5,0,11.8,3.2,11.8,12.1v25C196.1,16.2,184.7,16.2,184.7,16.2z"/>
		<path d="M235.3,1.3h-21.5v0.4c0,3.3,1.9,6.8,7.9,6.8c4.1,0,8-1.1,11.2-2.5l0.5,8.6c-2.7,1.5-7.3,2.7-13.1,2.7
			c-14.1,0-17.7-7.1-17.7-18.9c0-11.5,4.5-19.2,17.6-19.2c11.6,0,15.2,6.8,15.2,17.9C235.4-2.2,235.4,0.2,235.3,1.3z M219.7-13.4
			c-4.3,0-6.1,3.8-6.1,7.5h11.3C224.9-9.2,224.3-13.4,219.7-13.4z"/>
	</g>
	<g class="st1">
		<path d="M295.9-22.4v11.5h15.5v9.4h-15.5v17.7h-11.7v-48h28.4v9.4L295.9-22.4z"/>
		<path d="M338.2,16.2l-0.6-4.1c-1.8,2.7-4.8,5.2-10.2,5.2c-9.9,0-13.5-7.4-13.5-19.1c0-11.2,4-19.1,14-19.1c5.5,0,8.3,2.4,9.6,5.1
			h0.1l0.5-4h10.3v36H338.2z M337-4.3c0-4.5-2.4-7.5-5.6-7.5c-4.2,0-5.8,3.3-5.8,7.8v4.5c0,5.1,2.1,7.7,5.5,7.7
			c3.8,0,5.9-3.2,5.9-7.4V-4.3L337-4.3z"/>
		<path d="M364.5,17.3c-4.5,0-8.5-0.8-12.5-2.5l0.6-8.6c3.2,1.7,7,3,10.5,3c4.2,0,5-1.5,5-3c0-1.7-1.1-2.4-4.2-3.5l-2.4-0.8
			c-5-1.7-9.4-4.6-9.4-11.6c0-7.6,6.3-11,14.9-11c4,0,8.2,1.1,10.7,2.2l-0.5,8.6c-3.2-1.7-7.1-2.7-9.4-2.7c-3,0-4.1,1-4.1,2.4
			c0,1.5,1.2,2.4,4.5,3.5l2.4,0.8c4.8,1.7,9.1,4.4,9.1,11.4C379.7,13,374.4,17.3,364.5,17.3z"/>
		<path d="M397.2,17.4c-7.3,0-10.6-3.7-10.6-10.9l0.1-17.2h-7.3v-9.1h7.3l0.1-8.9l11.4-1.2l-0.1,10.1h8.4v9.1h-8.4L398,4.1
			c0,3.2,1.2,4.2,3.7,4.2c1.6,0,3.5-0.5,4.2-0.7l0.5,8.1C405.2,16.2,401.5,17.4,397.2,17.4z"/>
		<path d="M410.2,16.2v-48h11.7V7l17.2,0.1v9.1H410.2z"/>
		<path d="M464.2,16.2l-0.6-4.1c-1.8,2.7-4.8,5.2-10.2,5.2c-9.9,0-13.5-7.4-13.5-19.1c0-11.2,4-19.1,14-19.1c5.5,0,8.3,2.4,9.6,5.1
			h0.1l0.5-4h10.3v36H464.2z M463-4.3c0-4.5-2.4-7.5-5.6-7.5c-4.2,0-5.8,3.3-5.8,7.8v4.5c0,5.1,2.1,7.7,5.5,7.7
			c3.8,0,5.9-3.2,5.9-7.4V-4.3z"/>
		<path d="M502.7,16.2V-5.3c0-3.1-1-5.7-5.2-5.7c-3.4,0-6.2,2.6-6.2,5.5v21.7h-11.4v-36h10.9v4h0.1c1.3-1.7,5.3-5.1,11.4-5.1
			c6.5,0,11.8,3.2,11.8,12.1v25C514.1,16.2,502.7,16.2,502.7,16.2z"/>
		<path d="M550.3,1.3h-21.5v0.4c0,3.3,1.9,6.8,7.9,6.8c4.1,0,8-1.1,11.2-2.5l0.5,8.6c-2.7,1.5-7.3,2.7-13.1,2.7
			c-14.1,0-17.7-7.1-17.7-18.9c0-11.5,4.5-19.2,17.6-19.2c11.6,0,15.2,6.8,15.2,17.9C550.4-2.2,550.4,0.2,550.3,1.3z M534.7-13.4
			c-4.3,0-6.1,3.8-6.1,7.5h11.3C539.9-9.2,539.3-13.4,534.7-13.4z"/>
	</g>
	<g class="st1">
		<path d="M311.1,156.6v13.6H327v7.8h-15.9v18.7h-9.5v-48h26.7v7.8L311.1,156.6z"/>
		<path d="M356.7,196.7l-0.5-4.5h-0.1c-1.9,2.9-4.8,5.5-10.4,5.5c-9.9,0-13.5-7.7-13.5-18.9c0-10.8,3.9-19.1,14-19.1
			c5.7,0,8.5,2.7,9.9,5.5h0.1l0.4-4.5h8.4v36H356.7z M355.8,176c0-5.2-3.2-8.7-6.8-8.7c-5.1,0-7.1,4.1-7.1,9.3v4.5
			c0,5.8,2.6,9.1,6.8,9.1c4.3,0,7.1-3.9,7.1-8.4V176z"/>
		<path d="M383,197.7c-4.2,0-7.9-0.9-11.6-2.5l0.4-7.3c3.2,1.8,6.7,3,10.3,3c4.8,0,6-1.9,6-4c0-2.4-1.6-3.5-5.8-4.9l-0.9-0.3
			c-5.9-1.9-10-4.9-10-11.4c0-6.8,5.4-10.5,14-10.5c4,0,7.8,1.1,10.2,2.3l-0.4,7.3c-3.4-1.8-7.1-2.7-9.2-2.7c-3.7,0-5.1,1.3-5.1,3.2
			c0,2.1,1.6,3.2,5.3,4.5l2.4,0.9c4.9,1.7,8.9,4.4,8.9,11C397.6,193.4,392.6,197.7,383,197.7z"/>
		<path d="M417.1,197.7c-6.9,0-9.9-3.5-9.9-10.3l0.1-19.2h-7.7v-7.5h7.7l0.1-9l9.3-1.1l-0.1,10.1h8.9v7.5h-8.9l-0.1,17.6
			c0,3.2,1.2,4.5,4,4.5c1.7,0,3.8-0.6,4.6-0.9l0.4,6.8C424.3,196.7,420.9,197.7,417.1,197.7z"/>
		<path d="M431.6,196.7v-48h9.5V189l17.9,0.1v7.7h-27.4V196.7z"/>
		<path d="M486.7,196.7l-0.5-4.5h-0.1c-1.9,2.9-4.8,5.5-10.4,5.5c-9.9,0-13.5-7.7-13.5-18.9c0-10.8,3.9-19.1,14-19.1
			c5.7,0,8.5,2.7,9.9,5.5h0.1l0.4-4.5h8.4v36H486.7z M485.8,176c0-5.2-3.2-8.7-6.8-8.7c-5.1,0-7.1,4.1-7.1,9.3v4.5
			c0,5.8,2.6,9.1,6.8,9.1c4.3,0,7.1-3.9,7.1-8.4V176z"/>
		<path d="M525.1,196.7v-22c0-3.5-1-6.8-6-6.8c-4,0-7.4,3.2-7.4,6.6v22.2h-9.4v-36h8.9v4.4h0.1c1.3-1.7,5.3-5.4,11.4-5.4
			c7.1,0,11.7,3.6,11.7,12.1v24.9H525.1z"/>
		<path d="M571.2,181.2h-22v0.8c0,4.2,2.2,8.4,8.7,8.4c4.1,0,7.9-1.1,11.1-2.6l0.4,7.3c-2.7,1.6-7.2,2.7-12.5,2.7
			c-13.5,0-16.9-7.3-16.9-18.9c0-11.4,4.5-19.2,16.8-19.2c9.9,0,14.5,5.5,14.5,17.3C571.4,177.7,571.3,180.1,571.2,181.2z
			 M556.5,166.1c-5.2,0-7.3,4.5-7.3,8.9h13.5C562.6,170.7,561.9,166.1,556.5,166.1z"/>
	</g>
	<g class="st1">
		<path d="M311.1,217.6v13.6H327v7.8h-15.9v18.7h-9.5v-48h26.7v7.8L311.1,217.6z"/>
		<path d="M357.7,257.7l-0.5-4.5h-0.1c-1.9,2.9-4.8,5.5-10.4,5.5c-9.9,0-13.5-7.7-13.5-18.9c0-10.8,3.9-19.1,14-19.1
			c5.7,0,8.5,2.7,9.9,5.5h0.1l0.4-4.5h8.4v36H357.7z M356.8,237c0-5.2-3.2-8.7-6.8-8.7c-5.1,0-7.1,4.1-7.1,9.3v4.5
			c0,5.8,2.6,9.1,6.8,9.1c4.3,0,7.1-3.9,7.1-8.4V237z"/>
		<path d="M386,258.7c-4.2,0-7.9-0.9-11.6-2.5l0.4-7.3c3.2,1.8,6.7,3,10.3,3c4.8,0,6-1.9,6-4c0-2.4-1.6-3.5-5.8-4.9l-0.9-0.3
			c-5.9-1.9-10-4.9-10-11.4c0-6.8,5.4-10.5,14-10.5c4,0,7.8,1.1,10.2,2.3l-0.4,7.3c-3.4-1.8-7.1-2.7-9.2-2.7c-3.7,0-5.1,1.3-5.1,3.2
			c0,2.1,1.6,3.2,5.3,4.5l2.4,0.9c4.9,1.7,8.9,4.4,8.9,11C400.6,254.4,395.6,258.7,386,258.7z"/>
		<path d="M421.1,258.7c-6.9,0-9.9-3.5-9.9-10.3l0.1-19.2h-7.7v-7.5h7.7l0.1-9l9.3-1.1l-0.1,10.1h8.9v7.5h-8.9l-0.1,17.6
			c0,3.2,1.2,4.5,4,4.5c1.7,0,3.8-0.6,4.6-0.9l0.4,6.8C428.3,257.7,424.9,258.7,421.1,258.7z"/>
		<path d="M437.6,257.7v-48h9.5V250l17.9,0.1v7.7h-27.4V257.7z"/>
		<path d="M494.7,257.7l-0.5-4.5h-0.1c-1.9,2.9-4.8,5.5-10.4,5.5c-9.9,0-13.5-7.7-13.5-18.9c0-10.8,3.9-19.1,14-19.1
			c5.7,0,8.5,2.7,9.9,5.5h0.1l0.4-4.5h8.4v36H494.7z M493.8,237c0-5.2-3.2-8.7-6.8-8.7c-5.1,0-7.1,4.1-7.1,9.3v4.5
			c0,5.8,2.6,9.1,6.8,9.1c4.3,0,7.1-3.9,7.1-8.4V237z"/>
		<path d="M536.1,257.7v-22c0-3.5-1-6.8-6-6.8c-4,0-7.4,3.2-7.4,6.6v22.2h-9.4v-36h8.9v4.4h0.1c1.3-1.7,5.3-5.4,11.4-5.4
			c7.1,0,11.7,3.6,11.7,12.1v24.9H536.1z"/>
		<path d="M584.2,242.2h-22v0.8c0,4.2,2.2,8.4,8.7,8.4c4.1,0,7.9-1.1,11.1-2.6l0.4,7.3c-2.7,1.6-7.2,2.7-12.5,2.7
			c-13.5,0-16.9-7.3-16.9-18.9c0-11.4,4.5-19.2,16.8-19.2c9.9,0,14.5,5.5,14.5,17.3C584.4,238.7,584.3,241.1,584.2,242.2z
			 M569.5,227.1c-5.2,0-7.3,4.5-7.3,8.9h13.5C575.6,231.7,574.9,227.1,569.5,227.1z"/>
	</g>
	<g class="st1">
		<path d="M650.1,217.6v13.6H666v7.8h-15.9v18.7h-9.5v-48h26.7v7.8L650.1,217.6z"/>
		<path d="M693.7,257.7l-0.5-4.5h-0.1c-1.9,2.9-4.8,5.5-10.4,5.5c-9.9,0-13.5-7.7-13.5-18.9c0-10.8,3.9-19.1,14-19.1
			c5.7,0,8.5,2.7,9.9,5.5h0.1l0.4-4.5h8.4v36H693.7z M692.8,237c0-5.2-3.2-8.7-6.8-8.7c-5.1,0-7.1,4.1-7.1,9.3v4.5
			c0,5.8,2.6,9.1,6.8,9.1c4.3,0,7.1-3.9,7.1-8.4V237z"/>
		<path d="M718,258.7c-4.2,0-7.9-0.9-11.6-2.5l0.4-7.3c3.2,1.8,6.7,3,10.3,3c4.8,0,6-1.9,6-4c0-2.4-1.6-3.5-5.8-4.9l-0.9-0.3
			c-5.9-1.9-10-4.9-10-11.4c0-6.8,5.4-10.5,14-10.5c4,0,7.8,1.1,10.2,2.3l-0.4,7.3c-3.4-1.8-7.1-2.7-9.2-2.7c-3.7,0-5.1,1.3-5.1,3.2
			c0,2.1,1.6,3.2,5.3,4.5l2.4,0.9c4.9,1.7,8.9,4.4,8.9,11C732.6,254.4,727.6,258.7,718,258.7z"/>
		<path d="M751.1,258.7c-6.9,0-9.9-3.5-9.9-10.3l0.1-19.2h-7.7v-7.5h7.7l0.1-9l9.3-1.1l-0.1,10.1h8.9v7.5h-8.9l-0.1,17.6
			c0,3.2,1.2,4.5,4,4.5c1.7,0,3.8-0.6,4.6-0.9l0.4,6.8C758.3,257.7,754.9,258.7,751.1,258.7z"/>
		<path d="M763.6,257.7v-48h9.5V250l17.9,0.1v7.7h-27.4V257.7z"/>
		<path d="M816.7,257.7l-0.5-4.5h-0.1c-1.9,2.9-4.8,5.5-10.4,5.5c-9.9,0-13.5-7.7-13.5-18.9c0-10.8,3.9-19.1,14-19.1
			c5.7,0,8.5,2.7,9.9,5.5h0.1l0.4-4.5h8.4v36H816.7z M815.8,237c0-5.2-3.2-8.7-6.8-8.7c-5.1,0-7.1,4.1-7.1,9.3v4.5
			c0,5.8,2.6,9.1,6.8,9.1c4.3,0,7.1-3.9,7.1-8.4V237z"/>
		<path d="M854.1,257.7v-22c0-3.5-1-6.8-6-6.8c-4,0-7.4,3.2-7.4,6.6v22.2h-9.4v-36h8.9v4.4h0.1c1.3-1.7,5.3-5.4,11.4-5.4
			c7.1,0,11.7,3.6,11.7,12.1v24.9H854.1z"/>
		<path d="M899.2,242.2h-22v0.8c0,4.2,2.2,8.4,8.7,8.4c4.1,0,7.9-1.1,11.1-2.6l0.4,7.3c-2.7,1.6-7.2,2.7-12.5,2.7
			c-13.5,0-16.9-7.3-16.9-18.9c0-11.4,4.5-19.2,16.8-19.2c9.9,0,14.5,5.5,14.5,17.3C899.4,238.7,899.3,241.1,899.2,242.2z
			 M884.5,227.1c-5.2,0-7.3,4.5-7.3,8.9h13.5C890.6,231.7,889.9,227.1,884.5,227.1z"/>
	</g>
	<g class="st1">
		<path d="M-44.9,276.6v13.6H-29v7.8h-15.9v18.7h-9.5v-48h26.7v7.8L-44.9,276.6z"/>
		<path d="M-2.6,316.7l-0.5-4.7h-0.1c-0.9,1.9-4.5,5.7-11,5.7c-7.4,0-10.9-4.5-10.9-10.7c0-7.9,6.6-12,16.1-12
			c2.3,0,4.5,0.2,5.2,0.3v-3.1c0-3.8-2.7-5.2-6.9-5.2c-4,0-7.6,1.1-11.2,2.7l-0.4-7.3c3.7-1.7,8.2-2.7,13.2-2.7
			c8.4,0,14.7,2.2,14.7,12.5v24.5H-2.6z M-3.8,301.1c-0.5-0.1-1.9-0.2-3.8-0.2c-3.6,0-8.1,1.3-8.1,5.5c0,3,1.9,4.5,4.8,4.5
			c3.7,0,7.2-3.5,7.2-8.1L-3.8,301.1L-3.8,301.1z"/>
		<path d="M23,317.8c-4.2,0-7.9-0.9-11.6-2.5l0.4-7.3c3.2,1.8,6.7,3,10.3,3c4.8,0,6-1.9,6-4c0-2.4-1.6-3.5-5.8-4.9l-0.9-0.3
			c-5.9-1.9-10-4.9-10-11.4c0-6.8,5.4-10.5,14-10.5c4,0,7.8,1.1,10.2,2.3l-0.4,7.3c-3.4-1.8-7.1-2.7-9.2-2.7c-3.7,0-5.1,1.3-5.1,3.2
			c0,2.1,1.6,3.2,5.3,4.5l2.4,0.9c4.9,1.7,8.9,4.4,8.9,11C37.6,313.4,32.6,317.8,23,317.8z"/>
		<path d="M56.1,317.8c-6.9,0-9.9-3.5-9.9-10.3l0.1-19.2h-7.7v-7.5h7.7l0.1-9l9.3-1.1l-0.1,10.1h8.9v7.5h-8.9l-0.1,17.6
			c0,3.2,1.2,4.5,4,4.5c1.7,0,3.8-0.6,4.6-0.9l0.4,6.8C63.3,316.7,59.9,317.8,56.1,317.8z"/>
		<path d="M70.6,316.7v-48h9.5V309l17.9,0.1v7.7H70.6V316.7z"/>
		<path d="M123.4,316.7l-0.5-4.7h-0.1c-0.9,1.9-4.5,5.7-11,5.7c-7.4,0-10.9-4.5-10.9-10.7c0-7.9,6.6-12,16.1-12
			c2.3,0,4.5,0.2,5.2,0.3v-3.1c0-3.8-2.7-5.2-6.9-5.2c-4,0-7.6,1.1-11.2,2.7l-0.4-7.3c3.7-1.7,8.2-2.7,13.2-2.7
			c8.4,0,14.7,2.2,14.7,12.5v24.5H123.4z M122.2,301.1c-0.5-0.1-1.9-0.2-3.8-0.2c-3.6,0-8.1,1.3-8.1,5.5c0,3,1.9,4.5,4.8,4.5
			c3.7,0,7.2-3.5,7.2-8.1L122.2,301.1L122.2,301.1z"/>
		<path d="M162.1,316.7v-22c0-3.5-1-6.8-6-6.8c-4,0-7.4,3.2-7.4,6.6v22.2h-9.4v-36h8.9v4.4h0.1c1.3-1.7,5.3-5.4,11.4-5.4
			c7.1,0,11.7,3.6,11.7,12.1v24.9H162.1z"/>
		<path d="M208.2,301.2h-22v0.8c0,4.2,2.2,8.4,8.7,8.4c4.1,0,7.9-1.1,11.1-2.6l0.4,7.3c-2.7,1.6-7.2,2.7-12.5,2.7
			c-13.5,0-16.9-7.3-16.9-18.9c0-11.4,4.5-19.2,16.8-19.2c9.9,0,14.5,5.5,14.5,17.3C208.4,297.7,208.3,300.1,208.2,301.2z
			 M193.5,286.1c-5.2,0-7.3,4.5-7.3,8.9h13.5C199.6,290.8,198.9,286.1,193.5,286.1z"/>
	</g>
	<g class="st1">
		<path d="M-44.9,180.6v13.6H-29v7.8h-15.9v18.7h-9.5v-48h26.7v7.8L-44.9,180.6z"/>
		<path d="M-3.6,220.7l-0.5-4.7h-0.1c-0.9,1.9-4.5,5.7-11,5.7c-7.4,0-10.9-4.5-10.9-10.7c0-7.9,6.6-12,16.1-12
			c2.3,0,4.5,0.2,5.2,0.3v-3.1c0-3.8-2.7-5.2-6.9-5.2c-4,0-7.6,1.1-11.2,2.7l-0.4-7.3c3.7-1.7,8.2-2.7,13.2-2.7
			c8.4,0,14.7,2.2,14.7,12.5v24.5H-3.6z M-4.8,205.1c-0.5-0.1-1.9-0.2-3.8-0.2c-3.6,0-8.1,1.3-8.1,5.5c0,3,1.9,4.5,4.8,4.5
			c3.7,0,7.2-3.5,7.2-8.1L-4.8,205.1L-4.8,205.1z"/>
		<path d="M22,221.8c-4.2,0-7.9-0.9-11.6-2.5l0.4-7.3c3.2,1.8,6.7,3,10.3,3c4.8,0,6-1.9,6-4c0-2.4-1.6-3.5-5.8-4.9l-0.9-0.3
			c-5.9-1.9-10-4.9-10-11.4c0-6.8,5.4-10.5,14-10.5c4,0,7.8,1.1,10.2,2.3l-0.4,7.3c-3.4-1.8-7.1-2.7-9.2-2.7c-3.7,0-5.1,1.3-5.1,3.2
			c0,2.1,1.6,3.2,5.3,4.5l2.4,0.9c4.9,1.7,8.9,4.4,8.9,11C36.6,217.4,31.6,221.8,22,221.8z"/>
		<path d="M56.1,221.8c-6.9,0-9.9-3.5-9.9-10.3l0.1-19.2h-7.7v-7.5h7.7l0.1-9l9.3-1.1l-0.1,10.1h8.9v7.5h-8.9l-0.1,17.6
			c0,3.2,1.2,4.5,4,4.5c1.7,0,3.8-0.6,4.6-0.9l0.4,6.8C63.3,220.7,59.9,221.8,56.1,221.8z"/>
		<path d="M70.6,220.7v-48h9.5V213l17.9,0.1v7.7H70.6V220.7z"/>
		<path d="M124.4,220.7l-0.5-4.7h-0.1c-0.9,1.9-4.5,5.7-11,5.7c-7.4,0-10.9-4.5-10.9-10.7c0-7.9,6.6-12,16.1-12
			c2.3,0,4.5,0.2,5.2,0.3v-3.1c0-3.8-2.7-5.2-6.9-5.2c-4,0-7.6,1.1-11.2,2.7l-0.4-7.3c3.7-1.7,8.2-2.7,13.2-2.7
			c8.4,0,14.7,2.2,14.7,12.5v24.5H124.4z M123.2,205.1c-0.5-0.1-1.9-0.2-3.8-0.2c-3.6,0-8.1,1.3-8.1,5.5c0,3,1.9,4.5,4.8,4.5
			c3.7,0,7.2-3.5,7.2-8.1v-1.7H123.2z"/>
		<path d="M163.1,220.7v-22c0-3.5-1-6.8-6-6.8c-4,0-7.4,3.2-7.4,6.6v22.2h-9.4v-36h8.9v4.4h0.1c1.3-1.7,5.3-5.4,11.4-5.4
			c7.1,0,11.7,3.6,11.7,12.1v24.9H163.1z"/>
		<path d="M209.2,205.2h-22v0.8c0,4.2,2.2,8.4,8.7,8.4c4.1,0,7.9-1.1,11.1-2.6l0.4,7.3c-2.7,1.6-7.2,2.7-12.5,2.7
			c-13.5,0-16.9-7.3-16.9-18.9c0-11.4,4.5-19.2,16.8-19.2c9.9,0,14.5,5.5,14.5,17.3C209.4,201.7,209.3,204.1,209.2,205.2z
			 M194.5,190.1c-5.2,0-7.3,4.5-7.3,8.9h13.5C200.6,194.8,199.9,190.1,194.5,190.1z"/>
	</g>
</g>
<g id="Layer_5" class="st0">
	<g class="st1">
		<polygon points="193.9,262.3 103.5,262.3 121.2,242.7 197.1,242.7 		"/>
		<polygon points="188.4,301.7 68,301.7 85.5,281.6 191.5,281.6 		"/>
		<polygon points="182.8,341.3 32.7,341.3 50.2,322.2 185.8,322.1 		"/>
	</g>
	<g class="st1">
		<polygon points="222.1,-38 140.5,-38 158.2,-57.6 222.1,-57.6 		"/>
		<polygon points="222.1,1.4 105,1.4 122.5,-18.7 222.1,-18.7 		"/>
		<polygon points="222.1,40.9 69.7,40.9 87.2,21.8 222.1,21.8 		"/>
	</g>
	<g class="st1">
		<g>
			<path d="M275.5,261.9l-34.4,0.1l-3.2,23.6h31.8l-2.8,19.2H235l-5,36.3h-23.9l13.9-98.4h58.2L275.5,261.9z"/>
			<path d="M342.9,341.3h-20.5l0.7-11.1H323c-2.5,4.3-10.9,13.3-23.8,13.3c-15.1,0-22.7-10-22.7-28.2c0-29.1,12.9-50.1,35.2-50.1
				c10.5,0,16.5,5,18.2,7.5h0.1l0.9-5.3h22.3L342.9,341.3z M315.8,283.6c-8,0-12.9,7.7-14.2,16.8l-1.3,9.7c-0.1,1.3-0.3,2.8-0.3,4
				c0,6.5,3,10.3,8.3,10.3c7.7,0,14.8-10.5,16.2-20.5l2.2-15.8C325.4,286.7,321.5,283.6,315.8,283.6z"/>
			<path d="M417.8,288.2c-3.4-2.1-12.4-6.4-20.4-6.4c-3.1,0-8.4,0.9-8.4,5.2c0,3.4,2.8,5,8,7.1l2.1,0.9c8.9,3.5,18.6,8.6,18.6,21.4
				c0,19.2-15.8,27-34.3,27c-12.4,0-21.9-3.5-25-5.2l3.5-17.9c3.1,2.1,11.4,6.2,20.5,6.2c4.9,0,11.1-1.5,11.1-6.5
				c0-3.4-3.8-5.3-9.3-7.5l-1.9-0.7c-9-3.5-17.4-9.9-17.4-21.4c0-17.7,14.6-25.3,31.5-25.3c12.7,0,21.9,3.5,25,5.2L417.8,288.2z"/>
			<path d="M483.1,286h-17.3l-4.4,31.5c-0.1,1-0.1,1.5-0.1,1.9c0,4.7,3.1,5.6,7.4,5.6c3.4,0,8.3-1.6,10.2-2.5l-1.3,17.4
				c-2.7,1.2-10.3,3.7-19.6,3.7c-13.4,0-20.4-6.2-20.4-18.9c0-1.9,0.1-3.8,0.4-5.9l4.6-32.8h-14.8l2.5-18.6h14.9l2.7-18.2l23.6-2.5
				l-3,20.7h17.3L483.1,286z"/>
			<path d="M549.4,341.3h-59.2l13.9-98.5H528l-11.2,79.6l35.3,0.1L549.4,341.3z"/>
			<path d="M628.9,341.3h-20.5l0.7-11.1H609c-2.5,4.3-10.9,13.3-23.8,13.3c-15.1,0-22.7-10-22.7-28.2c0-29.1,12.9-50.1,35.2-50.1
				c10.5,0,16.5,5,18.2,7.5h0.1l0.9-5.3h22.3L628.9,341.3z M601.8,283.6c-8,0-12.9,7.7-14.2,16.8l-1.3,9.7c-0.1,1.3-0.3,2.8-0.3,4
				c0,6.5,3,10.3,8.3,10.3c7.7,0,14.8-10.5,16.2-20.5l2.2-15.8C611.4,286.7,607.5,283.6,601.8,283.6z"/>
			<path d="M717.7,341.3h-23.5l6.5-45.5c0.1-1,0.1-1.6,0.1-2.2c0-3.7-1.2-8.7-7.2-8.7c-9.3,0-16.5,12.4-17.9,21.7l-4.9,34.7h-23.5
				l10.5-73.9h21.3l-1.6,11.7h0.1c3-4.6,12.3-13.9,26.6-13.9c13.6,0,20.7,8.3,20.7,21.4c0,1.8-0.1,3.7-0.4,5.6L717.7,341.3z"/>
			<path d="M758.4,313.6v1.3c0,5.2,4.3,10.3,13.4,10.3c11.1,0,21.4-5.9,25.1-8.9l-1.5,19.2c-3.5,2.5-14.2,7.8-28.2,7.8
				c-19.4,0-31.6-9.6-31.6-29.7c0-34.1,19.5-48.6,41.7-48.6c18.8,0,28.2,9.3,28.2,22.9C805.5,307.3,778.2,313.6,758.4,313.6z
				 M776,280.4c-7.7,0-14.9,6.6-16.4,18.2c13.9,0,24.4-4,24.4-10.8C784,283.1,781.3,280.4,776,280.4z"/>
		</g>
	</g>
	<g class="st1">
		<path d="M260-38.2v23.6h31.7V4.6H260v36.3h-24v-98.5h58.2v19.2L260-38.2z"/>
		<path d="M350.8,40.9l-1.2-8.4c-3.7,5.6-9.9,10.6-20.8,10.6C308.6,43.1,301,27.9,301,4c0-22.9,8.3-39.1,28.8-39.1
			c11.4,0,17,5,19.6,10.5h0.1l1-8.3h21.1v73.8C371.6,40.9,350.8,40.9,350.8,40.9z M348.4-1.2c0-9.3-5-15.4-11.5-15.4
			c-8.6,0-12,6.8-12,15.9v9.3c0,10.5,4.3,15.8,11.4,15.8c7.8,0,12.1-6.6,12.1-15.2V-1.2z"/>
		<path d="M408.9,43.1c-9.2,0-17.4-1.6-25.5-5.2l1.2-17.7c6.5,3.5,14.3,6.1,21.6,6.1c8.7,0,10.3-3.1,10.3-6.2c0-3.4-2.2-5-8.6-7.2
			l-5-1.6c-10.3-3.5-19.3-9.4-19.3-23.8c0-15.7,12.8-22.6,30.6-22.6c8.1,0,16.8,2.2,22,4.6l-1,17.7c-6.5-3.4-14.6-5.6-19.3-5.6
			c-6.2,0-8.4,2.1-8.4,5c0,3.1,2.5,5,9.2,7.2l5,1.6c9.9,3.4,18.6,9,18.6,23.3C440.1,34.3,429.1,43.1,408.9,43.1z"/>
		<path d="M480.1,43.3c-14.9,0-21.7-7.7-21.7-22.3l0.1-35.3h-14.9v-18.6h14.9l0.1-18.2l23.3-2.5l-0.1,20.7h17.3v18.6h-17.3
			l-0.1,30.4c0,6.6,2.4,8.6,7.7,8.6c3.2,0,7.2-1,8.7-1.5l1,16.7C496.5,40.9,488.8,43.3,480.1,43.3z"/>
		<path d="M510.8,40.9v-98.5h23.9V22l35.3,0.1v18.8H510.8z"/>
		<path d="M625.6,40.9l-1.2-8.4c-3.7,5.6-9.9,10.6-20.8,10.6c-20.2,0-27.8-15.2-27.8-39.1c0-22.9,8.3-39.1,28.8-39.1
			c11.4,0,17,5,19.6,10.5h0.1l1-8.3h21.1v73.8C646.4,40.9,625.6,40.9,625.6,40.9z M623.2-1.2c0-9.3-5-15.4-11.5-15.4
			c-8.6,0-12,6.8-12,15.9v9.3c0,10.5,4.3,15.8,11.4,15.8c7.8,0,12.1-6.6,12.1-15.2V-1.2z"/>
		<path d="M708.8,40.9v-44c0-6.3-2.1-11.7-10.6-11.7c-6.9,0-12.7,5.3-12.7,11.2v44.4H662V-33h22.3v8.3h0.3
			c2.7-3.4,10.9-10.5,23.5-10.5c13.3,0,24.2,6.5,24.2,24.8v51.2L708.8,40.9L708.8,40.9z"/>
		<path d="M810.4,10.2h-44v0.9c0,6.8,3.8,13.9,16.2,13.9c8.4,0,16.4-2.2,23-5.2l1,17.7c-5.6,3.1-14.9,5.6-26.9,5.6
			c-28.9,0-36.3-14.5-36.3-38.8c0-23.6,9.3-39.4,36-39.4c23.8,0,31.2,14,31.2,36.6C810.7,3.1,810.6,8,810.4,10.2z M778.5-19.9
			c-8.9,0-12.5,7.8-12.5,15.4h23.2C789.1-11.4,787.8-19.9,778.5-19.9z"/>
	</g>
</g>
<g>
	<polygon class="st6" points="430.2,130.9 397.7,130.9 402.6,125.5 431.8,125.5 	"/>
	<polygon class="st6" points="428.3,137.6 391.6,137.6 395.9,132.9 429.7,132.9 	"/>
	<polygon class="st6" points="426.3,144.3 385.6,144.3 389.2,140.3 427.5,140.3 	"/>
	<polygon class="st6" points="424.4,150.7 379.6,150.7 382.4,147.7 425.2,147.7 	"/>
	<polygon class="st6" points="373.8,157.1 375.7,154.9 423.1,154.9 422.4,157.1 	"/>
	<g>
		<path d="M464.4,152.4c0.9,0.5,3.3,1.6,5,1.6c1.8,0,3.1-1.1,3.2-2.4c0.1-1.2-0.4-2-2.3-3c-2.1-1.2-3.5-2.8-3.4-5.1
			c0.3-3.7,3.8-6.4,8.4-6.4c2,0,3.8,0.5,4.6,1l-1.1,3.6c-0.7-0.4-2.5-1.2-4.1-1.2c-1.7,0-3,0.9-3.1,2.2c-0.1,1.1,0.7,1.8,2.3,2.7
			c2,1.2,3.7,2.7,3.5,5.2c-0.4,4.3-4.1,6.7-8.8,6.6c-2.2,0-4.3-0.7-5.2-1.4L464.4,152.4z"/>
		<path d="M493.6,130.8l-1.9,6.9h4.9l-1.4,4.9h-5l-1.8,5.7c-0.3,1-0.5,2.2-0.5,3.1c0,1.3,0.5,1.8,1.9,1.8c0.6,0,1.7-0.1,2.2-0.2
			l-1.3,4.1c-0.8,0.3-2.1,0.4-3.4,0.4c-3.5,0-4.9-1.9-4.7-4.4c0.1-1.2,0.3-2.4,0.8-3.9l1.9-6.6h-3l1.3-4.9h3.1l2-6.9L493.6,130.8
			L493.6,130.8L493.6,130.8z"/>
		<path d="M543.8,157h-5.1c0.4-1.2,0.2-0.5,0.6-1.8l1.9-2.5c-2.2,3.5-4.9,4.8-7.3,4.8c-3.4,0-5.5-2.7-5.1-6.6
			c0.6-6.6,5.8-13.6,14.8-13.6c2.1,0,4.3,0.4,5.8,0.9L543.8,157z M543.6,140.9c-0.5-0.1-0.6-0.1-1.5-0.1c-4.2,0-8,4.8-8.4,9.2
			c-0.2,2,0.4,3.7,2.4,3.7c2.2,0,4.5-2.7,5.9-7.6L543.6,140.9z"/>
		<path d="M549.3,157l4-13.4c0.7-2.3,1.3-4.3,1.8-6h4.9l-0.9,3l0-0.3c2.2-2.4,3.6-3.1,6.3-3.1c2.8,0,4.8,1.7,4.5,5.3
			c-0.1,0.9-0.3,2.2-0.6,3.2L566,157h-4.7l3.3-10.9c0.2-0.7,0.4-1.6,0.4-2.3c0.1-1.6-0.3-2.8-2.2-2.8c-2.1,0-4.7,2.6-5.9,7.1
			l-2.7,8.9L549.3,157z"/>
		<path d="M586.5,156.2c-2,1-4.6,1.4-6.9,1.4c-5.3,0-7.6-3.3-7.2-8c0.5-5.8,5.3-12.2,12-12.2c3.8,0,6,2.2,5.7,5.4
			c-0.4,5-5.8,6.6-13.2,6.4c-0.1,0.7-0.1,2,0.3,2.7c0.6,1.3,1.9,2,3.8,2c2.2,0,5.2-1.1,6.7-1.8L586.5,156.2z M583.5,140.9
			c-2.9,0-5,2.6-5.8,4.9c4.8,0,7.9-0.6,8.1-2.9C585.9,141.6,585,140.9,583.5,140.9z"/>
	</g>
	<path d="M449.3,125.5l-1.5,5.1h-12.3l-2,6.8h12.3l-1.6,5.1h-12.2l-4.3,14.6h-5.3l9.4-31.7L449.3,125.5L449.3,125.5z"/>
	<path d="M524.9,157.2h-18l9.4-31.7h5.4l-8,26.6h12.6L524.9,157.2z"/>
	<path d="M458.9,157h-5.1c0.4-1.2,0.2-0.5,0.6-1.8l1.9-2.5c-2.2,3.5-4.9,4.8-7.3,4.8c-3.4,0-5.5-2.7-5.1-6.6
		c0.6-6.6,5.8-13.6,14.8-13.6c2.1,0,4.3,0.4,5.8,0.9L458.9,157z M458.7,140.9c-0.5-0.1-0.6-0.1-1.5-0.1c-4.2,0-8,4.8-8.4,9.2
		c-0.2,2,0.4,3.7,2.4,3.7c2.2,0,4.5-2.7,5.9-7.6L458.7,140.9z"/>
	<g>
		<path d="M609.1,143.6h9.1v1.9h-11.1v-19.9h2V143.6z"/>
		<path d="M621.2,125.7h2v19.9h-2V125.7z"/>
		<path d="M633.4,145.5l-7.3-19.9h2.1l6.2,17.2l6.2-17.2h2.1l-7.3,19.9H633.4z"/>
		<path d="M647.6,143.6h9.7v1.9h-11.6v-19.9h11.5v1.9h-9.5v7h8.8v1.9h-8.8V143.6z"/>
	</g>
</g>
</svg>
