<?xml version="1.0" encoding="utf-8"?>
<!-- Generator: Adobe Illustrator 19.0.0, SVG Export Plug-In . SVG Version: 6.00 Build 0)  -->
<svg version="1.1" id="Layer_1" xmlns="http://www.w3.org/2000/svg" xmlns:xlink="http://www.w3.org/1999/xlink" x="0px" y="0px"
	 viewBox="0 0 283.5 45.6" style="enable-background:new 0 0 283.5 45.6;" xml:space="preserve">
<style type="text/css">
	.st0{fill:#8DA5B5;}
	.st1{clip-path:url(#XMLID_54_);fill:#AF1F28;}
	.st2{clip-path:url(#XMLID_54_);fill:none;stroke:#AF1F28;stroke-width:0.2927;}
	.st3{clip-path:url(#XMLID_54_);fill:none;stroke:#AF1F28;stroke-width:0.3241;}
</style>
<g>
	<polygon id="XMLID_26_" class="st0" points="30.9,7.3 37.6,0 81.8,0 75.6,7.3 	"/>
	<polygon id="XMLID_25_" class="st0" points="23.2,17.2 28.6,10.8 72.9,10.8 71.8,17.2 	"/>
	<polygon id="XMLID_24_" class="st0" points="15.4,26.6 19.8,21.3 72.7,21.3 71.7,26.6 	"/>
	<polygon id="XMLID_23_" class="st0" points="7.7,36 11,32 68.9,32 68.2,36 	"/>
	<polygon id="XMLID_22_" class="st0" points="0,45.3 2.2,42.6 67.7,42.6 67.2,45.3 	"/>
	<g>
		<defs>
			<rect id="XMLID_1_" width="283.5" height="45.9"/>
		</defs>
		<clipPath id="XMLID_54_">
			<use xlink:href="#XMLID_1_"  style="overflow:visible;"/>
		</clipPath>
		<path id="XMLID_21_" class="st1" d="M118.2,38.4c1.2,0.8,4.2,2.2,6.5,2.2c2.4,0,4-1.5,4.1-3.4c0.1-1.7-0.6-2.8-3-4.3
			c-2.8-1.7-4.6-4-4.4-7.2c0.4-5.3,5-9.1,10.9-9.1c2.6,0,5,0.7,6,1.5l-1.4,5.1c-0.9-0.6-3.2-1.6-5.3-1.6c-2.3,0-3.9,1.3-4.1,3.2
			c-0.1,1.6,0.9,2.7,3,3.9c2.7,1.6,4.9,3.9,4.6,7.4c-0.5,6.1-5.4,9.5-11.5,9.5c-2.9-0.1-5.6-1-6.9-2L118.2,38.4z"/>
		<path id="XMLID_20_" class="st2" d="M118.2,38.4c1.2,0.8,4.2,2.2,6.5,2.2c2.4,0,4-1.5,4.1-3.4c0.1-1.7-0.6-2.8-3-4.3
			c-2.8-1.7-4.6-4-4.4-7.2c0.4-5.3,5-9.1,10.9-9.1c2.6,0,5,0.7,6,1.5l-1.4,5.1c-0.9-0.6-3.2-1.6-5.3-1.6c-2.3,0-3.9,1.3-4.1,3.2
			c-0.1,1.6,0.9,2.7,3,3.9c2.7,1.6,4.9,3.9,4.6,7.4c-0.5,6.1-5.4,9.5-11.5,9.5c-2.9-0.1-5.6-1-6.9-2L118.2,38.4z"/>
		<path id="XMLID_19_" class="st1" d="M156.4,7.5l-2.5,9.9h6.3l-1.8,6.9h-6.4l-2.3,8.2c-0.4,1.4-0.7,3.2-0.6,4.4
			c0.1,1.8,0.7,2.5,2.5,2.5c0.8,0,2.1-0.2,2.8-0.3l-1.6,5.9c-1,0.4-2.8,0.6-4.4,0.6c-4.6,0-6.4-2.8-6.1-6.3c0.1-1.7,0.4-3.4,1-5.7
			l2.5-9.4h-3.9l1.7-6.9h4l2.7-9.9H156.4z"/>
		<path id="XMLID_18_" class="st3" d="M156.4,7.5l-2.5,9.9h6.3l-1.8,6.9h-6.4l-2.3,8.2c-0.4,1.4-0.7,3.2-0.6,4.4
			c0.1,1.8,0.7,2.5,2.5,2.5c0.8,0,2.1-0.2,2.8-0.3l-1.6,5.9c-1,0.4-2.8,0.6-4.4,0.6c-4.6,0-6.4-2.8-6.1-6.3c0.1-1.7,0.4-3.4,1-5.7
			l2.5-9.4h-3.9l1.7-6.9h4l2.7-9.9H156.4z"/>
		<path class="st1" d="M221.9,45h-6.6c0.6-1.7,0.2-0.7,0.8-2.7l2.5-3.6c-2.9,5-6.4,6.8-9.6,6.8c-4.5,0-7.1-3.9-6.7-9.4
			c0.8-9.4,7.6-19.4,19.3-19.4c2.7,0,5.6,0.6,7.6,1.2 M221.6,22c-0.6-0.2-0.8-0.1-1.9-0.1c-5.5,0-10.4,6.9-10.9,13.1
			c-0.2,2.9,0.6,5.3,3.2,5.3c2.8,0,5.9-3.8,7.7-10.9L221.6,22z"/>
		<path class="st2" d="M221.9,45h-6.6c0.6-1.7,0.2-0.7,0.8-2.7l2.5-3.6c-2.9,5-6.4,6.8-9.6,6.8c-4.5,0-7.1-3.9-6.7-9.4
			c0.8-9.4,7.6-19.4,19.3-19.4c2.7,0,5.6,0.6,7.6,1.2 M221.6,22c-0.6-0.2-0.8-0.1-1.9-0.1c-5.5,0-10.4,6.9-10.9,13.1
			c-0.2,2.9,0.6,5.3,3.2,5.3c2.8,0,5.9-3.8,7.7-10.9L221.6,22z"/>
		<path id="XMLID_13_" class="st1" d="M229.1,45l5.2-19.1c0.9-3.3,1.7-6.1,2.3-8.6l6.3,0l-1.2,4.3l0.1-0.4c2.9-3.5,4.7-4.5,8.2-4.5
			c3.6,0,6.2,2.4,5.8,7.6c-0.1,1.2-0.5,3.2-0.8,4.5L250.9,45h-6.1l4.2-15.6c0.2-1,0.5-2.2,0.6-3.3c0.2-2.3-0.5-4-2.8-4
			c-2.7,0-6.2,3.7-7.8,10.1L235.3,45H229.1z"/>
		<path id="XMLID_12_" class="st2" d="M229.1,45l5.2-19.1c0.9-3.3,1.7-6.1,2.3-8.6l6.3,0l-1.2,4.3l0.1-0.4c2.9-3.5,4.7-4.5,8.2-4.5
			c3.6,0,6.2,2.4,5.8,7.6c-0.1,1.2-0.5,3.2-0.8,4.5L250.9,45h-6.1l4.2-15.6c0.2-1,0.5-2.2,0.6-3.3c0.2-2.3-0.5-4-2.8-4
			c-2.7,0-6.2,3.7-7.8,10.1L235.3,45H229.1z"/>
		<path class="st1" d="M277.6,43.8c-2.6,1.4-6,2-9,2c-7,0-10-4.7-9.4-11.4c0.7-8.3,7-17.4,15.7-17.4c5,0,7.9,3.1,7.5,7.8
			c-0.6,7.1-7.5,9.4-17.2,9.1c-0.2,1-0.1,2.8,0.4,3.9c0.8,1.9,2.6,2.8,4.9,2.8c2.8,0,6.8-1.6,8.7-2.6L277.6,43.8z M273.7,21.9
			c-3.8,0-6.6,3.7-7.5,7c6.2,0.1,10.3-0.8,10.5-4.2C276.8,23,275.6,21.9,273.7,21.9"/>
		<path class="st2" d="M277.6,43.8c-2.6,1.4-6,2-9,2c-7,0-10-4.7-9.4-11.4c0.7-8.3,7-17.4,15.7-17.4c5,0,7.9,3.1,7.5,7.8
			c-0.6,7.1-7.5,9.4-17.2,9.1c-0.2,1-0.1,2.8,0.4,3.9c0.8,1.9,2.6,2.8,4.9,2.8c2.8,0,6.8-1.6,8.7-2.6L277.6,43.8z M273.7,21.9
			c-3.8,0-6.6,3.7-7.5,7c6.2,0.1,10.3-0.8,10.5-4.2C276.8,23,275.6,21.9,273.7,21.9z"/>
		<polygon id="XMLID_7_" class="st1" points="98.5,0 96.5,7.3 80.5,7.3 77.9,17.1 93.9,17.1 91.9,24.5 75.9,24.5 70.3,45.3 
			63.4,45.3 75.6,0 		"/>
		<polygon id="XMLID_6_" class="st1" points="197.2,45.3 173.8,45.3 186,0 193.1,0 182.8,38 199.2,38 		"/>
		<path class="st1" d="M111.1,45h-6.6c0.6-1.7,0.2-0.7,0.8-2.7l2.5-3.6c-2.9,5-6.4,6.8-9.6,6.8c-4.5,0-7.1-3.9-6.7-9.4
			c0.7-9.4,7.6-19.4,19.3-19.4c2.7,0,5.6,0.6,7.6,1.2 M110.8,22c-0.6-0.2-0.8-0.1-1.9-0.1c-5.5,0-10.4,6.9-10.9,13.1
			c-0.2,2.9,0.6,5.3,3.2,5.3c2.8,0,5.9-3.8,7.7-10.9L110.8,22z"/>
		<path class="st2" d="M111.1,45h-6.6c0.6-1.7,0.2-0.7,0.8-2.7l2.5-3.6c-2.9,5-6.4,6.8-9.6,6.8c-4.5,0-7.1-3.9-6.7-9.4
			c0.7-9.4,7.6-19.4,19.3-19.4c2.7,0,5.6,0.6,7.6,1.2 M110.8,22c-0.6-0.2-0.8-0.1-1.9-0.1c-5.5,0-10.4,6.9-10.9,13.1
			c-0.2,2.9,0.6,5.3,3.2,5.3c2.8,0,5.9-3.8,7.7-10.9L110.8,22z"/>
	</g>
</g>
</svg>
