<?xml version="1.0" encoding="utf-8"?>
<!-- Generator: Adobe Illustrator 19.0.0, SVG Export Plug-In . SVG Version: 6.00 Build 0)  -->
<svg version="1.1" id="Layer_1" xmlns="http://www.w3.org/2000/svg" xmlns:xlink="http://www.w3.org/1999/xlink" x="0px" y="0px"
	 viewBox="0 118.9 283.5 45.6" style="enable-background:new 0 118.9 283.5 45.6;" xml:space="preserve">
<style type="text/css">
	.st0{fill:#FFFFFF;}
	.st1{clip-path:url(#SVGID_2_);fill:#FFFFFF;}
	.st2{fill:none;}
	.st3{clip-path:url(#SVGID_4_);fill:#FFFFFF;}
	.st4{clip-path:url(#SVGID_6_);fill:#FFFFFF;}
	.st5{clip-path:url(#SVGID_8_);fill:#FFFFFF;}
	.st6{clip-path:url(#SVGID_10_);fill:#FFFFFF;}
	.st7{clip-path:url(#SVGID_12_);fill:#FFFFFF;}
</style>
<g>
	<polygon id="XMLID_26_" class="st0" points="31,126 37.7,118.7 81.9,118.7 75.7,126 	"/>
	<polygon id="XMLID_25_" class="st0" points="23.3,135.9 28.7,129.5 73,129.5 71.9,135.9 	"/>
	<polygon id="XMLID_24_" class="st0" points="15.5,145.3 19.9,140 72.8,140 71.8,145.3 	"/>
	<polygon id="XMLID_23_" class="st0" points="7.8,154.7 11.1,150.7 69,150.7 68.3,154.7 	"/>
	<polygon id="XMLID_22_" class="st0" points="0.1,164 2.3,161.3 67.8,161.3 67.3,164 	"/>
	<g>
		<g>
			<g>
				<defs>
					<rect id="SVGID_1_" x="0.1" y="118.7" width="283.5" height="45.9"/>
				</defs>
				<clipPath id="SVGID_2_">
					<use xlink:href="#SVGID_1_"  style="overflow:visible;"/>
				</clipPath>
				<path id="XMLID_21_" class="st1" d="M118.3,157.1c1.2,0.8,4.2,2.2,6.5,2.2c2.4,0,4-1.5,4.1-3.4c0.1-1.7-0.6-2.8-3-4.3
					c-2.8-1.7-4.6-4-4.4-7.2c0.4-5.3,5-9.1,10.9-9.1c2.6,0,5,0.7,6,1.5l-1.4,5.1c-0.9-0.6-3.2-1.6-5.3-1.6c-2.3,0-3.9,1.3-4.1,3.2
					c-0.1,1.6,0.9,2.7,3,3.9c2.7,1.6,4.9,3.9,4.6,7.4c-0.5,6.1-5.4,9.5-11.5,9.5c-2.9-0.1-5.6-1-6.9-2L118.3,157.1z"/>
			</g>
		</g>
		<rect x="0.1" y="118.7" class="st2" width="283.5" height="45.9"/>
		<path id="XMLID_20_" class="st0" d="M118.3,157.1c1.2,0.8,4.2,2.2,6.5,2.2c2.4,0,4-1.5,4.1-3.4c0.1-1.7-0.6-2.8-3-4.3
			c-2.8-1.7-4.6-4-4.4-7.2c0.4-5.3,5-9.1,10.9-9.1c2.6,0,5,0.7,6,1.5l-1.4,5.1c-0.9-0.6-3.2-1.6-5.3-1.6c-2.3,0-3.9,1.3-4.1,3.2
			c-0.1,1.6,0.9,2.7,3,3.9c2.7,1.6,4.9,3.9,4.6,7.4c-0.5,6.1-5.4,9.5-11.5,9.5c-2.9-0.1-5.6-1-6.9-2L118.3,157.1z"/>
		<g>
			<g>
				<defs>
					<rect id="SVGID_3_" x="0.1" y="118.7" width="283.5" height="45.9"/>
				</defs>
				<clipPath id="SVGID_4_">
					<use xlink:href="#SVGID_3_"  style="overflow:visible;"/>
				</clipPath>
				<path id="XMLID_19_" class="st3" d="M156.5,126.2l-2.5,9.9h6.3l-1.8,6.9h-6.4l-2.3,8.2c-0.4,1.4-0.7,3.2-0.6,4.4
					c0.1,1.8,0.7,2.5,2.5,2.5c0.8,0,2.1-0.2,2.8-0.3l-1.6,5.9c-1,0.4-2.8,0.6-4.4,0.6c-4.6,0-6.4-2.8-6.1-6.3c0.1-1.7,0.4-3.4,1-5.7
					l2.5-9.4H142l1.7-6.9h4l2.7-9.9L156.5,126.2L156.5,126.2z"/>
			</g>
		</g>
		<rect x="0.1" y="118.7" class="st2" width="283.5" height="45.9"/>
		<path id="XMLID_18_" class="st0" d="M156.5,126.2l-2.5,9.9h6.3l-1.8,6.9h-6.4l-2.3,8.2c-0.4,1.4-0.7,3.2-0.6,4.4
			c0.1,1.8,0.7,2.5,2.5,2.5c0.8,0,2.1-0.2,2.8-0.3l-1.6,5.9c-1,0.4-2.8,0.6-4.4,0.6c-4.6,0-6.4-2.8-6.1-6.3c0.1-1.7,0.4-3.4,1-5.7
			l2.5-9.4H142l1.7-6.9h4l2.7-9.9L156.5,126.2L156.5,126.2z"/>
		<g>
			<g>
				<defs>
					<rect id="SVGID_5_" x="0.1" y="118.7" width="283.5" height="45.9"/>
				</defs>
				<clipPath id="SVGID_6_">
					<use xlink:href="#SVGID_5_"  style="overflow:visible;"/>
				</clipPath>
				<path class="st4" d="M222,163.7h-6.6c0.6-1.7,0.2-0.7,0.8-2.7l2.5-3.6c-2.9,5-6.4,6.8-9.6,6.8c-4.5,0-7.1-3.9-6.7-9.4
					c0.8-9.4,7.6-19.4,19.3-19.4c2.7,0,5.6,0.6,7.6,1.2 M221.8,140.7c-0.6-0.2-0.8-0.1-1.9-0.1c-5.5,0-10.4,6.9-10.9,13.1
					c-0.2,2.9,0.6,5.3,3.2,5.3c2.8,0,5.9-3.8,7.7-10.9L221.8,140.7z"/>
			</g>
		</g>
		<rect x="0.1" y="118.7" class="st2" width="283.5" height="45.9"/>
		<path class="st0" d="M222,163.7h-6.6c0.6-1.7,0.2-0.7,0.8-2.7l2.5-3.6c-2.9,5-6.4,6.8-9.6,6.8c-4.5,0-7.1-3.9-6.7-9.4
			c0.8-9.4,7.6-19.4,19.3-19.4c2.7,0,5.6,0.6,7.6,1.2 M221.8,140.7c-0.6-0.2-0.8-0.1-1.9-0.1c-5.5,0-10.4,6.9-10.9,13.1
			c-0.2,2.9,0.6,5.3,3.2,5.3c2.8,0,5.9-3.8,7.7-10.9L221.8,140.7z"/>
		<g>
			<g>
				<defs>
					<rect id="SVGID_7_" x="0.1" y="118.7" width="283.5" height="45.9"/>
				</defs>
				<clipPath id="SVGID_8_">
					<use xlink:href="#SVGID_7_"  style="overflow:visible;"/>
				</clipPath>
				<path id="XMLID_13_" class="st5" d="M229.2,163.7l5.2-19.1c0.9-3.3,1.7-6.1,2.3-8.6h6.3l-1.2,4.3l0.1-0.4
					c2.9-3.5,4.7-4.5,8.2-4.5c3.6,0,6.2,2.4,5.8,7.6c-0.1,1.2-0.5,3.2-0.8,4.5l-4.1,16.2h-6.1l4.2-15.6c0.2-1,0.5-2.2,0.6-3.3
					c0.2-2.3-0.5-4-2.8-4c-2.7,0-6.2,3.7-7.8,10.1l-3.7,12.8H229.2z"/>
			</g>
		</g>
		<rect x="0.1" y="118.7" class="st2" width="283.5" height="45.9"/>
		<path id="XMLID_12_" class="st0" d="M229.2,163.7l5.2-19.1c0.9-3.3,1.7-6.1,2.3-8.6h6.3l-1.2,4.3l0.1-0.4c2.9-3.5,4.7-4.5,8.2-4.5
			c3.6,0,6.2,2.4,5.8,7.6c-0.1,1.2-0.5,3.2-0.8,4.5l-4.1,16.2h-6.1l4.2-15.6c0.2-1,0.5-2.2,0.6-3.3c0.2-2.3-0.5-4-2.8-4
			c-2.7,0-6.2,3.7-7.8,10.1l-3.7,12.8H229.2z"/>
		<g>
			<g>
				<defs>
					<rect id="SVGID_9_" x="0.1" y="118.7" width="283.5" height="45.9"/>
				</defs>
				<clipPath id="SVGID_10_">
					<use xlink:href="#SVGID_9_"  style="overflow:visible;"/>
				</clipPath>
				<path class="st6" d="M277.8,162.5c-2.6,1.4-6,2-9,2c-7,0-10-4.7-9.4-11.4c0.7-8.3,7-17.4,15.7-17.4c5,0,7.9,3.1,7.5,7.8
					c-0.6,7.1-7.5,9.4-17.2,9.1c-0.2,1-0.1,2.8,0.4,3.9c0.8,1.9,2.6,2.8,4.9,2.8c2.8,0,6.8-1.6,8.7-2.6L277.8,162.5z M273.9,140.6
					c-3.8,0-6.6,3.7-7.5,7c6.2,0.1,10.3-0.8,10.5-4.2C276.9,141.7,275.8,140.6,273.9,140.6"/>
			</g>
		</g>
		<rect x="0.1" y="118.7" class="st2" width="283.5" height="45.9"/>
		<path class="st0" d="M277.8,162.5c-2.6,1.4-6,2-9,2c-7,0-10-4.7-9.4-11.4c0.7-8.3,7-17.4,15.7-17.4c5,0,7.9,3.1,7.5,7.8
			c-0.6,7.1-7.5,9.4-17.2,9.1c-0.2,1-0.1,2.8,0.4,3.9c0.8,1.9,2.6,2.8,4.9,2.8c2.8,0,6.8-1.6,8.7-2.6L277.8,162.5z M273.9,140.6
			c-3.8,0-6.6,3.7-7.5,7c6.2,0.1,10.3-0.8,10.5-4.2C276.9,141.7,275.8,140.6,273.9,140.6z"/>
		<rect x="0.1" y="118.7" class="st2" width="283.5" height="45.9"/>
		<polygon id="XMLID_7_" class="st0" points="98.6,118.7 96.6,126 80.6,126 78,135.8 94,135.8 92,143.2 76,143.2 70.4,164 63.5,164 
			75.7,118.7 		"/>
		<rect x="0.1" y="118.7" class="st2" width="283.5" height="45.9"/>
		<polygon id="XMLID_6_" class="st0" points="197.3,164 173.9,164 186.1,118.7 193.2,118.7 182.9,156.7 199.3,156.7 		"/>
		<g>
			<g>
				<defs>
					<rect id="SVGID_11_" x="0.1" y="118.7" width="283.5" height="45.9"/>
				</defs>
				<clipPath id="SVGID_12_">
					<use xlink:href="#SVGID_11_"  style="overflow:visible;"/>
				</clipPath>
				<path class="st7" d="M111.2,163.7h-6.6c0.6-1.7,0.2-0.7,0.8-2.7l2.5-3.6c-2.9,5-6.4,6.8-9.6,6.8c-4.5,0-7.1-3.9-6.7-9.4
					c0.7-9.4,7.6-19.4,19.3-19.4c2.7,0,5.6,0.6,7.6,1.2 M110.9,140.7c-0.6-0.2-0.8-0.1-1.9-0.1c-5.5,0-10.4,6.9-10.9,13.1
					c-0.2,2.9,0.6,5.3,3.2,5.3c2.8,0,5.9-3.8,7.7-10.9L110.9,140.7z"/>
			</g>
		</g>
		<rect x="0.1" y="118.7" class="st2" width="283.5" height="45.9"/>
		<path class="st0" d="M111.2,163.7h-6.6c0.6-1.7,0.2-0.7,0.8-2.7l2.5-3.6c-2.9,5-6.4,6.8-9.6,6.8c-4.5,0-7.1-3.9-6.7-9.4
			c0.7-9.4,7.6-19.4,19.3-19.4c2.7,0,5.6,0.6,7.6,1.2 M110.9,140.7c-0.6-0.2-0.8-0.1-1.9-0.1c-5.5,0-10.4,6.9-10.9,13.1
			c-0.2,2.9,0.6,5.3,3.2,5.3c2.8,0,5.9-3.8,7.7-10.9L110.9,140.7z"/>
	</g>
</g>
</svg>
