<svg id="Layer_1" data-name="Layer 1" xmlns="http://www.w3.org/2000/svg" viewBox="0 0 382.01 38.95"><defs><style>.cls-1{fill:#0d557f;}.cls-2{fill:#6b962a;}.cls-3{fill:#f25346;}.cls-4{fill:#87ced9;}.cls-5{fill:#de4c3c;}.cls-6{fill:#4398d1;}.cls-7{fill:#126099;}.cls-8{fill:#5c3724;}.cls-9{fill:#c74436;}.cls-10{fill:#6cbbc7;}.cls-11{fill:#3e8cc7;}</style></defs><title>tea-academies-logo-1</title><path class="cls-1" d="M539.81,401.73h2.08V390.16h-2.21v2.63h-3.9v-6.27h16.88v6.27h-3.9v-2.63h-2.21v11.57h2.08v3.38h-8.82Z" transform="translate(-485.14 -366.48)"/><path class="cls-1" d="M554.53,401.73h2.08V389.9h-2.08v-3.38h14.33V392H565v-1.85h-3.7v3.77h5.44v3.64h-5.44v3.9h4v-1.84h3.9v5.48H554.53Z" transform="translate(-485.14 -366.48)"/><path class="cls-1" d="M570.65,401.73h1.53l5.07-15.21h5.31l5.07,15.21h1.53v3.38h-7.77v-3.38H583l-.7-2.47h-4.79l-.7,2.47h1.61v3.38h-7.77Zm10.63-6-1-3.43a10.92,10.92,0,0,1-.36-1.95h-.11a10.92,10.92,0,0,1-.36,1.95l-1,3.43Z" transform="translate(-485.14 -366.48)"/><path class="cls-1" d="M597.19,401.73h2.08V389.9h-2.08v-3.38h14.33V392h-3.9v-1.85h-3.69v3.77h5.43v3.64h-5.43v3.9h4v-1.84h3.9v5.48H597.19Z" transform="translate(-485.14 -366.48)"/><path class="cls-1" d="M620,391.41c2.57,0,3.43,1.33,3.43,1.33h0s0-.37,0-.86v-2.11h-1.82v-3.25h6.32v14.77a.52.52,0,0,0,.57.57h1v3.25h-3.87c-1.3,0-1.8-.75-1.8-1.4v-.08a1.44,1.44,0,0,1,.06-.41h-.06a4.4,4.4,0,0,1-4.13,2.21c-3.56,0-5.9-2.86-5.9-7S616.25,391.41,620,391.41Zm.93,10.3c1.35,0,2.65-1,2.65-3.17,0-1.77-.85-3.33-2.57-3.33-1.48,0-2.68,1.14-2.68,3.22S619.35,401.71,620.88,401.71Z" transform="translate(-485.14 -366.48)"/><path class="cls-1" d="M632.5,395h-1.82v-3.25H637v8c0,1.24.5,1.76,1.48,1.76,1.77,0,2.79-2.05,2.79-4.08V395h-1.82v-3.25h6.31v9.57a.52.52,0,0,0,.58.57h1.11v3.25h-4.13c-1.22,0-1.85-.59-1.85-1.5v-.37a3.26,3.26,0,0,1,0-.39h0a4.85,4.85,0,0,1-4.55,2.58c-2.37,0-4.4-1.25-4.4-5Z" transform="translate(-485.14 -366.48)"/><path class="cls-1" d="M656.16,391.41c2.68,0,5.91.94,5.91,3.41V397h-3.83v-.81c0-.65-.86-1-1.9-1-2.1,0-3,1.32-3,3.14a3.13,3.13,0,0,0,3.38,3.41,6.83,6.83,0,0,0,4-1.48l1.5,3.14a8.92,8.92,0,0,1-5.82,2.06c-4,0-7.62-2.6-7.62-7A7,7,0,0,1,656.16,391.41Z" transform="translate(-485.14 -366.48)"/><path class="cls-1" d="M670.67,396.79h.81v-.39c0-1.09-.89-1.48-1.9-1.48a7.73,7.73,0,0,0-3.69,1.28l-1.56-3.05a10.06,10.06,0,0,1,5.66-1.74c3.9,0,6,1.95,6,5.46v4.42a.52.52,0,0,0,.58.57h1v3.25h-3.88c-1.3,0-1.79-.75-1.79-1.4v-.08a1.7,1.7,0,0,1,0-.41h0a4.44,4.44,0,0,1-4,2.21c-2.34,0-4.39-1.43-4.39-4.14C663.52,397.37,668.59,396.79,670.67,396.79Zm-1.43,5.39a2.71,2.71,0,0,0,2.29-2.55v-.31h-.42c-1.48,0-3.07.46-3.07,1.66A1.14,1.14,0,0,0,669.24,402.18Z" transform="translate(-485.14 -366.48)"/><path class="cls-1" d="M680.21,395h-1.82v-3.25h2v-3.61h4.37v3.61h2.81V395h-2.81v4.74c0,1.61,1.53,1.84,2.39,1.84.37,0,.6,0,.6,0v3.64a9.53,9.53,0,0,1-1.22.07c-2.13,0-6.27-.57-6.27-5.07Z" transform="translate(-485.14 -366.48)"/><path class="cls-1" d="M696.72,391.41c4.24,0,7.62,2.84,7.62,7s-3.38,7-7.59,7-7.59-2.79-7.59-7S692.54,391.41,696.72,391.41Zm0,10.27a3,3,0,0,0,3-3.22,3.05,3.05,0,1,0-6.08,0A3,3,0,0,0,696.75,401.68Z" transform="translate(-485.14 -366.48)"/><path class="cls-1" d="M706,401.86h1.82v-6.31a.52.52,0,0,0-.57-.58H706v-3.25h4.24c1.22,0,1.9.5,1.9,1.72v.7a4,4,0,0,1,0,.68h0a4.64,4.64,0,0,1,4.26-3.33,3.16,3.16,0,0,1,.52.05V396a4.62,4.62,0,0,0-.91-.08c-2.49,0-3.69,1.59-3.69,4v1.95h1.82v3.25H706Z" transform="translate(-485.14 -366.48)"/><path class="cls-1" d="M724.12,401.73h1.54l5.07-15.21H736l5.07,15.21h1.54v3.38h-7.78v-3.38h1.62l-.71-2.47H731l-.7,2.47h1.61v3.38h-7.78Zm10.64-6-1-3.43a11.65,11.65,0,0,1-.37-1.95h-.1a10.92,10.92,0,0,1-.36,1.95l-1,3.43Z" transform="translate(-485.14 -366.48)"/><path class="cls-1" d="M750.78,391.41c2.67,0,5.9.94,5.9,3.41V397h-3.82v-.81c0-.65-.86-1-1.9-1-2.11,0-3,1.32-3,3.14a3.13,3.13,0,0,0,3.38,3.41,6.83,6.83,0,0,0,4-1.48l1.51,3.14a8.94,8.94,0,0,1-5.83,2.06c-4,0-7.62-2.6-7.62-7A7,7,0,0,1,750.78,391.41Z" transform="translate(-485.14 -366.48)"/><path class="cls-1" d="M765.28,396.79h.81v-.39c0-1.09-.88-1.48-1.9-1.48a7.73,7.73,0,0,0-3.69,1.28l-1.56-3.05a10.11,10.11,0,0,1,5.67-1.74c3.9,0,6,1.95,6,5.46v4.42a.52.52,0,0,0,.57.57h1v3.25h-3.88c-1.3,0-1.79-.75-1.79-1.4v-.08a1.7,1.7,0,0,1,0-.41h0a4.42,4.42,0,0,1-4,2.21c-2.34,0-4.4-1.43-4.4-4.14C758.13,397.37,763.2,396.79,765.28,396.79Zm-1.43,5.39a2.7,2.7,0,0,0,2.29-2.55v-.31h-.41c-1.49,0-3.07.46-3.07,1.66A1.13,1.13,0,0,0,763.85,402.18Z" transform="translate(-485.14 -366.48)"/><path class="cls-1" d="M779.58,391.41c2.58,0,3.44,1.33,3.44,1.33h.05s0-.37,0-.86v-2.11h-1.82v-3.25h6.32v14.77a.52.52,0,0,0,.57.57h1v3.25h-3.87c-1.3,0-1.8-.75-1.8-1.4v-.08a1.7,1.7,0,0,1,.05-.41h-.05a4.4,4.4,0,0,1-4.13,2.21c-3.56,0-5.9-2.86-5.9-7S775.89,391.41,779.58,391.41Zm.94,10.3c1.35,0,2.65-1,2.65-3.17,0-1.77-.86-3.33-2.57-3.33-1.48,0-2.68,1.14-2.68,3.22S779,401.71,780.52,401.71Z" transform="translate(-485.14 -366.48)"/><path class="cls-1" d="M797.55,391.41c4,0,6.24,2.76,6.24,6.48,0,.44-.1,1.35-.1,1.35h-8.51a3,3,0,0,0,3.12,2.47,7.42,7.42,0,0,0,3.77-1.28l1.64,3.12a9.3,9.3,0,0,1-5.77,1.88,6.94,6.94,0,0,1-7.36-7A6.67,6.67,0,0,1,797.55,391.41Zm1.58,5.36a1.83,1.83,0,0,0-1.68-2,2.19,2.19,0,0,0-2.16,2Z" transform="translate(-485.14 -366.48)"/><path class="cls-1" d="M805.63,401.86h1.7v-6.34a.51.51,0,0,0-.58-.55H805.5v-3.25h4.24c1.22,0,1.88.6,1.88,1.51v.44a2.58,2.58,0,0,1,0,.32h0a5.06,5.06,0,0,1,4.24-2.58,3.45,3.45,0,0,1,3.48,2.52h.06a4.87,4.87,0,0,1,4.42-2.52c2.28,0,4.21,1.33,4.21,5v5.43h1.69v3.25h-6.19v-7.93c0-1-.18-1.69-1-1.69-2,0-2.57,1.85-2.57,4.09v2.28h1.69v3.25h-6.19v-7.93c0-1-.18-1.69-1-1.69-2.06,0-2.58,2.19-2.58,4.35v2h1.69v3.25h-7.88Z" transform="translate(-485.14 -366.48)"/><path class="cls-1" d="M831.4,401.86h1.69V395h-1.82v-3.25h6.32v10.14h1.69v3.25H831.4Zm1.74-15.34h4.4V390h-4.4Z" transform="translate(-485.14 -366.48)"/><path class="cls-1" d="M847.62,391.41c4,0,6.24,2.76,6.24,6.48,0,.44-.1,1.35-.1,1.35h-8.5a3,3,0,0,0,3.12,2.47,7.46,7.46,0,0,0,3.77-1.28l1.64,3.12a9.31,9.31,0,0,1-5.78,1.88,6.94,6.94,0,0,1-7.35-7A6.67,6.67,0,0,1,847.62,391.41Zm1.59,5.36a1.83,1.83,0,0,0-1.69-2,2.21,2.21,0,0,0-2.16,2Z" transform="translate(-485.14 -366.48)"/><path class="cls-1" d="M855.32,400.38h3.77v.68c0,.6.65,1,1.95,1,1.07,0,1.64-.26,1.64-.78,0-.83-.91-.94-2.63-1.51-1.95-.65-4.26-1.58-4.26-4.29,0-3.14,3.17-4,5.74-4,2.06,0,5.13.73,5.13,2.91v1.82h-3.77v-.59c0-.42-.39-.73-1.36-.73-.72,0-1.27.15-1.27.67,0,.81,1.07,1.12,2.34,1.46,2,.55,4.55,1.38,4.55,4.16,0,3-2.94,4.32-6.11,4.32-2.39,0-5.72-1-5.72-3.25Z" transform="translate(-485.14 -366.48)"/><path class="cls-2" d="M504.8,373.55h-1.31v-1.31a7.2,7.2,0,0,1,2.88-5.76l.79,1a5.93,5.93,0,0,0-2.36,4.72v1.31Z" transform="translate(-485.14 -366.48)"/><rect class="cls-3" y="30.66" width="34.07" height="7.86"/><rect class="cls-4" x="3.93" y="25.42" width="34.07" height="5.24"/><path class="cls-5" d="M506.72,386.66h0a3.11,3.11,0,0,1-2.17-.9l-.41-.42-.41.42a3.07,3.07,0,0,1-2.17.9h0a3.07,3.07,0,0,1-3-2.64l-.09-.56a5.1,5.1,0,0,0-1.07-2.49h0a7.94,7.94,0,0,1-1.74-5h0a4.4,4.4,0,0,1,4.41-4.41h.43a4.4,4.4,0,0,1,3.67,2h0a4.41,4.41,0,0,1,3.68-2h.43a4.41,4.41,0,0,1,4.41,4.41h0a8,8,0,0,1-1.74,5h0a5.12,5.12,0,0,0-1.08,2.49l-.08.56A3.08,3.08,0,0,1,506.72,386.66Z" transform="translate(-485.14 -366.48)"/><path class="cls-2" d="M504.14,371.59h-1.31a4.59,4.59,0,0,1-4.58-4.59h1.31A4.58,4.58,0,0,1,504.14,371.59Z" transform="translate(-485.14 -366.48)"/><rect class="cls-6" x="1.31" y="20.18" width="34.07" height="5.24"/><rect class="cls-7" x="3.28" y="20.18" width="1.31" height="5.24"/><rect class="cls-7" x="5.9" y="20.18" width="1.31" height="5.24"/><rect class="cls-7" x="29.48" y="20.18" width="1.31" height="5.24"/><rect class="cls-7" x="32.1" y="20.18" width="1.31" height="5.24"/><rect class="cls-7" x="9.83" y="22.14" width="2.62" height="1.31"/><rect class="cls-7" x="13.76" y="22.14" width="4.59" height="1.31"/><rect class="cls-7" x="19.66" y="22.14" width="1.31" height="1.31"/><rect class="cls-7" x="22.28" y="22.14" width="4.59" height="1.31"/><rect class="cls-8" x="8.52" y="32.63" width="11.79" height="1.31"/><rect class="cls-8" x="21.62" y="32.63" width="3.93" height="1.31"/><rect class="cls-8" x="10.48" y="35.25" width="5.24" height="1.31"/><rect class="cls-8" x="17.03" y="35.25" width="6.55" height="1.31"/><rect class="cls-9" x="3.93" y="30.66" width="30.14" height="1.97"/><rect class="cls-8" x="1.97" y="30.66" width="1.31" height="7.86"/><rect class="cls-8" x="30.79" y="30.66" width="1.31" height="7.86"/><rect class="cls-10" x="3.93" y="25.42" width="31.45" height="1.97"/><rect class="cls-11" x="5.9" y="25.42" width="1.31" height="5.24"/><rect class="cls-11" x="34.72" y="25.42" width="1.31" height="5.24"/><rect class="cls-11" x="24.9" y="27.39" width="4.59" height="1.31"/><rect class="cls-11" x="20.97" y="27.39" width="2.62" height="1.31"/><rect class="cls-11" x="16.38" y="27.39" width="3.28" height="1.31"/><rect class="cls-11" x="11.14" y="27.39" width="3.93" height="1.31"/><path class="cls-9" d="M510.26,372.08a16.63,16.63,0,0,1-11.53,12.65,3.05,3.05,0,0,0,5,1l.41-.42.41.42a3.08,3.08,0,0,0,4.34,0,3,3,0,0,0,.87-1.74l.08-.56a5.12,5.12,0,0,1,1.08-2.49,8,8,0,0,0,1.74-5A4.41,4.41,0,0,0,510.26,372.08Z" transform="translate(-485.14 -366.48)"/></svg>