<?xml version="1.0" encoding="utf-8"?>
<!-- Generator: Adobe Illustrator 19.0.0, SVG Export Plug-In . SVG Version: 6.00 Build 0)  -->
<svg version="1.1" id="Layer_1" xmlns="http://www.w3.org/2000/svg" xmlns:xlink="http://www.w3.org/1999/xlink" x="0px" y="0px"
	 viewBox="0 0 262.7 53" style="enable-background:new 0 0 262.7 53;" xml:space="preserve">
<style type="text/css">
	.st0{fill:#42545D;}
	.st1{fill:#FFFFFF;}
	.st2{fill:#94BEB8;}
</style>
<g>
	<path class="st0" d="M261.5,19.5c-4.5,0-8.1-3.6-8.2-8.1h-61.8c-6.4-0.3-11.8-4.3-14.2-9.8H84.5c-2.5,5.8-8.3,9.8-15,9.8H9.4
		c-0.1,4.5-3.7,8.1-8.2,8.1v23.8c4.5,0,8.2,3.7,8.2,8.2h243.9c0-4.5,3.7-8.2,8.2-8.2v-2V21.4V19.5z"/>
	<path class="st1" d="M10.2,50.6c-0.4-4.3-3.8-7.8-8.2-8.2V20.2c4.3-0.4,7.7-3.8,8.1-8h59.3c6.6,0,12.7-3.8,15.5-9.8h91.7
		c2.7,5.8,8.3,9.5,14.7,9.8l0,0h61.1c0.4,4.2,3.9,7.6,8.1,8v22.2c-4.3,0.4-7.8,3.8-8.2,8.2H10.2z"/>
	<path class="st0" d="M11.5,49c-0.9-3.9-4-7-7.9-7.9V21.6c3.9-0.9,6.9-3.9,7.9-7.8h58C76.3,13.8,82.7,10,86,4h89.8
		c3.1,5.8,9,9.5,15.6,9.8l0.1,0h59.8c1,3.9,4,6.9,7.9,7.8v19.5c-3.9,0.9-7,4-7.9,7.9H11.5z"/>
	<g>
		<path class="st1" d="M25,38.2l-2.9-6.9L21.2,29v9.2h-1.6V24.4h1.5l2.7,7l0.9,2.3v-9.3h1.6v13.8H25z"/>
		<path class="st1" d="M29.8,38.2V24.4h5.4V26h-3.7v4.3h2.7v1.5h-2.7v4.9h3.7v1.6H29.8z"/>
		<path class="st1" d="M45.9,38.2h-1.7L42.8,29l-1.6,9.2h-1.7l-2-13.8h1.7l1.2,10.1l1.7-10.1h1.5l1.5,10.1l1.3-10.1h1.7L45.9,38.2z"
			/>
	</g>
	<path class="st1" d="M58.2,32.7v5.5h-1.7v-5.5l-2.7-8.3h1.8l1.9,6.4l1.9-6.4H61L58.2,32.7z"/>
	<path class="st1" d="M66.5,38.5c-2.1,0-3.3-1.4-3.3-3.4v-7.5c0-2,1.1-3.4,3.3-3.4c2.1,0,3.3,1.5,3.3,3.4v7.5
		C69.8,37,68.7,38.5,66.5,38.5z M68.1,27.4c0-0.9-0.5-1.6-1.5-1.6c-1,0-1.5,0.7-1.5,1.6v7.9c0,1,0.5,1.6,1.5,1.6
		c1,0,1.5-0.7,1.5-1.6V27.4z"/>
	<polygon class="st1" points="87.5,38.2 85.4,32.1 84.5,34.2 84.5,38.2 82.8,38.2 82.8,24.4 84.5,24.4 84.5,31.4 87.6,24.4 
		89.3,24.4 86.5,30.4 89.4,38.2 	"/>
	<path class="st1" d="M79.7,38.2l-1.3-6.8c0.6-0.5,0.9-1.2,0.9-2.2v-2.1c0-1.9-1-2.8-2.8-2.8h-3.4v13.8h1.7v-6.1h1.6
		c0.1,0,0.2,0,0.4,0l1,6.1H79.7z M76.4,30.8h-1.5V26h1.6c0.7,0,1.1,0.4,1.1,1.2v2.3C77.6,30.3,77.2,30.8,76.4,30.8z"/>
	<g>
		<path class="st1" d="M95.8,38.2V24.4h1.7v13.8H95.8z"/>
		<path class="st1" d="M106.5,38.2l-2.9-6.9l-0.9-2.3v9.2h-1.6V24.4h1.5l2.7,7l0.9,2.3v-9.3h1.6v13.8H106.5z"/>
		<path class="st1" d="M114.1,38.5c-2,0-3.2-1.3-3.2-3.1v-1.3h1.7v1.1c0,1.2,0.5,1.8,1.5,1.8c1,0,1.5-0.6,1.5-1.6
			c0-1.3-0.5-2.2-1.9-3.5c-1.3-1.1-2.7-2.7-2.7-4.5c0-1.8,1.1-3.3,3.1-3.3c1.9,0,3.1,1.3,3.1,3.1v1.3h-1.6v-1.1
			c0-1.1-0.5-1.8-1.5-1.8c-0.9,0-1.4,0.5-1.4,1.4c0,1.3,0.5,2.1,2.2,3.6c1.6,1.4,2.4,2.7,2.4,4.4C117.3,37.4,115.8,38.5,114.1,38.5z
			"/>
		<path class="st1" d="M123.8,26v12.2h-1.7V26h-2.3v-1.6h6.4V26H123.8z"/>
		<path class="st1" d="M129,38.2V24.4h1.7v13.8H129z"/>
		<path class="st1" d="M137.6,26v12.2h-1.7V26h-2.3v-1.6h6.4V26H137.6z"/>
		<path class="st1" d="M145.9,38.5c-1.9,0-3.2-1.2-3.2-3.2V24.4h1.7v10.9c0,1,0.5,1.6,1.5,1.6c1,0,1.5-0.5,1.5-1.6V24.4h1.7v10.9
			C149.2,37.3,147.8,38.5,145.9,38.5z"/>
		<path class="st1" d="M156.1,26v12.2h-1.7V26H152v-1.6h6.4V26H156.1z"/>
		<path class="st1" d="M161.2,38.2V24.4h5.4V26h-3.7v4.3h2.7v1.5h-2.7v4.9h3.7v1.6H161.2z"/>
	</g>
	<g>
		<path class="st1" d="M175,31.1c0.1,0.3,0.1,0.6,0.1,0.9c0,0.3-0.1,0.7-0.3,1c-0.2,0.3-0.4,0.6-0.6,0.9c-0.3,0.2-0.6,0.4-1,0.5
			c-0.4,0.1-0.8,0.1-1.1,0.1c-0.3-0.1-0.5-0.2-0.7-0.4c-0.2-0.2-0.3-0.4-0.4-0.7c-0.1-0.4-0.1-0.8,0-1.3c0.1-0.5,0.3-0.9,0.6-1.2
			c0.3-0.4,0.7-0.6,1.2-0.8c0.4-0.1,0.7-0.1,1-0.1c0.3,0.1,0.5,0.2,0.7,0.4C174.8,30.6,174.9,30.8,175,31.1z M174.1,30.9
			c-0.2-0.6-0.6-0.9-1.2-0.7c-0.2,0-0.3,0.1-0.4,0.2c-0.1,0.1-0.2,0.2-0.3,0.4c-0.1,0.2-0.2,0.4-0.2,0.6c-0.1,0.3-0.1,0.6-0.1,1
			c0,0.4,0,0.7,0.1,1c0.2,0.6,0.6,0.8,1.2,0.7c0.3-0.1,0.6-0.3,0.7-0.6c0.2-0.3,0.3-0.6,0.3-1C174.2,31.8,174.2,31.3,174.1,30.9z"/>
		<path class="st1" d="M179.2,29.1l-0.3,0.1c-0.1-0.1-0.2-0.3-0.3-0.3c-0.1-0.1-0.2-0.1-0.2-0.2c-0.1,0-0.2,0-0.2,0
			c-0.1,0-0.2,0-0.4,0.1l-0.3,0.1l0,1.6l0.2-0.1c0.2,0,0.3-0.1,0.4-0.1c0.1-0.1,0.1-0.1,0.2-0.2c0-0.1,0.1-0.1,0.1-0.2
			c0-0.1,0-0.2,0-0.3l0.3-0.1l0,1.7l-0.3,0.1c0-0.2,0-0.3,0-0.4c-0.1-0.2-0.3-0.3-0.6-0.2l-0.2,0.1v1.2c0,0.1,0,0.2,0,0.3
			c0,0.1,0.1,0.1,0.1,0.2c0.1,0,0.1,0,0.2,0c0.1,0,0.1,0,0.2,0l0.1,0l0,0.3l-1.8,0.5l0-0.3c0.1,0,0.2-0.1,0.3-0.2
			c0-0.1,0.1-0.2,0.1-0.4l0-2.7c0-0.1,0-0.2,0-0.2c0-0.1-0.1-0.2-0.2-0.2c-0.1,0-0.2,0-0.3,0l0-0.3l2.8-0.9L179.2,29.1z"/>
	</g>
	<g>
		<path class="st1" d="M186.2,26v4.5h2.8V32h-2.8v6.2h-1.7V24.4h5.3V26H186.2z"/>
		<path class="st1" d="M192.7,38.2V24.4h1.7v13.8H192.7z"/>
		<path class="st1" d="M203.4,38.2l-2.9-6.9l-0.9-2.3v9.2H198V24.4h1.5l2.7,7l0.9,2.3v-9.3h1.6v13.8H203.4z"/>
		<path class="st1" d="M212.6,38.2l-0.6-3.2h-2.5l-0.6,3.2h-1.6l2.6-13.8h1.8l2.6,13.8H212.6z M210.9,27.6l-1,5.9h1.9L210.9,27.6z"
			/>
		<path class="st1" d="M222.6,38.2l-2.9-6.9l-0.9-2.3v9.2h-1.6V24.4h1.5l2.7,7l0.9,2.3v-9.3h1.6v13.8H222.6z"/>
		<path class="st1" d="M230.4,38.5c-2.1,0-3.2-1.5-3.2-3.3v-7.7c0-1.8,1.1-3.3,3.2-3.3c2.1,0,3.2,1.4,3.2,3.2v1.9H232v-1.9
			c0-0.9-0.5-1.6-1.6-1.6c-1,0-1.6,0.7-1.6,1.5v8.1c0,0.9,0.5,1.5,1.6,1.5c1,0,1.6-0.6,1.6-1.6v-2h1.5v1.9
			C233.6,37.1,232.5,38.5,230.4,38.5z"/>
		<path class="st1" d="M236.8,38.2V24.4h5.4V26h-3.7v4.3h2.7v1.5h-2.7v4.9h3.7v1.6H236.8z"/>
		<path class="st1" d="M186.2,26v4.5h2.8V32h-2.8v6.2h-1.7V24.4h5.3V26H186.2z"/>
	</g>
	<path class="st1" d="M170.9,28.1c2-2.4,7-1.6,8.8-3l0,0C178.1,27.1,173.2,26.3,170.9,28.1L170.9,28.1z"/>
	<path class="st1" d="M170.9,37.6c2-2.4,7-1.6,8.8-3l0,0C178.1,36.6,173.2,35.8,170.9,37.6L170.9,37.6z"/>
	<g>
		<path class="st2" d="M96.5,16.3h-4.7V16c0.6,0,0.8-0.1,0.8-0.5v-3.9c0-0.4-0.1-0.5-0.8-0.5v-0.3h4.6l0,2h-0.2
			c-0.4-1.2-0.8-1.7-1.9-1.7c-0.5,0-0.9,0.1-0.9,0.5v1.7c0.8,0,1.2-0.1,1.3-1l0.2,0v2.2h-0.2c-0.1-0.9-0.5-1-1.3-1v2.1
			c0,0.3,0.2,0.4,0.7,0.4c1.1,0,1.9-0.2,2.3-1.8h0.2L96.5,16.3z"/>
		<path class="st2" d="M97.8,14.2H98c0.2,0.9,0.8,1.9,1.8,1.9c0.6,0,1.2-0.4,1.2-1.1c0-1.8-3.2-0.7-3.2-2.9c0-1,0.9-1.5,1.7-1.5
			c0.7,0,1.1,0.5,1.3,0.5c0.1,0,0.2-0.3,0.2-0.4h0.3v1.9h-0.2c-0.2-0.8-0.7-1.7-1.6-1.7c-0.6,0-1.1,0.3-1.1,1c0,1.5,3.2,0.7,3.2,2.7
			c0,1.1-0.9,1.8-1.9,1.8c-0.8,0-1.1-0.4-1.4-0.4c-0.2,0-0.3,0.2-0.4,0.4h-0.2V14.2z"/>
		<path class="st2" d="M107,12.6c-0.2-1-0.5-1.6-1.7-1.6v4.5c0,0.4,0.1,0.5,0.8,0.5v0.3h-2.4V16c0.6,0,0.8-0.1,0.8-0.5V11
			c-1.1,0-1.5,0.6-1.7,1.6h-0.2l0-1.9h2.3h2.3l0,1.9H107z"/>
		<path class="st2" d="M107.2,16.3V16c0.7,0,0.8-0.4,1-0.9l1.6-4.5h0.3l1.8,4.5c0.2,0.6,0.4,0.8,0.9,0.8v0.3h-2.2V16
			c0.6,0,0.6-0.1,0.6-0.3c0-0.2-0.2-0.8-0.5-1.3h-1.9c-0.1,0.5-0.4,0.9-0.4,1.2c0,0.3,0.2,0.4,0.9,0.4v0.3H107.2z M110.6,14.1
			l-0.9-2.1l-0.8,2.1H110.6z"/>
		<path class="st2" d="M114,11.5c0-0.4-0.1-0.5-0.7-0.5v-0.3h2.6c1.5,0,2,0.7,2,1.4c0,0.7-0.7,1.2-1.6,1.2v0c1.2,0,1.9,0.6,1.9,1.4
			c0,0.5-0.5,1.5-1.8,1.5h-3.1V16c0.6,0,0.7-0.1,0.7-0.5V11.5z M115.6,13.2c1.1,0,1.3-0.4,1.3-1.1c0-0.8-0.4-1.2-1.4-1.2
			c-0.7,0-0.7,0.2-0.7,0.4v1.8H115.6z M114.8,13.5v1.9c0,0.4,0.2,0.6,0.8,0.6c1.2,0,1.6-0.4,1.6-1.2c0-0.8-0.3-1.3-1.1-1.3H114.8z"
			/>
		<path class="st2" d="M123.3,16.3h-4.2V16c0.6,0,0.7-0.1,0.7-0.5v-3.9c0-0.4-0.1-0.5-0.7-0.5v-0.3h2.3V11c-0.6,0-0.8,0.1-0.8,0.5
			v3.9c0,0.4,0.2,0.5,0.6,0.5c0.7,0,1.5-0.2,1.9-1.8h0.3L123.3,16.3z"/>
		<path class="st2" d="M126.4,10.7V11c-0.6,0-0.8,0.1-0.8,0.5v3.9c0,0.4,0.1,0.5,0.8,0.5v0.3H124V16c0.6,0,0.8-0.1,0.8-0.5v-3.9
			c0-0.4-0.1-0.5-0.8-0.5v-0.3H126.4z"/>
		<path class="st2" d="M127.4,14.2h0.2c0.2,0.9,0.8,1.9,1.8,1.9c0.6,0,1.2-0.4,1.2-1.1c0-1.8-3.2-0.7-3.2-2.9c0-1,0.9-1.5,1.7-1.5
			c0.7,0,1.1,0.5,1.3,0.5c0.1,0,0.2-0.3,0.2-0.4h0.3v1.9h-0.2c-0.2-0.8-0.7-1.7-1.6-1.7c-0.6,0-1.1,0.3-1.1,1c0,1.5,3.2,0.7,3.2,2.7
			c0,1.1-0.9,1.8-1.9,1.8c-0.8,0-1.1-0.4-1.4-0.4c-0.2,0-0.3,0.2-0.4,0.4h-0.2V14.2z"/>
		<path class="st2" d="M132.2,16.3V16c0.6,0,0.7-0.1,0.7-0.5v-3.9c0-0.4-0.1-0.5-0.7-0.5v-0.3h2.4V11c-0.7,0-0.8,0.1-0.8,0.5v1.7
			h2.4v-1.7c0-0.4-0.1-0.5-0.8-0.5v-0.3h2.3V11c-0.6,0-0.7,0.1-0.7,0.5v3.9c0,0.4,0.1,0.5,0.8,0.5v0.3h-2.3V16
			c0.6,0,0.7-0.1,0.7-0.5v-2h-2.4v2c0,0.4,0.1,0.5,0.8,0.5v0.3H132.2z"/>
		<path class="st2" d="M143.3,16.3h-4.7V16c0.6,0,0.8-0.1,0.8-0.5v-3.9c0-0.4-0.1-0.5-0.8-0.5v-0.3h4.6l0,2H143
			c-0.4-1.2-0.8-1.7-1.9-1.7c-0.5,0-0.9,0.1-0.9,0.5v1.7c0.8,0,1.2-0.1,1.3-1l0.2,0v2.2h-0.2c-0.1-0.9-0.5-1-1.3-1v2.1
			c0,0.3,0.2,0.4,0.7,0.4c1.1,0,1.9-0.2,2.3-1.8h0.2L143.3,16.3z"/>
		<path class="st2" d="M144.5,10.7h2.6c1.2,0,2.6,0.9,2.6,2.8c0,1.9-1.4,2.8-2.6,2.8h-2.7V16c0.6,0,0.8-0.1,0.8-0.5v-3.9
			c0-0.4-0.1-0.5-0.8-0.5V10.7z M146,15.4c0,0.5,0.1,0.6,0.8,0.6c1.6,0,1.9-1,1.9-2.5c0-1.9-0.6-2.5-1.9-2.5c-0.7,0-0.8,0.1-0.8,0.6
			V15.4z"/>
		<path class="st2" d="M153.9,11.1c0.6,0,1.1-0.2,1.4-0.5h0.2v4.7c0,0.5,0.2,0.6,1,0.6v0.3h-2.7V16c0.8,0,1-0.2,1-0.6v-3.6
			c0-0.2-0.2-0.4-0.8-0.4V11.1z"/>
		<path class="st2" d="M159.2,10.6c1.3,0,1.8,1.4,1.8,2.5c0,1.9-1,3.2-2.2,3.2c-0.8,0-1.3-0.4-1.3-1c0-0.4,0.2-0.6,0.5-0.6
			c0.3,0,0.5,0.2,0.5,0.5c0,0.3-0.2,0.4-0.4,0.4c-0.1,0-0.1,0-0.2,0c0.1,0.3,0.6,0.5,1,0.5c1,0,1.3-1.1,1.3-2c0-0.1,0-0.3,0-0.4h0
			c-0.2,0.4-0.6,0.6-1.1,0.6c-1,0-1.6-0.9-1.6-1.7C157.4,11.5,158.1,10.6,159.2,10.6z M160.2,12.4c0-1.3-0.5-1.5-1-1.5s-1,0.3-1,1.5
			c0,1.3,0.5,1.6,1,1.6S160.2,13.7,160.2,12.4z"/>
		<path class="st2" d="M162,16.3c0-1.8,2.7-2.5,2.7-4.2c0-0.7-0.4-1.2-1.1-1.2c-0.6,0-1.1,0.4-1.2,1c0.1,0,0.2-0.1,0.3-0.1
			c0.2,0,0.4,0.1,0.4,0.5c0,0.2-0.2,0.5-0.5,0.5c-0.3,0-0.5-0.2-0.5-0.7c0-0.9,0.8-1.4,1.6-1.4c0.9,0,1.7,0.5,1.7,1.5
			c0,1.7-2.4,2.1-3,3.5h1.7c0.7,0,1-0.3,1.1-1h0.2l-0.1,1.7H162z"/>
		<path class="st2" d="M166.5,16.3c0-1.8,2.7-2.5,2.7-4.2c0-0.7-0.4-1.2-1.1-1.2c-0.6,0-1.1,0.4-1.2,1c0.1,0,0.2-0.1,0.3-0.1
			c0.2,0,0.4,0.1,0.4,0.5c0,0.2-0.2,0.5-0.5,0.5c-0.3,0-0.5-0.2-0.5-0.7c0-0.9,0.8-1.4,1.6-1.4c0.9,0,1.7,0.5,1.7,1.5
			c0,1.7-2.4,2.1-3,3.5h1.7c0.7,0,1-0.3,1.1-1h0.2l-0.1,1.7H166.5z"/>
	</g>
</g>
</svg>
