<svg id="Layer_1" data-name="Layer 1" xmlns="http://www.w3.org/2000/svg" xmlns:xlink="http://www.w3.org/1999/xlink" viewBox="0 0 243.93 47.3"><defs><style>.cls-1,.cls-14,.cls-30{fill:none;}.cls-2{clip-path:url(#clip-path);}.cls-3,.cls-4{fill:#4ca592;}.cls-4,.cls-5{fill-rule:evenodd;}.cls-5,.cls-6{fill:#503133;}.cls-7{font-size:2.57px;}.cls-12,.cls-7{fill:#4ca793;}.cls-10,.cls-7{font-family:Avenir-Medium, Avenir;}.cls-8{letter-spacing:0.01em;}.cls-9{letter-spacing:-0.05em;}.cls-10{font-size:2.7px;fill:#503233;}.cls-11{letter-spacing:0.01em;}.cls-12{font-size:2.24px;font-family:Avenir-Light, Avenir;}.cls-13{letter-spacing:-0.11em;}.cls-14{stroke:#503233;stroke-width:0.07px;}.cls-14,.cls-30{stroke-miterlimit:10;}.cls-15{clip-path:url(#clip-path-2);}.cls-16{clip-path:url(#clip-path-3);}.cls-17{opacity:0.5;}.cls-18{clip-path:url(#clip-path-4);}.cls-19{clip-path:url(#clip-path-5);}.cls-20{fill:#94d0e3;}.cls-21{clip-path:url(#clip-path-6);}.cls-22{fill:#00a9de;}.cls-23{fill:#3da794;}.cls-24{opacity:0.8;}.cls-25{clip-path:url(#clip-path-8);}.cls-26{clip-path:url(#clip-path-9);}.cls-27{fill:#6bc9b8;}.cls-28{fill:#1f1f1f;}.cls-29{fill:#7b7b7b;}.cls-30{stroke:#cdcbcb;stroke-width:0.5px;}.cls-31{clip-path:url(#clip-path-10);}.cls-32{clip-path:url(#clip-path-11);}</style><clipPath id="clip-path" transform="translate(-9.47 -7.16)"><rect class="cls-1" x="145.91" y="7.28" width="58.23" height="33.81"/></clipPath><clipPath id="clip-path-2" transform="translate(-9.47 -7.16)"><rect class="cls-1" x="7" y="12.38" width="118.5" height="33.13"/></clipPath><clipPath id="clip-path-3" transform="translate(-9.47 -7.16)"><rect class="cls-1" x="7" y="12.38" width="118.5" height="33.13"/></clipPath><clipPath id="clip-path-4" transform="translate(-9.47 -7.16)"><rect class="cls-1" x="25.1" y="27.53" width="10.41" height="11.25"/></clipPath><clipPath id="clip-path-5" transform="translate(-9.47 -7.16)"><rect class="cls-1" x="25.1" y="27.53" width="10.41" height="11.25"/></clipPath><clipPath id="clip-path-6" transform="translate(-9.47 -7.16)"><rect class="cls-1" x="13.86" y="29.33" width="10.51" height="9.42"/></clipPath><clipPath id="clip-path-8" transform="translate(-9.47 -7.16)"><rect class="cls-1" x="14.9" y="23.87" width="16.6" height="8.61"/></clipPath><clipPath id="clip-path-9" transform="translate(-9.47 -7.16)"><rect class="cls-1" x="14.9" y="23.87" width="16.6" height="8.61"/></clipPath><clipPath id="clip-path-10" transform="translate(-9.47 -7.16)"><rect class="cls-1" x="197.8" y="20.75" width="58.44" height="21"/></clipPath><clipPath id="clip-path-11" transform="translate(-9.47 -7.16)"><rect class="cls-1" x="198.72" y="21.86" width="54.68" height="16.39"/></clipPath></defs><title>certs-logo</title><g class="cls-2"><path class="cls-3" d="M169.87,39h-1v-.17H169l.09,0a.14.14,0,0,0,.08-.06.23.23,0,0,0,0-.12V37.34a.25.25,0,0,0,0-.12.29.29,0,0,0-.08-.09l-.12,0-.14,0h0v-.17l.78,0h0l0,0v1.76a.24.24,0,0,0,0,.12.16.16,0,0,0,.09.07l.09,0h.07Zm-.52-2.62a.27.27,0,0,1-.2-.09.3.3,0,0,1-.08-.21.31.31,0,0,1,.08-.22.26.26,0,0,1,.2-.09.28.28,0,0,1,.21.09.29.29,0,0,1,.08.2.33.33,0,0,1-.08.23.27.27,0,0,1-.21.1Z" transform="translate(-9.47 -7.16)"/><path class="cls-3" d="M180.93,39h-1v-.17H180l.09,0a.14.14,0,0,0,.08-.06.24.24,0,0,0,0-.12V37.34a.25.25,0,0,0,0-.12.28.28,0,0,0-.08-.09l-.12,0-.14,0h0v-.17l.78,0h0l0,0v1.76a.24.24,0,0,0,0,.12.16.16,0,0,0,.09.07l.09,0h.07Zm-.52-2.62a.27.27,0,0,1-.2-.09.3.3,0,0,1-.08-.21.31.31,0,0,1,.08-.22.26.26,0,0,1,.2-.09.28.28,0,0,1,.21.09.29.29,0,0,1,.08.2.33.33,0,0,1-.08.23.27.27,0,0,1-.21.1Z" transform="translate(-9.47 -7.16)"/><path class="cls-3" d="M172.35,39h-1v-.17h.12l.1,0a.14.14,0,0,0,.08-.06.23.23,0,0,0,0-.12V37.56a.51.51,0,0,0-.11-.35.32.32,0,0,0-.25-.12.6.6,0,0,0-.21,0l-.17.09a.44.44,0,0,0-.11.1l-.06.09v1.24a.21.21,0,0,0,0,.12.18.18,0,0,0,.09.07l.1,0,.11,0h0V39h-1v-.17h.07l.09,0a.14.14,0,0,0,.08-.06.23.23,0,0,0,0-.12V37.34a.28.28,0,0,0,0-.13.25.25,0,0,0-.08-.1l-.09,0-.12,0h0v-.17l.73,0h0l0,0v.29l.12-.12.15-.12a.75.75,0,0,1,.19-.09.85.85,0,0,1,.26,0,.56.56,0,0,1,.47.2.83.83,0,0,1,.15.52v1.12a.24.24,0,0,0,0,.12.17.17,0,0,0,.08.07l.09,0h.07" transform="translate(-9.47 -7.16)"/><path class="cls-3" d="M172.53,39v-.17h.11l.09,0a.14.14,0,0,0,.08-.06.24.24,0,0,0,0-.12V37.34a.25.25,0,0,0,0-.12.28.28,0,0,0-.08-.09l-.12,0-.14,0h0v-.17l.78,0h0l0,0v1.76a.24.24,0,0,0,0,.12.16.16,0,0,0,.09.07l.09,0,.1,0h0V39h-1.06Zm1.34,0h0ZM173,36.43a.27.27,0,0,1-.2-.09.3.3,0,0,1-.08-.21.31.31,0,0,1,.08-.22.26.26,0,0,1,.2-.09.28.28,0,0,1,.21.09.29.29,0,0,1,.08.2.33.33,0,0,1-.08.23.27.27,0,0,1-.21.1Z" transform="translate(-9.47 -7.16)"/><path class="cls-3" d="M173.94,39a.61.61,0,0,1-.11-.39V37.11h-.25v-.23h.26v-.67h.42v.67h.62v.23h-.61V38.3c0,.09,0,.17,0,.23a.42.42,0,0,0,0,.15.21.21,0,0,0,.1.09.43.43,0,0,0,.18,0h.16l.15,0h0v.18h0l-.27.1a1,1,0,0,1-.31,0,.48.48,0,0,1-.39-.14" transform="translate(-9.47 -7.16)"/><path class="cls-3" d="M178.69,39a.61.61,0,0,1-.11-.39V37.11h-.25v-.23h.26v-.67H179v.67h.62v.23H179V38.3c0,.09,0,.17,0,.23a.42.42,0,0,0,0,.15.21.21,0,0,0,.1.09.43.43,0,0,0,.18,0h.16l.15,0h0v.18h0l-.27.1a1,1,0,0,1-.31,0,.48.48,0,0,1-.39-.14" transform="translate(-9.47 -7.16)"/><path class="cls-3" d="M175.17,39v-.17h.11l.09,0a.14.14,0,0,0,.08-.06.23.23,0,0,0,0-.12V37.34a.25.25,0,0,0,0-.12.29.29,0,0,0-.08-.09l-.12,0-.14,0h0v-.17l.78,0h0l0,0v1.76a.24.24,0,0,0,0,.12.16.16,0,0,0,.09.07l.09,0,.1,0h0V39h-1.06Zm1.53,0h0Zm-1-2.61a.27.27,0,0,1-.2-.09.3.3,0,0,1-.08-.21.32.32,0,0,1,.08-.22.26.26,0,0,1,.2-.09.28.28,0,0,1,.21.09.29.29,0,0,1,.08.2.33.33,0,0,1-.08.23.27.27,0,0,1-.21.1Z" transform="translate(-9.47 -7.16)"/><path class="cls-3" d="M176.52,39a.53.53,0,0,1-.16-.4.67.67,0,0,1,0-.23.57.57,0,0,1,.11-.18.56.56,0,0,1,.15-.12l.17-.08.4-.14a2.93,2.93,0,0,0,.4-.15v-.21a1,1,0,0,0,0-.11.46.46,0,0,0,0-.15.43.43,0,0,0-.12-.14.36.36,0,0,0-.22-.06.49.49,0,0,0-.18,0,.34.34,0,0,0-.11.06.59.59,0,0,0,0,.12.69.69,0,0,1,0,.16.2.2,0,0,1-.07.15.28.28,0,0,1-.2.07.19.19,0,0,1-.17-.08.32.32,0,0,1-.05-.18.32.32,0,0,1,.07-.2.77.77,0,0,1,.19-.17,1.1,1.1,0,0,1,.24-.11,1,1,0,0,1,.28,0,1.76,1.76,0,0,1,.32,0,.59.59,0,0,1,.25.11.52.52,0,0,1,.17.22,1,1,0,0,1,.06.36c0,.21,0,.39,0,.55s0,.34,0,.53a.26.26,0,0,0,0,.13.23.23,0,0,0,.09.08l.1,0h.16V39h0l-.18.06-.18,0a.44.44,0,0,1-.28-.08.37.37,0,0,1-.13-.23,1.07,1.07,0,0,1-.3.24.86.86,0,0,1-.4.08.57.57,0,0,1-.41-.15m.79-1a1.3,1.3,0,0,0-.26.13.59.59,0,0,0-.17.17.44.44,0,0,0-.06.24.33.33,0,0,0,.09.26.33.33,0,0,0,.23.08.48.48,0,0,0,.27-.07.76.76,0,0,0,.19-.17v-.73l-.31.1" transform="translate(-9.47 -7.16)"/><path class="cls-3" d="M182,39.07h0l-.38-.94-.36-.87a.31.31,0,0,0-.14-.15.51.51,0,0,0-.19-.07h0v-.17h1V37h0l-.16,0c-.07,0-.09,0-.09.06v0l0,.06.25.62.25.62.19-.44.26-.62,0-.11a.28.28,0,0,0,0-.1.07.07,0,0,0,0-.06l-.08,0-.1,0h-.09v-.16h.85V37h0a.53.53,0,0,0-.18.07.4.4,0,0,0-.15.18l-.27.61-.29.67-.09.24-.09.26H182Z" transform="translate(-9.47 -7.16)"/><path class="cls-3" d="M183.74,39a.9.9,0,0,1-.33-.25,1.08,1.08,0,0,1-.19-.37,1.54,1.54,0,0,1-.06-.45,1.32,1.32,0,0,1,.07-.42,1.16,1.16,0,0,1,.2-.37.93.93,0,0,1,.31-.25.89.89,0,0,1,.42-.1,1,1,0,0,1,.41.08.72.72,0,0,1,.28.21.81.81,0,0,1,.15.29,1.26,1.26,0,0,1,0,.36v.16h-1.43a1.69,1.69,0,0,0,0,.37.89.89,0,0,0,.13.3.59.59,0,0,0,.22.2.67.67,0,0,0,.32.07.59.59,0,0,0,.33-.09.89.89,0,0,0,.27-.32h0l.16.1h0a1.13,1.13,0,0,1-.37.41.92.92,0,0,1-.53.15,1.06,1.06,0,0,1-.46-.09m.85-1.32a1.74,1.74,0,0,0,0-.25.78.78,0,0,0-.07-.23.43.43,0,0,0-.13-.16.37.37,0,0,0-.22-.06.46.46,0,0,0-.37.19.87.87,0,0,0-.16.51Z" transform="translate(-9.47 -7.16)"/><path class="cls-3" d="M171.62,20.31H170.5v-.17h0l.25,0c.07,0,.09,0,.09-.06a.33.33,0,0,0,0,0v0l-.23-.62h-1l-.09.23-.06.19,0,.14a.5.5,0,0,0,0,.08s0,.08.11.11l.22,0h.07v.17h-1v-.17l.07,0,.12,0a.47.47,0,0,0,.12-.11.73.73,0,0,0,.08-.16l.47-1.18.45-1.17h.18l.94,2.42a.44.44,0,0,0,.07.12l.1.09.11,0h.06Zm-1.89-1.17h.8l-.4-1Z" transform="translate(-9.47 -7.16)"/><path class="cls-3" d="M171.67,17.27l.68,0h0l0,0v2.67a.21.21,0,0,0,0,.11.15.15,0,0,0,.08.06l.08,0h0v.17h-.83v-.16h.12a.14.14,0,0,0,.08-.06.2.2,0,0,0,0-.11V17.71a.28.28,0,0,0,0-.13.24.24,0,0,0-.08-.09l-.13,0-.09,0Z" transform="translate(-9.47 -7.16)"/><path class="cls-3" d="M172.6,17.27l.66,0h0l0,0v1.27a.84.84,0,0,1,.26-.19.7.7,0,0,1,.29-.07.77.77,0,0,1,.61.29,1.12,1.12,0,0,1,.24.75,1.06,1.06,0,0,1-.28.75.86.86,0,0,1-.65.3,1.05,1.05,0,0,1-.32,0,1.37,1.37,0,0,1-.28-.13l-.14.22-.14,0h0q0-.15,0-.35t0-.4V17.7a.32.32,0,0,0,0-.13.2.2,0,0,0-.07-.09l-.12,0h-.08Zm.7,2.58a.46.46,0,0,0,0,.11.51.51,0,0,0,.09.12.48.48,0,0,0,.13.09.44.44,0,0,0,.56-.19,1.16,1.16,0,0,0,.15-.63h0a1.49,1.49,0,0,0,0-.3.84.84,0,0,0-.1-.26.56.56,0,0,0-.17-.18.44.44,0,0,0-.25-.07.5.5,0,0,0-.24.05.65.65,0,0,0-.18.14Z" transform="translate(-9.47 -7.16)"/><path class="cls-3" d="M175.41,20.28a.82.82,0,0,1-.3-.23,1,1,0,0,1-.17-.34,1.42,1.42,0,0,1-.06-.4,1.19,1.19,0,0,1,.06-.38,1.07,1.07,0,0,1,.18-.33.87.87,0,0,1,.28-.23.83.83,0,0,1,.38-.09.92.92,0,0,1,.37.07.68.68,0,0,1,.25.19.76.76,0,0,1,.14.26,1.18,1.18,0,0,1,0,.33v.14H175.3a1.46,1.46,0,0,0,0,.33.8.8,0,0,0,.11.27.53.53,0,0,0,.2.18.6.6,0,0,0,.29.07.53.53,0,0,0,.3-.08.8.8,0,0,0,.24-.29h0l.15.09h0a1,1,0,0,1-.33.37.83.83,0,0,1-.48.14h0a1,1,0,0,1-.42-.08m.78-1.18h0Zm0,0a1.83,1.83,0,0,0,0-.22.73.73,0,0,0-.06-.21.41.41,0,0,0-.12-.14.33.33,0,0,0-.2-.05.41.41,0,0,0-.33.17.78.78,0,0,0-.15.46Z" transform="translate(-9.47 -7.16)"/><path class="cls-3" d="M176.64,18.36l.6,0h0l0,0v.25a.88.88,0,0,1,.26-.23.59.59,0,0,1,.28-.08.28.28,0,0,1,.21.08.31.31,0,0,1,.08.23.34.34,0,0,1-.05.18.18.18,0,0,1-.16.08.24.24,0,0,1-.18-.06.19.19,0,0,1-.06-.14.45.45,0,0,1,0-.08v-.05a.46.46,0,0,0-.19.07.62.62,0,0,0-.2.21v1.13a.2.2,0,0,0,0,.11.15.15,0,0,0,.08.06l.12,0h.08v.16h-.91v-.16h0l.08,0a.13.13,0,0,0,.07-.06.21.21,0,0,0,0-.11v-1.2a.26.26,0,0,0,0-.11.23.23,0,0,0-.07-.09l-.08,0h-.05Z" transform="translate(-9.47 -7.16)"/><path class="cls-3" d="M179.35,20.25l-.18.07a1,1,0,0,1-.28,0,.44.44,0,0,1-.36-.13.56.56,0,0,1-.1-.36v-1.3h-.21v-.22h.22v-.61h.39v.61h.49v.22h-.48v1.07a1.94,1.94,0,0,0,0,.2.36.36,0,0,0,0,.14.19.19,0,0,0,.09.08.39.39,0,0,0,.16,0h.22Z" transform="translate(-9.47 -7.16)"/><path class="cls-3" d="M179.6,20.22a.48.48,0,0,1-.15-.36.6.6,0,0,1,0-.21.51.51,0,0,1,.23-.27l.15-.08.36-.12.36-.14v-.19a.78.78,0,0,0,0-.1.38.38,0,0,0-.15-.26.32.32,0,0,0-.2-.05.45.45,0,0,0-.16,0l-.1.06a.59.59,0,0,0,0,.11.59.59,0,0,1,0,.15.18.18,0,0,1-.07.14.26.26,0,0,1-.18.06.17.17,0,0,1-.16-.08.29.29,0,0,1,0-.35.66.66,0,0,1,.17-.15,1,1,0,0,1,.22-.09.85.85,0,0,1,.25,0l.29,0a.55.55,0,0,1,.23.1.46.46,0,0,1,.16.2.87.87,0,0,1,.05.33c0,.19,0,.35,0,.5s0,.3,0,.48a.23.23,0,0,0,0,.11.21.21,0,0,0,.08.07l.09,0h.14v.13h0l-.16.05-.16,0a.4.4,0,0,1-.25-.08.34.34,0,0,1-.12-.2,1,1,0,0,1-.27.21.79.79,0,0,1-.36.08.51.51,0,0,1-.37-.14m.67-.89a1.15,1.15,0,0,0-.23.12.53.53,0,0,0-.15.15.4.4,0,0,0-.05.21.29.29,0,0,0,.08.23.3.3,0,0,0,.21.07.44.44,0,0,0,.24-.07.7.7,0,0,0,.17-.15v-.66l-.28.09" transform="translate(-9.47 -7.16)"/><path class="cls-4" d="M155.24,13.9c.3-.25.59-.53.53-.9a1.33,1.33,0,0,1,0-.47.89.89,0,0,0-.5,1.37" transform="translate(-9.47 -7.16)"/><path class="cls-4" d="M156.89,13c-.05.39-.08.79.22,1a1.32,1.32,0,0,1,.34.32.89.89,0,0,0-.56-1.35" transform="translate(-9.47 -7.16)"/><path class="cls-4" d="M157.63,13c-.15.36-.27.75,0,1a1.33,1.33,0,0,1,.25.39.89.89,0,0,0-.22-1.44" transform="translate(-9.47 -7.16)"/><path class="cls-4" d="M160.92,14.54c-.33,0-.66,0-.82.3a1.11,1.11,0,0,1-.22.32.74.74,0,0,0,1-.63" transform="translate(-9.47 -7.16)"/><path class="cls-4" d="M160,15.93c-.32.06-.64.15-.75.45a1.11,1.11,0,0,1-.16.36.74.74,0,0,0,.91-.8" transform="translate(-9.47 -7.16)"/><path class="cls-4" d="M161.82,12.67c-.32.07-.64.16-.74.46a1.1,1.1,0,0,1-.15.36.74.74,0,0,0,.9-.82" transform="translate(-9.47 -7.16)"/><path class="cls-4" d="M161.16,10.63c-.15.29-.28.6-.11.87a1.09,1.09,0,0,1,.18.34.74.74,0,0,0-.07-1.21" transform="translate(-9.47 -7.16)"/><path class="cls-4" d="M160.9,12.58c-.29.27-.56.56-.48.93a1.32,1.32,0,0,1,.06.46.89.89,0,0,0,.42-1.4" transform="translate(-9.47 -7.16)"/><path class="cls-4" d="M162,13.87c-.36-.15-.75-.27-1,0a1.34,1.34,0,0,1-.39.25.89.89,0,0,0,1.44-.22" transform="translate(-9.47 -7.16)"/><path class="cls-4" d="M162.81,12.79c-.32.23-.63.48-.6.86a1.33,1.33,0,0,1,0,.47.89.89,0,0,0,.6-1.33" transform="translate(-9.47 -7.16)"/><path class="cls-4" d="M161.36,15c-.36.16-.72.34-.76.72a1.35,1.35,0,0,1-.09.46.89.89,0,0,0,.86-1.18" transform="translate(-9.47 -7.16)"/><path class="cls-4" d="M160.48,15.36c-.21.25-.4.52-.3.82a1.12,1.12,0,0,1,.1.38.74.74,0,0,0,.2-1.2" transform="translate(-9.47 -7.16)"/><path class="cls-4" d="M159.9,17.06c-.33,0-.66,0-.83.28a1.11,1.11,0,0,1-.23.31.74.74,0,0,0,1.06-.59" transform="translate(-9.47 -7.16)"/><path class="cls-4" d="M159.41,11.69c-.26.19-.52.41-.48.73a1.12,1.12,0,0,1,0,.39.74.74,0,0,0,.48-1.12" transform="translate(-9.47 -7.16)"/><path class="cls-4" d="M160,12.21c-.33,0-.66,0-.83.28a1.1,1.1,0,0,1-.23.31.74.74,0,0,0,1.06-.59" transform="translate(-9.47 -7.16)"/><path class="cls-4" d="M159.94,13.17a1.08,1.08,0,0,0-.42,1,1.78,1.78,0,0,1,.07.51c0,.1,1-.46.34-1.49" transform="translate(-9.47 -7.16)"/><path class="cls-4" d="M161.86,11.28c-.35.17-.7.37-.74.75a1.33,1.33,0,0,1-.08.46.89.89,0,0,0,.82-1.21" transform="translate(-9.47 -7.16)"/><path class="cls-4" d="M160.3,11.06c-.07.39-.11.79.18,1a1.35,1.35,0,0,1,.33.33.89.89,0,0,0-.5-1.37" transform="translate(-9.47 -7.16)"/><path class="cls-4" d="M158.35,10.76c-.1.38-.17.77.1,1a1.32,1.32,0,0,1,.3.36.89.89,0,0,0-.4-1.4" transform="translate(-9.47 -7.16)"/><path class="cls-4" d="M154.69,15.73c-.06-.36-.13-.72-.36-.83a.72.72,0,0,1-.28-.16c-.05,0-.06,1.09.64,1" transform="translate(-9.47 -7.16)"/><path class="cls-4" d="M164.17,14.41a1.06,1.06,0,0,1-.95,1.47,1.59,1.59,0,0,0,.08-.55c0-.46.44-.7.86-.92m1,3.34c-.3-.26-.62-.5-1-.38a1.33,1.33,0,0,1-.45.11.89.89,0,0,0,1.43.27m.93-.86c-.36-.16-.73-.3-1-.08a1.34,1.34,0,0,1-.4.24.89.89,0,0,0,1.45-.15m-1.6,3.21a1.49,1.49,0,0,0-1.22-.45,2,2,0,0,1-.59.09,1.24,1.24,0,0,0,1.81.36m-1.08,2a1.78,1.78,0,0,0-.43-1.5,2.47,2.47,0,0,1-.5-.51,1.48,1.48,0,0,0,.93,2m-1.55-6.36c.22.06.88-.31,1-.1s-1.3.75-1.24.77a1.38,1.38,0,0,0,.57,0c.61-.07.49.12.25.17a6.37,6.37,0,0,0-4.51,3.87c0,.12.14.08.17,0a9.08,9.08,0,0,1,5-3.93,1.77,1.77,0,0,0,.5-.28c.66-.63,1.11-.31,1.15-.27a.87.87,0,0,1-1,.49.65.65,0,0,0-.3,0l-.57.3c-.1.05.38,0,.44,0s.1.06,0,.08a6.3,6.3,0,0,0-2.22.82s0,0,0,0a4.38,4.38,0,0,1,2.2-.25c.13,0,.3.06,0,.08-5.55.52-5.53,6.43-4.6,9.8,0,.05.25,0,.24-.15,0-.44-.14-.7.27-.58s3.51,1.14,4.47,1.33c.27.05.16-.63.11-.64S159.28,26,159,24.92c-.52-1.84,0-4,.62-3.91.13,0,0,.15.19.7.31.89,2,1.34,2,1.34.16-.76,2.69,1.3,2.28-1.51,0-.08-.06-.06-.06-.06s.89-.16,1.16-.53c.86-1.16-.75-1.9-.64-2.29s1.45-.35,1.86-.74c1.1-1-.21-3.11-.2-2.84.05,1.13-1.23.8-1.23.8s2-2-.94-1.88c0,0-.8-.93-.78-.7.08,1.29-1.58,2.11-1.53,2.12.27,0,.91-.41,1.07-.38s-.92.7-.9.7m-1.75,4.49c.08,0,.95-.26,1.44-.3.24,0,.88,0,.78-.08a1.54,1.54,0,0,0-.44-.21,6.21,6.21,0,0,0,1.11-.69c.08-.1,0-.16-.12-.08A17.4,17.4,0,0,1,160,20c-.11,0,.06.19.1.21" transform="translate(-9.47 -7.16)"/><path class="cls-5" d="M155.84,19.79a.47.47,0,0,0-.43.18.64.64,0,0,1-.12.18.4.4,0,0,0,.55-.36" transform="translate(-9.47 -7.16)"/><path class="cls-5" d="M155.11,19.7a.33.33,0,0,0-.3.12.45.45,0,0,1-.08.12.28.28,0,0,0,.39-.25" transform="translate(-9.47 -7.16)"/><path class="cls-5" d="M154.8,19.64a.4.4,0,0,0-.37-.13.54.54,0,0,1-.17,0,.34.34,0,0,0,.55.08" transform="translate(-9.47 -7.16)"/><path class="cls-5" d="M155.16,19.62a.51.51,0,0,0-.12-.38.42.42,0,0,1-.11-.1s-.07.43.23.48" transform="translate(-9.47 -7.16)"/><path class="cls-5" d="M156.65,19.88a.68.68,0,0,0-.47.38.86.86,0,0,1-.1.25.56.56,0,0,0,.56-.63" transform="translate(-9.47 -7.16)"/><path class="cls-5" d="M154.54,18.82c-.17-.17-.35-.34-.57-.27a.78.78,0,0,1-.28.06.51.51,0,0,0,.85.21" transform="translate(-9.47 -7.16)"/><path class="cls-5" d="M154.59,18.29c.09-.22.17-.46,0-.63a.77.77,0,0,1-.16-.23.51.51,0,0,0,.15.86" transform="translate(-9.47 -7.16)"/><path class="cls-5" d="M153.46,17.41c0,.24.06.48.28.57a.78.78,0,0,1,.25.13.51.51,0,0,0-.53-.7" transform="translate(-9.47 -7.16)"/><path class="cls-5" d="M156.19,17.74c-.13-.27-.29-.54-.57-.55a.92.92,0,0,1-.35,0,.65.65,0,0,0,.92.59" transform="translate(-9.47 -7.16)"/><path class="cls-5" d="M155.33,16.75c-.27-.29-.56-.57-.93-.49a1.32,1.32,0,0,1-.46.06.89.89,0,0,0,1.39.43" transform="translate(-9.47 -7.16)"/><path class="cls-5" d="M156.07,16.86c.31-.24.62-.5.57-.88a1.33,1.33,0,0,1,0-.47.89.89,0,0,0-.56,1.35" transform="translate(-9.47 -7.16)"/><path class="cls-5" d="M155.32,14.74c.36-.15.72-.34.77-.71a1.31,1.31,0,0,1,.1-.46.89.89,0,0,0-.87,1.17" transform="translate(-9.47 -7.16)"/><path class="cls-5" d="M155,12.77c.3-.25.59-.53.53-.9a1.33,1.33,0,0,1,0-.47.89.89,0,0,0-.5,1.37" transform="translate(-9.47 -7.16)"/><path class="cls-5" d="M153.9,12.86c0,.39,0,.79.26,1a1.34,1.34,0,0,1,.36.3.89.89,0,0,0-.62-1.32" transform="translate(-9.47 -7.16)"/><path class="cls-5" d="M156.31,14c-.05.39-.08.79.22,1a1.35,1.35,0,0,1,.34.32.89.89,0,0,0-.57-1.34" transform="translate(-9.47 -7.16)"/><path class="cls-5" d="M157.5,14.48c-.23.32-.43.67-.28,1a1.34,1.34,0,0,1,.16.44.89.89,0,0,0,.12-1.45" transform="translate(-9.47 -7.16)"/><path class="cls-5" d="M159,14.06c-.14.35-.25.71,0,1a1.27,1.27,0,0,1,.24.37.84.84,0,0,0-.21-1.37" transform="translate(-9.47 -7.16)"/><path class="cls-5" d="M158.16,12.14c-.12.3-.22.62,0,.87a1.11,1.11,0,0,1,.21.33.74.74,0,0,0-.18-1.2" transform="translate(-9.47 -7.16)"/><path class="cls-5" d="M157.19,11.86c-.12.3-.22.62,0,.87a1.1,1.1,0,0,1,.21.33.74.74,0,0,0-.18-1.2" transform="translate(-9.47 -7.16)"/><path class="cls-5" d="M153.82,15.94c-.29-.08-.6-.14-.81.07a1,1,0,0,1-.28.23.69.69,0,0,0,1.09-.3" transform="translate(-9.47 -7.16)"/><path class="cls-5" d="M156.36,10.79c-.14.27-.25.56-.09.81a1,1,0,0,1,.17.32.69.69,0,0,0-.08-1.13" transform="translate(-9.47 -7.16)"/><path class="cls-5" d="M153.95,18c.65.56,1.27.93,1.93,1.4,0,0,0,.08-.08.07A4.82,4.82,0,0,1,153.91,18s0-.06,0,0" transform="translate(-9.47 -7.16)"/><path class="cls-5" d="M160.37,14.1a6.89,6.89,0,0,0-2,4.61c0,.34,0,.27.05.13a12.21,12.21,0,0,1,2-4.65c.14-.19,0-.12,0-.09" transform="translate(-9.47 -7.16)"/><path class="cls-5" d="M158.9,13a7.93,7.93,0,0,1-.18.89s0-.09-.06-.05c-.08.19-.9,2.35-1,2.37s-.48-.63-.77-.86c0,0-.12,0-.08,0s.79,1,.74,1.17a11,11,0,0,1-.75,1.72,19.08,19.08,0,0,0-2-3.3c-.07-.08-.1,0-.1,0a17.31,17.31,0,0,1,1.35,2.65c0,.11,0,.14,0,.15a14.66,14.66,0,0,1,1,2.18,12.26,12.26,0,0,0-2.29-.29s0,.07,0,.07a9.11,9.11,0,0,1,2.24.5c.87.51,0,4.06,0,4.06a24.52,24.52,0,0,0-2.41-.73s0,.16,0,.16A5.76,5.76,0,0,1,157,24.74a7.16,7.16,0,0,1,.12,1.42c0,.1.26,0,.25-.08a11,11,0,0,1,.14-3.05c0-.21.11-.13.11,0a3.36,3.36,0,0,0,0,.53c.6-.46.16-3.47-.54-4.8,0,0,2.1-4.76,1.88-5.72,0-.07,0-.06,0,0" transform="translate(-9.47 -7.16)"/><path class="cls-6" d="M162.42,30.7a.91.91,0,0,0-.4.15.78.78,0,0,0-.31.41l-.41,1.22-.44,1.3-.16.49q-.08.26-.15.51h-.37L159,31.58l-1.17,3.19h-.36q-.33-1-.64-1.93t-.56-1.67a.6.6,0,0,0-.27-.32,1,1,0,0,0-.38-.14v-.29h1.93v.31a1.45,1.45,0,0,0-.31,0c-.11,0-.17.08-.17.14a.35.35,0,0,0,0,.08l0,.12.32,1,.46,1.48L159,30.5h.43l1.13,3.07q.19-.59.38-1.14c.12-.37.23-.71.33-1l.06-.21a.64.64,0,0,0,0-.19.18.18,0,0,0-.07-.14.59.59,0,0,0-.17-.1l-.19-.05-.15,0v-.28h1.65Z" transform="translate(-9.47 -7.16)"/><path class="cls-6" d="M165.94,33.73a2.22,2.22,0,0,1-.73.83,1.83,1.83,0,0,1-1,.31,2.12,2.12,0,0,1-.91-.18,1.78,1.78,0,0,1-.65-.5,2.12,2.12,0,0,1-.38-.74,3.09,3.09,0,0,1-.13-.89,2.63,2.63,0,0,1,.13-.83,2.33,2.33,0,0,1,.39-.73,1.91,1.91,0,0,1,.62-.5,1.79,1.79,0,0,1,.83-.19,2,2,0,0,1,.81.15,1.44,1.44,0,0,1,.55.41,1.63,1.63,0,0,1,.3.58,2.52,2.52,0,0,1,.1.72v.29H163a3.4,3.4,0,0,0,.08.77,1.85,1.85,0,0,0,.26.61,1.21,1.21,0,0,0,.45.4,1.38,1.38,0,0,0,.66.15,1.22,1.22,0,0,0,.67-.18,1.81,1.81,0,0,0,.55-.66Zm-1-1.65a3.55,3.55,0,0,0,0-.52,1.6,1.6,0,0,0-.13-.47.89.89,0,0,0-.28-.33.75.75,0,0,0-.45-.13.94.94,0,0,0-.77.38,1.78,1.78,0,0,0-.33,1.06Z" transform="translate(-9.47 -7.16)"/><path class="cls-6" d="M165.87,34.45H166l.19,0a.33.33,0,0,0,.18-.14.48.48,0,0,0,.06-.26V29a.66.66,0,0,0-.07-.3.58.58,0,0,0-.18-.22.89.89,0,0,0-.29-.1l-.34-.05V28l1.63-.1.06.07V34a.5.5,0,0,0,.06.25.37.37,0,0,0,.18.15l.19.06.15,0h.06v.29h-2Z" transform="translate(-9.47 -7.16)"/><path class="cls-6" d="M168.14,34.45h.15l.19,0a.33.33,0,0,0,.18-.14.48.48,0,0,0,.06-.26V29a.66.66,0,0,0-.07-.3.58.58,0,0,0-.18-.22.88.88,0,0,0-.29-.1l-.34-.05V28l1.63-.1.06.07V34a.49.49,0,0,0,.06.25.37.37,0,0,0,.18.15l.19.06.15,0h.06v.29h-2Z" transform="translate(-9.47 -7.16)"/><path class="cls-6" d="M175,34.74H173v-.29l.22,0,.2,0a.32.32,0,0,0,.18-.14.5.5,0,0,0,.06-.26V31.78a1,1,0,0,0-.22-.71.68.68,0,0,0-.53-.25,1.2,1.2,0,0,0-.43.07,1.49,1.49,0,0,0-.34.18,1,1,0,0,0-.23.22l-.12.19V34a.45.45,0,0,0,.06.25.41.41,0,0,0,.18.15l.2.06.22,0v.29h-2.06v-.29h.14l.19,0a.32.32,0,0,0,.18-.14A.49.49,0,0,0,171,34V31.34a.6.6,0,0,0-.06-.27.54.54,0,0,0-.18-.2.59.59,0,0,0-.2-.08l-.25,0v-.29l1.44-.1.06.06V31h0l.26-.25a2.31,2.31,0,0,1,.3-.24,1.56,1.56,0,0,1,.39-.18,1.7,1.7,0,0,1,.5-.07,1.09,1.09,0,0,1,.92.39,1.65,1.65,0,0,1,.3,1V34a.51.51,0,0,0,.05.25.34.34,0,0,0,.18.15l.18.06.15,0Z" transform="translate(-9.47 -7.16)"/><path class="cls-6" d="M178.83,33.73a2.22,2.22,0,0,1-.73.83,1.83,1.83,0,0,1-1,.31,2.12,2.12,0,0,1-.92-.18,1.77,1.77,0,0,1-.65-.5,2.11,2.11,0,0,1-.38-.74,3.09,3.09,0,0,1-.13-.89,2.63,2.63,0,0,1,.13-.83,2.34,2.34,0,0,1,.39-.73,1.91,1.91,0,0,1,.62-.5,1.79,1.79,0,0,1,.83-.19,2,2,0,0,1,.81.15,1.44,1.44,0,0,1,.55.41,1.65,1.65,0,0,1,.3.58,2.54,2.54,0,0,1,.1.72v.29h-2.87a3.4,3.4,0,0,0,.08.77,1.84,1.84,0,0,0,.26.61,1.21,1.21,0,0,0,.45.4,1.37,1.37,0,0,0,.66.15,1.21,1.21,0,0,0,.67-.18,1.82,1.82,0,0,0,.55-.66Zm-1-1.65a3.48,3.48,0,0,0,0-.52,1.6,1.6,0,0,0-.13-.47.89.89,0,0,0-.28-.33.75.75,0,0,0-.45-.13.94.94,0,0,0-.77.38,1.78,1.78,0,0,0-.33,1.06Z" transform="translate(-9.47 -7.16)"/><path class="cls-6" d="M181.91,32.62a1.11,1.11,0,0,1,.28.36,1.19,1.19,0,0,1,.1.51,1.23,1.23,0,0,1-.45,1,1.93,1.93,0,0,1-1.86.24,1.92,1.92,0,0,1-.45-.25l-.09.29h-.33l0-1.51h.3a1.72,1.72,0,0,0,.15.4,2,2,0,0,0,.28.41,1.49,1.49,0,0,0,.41.33,1.08,1.08,0,0,0,.54.13,1,1,0,0,0,.65-.19.68.68,0,0,0,.23-.55.66.66,0,0,0-.07-.32.71.71,0,0,0-.21-.24A1.67,1.67,0,0,0,181,33l-.47-.16a4,4,0,0,1-.46-.17,1.83,1.83,0,0,1-.43-.25,1.22,1.22,0,0,1-.32-.38,1.07,1.07,0,0,1-.12-.53,1.19,1.19,0,0,1,.39-.9,1.49,1.49,0,0,1,1.06-.37,2.13,2.13,0,0,1,.52.07,1.76,1.76,0,0,1,.43.16l.1-.23H182l.07,1.39h-.3a1.4,1.4,0,0,0-.4-.76,1,1,0,0,0-.74-.29.83.83,0,0,0-.57.18.56.56,0,0,0-.21.44.71.71,0,0,0,.07.33.6.6,0,0,0,.2.22,1.71,1.71,0,0,0,.33.17l.49.17a4.37,4.37,0,0,1,.55.22,1.8,1.8,0,0,1,.42.27" transform="translate(-9.47 -7.16)"/><path class="cls-6" d="M185.52,32.62a1.12,1.12,0,0,1,.28.36,1.19,1.19,0,0,1,.1.51,1.23,1.23,0,0,1-.45,1,1.93,1.93,0,0,1-1.86.24,2,2,0,0,1-.45-.25l-.09.29h-.33l0-1.51h.3a1.69,1.69,0,0,0,.15.4,2,2,0,0,0,.28.41,1.49,1.49,0,0,0,.41.33,1.09,1.09,0,0,0,.54.13,1,1,0,0,0,.65-.19.68.68,0,0,0,.23-.55.66.66,0,0,0-.07-.32.7.7,0,0,0-.21-.24,1.66,1.66,0,0,0-.36-.18l-.47-.16a4.07,4.07,0,0,1-.46-.17,1.83,1.83,0,0,1-.43-.25,1.23,1.23,0,0,1-.32-.38,1.07,1.07,0,0,1-.12-.53,1.18,1.18,0,0,1,.4-.9,1.48,1.48,0,0,1,1.06-.37,2.12,2.12,0,0,1,.52.07,1.76,1.76,0,0,1,.43.16l.1-.23h.32l.07,1.39h-.3a1.4,1.4,0,0,0-.4-.76,1,1,0,0,0-.74-.29.83.83,0,0,0-.57.18.56.56,0,0,0-.21.44.72.72,0,0,0,.07.33.6.6,0,0,0,.2.22,1.69,1.69,0,0,0,.33.17l.49.17a4.37,4.37,0,0,1,.55.22,1.81,1.81,0,0,1,.42.27" transform="translate(-9.47 -7.16)"/><path class="cls-6" d="M165.6,27h.14l.19,0a.32.32,0,0,0,.18-.14.5.5,0,0,0,.06-.26V23.45h-.86V23h.86v-.28a2.4,2.4,0,0,1,.51-1.6,1.6,1.6,0,0,1,1.28-.61,1,1,0,0,1,.59.15.46.46,0,0,1,.2.37.53.53,0,0,1-.11.33.38.38,0,0,1-.32.14.48.48,0,0,1-.24-.06.73.73,0,0,1-.19-.15,1.44,1.44,0,0,1-.16-.22l-.13-.2c-.2,0-.35.15-.45.41a3.63,3.63,0,0,0-.16,1.26V23h.83v.42H167v3.11a.47.47,0,0,0,.06.25.35.35,0,0,0,.19.14,1.28,1.28,0,0,0,.28.06l.24,0v.29H165.6Z" transform="translate(-9.47 -7.16)"/><path class="cls-6" d="M171.92,27.26l-.36.12a1.25,1.25,0,0,1-.35,0,.86.86,0,0,1-.55-.16.73.73,0,0,1-.26-.47h0a2.16,2.16,0,0,1-.61.48,1.73,1.73,0,0,1-.79.17,1.11,1.11,0,0,1-.8-.3,1,1,0,0,1-.31-.78,1.33,1.33,0,0,1,.07-.45,1.08,1.08,0,0,1,.21-.36,1,1,0,0,1,.29-.23,2.43,2.43,0,0,1,.34-.16l.8-.28a6,6,0,0,0,.81-.32v-.43a2,2,0,0,0,0-.22.92.92,0,0,0-.1-.31.89.89,0,0,0-.25-.28.75.75,0,0,0-.45-.12,1,1,0,0,0-.37.07.67.67,0,0,0-.24.14,1.15,1.15,0,0,0,0,.26,1.36,1.36,0,0,1,0,.32.38.38,0,0,1-.14.28.55.55,0,0,1-.38.13.36.36,0,0,1-.32-.16.61.61,0,0,1,0-.73,1.43,1.43,0,0,1,.37-.33,2,2,0,0,1,.48-.21,1.91,1.91,0,0,1,.55-.08,3.61,3.61,0,0,1,.64.05,1.18,1.18,0,0,1,.5.22,1,1,0,0,1,.34.44,1.87,1.87,0,0,1,.12.72q0,.63,0,1.11t0,1.06a.53.53,0,0,0,.06.27.48.48,0,0,0,.18.17.44.44,0,0,0,.21,0h.29Zm-1.53-2.32-.65.22a2.71,2.71,0,0,0-.52.26,1.2,1.2,0,0,0-.35.35.9.9,0,0,0-.13.49.69.69,0,0,0,.19.54.7.7,0,0,0,.49.17,1,1,0,0,0,.55-.15,1.58,1.58,0,0,0,.4-.36Z" transform="translate(-9.47 -7.16)"/><path class="cls-6" d="M179.36,27.34h-2V27l.2,0,.18,0a.32.32,0,0,0,.18-.14.49.49,0,0,0,.06-.26V24.37a1.07,1.07,0,0,0-.21-.7.65.65,0,0,0-.52-.25,1.22,1.22,0,0,0-.4.07,1.28,1.28,0,0,0-.35.18,1.11,1.11,0,0,0-.21.21l-.13.19v2.5a.53.53,0,0,0,.05.25.34.34,0,0,0,.18.15l.18.06.21,0v.29h-2.06V27l.2,0,.17,0a.31.31,0,0,0,.18-.14.49.49,0,0,0,.06-.26V24.37a1.07,1.07,0,0,0-.21-.7.65.65,0,0,0-.52-.25,1.19,1.19,0,0,0-.41.07,1.35,1.35,0,0,0-.35.19,1.07,1.07,0,0,0-.22.22l-.13.18v2.48a.47.47,0,0,0,.06.25.38.38,0,0,0,.18.15l.19.07.15,0v.3h-2V27h.14l.19,0a.31.31,0,0,0,.18-.14.49.49,0,0,0,.06-.26V23.91a.5.5,0,0,0-.06-.25.59.59,0,0,0-.18-.19.72.72,0,0,0-.21-.08l-.25,0v-.29l1.45-.1.06.06v.62h0l.27-.26a2.5,2.5,0,0,1,.29-.24,1.43,1.43,0,0,1,.38-.18,1.72,1.72,0,0,1,.5-.07,1.18,1.18,0,0,1,.72.23,1.28,1.28,0,0,1,.43.55l.28-.27a2.29,2.29,0,0,1,.32-.25,1.46,1.46,0,0,1,.39-.18,1.7,1.7,0,0,1,.5-.07,1.1,1.1,0,0,1,.87.36,1.63,1.63,0,0,1,.32,1.11v2.2a.53.53,0,0,0,.05.25A.34.34,0,0,0,179,27l.2.06.16,0Z" transform="translate(-9.47 -7.16)"/><path class="cls-6" d="M181.55,27.34h-2V27h.14l.19,0a.32.32,0,0,0,.18-.14.5.5,0,0,0,.06-.26V23.93a.53.53,0,0,0-.06-.26.57.57,0,0,0-.18-.2.82.82,0,0,0-.24-.09l-.29,0v-.29l1.53-.1L181,23v3.53a.5.5,0,0,0,.06.25.34.34,0,0,0,.18.15l.19.06.14,0Zm-.48-5.73a.64.64,0,0,1-.16.44.52.52,0,0,1-.41.19.51.51,0,0,1-.39-.18.58.58,0,0,1-.16-.41.61.61,0,0,1,.16-.42.51.51,0,0,1,.39-.18.54.54,0,0,1,.41.17.55.55,0,0,1,.16.39" transform="translate(-9.47 -7.16)"/><path class="cls-6" d="M183.75,27.34h-2V27h.15l.19,0a.33.33,0,0,0,.18-.14.48.48,0,0,0,.06-.26v-5a.67.67,0,0,0-.07-.3.57.57,0,0,0-.18-.22.92.92,0,0,0-.29-.1l-.34-.05v-.28l1.63-.1.06.07v5.94a.5.5,0,0,0,.06.25.36.36,0,0,0,.18.15l.19.07.15,0Z" transform="translate(-9.47 -7.16)"/><path class="cls-6" d="M183.52,28.75a.52.52,0,0,1,.12-.36.38.38,0,0,1,.3-.14.52.52,0,0,1,.24.05.71.71,0,0,1,.18.13,1.21,1.21,0,0,1,.14.18l.12.19a1.75,1.75,0,0,0,.52-.62,5,5,0,0,0,.44-.88l-.76-1.86-.71-1.7a.63.63,0,0,0-.28-.31,1.17,1.17,0,0,0-.4-.14V23h2v.31a1.37,1.37,0,0,0-.32.05c-.12,0-.18.08-.18.14l.07.19q.17.43.51,1.25t.53,1.31l.41-1q.21-.5.48-1.19l.09-.23a.71.71,0,0,0,.06-.25c0-.08-.07-.15-.2-.21a1.2,1.2,0,0,0-.38-.12V23h1.61v.27a1.09,1.09,0,0,0-.35.15.79.79,0,0,0-.32.37Q186.9,25,186.49,26t-.62,1.47a8.06,8.06,0,0,1-.49,1A2.88,2.88,0,0,1,185,29a1.23,1.23,0,0,1-.37.25.93.93,0,0,1-.34.06.82.82,0,0,1-.54-.16.48.48,0,0,1-.2-.37" transform="translate(-9.47 -7.16)"/><text class="cls-7" transform="translate(150.8 39.37)"><tspan class="cls-8">Symposium 2</tspan><tspan x="15.77" y="0">0</tspan></text><text class="cls-7" transform="translate(168.09 39.37)"><tspan class="cls-9">1</tspan><tspan x="1.31" y="0">3</tspan></text><text class="cls-10" transform="translate(141.63 43.37)"><tspan class="cls-11">ACCELER</tspan><tspan x="12.26" y="0">A</tspan></text><text class="cls-10" transform="translate(155.57 43.37)"><tspan class="cls-11">TING INNO</tspan><tspan x="14.86" y="0">V</tspan></text><text class="cls-10" transform="translate(172.04 43.37)">A</text><text class="cls-10" transform="translate(173.73 43.37)"><tspan class="cls-11">TIO</tspan><tspan x="4.64" y="0">N</tspan></text><text class="cls-12" transform="translate(141.56 46.74)"><tspan class="cls-13">T</tspan><tspan x="1.04" y="0">e</tspan></text><text class="cls-12" transform="translate(143.85 46.74)">lling the Brain Story to Inspir</text><text class="cls-12" transform="translate(171.86 46.74)">e Action</text><line class="cls-14" x1="141.7" y1="34.56" x2="180.36" y2="34.56"/></g><g class="cls-15"><g class="cls-16"><g class="cls-17"><g class="cls-18"><g class="cls-19"><path class="cls-20" d="M25.1,29.67v6.86a2.41,2.41,0,0,0,2.59,2.25A2.69,2.69,0,0,0,30,37.61h.26a2.43,2.43,0,0,0,2.51-1.85,2,2,0,0,0,1.75-1.83,5.88,5.88,0,0,0-.45-2.2A2.22,2.22,0,0,0,35.33,30l-.8-1.19.65-1.21a18.34,18.34,0,0,0-5.28.23,27.69,27.69,0,0,0-4.28,1Z" transform="translate(-9.47 -7.16)"/></g></g></g><g class="cls-17"><g class="cls-21"><g class="cls-21"><path class="cls-20" d="M15,34.44c.18.91.48,1.2,1.55,1.29a2.43,2.43,0,0,0,2.51,1.85h.26a2.69,2.69,0,0,0,2.32,1.17,2.51,2.51,0,0,0,2.69-2.25V29.33a25.63,25.63,0,0,0-4.92,2.11,31.83,31.83,0,0,0-4.4,3" transform="translate(-9.47 -7.16)"/></g></g></g><path class="cls-22" d="M35.53,30.33a1.71,1.71,0,0,0-.7-1.35,2.54,2.54,0,0,0,.42-1.37l-.7-.07a2.16,2.16,0,0,1-.31,1.07,2.51,2.51,0,0,0-1-.18c-.22,0-.37.12-.37.31s.15.31.37.31a1.44,1.44,0,0,1,1.55,1.29,1.38,1.38,0,0,1-1,1.2m0,0a2.55,2.55,0,0,0-1.25-.37c-.22,0-.37.12-.37.31s.15.31.37.31c1.57,0,1.72,1.72,1.48,2.56a1.52,1.52,0,0,1-1.48,1.15h-.15c-.22,0-.37.12-.37.31a1.83,1.83,0,0,1-3.61,0c0-.18-.15-.31-.37-.31s-.37.12-.37.31a2.16,2.16,0,0,0,1.55,2,2.1,2.1,0,0,1-1.58.71,1.82,1.82,0,0,1-2-1.63v-3c4.27,0,4.27.25,4.27,1.38,0,.18.15.31.37.31s.37-.12.37-.31c0-1.87-1.07-2-5-2v-1.8c3.44,0,3.44-.15,3.44-2,0-.18-.15-.31-.37-.31s-.37.12-.37.31c0,1.11.07,1.38-2.7,1.38v-2L25,29v7.82a2.51,2.51,0,0,0,2.69,2.24A2.69,2.69,0,0,0,30,37.94h.26a2.43,2.43,0,0,0,2.5-1.84,2.13,2.13,0,0,0,1.91-1.78A3.48,3.48,0,0,0,34.39,32a1.83,1.83,0,0,0,1.14-1.66" transform="translate(-9.47 -7.16)"/><path class="cls-22" d="M23.68,29.55v1.29c-1.51,0-2-.1-2.14-.42l-.75.38c.62.8,1.26.66,2.89.66v1.8c-3.9,0-5,.12-5,2,0,.18.15.31.37.31s.37-.12.37-.31c0-1.14,0-1.38,4.27-1.38v3a1.82,1.82,0,0,1-2,1.63,2.1,2.1,0,0,1-1.58-.71,2.15,2.15,0,0,0,1.55-2c0-.18-.15-.31-.37-.31s-.37.12-.37.31a1.68,1.68,0,0,1-1.8,1.51,1.68,1.68,0,0,1-1.8-1.51c0-.18-.15-.31-.37-.31h-.15a2,2,0,0,1-1.53-1.34l-.55.41a2,2,0,0,0,1.85,1.55,2.43,2.43,0,0,0,2.5,1.84h.26a2.69,2.69,0,0,0,2.32,1.17,2.51,2.51,0,0,0,2.69-2.24V29.26Z" transform="translate(-9.47 -7.16)"/><path class="cls-23" d="M9.47,31.44a33.22,33.22,0,0,1,10.9-6A32.35,32.35,0,0,1,27.87,24c2.66-.19,8.81-.64,10.91,2.35a3.69,3.69,0,0,1,.74,2.2A4.09,4.09,0,0,1,38,31.44a4.76,4.76,0,0,0,.37-.93A2.4,2.4,0,0,0,38,28.31c-1.23-1.69-8.71-1.89-16.78,1.86a32.26,32.26,0,0,0-9.45,6.51Z" transform="translate(-9.47 -7.16)"/><g class="cls-24"><g class="cls-25"><g class="cls-26"><path class="cls-27" d="M14.9,27.79,17,32.49s1.36-.86,3-1.73a36.36,36.36,0,0,1,4.3-1.84,29.3,29.3,0,0,1,4.81-1.31c1.37-.25,2.38-.36,2.38-.36L31,23.87a39.55,39.55,0,0,0-8.32.92,31.92,31.92,0,0,0-7.77,3" transform="translate(-9.47 -7.16)"/></g></g></g><path class="cls-23" d="M15.84,31.9l.11-.07.3-.18.2-.12.23-.13.25-.13.26-.14.26-.13.25-.13.45-.21.32-.15.12-.05a.07.07,0,0,1,.1,0,.07.07,0,0,1,0,.09l-.4.27-.41.27-.23.15-.24.16-.24.15-.23.15-.22.15-.2.13-.29.19-.11.07h0a.24.24,0,0,1-.33-.05.23.23,0,0,1,.09-.31" transform="translate(-9.47 -7.16)"/><path class="cls-23" d="M16.09,32.48l.11-.07.3-.18.2-.12.23-.13.25-.13.26-.14.26-.13.25-.13.45-.21.32-.15.12-.05a.07.07,0,0,1,.1,0,.07.07,0,0,1,0,.09l-.4.27-.41.27-.23.15-.24.16-.24.15-.23.15-.22.15-.2.13-.29.19-.11.07h0a.24.24,0,0,1-.33-.05.23.23,0,0,1,.09-.31" transform="translate(-9.47 -7.16)"/><path class="cls-23" d="M15.57,31.41l.11-.07.3-.18.2-.12.23-.13.25-.13.26-.14.26-.13.25-.13.45-.21L18.2,30l.12-.05a.07.07,0,0,1,.1,0,.07.07,0,0,1,0,.09l-.4.27-.41.27-.23.15-.24.16-.24.15-.23.15-.22.15-.2.13-.29.19-.11.07h0a.24.24,0,0,1-.33-.05.23.23,0,0,1,.09-.31" transform="translate(-9.47 -7.16)"/><path class="cls-23" d="M15.3,30.92l.11-.07.3-.18.2-.12.23-.13.25-.13.26-.14.26-.13.25-.13.45-.21.32-.15.12-.05a.07.07,0,0,1,.1,0,.07.07,0,0,1,0,.09l-.4.27-.41.27-.23.15-.24.16-.24.15-.23.15-.22.15-.2.13-.29.19-.11.07h0a.24.24,0,0,1-.33-.05.23.23,0,0,1,.09-.31" transform="translate(-9.47 -7.16)"/><path class="cls-23" d="M15,30.43l.11-.07.3-.18.2-.12.23-.13.25-.13.26-.14.26-.13.25-.13.45-.21.32-.15.12-.05a.07.07,0,0,1,.1,0,.07.07,0,0,1,0,.09l-.4.27-.41.27-.23.15-.24.16-.24.15-.23.15-.22.15-.2.13-.29.19-.11.07h0a.24.24,0,0,1-.33-.05.23.23,0,0,1,.09-.31" transform="translate(-9.47 -7.16)"/><path class="cls-23" d="M14.76,29.94l.11-.07.3-.18.2-.12.23-.13.25-.13.26-.14.26-.13.25-.13.45-.21.32-.15.12-.05a.07.07,0,0,1,.1,0,.07.07,0,0,1,0,.09l-.4.27-.41.27-.23.15-.24.16-.24.15-.23.15-.22.15-.2.13-.29.19L15,30.3h0a.24.24,0,0,1-.33-.05.23.23,0,0,1,.09-.31" transform="translate(-9.47 -7.16)"/><path class="cls-23" d="M14.5,29.45l.11-.07.3-.18.2-.12.23-.13.25-.13.26-.14.26-.13.25-.13.45-.21.32-.15.12-.05a.07.07,0,0,1,.1,0,.07.07,0,0,1,0,.09l-.4.27-.41.27-.23.15L16,29l-.24.15-.23.15-.22.15-.2.13-.29.19-.11.07h0a.24.24,0,0,1-.33-.05.23.23,0,0,1,.09-.31" transform="translate(-9.47 -7.16)"/><path class="cls-23" d="M14.23,29l.11-.07.3-.18.2-.12.23-.13.25-.13.26-.14.26-.13.25-.13.45-.21.32-.15.12-.05a.07.07,0,0,1,.1,0,.07.07,0,0,1,0,.09l-.4.27-.41.27-.23.15-.24.16-.24.15-.23.15-.22.15-.2.13-.29.19-.11.07h0a.24.24,0,0,1-.33-.05.23.23,0,0,1,.09-.31" transform="translate(-9.47 -7.16)"/><path class="cls-23" d="M14,28.47l.11-.07.3-.18.2-.12L14.8,28l.25-.13.26-.14.26-.13.25-.13.45-.21.32-.15.12-.05a.07.07,0,0,1,.1,0,.07.07,0,0,1,0,.09l-.4.27-.41.27-.23.15-.24.16-.24.15L15,28.3l-.22.15-.2.13-.29.19-.11.07h0a.24.24,0,0,1-.33-.05.23.23,0,0,1,.09-.31" transform="translate(-9.47 -7.16)"/><path class="cls-23" d="M32.05,26.79h-.82l-.24,0-.24,0-.24,0-.24,0-.41.06-.29,0-.11,0a.06.06,0,1,0,0,.12h2.6a.2.2,0,0,0,.2-.19.19.19,0,0,0-.21-.18" transform="translate(-9.47 -7.16)"/><path class="cls-23" d="M32,26.32h-.82l-.24,0-.24,0-.24,0-.24,0-.41.06-.29,0-.11,0a.06.06,0,1,0,0,.12H32a.2.2,0,0,0,.2-.19.19.19,0,0,0-.21-.18" transform="translate(-9.47 -7.16)"/><path class="cls-23" d="M32,25.86h-.82l-.24,0-.24,0-.24,0-.24,0-.41.06-.29,0-.11,0a.06.06,0,1,0,0,.12H32a.2.2,0,0,0,.2-.19.19.19,0,0,0-.21-.18" transform="translate(-9.47 -7.16)"/><path class="cls-23" d="M31.93,25.39h-.82l-.24,0-.24,0-.24,0-.24,0-.41.06-.29,0-.11,0a.06.06,0,1,0,0,.12h2.6a.2.2,0,0,0,.2-.19.19.19,0,0,0-.21-.18" transform="translate(-9.47 -7.16)"/><path class="cls-23" d="M31.89,24.92h-.82l-.24,0-.24,0-.24,0-.24,0-.41.06-.29,0-.11,0a.06.06,0,1,0,0,.12h2.6a.2.2,0,0,0,.2-.19.19.19,0,0,0-.21-.18" transform="translate(-9.47 -7.16)"/><path class="cls-23" d="M31.85,24.45H31l-.24,0-.24,0-.24,0-.24,0-.41.06-.29,0-.11,0a.06.06,0,1,0,0,.12h2.6a.2.2,0,0,0,.2-.19.19.19,0,0,0-.21-.18" transform="translate(-9.47 -7.16)"/><path class="cls-23" d="M31.81,24H31l-.24,0-.24,0-.24,0-.24,0-.41.06-.29,0-.11,0a.06.06,0,1,0,0,.12h2.6a.2.2,0,0,0,.2-.19.19.19,0,0,0-.21-.18" transform="translate(-9.47 -7.16)"/><path class="cls-22" d="M14,27.88h0a10.67,10.67,0,0,1,1.33-4.82h3.45c-.07.25-.11.4-.2.76s-.25,1.21-.36,2l.82-.31c.12-.73.25-1.46.29-1.64s.15-.57.23-.84h4.81v1l.74-.12v-.92h4.81l.14.48.76,0c0-.18-.08-.3-.13-.47h3.45c.16.29.28.52.38.73q.46.08.88.18a11.5,11.5,0,0,0-10.55-7.21h-.21A11.49,11.49,0,0,0,13.2,28.31v0l.77-.45m19.67-5.56H30.4a9.91,9.91,0,0,0-2.79-4.41,10.78,10.78,0,0,1,6,4.41m-8.59-4.79c1.84.21,3.54,2,4.56,4.79H25.05Zm-.74,0v4.79H19.75c1-2.76,2.72-4.58,4.56-4.79m-2.56.38A9.92,9.92,0,0,0,19,22.32H15.72a10.78,10.78,0,0,1,6-4.41" transform="translate(-9.47 -7.16)"/><path class="cls-28" d="M44.76,20.48H46c1.93,0,3.76.5,3.76,2.82a2.21,2.21,0,0,1-1.1,1.95v0a2.65,2.65,0,0,1,2.06,2.6c0,2.06-1.76,2.87-3.57,2.87h-2.4ZM46,25h.33c1.21,0,2.21-.25,2.21-1.72s-1-1.69-2.18-1.69H46Zm0,4.58h1c1.19,0,2.43-.35,2.43-1.81S48,26,46.83,26H46Z" transform="translate(-9.47 -7.16)"/><path class="cls-28" d="M58.48,30.75H56.93l-3-4.34h-.53v4.34H52.09V20.48h1.55a5.43,5.43,0,0,1,2.71.48A2.84,2.84,0,0,1,57.7,23.4a2.8,2.8,0,0,1-2.47,2.87Zm-5.11-5.41h.41c1.31,0,2.72-.25,2.72-1.88S55,21.62,53.71,21.62h-.34Z" transform="translate(-9.47 -7.16)"/><path class="cls-28" d="M60.88,28.17,59.7,30.75H58.33L63.23,20l4.9,10.71H66.76l-1.17-2.57Zm2.36-5.33L61.41,27h3.65Z" transform="translate(-9.47 -7.16)"/><rect class="cls-28" x="59.41" y="13.32" width="1.28" height="10.27"/><polygon class="cls-28" points="62.42 12.83 70.13 20.9 70.13 13.32 71.41 13.32 71.41 24.01 63.7 15.93 63.7 23.59 62.42 23.59 62.42 12.83"/><path class="cls-28" d="M91.8,22.17A2.35,2.35,0,0,0,89.71,21a1.93,1.93,0,0,0-1.93,2c0,1.08,1,1.53,1.85,1.92l2,1a2.24,2.24,0,0,1,1.17,2,3.2,3.2,0,0,1-6.24.78l.57-.26a2.61,2.61,0,0,0,2.48,1.85,2.5,2.5,0,0,0,2.53-2.43c0-1.16-1.19-1.65-2.07-2.08l-1.85-1a2.06,2.06,0,0,1-1.06-1.84,2.51,2.51,0,0,1,2.63-2.6,2.88,2.88,0,0,1,2.51,1.44Z" transform="translate(-9.47 -7.16)"/><polygon class="cls-28" points="86.93 23.59 86.28 23.59 86.28 13.93 83.62 13.93 83.62 13.32 89.59 13.32 89.59 13.93 86.93 13.93 86.93 23.59"/><path class="cls-28" d="M109.94,25.61a5.33,5.33,0,1,1-5.33-5.27,5.35,5.35,0,0,1,5.33,5.27m-10,0A4.67,4.67,0,1,0,104.62,21a4.7,4.7,0,0,0-4.67,4.66" transform="translate(-9.47 -7.16)"/><path class="cls-28" d="M116.28,30.75h-.75l-3.35-4.86h-.33v4.86h-.65V20.48h1.28a3.78,3.78,0,0,1,2.34.52,2.58,2.58,0,0,1,1,2.21,2.59,2.59,0,0,1-2.94,2.68Zm-3.6-5.48a2.56,2.56,0,0,0,1.8-.48,2.06,2.06,0,0,0,.72-1.62,2,2,0,0,0-1.09-1.85,4.38,4.38,0,0,0-1.84-.23h-.42v4.18Z" transform="translate(-9.47 -7.16)"/><polygon class="cls-28" points="106.71 13.32 107.43 13.32 110.46 18.52 113.48 13.32 114.2 13.32 110.78 19.2 110.78 23.59 110.13 23.59 110.13 19.2 106.71 13.32"/><path class="cls-29" d="M48.64,35a2,2,0,0,0-3.25,1.53,1.94,1.94,0,0,0,3.25,1.49v.73a2.66,2.66,0,0,1-1.29.35,2.55,2.55,0,0,1-2.57-2.54A2.59,2.59,0,0,1,47.4,34a2.38,2.38,0,0,1,1.24.33Z" transform="translate(-9.47 -7.16)"/><polygon class="cls-29" points="42.7 26.95 45.34 26.95 45.34 27.51 43.31 27.51 43.31 28.89 45.28 28.89 45.28 29.45 43.31 29.45 43.31 31.32 45.34 31.32 45.34 31.88 42.7 31.88 42.7 26.95"/><path class="cls-29" d="M61.43,39h-.74L59.24,37H59V39h-.62V34.11h.75a2.6,2.6,0,0,1,1.3.23,1.36,1.36,0,0,1,.65,1.18,1.34,1.34,0,0,1-1.18,1.38ZM59,36.44h.2c.63,0,1.31-.12,1.31-.9s-.73-.88-1.34-.88H59Z" transform="translate(-9.47 -7.16)"/><polygon class="cls-29" points="56.44 31.88 55.82 31.88 55.82 27.51 54.65 27.51 54.65 26.95 57.61 26.95 57.61 27.51 56.44 27.51 56.44 31.88"/><rect class="cls-29" x="60.86" y="26.95" width="0.62" height="4.93"/><polygon class="cls-29" points="65.8 27.51 65.8 28.9 67.51 28.9 67.51 29.46 65.8 29.46 65.8 31.88 65.18 31.88 65.18 26.95 67.57 26.95 67.57 27.51 65.8 27.51"/><rect class="cls-29" x="71.06" y="26.95" width="0.62" height="4.93"/><path class="cls-29" d="M88.45,35a2,2,0,0,0-3.25,1.53,1.94,1.94,0,0,0,3.25,1.49v.73a2.66,2.66,0,0,1-1.29.35,2.55,2.55,0,0,1-2.57-2.54A2.59,2.59,0,0,1,87.21,34a2.38,2.38,0,0,1,1.24.33Z" transform="translate(-9.47 -7.16)"/><path class="cls-29" d="M92.68,37.8,92.12,39h-.66l2.35-5.14L96.16,39H95.5l-.56-1.24Zm1.13-2.56-.88,2h1.75Z" transform="translate(-9.47 -7.16)"/><polygon class="cls-29" points="90.7 31.88 90.08 31.88 90.08 27.51 88.91 27.51 88.91 26.95 91.87 26.95 91.87 27.51 90.7 27.51 90.7 31.88"/><rect class="cls-29" x="95.12" y="26.95" width="0.62" height="4.93"/><path class="cls-29" d="M113.75,36.57a2.58,2.58,0,0,1-5.17,0,2.58,2.58,0,0,1,5.17,0m-.62,0a2,2,0,1,0-3.94,0,2,2,0,1,0,3.94,0" transform="translate(-9.47 -7.16)"/><polygon class="cls-29" points="107.6 26.71 111.3 30.59 111.3 26.95 111.92 26.95 111.92 32.08 108.22 28.2 108.22 31.88 107.6 31.88 107.6 26.71"/></g></g><line class="cls-30" x1="128.65" x2="128.65" y2="44.99"/><g class="cls-31"><path class="cls-6" d="M211.16,23.85a7.33,7.33,0,0,0-4.48-1.23h-4.86a2.57,2.57,0,0,1,.79,1.8,6.31,6.31,0,0,1,.09,1.13V35.3a3.39,3.39,0,0,1-.38,1.86,1.64,1.64,0,0,1-1.41.66v.34h5.69v-.34a1.67,1.67,0,0,1-1.41-.64,3.51,3.51,0,0,1-.38-1.94v-12h2a5.23,5.23,0,0,1,.63,0,2.82,2.82,0,0,1,1.12.3,3.23,3.23,0,0,1,1.07.76,6.35,6.35,0,0,1,.77,1.27c.73,1.74.18,3.62-1.25,4.13a3.2,3.2,0,0,1-3.8-2,2.8,2.8,0,0,0,.41,1.94,2.87,2.87,0,0,0,1.3,1.1,4.68,4.68,0,0,0,4.25-.37A4,4,0,0,0,212.81,27a3.8,3.8,0,0,0-1.65-3.18" transform="translate(-9.47 -7.16)"/><path class="cls-6" d="M212.46,34.52h1.4c.67,0,1.28.2,1.28,1a1.15,1.15,0,0,1-.51,1,2,2,0,0,1-1,.24,2.45,2.45,0,0,1-.6-.07l-.24,1c0,.17,0,.25.12.26l.37,0,0,.16h-1.57l0-.16.29,0c.13,0,.18-.08.22-.26l.65-2.78c0-.17,0-.25-.12-.26l-.31,0Zm.64,1.85c0,.16.2.22.46.22.63,0,1-.38,1-1.14a.7.7,0,0,0-.8-.75c-.26,0-.28,0-.31.19Z" transform="translate(-9.47 -7.16)"/><path class="cls-6" d="M217.86,35.59l-.57,2.09c0,.17,0,.28.05.28s.38-.37.48-.56l.14.08c-.19.41-.49.78-.9.78s-.37-.22-.25-.61l.17-.55h0c-.31.53-.81,1.15-1.39,1.15-.39,0-.5-.28-.5-.64,0-.7.59-2.09,1.86-2.09a.76.76,0,0,1,.43.12l0-.07Zm-.87.14c-.83,0-1.35,1.29-1.35,1.87,0,.21.05.36.22.36.49,0,1.17-1.19,1.33-1.71l.13-.42a.48.48,0,0,0-.33-.11" transform="translate(-9.47 -7.16)"/><path class="cls-6" d="M219.51,37.5a1.09,1.09,0,0,1-.89.76c-.29,0-.36-.22-.29-.53l.74-3c.05-.2,0-.24-.11-.25l-.3,0,0-.12,1-.12,0,0-.87,3.42c0,.17,0,.29,0,.29s.38-.32.5-.56Z" transform="translate(-9.47 -7.16)"/><path class="cls-6" d="M221.12,37.49c-.18.4-.48.76-.87.76s-.37-.22-.29-.53l.45-1.64c.05-.18,0-.23-.11-.24l-.31,0,0-.14,1-.15,0,0-.58,2.11c0,.16-.06.29,0,.29s.39-.37.49-.56Zm.14-2.75a.34.34,0,0,1-.35.37.28.28,0,0,1-.3-.3.34.34,0,0,1,.35-.35.27.27,0,0,1,.29.29" transform="translate(-9.47 -7.16)"/><path class="cls-6" d="M221.58,35.8l.93-.26,0,0,.24.93h0c.43-.67.7-1,1-1,.15,0,.25.08.25.21a.36.36,0,0,1-.25.3.16.16,0,0,1-.11,0,.33.33,0,0,0-.17-.06c-.14,0-.43.36-.69.78.06.26.16.63.22.84s.14.39.23.39.29-.19.43-.49l.15.08c-.17.38-.42.73-.8.73s-.34-.14-.44-.51l-.14-.52h0c-.34.54-.57,1-1,1-.22,0-.34-.12-.34-.27s.13-.29.25-.29a.18.18,0,0,1,.1,0,.46.46,0,0,0,.22.11c.2,0,.53-.54.71-.87l-.25-.89c-.05-.18-.1-.19-.21-.18l-.39,0Z" transform="translate(-9.47 -7.16)"/><path class="cls-6" d="M225.93,34.52h2.76l-.21.88h-.16c0-.65,0-.69-.62-.69h-.63c-.1,0-.13,0-.16.16l-.34,1.45h.74c.47,0,.53-.08.67-.46h.17L227.9,37h-.17c0-.34,0-.46-.46-.46h-.74l-.29,1.24c0,.16,0,.24.13.25l.39,0,0,.16h-1.6l0-.16.3,0c.13,0,.18-.09.22-.25l.65-2.81c0-.15,0-.22-.12-.24l-.31,0Z" transform="translate(-9.47 -7.16)"/><path class="cls-6" d="M231,36.47a2.17,2.17,0,0,1-.34,1.11,1.37,1.37,0,0,1-1.22.68.89.89,0,0,1-1-1A1.7,1.7,0,0,1,230,35.53a.88.88,0,0,1,1,.94m-2,1c0,.37.17.56.47.56.73,0,1-1.41,1-1.79s-.11-.56-.45-.56c-.69,0-1,1.22-1,1.79" transform="translate(-9.47 -7.16)"/><path class="cls-6" d="M234.14,35.54l-.57,2.15c0,.16-.06.28.05.28s.4-.36.51-.56l.13.09a1.15,1.15,0,0,1-.91.76c-.29,0-.35-.22-.25-.58l.16-.55h0c-.33.61-.86,1.14-1.38,1.14s-.47-.35-.36-.78l.37-1.39c0-.16.05-.24-.08-.25l-.33,0,0-.14,1-.15,0,0L232,37.5c-.08.3,0,.45.13.45.42,0,.9-.71,1.14-1.25a8.79,8.79,0,0,0,.39-1.11Z" transform="translate(-9.47 -7.16)"/><path class="cls-6" d="M234.58,38.25l.57-2.16c0-.17,0-.24-.08-.25l-.33,0,0-.14,1-.15,0,0-.33,1.1h0c.35-.64.85-1.13,1.38-1.13s.51.36.38.78l-.42,1.37c-.05.16-.06.29,0,.29s.41-.37.51-.56l.13.1a1.09,1.09,0,0,1-.9.75c-.29,0-.37-.23-.27-.53l.46-1.52c.06-.2,0-.37-.17-.37-.42,0-.93.78-1.13,1.23a8.65,8.65,0,0,0-.4,1.14Z" transform="translate(-9.47 -7.16)"/><path class="cls-6" d="M240.86,34.23l0,0L240,37.67c0,.17,0,.29,0,.29s.39-.38.49-.57l.14.1c-.18.4-.48.76-.9.76s-.35-.22-.25-.6c.06-.19.11-.39.17-.58h0c-.32.57-.78,1.17-1.4,1.17-.43,0-.54-.37-.54-.71,0-.64.57-2,1.82-2a1,1,0,0,1,.46.11l.22-.91c0-.17,0-.2-.1-.22l-.31,0,0-.12ZM238.57,38c.52,0,1.18-1.2,1.31-1.73,0-.15.07-.26.11-.41a.7.7,0,0,0-.36-.1c-.85,0-1.31,1.29-1.31,1.87,0,.23.08.37.25.37" transform="translate(-9.47 -7.16)"/><path class="cls-6" d="M243.72,35.59l-.57,2.09c0,.17,0,.28.05.28s.38-.37.48-.56l.14.08c-.19.41-.49.78-.9.78s-.37-.22-.25-.61l.17-.55h0c-.31.53-.81,1.15-1.39,1.15-.39,0-.5-.28-.5-.64,0-.7.59-2.09,1.86-2.09a.76.76,0,0,1,.43.12l0-.07Zm-.87.14c-.83,0-1.35,1.29-1.35,1.87,0,.21.05.36.22.36.49,0,1.17-1.19,1.33-1.71l.13-.42a.48.48,0,0,0-.33-.11" transform="translate(-9.47 -7.16)"/><path class="cls-6" d="M245.24,35.81l-.47,1.91c0,.13,0,.25.07.25s.44-.34.57-.56l.12.1a1.23,1.23,0,0,1-1,.75c-.27,0-.34-.22-.26-.53l.48-1.92h-.45l.06-.21h.44l.13-.48.49-.28.06,0-.19.72h.63l-.06.21Z" transform="translate(-9.47 -7.16)"/><path class="cls-6" d="M247.2,37.49c-.18.4-.48.76-.87.76S246,38,246,37.72l.45-1.64c.05-.18,0-.23-.11-.24l-.31,0,0-.14,1-.15,0,0-.58,2.11c0,.16-.06.29,0,.29s.39-.37.49-.56Zm.14-2.75a.34.34,0,0,1-.35.37.28.28,0,0,1-.3-.3.34.34,0,0,1,.35-.35.27.27,0,0,1,.29.29" transform="translate(-9.47 -7.16)"/><path class="cls-6" d="M250.11,36.47a2.17,2.17,0,0,1-.34,1.11,1.37,1.37,0,0,1-1.22.68.89.89,0,0,1-1-1,1.7,1.7,0,0,1,1.59-1.76.88.88,0,0,1,1,.94m-2,1c0,.37.17.56.47.56.73,0,1-1.41,1-1.79s-.11-.56-.45-.56c-.69,0-1,1.22-1,1.79" transform="translate(-9.47 -7.16)"/></g><g class="cls-32"><path class="cls-6" d="M250.5,38.25l.57-2.16c0-.17,0-.24-.08-.25l-.33,0,0-.14,1-.15,0,0-.33,1.1h0c.35-.64.85-1.13,1.38-1.13s.51.36.38.78l-.42,1.37c-.05.16-.06.29,0,.29s.41-.37.51-.56l.13.1a1.09,1.09,0,0,1-.9.75c-.29,0-.37-.23-.27-.53l.46-1.52c.06-.2,0-.37-.17-.37-.42,0-.93.78-1.13,1.23a8.7,8.7,0,0,0-.4,1.14Z" transform="translate(-9.47 -7.16)"/><path class="cls-6" d="M202,25.66s.71-3.5-3.26-3.79c.91,2.29,2.73,3,3.26,3.79" transform="translate(-9.47 -7.16)"/></g><g class="cls-31"><path class="cls-6" d="M202,25.52c-.08-.84-1.72-1.95-3.06.05,1.75-.48,3.14.78,3.06-.05" transform="translate(-9.47 -7.16)"/></g></svg>