<?xml version="1.0" encoding="utf-8"?>
<!-- Generator: Adobe Illustrator 19.0.0, SVG Export Plug-In . SVG Version: 6.00 Build 0)  -->
<svg version="1.1" id="Layer_1" xmlns="http://www.w3.org/2000/svg" xmlns:xlink="http://www.w3.org/1999/xlink" x="0px" y="0px"
	 viewBox="0 0 283.5 102" style="enable-background:new 0 0 283.5 102;" xml:space="preserve">
<style type="text/css">
	.st0{fill:#4C78BC;}
	.st1{fill:#D2D5E1;}
	.st2{fill:#14B8EC;}
</style>
<g id="XMLID_41_">
	<g>
		<g id="XMLID_135_">
			<path id="XMLID_146_" class="st0" d="M1.4,100.1V37.4H17v50.1h24.3v12.6H1.4z"/>
			<path id="XMLID_143_" class="st0" d="M58.3,80.3c0.1,1.7,0.4,3.2,1.1,4.4s1.5,2.2,2.6,3s2.3,1.4,3.6,1.7s2.8,0.5,4.3,0.5
				s2.9-0.2,4.3-0.5s2.7-0.7,3.9-1.1s2.3-0.9,3.2-1.4c0.9-0.5,1.6-1,2.1-1.4l4.9,8.8c-1.3,1.3-3,2.4-5,3.3c-1.7,0.8-3.9,1.6-6.4,2.3
				s-5.7,1-9.2,1s-6.9-0.5-9.9-1.6c-3-1.1-5.6-2.6-7.8-4.7c-2.2-2.1-3.9-4.6-5.1-7.6c-1.2-3-1.8-6.5-1.8-10.4c0-4,0.6-7.5,1.9-10.5
				s3-5.6,5.1-7.7s4.8-3.6,7.8-4.7s6.2-1.6,9.7-1.6c3.5,0,6.6,0.6,9.4,1.8c2.7,1.2,5,2.8,6.9,5c1.9,2.1,3.3,4.7,4.3,7.6
				c1,3,1.5,6.2,1.5,9.8v4H58.3z M75.3,71.2c0-1.2-0.2-2.3-0.5-3.4c-0.3-1.1-0.8-2-1.5-2.9c-0.7-0.8-1.5-1.5-2.6-2
				c-1-0.5-2.3-0.7-3.7-0.7c-1.5,0-2.7,0.2-3.8,0.7c-1.1,0.5-2,1.2-2.7,2c-0.7,0.8-1.3,1.8-1.7,2.9c-0.4,1.1-0.7,2.2-0.8,3.4H75.3z"
				/>
			<path id="XMLID_140_" class="st0" d="M124.6,100.1c-0.2-0.5-0.4-1-0.5-1.6c-0.1-0.5-0.2-1-0.3-1.6c-0.1-0.6-0.1-1.2-0.1-1.8
				c-0.6,0.7-1.4,1.4-2.2,2.1s-1.8,1.4-2.9,1.9s-2.4,1.1-3.8,1.4c-1.4,0.4-3,0.6-4.8,0.6c-1.8,0-3.6-0.2-5.5-0.7
				c-1.9-0.5-3.6-1.3-5.1-2.4s-2.8-2.6-3.7-4.5c-1-1.8-1.4-4.1-1.4-6.9c0-2.7,0.5-4.9,1.6-6.7c1.1-1.8,2.4-3.2,4-4.2
				c1.5-1.1,3.1-1.8,4.8-2.4c1.6-0.5,3-0.9,4.1-1.2c1.1-0.2,2.3-0.4,3.6-0.6c1.3-0.2,2.6-0.3,3.9-0.4s2.5-0.2,3.8-0.2
				c1.2,0,2.3-0.1,3.3-0.1v-1.6c0-1.2-0.2-2.2-0.7-3c-0.5-0.8-1.1-1.5-1.8-2c-0.8-0.5-1.7-0.8-2.7-1c-1.1-0.2-2.2-0.3-3.4-0.3
				c-1.2,0-2.5,0.1-3.8,0.3c-1.3,0.2-2.6,0.5-3.8,0.9c-1.3,0.4-2.5,0.8-3.6,1.4s-2.2,1.1-3.1,1.6l-3.9-10.3c1.1-0.6,2.4-1.1,3.9-1.7
				c1.5-0.6,3.1-1.1,4.8-1.5c1.7-0.4,3.5-0.8,5.4-1c1.9-0.3,3.7-0.4,5.6-0.4c3.8,0,7.1,0.4,9.8,1.2c2.7,0.8,4.9,1.9,6.7,3.3
				c0.9,0.7,1.7,1.5,2.4,2.4c0.7,0.9,1.3,1.9,1.8,3c0.5,1.1,0.9,2.5,1.2,3.9c0.3,1.5,0.4,3.2,0.4,5.1V89c0,2.4,0.2,4.5,0.5,6.2
				c0.3,1.8,0.9,3.4,1.8,4.9L124.6,100.1z M123.1,79c-0.1,0-0.5,0-1,0c-0.5,0-1.1,0.1-1.8,0.1c-0.7,0-1.4,0.1-2.2,0.2
				c-0.8,0.1-1.5,0.1-2.1,0.2c-0.6,0.1-1.4,0.3-2.1,0.5c-0.8,0.2-1.5,0.6-2.1,1c-0.7,0.4-1.2,1-1.7,1.7s-0.7,1.5-0.7,2.5
				c0,1,0.2,1.9,0.5,2.6c0.3,0.7,0.8,1.3,1.3,1.7c0.5,0.5,1.2,0.8,1.9,1c0.7,0.2,1.4,0.3,2.2,0.3c1.5,0,3-0.4,4.4-1.2
				c1.4-0.8,2.6-2,3.4-3.7V79z"/>
			<path id="XMLID_138_" class="st0" d="M178.7,67c-0.4-0.1-0.8-0.2-1.2-0.3c-0.4-0.1-0.8-0.1-1.4-0.2c-0.5-0.1-1.1-0.1-1.7-0.1
				c-1,0-1.9,0.1-2.8,0.3s-1.7,0.6-2.6,1.1c-1.2,0.8-2.3,1.9-3.4,3.3s-1.7,3.2-2.2,5.3v23.7h-15.2V53.2h14.3l0.9,7.7
				c0.5-1.1,1.2-2.2,2.1-3.2c0.9-1,1.9-2,3-2.8s2.4-1.5,3.7-2c1.4-0.5,2.8-0.7,4.3-0.7c0.7,0,1.3,0,1.8,0.1c0.5,0,0.9,0.1,1.2,0.2
				c0.4,0.1,0.6,0.2,0.8,0.2L178.7,67z"/>
			<path id="XMLID_136_" class="st0" d="M217.1,100.1V73.6c0-1.3-0.1-2.5-0.3-3.6c-0.2-1.1-0.6-2-1.1-2.8s-1.2-1.4-2.1-1.8
				c-0.9-0.4-2-0.6-3.3-0.6c-1.3,0-2.5,0.3-3.5,0.8c-1,0.5-1.8,1.2-2.5,2c-0.7,0.8-1.2,1.7-1.7,2.7s-0.7,1.9-0.8,2.7v27.1h-15.2
				V53.2h14.3l0.9,7.2c0.7-1,1.5-2,2.4-3c0.9-1,2-1.9,3.2-2.6c1.2-0.8,2.5-1.4,4-1.9c1.5-0.5,3.1-0.7,4.9-0.7c2.9,0,5.4,0.4,7.4,1.3
				c2,0.9,3.7,2.1,4.9,3.7c1.3,1.6,2.2,3.5,2.8,5.8c0.6,2.3,0.9,4.8,0.9,7.5v29.6H217.1z"/>
		</g>
	</g>
	<g>
		<path id="XMLID_3_" class="st1" d="M235.6,15.4c6.7,1.9,36.5,24.7,28.1,34.7C253.4,61.4,228.7,21.8,235.6,15.4z"/>
		<path id="XMLID_2_" class="st2" d="M257.1,17.1c-7.4-2.7-13.4-6.7-18.6-4.4c-3.8,1.6-6.8,8.6,0.3,13.1c4.3,2.7,12.3,3.9,19.6,2.4
			c8.4-1.7,15.9-7.9,18.9-10.5c7.5-6.7,5.8-18.5-3.7-16.5C269.9,1.9,263,8,257.1,17.1z"/>
		<path id="XMLID_1_" class="st0" d="M280.9,4.5c-13.8,4.4-35,47-20.9,47.5C268.5,52.2,286.7,11.6,280.9,4.5z"/>
	</g>
</g>
</svg>
