<?xml version="1.0" encoding="utf-8"?>
<!-- Generator: Adobe Illustrator 19.0.0, SVG Export Plug-In . SVG Version: 6.00 Build 0)  -->
<svg version="1.1" id="Layer_1" xmlns="http://www.w3.org/2000/svg" xmlns:xlink="http://www.w3.org/1999/xlink" x="0px" y="0px"
	 viewBox="-71.3 87.3 178.6 79" style="enable-background:new -71.3 87.3 178.6 79;" xml:space="preserve">
<style type="text/css">
	.st0{fill:#E62644;}
	.st1{fill:#FFFFFF;}
</style>
<g>
	<polygon class="st0" points="-22.7,110.8 -60.6,110.8 -70.3,166 -32.4,166 	"/>
	<polygon class="st0" points="19.4,110.8 -18.6,110.8 -28.3,166 9.6,166 	"/>
	<polygon class="st0" points="61.4,110.8 23.4,110.8 13.7,166 51.6,166 	"/>
	<polygon class="st0" points="107.3,87.3 69.3,87.3 59.6,142.5 97.5,142.5 	"/>
	<g>
		<path class="st1" d="M-37.6,126.8h-9.7l-1.4,7.7h9.1l-1.2,6.6h-9l-1.5,8.5h10.6l-1.3,7.2h-18.2l6.4-37.1h17.4L-37.6,126.8z"/>
		<path class="st1" d="M8.8,134.2c0,2.6-0.3,5.3-0.9,8c-0.6,2.7-1.7,5.1-3.1,7.3c-1.4,2.2-3.3,3.9-5.7,5.3c-2.3,1.4-5.2,2.1-8.7,2.1
			h-10.7l6.4-37.1h9.8c2.3,0,4.3,0.3,5.9,1s3,1.7,4,3s1.8,2.8,2.3,4.6C8.6,130.1,8.8,132.1,8.8,134.2z M0.6,135
			c0-1.2-0.1-2.2-0.3-3.2c-0.2-1-0.5-1.9-0.9-2.6s-1-1.3-1.7-1.7c-0.7-0.4-1.5-0.6-2.5-0.6h-2.3l-4,23.2h2.4c1.5,0,2.9-0.5,4-1.4
			c1.2-0.9,2.1-2.1,2.9-3.5s1.4-3,1.8-4.8C0.4,138.5,0.6,136.8,0.6,135z"/>
		<path class="st1" d="M46.3,129.1c-0.5-0.8-1.1-1.5-1.9-1.9c-0.8-0.5-1.7-0.7-2.9-0.7c-1.5,0-2.8,0.5-4,1.6c-1.2,1.1-2.1,2.4-2.9,4
			c-0.8,1.6-1.4,3.3-1.8,5.2c-0.4,1.9-0.6,3.7-0.6,5.4c0,1.1,0.1,2,0.3,2.9s0.6,1.7,1,2.4c0.5,0.7,1,1.3,1.7,1.7s1.5,0.6,2.5,0.6
			c1.4,0,2.6-0.3,3.6-0.9l1.3-7.3h-4.9l1.3-7h12l-3.4,19.6c-1.3,0.9-2.9,1.7-4.6,2.2c-1.7,0.6-3.7,0.9-5.9,0.9s-4.1-0.4-5.7-1.1
			c-1.6-0.7-2.9-1.7-4-3c-1.1-1.3-1.9-2.8-2.4-4.6c-0.5-1.8-0.8-3.7-0.8-5.7c0-3.1,0.4-6.1,1.3-9.1c0.9-3,2.1-5.6,3.6-7.9
			c1.6-2.3,3.4-4.1,5.6-5.5c2.2-1.4,4.6-2.1,7.3-2.1c2.5,0,4.5,0.4,6.1,1.2c1.6,0.8,2.8,1.9,3.5,3.2L46.3,129.1z"/>
		<path class="st1" d="M94.1,103.4h-9.7l-1.4,7.7h9.1l-1.2,6.6h-9l-1.5,8.5H91l-1.3,7.2H71.4l6.4-37.1h17.4L94.1,103.4z"/>
	</g>
</g>
</svg>
