<?xml version="1.0" encoding="utf-8"?>
<!-- Generator: Adobe Illustrator 19.0.0, SVG Export Plug-In . SVG Version: 6.00 Build 0)  -->
<svg version="1.1" id="Layer_1" xmlns="http://www.w3.org/2000/svg" xmlns:xlink="http://www.w3.org/1999/xlink" x="0px" y="0px"
	 viewBox="0 0 190.9 41.7" style="enable-background:new 0 0 190.9 41.7;" xml:space="preserve">
<g>
	<path d="M24.5,23.2c-2.5,0.9-5.7,0.7-8.2,1.3c-1.3,0.3-3.6,0.6-4.1,2.2c0.1,0.6-0.3,2,0.2,2.6c1.3,2.7,3.8,0.1,5.8,0.6
		c0.4-0.5,2-0.1,2.8-0.6c0.4-0.1,0.6,0.5,0.6,0.8c0,0.6-0.7,0.6-0.8,1.1C16.7,33,13,32.6,9.2,31c-1-0.1-1-1.8-1.1-2.2
		c1.8-4.5,5.3-8,9.5-11c3.3-2.8,2.6,3,5.5,2.4c1.3-0.8,1.3-1.5,1.5-2.9c-0.6-1.6-0.9-4.1-3.2-4.5c-0.6-0.3-1.6-0.8-2.5-0.3
		c-0.9-0.6-1.3,0.8-2.3,0.8c-2,0.7-3.4,3.2-5.7,4.1c-0.5,1.2-1.9,1.6-2.3,2.9c-1,0.9-1.3,1.6-2,2.6c-0.1,0.2-0.7,0-0.4,0.6
		c-0.4,0.1-0.4,0.6-0.8,0.6c0.1,0.6-0.7,1.5-0.7,2.2c-1.2,2.2-0.1,4.6,0.6,6.7c1.3,1.3,1.4,1.9,3.2,2.5c3,1.1,7.1,1.7,10.2,0.4
		c0.7,0,1.3-1,2.1-0.5c0.1,1.5-0.7,3.7,0.1,5.4c1.3,0.5,2.7,1.1,4,0.5c0.7-0.5,0.7-1.5,0.9-2.5c-0.4-3,0.4-6.4,1.7-9.5
		c1.2-2.1,0.1-4.6-1.3-6.2L24.5,23.2z"/>
	<path d="M127.9,31.2c-2.2-0.6-3.8,1.2-5.9,1.3c-1.1,0.2-1.8-0.6-2.6-1.2c-0.1-0.5,0.1-0.9,0.4-1.2c0.6-0.1,1.5-0.8,2.2-0.3
		c1.5-0.8,3.2-0.2,5.1-0.8c1.3-0.5,3.7,0.3,4.2-1.9c0.1-1.6,0.1-3.7-1.4-4.5c-2.4,1.5-5.1,1.8-7.9,1.6c-0.1-1,0.9-1.9,1.3-2.5l4-1
		c2.3-0.7,5.6-0.7,8.1-2c0.7-1.1,0.1-2.3,0-3.5c0-0.6-0.7-0.7-0.5-1.3c-0.5-0.6-1-1.7-2-1.4c-3.4,1.3-7.5,2.2-11.2,2.8l-1.1,0.7
		c-0.6,1.8-1.5,3.4-2.1,5.1c-0.7,1.5-1.9,2.9-2.3,4.4c-1.5,2.3-1.8,5.6-1.1,8.3c1,2.5,3.7,4.1,6.1,4.3c2.2,0.8,4.7-0.4,6.7-2
		c0.2-0.6,0.7-1.6,0.5-2.1C129,33,128.3,31.9,127.9,31.2z"/>
	<path d="M56.4,23.2c-1.3,0.2-2.4,0.8-3.7,0.2c-0.3-0.5,0.2-1.1,0.4-1.5c3.3-1.7,7.1-1.5,10.4-2.8c0.6-0.8-0.3-1.8-0.3-2.7
		c-0.2-1.1-0.7-2-1.4-2.7c-4.1,0.4-7.9,1.6-11.8,2.5c-1.6-0.1-2.7,1.6-3.3,2.7c0,1.7,0.1,2.7,1.3,3.6c0.1,1.1-0.1,2.3-0.9,3.2
		c-0.7,2.3-1.5,4.2-0.9,6.7c1,3.6,4.8,4.8,8.5,5.5c1.6,0.1,3.2-0.8,3.8-2.2c0.2-2-0.1-3.2-1.6-4.7c-0.8-0.3-1.3,0.5-2,0.8
		c-1.5,0.1-2.7,0-3.9-0.9c0-0.4,0-1.1,0.4-1.5c3-1.1,6.2-0.4,9.3-1.3c1-1.8,0.4-3.5-0.8-5.1C58.7,22.2,57.5,22.9,56.4,23.2z"/>
	<path d="M79.6,19.5c0.9,0.1,1.3-1,1.3-1.4c0.3-1.4-1.1-2.2-1.3-3.6c-1.5-1.6-3.9-0.1-5.7-0.2c-2.5,0.9-6,1.1-8.4,3.1
		c-0.4,1.1-0.3,2.1-0.4,3.2c-1.5,2.8-2.2,6.3-3,9.4c0,2,1.2,3.8,2.2,5.6c0.4,1.4,2.3,0.7,3,1.6c2.2,0.1,6.5,1.1,7.9-1.5
		c0-1,0.6-2.8-0.4-3.9c-0.3-0.7-0.9-1.4-1.7-1.6c-0.8,1.3-2.4,1.3-3.8,1.5c-1.1-0.4-2.8,0.1-3-1.5c0.6-0.9,2.2-0.9,3-1.1
		c0.6-0.4,2.1,0.1,2.5-0.5c2-0.1,3.4-0.5,5.3-1.2c1.2-0.5,0.5-1.8,0.6-2.6c-0.8-1.2-0.6-3-2.7-3c-0.8,0.8-2.5,0.9-3.5,1.3
		c-0.8,0-1.9,0.4-2.5,0C70.8,18.6,76.2,20.4,79.6,19.5z"/>
	<path d="M40.7,28.2c-0.6-1.3,1.6-1.5,1.6-2.8c2-3.1,1.3-7-0.7-10.1c-1.1-1.8-3.2-2.8-5.4-2.6c-0.8-0.6-1.8,1.1-3,0.4
		c-0.4,0.2-1.3,0.5-1.3,1.3c-1.3,0.7-1.1,2.5-1.1,3.6c0.3,1.3,2.2,1.3,1.2,2.8c-0.6,0.8-0.4,2.2-1.3,3.2c-1.1,0-1.5,0.6-1.9,1.5
		c-0.4,1.3,0.4,3,1.1,3.8c-0.3,1.8-0.1,2.5-0.4,4.2l0.1,0.1c-0.2,0.7,0.1,1.9,0.3,2.5c0.6,0.8,1.3,2,2.5,1.9
		c0.8,0.1,1.3-0.1,1.5-0.8c0.2-1.1,0.5-2.1-0.1-3.2c0.4-0.7-0.3-2,0.2-2.8c0.1-0.6,0.1-0.6,0.8-0.8c1,0.9,2.1,1.7,3.2,2.6
		c2.2,1.1,3,4.1,5.8,3.8c0.8-1,2.2-2.1,2.2-3.4C45.6,30.2,42.3,30.4,40.7,28.2z M36.6,23.4c-0.1,0.3-0.5,0.1-0.6,0.3l-0.2-0.2
		c0.4-1.7,0.7-3.4,0.7-5.2c1.2-0.2,1.6,0.1,2.5,1C39.6,21.2,37.8,22.3,36.6,23.4z"/>
	<path d="M117.9,20c-0.3-2.5-1.4-5.6-4.3-6.4c-3.7-0.9-8.7-0.7-11.9,0.9c-1.5-0.4-2.7,0.8-3.6,0.5c-0.8,0.4-0.5,1.3-1.3,1.5
		c-0.1-1.3-1-2.5-2.1-3.2c-1.3,0.2-1.7,0.2-2.3,1.4c0.3,1,0.1,2.7,0.1,3.7c-0.3,1.9-0.2,4-0.4,5.7c-0.4,0.6,0.3,1.4-0.7,1.4
		c-1.3-1.6-2.4-3.2-3.7-4.8c-0.6-2.2-0.1-4.3-0.6-6.3c-0.6-1.3-2.1-1.2-3.2-1.6c-0.8,0.4-1.6,0.9-1.7,1.8c-0.9,1.1-0.4,2.4-0.7,3.7
		c0.1,0.8,0.6,2,0.3,2.5c-0.4,0.6-0.1,1.5-0.1,2.1c-0.2,2.5-1,5.2-1.5,7.7c-0.7,1-0.2,2.2-0.5,3.2c0.2,1.1,0.2,1.7,0.9,2.3
		c0.9,0.6,2.5,1.3,3.6,0.6c0.2-1.4,1.1-2.5,0.6-3.9c0.4-1.8,0.6-3.8,1.4-5.6c0.3-0.1,0.4,0.2,0.6,0.4c1.5,2.5,3.4,4.8,3.9,7.2
		c-0.4,1,1,2.6,1.4,3.2c1.3-0.2,2.1,0.5,3.3-0.4c1.2-4.4,0.1-8.7,0.9-13.4c0.1-1.4,0.7-2.9-0.1-3.8c-0.1-0.5,0.1-0.8,0.7-1
		c2,2.5,3.9-1.1,6-0.5c0.9,0.6,0.4,2.2,0.4,3.4l-1.8,0.5c-1.4,0.6-1.1,2.3-1.4,3.6c0.2,1.3,1.4,2,2.4,2.7c0.3,2.8-1.4,5.9,0.8,8.5
		c0.3,0,0.7,0,0.9,0.4c0.8,0.4,1.4,0,2-0.3c1.5-2.1,0-3.3,0.9-5.6l-0.1-0.2c0.5-1.5-0.1-2.7,0.8-4.1c2.2-0.8,4.2-1.1,5.7-2.8
		C115.8,23.9,117.3,22,117.9,20z M110.6,21.3c-0.6-0.1-2.2,1.4-3,0c0.1-1-0.6-2.5,0.2-3c1.7,0.1,3.1,0.1,4.8,0.9
		C112.9,20.5,111.2,20.8,110.6,21.3z"/>
	<path d="M190.9,18.9c-0.6-0.7,0.2-2.2-0.1-2.8c-0.7-1.1-1.1-2.8-2.7-2.9c-1.8,0.4-3.7,0.6-5.3,1.2c-2.5,0-6,0.8-8.7,1.3
		c-1.1-0.2-3.2,0.4-4.2,1.1c-0.8,0.6-0.9,1.9-1.1,2.7c0.1,2.9-2.3,4.6-2.3,7.2c-0.7,1.4,0,2.3-0.6,3.7l-0.1-0.1
		c-1.1-2.5-3,0.9-4.5,0.6c-2.7,0.4-5.1-0.9-7.4-2.5c-1.5-0.7-0.6-1.9-0.5-2.9c1.5-3,4-5.1,7-5.5c0.8,0.6-0.2,1.7,0,2
		c-0.1,1,0.1,2,0.7,2.6c0.8,0.3,2,0.8,2.7,0.7c0.8-0.2,1.5-1.3,2-1.9c0.6-1.7,0.8-2.6,0.4-4.2c-0.3-1.8-1.3-3.2-2.7-3.9
		c-0.6,0.1-1.8-0.4-2.5,0.1c-3.5,0.4-6.7,1.9-9.8,4.2c0.1,0.8-0.8,0.8-1.2,1.5c-0.4,0.9-0.9,2-1.8,2.7c-0.4-2.8-0.8-5.6-2-8.1
		c-0.5-1.4-1.8-2.5-3.2-2.5c-0.5,0.1-1.1,0.3-1.2,0.9l-0.3-0.1c-1.8,1.5-2.8,3.9-3.9,5.8c-0.5,0.9-1.3,2-1.3,2.7
		c-0.8,2.2-2.5,2.5-2.9,4.6c0.4,3-4,5.1-2.8,8.2c0.5,1.4,1.6,1.5,2.9,2.1c1.4-1.3,2-3.4,2.8-4.9c0.3-1.8,2.8-1.2,3.7-1.7
		c0.6-0.4,1.5-0.1,2-0.3c0.2,0,1.1,0.4,1.1,0.9c-0.4,1.4-0.2,2.8,0.1,4.5c0.8,1.4,1.9,1.7,3.4,1.8c0.7-1,1.1-1.4,1.1-2.5
		c0.6-1.1-0.5-2.2-0.1-3.4c0.1-0.4-0.1-1.9,0.6-2.3c0.8,1.1,1.8,2.5,2.8,3.4c0.7,0.2,0.8,1.2,1.7,1.3c2.1,2,5.7,3.2,8.5,3.6
		c2.7,0.1,4.1-2.4,5.1-4.6c1,1.3,2.2,2.7,3.8,3.2c2.9,1.2,5.6-0.1,8.4-0.3c0.8-0.5,2.3-1.3,2.2-2.6c0.2-0.9,0.1-2.2-0.9-2.7
		c-1.4-0.6-2.5-0.1-3.9,0.5c-0.8-0.6-2,0.3-3,0.2c-0.9-0.1-2.2-0.1-2.4-1.3c0.4-0.9,1.5-1,2.5-0.9c1.5-0.8,3.2-0.4,5.1-0.6
		c1.3-0.1,2.5,0.3,3.7-0.2c-0.1-0.6,1.1-1.9,0.2-2.2c0.4-0.9-0.8-1.9-1.3-2.7l-7.2,0.2l-0.6-0.4c0-1,0.6-1.8,1.3-2.4
		c3-0.7,5.8-0.8,8.7-1.1v0.1l0.8-0.1c1.7,0.5,3.6-0.5,5.1-0.3c0.4,0.5,1.1,0.5,1.5,0.4C190.6,19.8,191,19.4,190.9,18.9z M142.8,24.3
		c-0.6-0.2-2.2,0.9-2.5-0.3c0.8-1.4,1.8-2.7,2.2-4.2c0.6-0.1,0.6,0.7,0.8,1.1C143.2,22,143.9,23.4,142.8,24.3z"/>
</g>
<g>
	<g>
		<path d="M0,13.7V0.1L2.7,0v11.4h6.4v2.2H0z"/>
	</g>
	<g>
		<path d="M15.4,13.8c-1.6,0-2.8-0.4-3.7-1.3c-0.9-0.9-1.3-2.1-1.3-3.7c0-1.6,0.4-2.9,1.2-3.8c0.8-0.9,2-1.3,3.4-1.3
			c1.4,0,2.5,0.4,3.2,1.2s1.2,1.9,1.2,3.3v1.3h-6.3c0,0.8,0.3,1.4,0.7,1.8c0.4,0.4,1,0.6,1.8,0.6c0.6,0,1.1-0.1,1.7-0.2
			c0.5-0.1,1.1-0.3,1.6-0.6v2.1c-0.5,0.2-1,0.4-1.5,0.5C16.8,13.8,16.2,13.8,15.4,13.8z M15.1,5.6c-0.6,0-1,0.2-1.3,0.5
			c-0.3,0.4-0.5,0.9-0.6,1.5h3.8c0-0.7-0.2-1.2-0.5-1.5C16.1,5.8,15.6,5.6,15.1,5.6z"/>
	</g>
	<g>
		<path d="M28.1,13.7l-0.5-1.3h-0.1c-0.4,0.6-0.9,1-1.4,1.2s-1.1,0.3-1.9,0.3c-0.9,0-1.7-0.3-2.2-0.8c-0.5-0.5-0.8-1.3-0.8-2.3
			c0-1,0.4-1.8,1.1-2.3c0.7-0.5,1.8-0.8,3.3-0.8l1.7-0.1V7.1c0-1-0.5-1.5-1.5-1.5C25,5.6,24,5.9,23,6.3l-0.9-1.8
			c1.1-0.6,2.4-0.9,3.8-0.9c1.3,0,2.3,0.3,3,0.9c0.7,0.6,1.1,1.4,1.1,2.6v6.5H28.1z M27.3,9.1l-1,0c-0.8,0-1.4,0.2-1.7,0.4
			c-0.4,0.3-0.6,0.6-0.6,1.2c0,0.8,0.4,1.1,1.3,1.1c0.6,0,1.1-0.2,1.5-0.5c0.4-0.4,0.6-0.8,0.6-1.4V9.1z"/>
	</g>
	<g>
		<path d="M37.3,3.7c0.4,0,0.7,0,0.9,0.1L38,6.3c-0.2-0.1-0.5-0.1-0.8-0.1c-0.9,0-1.5,0.2-2,0.7c-0.5,0.4-0.7,1.1-0.7,1.8v5h-2.7
			V3.9h2l0.4,1.6h0.1c0.3-0.5,0.7-1,1.2-1.3S36.7,3.7,37.3,3.7z"/>
	</g>
	<g>
		<path d="M49.1,13.7h-2.7V7.9c0-0.7-0.1-1.2-0.4-1.6c-0.3-0.4-0.7-0.5-1.2-0.5c-0.7,0-1.3,0.2-1.6,0.7c-0.3,0.5-0.5,1.3-0.5,2.5
			v4.6H40V3.9h2l0.4,1.3h0.1c0.3-0.5,0.7-0.8,1.2-1.1c0.5-0.2,1.1-0.4,1.8-0.4c1.1,0,2,0.3,2.6,0.9s0.9,1.5,0.9,2.7V13.7z"/>
	</g>
	<g>
		<path d="M53.4,13.7h-2.7V3.9h2.7V13.7z"/>
	</g>
	<g>
		<path d="M64.3,13.7h-2.7V7.9c0-0.7-0.1-1.2-0.4-1.6C61,6,60.6,5.8,60.1,5.8c-0.7,0-1.3,0.2-1.6,0.7C58.1,7.1,58,7.9,58,9v4.6h-2.7
			V3.9h2l0.4,1.3h0.1c0.3-0.5,0.7-0.8,1.2-1.1c0.5-0.2,1.1-0.4,1.8-0.4c1.1,0,2,0.3,2.6,0.9s0.9,1.5,0.9,2.7V13.7z"/>
	</g>
	<g>
		<path d="M75.1,3.8V5l-1.5,0.3C73.8,5.8,74,6.2,74,6.7c0,0.9-0.4,1.7-1.1,2.2c-0.7,0.5-1.8,0.8-3.1,0.8l-0.5,0l-0.4,0
			c-0.3,0.2-0.4,0.4-0.4,0.6c0,0.3,0.5,0.5,1.5,0.5h1.7c1.1,0,1.9,0.2,2.5,0.6c0.6,0.4,0.8,1,0.8,1.8c0,1-0.5,1.8-1.4,2.4
			c-1,0.6-2.3,0.8-4.1,0.8c-1.4,0-2.4-0.2-3.1-0.6c-0.7-0.4-1.1-1-1.1-1.8c0-0.5,0.2-1,0.6-1.3c0.4-0.4,0.9-0.6,1.6-0.8
			c-0.3-0.1-0.5-0.3-0.7-0.5c-0.2-0.2-0.3-0.5-0.3-0.7c0-0.3,0.1-0.6,0.3-0.8c0.2-0.2,0.5-0.4,0.9-0.6c-0.5-0.2-0.9-0.5-1.2-0.9
			S66,7.2,66,6.6c0-0.9,0.3-1.7,1-2.2c0.7-0.5,1.7-0.8,3-0.8c0.3,0,0.6,0,1,0.1c0.4,0,0.6,0.1,0.7,0.1H75.1z M67.5,13.7
			c0,0.3,0.2,0.6,0.5,0.8c0.4,0.2,0.8,0.3,1.5,0.3c1,0,1.7-0.1,2.3-0.3c0.5-0.2,0.8-0.6,0.8-1c0-0.3-0.2-0.6-0.5-0.7
			c-0.3-0.1-0.8-0.2-1.5-0.2h-1.4c-0.5,0-0.9,0.1-1.2,0.3C67.7,13.1,67.5,13.4,67.5,13.7z M68.5,6.7c0,0.5,0.1,0.8,0.4,1.1
			c0.2,0.3,0.6,0.4,1.1,0.4c0.5,0,0.9-0.1,1.1-0.4c0.2-0.3,0.4-0.6,0.4-1.1c0-1-0.5-1.6-1.5-1.6C69,5.1,68.5,5.6,68.5,6.7z"/>
	</g>
	<g>
		<path d="M95.3,7.1c0,0.8-0.1,1.6-0.4,2.3c-0.3,0.7-0.6,1.2-1.1,1.6c-0.5,0.4-1.1,0.6-1.7,0.6c-0.4,0-0.8-0.1-1.1-0.3
			c-0.3-0.2-0.6-0.5-0.7-0.8H90c-0.6,0.8-1.4,1.1-2.4,1.1c-1,0-1.8-0.3-2.4-0.9c-0.6-0.6-0.9-1.5-0.9-2.6c0-1.2,0.4-2.2,1.2-3
			C86.3,4.4,87.3,4,88.5,4c0.5,0,1.1,0,1.7,0.1c0.6,0.1,1.1,0.2,1.5,0.3l-0.2,4.3c0,0.8,0.2,1.2,0.7,1.2c0.4,0,0.7-0.3,0.9-0.8
			c0.2-0.5,0.3-1.3,0.3-2.1c0-0.9-0.2-1.8-0.6-2.5c-0.4-0.7-0.9-1.3-1.7-1.7c-0.7-0.4-1.5-0.6-2.4-0.6c-1.2,0-2.2,0.2-3.1,0.7
			c-0.9,0.5-1.5,1.2-2,2.1c-0.5,0.9-0.7,2-0.7,3.2c0,1.6,0.4,2.8,1.3,3.7c0.9,0.9,2.1,1.3,3.7,1.3c0.6,0,1.3-0.1,2-0.2
			c0.7-0.1,1.5-0.3,2.2-0.6v1.7C91,14.7,89.6,15,88,15c-2.2,0-4-0.6-5.2-1.8c-1.2-1.2-1.9-2.8-1.9-4.9c0-1.4,0.3-2.8,1-3.9
			c0.6-1.2,1.5-2.1,2.7-2.8c1.2-0.7,2.5-1,4-1c1.3,0,2.4,0.3,3.4,0.8s1.8,1.3,2.3,2.2C95,4.7,95.3,5.8,95.3,7.1z M86.3,8.2
			c0,1.2,0.5,1.8,1.5,1.8c0.5,0,0.9-0.2,1.2-0.6c0.3-0.4,0.4-1,0.5-1.8l0.1-1.9c-0.3-0.1-0.6-0.1-1-0.1c-0.7,0-1.3,0.2-1.7,0.7
			S86.3,7.4,86.3,8.2z"/>
	</g>
	<path d="M0,0"/>
	<rect x="50.7" y="0.1" width="2.7" height="2.5"/>
</g>
</svg>
