<?xml version="1.0" encoding="utf-8"?>
<!-- Generator: Adobe Illustrator 19.0.0, SVG Export Plug-In . SVG Version: 6.00 Build 0)  -->
<svg version="1.1" id="Layer_1" xmlns="http://www.w3.org/2000/svg" xmlns:xlink="http://www.w3.org/1999/xlink" x="0px" y="0px"
	 viewBox="0 0 85 102" style="enable-background:new 0 0 85 102;" xml:space="preserve">
<style type="text/css">
	.st0{clip-path:url(#SVGID_2_);}
	.st1{clip-path:url(#XMLID_19_);fill:#7B7B7B;}
</style>
<g>
	<defs>
		<path id="SVGID_1_" d="M63.3,70V46.5c0-3.3-2.9-6.2-6.4-6.2H28.1c-3.6,0-6.4,2.9-6.4,6.2v27.3c0,3.3,2.9,6.2,6.4,6.2h45.7L63.3,70
			z M19.3,20.2h44L84.3,0.5V82c0,9.6-8.1,17.8-18.5,17.8H19.3C8.9,99.8,0.8,91.6,0.8,82V38.2C0.8,28.5,8.9,20.2,19.3,20.2z"/>
	</defs>
	<clipPath id="SVGID_2_">
		<use xlink:href="#SVGID_1_"  style="overflow:visible;"/>
	</clipPath>
	<g class="st0">
		<defs>
			<rect id="XMLID_3_" x="-1500.3" y="-110" width="2945" height="2666.8"/>
		</defs>
		<clipPath id="XMLID_19_">
			<use xlink:href="#XMLID_3_"  style="overflow:visible;"/>
		</clipPath>
		<rect id="XMLID_4_" x="-9.4" y="-9.8" class="st1" width="103.9" height="119.8"/>
	</g>
</g>
</svg>
