<?xml version="1.0" encoding="utf-8"?>
<!-- Generator: Adobe Illustrator 19.0.0, SVG Export Plug-In . SVG Version: 6.00 Build 0)  -->
<svg version="1.1" id="Layer_1" xmlns="http://www.w3.org/2000/svg" xmlns:xlink="http://www.w3.org/1999/xlink" x="0px" y="0px"
	 viewBox="0 0 141.7 155.9" style="enable-background:new 0 0 141.7 155.9;" xml:space="preserve">
<style type="text/css">
	.st0{fill:#FFFFFF;}
	.st1{fill:#231F20;}
	.st2{fill:#A7A9AC;}
</style>
<g id="XMLID_2_">
	<path id="XMLID_15_" class="st0" d="M70.9,154.6C40.2,136.3,1.4,109.8,1.4,62.9V13.4C15.6,8,37.5,1.3,70.9,1.3
		c33.8,0,57,7.3,69.5,12.1v49.5C140.3,110.2,100.1,137.4,70.9,154.6L70.9,154.6z"/>
	<path id="XMLID_8_" class="st1" d="M45.3,131.1c8.2,6.4,17,12.1,25.6,17.2l0,0l0,0c0.1-7.7-0.2-12.3,5.1-17.7
		c2.1-2.2,4.3-4.5,6.3-6.5c1.5-1.5,2.7-2.7,3.4-2.7c0.5,0,0.7,0.3,0.7,0.9c0,0.7,0.3,3.2,1.9,6.3c2,3.8,4.8,4.3,5.8,4.5
		c22.4-16.8,41.1-38.9,41.1-70.3c0-17.2,0-45.7,0-45.7c-5.5-1.9-28.2-10.6-64.2-10.6S12.2,15.2,6.7,17.1c0,0,0,28.5,0,45.7
		c0,13.8,3.6,25.8,9.6,36.3c0.6-6.4,4.9-9.4,4.9-15.6c0-4.4-1.2-7.1-1.2-10.7c0-6.6,8.9-20.2,13.5-25.7c0.1-0.2,0.4-0.5,0.8-0.5
		c0.3,0,0.6,0.2,0.8,0.5c0.5,0.7,0.7,1.1,1.2,1.1c0.5,0,0.7-0.3,0.7-0.7c0-1.1-1.3-3.1-1.3-10.6c0-5.2,1.2-6.3,4.5-9.5
		c0.6-0.6,2.4-2.3,4.2-2.3c1.9,0,2.9,1.1,4.1,2.4c2,2,4.8,5.7,5.3,6.2c0.1,0.2,0.2,0.3,0.5,0.3c0.9,0,1.7-0.3,5.8-0.3
		c7.3,0,18.4,1.2,24.1,3c2.9,1,3.5,1.6,4.3,1.6c0.4,0,0.4-0.2,0.4-0.4c0-0.4-0.8-1-0.8-1.5c0-0.3,0.3-0.6,0.5-0.7
		c4.2-2.3,7.9-4,11.2-4c1.9,0,2.9,1.7,3.7,3.3c0.6,1.3,1.3,3,1.3,4.8c0,4.5-1.7,7.2-3.1,9.2c0.7,0.7,1.6,1.7,2.1,2.4
		c1,1.2,2.2,2.8,2.2,4.4c0,0.7-0.3,1.8-0.5,2.7c-0.1,0.4-0.4,1.2-1.1,1.2c-0.6,0-0.8-0.7-0.8-1.3c0-0.1,0-0.4,0-0.5
		c0-1.3-0.4-3-1.6-4.3c-1.4-1.4-2.6-2.4-4.2-2.4c-0.1,0-0.4,0-0.5,0c-2.6,0-3.8,1.1-4.5,1.9c-0.8,0.8-1.4,1.8-1.4,3.2
		c0,0.8,0.5,1.7,1.3,3.2c0.4,0.8,1.5,2.9,2.1,3.9c0.5,0.9,1.2,1.2,1.9,1.2c1.8,0,3.4-0.3,3.4-0.8c0-0.2-0.1-0.3-0.3-0.3
		c-0.1,0-0.4,0-0.6,0c-2.4,0-3.7-3-4.9-5.8c0.9-0.9,1.9-1.8,3.8-1.8c2.4,0,3.9,1.6,3.9,3.7c0,1-0.3,1.9-0.5,2.3
		c-0.1,0.2-0.1,0.3-0.1,0.4c0,0.3,0.4,0.4,1.1,0.5c0.2,0.1,0.7,0.2,0.9,0.2c0.7,0.2,1.4,0.8,1.8,1.7c0.2,0.6,0.7,1.8,0.8,2.2
		c0.4,1.2,1,2.9,1,4.9c0,2.1-0.1,2.7-0.7,4.8c-0.7,2.7-1.1,3.7-1.2,5.2c0.3,0.5,0.3,0.6,0.4,0.9c0.4,0.9,0.9,2.4,0.9,4.1
		c0,0.5,0,1.4,0,1.4c0,2.7-1.1,4.8-2.3,6.4c-0.9,1.2-2.2,3-3,3.9c-0.5,0.6-1.1,1-1.9,1c-0.3,0-0.8-0.1-1.2-0.2
		c-0.5-0.1-1.4-0.4-1.8-0.5c-1.6-0.4-2.2-1.4-2.7-2.9c-0.1-0.2-0.3-0.8-0.4-1c-0.4-1-0.6-1.6-1.2-1.6c-0.5,0-0.9,0.3-1.3,1
		c-1.6,2.4-2.5,3.3-5.3,4c-1,0.2-3,0.7-4.1,0.9c-1.7,0.4-4.7,1.2-6.4,1.2c-0.4,0-0.7,0-1.1-0.1c-2.3-0.3-3.9-0.5-6.8-3.9
		c-4-4.7-3.5-5.4-3.8-11.8c0-0.7-0.3-1.6-1-1.6c-0.7,0-1,1.4-1.2,3.3c-0.3,2.2-0.8,4.6-1.9,4.6c-0.8,0-1.3-0.1-2.5-0.5
		c-1.4-0.5-5-1.7-6.9-2.3c-2.6-0.8-5-1.5-6-3.8c-0.5-1.1-1.3-3.1-1.8-4.1c-0.3-0.7-0.5-1.1-1-1.1c-0.7,0-0.8,0.8-0.9,1.4
		c-0.1,0.7-0.3,2.4-0.4,3.4c-0.4,4.4-1.3,6.3-3.2,8.8c-0.9,1.1-1.7,2.3-2.6,3.6c-2,2.6-3.2,5.3-3.1,10.3c0,0.3,0,2.2,0,3.1
		C30.7,117.3,32.6,121,45.3,131.1L45.3,131.1z M90.8,108.1c-0.6,0.1-1.8,0.4-7,0.4c-7.9,0-9.2-1.9-9.2-3.5c0-2.6,11.3-4.4,15.8-4.4
		c4.3,0,6.1,1.4,6.1,2.4C96.5,104.3,94.6,107.2,90.8,108.1L90.8,108.1z M75.5,59.4c0-1.8-2-4.5-5.6-4.5c-3.2,0-5.6,2.4-6.2,4.3
		c0.8,1.5,1.5,3,4.5,3.9c0.4,0.1,0.8,0.1,0.8,0.5c0,0.5-0.5,0.7-1.6,0.7c-3.4,0-5.5-1.4-6.4-2.6c-0.9,0.1-1.9,0.5-3.2,0.5
		c-1.1,0-1.5-0.7-1.5-1.6c0-0.6,0.2-1.3,0.5-2c0.2-0.4,0.4-0.8,0.6-1.1c0.5-1,1.4-3.4,4.5-5.2c0.4-0.2,1.3-0.8,1.8-1.1
		c1.8-1,3.1-1.3,5.2-1.3c0.2,0,1.3,0,1.6,0c2.5,0,3.8,0.7,4.9,1.7c2.3,1.9,3.5,3,3.5,4.4c0,1.6-0.1,2.8-1.3,4.4
		c-1.1,1.4-2.7,2.4-3.7,2.4c-0.3,0-0.4-0.2-0.4-0.3c0-0.2,0.2-0.3,0.5-0.5C74.9,61.3,75.2,60.1,75.5,59.4L75.5,59.4z M43.8,49.2
		c0.8,0,1.4-0.5,2.6-1.8c2.6-2.9,5.2-3.3,5.2-4.6c0-0.6-0.4-1.1-0.7-1.7c-2.8-4.4-4-6.8-5.7-10c-0.6-1.2-1.4-1.9-2-1.9
		c-1,0-2,1.1-2.6,2.1c-0.8,1.4-1.7,2.9-1.7,4.3c0,2.1,0.5,6,1.4,8.5C41.2,46.9,42.6,49.2,43.8,49.2L43.8,49.2z M94.8,43.5
		c-0.1-0.1-0.6-0.2-0.6-0.7c0-0.5,0.4-1,1.1-2.1c1.7-2.3,4.1-5.2,5-5.2c0.4,0,0.7,0.3,1.2,1.3c0.3,0.6,0.6,1.6,0.6,2.5
		c0,3.1-1.1,5.3-2.7,7.7C98.6,46.3,97.1,44.8,94.8,43.5L94.8,43.5z M91.8,90.5c0-1.1,0.9-2.7,0.9-4.1c0-1.7-2.1-2.3-3.8-2.5
		c-3.5-0.5-4.6-0.3-4.6-1.1c0-0.5,0.5-1.1,1.1-2c0.9-1.3,3.2-1.8,4.3-2c1.6-0.2,3.3-0.4,5.4-0.4c2.3,0,4.3,0.3,5.2,0.5
		c2.1,0.4,2.5,1.3,2.5,2.3c0,0.2,0,0.7,0,1c0,1-0.8,1.5-2.3,1.8c-0.4,0.1-0.9,0.2-1.1,0.2c-1.1,0.2-2.4,0.4-2.9,1.8
		c-1,2.9-2.8,5.2-4.1,5.1C92,91.1,91.8,90.9,91.8,90.5L91.8,90.5z"/>
	<path id="XMLID_3_" class="st2" d="M85.2,129c0.2-2,1.1-5.3,1.1-6.7l0,0c0-0.7-0.2-0.9-0.7-0.9c-0.7,0-1.9,1.1-3.4,2.7
		c-2,2-4.1,4.3-6.3,6.5c-5.2,5.5-5,10-5.1,17.7l0,0c5.8-3.5,11.1-6.9,15.1-9.6C85.3,135.6,84.9,133.3,85.2,129L85.2,129z
		 M30.5,109.8c0-0.9,0-2.8,0-3.1c-0.1-5.1,1.1-7.7,3.1-10.3c1-1.3,1.8-2.4,2.6-3.6c1.9-2.5,2.8-4.4,3.2-8.8c0.1-1,0.3-2.7,0.4-3.4
		c0.1-0.6,0.2-1.4,0.9-1.4c0.5,0,0.7,0.4,1,1.1c0.4,1,1.3,3,1.8,4.1c1,2.3,3.4,2.9,6,3.8c1.9,0.6,5.5,1.8,6.9,2.3
		c1.2,0.4,1.7,0.5,2.5,0.5c1.1,0,1.6-2.3,1.9-4.6c0.2-1.9,0.5-3.3,1.2-3.3c0.7,0,1,0.9,1,1.6c0.2,6.4-0.2,7,3.8,11.8
		c2.9,3.4,4.5,3.6,6.8,3.9c-0.9-0.3-2-1.2-2-3.3c0-0.4,0-2,0-2.3c0-1.1,0.1-2.3,0.7-3.6c0.3-0.6,0.6-1.7,0.9-2.4
		c0.5-1.2,0.3-1.5,0.3-2.3c0-0.9-0.3-1.7-1-3.8c-0.4-1.1-0.8-2.6-1.3-3.9c-1.4-4-2-4.9-6.8-5.6c-1.5-0.2-8.2-1.2-9.6-1.4
		c-5.4-0.8-9.6-1-11.8-4.6c-2.6-4.3-2.3-9.5-4.9-9.5c-1.2,0-1.8,1.3-1.8,3.3c0,2,0.8,5.3,0.8,11.1c0,5-0.5,6.4-3.4,10
		c-0.8,1-1.8,2.3-2.4,3.2c-2.2,2.7-3.1,4.2-3,7.4C28.6,100.7,29.9,106.7,30.5,109.8L30.5,109.8z M88.1,75.2c0.2,0.5,0.4,1.1,0.4,1.6
		c0,1-0.2,1.3-0.8,1.9c-0.3,0.3-0.7,0.6-1,0.9c-0.5,0.3-1,0.7-1.4,1.1c-0.6,0.9-1.1,1.5-1.1,2c0,0.2,0.1,0.3,0.2,0.4
		c-0.8-0.6-1.1-1.4-1.1-2.2c0-0.7,0.2-1.1,0.2-1.7c0-0.6-0.2-1.1-0.3-1.4c-1.1-3.6-2.9-7.8-4-10.7c-1.1-3-2-4.6-3.3-4.6
		c-0.7,0-1.3,0.3-2.1,0.3c1,0,2.6-0.9,3.7-2.4c1.3-1.7,1.3-2.9,1.3-4.4c0-0.7-0.3-1.3-0.8-1.9c1.6,1.7,2.7,3.8,3.8,6.1
		C84.3,65.3,86.4,70.9,88.1,75.2L88.1,75.2z M105,64.6L105,64.6c0.2,0.6,0.7,1.8,0.8,2.2c0.4,1.2,1,2.9,1,4.9c0,2.1-0.1,2.7-0.7,4.8
		c-0.7,2.7-1.1,3.7-1.2,5.2c-0.2-0.4-4.1-7.1-4.4-7.6c-0.3-0.5-0.5-1.1-0.5-1.7c0-0.7,0.3-1.1,1.1-1.6c0.5-0.3,1.1-0.7,1.6-0.9
		c2-1,2.5-2.3,2.5-3.6C105.1,65.7,105,65.2,105,64.6L105,64.6z"/>
</g>
</svg>
