<?xml version="1.0" encoding="utf-8"?>
<!-- Generator: Adobe Illustrator 19.0.0, SVG Export Plug-In . SVG Version: 6.00 Build 0)  -->
<svg version="1.1" id="Layer_1" xmlns="http://www.w3.org/2000/svg" xmlns:xlink="http://www.w3.org/1999/xlink" x="0px" y="0px"
	 viewBox="0 0 184.5 70.9" style="enable-background:new 0 0 184.5 70.9;" xml:space="preserve">
<style type="text/css">
	.st0{fill:#42545D;}
	.st1{fill:#FFFFFF;}
	.st2{fill:#94BEB8;}
</style>
<g>
	<path class="st0" d="M30.4,60.5H8.6c0-4.5-3.7-8.2-8.2-8.2V28.2c4.5,0,8.2-3.7,8.2-8.2h12.5c12.5,0,23.1-8.1,26.7-19.4h88.9
		c3.7,11.3,14.2,19.4,26.7,19.4h12.5c0,4.5,3.7,8.2,8.2,8.2v24.2c-4.5,0-8.2,3.7-8.2,8.2h-23.5c-6.4,0-11.8,4.3-14.2,9.8H45.4
		C42.8,64.6,37.1,60.5,30.4,60.5z"/>
	<path class="st1" d="M45.9,69.5c-2.9-6-8.9-9.8-15.5-9.8h-21C9,55.4,5.6,52,1.2,51.6V28.9c4.3-0.4,7.8-3.8,8.2-8.2h11.7
		c12.4,0,23.3-7.8,27.3-19.4h87.7c4,11.6,14.9,19.4,27.3,19.4h11.7c0.4,4.3,3.8,7.8,8.2,8.2v22.6c-4.3,0.4-7.8,3.8-8.2,8.2h-22.7
		c-6.2,0-11.9,3.8-14.7,9.8H45.9z"/>
	<path class="st0" d="M46.9,68c-3.3-6-9.6-9.8-16.5-9.8H10.7c-0.9-3.9-4-7-7.9-7.9V30.3c3.9-0.9,7-4,7.9-7.9h10.3
		c12.6,0,23.9-7.8,28.4-19.4H135c4.5,11.6,15.8,19.4,28.4,19.4h10.3c0.9,3.9,4,7,7.9,7.9v19.9c-3.9,0.9-7,4-7.9,7.9h-21.4
		c-6.4,0-12.5,3.8-15.7,9.8H46.9z"/>
	<g>
		<path class="st1" d="M62.6,26.2l-2.9-6.9L58.8,17v9.2h-1.6V12.4h1.5l2.7,7l0.9,2.3v-9.3h1.6v13.8H62.6z"/>
		<path class="st1" d="M67.4,26.2V12.4h5.4V14h-3.7v4.3h2.7v1.5h-2.7v4.9h3.7v1.6H67.4z"/>
		<path class="st1" d="M83.5,26.2h-1.7L80.4,17l-1.6,9.2h-1.7l-2-13.8h1.7l1.2,10.1l1.7-10.1h1.5l1.5,10.1L84,12.4h1.7L83.5,26.2z"
			/>
	</g>
	<path class="st1" d="M95.8,20.7v5.5h-1.7v-5.5l-2.7-8.3h1.8l1.9,6.4l1.9-6.4h1.7L95.8,20.7z"/>
	<path class="st1" d="M104.1,26.5c-2.1,0-3.3-1.4-3.3-3.4v-7.5c0-2,1.1-3.4,3.3-3.4c2.1,0,3.3,1.5,3.3,3.4V23
		C107.4,25,106.2,26.5,104.1,26.5z M105.7,15.3c0-0.9-0.5-1.6-1.5-1.6c-1,0-1.5,0.7-1.5,1.6v7.9c0,1,0.5,1.6,1.5,1.6
		c1,0,1.5-0.7,1.5-1.6V15.3z"/>
	<polygon class="st1" points="125.1,26.2 123,20.1 122.1,22.2 122.1,26.2 120.4,26.2 120.4,12.4 122.1,12.4 122.1,19.4 125.1,12.4 
		126.9,12.4 124.1,18.3 126.9,26.2 	"/>
	<path class="st1" d="M117.3,26.2l-1.3-6.8c0.6-0.5,0.9-1.2,0.9-2.2v-2.1c0-1.9-1-2.8-2.8-2.8h-3.4v13.8h1.7v-6.1h1.6
		c0.1,0,0.2,0,0.4,0l1,6.1H117.3z M114,18.8h-1.5v-4.8h1.6c0.7,0,1.1,0.4,1.1,1.2v2.3C115.2,18.3,114.7,18.8,114,18.8z"/>
	<g>
		<g>
			<path class="st1" d="M18.9,47V33.2h1.7V47H18.9z"/>
			<path class="st1" d="M29.6,47l-2.9-6.9l-0.9-2.3V47h-1.6V33.2h1.5l2.7,7l0.9,2.3v-9.3h1.6V47H29.6z"/>
			<path class="st1" d="M37.2,47.2c-2,0-3.2-1.3-3.2-3.1v-1.3h1.7V44c0,1.2,0.5,1.8,1.5,1.8c1,0,1.5-0.6,1.5-1.6
				c0-1.3-0.5-2.2-1.9-3.5c-1.3-1.1-2.7-2.7-2.7-4.5c0-1.8,1.1-3.3,3.1-3.3c1.9,0,3.1,1.3,3.1,3.1v1.3h-1.6v-1.1
				c0-1.1-0.5-1.8-1.5-1.8c-0.9,0-1.4,0.5-1.4,1.4c0,1.3,0.5,2.1,2.2,3.6c1.6,1.4,2.4,2.7,2.4,4.4C40.4,46.1,38.9,47.2,37.2,47.2z"
				/>
			<path class="st1" d="M46.9,34.8V47h-1.7V34.8h-2.3v-1.6h6.4v1.6H46.9z"/>
			<path class="st1" d="M52,47V33.2h1.7V47H52z"/>
			<path class="st1" d="M60.7,34.8V47H59V34.8h-2.3v-1.6H63v1.6H60.7z"/>
			<path class="st1" d="M69,47.2c-1.9,0-3.2-1.2-3.2-3.2V33.2h1.7v10.9c0,1,0.5,1.6,1.5,1.6c1,0,1.5-0.5,1.5-1.6V33.2h1.7v10.9
				C72.3,46,70.9,47.2,69,47.2z"/>
			<path class="st1" d="M79.1,34.8V47h-1.7V34.8h-2.3v-1.6h6.4v1.6H79.1z"/>
			<path class="st1" d="M84.3,47V33.2h5.4v1.6H86V39h2.7v1.5H86v4.9h3.7V47H84.3z"/>
		</g>
		<g>
			<path class="st1" d="M98,39.8c0.1,0.3,0.1,0.6,0.1,0.9c0,0.3-0.1,0.7-0.3,1c-0.2,0.3-0.4,0.6-0.6,0.9c-0.3,0.2-0.6,0.4-1,0.5
				c-0.4,0.1-0.8,0.1-1.1,0.1c-0.3-0.1-0.6-0.2-0.7-0.4c-0.2-0.2-0.3-0.4-0.4-0.7c-0.1-0.4-0.1-0.8,0-1.3c0.1-0.5,0.3-0.9,0.6-1.2
				c0.3-0.4,0.7-0.6,1.2-0.8c0.4-0.1,0.7-0.1,1-0.1c0.3,0.1,0.5,0.2,0.7,0.4C97.8,39.3,98,39.6,98,39.8z M97.1,39.7
				c-0.2-0.6-0.6-0.9-1.2-0.7c-0.2,0-0.3,0.1-0.4,0.2c-0.1,0.1-0.2,0.2-0.3,0.4c-0.1,0.2-0.2,0.4-0.2,0.6c-0.1,0.3-0.1,0.6-0.1,1
				c0,0.4,0,0.7,0.1,1c0.2,0.6,0.6,0.8,1.2,0.7c0.3-0.1,0.6-0.3,0.7-0.6c0.2-0.3,0.3-0.6,0.3-1C97.3,40.6,97.2,40.1,97.1,39.7z"/>
			<path class="st1" d="M102.3,37.9L102,38c-0.1-0.1-0.2-0.3-0.3-0.3c-0.1-0.1-0.2-0.1-0.2-0.1c-0.1,0-0.2,0-0.2,0
				c-0.1,0-0.2,0-0.4,0.1l-0.3,0.1l0,1.6l0.2-0.1c0.2,0,0.3-0.1,0.4-0.1c0.1,0,0.1-0.1,0.2-0.2c0-0.1,0.1-0.1,0.1-0.2
				c0-0.1,0-0.2,0-0.3l0.3-0.1l0,1.7l-0.3,0.1c0-0.2,0-0.3,0-0.4c-0.1-0.2-0.2-0.3-0.6-0.2l-0.2,0.1v1.2c0,0.1,0,0.2,0,0.3
				c0,0.1,0.1,0.1,0.1,0.2c0.1,0,0.1,0,0.2,0c0.1,0,0.1,0,0.2,0l0.1,0l0,0.3l-1.8,0.5l0-0.3c0.1,0,0.2-0.1,0.3-0.2
				c0-0.1,0.1-0.2,0.1-0.4l0-2.7c0-0.1,0-0.2,0-0.2c0-0.1-0.1-0.2-0.2-0.2c-0.1,0-0.2,0-0.3,0l0-0.3l2.8-0.8L102.3,37.9z"/>
		</g>
		<g>
			<path class="st1" d="M109.3,34.7v4.5h2.8v1.5h-2.8V47h-1.7V33.2h5.3v1.6H109.3z"/>
			<path class="st1" d="M115.8,47V33.2h1.7V47H115.8z"/>
			<path class="st1" d="M126.5,47l-2.9-6.9l-0.9-2.3V47H121V33.2h1.5l2.7,7l0.9,2.3v-9.3h1.6V47H126.5z"/>
			<path class="st1" d="M135.7,47l-0.6-3.2h-2.4l-0.6,3.2h-1.6l2.6-13.8h1.8l2.6,13.8H135.7z M133.9,36.4l-1,5.9h1.9L133.9,36.4z"/>
			<path class="st1" d="M145.6,47l-2.9-6.9l-0.9-2.3V47h-1.6V33.2h1.5l2.7,7l0.9,2.3v-9.3h1.6V47H145.6z"/>
			<path class="st1" d="M153.5,47.2c-2.1,0-3.2-1.5-3.2-3.3v-7.7c0-1.8,1.1-3.3,3.2-3.3c2.1,0,3.2,1.4,3.2,3.2V38h-1.5v-1.9
				c0-0.9-0.5-1.6-1.6-1.6c-1,0-1.6,0.7-1.6,1.5v8.1c0,0.9,0.5,1.5,1.6,1.5c1,0,1.6-0.6,1.6-1.6v-2h1.5V44
				C156.6,45.8,155.6,47.2,153.5,47.2z"/>
			<path class="st1" d="M159.8,47V33.2h5.4v1.6h-3.7V39h2.7v1.5h-2.7v4.9h3.7V47H159.8z"/>
			<path class="st1" d="M109.3,34.7v4.5h2.8v1.5h-2.8V47h-1.7V33.2h5.3v1.6H109.3z"/>
		</g>
		<path class="st1" d="M93.9,36.8c2-2.4,7-1.6,8.8-3l0,0C101.1,35.8,96.3,35,93.9,36.8L93.9,36.8z"/>
		<path class="st1" d="M93.9,46.3c2-2.4,7-1.6,8.8-3l0,0C101.1,45.3,96.3,44.5,93.9,46.3L93.9,46.3z"/>
	</g>
	<g>
		<path class="st2" d="M57.6,60.6h-4.7v-0.3c0.6,0,0.7-0.1,0.7-0.5v-3.9c0-0.4-0.1-0.5-0.7-0.5v-0.3h4.5l0,2h-0.2
			c-0.4-1.2-0.8-1.7-1.9-1.7c-0.5,0-0.9,0.1-0.9,0.5v1.7c0.8,0,1.2-0.1,1.3-1l0.2,0v2.2h-0.2c-0.1-0.9-0.5-0.9-1.3-1V60
			c0,0.3,0.2,0.4,0.7,0.4c1.1,0,1.9-0.2,2.3-1.8h0.2L57.6,60.6z"/>
		<path class="st2" d="M58.8,58.6h0.2c0.2,0.9,0.8,1.9,1.8,1.9c0.6,0,1.2-0.4,1.2-1c0-1.8-3.2-0.7-3.2-2.9c0-1,0.9-1.5,1.7-1.5
			c0.7,0,1.1,0.5,1.3,0.5c0.1,0,0.2-0.3,0.2-0.4h0.3V57h-0.2c-0.2-0.8-0.7-1.7-1.6-1.7c-0.6,0-1.1,0.3-1.1,1c0,1.5,3.2,0.7,3.2,2.7
			c0,1.1-0.9,1.8-1.9,1.8c-0.8,0-1-0.4-1.3-0.4c-0.2,0-0.3,0.2-0.4,0.4h-0.2V58.6z"/>
		<path class="st2" d="M67.9,57c-0.2-1-0.5-1.6-1.7-1.6v4.4c0,0.4,0.1,0.5,0.8,0.5v0.3h-2.4v-0.3c0.6,0,0.8-0.1,0.8-0.5v-4.4
			c-1.1,0-1.5,0.6-1.7,1.6h-0.2l0-1.9h2.3h2.3l0,1.9H67.9z"/>
		<path class="st2" d="M68.2,60.6v-0.3c0.6,0,0.8-0.4,1-0.8l1.6-4.4h0.3l1.8,4.5c0.2,0.6,0.4,0.8,0.9,0.8v0.3h-2.2v-0.3
			c0.6,0,0.6-0.1,0.6-0.3c0-0.2-0.2-0.8-0.4-1.3h-1.9c-0.1,0.4-0.4,0.9-0.4,1.2c0,0.3,0.2,0.4,0.8,0.4v0.3H68.2z M71.5,58.5
			l-0.8-2.1l-0.8,2.1H71.5z"/>
		<path class="st2" d="M74.9,55.9c0-0.4-0.1-0.5-0.7-0.5v-0.3h2.6c1.5,0,2,0.7,2,1.4c0,0.7-0.7,1.2-1.6,1.2v0c1.2,0,1.8,0.6,1.8,1.4
			c0,0.5-0.5,1.5-1.8,1.5h-3v-0.3c0.6,0,0.7-0.1,0.7-0.5V55.9z M76.5,57.6c1.1,0,1.3-0.4,1.3-1.1c0-0.8-0.4-1.2-1.4-1.2
			c-0.7,0-0.7,0.2-0.7,0.4v1.8H76.5z M75.7,57.9v1.9c0,0.4,0.2,0.6,0.8,0.6c1.2,0,1.6-0.4,1.6-1.2c0-0.8-0.3-1.2-1.1-1.2H75.7z"/>
		<path class="st2" d="M84.1,60.6h-4.2v-0.3c0.6,0,0.7-0.1,0.7-0.5v-3.9c0-0.4-0.1-0.5-0.7-0.5v-0.3h2.3v0.3c-0.6,0-0.8,0.1-0.8,0.5
			v3.9c0,0.4,0.2,0.5,0.6,0.5c0.7,0,1.5-0.2,1.9-1.8h0.2L84.1,60.6z"/>
		<path class="st2" d="M87.2,55.1v0.3c-0.6,0-0.8,0.1-0.8,0.5v3.9c0,0.4,0.1,0.5,0.8,0.5v0.3h-2.3v-0.3c0.6,0,0.8-0.1,0.8-0.5v-3.9
			c0-0.4-0.1-0.5-0.8-0.5v-0.3H87.2z"/>
		<path class="st2" d="M88.2,58.6h0.2c0.2,0.9,0.8,1.9,1.8,1.9c0.6,0,1.2-0.4,1.2-1c0-1.8-3.2-0.7-3.2-2.9c0-1,0.9-1.5,1.7-1.5
			c0.7,0,1.1,0.5,1.3,0.5c0.1,0,0.2-0.3,0.2-0.4h0.3V57h-0.2c-0.2-0.8-0.7-1.7-1.6-1.7c-0.6,0-1.1,0.3-1.1,1c0,1.5,3.2,0.7,3.2,2.7
			c0,1.1-0.9,1.8-1.9,1.8c-0.8,0-1-0.4-1.3-0.4c-0.2,0-0.3,0.2-0.4,0.4h-0.2V58.6z"/>
		<path class="st2" d="M92.9,60.6v-0.3c0.6,0,0.7-0.1,0.7-0.5v-3.9c0-0.4-0.1-0.5-0.7-0.5v-0.3h2.3v0.3c-0.6,0-0.8,0.1-0.8,0.5v1.7
			h2.4v-1.7c0-0.4-0.1-0.5-0.8-0.5v-0.3h2.3v0.3c-0.6,0-0.7,0.1-0.7,0.5v3.9c0,0.4,0.1,0.5,0.8,0.5v0.3H96v-0.3
			c0.6,0,0.7-0.1,0.7-0.5v-2h-2.4v2c0,0.4,0.1,0.5,0.8,0.5v0.3H92.9z"/>
		<path class="st2" d="M103.9,60.6h-4.7v-0.3c0.6,0,0.7-0.1,0.7-0.5v-3.9c0-0.4-0.1-0.5-0.7-0.5v-0.3h4.5l0,2h-0.2
			c-0.4-1.2-0.8-1.7-1.9-1.7c-0.5,0-0.9,0.1-0.9,0.5v1.7c0.8,0,1.2-0.1,1.3-1l0.2,0v2.2h-0.2c-0.1-0.9-0.5-0.9-1.3-1V60
			c0,0.3,0.2,0.4,0.7,0.4c1.1,0,1.9-0.2,2.3-1.8h0.2L103.9,60.6z"/>
		<path class="st2" d="M105,55.1h2.6c1.2,0,2.6,0.9,2.6,2.7c0,1.9-1.4,2.8-2.5,2.8H105v-0.3c0.6,0,0.8-0.1,0.8-0.5v-3.9
			c0-0.4-0.1-0.5-0.8-0.5V55.1z M106.6,59.8c0,0.5,0.1,0.6,0.8,0.6c1.6,0,1.9-1,1.9-2.5c0-1.9-0.6-2.5-1.9-2.5
			c-0.7,0-0.8,0.1-0.8,0.6V59.8z"/>
		<path class="st2" d="M114.4,55.6c0.6,0,1.1-0.2,1.3-0.5h0.2v4.7c0,0.4,0.2,0.6,1,0.6v0.3h-2.7v-0.3c0.8,0,1-0.2,1-0.6v-3.5
			c0-0.2-0.2-0.4-0.8-0.4V55.6z"/>
		<path class="st2" d="M119.6,55c1.3,0,1.8,1.4,1.8,2.5c0,1.9-1,3.2-2.1,3.2c-0.7,0-1.3-0.4-1.3-1c0-0.4,0.2-0.6,0.5-0.6
			c0.3,0,0.4,0.2,0.4,0.5c0,0.3-0.2,0.4-0.4,0.4c-0.1,0-0.1,0-0.2,0c0.1,0.3,0.6,0.5,1,0.5c1,0,1.3-1.1,1.3-2c0-0.1,0-0.3,0-0.4h0
			c-0.2,0.4-0.6,0.6-1.1,0.6c-0.9,0-1.6-0.9-1.6-1.7C117.8,56,118.5,55,119.6,55z M120.6,56.8c0-1.3-0.4-1.5-1-1.5
			c-0.5,0-1,0.3-1,1.5c0,1.3,0.4,1.6,1,1.6C120.1,58.4,120.6,58.1,120.6,56.8z"/>
		<path class="st2" d="M122.3,60.6c0-1.8,2.6-2.5,2.6-4.1c0-0.7-0.4-1.2-1.1-1.2c-0.6,0-1.1,0.4-1.1,1c0.1,0,0.2-0.1,0.3-0.1
			c0.2,0,0.4,0.1,0.4,0.5c0,0.2-0.2,0.5-0.5,0.5c-0.3,0-0.5-0.2-0.5-0.7c0-0.9,0.8-1.4,1.6-1.4c0.9,0,1.7,0.5,1.7,1.4
			c0,1.7-2.4,2.1-2.9,3.5h1.7c0.7,0,1-0.3,1.1-1h0.2l-0.1,1.7H122.3z"/>
		<path class="st2" d="M126.8,60.6c0-1.8,2.6-2.5,2.6-4.1c0-0.7-0.4-1.2-1.1-1.2c-0.6,0-1.1,0.4-1.1,1c0.1,0,0.2-0.1,0.3-0.1
			c0.2,0,0.4,0.1,0.4,0.5c0,0.2-0.2,0.5-0.5,0.5c-0.3,0-0.5-0.2-0.5-0.7c0-0.9,0.8-1.4,1.6-1.4c0.9,0,1.7,0.5,1.7,1.4
			c0,1.7-2.4,2.1-2.9,3.5h1.7c0.7,0,1-0.3,1.1-1h0.2l-0.1,1.7H126.8z"/>
	</g>
</g>
</svg>
