<?xml version="1.0" encoding="utf-8"?>
<!-- Generator: Adobe Illustrator 19.0.0, SVG Export Plug-In . SVG Version: 6.00 Build 0)  -->
<svg version="1.1" id="Layer_1" xmlns="http://www.w3.org/2000/svg" xmlns:xlink="http://www.w3.org/1999/xlink" x="0px" y="0px"
	 viewBox="0 0 362.1 291.6" style="enable-background:new 0 0 362.1 291.6;" xml:space="preserve">
<style type="text/css">
	.st0{fill:#4CA592;}
	.st1{fill-rule:evenodd;clip-rule:evenodd;fill:#4D3031;}
	.st2{fill-rule:evenodd;clip-rule:evenodd;fill:#4CA592;}
	.st3{fill:#4D3031;}
</style>
<g>
	<g>
		<path class="st0" d="M175.6,291h-10l0-1.8c0.2,0,0.5,0,0.7-0.1c0.4,0,0.7-0.1,0.9-0.2c0.4-0.1,0.7-0.3,0.9-0.6
			c0.2-0.3,0.3-0.7,0.3-1.2v-13.6c0-0.5-0.1-0.9-0.3-1.2c-0.2-0.4-0.5-0.7-0.9-0.9c-0.3-0.2-0.7-0.3-1.2-0.4c-0.5-0.1-1-0.2-1.5-0.2
			l-0.1,0v-1.7l8-0.5l0,0l0.3,0.4v18c0,0.5,0.1,0.9,0.3,1.2c0.2,0.3,0.5,0.6,0.9,0.7c0.3,0.1,0.6,0.2,0.9,0.3c0.2,0,0.4,0.1,0.7,0.1
			L175.6,291z M170.2,264.2c-0.8,0-1.5-0.3-2.1-0.9c-0.6-0.6-0.9-1.4-0.9-2.2c0-0.8,0.3-1.6,0.9-2.2c0.6-0.6,1.3-1,2.1-1
			c0.9,0,1.6,0.3,2.2,0.9c0.6,0.6,0.9,1.3,0.9,2.1c0,0.9-0.3,1.7-0.9,2.3C171.8,263.8,171,264.2,170.2,264.2L170.2,264.2
			L170.2,264.2z"/>
		<path class="st0" d="M288.8,291h-10l0-1.8c0.2,0,0.5,0,0.7-0.1c0.4,0,0.7-0.1,0.9-0.2c0.4-0.1,0.7-0.3,0.9-0.6
			c0.2-0.3,0.3-0.7,0.3-1.2v-13.6c0-0.5-0.1-0.9-0.3-1.2c-0.2-0.4-0.5-0.7-0.9-0.9c-0.3-0.2-0.7-0.3-1.2-0.4c-0.5-0.1-1-0.2-1.5-0.2
			l-0.1,0v-1.7l8-0.5l0,0l0.3,0.4v18c0,0.5,0.1,0.9,0.3,1.2c0.2,0.3,0.5,0.6,0.9,0.7c0.3,0.1,0.6,0.2,0.9,0.3c0.2,0,0.4,0.1,0.7,0.1
			L288.8,291z M283.4,264.2c-0.8,0-1.5-0.3-2.1-0.9c-0.6-0.6-0.9-1.4-0.9-2.2c0-0.8,0.3-1.6,0.9-2.2c0.6-0.6,1.3-1,2.1-1
			c0.9,0,1.6,0.3,2.2,0.9c0.6,0.6,0.9,1.3,0.9,2.1c0,0.9-0.3,1.7-0.9,2.3C285,263.8,284.3,264.2,283.4,264.2L283.4,264.2
			L283.4,264.2z"/>
		<path class="st0" d="M200.9,291h-10.6v-1.7l0.1,0c0.3,0,0.7-0.1,1.1-0.1c0.4,0,0.7-0.1,1-0.2c0.4-0.1,0.7-0.3,0.9-0.6
			c0.2-0.3,0.3-0.7,0.3-1.2v-11.3c0-1.5-0.4-2.7-1.1-3.5c-0.7-0.8-1.6-1.2-2.6-1.2c-0.8,0-1.5,0.1-2.1,0.4c-0.7,0.2-1.2,0.5-1.7,0.9
			c-0.5,0.3-0.9,0.7-1.1,1.1c-0.3,0.4-0.5,0.7-0.6,0.9v12.7c0,0.5,0.1,0.9,0.3,1.2c0.2,0.3,0.5,0.5,0.9,0.7c0.3,0.1,0.6,0.3,1,0.3
			c0.4,0.1,0.7,0.1,1.1,0.2l0.1,0v1.7h-10.6l0-1.7c0.2,0,0.5,0,0.7-0.1c0.4,0,0.7-0.1,0.9-0.2c0.4-0.1,0.7-0.3,0.9-0.6
			c0.2-0.3,0.3-0.7,0.3-1.2v-13.6c0-0.5-0.1-0.9-0.3-1.3c-0.2-0.4-0.5-0.7-0.9-1c-0.3-0.2-0.6-0.3-1-0.4c-0.4-0.1-0.8-0.1-1.2-0.2
			l-0.1,0v-1.7l7.5-0.5l0,0l0.4,0.4v3c0.3-0.3,0.8-0.7,1.2-1.2c0.5-0.5,1-0.9,1.5-1.2c0.6-0.4,1.2-0.7,2-0.9
			c0.8-0.2,1.6-0.4,2.6-0.4c2.1,0,3.8,0.7,4.8,2c1,1.4,1.6,3.1,1.6,5.3v11.5c0,0.5,0.1,0.9,0.3,1.2c0.2,0.3,0.4,0.5,0.9,0.7
			c0.4,0.1,0.7,0.2,0.9,0.3c0.2,0,0.4,0.1,0.7,0.1"/>
		<path class="st0" d="M202.7,291v-1.7l0.1,0c0.3,0,0.7-0.1,1.1-0.1c0.4,0,0.7-0.1,0.9-0.2c0.4-0.1,0.7-0.3,0.9-0.6
			c0.2-0.3,0.3-0.7,0.3-1.2v-13.6c0-0.5-0.1-0.9-0.3-1.2c-0.2-0.4-0.5-0.7-0.9-0.9c-0.3-0.2-0.7-0.3-1.2-0.4c-0.5-0.1-1-0.2-1.5-0.2
			l-0.1,0v-1.7l8-0.5l0,0l0.3,0.4v18c0,0.5,0.1,0.9,0.3,1.2c0.2,0.3,0.5,0.6,0.9,0.7c0.3,0.1,0.6,0.2,0.9,0.3c0.3,0.1,0.6,0.1,1,0.2
			l0.1,0v1.6v0.1H202.7z M216.4,290.9v-0.1V290.9z M207.8,264.2c-0.8,0-1.5-0.3-2.1-0.9c-0.6-0.6-0.9-1.4-0.9-2.2
			c0-0.8,0.3-1.6,0.9-2.2c0.6-0.6,1.3-1,2.1-1c0.9,0,1.6,0.3,2.2,0.9c0.6,0.6,0.9,1.3,0.8,2.1c0,0.9-0.3,1.7-0.9,2.3
			C209.4,263.8,208.6,264.2,207.8,264.2L207.8,264.2z"/>
		<path class="st0" d="M217.2,290c-0.8-1-1.2-2.3-1.2-4v-14.8h-2.6v-2.4h2.7v-6.9h4.3v6.9h6.3v2.4h-6.3v12.2c0,0.9,0,1.7,0.1,2.3
			c0.1,0.6,0.2,1.1,0.5,1.6c0.2,0.4,0.6,0.7,1,0.9c0.5,0.2,1.1,0.3,1.9,0.3c0.4,0,0.9,0,1.6-0.1c0.7-0.1,1.2-0.1,1.5-0.2l0.2-0.1
			v1.8v0.1l-0.1,0c-1,0.4-1.9,0.7-2.8,1c-0.9,0.3-2,0.4-3.2,0.4C219.4,291.5,218,291,217.2,290"/>
		<path class="st0" d="M265.8,290c-0.8-1-1.2-2.3-1.2-4v-14.8h-2.6v-2.4h2.7v-6.9h4.3v6.9h6.3v2.4h-6.3v12.2c0,0.9,0,1.7,0.1,2.3
			c0.1,0.6,0.2,1.1,0.5,1.6c0.2,0.4,0.6,0.7,1,0.9c0.5,0.2,1.1,0.3,1.9,0.3c0.4,0,0.9,0,1.6-0.1c0.7-0.1,1.2-0.1,1.5-0.2l0.2-0.1
			v1.8v0.1l-0.1,0c-1,0.4-1.9,0.7-2.8,1c-0.9,0.3-2,0.4-3.2,0.4C268,291.5,266.6,291,265.8,290"/>
		<path class="st0" d="M229.8,291v-1.7l0.1,0c0.3,0,0.7-0.1,1.1-0.1c0.4,0,0.7-0.1,0.9-0.2c0.4-0.1,0.7-0.3,0.9-0.6
			c0.2-0.3,0.3-0.7,0.3-1.2v-13.6c0-0.5-0.1-0.9-0.3-1.2c-0.2-0.4-0.5-0.7-0.9-0.9c-0.3-0.2-0.7-0.3-1.2-0.4c-0.5-0.1-1-0.2-1.5-0.2
			l-0.1,0v-1.7l8-0.5l0,0l0.4,0.4l0,18c0,0.5,0.1,0.9,0.3,1.2c0.2,0.3,0.5,0.6,0.9,0.7c0.3,0.1,0.6,0.2,0.9,0.3
			c0.3,0.1,0.6,0.1,1,0.2l0.1,0v1.6v0.1H229.8z M245.5,290.9v-0.1V290.9z M234.8,264.2c-0.8,0-1.5-0.3-2.1-0.9
			c-0.6-0.6-0.9-1.4-0.9-2.2c0-0.8,0.3-1.6,0.9-2.2c0.6-0.6,1.3-1,2.1-1c0.9,0,1.6,0.3,2.2,0.9c0.6,0.6,0.9,1.3,0.8,2.1
			c0,0.9-0.3,1.7-0.9,2.3C236.4,263.8,235.7,264.2,234.8,264.2L234.8,264.2z"/>
		<path class="st0" d="M243.6,290c-1.1-1-1.6-2.4-1.6-4.1c0-0.9,0.1-1.6,0.4-2.3c0.2-0.7,0.6-1.3,1.1-1.9c0.4-0.5,0.9-0.9,1.5-1.2
			c0.6-0.4,1.2-0.6,1.7-0.9c0.7-0.2,2-0.7,4.1-1.4c2-0.7,3.3-1.2,4.1-1.6v-2.1c0-0.2,0-0.5-0.1-1.1c-0.1-0.5-0.2-1-0.5-1.5
			c-0.3-0.5-0.7-1-1.2-1.4c-0.5-0.4-1.3-0.6-2.2-0.6c-0.7,0-1.3,0.1-1.9,0.3c-0.6,0.2-0.9,0.4-1.2,0.7c0,0.3,0.1,0.7,0.2,1.2
			c0.1,0.6,0.2,1.1,0.2,1.6c0,0.6-0.3,1.1-0.7,1.5c-0.5,0.5-1.2,0.7-2,0.7c-0.8,0-1.4-0.3-1.7-0.9c-0.4-0.5-0.5-1.2-0.5-1.8
			c0-0.7,0.3-1.4,0.7-2c0.5-0.6,1.1-1.2,1.9-1.7c0.7-0.4,1.5-0.8,2.5-1.1c1-0.3,1.9-0.4,2.8-0.4c1.3,0,2.4,0.1,3.3,0.3
			c1,0.2,1.8,0.6,2.6,1.1c0.8,0.6,1.4,1.3,1.8,2.3c0.4,1,0.6,2.2,0.6,3.7c0,2.1,0,4-0.1,5.7c0,1.6-0.1,3.5-0.1,5.4
			c0,0.6,0.1,1,0.3,1.3c0.2,0.3,0.5,0.6,0.9,0.8c0.2,0.1,0.5,0.2,1,0.2c0.5,0,1,0,1.5,0h0.1v1.6v0.1l-0.1,0
			c-0.7,0.3-1.3,0.5-1.9,0.6c-0.5,0.2-1.2,0.2-1.8,0.2c-1.2,0-2.1-0.3-2.9-0.8c-0.7-0.5-1.1-1.3-1.4-2.3c-1,1.1-2,1.9-3.1,2.4
			c-1.1,0.6-2.5,0.9-4.1,0.9C246.1,291.6,244.7,291,243.6,290 M251.7,279.9c-0.9,0.4-1.8,0.8-2.6,1.3c-0.7,0.5-1.3,1.1-1.7,1.8
			c-0.4,0.7-0.6,1.5-0.6,2.4c0,1.2,0.3,2.1,0.9,2.6c0.6,0.6,1.4,0.8,2.4,0.9c1,0,1.9-0.3,2.7-0.8c0.8-0.5,1.4-1.1,2-1.8l0.1-7.5
			C253.6,279.2,252.6,279.5,251.7,279.9"/>
		<path class="st0" d="M299.6,291.2L299.6,291.2c-1.4-3.6-2.8-6.8-3.9-9.7c-1.2-2.9-2.4-5.8-3.7-8.9c-0.3-0.7-0.7-1.2-1.4-1.5
			c-0.7-0.4-1.3-0.6-2-0.7l-0.1,0v-1.7H299v1.8l-0.1,0c-0.4,0-1,0.1-1.6,0.3c-0.7,0.2-0.9,0.4-0.9,0.6c0,0,0,0.1,0.1,0.3
			c0.1,0.2,0.1,0.4,0.2,0.6c0.6,1.5,1.5,3.6,2.6,6.4c1.1,2.6,1.9,4.7,2.6,6.3c0.5-1.2,1.2-2.7,1.9-4.5c0.8-1.9,1.7-4,2.6-6.4
			c0.2-0.4,0.3-0.8,0.4-1.1c0.1-0.3,0.2-0.7,0.2-1c0-0.2-0.1-0.4-0.3-0.6c-0.2-0.2-0.5-0.4-0.9-0.5c-0.3-0.2-0.7-0.3-1-0.3
			c-0.3-0.1-0.6-0.1-0.8-0.2l-0.1,0v-1.7h8.7v1.5v0.1l-0.1,0c-0.7,0.1-1.3,0.4-1.9,0.7c-0.6,0.4-1.1,1-1.5,1.9
			c-0.9,2-1.8,4.1-2.7,6.3c-0.9,2.2-1.9,4.4-2.9,6.8c-0.3,0.7-0.6,1.5-0.9,2.4c-0.3,0.9-0.6,1.8-0.9,2.7l0,0.1H299.6z"/>
		<path class="st0" d="M317.5,290.6c-1.4-0.6-2.5-1.5-3.3-2.6c-0.9-1.1-1.5-2.4-2-3.8c-0.4-1.4-0.6-3-0.6-4.6c0-1.4,0.2-2.9,0.7-4.3
			c0.5-1.4,1.1-2.6,2-3.8c0.9-1.1,1.9-1.9,3.2-2.6c1.3-0.7,2.7-1,4.3-1c1.6,0,3,0.3,4.2,0.8c1.2,0.5,2.1,1.2,2.8,2.1
			c0.7,0.8,1.2,1.8,1.6,3c0.3,1.1,0.5,2.4,0.5,3.7v1.6h-14.6c0,1.4,0.1,2.7,0.4,3.8c0.3,1.2,0.7,2.2,1.3,3.1c0.6,0.8,1.3,1.5,2.2,2
			c0.9,0.5,2,0.7,3.3,0.7c1.3,0,2.4-0.3,3.4-0.9c0.9-0.6,1.8-1.7,2.7-3.3l0.1-0.1l1.7,1l-0.1,0.1l0.1-0.1l0.1,0.1l-0.1,0.1
			c-0.9,1.8-2.2,3.2-3.8,4.2c-1.6,1.1-3.4,1.6-5.4,1.6C320.5,291.6,318.9,291.3,317.5,290.6 M326.2,277.2c0-0.8-0.1-1.6-0.2-2.5
			c-0.1-0.9-0.4-1.7-0.7-2.3c-0.3-0.7-0.8-1.2-1.4-1.6c-0.6-0.4-1.3-0.6-2.2-0.6c-1.5,0-2.8,0.6-3.8,1.9c-1,1.3-1.6,3-1.7,5.2H326.2
			z"/>
	</g>
	<g>
		<path class="st0" d="M193.5,99.2H182v-1.7l0.1,0c1-0.1,1.9-0.2,2.6-0.4c0.7-0.2,1-0.4,0.9-0.6c0-0.1,0-0.3,0-0.4
			c0-0.2-0.1-0.3-0.1-0.4l-2.3-6.3h-9.9c-0.4,0.9-0.7,1.7-0.9,2.4c-0.2,0.7-0.4,1.3-0.6,1.9c-0.2,0.6-0.3,1-0.4,1.4
			c-0.1,0.4-0.1,0.6-0.1,0.9c0,0.5,0.3,0.8,1.2,1.1c0.7,0.2,1.4,0.4,2.2,0.5c0.2,0,0.4,0,0.6,0l0.1,0v1.7h-0.7h-9.6l0-1.8
			c0.2,0,0.5-0.1,0.7-0.2c0.5-0.1,0.9-0.3,1.2-0.5c0.5-0.4,0.9-0.7,1.2-1.1c0.3-0.4,0.6-0.9,0.9-1.6c1.4-3.6,3-7.6,4.8-12.1
			c1.7-4.5,3.3-8.5,4.6-12l0-0.1h1.8l9.6,24.8c0.2,0.5,0.4,0.9,0.7,1.2c0.2,0.3,0.6,0.6,1,0.9c0.3,0.2,0.7,0.3,1.2,0.5
			c0.2,0.1,0.4,0.1,0.6,0.1L193.5,99.2z M174.1,87.2h8.2l-4.1-10.6L174.1,87.2z"/>
		<path class="st0" d="M194,68.1l7-0.4l0,0l0.3,0.3l0,27.4c0,0.5,0.1,0.8,0.2,1.1c0.2,0.3,0.4,0.5,0.8,0.6c0.3,0.1,0.6,0.2,0.9,0.3
			c0.1,0,0.2,0,0.4,0.1v1.7H195l0-1.7c0.1,0,0.3,0,0.4,0c0.3,0,0.6-0.1,0.8-0.1c0.3-0.1,0.6-0.3,0.8-0.6c0.2-0.3,0.3-0.6,0.3-1.1
			V72.6c0-0.5-0.1-0.9-0.3-1.3c-0.2-0.4-0.5-0.7-0.8-0.9c-0.2-0.1-0.6-0.3-1.3-0.4c-0.4-0.1-0.7-0.1-0.9-0.2V68.1z"/>
		<path class="st0" d="M203.5,68l6.8-0.4l0,0l0.3,0.3v13c0.8-0.9,1.7-1.5,2.7-1.9c1-0.5,2-0.7,3-0.7c2.5,0,4.6,1,6.2,3
			c1.7,2,2.5,4.5,2.5,7.7c0,3-1,5.6-2.9,7.6c-1.9,2.1-4.1,3.1-6.7,3.1c-1.1,0-2.2-0.2-3.3-0.5c-1-0.3-2-0.8-2.9-1.3l-1.5,2.3
			l-1.5-0.3l0-0.1c0.1-1,0.1-2.2,0.1-3.6c0-1.4,0-2.8,0-4.1V72.4c0-0.4-0.1-0.9-0.3-1.3c-0.2-0.4-0.5-0.7-0.8-0.9
			c-0.2-0.2-0.6-0.3-1.2-0.4c-0.3,0-0.6-0.1-0.8-0.1V68z M210.7,94.4c0.1,0.3,0.2,0.7,0.5,1.1c0.2,0.4,0.5,0.8,0.9,1.2
			c0.4,0.4,0.8,0.7,1.3,0.9c0.5,0.2,1.1,0.3,1.8,0.3c1.6,0,2.9-0.8,3.9-2.3c1-1.6,1.5-3.7,1.5-6.4h0c0-1-0.1-2-0.3-3
			c-0.2-1-0.5-1.9-1-2.7c-0.5-0.8-1-1.4-1.8-1.9c-0.7-0.5-1.6-0.7-2.6-0.7c-0.9,0-1.7,0.2-2.4,0.5c-0.7,0.4-1.3,0.8-1.8,1.4
			L210.7,94.4z"/>
		<path class="st0" d="M232.2,98.8c-1.2-0.6-2.2-1.4-3-2.3c-0.8-1-1.4-2.1-1.8-3.4c-0.4-1.3-0.6-2.7-0.6-4.1c0-1.3,0.2-2.6,0.6-3.8
			c0.4-1.3,1-2.4,1.8-3.4c0.8-1,1.7-1.8,2.9-2.4c1.2-0.6,2.5-0.9,3.9-0.9c1.5,0,2.7,0.2,3.8,0.7c1.1,0.5,1.9,1.1,2.6,1.9
			c0.6,0.8,1.1,1.7,1.4,2.7c0.3,1,0.5,2.2,0.5,3.4v1.5h-13.2c0,1.2,0.1,2.4,0.4,3.4c0.2,1.1,0.6,2,1.2,2.8c0.5,0.8,1.2,1.4,2,1.8
			c0.8,0.4,1.8,0.7,3,0.7c1.2,0,2.2-0.3,3-0.8c0.8-0.5,1.7-1.5,2.5-3l0.1-0.1l1.5,0.9l-0.1,0.1l0.1-0.1l0.1,0.1l-0.1,0.1
			c-0.8,1.6-2,2.9-3.4,3.8c-1.4,1-3.1,1.4-4.9,1.4h0C234.8,99.7,233.4,99.4,232.2,98.8 M240.2,86.8v-0.1V86.8z M240.1,86.6
			c0-0.7-0.1-1.5-0.2-2.3c-0.1-0.8-0.3-1.6-0.6-2.1c-0.3-0.6-0.7-1.1-1.2-1.5c-0.5-0.4-1.2-0.6-2-0.6c-1.4,0-2.5,0.6-3.4,1.7
			c-0.9,1.1-1.4,2.7-1.5,4.7H240.1z"/>
		<path class="st0" d="M244.8,79.2l6.1-0.4l0,0l0.3,0.3v2.6c0.8-1,1.7-1.8,2.7-2.3c1-0.6,2-0.9,2.9-0.9c0.9,0,1.6,0.3,2.2,0.9
			c0.6,0.6,0.8,1.4,0.8,2.3c0,0.7-0.2,1.3-0.5,1.9c-0.4,0.6-0.9,0.9-1.7,0.9c-0.8,0-1.4-0.2-1.8-0.6c-0.4-0.4-0.6-0.9-0.6-1.4
			c0-0.3,0-0.6,0.1-0.8c0-0.2,0.1-0.4,0.1-0.6c-0.6,0-1.2,0.3-2,0.7c-0.8,0.5-1.5,1.2-2.1,2.1v11.6c0,0.5,0.1,0.8,0.3,1.1
			c0.2,0.3,0.4,0.5,0.8,0.6c0.3,0.1,0.7,0.2,1.3,0.3c0.3,0,0.5,0.1,0.8,0.1l0,1.7h-9.3l0-1.7c0.1,0,0.3,0,0.4,0
			c0.3,0,0.6-0.1,0.8-0.2c0.4-0.1,0.6-0.3,0.8-0.6c0.2-0.3,0.3-0.6,0.3-1.1V83.4c0-0.4-0.1-0.8-0.3-1.2c-0.2-0.4-0.4-0.7-0.8-0.9
			c-0.2-0.2-0.5-0.3-0.9-0.3c-0.2,0-0.3-0.1-0.5-0.1L244.8,79.2z"/>
		<path class="st0" d="M272.5,98.6c-0.7,0.3-1.3,0.5-1.9,0.7c-0.8,0.3-1.8,0.4-2.9,0.4c-1.7,0-2.9-0.4-3.6-1.3
			c-0.7-0.9-1.1-2.1-1-3.6l0-13.4H261v-2.2h2.2v-6.2h3.9v6.2h5l0,2.2h-5v11c0,0.8,0,1.5,0.1,2.1c0.1,0.5,0.2,1,0.4,1.4
			c0.2,0.4,0.5,0.6,0.9,0.8c0.4,0.2,1,0.3,1.7,0.3c0.3,0,0.8,0,1.5-0.1c0.3,0,0.6-0.1,0.8-0.1L272.5,98.6z"/>
		<path class="st0" d="M275.2,98.3c-1-0.9-1.5-2.2-1.5-3.7c0-0.8,0.1-1.5,0.3-2.1c0.2-0.6,0.6-1.2,1-1.7c0.3-0.4,0.8-0.8,1.4-1.1
			c0.6-0.3,1.1-0.6,1.6-0.8c0.6-0.2,1.8-0.7,3.7-1.3c1.8-0.6,3-1.1,3.7-1.4v-1.9c0-0.2,0-0.5-0.1-1c-0.1-0.5-0.2-0.9-0.5-1.4
			c-0.3-0.5-0.6-0.9-1.1-1.3c-0.5-0.3-1.1-0.5-2-0.5c-0.6,0-1.2,0.1-1.7,0.3c-0.5,0.2-0.8,0.4-1,0.6c0,0.2,0.1,0.6,0.2,1.1
			c0.1,0.5,0.2,1,0.2,1.5c0,0.5-0.2,1-0.7,1.4c-0.5,0.4-1.1,0.6-1.9,0.6c-0.7,0-1.3-0.3-1.6-0.8c-0.3-0.5-0.5-1.1-0.5-1.7
			c0-0.7,0.2-1.3,0.7-1.9c0.4-0.6,1-1.1,1.7-1.5c0.6-0.4,1.4-0.7,2.2-1c0.9-0.3,1.7-0.4,2.6-0.4c1.1,0,2.1,0.1,3,0.2
			c0.9,0.2,1.7,0.5,2.3,1c0.7,0.5,1.3,1.2,1.6,2.1c0.4,0.9,0.5,2,0.5,3.4c0,1.9,0,3.6-0.1,5.1c0,1.5-0.1,3.1-0.1,4.9
			c0,0.5,0.1,0.9,0.3,1.2c0.2,0.3,0.4,0.5,0.8,0.7c0.2,0.1,0.5,0.2,0.9,0.2c0.4,0,0.9,0,1.3,0h0.1v0.1v1.3v0.1l-0.1,0
			c-0.6,0.2-1.2,0.4-1.7,0.6c-0.5,0.1-1.1,0.2-1.7,0.2c-1.1,0-1.9-0.2-2.6-0.8c-0.6-0.5-1-1.2-1.2-2.1c-0.9,0.9-1.8,1.7-2.8,2.2
			c-1,0.5-2.3,0.8-3.7,0.8C277.4,99.7,276.1,99.2,275.2,98.3 M282,89.1c-0.9,0.3-1.6,0.7-2.4,1.2c-0.7,0.4-1.2,1-1.6,1.6
			c-0.4,0.6-0.6,1.3-0.6,2.2c0,1.1,0.3,1.9,0.8,2.4c0.6,0.5,1.3,0.8,2.1,0.8c0.9,0,1.7-0.2,2.4-0.7c0.7-0.5,1.3-1,1.8-1.6l0.1-6.7
			C283.8,88.5,282.8,88.8,282,89.1"/>
	</g>
	<g>
		<path class="st1" d="M26.6,42.2c3.7-1.6,7.4-3.4,7.9-7.3c0.3-2.1,0-2,1-4.7C35.8,29.3,23.7,31.3,26.6,42.2z"/>
		<path class="st1" d="M12.7,81.1c-1.2,0.4-1.1,0.5-2.8,0.6c-0.6,0,3.3,6.7,8.7,2.1C16.8,82.1,14.9,80.4,12.7,81.1z"/>
		<path class="st1" d="M19.1,78.5c0.9-2.3,1.7-4.7,0.2-6.5c-0.8-1-0.9-0.8-1.7-2.3C17.3,69.1,12.8,75.3,19.1,78.5z"/>
		<path class="st1" d="M12.9,76.6C12.9,76.6,12.9,76.6,12.9,76.6c3.8,4.7,14.6,12.9,18.5,13.4c0.8,0.1,1-0.5,0.8-0.7
			c-6.5-4.6-12.6-8.3-19-13.7c0.2-2-0.4-6.3-5.7-6.2c0.2,2.5,0.6,4.9,2.8,5.8C11.5,75.8,11.5,75.6,12.9,76.6z"/>
		<path class="st1" d="M26.7,62.6c-2.7-3-5.7-5.8-9.5-5c-2,0.4-1.9,0.6-4.7,0.6C11.5,58.3,17.4,69,26.7,62.6z"/>
		<path class="st1" d="M28.9,12.7c-0.3-2.1-0.5-2-0.4-4.8c0.1-0.9-11,4.4-5.1,14C26.5,19.4,29.5,16.5,28.9,12.7z"/>
		<path class="st1" d="M14.7,33.2c1.7,1.2,1.8,1,3.6,3.1C19,37.1,23,25.4,12,22.8C11.6,26.8,11.5,31,14.7,33.2z"/>
		<path class="st1" d="M63.8,45.4c1.2,1.6,1.3,1.4,2.5,3.8c0.4,0.8,7.2-8.7-2.2-14C62.7,38.7,61.6,42.5,63.8,45.4z"/>
		<path class="st1" d="M57.5,27.7c0.3,0.7,6.3-7.6-1.9-12.3c-1.2,3.1-2.3,6.4-0.3,9C56.4,25.8,56.5,25.6,57.5,27.7z"/>
		<path class="st1" d="M47.6,25c0.3,0.7,6.3-7.6-1.9-12.3c-1.2,3.1-2.3,6.4-0.3,9C46.5,23,46.7,22.8,47.6,25z"/>
		<path class="st1" d="M11.2,54.4c-3-0.8-6.2-1.4-8.3,0.7c-1.2,1.1-1,1.2-2.9,2.4C-0.6,57.9,7.8,62.5,11.2,54.4z"/>
		<path class="st1" d="M38.1,13.2c0.3,0.7,6.4-6.6-0.8-11.6c-1.4,2.8-2.6,5.8-0.9,8.3C37.2,11.3,37.3,11.2,38.1,13.2z"/>
		<path class="st1" d="M78.3,35.6C70.7,44.5,59,56.4,57.4,82.8c-0.2,3.5,0.2,2.8,0.5,1.3c4.2-19.5,12.4-36.8,20.7-47.6
			C80.1,34.6,78.6,35.3,78.3,35.6z"/>
		<path class="st1" d="M63.5,24.4c-0.2-0.7-0.3-0.6-0.3-0.4c0,1.9-1.9,9-1.9,9.1c0,0.1-0.5-0.9-0.6-0.5c-0.8,1.9-9.2,24-10.1,24.2
			c-0.2,0-1.1-1.2-2.4-2.7c1.9-1.3,7.6-8.2,0.6-14.7c-2.3,3.3-4.4,6.8-2.8,10.4c0.7,1.6,1,1.7,1.3,3.3c-1.4-1.8-3.1-3.7-4.5-4.9
			c1.1-2.2,2.9-10.7-6.3-13.3c-0.5,4-0.8,8.1,2.3,10.5c1.4,1.1,1.7,1.1,2.9,2.6c0,0,0,0,0,0c0,0,0.1,0.1,0.1,0.2
			c0.1,0.1,0.1,0.1,0.2,0.2c1.5,1.9,7.7,10.1,7.3,11.6c-0.4,1.3-3,8.9-7.6,17.6c-2.3-4.4-4.8-9.2-7.4-14c3.1-2.4,6-5,5.6-8.8
			c-0.2-2.1-0.5-2-0.1-4.8c0.1-0.8-9.1,3-6.9,11.1c-3.7-6.6-7.5-12.9-11.4-17.3c-0.7-0.8-1.1,0-1.1,0s10.1,16.3,13.8,27.1
			c0,0,0,0.1,0,0.1c-1.2-2.1-2.6-3.8-4.9-3.8C28,67.2,28,67.4,26,66.8c-0.6-0.2,1.3,8.5,8.5,6.4c4,6.4,9.5,20.8,9.8,21.7
			c0.1,0.2-11.6-2.5-19.4-3c-0.1-1.5-0.3-3-1.2-3.7c-0.5-0.4-0.5-0.3-1.1-1c-0.2-0.2-0.6,3.6,1.6,4.7c-1.3-0.1-2.5,0-3.4,0.1
			c0,0,0,0-0.1,0c-1-0.7-2.1-1.3-3.3-0.9c-0.8,0.3-0.7,0.3-1.8,0.5c-0.3,0,2.1,3.3,5.2,1.1c0.4,0.1,1.3,0.2,2.6,0.3
			c-0.9,0.1-1.7,0.4-2.1,1.2c-0.3,0.6-0.3,0.6-0.9,1.3c-0.2,0.2,3.3,0.9,3.9-2.3c1.6,0.2,3.6,0.5,5.7,0.9c-1.1,0.2-2,0.7-2.6,1.7
			c-0.5,0.8-0.4,0.9-1.2,1.8c-0.3,0.3,4.5,1.4,5.6-3.2c2.1,0.4,4.3,0.9,6.3,1.4c-1.2,0.7-2.3,1.6-2.7,3c-0.3,1.1-0.2,1.1-1,2.6
			c-0.2,0.4,5-0.3,5.7-4.9c1.4,0.5,2.6,0.9,3.5,1.5c8.9,5.2,0.1,41.6,0,41.5c-2.5-1.5-23.5-7.2-24.6-7.4c-0.4-0.1-0.5,1.6-0.3,1.6
			c5.4,0.5,22.2,7.1,24.8,11c1.1,2.5,1.3,13.6,1.3,14.6s2.6,0.3,2.6-0.9c-1-19.9,0.7-28.3,1.4-31.2c0.5-2.1,1.1-1.3,1.1-0.2
			c0,1.1-0.2,5.6,0.1,5.4c6.1-4.7,1.7-35.6-5.6-49.1C44.2,83,65.7,34.4,63.5,24.4z"/>
	</g>
	<g>
		<path class="st2" d="M30.9,19.5c0.1-0.9-11,4.4-5.1,14c3.1-2.6,6.1-5.4,5.5-9.3C30.9,22.2,30.7,22.3,30.9,19.5z"/>
		<path class="st2" d="M50.2,24.3c-0.6,1.4-1.1,2.8-1.4,4.2c-1-1.9-2.9-3.5-6.1-4.5c-0.6,4-0.8,8.1,2.3,10.5
			c1.6,1.3,1.7,1.1,3.5,3.3c0.2,0.3,0.9-1,1.3-3c0.1,0.1,0.1,0.2,0.2,0.2c1.3,1.7,1.4,1.5,2.6,4C52.8,39.9,60,29.9,50.2,24.3z"/>
		<path class="st2" d="M73.2,46.5c-0.5,0.6,9.4,2.9,10.7-6.4c-3.3,0-6.8,0.3-8.4,3.1C74.6,44.7,74.8,44.8,73.2,46.5z"/>
		<path class="st2" d="M74.5,54.3c-3.3,0.6-6.6,1.5-7.7,4.6c-0.6,1.6-0.4,1.7-1.6,3.6C64.7,63.2,75,63.7,74.5,54.3z"/>
		<path class="st2" d="M86.9,11.7c-0.5,0.8-0.8,1.7-0.9,2.7c-0.2,2.1,0,2-0.8,4.7c-0.3,0.9,11.8-1.6,8.4-12.4
			c-1.4,0.6-2.7,1.3-3.9,2.2c0.9-2.6,0.8-6.1-3.2-8.9c-1.5,3-2.9,6.1-1.1,8.9C86.1,10.2,86.3,10.2,86.9,11.7z"/>
		<path class="st2" d="M84.8,29.6c2.4,0.1,8.8-1.2,8.3-8.7c-3.1,0.6-6.2,1.6-7.4,4.3c-0.1-1.6-0.7-3.3-2-5.2c-3,2.7-5.8,5.7-4.9,9.6
			c0.4,2,0.7,1.9,0.6,4.7C79.4,34.9,83,33,84.8,29.6z"/>
		<path class="st2" d="M95.3,33.2c-3.7-1.5-7.7-2.7-10.7-0.4c-1.7,1.3-1.5,1.4-4,2.6C79.7,35.8,89.7,43,95.3,33.2z"/>
		<path class="st2" d="M97.1,35.8c-0.1,0.9,11.3-3.6,6.1-13.6c-3.3,2.3-6.4,4.9-6.1,8.8C97.3,33.1,97.5,33,97.1,35.8z"/>
		<path class="st2" d="M81.1,51c-0.4-0.8-0.9-1.7-1.7-2.5c-2.1,2.6-4.1,5.4-3,8.4c0.6,1.6,0.7,1.5,1,3.9c0,0.4,2.1-0.9,3.4-3.2
			c2.9-0.5,10.1-3.6,7.6-12.2C85.3,46.6,82.3,48.2,81.1,51z"/>
		<path class="st2" d="M65,68.7c-0.9,1.5-0.7,1.5-2.4,3.2c-0.5,0.6,9.4,3.2,10.9-6.1C70.1,65.8,66.7,66,65,68.7z"/>
		<path class="st2" d="M63.5,18.3c0.2,1.7,0.4,1.7,0.1,4c0,0,0,0,0,0c0,0,0,0,0,0c0,0,0,0,0,0C64,23.1,73,25,74.4,16.2
			c-1.7,0-3.5,0-5,0.4c0.4-1.6,0.2-3.5-1-5.7C65.7,12.9,63.1,15.1,63.5,18.3z"/>
		<path class="st2" d="M69.6,36.1c0.5,2.3,0.7,2.2,0.7,5.2c0,1,9.8-4.7,3.5-15.3C71.2,28.8,68.7,31.8,69.6,36.1z"/>
		<path class="st2" d="M79.3,15c1.6,1.4,1.7,1.2,3.3,3.4c0.6,0.8,5.6-10.5-5.1-14C76.8,8.4,76.4,12.5,79.3,15z"/>
		<path class="st2" d="M61.7,15.7c0.5,0.8,6.3-10-4.1-14.4c-1,3.9-1.8,7.9,1,10.7C60,13.5,60.2,13.3,61.7,15.7z"/>
		<path class="st2" d="M16.4,43.8c-1.3-0.6-1.3-0.4-2.8-1.7c-0.5-0.4-0.6,11.1,6.5,10.1C19.5,48.5,18.8,44.8,16.4,43.8z"/>
		<path class="st2" d="M139.6,74.7c11.3-10.6-2.2-31.8-2.1-29.1c0.5,11.6-12.6,8.1-12.6,8.1s20.4-20.1-9.7-19.3c0,0-8.2-9.6-8-7.2
			c0.8,13.2-16.2,21.6-15.6,21.7c2.8,0.4,9.3-4.2,11-3.9c2.2,0.3-9.4,7.1-9.3,7.2c2.3,0.6,9-3.2,9.8-1c0.7,2.2-13.3,7.7-12.7,7.9
			c1,0.3,2.4,0.6,5.8,0.2c6.3-0.7,5.1,1.3,2.5,1.8c-7.7,1.6-33.4,9.1-46.2,39.6c-0.5,1.2,1.4,0.8,1.7,0.3
			c17.6-30.7,49-39.4,50.9-40.3c1.9-0.9,3.8-1.6,5.1-2.9c6.8-6.5,11.3-3.2,11.8-2.7c0,0-2.6,6.2-9.9,5c0,0-2.1-0.3-3.1,0.2
			c-1,0.5-4.8,2.6-5.8,3.1c-1,0.5,3.9-0.2,4.5-0.3c1.4-0.1,1,0.6,0.3,0.8c-5.3,1-9.7,1.6-22.7,8.4c-0.1,0,0,0.2,0.2,0.1
			c9.9-4.5,21.1-2.5,22.5-2.5s3.1,0.6,0.2,0.9c-56.8,5.3-56.7,65.8-47,100.3c0.1,0.5,2.6,0,2.5-1.5c-0.4-4.5-1.4-7.2,2.7-6
			c4.4,1.3,35.9,11.7,45.7,13.7c2.7,0.5,1.7-6.5,1.1-6.6c-1.4-0.3-46.1-12.8-49.3-24.4c-5.3-18.8-0.1-41.2,6.4-40.1
			c1.3,0.2,0,1.5,1.9,7.1c3.2,9.1,20.3,13.7,20.3,13.7c1.7-7.8,27.6,13.4,23.3-15.4c-0.1-0.5-0.3-0.6-0.4-0.6c-0.1,0-0.2,0-0.2,0
			s0.1,0,0.2,0c1.2-0.2,9.2-1.9,11.7-5.4c8.8-11.9-7.7-19.5-6.5-23.5C121.8,78.2,135.4,78.6,139.6,74.7z M107.5,53.8
			c1-3.2,0.7-3.2,0.8-5.7c0.3-4.7,4.5-7.2,8.9-9.4C121.6,51.5,107.2,54.8,107.5,53.8z M121.9,65.7c2.6-1.1,2.4-1.2,4.1-2.4
			c3.2-2.2,7.1-0.8,10.7,0.9C130.7,73.7,121,66.1,121.9,65.7z M90.1,95.2c-5,0.4-13.9,3.4-14.7,3c-0.4-0.2-2.1-1.9-1-2.2
			c6.5-1.4,25.8-9.5,29.3-11.7c1.3-0.8,2.1-0.2,1.3,0.8c-1.5,1.9-10.9,6.9-11.4,7.1c0,0,3.4,1.1,4.5,2.1
			C99.2,95.5,92.5,95,90.1,95.2z M109.3,117.4c-14.9-6.1-10.4-21.7-9.5-20.5c2.7,3.4,2.7,3.1,5.1,5.2
			C109.2,106,109.5,111.8,109.3,117.4z M101.8,93.3c3.6-0.1,3.4-0.3,6-0.9c4.8-1,8.8,1.7,12.5,4.6C108.9,104,100.6,93.3,101.8,93.3z
			 M112.5,70.2c2.8-0.3,2.7-0.5,4.7-1.1c3.7-1.2,7,1.3,10,3.9C118.7,80.3,111.6,70.3,112.5,70.2z"/>
	</g>
	<g>
		<path class="st3" d="M99.2,205.5c-1.3,0.1-2.6,0.6-4.1,1.6c-1.5,0.9-2.5,2.3-3.2,4.2c-1.5,4.4-2.9,8.6-4.2,12.5
			c-1.3,3.9-2.8,8.4-4.5,13.3c-0.5,1.6-1.1,3.2-1.6,5c-0.6,1.8-1.1,3.5-1.5,5.2h-3.8l-12-32.7l-12,32.7h-3.7
			c-2.2-6.7-4.4-13.3-6.6-19.8c-2.1-6.5-4-12.2-5.7-17.1c-0.5-1.4-1.4-2.5-2.7-3.3c-1.3-0.8-2.7-1.3-3.9-1.4v-3h19.8v3.1
			c-1,0-2.1,0.2-3.2,0.5c-1.2,0.3-1.7,0.8-1.7,1.5c0,0.1,0.1,0.4,0.2,0.8c0.1,0.4,0.2,0.8,0.4,1.3c1,3.1,2,6.6,3.3,10.5
			c1.2,3.9,2.8,8.9,4.7,15.1l11.3-31.9h4.4l11.5,31.4c1.3-4,2.6-7.9,3.8-11.6c1.3-3.7,2.4-7.3,3.4-10.6c0.2-0.8,0.4-1.5,0.6-2.1
			c0.2-0.6,0.3-1.3,0.3-1.9c0-0.5-0.2-1-0.7-1.4c-0.5-0.4-1.1-0.8-1.8-1c-0.6-0.2-1.2-0.4-2-0.5c-0.7-0.1-1.2-0.2-1.6-0.2v-2.9h16.9
			V205.5z"/>
		<path class="st3" d="M135.3,236.5c-1.9,3.5-4.3,6.3-7.5,8.5c-3.1,2.1-6.7,3.1-10.7,3.1c-3.6,0-6.7-0.6-9.4-1.9
			c-2.7-1.2-4.9-3-6.6-5.1c-1.7-2.2-3-4.7-3.9-7.6c-0.9-2.9-1.3-5.9-1.3-9.1c0-2.9,0.5-5.7,1.4-8.5c0.9-2.8,2.3-5.3,4-7.5
			c1.7-2.1,3.8-3.8,6.4-5.1c2.5-1.3,5.4-2,8.5-2c3.2,0,6,0.5,8.3,1.5c2.3,1,4.2,2.4,5.6,4.2c1.4,1.7,2.4,3.7,3.1,5.9
			c0.7,2.3,1,4.7,1,7.4v3h-29.3c0,2.9,0.3,5.6,0.8,7.9c0.6,2.4,1.4,4.4,2.6,6.3c1.2,1.8,2.7,3.1,4.6,4.1c1.9,1,4.1,1.5,6.7,1.5
			c2.7,0,5-0.6,6.9-1.9c1.9-1.2,3.8-3.5,5.6-6.7L135.3,236.5z M125.3,219.6c0-1.7-0.1-3.5-0.4-5.4c-0.3-1.9-0.7-3.5-1.4-4.8
			c-0.7-1.4-1.6-2.5-2.8-3.4c-1.2-0.9-2.7-1.3-4.6-1.3c-3.1,0-5.8,1.3-7.8,3.9c-2.1,2.6-3.2,6.3-3.4,10.9H125.3z"/>
		<path class="st3" d="M134.6,243.9c0.5,0,1-0.1,1.5-0.1c0.8-0.1,1.4-0.2,1.9-0.3c0.8-0.3,1.5-0.7,1.9-1.4c0.4-0.7,0.6-1.6,0.6-2.6
			V188c0-1.1-0.2-2.1-0.7-3c-0.5-0.9-1.1-1.7-1.8-2.2c-0.5-0.4-1.5-0.7-3-1c-1.4-0.3-2.6-0.5-3.5-0.5v-2.9l16.7-1l0.6,0.7v60.8
			c0,1,0.2,1.9,0.6,2.6c0.4,0.7,1,1.2,1.9,1.6c0.7,0.3,1.3,0.5,2,0.7c0.5,0.1,1,0.2,1.5,0.3c0.2,0,0.4,0,0.7,0.1v3h-0.7h-20.3V243.9
			z"/>
		<path class="st3" d="M157.8,243.9c0.5,0,1-0.1,1.5-0.1c0.8-0.1,1.4-0.2,1.9-0.3c0.8-0.3,1.5-0.7,1.9-1.4c0.4-0.7,0.6-1.6,0.6-2.6
			V188c0-1.1-0.2-2.1-0.7-3c-0.5-0.9-1.1-1.7-1.8-2.2c-0.5-0.4-1.5-0.7-3-1c-1.4-0.3-2.6-0.5-3.5-0.5v-2.9l16.7-1l0.6,0.7v60.8
			c0,1,0.2,1.9,0.6,2.6c0.4,0.7,1,1.2,1.9,1.6c0.7,0.3,1.3,0.5,2,0.7c0.5,0.1,1,0.2,1.5,0.3c0.2,0,0.4,0,0.7,0.1v3h-0.7h-20.3V243.9
			z"/>
		<path class="st3" d="M228.4,246.9h-21v-3c0.7-0.1,1.4-0.1,2.3-0.2c0.8-0.1,1.5-0.2,2-0.3c0.8-0.3,1.5-0.7,1.9-1.4
			c0.4-0.7,0.6-1.6,0.6-2.6v-22.8c0-3.2-0.7-5.6-2.2-7.3c-1.5-1.7-3.3-2.6-5.4-2.6c-1.6,0-3,0.3-4.4,0.7c-1.3,0.5-2.5,1.1-3.5,1.8
			c-1,0.7-1.8,1.4-2.4,2.2c-0.6,0.8-1,1.4-1.3,1.9v25.5c0,1,0.2,1.9,0.6,2.5c0.4,0.7,1.1,1.2,1.9,1.5c0.6,0.3,1.3,0.5,2,0.7
			c0.7,0.1,1.5,0.3,2.3,0.3v3h-21l0-3c0.5,0,1-0.1,1.4-0.1c0.7-0.1,1.4-0.2,1.9-0.3c0.8-0.3,1.5-0.7,1.9-1.4
			c0.4-0.7,0.6-1.5,0.6-2.6V212c0-1-0.2-1.9-0.7-2.8c-0.4-0.9-1-1.6-1.8-2.1c-0.6-0.4-1.2-0.6-2-0.8c-0.8-0.2-1.6-0.3-2.5-0.3v-3
			l14.7-1l0.6,0.6v6.2h0.2c0.7-0.7,1.6-1.6,2.7-2.6c1.1-1,2.1-1.8,3.1-2.4c1.1-0.7,2.4-1.3,4-1.8c1.5-0.5,3.3-0.7,5.2-0.7
			c4.3,0,7.4,1.3,9.5,4c2.1,2.7,3.1,6.2,3.1,10.6V239c0,1.1,0.2,1.9,0.5,2.5c0.4,0.7,1,1.2,1.8,1.5c0.7,0.3,1.3,0.5,1.9,0.6
			c0.4,0.1,0.9,0.2,1.5,0.2V246.9z"/>
		<path class="st3" d="M267.3,236.5c-1.9,3.5-4.3,6.3-7.5,8.5c-3.1,2.1-6.7,3.1-10.7,3.1c-3.6,0-6.7-0.6-9.4-1.9
			c-2.7-1.2-4.9-3-6.6-5.1c-1.7-2.2-3-4.7-3.9-7.6c-0.9-2.9-1.3-5.9-1.3-9.1c0-2.9,0.5-5.7,1.4-8.5c0.9-2.8,2.3-5.3,4-7.5
			c1.7-2.1,3.8-3.8,6.4-5.1c2.5-1.3,5.4-2,8.5-2c3.2,0,6,0.5,8.3,1.5c2.3,1,4.2,2.4,5.6,4.2c1.4,1.7,2.4,3.7,3.1,5.9
			c0.7,2.3,1,4.7,1,7.4v3h-29.3c0,2.9,0.3,5.6,0.8,7.9c0.6,2.4,1.4,4.4,2.6,6.3c1.2,1.8,2.7,3.1,4.6,4.1c1.9,1,4.1,1.5,6.7,1.5
			c2.7,0,5-0.6,6.9-1.9c1.9-1.2,3.8-3.5,5.6-6.7L267.3,236.5z M257.3,219.6c0-1.7-0.1-3.5-0.4-5.4c-0.3-1.9-0.7-3.5-1.4-4.8
			c-0.7-1.4-1.6-2.5-2.8-3.4c-1.2-0.9-2.7-1.3-4.6-1.3c-3.1,0-5.8,1.3-7.8,3.9c-2.1,2.6-3.2,6.3-3.4,10.9H257.3z"/>
		<path class="st3" d="M298.8,225.2c1.2,1.1,2.2,2.3,2.8,3.7c0.7,1.4,1,3.1,1,5.2c0,4.1-1.5,7.5-4.6,10.1c-3.1,2.6-7,3.9-11.9,3.9
			c-2.6,0-5-0.5-7.1-1.4c-2.2-0.9-3.7-1.8-4.7-2.6l-0.9,2.9h-3.4l-0.4-15.4h3.1c0.2,1.2,0.7,2.5,1.5,4.1c0.8,1.6,1.7,3,2.8,4.2
			c1.2,1.3,2.6,2.4,4.2,3.3c1.6,0.9,3.5,1.4,5.5,1.4c2.9,0,5.1-0.7,6.7-2c1.6-1.3,2.3-3.2,2.3-5.6c0-1.3-0.2-2.3-0.7-3.3
			c-0.5-0.9-1.2-1.7-2.2-2.4c-1-0.7-2.2-1.3-3.6-1.9c-1.4-0.5-3-1.1-4.8-1.6c-1.4-0.4-3-1-4.7-1.7c-1.7-0.7-3.2-1.6-4.4-2.6
			c-1.3-1-2.4-2.3-3.2-3.9c-0.8-1.5-1.3-3.3-1.3-5.4c0-3.6,1.4-6.7,4-9.2c2.7-2.5,6.3-3.8,10.8-3.8c1.7,0,3.5,0.2,5.3,0.7
			c1.8,0.5,3.3,1,4.4,1.6l1-2.3h3.2l0.7,14.2h-3.1c-0.6-3.2-2-5.8-4.1-7.8c-2.1-2-4.6-3-7.6-3c-2.5,0-4.4,0.6-5.8,1.9
			c-1.4,1.2-2.1,2.7-2.1,4.5c0,1.3,0.2,2.5,0.7,3.4c0.5,0.9,1.2,1.7,2.1,2.3c0.9,0.6,2,1.2,3.4,1.7c1.4,0.5,3,1.1,5.1,1.8
			c2,0.6,3.8,1.4,5.6,2.2C296.2,223.3,297.7,224.2,298.8,225.2"/>
		<path class="st3" d="M335.8,225.2c1.2,1.1,2.2,2.3,2.8,3.7c0.7,1.4,1,3.1,1,5.2c0,4.1-1.5,7.5-4.6,10.1c-3.1,2.6-7,3.9-11.9,3.9
			c-2.6,0-4.9-0.5-7.1-1.4c-2.2-0.9-3.7-1.8-4.7-2.6l-0.9,2.9H307l-0.5-15.4h3.1c0.2,1.2,0.7,2.5,1.5,4.1c0.8,1.6,1.7,3,2.8,4.2
			c1.2,1.3,2.6,2.4,4.2,3.3c1.6,0.9,3.5,1.4,5.5,1.4c2.9,0,5.1-0.7,6.7-2c1.6-1.3,2.3-3.2,2.3-5.6c0-1.3-0.2-2.3-0.7-3.3
			c-0.5-0.9-1.2-1.7-2.2-2.4c-1-0.7-2.2-1.3-3.6-1.9c-1.4-0.5-3-1.1-4.8-1.6c-1.4-0.4-3-1-4.7-1.7c-1.7-0.7-3.2-1.6-4.4-2.6
			c-1.3-1-2.4-2.3-3.2-3.9c-0.8-1.5-1.3-3.3-1.3-5.4c0-3.6,1.4-6.7,4-9.2c2.7-2.5,6.3-3.8,10.8-3.8c1.7,0,3.5,0.2,5.3,0.7
			c1.8,0.5,3.3,1,4.4,1.6l1-2.3h3.2l0.7,14.2h-3.1c-0.6-3.2-2-5.8-4.1-7.8c-2.1-2-4.6-3-7.6-3c-2.5,0-4.4,0.6-5.8,1.9
			c-1.4,1.2-2.1,2.7-2.1,4.5c0,1.3,0.2,2.5,0.7,3.4c0.5,0.9,1.2,1.7,2.1,2.3c0.9,0.6,2,1.2,3.4,1.7c1.4,0.5,3,1.1,5.1,1.8
			c2,0.6,3.8,1.4,5.6,2.2C333.2,223.3,334.6,224.2,335.8,225.2"/>
		<path class="st3" d="M131.8,168.1c0.5,0,1-0.1,1.5-0.1c0.7-0.1,1.4-0.2,1.9-0.4c0.8-0.3,1.5-0.7,1.9-1.4c0.4-0.7,0.6-1.6,0.6-2.6
			v-32.3h-8.8V127h8.8v-2.8c0-6.7,1.7-12.2,5.2-16.4c3.5-4.2,7.9-6.3,13.1-6.3c2.7,0,4.7,0.5,6,1.6c1.3,1.1,2,2.3,2,3.8
			c0,1.4-0.4,2.5-1.1,3.4c-0.7,0.9-1.8,1.4-3.3,1.4c-0.9,0-1.7-0.2-2.5-0.6c-0.7-0.4-1.4-0.9-2-1.6c-0.6-0.7-1.2-1.4-1.7-2.2
			c-0.5-0.8-0.9-1.5-1.3-2c-2,0.1-3.6,1.5-4.6,4.2c-1.1,2.7-1.6,7-1.6,12.9v4.5h8.5v4.3h-8.5v31.8c0,1.1,0.2,1.9,0.6,2.6
			c0.4,0.7,1,1.2,1.9,1.5c0.7,0.3,1.7,0.5,2.9,0.7c0.9,0.1,1.7,0.2,2.4,0.3v3h-22V168.1z"/>
		<path class="st3" d="M196.5,170.3c-1.4,0.5-2.6,0.9-3.7,1.2c-1.1,0.3-2.3,0.5-3.6,0.5c-2.3,0-4.2-0.5-5.6-1.6
			c-1.4-1.1-2.3-2.7-2.7-4.8h-0.3c-1.9,2.2-4,3.8-6.3,4.9c-2.2,1.1-4.9,1.7-8.1,1.7c-3.3,0-6.1-1-8.2-3.1c-2.1-2-3.2-4.7-3.2-8
			c0-1.7,0.2-3.2,0.7-4.6c0.5-1.3,1.2-2.6,2.2-3.6c0.7-0.9,1.7-1.7,3-2.4c1.2-0.7,2.4-1.3,3.5-1.7c1.3-0.5,4.1-1.5,8.2-2.8
			c4.1-1.4,6.9-2.5,8.3-3.2v-4.5c0-0.4-0.1-1.1-0.2-2.2c-0.2-1.1-0.5-2.2-1.1-3.1c-0.6-1.1-1.4-2.1-2.5-2.9
			c-1.1-0.8-2.6-1.2-4.7-1.2c-1.4,0-2.7,0.2-3.8,0.7c-1.2,0.5-2,1-2.5,1.5c0,0.6,0.1,1.5,0.4,2.6c0.3,1.2,0.4,2.2,0.4,3.2
			c0,1-0.5,2-1.4,2.9c-0.9,0.9-2.3,1.3-3.9,1.3c-1.5,0-2.6-0.5-3.3-1.6c-0.7-1.1-1.1-2.3-1.1-3.6c0-1.4,0.5-2.7,1.5-3.9
			c1-1.3,2.2-2.4,3.8-3.4c1.3-0.8,3-1.5,4.9-2.1c1.9-0.6,3.8-0.9,5.6-0.9c2.5,0,4.7,0.2,6.6,0.5c1.9,0.3,3.6,1.1,5.1,2.2
			c1.5,1.1,2.7,2.6,3.5,4.5c0.8,1.9,1.2,4.4,1.2,7.3c0,4.3,0,8.1-0.1,11.4c-0.1,3.3-0.1,6.9-0.1,10.9c0,1.2,0.2,2.1,0.6,2.8
			c0.4,0.7,1,1.3,1.9,1.8c0.4,0.3,1.2,0.4,2.1,0.4c1,0,2,0,3,0V170.3z M180.8,146.6c-2.5,0.7-4.8,1.5-6.7,2.2
			c-1.9,0.7-3.7,1.6-5.3,2.7c-1.5,1-2.7,2.2-3.5,3.6c-0.9,1.4-1.3,3.1-1.3,5c0,2.5,0.6,4.3,2,5.5c1.3,1.2,3,1.8,5,1.8
			c2.1,0,4-0.5,5.6-1.6c1.6-1,3-2.3,4.1-3.7L180.8,146.6z"/>
		<path class="st3" d="M272.7,171.1h-20.9v-3c0.7,0,1.4-0.1,2.1-0.2c0.7-0.1,1.3-0.2,1.9-0.4c0.8-0.3,1.5-0.7,1.9-1.4
			c0.4-0.7,0.6-1.6,0.6-2.6v-22.9c0-3.1-0.7-5.5-2.1-7.2c-1.4-1.7-3.2-2.5-5.3-2.5c-1.5,0-2.8,0.2-4.1,0.7c-1.3,0.4-2.5,1.1-3.6,1.9
			c-0.9,0.7-1.6,1.4-2.2,2.1c-0.6,0.8-1,1.4-1.3,1.9v25.6c0,1.1,0.2,1.9,0.5,2.6c0.4,0.7,1,1.2,1.8,1.6c0.7,0.3,1.3,0.5,1.9,0.6
			c0.6,0.1,1.3,0.2,2.2,0.3v3h-21.1v-3c0.7,0,1.4-0.1,2-0.2c0.6-0.1,1.2-0.2,1.8-0.4c0.8-0.3,1.5-0.7,1.9-1.4
			c0.4-0.7,0.6-1.6,0.6-2.6v-22.9c0-3.1-0.7-5.5-2.1-7.2c-1.4-1.7-3.2-2.5-5.3-2.5c-1.5,0-2.9,0.2-4.1,0.7c-1.3,0.5-2.5,1.1-3.6,1.9
			c-0.9,0.7-1.6,1.4-2.2,2.2c-0.6,0.8-1.1,1.5-1.4,1.9V163c0,1,0.2,1.9,0.6,2.6c0.4,0.7,1,1.2,1.9,1.6c0.6,0.3,1.3,0.5,1.9,0.7
			c0.5,0.1,1,0.2,1.5,0.2l0,3h-20.2l0-3c0.5,0,1-0.1,1.5-0.1c0.7-0.1,1.4-0.2,1.9-0.4c0.8-0.3,1.5-0.7,1.9-1.4
			c0.4-0.7,0.6-1.6,0.6-2.6V136c0-1-0.2-1.8-0.7-2.6c-0.4-0.8-1-1.4-1.8-2c-0.6-0.4-1.3-0.6-2.1-0.9c-0.8-0.2-1.7-0.4-2.6-0.4v-3
			l14.8-1l0.6,0.6v6.3h0.3c0.7-0.8,1.7-1.6,2.7-2.7c1.1-1,2.1-1.8,3-2.5c1.1-0.7,2.4-1.3,3.9-1.8c1.6-0.5,3.3-0.7,5.1-0.7
			c2.9,0,5.3,0.8,7.4,2.3c2.1,1.5,3.6,3.4,4.5,5.6c1.1-1,2-2,2.8-2.8c0.8-0.8,1.9-1.6,3.3-2.5c1.1-0.8,2.5-1.4,4-1.9
			c1.5-0.5,3.3-0.7,5.1-0.7c3.7,0,6.7,1.2,8.9,3.7c2.2,2.5,3.3,6.2,3.3,11.3v22.5c0,1.1,0.2,1.9,0.5,2.6c0.4,0.7,1,1.2,1.8,1.6
			c0.7,0.3,1.4,0.5,2,0.6c0.5,0.1,1,0.2,1.6,0.2L272.7,171.1z"/>
		<path class="st3" d="M295.2,171.1h-20.1v-3c0.5,0,1-0.1,1.5-0.1c0.7-0.1,1.4-0.2,1.9-0.4c0.8-0.3,1.5-0.7,1.9-1.4
			c0.4-0.7,0.6-1.6,0.6-2.6v-27.3c0-1-0.2-1.8-0.7-2.6c-0.4-0.8-1-1.5-1.8-2c-0.6-0.4-1.4-0.7-2.5-0.9c-1.1-0.3-2.1-0.4-3-0.5v-3
			l15.6-1l0.6,0.6V163c0,1,0.2,1.9,0.6,2.6c0.4,0.7,1,1.2,1.9,1.5c0.7,0.3,1.3,0.5,1.9,0.7c0.4,0.1,0.9,0.2,1.4,0.3L295.2,171.1z
			 M290.2,112.4c0,1.7-0.6,3.2-1.7,4.5c-1.1,1.3-2.5,1.9-4.2,1.9c-1.5,0-2.9-0.6-4-1.8c-1.1-1.2-1.7-2.6-1.7-4.2
			c0-1.6,0.6-3.1,1.7-4.3c1.1-1.2,2.4-1.8,4-1.8c1.7,0,3.1,0.6,4.2,1.7C289.7,109.5,290.2,110.9,290.2,112.4"/>
		<path class="st3" d="M317.6,171.1h-20.3l0-3c0.5,0,1-0.1,1.5-0.1c0.8-0.1,1.4-0.2,1.9-0.3c0.8-0.3,1.5-0.7,1.9-1.4
			c0.4-0.7,0.6-1.5,0.6-2.6v-51.4c0-1.1-0.2-2.1-0.7-3c-0.5-0.9-1.1-1.7-1.8-2.2c-0.5-0.4-1.5-0.7-3-1c-1.4-0.3-2.6-0.5-3.5-0.5
			v-2.9l16.7-1l0.6,0.7V163c0,1,0.2,1.9,0.6,2.6c0.4,0.7,1,1.2,1.9,1.6c0.7,0.3,1.3,0.5,2,0.7c0.5,0.1,1,0.2,1.5,0.2L317.6,171.1z"
			/>
		<path class="st3" d="M315.3,185.6c0-1.5,0.4-2.7,1.2-3.7c0.8-0.9,1.8-1.4,3.1-1.4c1,0,1.8,0.2,2.5,0.5c0.7,0.4,1.3,0.8,1.8,1.4
			c0.4,0.4,0.9,1.1,1.4,1.8c0.5,0.8,0.9,1.4,1.2,1.9c1.5-0.8,3.3-2.9,5.4-6.3c2.1-3.4,3.6-6.4,4.5-9c-2.8-7.1-5.4-13.5-7.7-19
			c-2.3-5.6-4.7-11.4-7.2-17.4c-0.6-1.4-1.5-2.4-2.9-3.2c-1.4-0.8-2.7-1.3-4-1.5v-3h20.2v3.1c-0.9,0-2,0.2-3.2,0.6
			c-1.3,0.3-1.9,0.8-1.9,1.4c0.3,0.9,0.6,1.6,0.7,2c1.1,3,2.9,7.2,5.2,12.8c2.3,5.6,4.1,10,5.4,13.4c1.3-3.2,2.8-6.5,4.2-9.9
			c1.5-3.4,3.1-7.5,4.9-12.1c0.2-0.6,0.5-1.4,0.9-2.4c0.4-1,0.6-1.9,0.6-2.6c0-0.8-0.7-1.5-2-2.2c-1.4-0.7-2.7-1.1-3.9-1.2v-2.9
			h16.5v2.8c-0.9,0.2-2.1,0.7-3.5,1.5c-1.5,0.9-2.6,2.1-3.3,3.8c-3.6,8.3-6.7,15.8-9.5,22.6c-2.8,6.8-4.9,11.8-6.3,15
			c-1.9,4.2-3.6,7.5-5.1,9.8c-1.5,2.4-2.9,4.2-4.3,5.6c-1.4,1.3-2.6,2.1-3.8,2.5c-1.1,0.4-2.3,0.7-3.5,0.7c-2.3,0-4.2-0.6-5.5-1.7
			C315.9,188.3,315.3,187,315.3,185.6"/>
	</g>
</g>
</svg>
