<?xml version="1.0" encoding="utf-8"?>
<!-- Generator: Adobe Illustrator 18.1.1, SVG Export Plug-In . SVG Version: 6.00 Build 0)  -->
<svg version="1.1" id="Layer_1" xmlns="http://www.w3.org/2000/svg" xmlns:xlink="http://www.w3.org/1999/xlink" x="0px" y="0px"
	 viewBox="0 0 527.7 216" enable-background="new 0 0 527.7 216" xml:space="preserve">
<g>
	<g>
		<path fill="#55565A" d="M89.6,109.6c-3.5,1.8-7.4,2.6-11.4,2.6c-8.5,0-14.7-5.6-14.7-14.3s6.2-14.3,14.7-14.3
			c4.3,0,8.1,1,10.8,3.5l-4.2,4.6c-1.6-1.7-3.6-2.6-6.6-2.6c-5.1,0-8.4,3.7-8.4,8.7s3.3,8.7,8.4,8.7c2.6,0,4.5-0.7,5.6-1.3v-4.4H79
			v-5.5h10.6V109.6z"/>
		<path fill="#55565A" d="M99,84.3h6V106H116v5.5H99V84.3z"/>
		<path fill="#55565A" d="M136.4,83.6c8.5,0,14.7,5.6,14.7,14.3s-6.2,14.3-14.7,14.3s-14.7-5.6-14.7-14.3S127.9,83.6,136.4,83.6z
			 M136.4,106.7c5.1,0,8.4-3.7,8.4-8.7s-3.3-8.7-8.4-8.7s-8.4,3.7-8.4,8.7S131.3,106.7,136.4,106.7z"/>
		<path fill="#55565A" d="M158.9,84.3h10.1c4.8,0,9.9,1,9.9,6.9c0,3-1.9,5.1-4.7,6v0.1c3.6,0.5,5.9,3.1,5.9,6.6
			c0,5.7-5.4,7.6-10.2,7.6h-11.1V84.3z M164.9,95.2h4.3c1.8,0,3.8-0.8,3.8-3c0-2.3-2.1-2.8-4-2.8h-4.1V95.2z M164.9,106.4h5.4
			c1.9,0,4-0.8,4-3.2c0-2.6-2.9-3-4.8-3h-4.5V106.4z"/>
		<path fill="#55565A" d="M196.6,84.3h4.9l11.8,27.2h-6.8l-2.3-5.8h-10.5l-2.3,5.8h-6.6L196.6,84.3z M198.9,92.2l-3.3,8.4h6.6
			L198.9,92.2z"/>
		<path fill="#55565A" d="M220.1,84.3h6V106h11.1v5.5h-17.1V84.3z"/>
		<path fill="#55565A" d="M268.5,84.3h4.9l11.8,27.2h-6.8l-2.3-5.8h-10.5l-2.3,5.8h-6.6L268.5,84.3z M270.8,92.2l-3.3,8.4h6.6
			L270.8,92.2z"/>
		<path fill="#55565A" d="M309.6,91.4c-1.2-1.4-2.9-2.2-5.1-2.2c-4.5,0-7.9,3.7-7.9,8.7s3.3,8.7,7.7,8.7c2.4,0,4.4-1.1,5.6-2.9
			l5,3.7c-2.3,3.2-6.1,4.7-9.8,4.7c-8.5,0-14.7-5.6-14.7-14.3s6.2-14.3,14.7-14.3c3,0,6.9,1,9.2,4L309.6,91.4z"/>
		<path fill="#55565A" d="M330.9,84.3h4.9l11.8,27.2h-6.8l-2.3-5.8H328l-2.3,5.8h-6.6L330.9,84.3z M333.2,92.2l-3.3,8.4h6.6
			L333.2,92.2z"/>
		<path fill="#55565A" d="M354.2,84.3h9c8.7,0,16.1,3.7,16.1,13.7c0,8.8-7.2,13.5-15.3,13.5h-9.8V84.3z M360.2,106h3.1
			c5.6,0,9.7-2.1,9.7-8.3c0-5.3-4.3-7.8-9.3-7.8h-3.5V106z"/>
		<path fill="#55565A" d="M387.4,84.3h18.5v5.5h-12.5v5.1h11.8v5.5h-11.8v5.5h13.2v5.5h-19.1V84.3z"/>
		<path fill="#55565A" d="M415.2,84.3h9.1l6.3,17.7h0.1l6.3-17.7h9v27.2h-6V90.7h-0.1l-7.1,20.8h-4.6l-6.9-20.8h-0.1v20.8h-6V84.3z"
			/>
		<path fill="#55565A" d="M461.9,99.9l-10.2-15.6h7.4l5.8,10.2l6.1-10.2h7.1l-10.2,15.6v11.6h-6V99.9z"/>
	</g>
	<g>
		<path fill="#8C0B42" d="M290,165.1c0,0-0.4-0.4-1-1.1c-0.8-0.8-0.7-1.7-0.7-1.7v-19.5H281v15.6c-0.1,1.5-1.5,1.8-2.3,1.8
			c-1.1,0-1.8-0.7-1.8-1.8v-15.6h-7.2v0c-1.7,0-3,0-5.1,0c-3.9,0-7.6,0.6-8.9,3.9l-0.7-2.9c-0.2-0.6-0.8-1-1.4-1h-12.8
			c-0.2,0-0.3,0.1-0.2,0.2c0,0,0.3,0.3,1,1.1c0.9,1,0.5,2.3,0.5,2.3l-4.7,18.8h6.8l1-4.1h6.6l1,4.1h7c0.7,0,1.4,0,2,0
			c3.7,0,6.7-0.4,8.2-2.7c1.1,2.1,3.5,3.1,7.7,2.7c1.5-0.1,2.9-0.8,3.5-1.9l0.3,0.9c0.2,0.5,0.7,1,1.5,1h6.9
			C290.1,165.3,290.1,165.2,290,165.1 M246.2,157.1l2.3-9.2l2.3,9.2H246.2z"/>
		<path fill="#FFCA38" d="M254.1,146.9C254.1,146.9,254.1,147,254.1,146.9c0,0.1,0,0.2,0,0.2l1.3,1.2l0,0l0,0v0l0,0
			c0-0.2,0.1-0.4,0.1-0.6v0l0,0l-1.2-0.8C254.3,146.9,254.2,146.8,254.1,146.9"/>
		<path fill="#FFCA38" d="M252.9,148.7l2.5,1.6l0,0l0,0l0,0l0,0c0-0.3,0-0.5,0-0.8c0,0,0,0,0,0v0c0,0,0,0,0,0l-2.3-0.9
			c0,0-0.1,0-0.2,0.1C252.8,148.6,252.9,148.7,252.9,148.7"/>
		<path fill="#FFCA38" d="M252,150.4l3.9,1.7l0.1,0l0,0l0,0l0,0c-0.2-0.3-0.3-0.7-0.4-1.1v0h0l-3.4-0.8c0,0-0.1,0-0.1,0.1
			C251.9,150.4,252,150.4,252,150.4"/>
		<path fill="#FFCA38" d="M265.6,159c0-1.6-1.8-2.2-3.9-2.9c-2.1-0.7-4.6-1.6-5.7-3.7l0,0h0l-4.5-0.3c0,0-0.1,0-0.1,0.1
			c0,0.1,0.1,0.1,0.1,0.1l4.5,1.2c0,0,0,0,0,0c0,0-0.1,0-0.1,0l-4.7,0.4c0,0-0.1,0-0.1,0.1c0,0.1,0.1,0.1,0.1,0.1l4.7,0.4
			c0,0,0,0,0,0c0,0,0,0.1,0,0.1l-4.5,1.2c0,0-0.1,0-0.1,0.1c0,0.1,0.1,0.1,0.1,0.1l4.7-0.3c0,0,0.1,0,0.1,0c0,0,0,0,0,0l-4.2,1.8
			c0,0-0.1,0.1-0.1,0.2c0,0.1,0.1,0.1,0.1,0.1l4.6-1c0,0,0.1,0,0.1,0c0,0,0,0.1,0,0.1l-3.8,2.5c0,0-0.1,0.1,0,0.2
			c0,0.1,0.2,0.1,0.2,0.1l4.3-1.7c0,0,0.1,0,0.1,0c0,0,0,0.1,0,0.1l-3.3,3c0,0-0.1,0.1,0,0.2c0.1,0.1,0.2,0,0.2,0l3.9-2.4
			c0,0,0,0,0.1,0c0,0,0,0.1,0,0.1l-2.6,3.5c0,0,0,0.1,0,0.2c0.1,0.1,0.2,0,0.2,0l3.4-2.9c0,0,0,0,0.1,0c0,0,0,0.1,0,0.1l-1.9,3.9
			c0,0,0,0.1,0.1,0.1c0.1,0.1,0.2,0,0.2,0l2.8-3.4c0,0,1.1,0.4,1.5,0.5c1.3,0.1,2.5-0.2,3.2-0.8C265.4,159.8,265.6,159.4,265.6,159"
			/>
		<path fill="#FFCA38" d="M271.7,162.6l-1.1-1.4c-0.1,0.3-0.2,0.6-0.2,0.6l1.1,0.9c0,0,0.1,0.1,0.2,0
			C271.8,162.7,271.7,162.6,271.7,162.6"/>
		<path fill="#FFCA38" d="M273.3,161.2l-2.2-2.1c0,0.3-0.1,1-0.1,1l2.1,1.3c0,0,0.1,0.1,0.2,0C273.3,161.3,273.3,161.2,273.3,161.2"
			/>
		<path fill="#FFCA38" d="M274.5,159.6l-3.5-2.3c0.1,0.4,0.1,1.2,0.1,1.2l3.3,1.3c0,0,0.1,0,0.2-0.1
			C274.5,159.7,274.5,159.6,274.5,159.6"/>
		<path fill="#FFCA38" d="M276.2,154.1C276.2,154.1,276.2,154.1,276.2,154.1c-0.1-0.1-0.1-0.1-0.1-0.1l-4.7-0.4h0c0,0,0,0,0,0
			c0,0,0,0,0,0c0,0,0,0,0,0h0l4.5-1.2c0,0,0,0,0.1,0c0,0,0-0.1,0-0.1c0-0.1-0.1-0.1-0.2-0.1c0,0-4.7,0.3-4.7,0.3h0c0,0,0,0-0.1,0
			c0,0,0,0,0,0c0,0,0,0,0,0l4.2-1.9c0,0,0,0,0.1-0.1c0,0,0-0.1,0-0.1c0-0.1-0.1-0.1-0.1-0.1c0,0-4.6,1-4.6,1h0c0,0,0,0-0.1,0
			c0,0,0,0,0,0c0,0,0,0,0,0h0l3.8-2.5c0,0,0,0,0.1-0.1c0,0,0-0.1,0-0.1c0-0.1-0.1-0.1-0.2,0c-0.1,0-4.3,1.7-4.3,1.7h0c0,0,0,0-0.1,0
			c0,0,0,0,0,0c0,0,0,0,0,0h0l3.3-3c0,0,0,0,0-0.1c0,0,0-0.1,0-0.1c-0.1-0.1-0.2,0-0.2,0l-3.9,2.4v0h0c0,0,0,0-0.1,0c0,0,0,0,0,0
			c0,0,0,0,0,0h0l0,0c0,0,2.5-3.3,2.6-3.5c0,0,0-0.1,0-0.1c0,0,0-0.1-0.1-0.1c0,0-0.1,0-0.2,0c-0.1,0.1-3.4,2.9-3.4,2.9v0
			c0,0-0.1,0-0.1,0c0,0,0,0,0,0c0,0,0,0,0,0v0l1.9-3.9c0,0,0-0.1-0.1-0.2c-0.1,0-0.2,0-0.2,0l-2.8,3.5c0,0-1.4-0.6-2.7-0.6
			c-1.2,0-2.2,0.2-2.7,0.7c-0.3,0.3-0.4,0.7-0.4,1.1c0,0.6,0.3,1.1,1.1,1.6c0.7,0.4,1.6,0.8,2.5,1.1c1.3,0.5,2.7,1,3.8,1.8
			c2.2,1.5,2.4,3.5,2.4,3.5l4.3,1c0,0,0.1,0,0.1-0.1c0,0,0-0.1,0-0.1c0,0-0.1-0.1-0.1-0.1l-4.2-1.9h0c0,0,0,0,0,0c0,0,0,0,0,0
			c0,0,0,0,0.1,0h0c0,0,4.5,0.3,4.7,0.3c0,0,0.1,0,0.1-0.1c0,0,0-0.1,0-0.1c0,0-0.1-0.1-0.1-0.1l-4.5-1.2h0c0,0,0,0,0,0c0,0,0,0,0,0
			c0,0,0-0.1,0,0h0c0,0,4.7-0.4,4.7-0.4C276.1,154.3,276.1,154.2,276.2,154.1C276.2,154.2,276.2,154.2,276.2,154.1"/>
		<path fill="#8C0B42" d="M290.9,145.8c-0.8,0-1.4-0.6-1.4-1.4c0-0.8,0.6-1.4,1.4-1.4c0.8,0,1.4,0.6,1.4,1.4
			C292.3,145.2,291.7,145.8,290.9,145.8 M290.9,142.9c-0.9,0-1.6,0.7-1.6,1.6c0,0.9,0.8,1.6,1.6,1.6c0.9,0,1.6-0.7,1.6-1.6
			C292.5,143.6,291.8,142.9,290.9,142.9z M290.3,143.6h0.6c0.2,0,0.4,0,0.5,0.1c0.1,0.1,0.2,0.2,0.2,0.4c0,0.3-0.2,0.5-0.3,0.5
			l0.4,0.7h-0.4l-0.3-0.6h-0.3v0.6h-0.3V143.6z M290.7,143.8v0.5h0.1c0.1,0,0.2,0,0.2,0c0.1,0,0.3,0,0.3-0.3c0,0,0-0.2-0.1-0.2
			c-0.1,0-0.2,0-0.3,0H290.7z"/>
		<path fill="#8C0B42" d="M300.8,142.9l3.5,9.6h-2.6l-0.5-1.5h-3.5l-0.5,1.5h-2.6l3.6-9.6H300.8 M299.5,145.2
			c-0.1,0.5-0.3,1-0.4,1.5c-0.2,0.7-0.6,1.9-0.8,2.6h2.4L299.5,145.2z"/>
		<path fill="#8C0B42" d="M306.9,146.1c0.5-0.4,1-0.7,2.1-0.8v1.9l-0.7,0.1c-1,0.2-1.3,0.3-1.3,1.2v4h-2.1v-7.1h2V146.1"/>
		<path fill="#8C0B42" d="M309.7,142.9h2.1v1.6h-2.1V142.9z M309.7,145.4h2.1v7.1h-2.1V145.4z"/>
		<polyline fill="#8C0B42" points="313,145.4 319.1,145.4 319.1,147 315.3,150.9 319.1,150.9 319.1,152.5 312.6,152.5 312.6,150.9 
			316.4,147 313,147 313,145.4 		"/>
		<path fill="#8C0B42" d="M327.1,148.9c0,1.8-1,3.8-3.8,3.8c-2,0-3.8-1.1-3.8-3.8c0-2.2,1.4-3.9,4.1-3.8
			C326.5,145.3,327.1,147.6,327.1,148.9 M321.9,147.5c-0.3,0.4-0.4,0.9-0.4,1.4c0,1.1,0.5,2.1,1.7,2.1c1.1,0,1.7-0.9,1.7-2
			c0-0.8-0.2-1.4-0.6-1.8c-0.4-0.4-0.9-0.4-1.2-0.4C322.6,146.9,322.2,147.1,321.9,147.5z"/>
		<path fill="#8C0B42" d="M329.9,146c0.2-0.2,0.3-0.4,0.7-0.6c0.3-0.1,0.8-0.3,1.3-0.3c0.4,0,0.9,0.1,1.3,0.3c0.7,0.4,0.9,1,0.9,2.1
			v4.9h-2.1v-4c0-0.6,0-0.9-0.1-1.1c-0.2-0.4-0.5-0.5-0.9-0.5c-1.1,0-1.1,0.9-1.1,1.8v3.8h-2.1v-7.1h2.1V146"/>
		<path fill="#8C0B42" d="M335.2,147.4c0-0.5,0.1-1.1,0.7-1.6c0.7-0.5,1.5-0.6,2.3-0.6c0.9,0,3,0.2,3,2v4.1c0,0.8,0,0.9,0.2,1.1
			h-2.1v-0.7c-0.5,0.4-1.1,0.8-2.2,0.8c-1.6,0-2.3-1.2-2.3-2.2c0-1.1,0.9-1.8,1.5-2c0.6-0.2,1.9-0.5,2.8-0.7v-0.4
			c0-0.3-0.1-0.9-0.8-0.9c-0.9,0-1,0.6-1.1,0.8H335.2 M337.8,149.5c-0.4,0.1-0.9,0.3-0.9,0.9c0,0.3,0.3,0.7,0.8,0.7
			c0.3,0,0.5-0.1,0.7-0.2c0.7-0.4,0.7-1.1,0.7-1.8L337.8,149.5z"/>
		<path fill="#8C0B42" d="M345.9,149.6c0.2,0.3,0.4,0.5,0.9,0.7c0.6,0.3,1.3,0.5,1.9,0.5c1,0,1.8-0.4,1.8-1.1c0-0.8-1-0.9-1.7-1
			c-0.5-0.1-1.1-0.1-1.6-0.2c-0.6-0.1-2.6-0.5-2.6-2.6c0-2.5,2.2-3.2,3.9-3.2c2.2,0,3.4,1.1,4.3,1.8l-1.8,1.3
			c-0.3-0.3-0.6-0.6-1-0.8c-0.3-0.2-1-0.4-1.6-0.4c-1,0-1.4,0.5-1.4,1c0,0.7,0.8,0.8,1.2,0.9c1,0.1,2.4,0.4,2.9,0.6
			c1.1,0.4,1.7,1.3,1.7,2.4c0,0.7-0.3,1.5-0.8,2c-0.9,1-2.3,1.3-3.6,1.3c-2.7,0-3.8-1.3-4.4-1.9L345.9,149.6"/>
		<path fill="#8C0B42" d="M353.9,143.3h2.1v2.2h1.4v1.3h-1.4v3.2c0,0.4,0,0.8,0.5,0.8l0.7,0v1.6c-0.4,0.1-0.7,0.1-1.1,0.1
			c-0.7,0-1.5,0-2-0.7c-0.3-0.4-0.3-0.9-0.3-1.6v-3.4h-1v-1.3h1V143.3"/>
		<path fill="#8C0B42" d="M358,147.4c0-0.5,0.1-1.1,0.7-1.6c0.7-0.5,1.5-0.6,2.3-0.6c0.9,0,3,0.2,3,2v4.1c0,0.8,0,0.9,0.2,1.1h-2.1
			v-0.7c-0.5,0.4-1.1,0.8-2.2,0.8c-1.6,0-2.3-1.2-2.3-2.2c0-1.1,0.9-1.8,1.5-2c0.6-0.2,1.9-0.5,2.8-0.7v-0.4c0-0.3-0.1-0.9-0.8-0.9
			c-0.9,0-1,0.6-1.1,0.8H358 M360.6,149.5c-0.4,0.1-0.9,0.3-0.9,0.9c0,0.3,0.3,0.7,0.8,0.7c0.3,0,0.5-0.1,0.7-0.2
			c0.7-0.4,0.7-1.1,0.7-1.8L360.6,149.5z"/>
		<path fill="#8C0B42" d="M365.5,143.3h2.1v2.2h1.4v1.3h-1.4v3.2c0,0.4,0,0.8,0.5,0.8l0.7,0v1.6c-0.4,0.1-0.7,0.1-1.1,0.1
			c-0.7,0-1.5,0-2-0.7c-0.3-0.4-0.3-0.9-0.3-1.6v-3.4h-1v-1.3h1V143.3"/>
		<path fill="#8C0B42" d="M376.4,150.7c-0.2,0.4-0.5,0.7-0.9,1.1c-0.6,0.6-1.5,1-2.7,1c-2.1,0-3.6-1.3-3.6-3.7
			c0-1.7,0.8-3.9,3.7-3.9c0.4,0,1.6,0,2.6,1c0.9,1,1,2.4,1,3.2h-5.1c0,0.9,0.5,1.8,1.6,1.8c1.1,0,1.5-0.7,1.8-1.3L376.4,150.7
			 M374.3,148c0-0.3-0.1-0.7-0.4-1c-0.3-0.3-0.7-0.4-1-0.4c-0.5,0-0.9,0.2-1.1,0.5c-0.3,0.3-0.4,0.6-0.4,0.9H374.3z"/>
		<path fill="#8C0B42" d="M303.2,155.6v5.4c0,0.9,0,1.9-0.6,2.7c-1,1.7-3.2,1.7-3.6,1.7c-0.7,0-1.6-0.2-2.2-0.5
			c-1.9-1-1.9-2.6-1.8-4v-5.4h2.4v6c0,0.5,0,0.9,0.2,1.2c0.3,0.5,1,0.7,1.6,0.7c1.6,0,1.6-1.1,1.6-1.9v-6H303.2"/>
		<path fill="#8C0B42" d="M306.4,158.8c0.2-0.2,0.3-0.4,0.7-0.6c0.3-0.1,0.8-0.3,1.3-0.3c0.4,0,0.9,0.1,1.3,0.3
			c0.7,0.4,0.9,1,0.9,2.1v4.9h-2.1v-4c0-0.6,0-0.9-0.1-1.1c-0.2-0.4-0.5-0.5-0.9-0.5c-1.1,0-1.1,0.9-1.1,1.8v3.8h-2.1v-7.1h2.1
			V158.8"/>
		<path fill="#8C0B42" d="M311.7,155.6h2.1v1.6h-2.1V155.6z M311.7,158.1h2.1v7.1h-2.1V158.1z"/>
		<path fill="#8C0B42" d="M314.4,158.2h2.2c0.9,3.2,1,3.8,1.3,5.2c0.3-1.6,0.3-1.8,0.7-3.4l0.4-1.7h2.2l-2.3,7.1h-2.2L314.4,158.2"
			/>
		<path fill="#8C0B42" d="M328.3,163.5c-0.2,0.4-0.5,0.7-0.9,1.1c-0.6,0.6-1.5,1-2.7,1c-2.1,0-3.6-1.3-3.6-3.7
			c0-1.7,0.8-3.9,3.7-3.9c0.4,0,1.6,0,2.6,1c0.9,1,1,2.4,1,3.2h-5.1c0,0.9,0.5,1.8,1.6,1.8c1.1,0,1.5-0.7,1.8-1.3L328.3,163.5
			 M326.2,160.8c0-0.3-0.1-0.7-0.4-1c-0.3-0.3-0.7-0.4-1-0.4c-0.5,0-0.9,0.2-1.1,0.5c-0.3,0.3-0.4,0.6-0.4,0.9H326.2z"/>
		<path fill="#8C0B42" d="M331.3,158.9c0.5-0.4,1-0.7,2.1-0.8v1.9l-0.7,0.1c-1,0.2-1.3,0.3-1.3,1.2v4h-2.1v-7.1h2V158.9"/>
		<path fill="#8C0B42" d="M334.6,162.9c0.6,0.6,1.3,1,2.1,1c0.5,0,1.3-0.2,1.3-0.7c0-0.2-0.1-0.3-0.3-0.4c-0.3-0.2-0.8-0.2-1.2-0.3
			c-0.3-0.1-0.6-0.1-1-0.2c-0.4-0.1-0.9-0.3-1.2-0.6c-0.3-0.3-0.5-0.8-0.5-1.3c0-1.2,1-2.4,3-2.4c1.7,0,2.7,0.7,3.2,1.1l-1.3,1.2
			c-0.7-0.5-1.3-0.7-1.8-0.7c-0.8,0-1,0.3-1,0.5c0,0.4,0.4,0.5,1.1,0.6c1.4,0.3,3.1,0.6,3.1,2.3c0,1.7-1.7,2.5-3.4,2.5
			c-2,0-3-1-3.4-1.4L334.6,162.9"/>
		<path fill="#8C0B42" d="M340.7,155.6h2.1v1.6h-2.1V155.6z M340.7,158.1h2.1v7.1h-2.1V158.1z"/>
		<path fill="#8C0B42" d="M344.6,156.1h2.1v2.2h1.4v1.3h-1.4v3.2c0,0.4,0,0.8,0.5,0.8l0.7,0v1.6c-0.4,0.1-0.7,0.1-1.1,0.1
			c-0.7,0-1.5,0-2-0.7c-0.3-0.4-0.3-0.9-0.3-1.6v-3.4h-1v-1.3h1V156.1"/>
		<path fill="#8C0B42" d="M355.3,158.2l-2.5,7.7c-0.2,0.5-0.3,0.9-0.7,1.3c-0.5,0.5-1,0.6-1.5,0.6h-1.5V166h0.7c0.3,0,0.9,0,0.9-0.5
			c0-0.2-0.1-0.4-0.1-0.5l-2.1-6.9h2.2l1.2,5.1l1.2-5.1H355.3"/>
	</g>
	<line fill="none" stroke="#55565A" stroke-width="0.5" stroke-miterlimit="10" x1="218.4" y1="176.3" x2="218.4" y2="134.3"/>
	<g>
		<g>
			<g>
				<path fill="none" d="M165.2,159.5l-0.3-2l0,0l-0.1,2.1l-0.5,0.1l-0.8-1.9l0,0l0.4,2l-0.6,0.1l-0.5-2.9l0.8-0.1l0.8,1.8l0,0
					l0.1-2l0.9-0.2l0.5,2.9L165.2,159.5z"/>
				<path fill="none" d="M167.6,159.1l-0.2-0.5l-0.7,0.1l0,0.6l-0.7,0.1l0.2-3l0.8-0.1l1.2,2.8L167.6,159.1z M166.8,156.9
					L166.8,156.9l0,1.3l0.5-0.1L166.8,156.9z"/>
				<path fill="none" d="M169.4,156.5c-0.1-0.1-0.3-0.1-0.4-0.1c-0.1,0-0.3,0.1-0.2,0.4c0,0.2,0.2,0.2,0.4,0.3
					c0.3,0.1,0.7,0.2,0.8,0.7c0.1,0.6-0.3,1-0.7,1.1c-0.3,0.1-0.7,0-0.9-0.2l0.2-0.6c0.1,0.1,0.3,0.2,0.5,0.1c0.2,0,0.3-0.2,0.2-0.3
					c0-0.2-0.2-0.3-0.5-0.3c-0.3-0.1-0.6-0.3-0.7-0.7c-0.1-0.6,0.3-1,0.7-1.1c0.3-0.1,0.6,0,0.8,0.2L169.4,156.5z"/>
				<path fill="none" d="M170.9,156.1l0.4,2.3l-0.6,0.1l-0.4-2.3l-0.5,0.1l-0.1-0.6l1.7-0.3l0.1,0.6L170.9,156.1z"/>
				<path fill="none" d="M172.1,158.3l-0.5-2.9l1.4-0.2l0.1,0.6l-0.8,0.1l0.1,0.6l0.7-0.1l0.1,0.5l-0.7,0.1l0.1,0.6l0.8-0.1l0.1,0.6
					L172.1,158.3z"/>
				<path fill="none" d="M175.2,157.7l-0.6-1.1l-0.2,0l0.2,1.2l-0.6,0.1l-0.5-2.9l0.9-0.2c0.6-0.1,0.9,0.1,1,0.7
					c0.1,0.4-0.1,0.7-0.3,0.8l0.7,1.2L175.2,157.7z M174.4,155.4l-0.2,0l0.1,0.7l0.2,0c0.2,0,0.3-0.2,0.3-0.4
					C174.7,155.4,174.5,155.4,174.4,155.4z"/>
				<path fill="none" d="M177,157.4l-0.5-2.9l0.7-0.1l0.4,2.3l0.8-0.1l0.1,0.6L177,157.4z"/>
				<path fill="none" d="M179.6,157c-0.7,0.1-1.2-0.4-1.4-1.3c-0.2-0.9,0.2-1.6,0.8-1.7c0.7-0.1,1.2,0.4,1.4,1.3
					C180.6,156.2,180.3,156.9,179.6,157z M179.2,154.6c-0.3,0.1-0.4,0.5-0.3,1c0.1,0.5,0.3,0.9,0.6,0.8c0.3-0.1,0.4-0.5,0.3-1
					C179.7,154.9,179.5,154.6,179.2,154.6z"/>
				<path fill="none" d="M182.2,156.6c-0.7,0.1-1.3-0.4-1.4-1.3c-0.2-0.9,0.2-1.6,0.9-1.7c0.4-0.1,0.7,0,0.9,0.2l-0.3,0.5
					c-0.1-0.1-0.3-0.2-0.4-0.1c-0.4,0.1-0.5,0.5-0.4,1c0.1,0.5,0.3,0.9,0.7,0.8c0.1,0,0.2-0.1,0.2-0.1l-0.1-0.5l-0.3,0.1l-0.1-0.6
					l0.9-0.2l0.3,1.5C182.8,156.4,182.5,156.5,182.2,156.6z"/>
				<path fill="none" d="M184.4,156.2c-0.7,0.1-1.2-0.4-1.4-1.3c-0.2-0.9,0.1-1.6,0.8-1.7c0.7-0.1,1.2,0.4,1.4,1.3
					C185.4,155.4,185.1,156.1,184.4,156.2z M184,153.8c-0.3,0.1-0.4,0.5-0.3,1c0.1,0.5,0.3,0.9,0.6,0.8c0.3-0.1,0.4-0.5,0.3-1
					C184.5,154.1,184.3,153.7,184,153.8z"/>
				<path fill="none" d="M187.6,155.6l-0.7,0.1l0.4-2.5l-1,0.2l-0.1-0.6l1.7-0.3l0.1,0.5L187.6,155.6z"/>
				<path fill="none" d="M189.1,155.4l-0.4,0l0.2-3.3l0.4,0L189.1,155.4z"/>
				<path fill="none" d="M191.2,153.7l-0.4,0.7l0.9-0.2l0.1,0.6l-1.7,0.3l-0.1-0.6l0.7-1.2c0.1-0.2,0.2-0.4,0.1-0.5
					c0-0.2-0.1-0.3-0.3-0.3c-0.2,0-0.2,0.2-0.2,0.4l-0.6,0.1c0-0.6,0.3-1,0.8-1c0.5-0.1,0.9,0.2,1,0.7
					C191.5,153.1,191.3,153.4,191.2,153.7z"/>
				<path fill="none" d="M193.1,154.6c-0.8,0.1-1.1-0.7-1.2-1.3c-0.1-0.7-0.1-1.5,0.7-1.7c0.8-0.1,1.1,0.7,1.2,1.3
					C193.9,153.6,193.9,154.5,193.1,154.6z M192.7,152.2c-0.3,0-0.2,0.6-0.1,1c0.1,0.4,0.2,0.9,0.5,0.9c0.3,0,0.2-0.6,0.1-1
					C193.1,152.7,192.9,152.1,192.7,152.2z"/>
				<path fill="none" d="M195.1,154.2l-0.4-2.1l-0.4,0.4l-0.4-0.5l0.7-0.7l0.6-0.1l0.5,2.9L195.1,154.2z"/>
				<path fill="none" d="M198,153.1l0.1,0.6l-0.6,0.1l-0.1-0.6l-1.1,0.2l-0.1-0.6l0.5-1.9l0.8-0.1l0.3,1.8l0.3-0.1l0.1,0.5
					L198,153.1z M197.1,151.5L197.1,151.5l-0.3,1.2l0.5-0.1L197.1,151.5z"/>
			</g>
			<g>
				<g>
					<circle fill="#FFFFFF" cx="180.5" cy="155.3" r="19"/>
					<path fill="#007042" d="M182.4,144.5c-0.2,0-1-0.2-1.9-0.2c-0.9,0-1.7,0.1-1.9,0.2c-0.1,0-0.1-0.1-0.1-0.1c0.1,0,2-1.5,2-1.5
						s1.9,1.4,2,1.5C182.5,144.5,182.5,144.6,182.4,144.5z M179.1,153.9c0,0-0.1,0-0.1,0.1c0.4,0.3,0.7,1,1.5,1c0.8,0,1.1-0.7,1.5-1
						c0-0.1-0.1-0.1-0.1-0.1s-0.5,0.1-1.4,0.1C179.6,154.1,179.1,153.9,179.1,153.9z M180.5,152.8c-0.2,0-0.3-0.1-0.4-0.1
						c-0.2,0-0.4,0.1-0.5,0.2c0,0.1,0,0.1,0.1,0.1c0.3,0.1,0.5,0.2,0.9,0.2c0.4,0,0.5-0.2,0.9-0.2c0,0,0.1-0.1,0.1-0.1
						c-0.1-0.1-0.4-0.2-0.5-0.2C180.7,152.7,180.7,152.8,180.5,152.8z M199.4,156.4c0,0.5-0.1,0.9-0.1,1.3c-2.1,0.4-2.9-1.6-5.1-1.5
						c0.1,0.5,0.2,0.9,0.3,1.4c1.8,0,2.5,1.7,4.6,1.4c-0.1,0.5-0.2,1-0.4,1.5c-1.6,0.2-2.2-1.4-4-1.4c0,0.3,0,0.5,0,0.8
						c0,0.1,0,0.3,0,0.4c1.6,0,2.1,1.4,3.6,1.4c-0.2,0.5-0.4,1-0.6,1.5c-1.1-0.1-1.4-1.4-3.1-1.3c0,0.4-0.1,0.7-0.2,1.1
						c1.4-0.1,1.7,1.2,2.8,1.3c-0.3,0.5-0.5,0.9-0.8,1.4c-0.6-0.3-1.1-1.3-2.3-1.4c0.1-0.4,0.2-0.7,0.3-1.1c-1,0-2.2-0.4-3.2-1.3
						c0.3-1.8-2.5-3.6-2.5-5c0-1.4,0.7-2.2,0.7-4.2c0-1.4-0.7-3-1.7-4c-0.2-0.2-0.4-0.4-0.7-0.5c1,1.2,1.7,2.6,1.7,4.2
						c0,1.8-0.8,2.8-0.8,4.5c0,1.7,2.5,3.1,2.5,4.9c0,0.7-0.2,1.3-0.9,2.7c1.1,1.1,2.5,1.7,3.5,1.7c0.3,0,0.5-0.1,0.6-0.3
						c0.1-0.2,0.2-0.4,0.3-0.6c1,0,1.5,0.9,2,1.3c-0.3,0.4-0.6,0.8-1,1.2c-0.4-0.4-0.9-1.1-1.6-1.3c-0.1,0.3-0.3,0.5-0.4,0.7
						c0.6,0.2,1.1,0.8,1.4,1.2c-0.4,0.4-0.7,0.7-1.1,1.1c-0.2-0.4-0.6-0.9-1-1.1c-0.2,0.2-0.3,0.4-0.5,0.6c0.4,0.2,0.7,0.7,0.9,1
						c-0.4,0.4-0.9,0.7-1.4,1c-0.2-1.9-2.9-3.2-2.2-5.5c-0.2,0.4-0.5,0.9-0.5,1.5c0,1.6,1.7,2.9,1.9,4.5c-0.4,0.2-0.7,0.4-1.1,0.6
						c-0.1-1.8-1.9-3.7-1.9-5.2c0-1.6,2.1-3.2,2.1-5.2c0-1.9-2.4-3.2-2.4-4.9c0-1.7,1-2.6,1-4.8c0-1.6-0.7-3.2-1.9-4.2
						c-0.2-0.2-0.4-0.3-0.6-0.4c1.1,1.3,1.7,2.5,1.7,4.3c0,2-1.2,3.1-1.2,5.1c0,2,2.4,3.1,2.4,4.9c0,1.8-2.2,3.4-2.2,5.3
						c0,1.7,2,3.5,2,5.5c-0.4,0.2-0.9,0.4-1.3,0.5c0.3-2.1-2-4.2-2-5.9c0-1.8,2.3-3.4,2.3-5.4c0-2-2.4-2.9-2.4-5
						c0-2,1.4-3.2,1.4-5.4c0-1.8-0.9-3.3-2.1-4.3c0,0-0.1,0-0.1-0.1c-0.1-0.1-0.2,0-0.1,0.1c0.9,1.1,1.4,2.3,1.4,3.9
						c0,2.1-1.7,3.7-1.7,5.7c0,2.4,2.2,3,2.2,5c0,1.9-2.4,3.5-2.4,5.5c0,1.9,2.3,4,1.9,6.2c-0.5,0.1-0.9,0.2-1.4,0.3
						c0.4-2.7-1.8-4.7-1.8-6.5c0-1.9,2.5-3.7,2.5-5.6c0-1.8-1.8-2.4-2-4.2c0-0.2-0.2-0.4-0.5-0.4c-0.4,0.1-0.8,0.3-1.6,0.3
						c-0.7,0-1.2-0.2-1.6-0.3c-0.3,0-0.5,0.1-0.5,0.4c-0.2,1.8-2,2.4-2,4.2c0,1.9,2.5,3.6,2.5,5.6c0,1.8-2.2,3.8-1.8,6.5
						c-0.5-0.1-0.9-0.2-1.4-0.3c-0.4-2.2,1.9-4.3,1.9-6.2c0-2.1-2.4-3.6-2.4-5.5c0-1.9,2.2-2.6,2.2-5c0-2-1.7-3.7-1.7-5.7
						c0-1.7,0.5-2.8,1.4-3.9c0.1-0.1,0-0.2-0.1-0.1c0,0-0.1,0-0.1,0.1c-1.3,1-2.1,2.6-2.1,4.3c0,2.3,1.4,3.4,1.4,5.4
						c0,2-2.4,3-2.4,5c0,2,2.3,3.6,2.3,5.4c0,1.7-2.2,3.8-2,5.9c-0.4-0.2-0.9-0.3-1.3-0.5c0-2,2-3.8,2-5.5c0-1.9-2.2-3.5-2.2-5.3
						c0-1.8,2.4-2.9,2.4-4.9c0-2-1.2-3.1-1.2-5.1c0-1.8,0.6-3,1.7-4.3c-0.2,0.1-0.4,0.3-0.6,0.4c-1.2,1-1.9,2.6-1.9,4.2
						c0,2.2,1,3.1,1,4.8c0,1.7-2.4,3-2.4,4.9c0,1.9,2.1,3.5,2.1,5.2c0,1.5-1.8,3.4-1.9,5.2c-0.4-0.2-0.7-0.4-1.1-0.6
						c0.1-1.6,1.9-2.9,1.9-4.5c0-0.6-0.3-1.1-0.5-1.5c0.7,2.2-1.9,3.6-2.2,5.5c-0.5-0.3-0.9-0.7-1.4-1c0.2-0.4,0.5-0.8,0.9-1
						c-0.2-0.2-0.3-0.4-0.5-0.6c-0.4,0.3-0.8,0.7-1,1.1c-0.4-0.3-0.8-0.7-1.1-1.1c0.3-0.4,0.8-1,1.4-1.2c-0.1-0.2-0.3-0.5-0.4-0.7
						c-0.7,0.2-1.2,0.9-1.6,1.3c-0.3-0.4-0.7-0.8-1-1.2c0.6-0.4,1-1.3,2-1.3c0.1,0.2,0.2,0.4,0.3,0.6c0.1,0.2,0.3,0.3,0.6,0.3
						c0.9,0,2.4-0.6,3.5-1.7c-0.7-1.3-0.9-2-0.9-2.7c0-1.7,2.5-3.2,2.5-4.9c0-1.7-0.8-2.6-0.8-4.5c0-1.6,0.7-3.1,1.7-4.2
						c-0.2,0.1-0.4,0.3-0.7,0.5c-1.1,1.1-1.7,2.6-1.7,4c0,1.9,0.7,2.7,0.7,4.2c0,1.3-2.8,3.2-2.5,5c-1,0.9-2.1,1.3-3.2,1.3
						c0.1,0.4,0.2,0.7,0.3,1.1c-1.1,0.1-1.7,1-2.3,1.4c-0.3-0.4-0.6-0.9-0.8-1.4c1-0.1,1.3-1.4,2.8-1.3c-0.1-0.3-0.1-0.7-0.2-1.1
						c-1.6-0.1-2,1.3-3.1,1.3c-0.2-0.5-0.4-1-0.6-1.5c1.5,0.1,2-1.4,3.6-1.4c0-0.1,0-0.3,0-0.4c0-0.3,0-0.5,0-0.8
						c-1.8,0-2.4,1.5-4,1.4c-0.1-0.5-0.3-1-0.4-1.5c2,0.3,2.7-1.4,4.6-1.4c0.1-0.5,0.2-1,0.3-1.4c-2.2-0.1-3,1.8-5.1,1.5
						c-0.1-0.4-0.1-0.9-0.1-1.3c2.5,0.3,3.4-1.8,5.7-1.5c0.2-0.5,0.5-1.1,0.7-1.6c-2.9-0.5-3.8,1.9-6.5,1.5
						c0.3-10.2,8.7-18.4,19-18.4c10.3,0,18.7,8.2,19,18.4c-2.7,0.4-3.6-2-6.5-1.5c0.3,0.5,0.5,1,0.7,1.6
						C196,154.6,196.9,156.6,199.4,156.4z M172.3,148.4c-1.4-0.6-3.1-0.4-4.5,0.5c-0.2-1.3-1-2.5-2-3.3c-0.1-0.1-0.3,0-0.3,0.2
						c0.2,2.8-1.4,5.3-3.5,7.5c2.1,0.6,3.9-2.1,6.6-1.1C169.6,150.7,170.9,149.4,172.3,148.4z M180.5,146.7c-1.8,0-3.2,1-3.6,2.3
						c0,0.1,0,0.2,0.1,0.1c0.3-0.1,0.7-0.2,1.1-0.2c0.7,0,1.4,0.3,1.7,0.7c0.2,0.5,0.2,1.3,0,1.8c-0.3-0.1-0.4-0.3-0.7-0.3
						c-0.3,0-0.5,0.2-1,0.2s-0.5-0.2-0.9-0.2c-0.4,0-0.4,0.4-0.4,0.8c0,2,1.8,4.7,3.7,4.7c1.9,0,3.7-2.7,3.7-4.7
						c0-0.4-0.1-0.8-0.5-0.9c-0.2,0.1-0.4,0.3-0.8,0.3c-0.5,0-0.6-0.2-0.9-0.2c-0.3,0-0.3,0.7-0.7,0.8c-0.3-0.7-0.3-1.5-0.1-2.3
						c0.4-0.5,1-0.7,1.7-0.7c0.4,0,0.8,0.1,1.1,0.2c0.1,0.1,0.2,0,0.1-0.1C183.7,147.7,182.2,146.7,180.5,146.7z M183.3,149.5
						c-0.4,0-0.9,0.1-1.2,0.5c0,0.1,0,0.2,0,0.3c0.8-0.3,1.4-0.3,1.8,0.1c0.2-0.2,0.2-0.3,0.2-0.5
						C184,149.7,183.8,149.5,183.3,149.5z M177.1,150.4c0.4-0.4,1.1-0.4,2-0.1c0-0.4-0.7-0.8-1.4-0.8c-0.5,0-0.8,0.2-0.8,0.4
						C176.9,150.1,176.9,150.2,177.1,150.4z M189.2,143.8c-1.4,0.1-2.6,0.6-3.6,1.4c0.4-1.2,0.9-2.2,1.6-3.2
						c-1.8,0.2-3.3,0.8-4.3,1.9l-0.8-2.2l1.9-1.7l-2.5-0.2l-1-2.3l-1,2.3l-2.5,0.2l1.9,1.7l-0.8,2.2c-1.1-1.1-2.6-1.8-4.3-1.9
						c0.7,1,1.2,2,1.6,3.2c-1-0.8-2.2-1.3-3.6-1.4c0.8,1.1,1.6,2.2,2.1,3.4c0.1,0.1,0.2,0.2,0.3,0.1c1.9-0.9,4.1-1.5,6.3-1.5
						c2.3,0,4.4,0.5,6.3,1.5c0.1,0.1,0.3,0,0.3-0.1C187.7,146,188.4,144.8,189.2,143.8z M192.3,152.1c2.7-0.9,4.5,1.8,6.6,1.1
						c-2-2.2-3.7-4.6-3.5-7.5c0-0.2-0.1-0.3-0.3-0.2c-1,0.7-1.8,1.9-2,3.3c-1.4-0.9-3.1-1.1-4.5-0.5
						C190.1,149.4,191.3,150.7,192.3,152.1z"/>
				</g>
			</g>
		</g>
		<g>
			<path fill="#007042" d="M192.8,172c0.9,0,1.6,0.7,1.6,1.6c0,0.9-0.7,1.6-1.6,1.6c-0.9,0-1.6-0.7-1.6-1.6
				C191.2,172.6,191.9,172,192.8,172z M192.8,174.9c0.7,0,1.3-0.6,1.3-1.3c0-0.8-0.6-1.3-1.3-1.3c-0.7,0-1.3,0.6-1.3,1.3
				C191.5,174.3,192,174.9,192.8,174.9z M192.2,172.6h0.7c0.4,0,0.6,0.2,0.6,0.5c0,0.3-0.2,0.5-0.5,0.5l0.5,0.8h-0.3l-0.5-0.8h-0.3
				v0.8h-0.3V172.6z M192.4,173.4h0.3c0.2,0,0.5,0,0.5-0.3c0-0.3-0.2-0.3-0.4-0.3h-0.4V173.4z"/>
		</g>
	</g>
	<g>
		<g>
			<g>
				<path fill="#55565A" d="M141.4,68.6c0,3.5-1.9,5.3-5.5,5.3c-3.5,0-5.5-1.9-5.5-5.3v-6.1h4v5.9c0,1.6,0.5,2.4,1.5,2.4
					c1.1,0,1.6-0.7,1.6-2.5v-5.8h4V68.6z"/>
				<polygon fill="#55565A" points="84.3,65.3 84.3,73.6 80.3,73.6 80.3,65.3 76.9,65.3 76.9,62.5 87.6,62.5 87.6,65.3 				"/>
				<path fill="#55565A" d="M94.4,65l-1,3.8h2L94.4,65z M97,73.6l-0.7-2h-3.8l-0.7,2h-4l4.1-11.2H97l4,11.2H97z"/>
				<path fill="#55565A" d="M154.4,72.8l-1.2-2.9c-0.7,0.5-1.4,1-2.6,1c-1.6,0-2.6-1.3-2.6-2.9c0-1.6,0.9-3,2.6-3
					c1,0,1.9,0.5,2.7,1.1l1.2-2.8c-1.3-0.7-2.7-1.1-4.5-1.1c-3.4,0-6,2.3-6,5.7c0,3.6,2.5,5.9,6.1,5.9
					C151.9,73.9,153.3,73.4,154.4,72.8z"/>
				<polygon fill="#55565A" points="163.4,73.6 160.9,69.6 160.9,73.6 157,73.6 157,62.5 160.9,62.5 160.9,66.6 163.3,62.5 
					167.6,62.5 164,68 168.1,73.6 				"/>
				<path fill="#55565A" d="M70.1,73.9c2.5,0,5.2-0.9,5.2-3.8c0-2.6-2.2-3.3-3.9-3.6c-1.3-0.3-1.9-0.4-1.9-0.9
					c0-0.7,0.9-0.7,1.3-0.7c1.2,0,2.2,0.5,3.2,1l1-2.6c-1.4-0.6-3-1.1-4.6-1.1c-2.6,0-4.7,1.3-4.7,3.8c0,2.1,1.6,2.9,3.3,3.3
					c1.2,0.3,2,0.4,2,1c0,0.6-0.6,0.8-1.2,0.8c-1.3,0-2.5-0.6-3.3-1.2l-1.3,2.5C66.8,73.3,68.5,73.9,70.1,73.9z"/>
				<path fill="#55565A" d="M174,73.9c2.5,0,5.2-0.9,5.2-3.8c0-2.6-2.2-3.3-3.9-3.6c-1.3-0.3-1.9-0.4-1.9-0.9c0-0.7,0.9-0.7,1.3-0.7
					c1.2,0,2.2,0.5,3.2,1l1-2.6c-1.4-0.6-3-1.1-4.6-1.1c-2.6,0-4.7,1.3-4.7,3.8c0,2.1,1.6,2.9,3.3,3.3c1.2,0.3,2,0.4,2,1
					c0,0.6-0.6,0.8-1.2,0.8c-1.3,0-2.5-0.6-3.3-1.2l-1.3,2.5C170.7,73.3,172.4,73.9,174,73.9z"/>
				<g>
					<path fill="#55565A" d="M111.7,69.5c1.4-0.5,2.1-1.9,2.1-3.2c0-2.6-1.8-3.8-4.4-3.8h-6v11.2h3.9v-3.3h1l2,3.3h4.2L111.7,69.5z
						 M109.8,66.3c0,0.7-0.5,1.2-1.2,1.2h-1.4v-2.3h1.4C109.4,65.1,109.8,65.5,109.8,66.3L109.8,66.3z"/>
				</g>
				<g>
					<path fill="#55565A" d="M125.3,67.9c1.5-0.3,2.2-1.1,2.2-2.5c0-1.9-1.4-3-3.9-3h-6.4v11.2h6.1c3,0,4.4-1,4.4-3.2
						C127.7,69,126.7,68.1,125.3,67.9z M120.9,64.9h1.4c0.7,0,1.2,0.3,1.2,1v0c0,0.6-0.5,1-1.2,1h-1.4V64.9z M123.6,70.2
						c0,0.7-0.5,1-1.3,1h-1.4v-2.1h1.4C123.1,69.1,123.6,69.5,123.6,70.2L123.6,70.2z"/>
				</g>
			</g>
		</g>
		<g>
			<g>
				<path fill="#55565A" d="M181.6,64.6h-0.3v-1.8h-0.7v-0.3h1.6v0.3h-0.7V64.6z"/>
				<path fill="#55565A" d="M183.6,64.1L183.6,64.1l0.6-1.6h0.5v2.1h-0.3v-1.7h0l-0.7,1.7h-0.2l-0.7-1.7h0v1.7h-0.3v-2.1h0.5
					L183.6,64.1z"/>
			</g>
		</g>
	</g>
</g>
</svg>
