<?xml version="1.0" encoding="utf-8"?>
<!-- Generator: Adobe Illustrator 19.0.0, SVG Export Plug-In . SVG Version: 6.00 Build 0)  -->
<svg version="1.1" id="Layer_1" xmlns="http://www.w3.org/2000/svg" xmlns:xlink="http://www.w3.org/1999/xlink" x="0px" y="0px"
	 viewBox="39 -5.1 362.1 291.6" style="enable-background:new 39 -5.1 362.1 291.6;" xml:space="preserve">
<g>
	<g>
		<path d="M214.6,285.9h-10v-1.8c0.2,0,0.5,0,0.7-0.1c0.4,0,0.7-0.1,0.9-0.2c0.4-0.1,0.7-0.3,0.9-0.6c0.2-0.3,0.3-0.7,0.3-1.2v-13.6
			c0-0.5-0.1-0.9-0.3-1.2c-0.2-0.4-0.5-0.7-0.9-0.9c-0.3-0.2-0.7-0.3-1.2-0.4s-1-0.2-1.5-0.2h-0.1V264l8-0.5l0,0l0.3,0.4v18
			c0,0.5,0.1,0.9,0.3,1.2c0.2,0.3,0.5,0.6,0.9,0.7c0.3,0.1,0.6,0.2,0.9,0.3c0.2,0,0.4,0.1,0.7,0.1L214.6,285.9z M209.2,259.1
			c-0.8,0-1.5-0.3-2.1-0.9s-0.9-1.4-0.9-2.2c0-0.8,0.3-1.6,0.9-2.2c0.6-0.6,1.3-1,2.1-1c0.9,0,1.6,0.3,2.2,0.9
			c0.6,0.6,0.9,1.3,0.9,2.1c0,0.9-0.3,1.7-0.9,2.3C210.8,258.7,210,259.1,209.2,259.1L209.2,259.1L209.2,259.1z"/>
		<path d="M327.8,285.9h-10v-1.8c0.2,0,0.5,0,0.7-0.1c0.4,0,0.7-0.1,0.9-0.2c0.4-0.1,0.7-0.3,0.9-0.6c0.2-0.3,0.3-0.7,0.3-1.2v-13.6
			c0-0.5-0.1-0.9-0.3-1.2c-0.2-0.4-0.5-0.7-0.9-0.9c-0.3-0.2-0.7-0.3-1.2-0.4s-1-0.2-1.5-0.2h-0.1V264l8-0.5l0,0l0.3,0.4v18
			c0,0.5,0.1,0.9,0.3,1.2c0.2,0.3,0.5,0.6,0.9,0.7c0.3,0.1,0.6,0.2,0.9,0.3c0.2,0,0.4,0.1,0.7,0.1L327.8,285.9z M322.4,259.1
			c-0.8,0-1.5-0.3-2.1-0.9s-0.9-1.4-0.9-2.2c0-0.8,0.3-1.6,0.9-2.2s1.3-1,2.1-1c0.9,0,1.6,0.3,2.2,0.9s0.9,1.3,0.9,2.1
			c0,0.9-0.3,1.7-0.9,2.3C324,258.7,323.3,259.1,322.4,259.1L322.4,259.1L322.4,259.1z"/>
		<path d="M239.9,285.9h-10.6v-1.7h0.1c0.3,0,0.7-0.1,1.1-0.1c0.4,0,0.7-0.1,1-0.2c0.4-0.1,0.7-0.3,0.9-0.6c0.2-0.3,0.3-0.7,0.3-1.2
			v-11.3c0-1.5-0.4-2.7-1.1-3.5c-0.7-0.8-1.6-1.2-2.6-1.2c-0.8,0-1.5,0.1-2.1,0.4c-0.7,0.2-1.2,0.5-1.7,0.9
			c-0.5,0.3-0.9,0.7-1.1,1.1c-0.3,0.4-0.5,0.7-0.6,0.9v12.7c0,0.5,0.1,0.9,0.3,1.2c0.2,0.3,0.5,0.5,0.9,0.7c0.3,0.1,0.6,0.3,1,0.3
			c0.4,0.1,0.7,0.1,1.1,0.2h0.1v1.7h-10.6v-1.7c0.2,0,0.5,0,0.7-0.1c0.4,0,0.7-0.1,0.9-0.2c0.4-0.1,0.7-0.3,0.9-0.6
			c0.2-0.3,0.3-0.7,0.3-1.2v-13.6c0-0.5-0.1-0.9-0.3-1.3s-0.5-0.7-0.9-1c-0.3-0.2-0.6-0.3-1-0.4s-0.8-0.1-1.2-0.2h-0.1v-1.7l7.5-0.5
			l0,0l0.4,0.4v3c0.3-0.3,0.8-0.7,1.2-1.2c0.5-0.5,1-0.9,1.5-1.2c0.6-0.4,1.2-0.7,2-0.9c0.8-0.2,1.6-0.4,2.6-0.4
			c2.1,0,3.8,0.7,4.8,2c1,1.4,1.6,3.1,1.6,5.3v11.5c0,0.5,0.1,0.9,0.3,1.2c0.2,0.3,0.4,0.5,0.9,0.7c0.4,0.1,0.7,0.2,0.9,0.3
			c0.2,0,0.4,0.1,0.7,0.1"/>
		<path d="M241.7,285.9v-1.7h0.1c0.3,0,0.7-0.1,1.1-0.1c0.4,0,0.7-0.1,0.9-0.2c0.4-0.1,0.7-0.3,0.9-0.6c0.2-0.3,0.3-0.7,0.3-1.2
			v-13.6c0-0.5-0.1-0.9-0.3-1.2c-0.2-0.4-0.5-0.7-0.9-0.9c-0.3-0.2-0.7-0.3-1.2-0.4s-1-0.2-1.5-0.2H241v-1.7l8-0.5l0,0l0.3,0.4v18
			c0,0.5,0.1,0.9,0.3,1.2c0.2,0.3,0.5,0.6,0.9,0.7c0.3,0.1,0.6,0.2,0.9,0.3c0.3,0.1,0.6,0.1,1,0.2h0.1v1.6v0.1h-10.8V285.9z
			 M255.4,285.8v-0.1V285.8z M246.8,259.1c-0.8,0-1.5-0.3-2.1-0.9s-0.9-1.4-0.9-2.2c0-0.8,0.3-1.6,0.9-2.2c0.6-0.6,1.3-1,2.1-1
			c0.9,0,1.6,0.3,2.2,0.9c0.6,0.6,0.9,1.3,0.8,2.1c0,0.9-0.3,1.7-0.9,2.3C248.4,258.7,247.6,259.1,246.8,259.1L246.8,259.1z"/>
		<path d="M256.2,284.9c-0.8-1-1.2-2.3-1.2-4v-14.8h-2.6v-2.4h2.7v-6.9h4.3v6.9h6.3v2.4h-6.3v12.2c0,0.9,0,1.7,0.1,2.3
			c0.1,0.6,0.2,1.1,0.5,1.6c0.2,0.4,0.6,0.7,1,0.9c0.5,0.2,1.1,0.3,1.9,0.3c0.4,0,0.9,0,1.6-0.1s1.2-0.1,1.5-0.2l0.2-0.1v1.8v0.1
			h-0.1c-1,0.4-1.9,0.7-2.8,1c-0.9,0.3-2,0.4-3.2,0.4C258.4,286.4,257,285.9,256.2,284.9"/>
		<path d="M304.8,284.9c-0.8-1-1.2-2.3-1.2-4v-14.8H301v-2.4h2.7v-6.9h4.3v6.9h6.3v2.4H308v12.2c0,0.9,0,1.7,0.1,2.3
			c0.1,0.6,0.2,1.1,0.5,1.6c0.2,0.4,0.6,0.7,1,0.9c0.5,0.2,1.1,0.3,1.9,0.3c0.4,0,0.9,0,1.6-0.1s1.2-0.1,1.5-0.2l0.2-0.1v1.8v0.1
			h-0.1c-1,0.4-1.9,0.7-2.8,1s-2,0.4-3.2,0.4C307,286.4,305.6,285.9,304.8,284.9"/>
		<path d="M268.8,285.9v-1.7h0.1c0.3,0,0.7-0.1,1.1-0.1c0.4,0,0.7-0.1,0.9-0.2c0.4-0.1,0.7-0.3,0.9-0.6c0.2-0.3,0.3-0.7,0.3-1.2
			v-13.6c0-0.5-0.1-0.9-0.3-1.2c-0.2-0.4-0.5-0.7-0.9-0.9c-0.3-0.2-0.7-0.3-1.2-0.4s-1-0.2-1.5-0.2h-0.1v-1.7l8-0.5l0,0l0.4,0.4v18
			c0,0.5,0.1,0.9,0.3,1.2c0.2,0.3,0.5,0.6,0.9,0.7c0.3,0.1,0.6,0.2,0.9,0.3c0.3,0.1,0.6,0.1,1,0.2h0.1v1.6v0.1h-10.9V285.9z
			 M284.5,285.8v-0.1V285.8z M273.8,259.1c-0.8,0-1.5-0.3-2.1-0.9c-0.6-0.6-0.9-1.4-0.9-2.2c0-0.8,0.3-1.6,0.9-2.2
			c0.6-0.6,1.3-1,2.1-1c0.9,0,1.6,0.3,2.2,0.9c0.6,0.6,0.9,1.3,0.8,2.1c0,0.9-0.3,1.7-0.9,2.3C275.4,258.7,274.7,259.1,273.8,259.1
			L273.8,259.1z"/>
		<path d="M282.6,284.9c-1.1-1-1.6-2.4-1.6-4.1c0-0.9,0.1-1.6,0.4-2.3c0.2-0.7,0.6-1.3,1.1-1.9c0.4-0.5,0.9-0.9,1.5-1.2
			c0.6-0.4,1.2-0.6,1.7-0.9c0.7-0.2,2-0.7,4.1-1.4c2-0.7,3.3-1.2,4.1-1.6v-2.1c0-0.2,0-0.5-0.1-1.1c-0.1-0.5-0.2-1-0.5-1.5
			c-0.3-0.5-0.7-1-1.2-1.4s-1.3-0.6-2.2-0.6c-0.7,0-1.3,0.1-1.9,0.3c-0.6,0.2-0.9,0.4-1.2,0.7c0,0.3,0.1,0.7,0.2,1.2
			c0.1,0.6,0.2,1.1,0.2,1.6c0,0.6-0.3,1.1-0.7,1.5c-0.5,0.5-1.2,0.7-2,0.7c-0.8,0-1.4-0.3-1.7-0.9c-0.4-0.5-0.5-1.2-0.5-1.8
			c0-0.7,0.3-1.4,0.7-2c0.5-0.6,1.1-1.2,1.9-1.7c0.7-0.4,1.5-0.8,2.5-1.1c1-0.3,1.9-0.4,2.8-0.4c1.3,0,2.4,0.1,3.3,0.3
			c1,0.2,1.8,0.6,2.6,1.1c0.8,0.6,1.4,1.3,1.8,2.3s0.6,2.2,0.6,3.7c0,2.1,0,4-0.1,5.7c0,1.6-0.1,3.5-0.1,5.4c0,0.6,0.1,1,0.3,1.3
			c0.2,0.3,0.5,0.6,0.9,0.8c0.2,0.1,0.5,0.2,1,0.2s1,0,1.5,0h0.1v1.6v0.1H302c-0.7,0.3-1.3,0.5-1.9,0.6c-0.5,0.2-1.2,0.2-1.8,0.2
			c-1.2,0-2.1-0.3-2.9-0.8c-0.7-0.5-1.1-1.3-1.4-2.3c-1,1.1-2,1.9-3.1,2.4c-1.1,0.6-2.5,0.9-4.1,0.9
			C285.1,286.5,283.7,285.9,282.6,284.9 M290.7,274.8c-0.9,0.4-1.8,0.8-2.6,1.3c-0.7,0.5-1.3,1.1-1.7,1.8c-0.4,0.7-0.6,1.5-0.6,2.4
			c0,1.2,0.3,2.1,0.9,2.6c0.6,0.6,1.4,0.8,2.4,0.9c1,0,1.9-0.3,2.7-0.8c0.8-0.5,1.4-1.1,2-1.8l0.1-7.5
			C292.6,274.1,291.6,274.4,290.7,274.8"/>
		<path d="M338.6,286.1L338.6,286.1c-1.4-3.6-2.8-6.8-3.9-9.7c-1.2-2.9-2.4-5.8-3.7-8.9c-0.3-0.7-0.7-1.2-1.4-1.5
			c-0.7-0.4-1.3-0.6-2-0.7h-0.1v-1.7H338v1.8h-0.1c-0.4,0-1,0.1-1.6,0.3c-0.7,0.2-0.9,0.4-0.9,0.6c0,0,0,0.1,0.1,0.3
			c0.1,0.2,0.1,0.4,0.2,0.6c0.6,1.5,1.5,3.6,2.6,6.4c1.1,2.6,1.9,4.7,2.6,6.3c0.5-1.2,1.2-2.7,1.9-4.5c0.8-1.9,1.7-4,2.6-6.4
			c0.2-0.4,0.3-0.8,0.4-1.1c0.1-0.3,0.2-0.7,0.2-1c0-0.2-0.1-0.4-0.3-0.6c-0.2-0.2-0.5-0.4-0.9-0.5c-0.3-0.2-0.7-0.3-1-0.3
			c-0.3-0.1-0.6-0.1-0.8-0.2h-0.1v-1.7h8.7v1.5v0.1h-0.1c-0.7,0.1-1.3,0.4-1.9,0.7c-0.6,0.4-1.1,1-1.5,1.9c-0.9,2-1.8,4.1-2.7,6.3
			c-0.9,2.2-1.9,4.4-2.9,6.8c-0.3,0.7-0.6,1.5-0.9,2.4s-0.6,1.8-0.9,2.7v0.1L338.6,286.1L338.6,286.1z"/>
		<path d="M356.5,285.5c-1.4-0.6-2.5-1.5-3.3-2.6c-0.9-1.1-1.5-2.4-2-3.8c-0.4-1.4-0.6-3-0.6-4.6c0-1.4,0.2-2.9,0.7-4.3
			s1.1-2.6,2-3.8c0.9-1.1,1.9-1.9,3.2-2.6c1.3-0.7,2.7-1,4.3-1c1.6,0,3,0.3,4.2,0.8s2.1,1.2,2.8,2.1c0.7,0.8,1.2,1.8,1.6,3
			c0.3,1.1,0.5,2.4,0.5,3.7v1.6h-14.6c0,1.4,0.1,2.7,0.4,3.8c0.3,1.2,0.7,2.2,1.3,3.1c0.6,0.8,1.3,1.5,2.2,2c0.9,0.5,2,0.7,3.3,0.7
			s2.4-0.3,3.4-0.9c0.9-0.6,1.8-1.7,2.7-3.3l0.1-0.1l1.7,1l-0.1,0.1l0.1-0.1l0.1,0.1l-0.1,0.1c-0.9,1.8-2.2,3.2-3.8,4.2
			c-1.6,1.1-3.4,1.6-5.4,1.6C359.5,286.5,357.9,286.2,356.5,285.5 M365.2,272.1c0-0.8-0.1-1.6-0.2-2.5s-0.4-1.7-0.7-2.3
			c-0.3-0.7-0.8-1.2-1.4-1.6s-1.3-0.6-2.2-0.6c-1.5,0-2.8,0.6-3.8,1.9s-1.6,3-1.7,5.2h10V272.1z"/>
	</g>
	<g>
		<path d="M232.5,94.1H221v-1.7h0.1c1-0.1,1.9-0.2,2.6-0.4c0.7-0.2,1-0.4,0.9-0.6c0-0.1,0-0.3,0-0.4c0-0.2-0.1-0.3-0.1-0.4l-2.3-6.3
			h-9.9c-0.4,0.9-0.7,1.7-0.9,2.4c-0.2,0.7-0.4,1.3-0.6,1.9c-0.2,0.6-0.3,1-0.4,1.4c-0.1,0.4-0.1,0.6-0.1,0.9c0,0.5,0.3,0.8,1.2,1.1
			c0.7,0.2,1.4,0.4,2.2,0.5c0.2,0,0.4,0,0.6,0h0.1v1.7h-0.7h-9.6v-1.8c0.2,0,0.5-0.1,0.7-0.2c0.5-0.1,0.9-0.3,1.2-0.5
			c0.5-0.4,0.9-0.7,1.2-1.1s0.6-0.9,0.9-1.6c1.4-3.6,3-7.6,4.8-12.1c1.7-4.5,3.3-8.5,4.6-12v-0.1h1.8l9.6,24.8
			c0.2,0.5,0.4,0.9,0.7,1.2c0.2,0.3,0.6,0.6,1,0.9c0.3,0.2,0.7,0.3,1.2,0.5c0.2,0.1,0.4,0.1,0.6,0.1L232.5,94.1z M213.1,82.1h8.2
			l-4.1-10.6L213.1,82.1z"/>
		<path d="M233,63l7-0.4l0,0l0.3,0.3v27.4c0,0.5,0.1,0.8,0.2,1.1c0.2,0.3,0.4,0.5,0.8,0.6c0.3,0.1,0.6,0.2,0.9,0.3
			c0.1,0,0.2,0,0.4,0.1v1.7H234v-1.7c0.1,0,0.3,0,0.4,0c0.3,0,0.6-0.1,0.8-0.1c0.3-0.1,0.6-0.3,0.8-0.6c0.2-0.3,0.3-0.6,0.3-1.1
			V67.5c0-0.5-0.1-0.9-0.3-1.3s-0.5-0.7-0.8-0.9c-0.2-0.1-0.6-0.3-1.3-0.4c-0.4-0.1-0.7-0.1-0.9-0.2V63z"/>
		<path d="M242.5,62.9l6.8-0.4l0,0l0.3,0.3v13c0.8-0.9,1.7-1.5,2.7-1.9c1-0.5,2-0.7,3-0.7c2.5,0,4.6,1,6.2,3c1.7,2,2.5,4.5,2.5,7.7
			c0,3-1,5.6-2.9,7.6c-1.9,2.1-4.1,3.1-6.7,3.1c-1.1,0-2.2-0.2-3.3-0.5c-1-0.3-2-0.8-2.9-1.3l-1.5,2.3l-1.5-0.3v-0.1
			c0.1-1,0.1-2.2,0.1-3.6s0-2.8,0-4.1V67.3c0-0.4-0.1-0.9-0.3-1.3s-0.5-0.7-0.8-0.9c-0.2-0.2-0.6-0.3-1.2-0.4
			c-0.3,0-0.6-0.1-0.8-0.1v-1.7H242.5z M249.7,89.3c0.1,0.3,0.2,0.7,0.5,1.1c0.2,0.4,0.5,0.8,0.9,1.2c0.4,0.4,0.8,0.7,1.3,0.9
			c0.5,0.2,1.1,0.3,1.8,0.3c1.6,0,2.9-0.8,3.9-2.3c1-1.6,1.5-3.7,1.5-6.4l0,0c0-1-0.1-2-0.3-3s-0.5-1.9-1-2.7
			c-0.5-0.8-1-1.4-1.8-1.9c-0.7-0.5-1.6-0.7-2.6-0.7c-0.9,0-1.7,0.2-2.4,0.5c-0.7,0.4-1.3,0.8-1.8,1.4L249.7,89.3z"/>
		<path d="M271.2,93.7c-1.2-0.6-2.2-1.4-3-2.3c-0.8-1-1.4-2.1-1.8-3.4s-0.6-2.7-0.6-4.1c0-1.3,0.2-2.6,0.6-3.8
			c0.4-1.3,1-2.4,1.8-3.4c0.8-1,1.7-1.8,2.9-2.4c1.2-0.6,2.5-0.9,3.9-0.9c1.5,0,2.7,0.2,3.8,0.7s1.9,1.1,2.6,1.9
			c0.6,0.8,1.1,1.7,1.4,2.7s0.5,2.2,0.5,3.4v1.5h-13.2c0,1.2,0.1,2.4,0.4,3.4c0.2,1.1,0.6,2,1.2,2.8c0.5,0.8,1.2,1.4,2,1.8
			s1.8,0.7,3,0.7s2.2-0.3,3-0.8s1.7-1.5,2.5-3l0.1-0.1l1.5,0.9l-0.1,0.1l0.1-0.1l0.1,0.1l-0.1,0.1c-0.8,1.6-2,2.9-3.4,3.8
			c-1.4,1-3.1,1.4-4.9,1.4l0,0C273.8,94.6,272.4,94.3,271.2,93.7 M279.2,81.7L279.2,81.7L279.2,81.7z M279.1,81.5
			c0-0.7-0.1-1.5-0.2-2.3c-0.1-0.8-0.3-1.6-0.6-2.1c-0.3-0.6-0.7-1.1-1.2-1.5s-1.2-0.6-2-0.6c-1.4,0-2.5,0.6-3.4,1.7
			s-1.4,2.7-1.5,4.7h8.9V81.5z"/>
		<path d="M283.8,74.1l6.1-0.4l0,0l0.3,0.3v2.6c0.8-1,1.7-1.8,2.7-2.3c1-0.6,2-0.9,2.9-0.9s1.6,0.3,2.2,0.9s0.8,1.4,0.8,2.3
			c0,0.7-0.2,1.3-0.5,1.9c-0.4,0.6-0.9,0.9-1.7,0.9c-0.8,0-1.4-0.2-1.8-0.6c-0.4-0.4-0.6-0.9-0.6-1.4c0-0.3,0-0.6,0.1-0.8
			c0-0.2,0.1-0.4,0.1-0.6c-0.6,0-1.2,0.3-2,0.7c-0.8,0.5-1.5,1.2-2.1,2.1v11.6c0,0.5,0.1,0.8,0.3,1.1c0.2,0.3,0.4,0.5,0.8,0.6
			c0.3,0.1,0.7,0.2,1.3,0.3c0.3,0,0.5,0.1,0.8,0.1v1.7h-9.3v-1.7c0.1,0,0.3,0,0.4,0c0.3,0,0.6-0.1,0.8-0.2c0.4-0.1,0.6-0.3,0.8-0.6
			c0.2-0.3,0.3-0.6,0.3-1.1V78.3c0-0.4-0.1-0.8-0.3-1.2c-0.2-0.4-0.4-0.7-0.8-0.9c-0.2-0.2-0.5-0.3-0.9-0.3c-0.2,0-0.3-0.1-0.5-0.1
			L283.8,74.1z"/>
		<path d="M311.5,93.5c-0.7,0.3-1.3,0.5-1.9,0.7c-0.8,0.3-1.8,0.4-2.9,0.4c-1.7,0-2.9-0.4-3.6-1.3s-1.1-2.1-1-3.6V76.3H300v-2.2h2.2
			v-6.2h3.9v6.2h5v2.2h-5v11c0,0.8,0,1.5,0.1,2.1c0.1,0.5,0.2,1,0.4,1.4c0.2,0.4,0.5,0.6,0.9,0.8c0.4,0.2,1,0.3,1.7,0.3
			c0.3,0,0.8,0,1.5-0.1c0.3,0,0.6-0.1,0.8-0.1V93.5z"/>
		<path d="M314.2,93.2c-1-0.9-1.5-2.2-1.5-3.7c0-0.8,0.1-1.5,0.3-2.1c0.2-0.6,0.6-1.2,1-1.7c0.3-0.4,0.8-0.8,1.4-1.1
			c0.6-0.3,1.1-0.6,1.6-0.8c0.6-0.2,1.8-0.7,3.7-1.3c1.8-0.6,3-1.1,3.7-1.4v-1.9c0-0.2,0-0.5-0.1-1s-0.2-0.9-0.5-1.4
			s-0.6-0.9-1.1-1.3c-0.5-0.3-1.1-0.5-2-0.5c-0.6,0-1.2,0.1-1.7,0.3c-0.5,0.2-0.8,0.4-1,0.6c0,0.2,0.1,0.6,0.2,1.1s0.2,1,0.2,1.5
			s-0.2,1-0.7,1.4s-1.1,0.6-1.9,0.6c-0.7,0-1.3-0.3-1.6-0.8c-0.3-0.5-0.5-1.1-0.5-1.7c0-0.7,0.2-1.3,0.7-1.9c0.4-0.6,1-1.1,1.7-1.5
			c0.6-0.4,1.4-0.7,2.2-1c0.9-0.3,1.7-0.4,2.6-0.4c1.1,0,2.1,0.1,3,0.2c0.9,0.2,1.7,0.5,2.3,1c0.7,0.5,1.3,1.2,1.6,2.1
			c0.4,0.9,0.5,2,0.5,3.4c0,1.9,0,3.6-0.1,5.1c0,1.5-0.1,3.1-0.1,4.9c0,0.5,0.1,0.9,0.3,1.2c0.2,0.3,0.4,0.5,0.8,0.7
			c0.2,0.1,0.5,0.2,0.9,0.2s0.9,0,1.3,0h0.1v0.1v1.3v0.1h-0.1c-0.6,0.2-1.2,0.4-1.7,0.6c-0.5,0.1-1.1,0.2-1.7,0.2
			c-1.1,0-1.9-0.2-2.6-0.8c-0.6-0.5-1-1.2-1.2-2.1c-0.9,0.9-1.8,1.7-2.8,2.2s-2.3,0.8-3.7,0.8C316.4,94.6,315.1,94.1,314.2,93.2
			 M321,84c-0.9,0.3-1.6,0.7-2.4,1.2c-0.7,0.4-1.2,1-1.6,1.6s-0.6,1.3-0.6,2.2c0,1.1,0.3,1.9,0.8,2.4c0.6,0.5,1.3,0.8,2.1,0.8
			c0.9,0,1.7-0.2,2.4-0.7c0.7-0.5,1.3-1,1.8-1.6l0.1-6.7C322.8,83.4,321.8,83.7,321,84"/>
	</g>
	<g>
		<path d="M65.6,37.1c3.7-1.6,7.4-3.4,7.9-7.3c0.3-2.1,0-2,1-4.7C74.8,24.2,62.7,26.2,65.6,37.1z"/>
		<path d="M51.7,76c-1.2,0.4-1.1,0.5-2.8,0.6c-0.6,0,3.3,6.7,8.7,2.1C55.8,77,53.9,75.3,51.7,76z"/>
		<path d="M58.1,73.4c0.9-2.3,1.7-4.7,0.2-6.5c-0.8-1-0.9-0.8-1.7-2.3C56.3,64,51.8,70.2,58.1,73.4z"/>
		<path d="M51.9,71.5L51.9,71.5c3.8,4.7,14.6,12.9,18.5,13.4c0.8,0.1,1-0.5,0.8-0.7c-6.5-4.6-12.6-8.3-19-13.7
			c0.2-2-0.4-6.3-5.7-6.2c0.2,2.5,0.6,4.9,2.8,5.8C50.5,70.7,50.5,70.5,51.9,71.5z"/>
		<path d="M65.7,57.5c-2.7-3-5.7-5.8-9.5-5c-2,0.4-1.9,0.6-4.7,0.6C50.5,53.2,56.4,63.9,65.7,57.5z"/>
		<path d="M67.9,7.6c-0.3-2.1-0.5-2-0.4-4.8c0.1-0.9-11,4.4-5.1,14C65.5,14.3,68.5,11.4,67.9,7.6z"/>
		<path d="M53.7,28.1c1.7,1.2,1.8,1,3.6,3.1C58,32,62,20.3,51,17.7C50.6,21.7,50.5,25.9,53.7,28.1z"/>
		<path d="M102.8,40.3c1.2,1.6,1.3,1.4,2.5,3.8c0.4,0.8,7.2-8.7-2.2-14C101.7,33.6,100.6,37.4,102.8,40.3z"/>
		<path d="M96.5,22.6c0.3,0.7,6.3-7.6-1.9-12.3c-1.2,3.1-2.3,6.4-0.3,9C95.4,20.7,95.5,20.5,96.5,22.6z"/>
		<path d="M86.6,19.9c0.3,0.7,6.3-7.6-1.9-12.3c-1.2,3.1-2.3,6.4-0.3,9C85.5,17.9,85.7,17.7,86.6,19.9z"/>
		<path d="M50.2,49.3c-3-0.8-6.2-1.4-8.3,0.7c-1.2,1.1-1,1.2-2.9,2.4C38.4,52.8,46.8,57.4,50.2,49.3z"/>
		<path d="M77.1,8.1c0.3,0.7,6.4-6.6-0.8-11.6c-1.4,2.8-2.6,5.8-0.9,8.3C76.2,6.2,76.3,6.1,77.1,8.1z"/>
		<path d="M117.3,30.5c-7.6,8.9-19.3,20.8-20.9,47.2c-0.2,3.5,0.2,2.8,0.5,1.3c4.2-19.5,12.4-36.8,20.7-47.6
			C119.1,29.5,117.6,30.2,117.3,30.5z"/>
		<path d="M102.5,19.3c-0.2-0.7-0.3-0.6-0.3-0.4c0,1.9-1.9,9-1.9,9.1s-0.5-0.9-0.6-0.5c-0.8,1.9-9.2,24-10.1,24.2
			c-0.2,0-1.1-1.2-2.4-2.7c1.9-1.3,7.6-8.2,0.6-14.7c-2.3,3.3-4.4,6.8-2.8,10.4c0.7,1.6,1,1.7,1.3,3.3c-1.4-1.8-3.1-3.7-4.5-4.9
			c1.1-2.2,2.9-10.7-6.3-13.3c-0.5,4-0.8,8.1,2.3,10.5c1.4,1.1,1.7,1.1,2.9,2.6l0,0c0,0,0.1,0.1,0.1,0.2c0.1,0.1,0.1,0.1,0.2,0.2
			c1.5,1.9,7.7,10.1,7.3,11.6c-0.4,1.3-3,8.9-7.6,17.6c-2.3-4.4-4.8-9.2-7.4-14c3.1-2.4,6-5,5.6-8.8c-0.2-2.1-0.5-2-0.1-4.8
			c0.1-0.8-9.1,3-6.9,11.1c-3.7-6.6-7.5-12.9-11.4-17.3c-0.7-0.8-1.1,0-1.1,0S69.5,55,73.2,65.8v0.1c-1.2-2.1-2.6-3.8-4.9-3.8
			c-1.3,0-1.3,0.2-3.3-0.4c-0.6-0.2,1.3,8.5,8.5,6.4c4,6.4,9.5,20.8,9.8,21.7c0.1,0.2-11.6-2.5-19.4-3c-0.1-1.5-0.3-3-1.2-3.7
			c-0.5-0.4-0.5-0.3-1.1-1c-0.2-0.2-0.6,3.6,1.6,4.7c-1.3-0.1-2.5,0-3.4,0.1c0,0,0,0-0.1,0c-1-0.7-2.1-1.3-3.3-0.9
			c-0.8,0.3-0.7,0.3-1.8,0.5c-0.3,0,2.1,3.3,5.2,1.1c0.4,0.1,1.3,0.2,2.6,0.3c-0.9,0.1-1.7,0.4-2.1,1.2c-0.3,0.6-0.3,0.6-0.9,1.3
			c-0.2,0.2,3.3,0.9,3.9-2.3c1.6,0.2,3.6,0.5,5.7,0.9c-1.1,0.2-2,0.7-2.6,1.7c-0.5,0.8-0.4,0.9-1.2,1.8c-0.3,0.3,4.5,1.4,5.6-3.2
			c2.1,0.4,4.3,0.9,6.3,1.4c-1.2,0.7-2.3,1.6-2.7,3c-0.3,1.1-0.2,1.1-1,2.6c-0.2,0.4,5-0.3,5.7-4.9c1.4,0.5,2.6,0.9,3.5,1.5
			c8.9,5.2,0.1,41.6,0,41.5c-2.5-1.5-23.5-7.2-24.6-7.4c-0.4-0.1-0.5,1.6-0.3,1.6c5.4,0.5,22.2,7.1,24.8,11
			c1.1,2.5,1.3,13.6,1.3,14.6s2.6,0.3,2.6-0.9c-1-19.9,0.7-28.3,1.4-31.2c0.5-2.1,1.1-1.3,1.1-0.2s-0.2,5.6,0.1,5.4
			c6.1-4.7,1.7-35.6-5.6-49.1C83.2,77.9,104.7,29.3,102.5,19.3z"/>
	</g>
	<g>
		<path d="M69.9,14.4c0.1-0.9-11,4.4-5.1,14c3.1-2.6,6.1-5.4,5.5-9.3C69.9,17.1,69.7,17.2,69.9,14.4z"/>
		<path d="M89.2,19.2c-0.6,1.4-1.1,2.8-1.4,4.2c-1-1.9-2.9-3.5-6.1-4.5c-0.6,4-0.8,8.1,2.3,10.5c1.6,1.3,1.7,1.1,3.5,3.3
			c0.2,0.3,0.9-1,1.3-3c0.1,0.1,0.1,0.2,0.2,0.2c1.3,1.7,1.4,1.5,2.6,4C91.8,34.8,99,24.8,89.2,19.2z"/>
		<path d="M112.2,41.4c-0.5,0.6,9.4,2.9,10.7-6.4c-3.3,0-6.8,0.3-8.4,3.1C113.6,39.6,113.8,39.7,112.2,41.4z"/>
		<path d="M113.5,49.2c-3.3,0.6-6.6,1.5-7.7,4.6c-0.6,1.6-0.4,1.7-1.6,3.6C103.7,58.1,114,58.6,113.5,49.2z"/>
		<path d="M125.9,6.6c-0.5,0.8-0.8,1.7-0.9,2.7c-0.2,2.1,0,2-0.8,4.7c-0.3,0.9,11.8-1.6,8.4-12.4c-1.4,0.6-2.7,1.3-3.9,2.2
			c0.9-2.6,0.8-6.1-3.2-8.9c-1.5,3-2.9,6.1-1.1,8.9C125.1,5.1,125.3,5.1,125.9,6.6z"/>
		<path d="M123.8,24.5c2.4,0.1,8.8-1.2,8.3-8.7c-3.1,0.6-6.2,1.6-7.4,4.3c-0.1-1.6-0.7-3.3-2-5.2c-3,2.7-5.8,5.7-4.9,9.6
			c0.4,2,0.7,1.9,0.6,4.7C118.4,29.8,122,27.9,123.8,24.5z"/>
		<path d="M134.3,28.1c-3.7-1.5-7.7-2.7-10.7-0.4c-1.7,1.3-1.5,1.4-4,2.6C118.7,30.7,128.7,37.9,134.3,28.1z"/>
		<path d="M136.1,30.7c-0.1,0.9,11.3-3.6,6.1-13.6c-3.3,2.3-6.4,4.9-6.1,8.8C136.3,28,136.5,27.9,136.1,30.7z"/>
		<path d="M120.1,45.9c-0.4-0.8-0.9-1.7-1.7-2.5c-2.1,2.6-4.1,5.4-3,8.4c0.6,1.6,0.7,1.5,1,3.9c0,0.4,2.1-0.9,3.4-3.2
			c2.9-0.5,10.1-3.6,7.6-12.2C124.3,41.5,121.3,43.1,120.1,45.9z"/>
		<path d="M104,63.6c-0.9,1.5-0.7,1.5-2.4,3.2c-0.5,0.6,9.4,3.2,10.9-6.1C109.1,60.7,105.7,60.9,104,63.6z"/>
		<path d="M102.5,13.2c0.2,1.7,0.4,1.7,0.1,4l0,0l0,0l0,0c0.4,0.8,9.4,2.7,10.8-6.1c-1.7,0-3.5,0-5,0.4c0.4-1.6,0.2-3.5-1-5.7
			C104.7,7.8,102.1,10,102.5,13.2z"/>
		<path d="M108.6,31c0.5,2.3,0.7,2.2,0.7,5.2c0,1,9.8-4.7,3.5-15.3C110.2,23.7,107.7,26.7,108.6,31z"/>
		<path d="M118.3,9.9c1.6,1.4,1.7,1.2,3.3,3.4c0.6,0.8,5.6-10.5-5.1-14C115.8,3.3,115.4,7.4,118.3,9.9z"/>
		<path d="M100.7,10.6c0.5,0.8,6.3-10-4.1-14.4c-1,3.9-1.8,7.9,1,10.7C99,8.4,99.2,8.2,100.7,10.6z"/>
		<path d="M55.4,38.7c-1.3-0.6-1.3-0.4-2.8-1.7c-0.5-0.4-0.6,11.1,6.5,10.1C58.5,43.4,57.8,39.7,55.4,38.7z"/>
		<path d="M178.6,69.6c11.3-10.6-2.2-31.8-2.1-29.1c0.5,11.6-12.6,8.1-12.6,8.1s20.4-20.1-9.7-19.3c0,0-8.2-9.6-8-7.2
			c0.8,13.2-16.2,21.6-15.6,21.7c2.8,0.4,9.3-4.2,11-3.9c2.2,0.3-9.4,7.1-9.3,7.2c2.3,0.6,9-3.2,9.8-1c0.7,2.2-13.3,7.7-12.7,7.9
			c1,0.3,2.4,0.6,5.8,0.2c6.3-0.7,5.1,1.3,2.5,1.8c-7.7,1.6-33.4,9.1-46.2,39.6c-0.5,1.2,1.4,0.8,1.7,0.3
			c17.6-30.7,49-39.4,50.9-40.3c1.9-0.9,3.8-1.6,5.1-2.9c6.8-6.5,11.3-3.2,11.8-2.7c0,0-2.6,6.2-9.9,5c0,0-2.1-0.3-3.1,0.2
			s-4.8,2.6-5.8,3.1s3.9-0.2,4.5-0.3c1.4-0.1,1,0.6,0.3,0.8c-5.3,1-9.7,1.6-22.7,8.4c-0.1,0,0,0.2,0.2,0.1
			c9.9-4.5,21.1-2.5,22.5-2.5s3.1,0.6,0.2,0.9c-56.8,5.3-56.7,65.8-47,100.3c0.1,0.5,2.6,0,2.5-1.5c-0.4-4.5-1.4-7.2,2.7-6
			c4.4,1.3,35.9,11.7,45.7,13.7c2.7,0.5,1.7-6.5,1.1-6.6c-1.4-0.3-46.1-12.8-49.3-24.4c-5.3-18.8-0.1-41.2,6.4-40.1
			c1.3,0.2,0,1.5,1.9,7.1c3.2,9.1,20.3,13.7,20.3,13.7c1.7-7.8,27.6,13.4,23.3-15.4c-0.1-0.5-0.3-0.6-0.4-0.6c-0.1,0-0.2,0-0.2,0
			s0.1,0,0.2,0c1.2-0.2,9.2-1.9,11.7-5.4c8.8-11.9-7.7-19.5-6.5-23.5C160.8,73.1,174.4,73.5,178.6,69.6z M146.5,48.7
			c1-3.2,0.7-3.2,0.8-5.7c0.3-4.7,4.5-7.2,8.9-9.4C160.6,46.4,146.2,49.7,146.5,48.7z M160.9,60.6c2.6-1.1,2.4-1.2,4.1-2.4
			c3.2-2.2,7.1-0.8,10.7,0.9C169.7,68.6,160,61,160.9,60.6z M129.1,90.1c-5,0.4-13.9,3.4-14.7,3c-0.4-0.2-2.1-1.9-1-2.2
			c6.5-1.4,25.8-9.5,29.3-11.7c1.3-0.8,2.1-0.2,1.3,0.8c-1.5,1.9-10.9,6.9-11.4,7.1c0,0,3.4,1.1,4.5,2.1
			C138.2,90.4,131.5,89.9,129.1,90.1z M148.3,112.3c-14.9-6.1-10.4-21.7-9.5-20.5c2.7,3.4,2.7,3.1,5.1,5.2
			C148.2,100.9,148.5,106.7,148.3,112.3z M140.8,88.2c3.6-0.1,3.4-0.3,6-0.9c4.8-1,8.8,1.7,12.5,4.6
			C147.9,98.9,139.6,88.2,140.8,88.2z M151.5,65.1c2.8-0.3,2.7-0.5,4.7-1.1c3.7-1.2,7,1.3,10,3.9C157.7,75.2,150.6,65.2,151.5,65.1z
			"/>
	</g>
	<g>
		<path d="M138.2,200.4c-1.3,0.1-2.6,0.6-4.1,1.6c-1.5,0.9-2.5,2.3-3.2,4.2c-1.5,4.4-2.9,8.6-4.2,12.5c-1.3,3.9-2.8,8.4-4.5,13.3
			c-0.5,1.6-1.1,3.2-1.6,5c-0.6,1.8-1.1,3.5-1.5,5.2h-3.8l-12-32.7l-12,32.7h-3.7c-2.2-6.7-4.4-13.3-6.6-19.8
			c-2.1-6.5-4-12.2-5.7-17.1c-0.5-1.4-1.4-2.5-2.7-3.3c-1.3-0.8-2.7-1.3-3.9-1.4v-3h19.8v3.1c-1,0-2.1,0.2-3.2,0.5
			c-1.2,0.3-1.7,0.8-1.7,1.5c0,0.1,0.1,0.4,0.2,0.8c0.1,0.4,0.2,0.8,0.4,1.3c1,3.1,2,6.6,3.3,10.5c1.2,3.9,2.8,8.9,4.7,15.1
			l11.3-31.9h4.4l11.5,31.4c1.3-4,2.6-7.9,3.8-11.6c1.3-3.7,2.4-7.3,3.4-10.6c0.2-0.8,0.4-1.5,0.6-2.1s0.3-1.3,0.3-1.9
			c0-0.5-0.2-1-0.7-1.4s-1.1-0.8-1.8-1c-0.6-0.2-1.2-0.4-2-0.5c-0.7-0.1-1.2-0.2-1.6-0.2v-2.9h16.9v2.7H138.2z"/>
		<path d="M174.3,231.4c-1.9,3.5-4.3,6.3-7.5,8.5c-3.1,2.1-6.7,3.1-10.7,3.1c-3.6,0-6.7-0.6-9.4-1.9c-2.7-1.2-4.9-3-6.6-5.1
			c-1.7-2.2-3-4.7-3.9-7.6c-0.9-2.9-1.3-5.9-1.3-9.1c0-2.9,0.5-5.7,1.4-8.5s2.3-5.3,4-7.5c1.7-2.1,3.8-3.8,6.4-5.1
			c2.5-1.3,5.4-2,8.5-2c3.2,0,6,0.5,8.3,1.5c2.3,1,4.2,2.4,5.6,4.2c1.4,1.7,2.4,3.7,3.1,5.9c0.7,2.3,1,4.7,1,7.4v3h-29.3
			c0,2.9,0.3,5.6,0.8,7.9c0.6,2.4,1.4,4.4,2.6,6.3c1.2,1.8,2.7,3.1,4.6,4.1s4.1,1.5,6.7,1.5c2.7,0,5-0.6,6.9-1.9
			c1.9-1.2,3.8-3.5,5.6-6.7L174.3,231.4z M164.3,214.5c0-1.7-0.1-3.5-0.4-5.4c-0.3-1.9-0.7-3.5-1.4-4.8c-0.7-1.4-1.6-2.5-2.8-3.4
			s-2.7-1.3-4.6-1.3c-3.1,0-5.8,1.3-7.8,3.9c-2.1,2.6-3.2,6.3-3.4,10.9h20.4V214.5z"/>
		<path d="M173.6,238.8c0.5,0,1-0.1,1.5-0.1c0.8-0.1,1.4-0.2,1.9-0.3c0.8-0.3,1.5-0.7,1.9-1.4s0.6-1.6,0.6-2.6v-51.5
			c0-1.1-0.2-2.1-0.7-3s-1.1-1.7-1.8-2.2c-0.5-0.4-1.5-0.7-3-1c-1.4-0.3-2.6-0.5-3.5-0.5v-2.9l16.7-1l0.6,0.7v60.8
			c0,1,0.2,1.9,0.6,2.6c0.4,0.7,1,1.2,1.9,1.6c0.7,0.3,1.3,0.5,2,0.7c0.5,0.1,1,0.2,1.5,0.3c0.2,0,0.4,0,0.7,0.1v3h-0.7h-20.3v-3.3
			H173.6z"/>
		<path d="M196.8,238.8c0.5,0,1-0.1,1.5-0.1c0.8-0.1,1.4-0.2,1.9-0.3c0.8-0.3,1.5-0.7,1.9-1.4s0.6-1.6,0.6-2.6v-51.5
			c0-1.1-0.2-2.1-0.7-3s-1.1-1.7-1.8-2.2c-0.5-0.4-1.5-0.7-3-1c-1.4-0.3-2.6-0.5-3.5-0.5v-2.9l16.7-1l0.6,0.7v60.8
			c0,1,0.2,1.9,0.6,2.6c0.4,0.7,1,1.2,1.9,1.6c0.7,0.3,1.3,0.5,2,0.7c0.5,0.1,1,0.2,1.5,0.3c0.2,0,0.4,0,0.7,0.1v3H217h-20.3v-3.3
			H196.8z"/>
		<path d="M267.4,241.8h-21v-3c0.7-0.1,1.4-0.1,2.3-0.2c0.8-0.1,1.5-0.2,2-0.3c0.8-0.3,1.5-0.7,1.9-1.4s0.6-1.6,0.6-2.6v-22.8
			c0-3.2-0.7-5.6-2.2-7.3s-3.3-2.6-5.4-2.6c-1.6,0-3,0.3-4.4,0.7c-1.3,0.5-2.5,1.1-3.5,1.8s-1.8,1.4-2.4,2.2c-0.6,0.8-1,1.4-1.3,1.9
			v25.5c0,1,0.2,1.9,0.6,2.5c0.4,0.7,1.1,1.2,1.9,1.5c0.6,0.3,1.3,0.5,2,0.7c0.7,0.1,1.5,0.3,2.3,0.3v3h-21v-3c0.5,0,1-0.1,1.4-0.1
			c0.7-0.1,1.4-0.2,1.9-0.3c0.8-0.3,1.5-0.7,1.9-1.4s0.6-1.5,0.6-2.6v-27.4c0-1-0.2-1.9-0.7-2.8c-0.4-0.9-1-1.6-1.8-2.1
			c-0.6-0.4-1.2-0.6-2-0.8s-1.6-0.3-2.5-0.3v-3l14.7-1l0.6,0.6v6.2h0.2c0.7-0.7,1.6-1.6,2.7-2.6c1.1-1,2.1-1.8,3.1-2.4
			c1.1-0.7,2.4-1.3,4-1.8c1.5-0.5,3.3-0.7,5.2-0.7c4.3,0,7.4,1.3,9.5,4s3.1,6.2,3.1,10.6v23.1c0,1.1,0.2,1.9,0.5,2.5
			c0.4,0.7,1,1.2,1.8,1.5c0.7,0.3,1.3,0.5,1.9,0.6c0.4,0.1,0.9,0.2,1.5,0.2L267.4,241.8L267.4,241.8z"/>
		<path d="M306.3,231.4c-1.9,3.5-4.3,6.3-7.5,8.5c-3.1,2.1-6.7,3.1-10.7,3.1c-3.6,0-6.7-0.6-9.4-1.9c-2.7-1.2-4.9-3-6.6-5.1
			c-1.7-2.2-3-4.7-3.9-7.6c-0.9-2.9-1.3-5.9-1.3-9.1c0-2.9,0.5-5.7,1.4-8.5s2.3-5.3,4-7.5c1.7-2.1,3.8-3.8,6.4-5.1
			c2.5-1.3,5.4-2,8.5-2c3.2,0,6,0.5,8.3,1.5s4.2,2.4,5.6,4.2c1.4,1.7,2.4,3.7,3.1,5.9c0.7,2.3,1,4.7,1,7.4v3h-29.3
			c0,2.9,0.3,5.6,0.8,7.9c0.6,2.4,1.4,4.4,2.6,6.3c1.2,1.8,2.7,3.1,4.6,4.1s4.1,1.5,6.7,1.5c2.7,0,5-0.6,6.9-1.9
			c1.9-1.2,3.8-3.5,5.6-6.7L306.3,231.4z M296.3,214.5c0-1.7-0.1-3.5-0.4-5.4s-0.7-3.5-1.4-4.8c-0.7-1.4-1.6-2.5-2.8-3.4
			c-1.2-0.9-2.7-1.3-4.6-1.3c-3.1,0-5.8,1.3-7.8,3.9c-2.1,2.6-3.2,6.3-3.4,10.9h20.4V214.5z"/>
		<path d="M337.8,220.1c1.2,1.1,2.2,2.3,2.8,3.7c0.7,1.4,1,3.1,1,5.2c0,4.1-1.5,7.5-4.6,10.1s-7,3.9-11.9,3.9c-2.6,0-5-0.5-7.1-1.4
			c-2.2-0.9-3.7-1.8-4.7-2.6l-0.9,2.9H309l-0.4-15.4h3.1c0.2,1.2,0.7,2.5,1.5,4.1s1.7,3,2.8,4.2c1.2,1.3,2.6,2.4,4.2,3.3
			c1.6,0.9,3.5,1.4,5.5,1.4c2.9,0,5.1-0.7,6.7-2s2.3-3.2,2.3-5.6c0-1.3-0.2-2.3-0.7-3.3c-0.5-0.9-1.2-1.7-2.2-2.4s-2.2-1.3-3.6-1.9
			c-1.4-0.5-3-1.1-4.8-1.6c-1.4-0.4-3-1-4.7-1.7s-3.2-1.6-4.4-2.6c-1.3-1-2.4-2.3-3.2-3.9c-0.8-1.5-1.3-3.3-1.3-5.4
			c0-3.6,1.4-6.7,4-9.2c2.7-2.5,6.3-3.8,10.8-3.8c1.7,0,3.5,0.2,5.3,0.7s3.3,1,4.4,1.6l1-2.3h3.2l0.7,14.2h-3.1
			c-0.6-3.2-2-5.8-4.1-7.8s-4.6-3-7.6-3c-2.5,0-4.4,0.6-5.8,1.9c-1.4,1.2-2.1,2.7-2.1,4.5c0,1.3,0.2,2.5,0.7,3.4s1.2,1.7,2.1,2.3
			s2,1.2,3.4,1.7s3,1.1,5.1,1.8c2,0.6,3.8,1.4,5.6,2.2C335.2,218.2,336.7,219.1,337.8,220.1"/>
		<path d="M374.8,220.1c1.2,1.1,2.2,2.3,2.8,3.7c0.7,1.4,1,3.1,1,5.2c0,4.1-1.5,7.5-4.6,10.1s-7,3.9-11.9,3.9
			c-2.6,0-4.9-0.5-7.1-1.4s-3.7-1.8-4.7-2.6l-0.9,2.9H346l-0.5-15.4h3.1c0.2,1.2,0.7,2.5,1.5,4.1s1.7,3,2.8,4.2
			c1.2,1.3,2.6,2.4,4.2,3.3c1.6,0.9,3.5,1.4,5.5,1.4c2.9,0,5.1-0.7,6.7-2s2.3-3.2,2.3-5.6c0-1.3-0.2-2.3-0.7-3.3
			c-0.5-0.9-1.2-1.7-2.2-2.4s-2.2-1.3-3.6-1.9c-1.4-0.5-3-1.1-4.8-1.6c-1.4-0.4-3-1-4.7-1.7s-3.2-1.6-4.4-2.6
			c-1.3-1-2.4-2.3-3.2-3.9c-0.8-1.5-1.3-3.3-1.3-5.4c0-3.6,1.4-6.7,4-9.2c2.7-2.5,6.3-3.8,10.8-3.8c1.7,0,3.5,0.2,5.3,0.7
			s3.3,1,4.4,1.6l1-2.3h3.2l0.7,14.2H373c-0.6-3.2-2-5.8-4.1-7.8s-4.6-3-7.6-3c-2.5,0-4.4,0.6-5.8,1.9c-1.4,1.2-2.1,2.7-2.1,4.5
			c0,1.3,0.2,2.5,0.7,3.4s1.2,1.7,2.1,2.3s2,1.2,3.4,1.7s3,1.1,5.1,1.8c2,0.6,3.8,1.4,5.6,2.2C372.2,218.2,373.6,219.1,374.8,220.1"
			/>
		<path d="M170.8,163c0.5,0,1-0.1,1.5-0.1c0.7-0.1,1.4-0.2,1.9-0.4c0.8-0.3,1.5-0.7,1.9-1.4s0.6-1.6,0.6-2.6v-32.3h-8.8v-4.3h8.8
			v-2.8c0-6.7,1.7-12.2,5.2-16.4c3.5-4.2,7.9-6.3,13.1-6.3c2.7,0,4.7,0.5,6,1.6s2,2.3,2,3.8c0,1.4-0.4,2.5-1.1,3.4
			c-0.7,0.9-1.8,1.4-3.3,1.4c-0.9,0-1.7-0.2-2.5-0.6c-0.7-0.4-1.4-0.9-2-1.6s-1.2-1.4-1.7-2.2c-0.5-0.8-0.9-1.5-1.3-2
			c-2,0.1-3.6,1.5-4.6,4.2c-1.1,2.7-1.6,7-1.6,12.9v4.5h8.5v4.3h-8.5v31.8c0,1.1,0.2,1.9,0.6,2.6c0.4,0.7,1,1.2,1.9,1.5
			c0.7,0.3,1.7,0.5,2.9,0.7c0.9,0.1,1.7,0.2,2.4,0.3v3h-22v-3H170.8z"/>
		<path d="M235.5,165.2c-1.4,0.5-2.6,0.9-3.7,1.2c-1.1,0.3-2.3,0.5-3.6,0.5c-2.3,0-4.2-0.5-5.6-1.6c-1.4-1.1-2.3-2.7-2.7-4.8h-0.3
			c-1.9,2.2-4,3.8-6.3,4.9c-2.2,1.1-4.9,1.7-8.1,1.7c-3.3,0-6.1-1-8.2-3.1c-2.1-2-3.2-4.7-3.2-8c0-1.7,0.2-3.2,0.7-4.6
			c0.5-1.3,1.2-2.6,2.2-3.6c0.7-0.9,1.7-1.7,3-2.4c1.2-0.7,2.4-1.3,3.5-1.7c1.3-0.5,4.1-1.5,8.2-2.8c4.1-1.4,6.9-2.5,8.3-3.2v-4.5
			c0-0.4-0.1-1.1-0.2-2.2c-0.2-1.1-0.5-2.2-1.1-3.1c-0.6-1.1-1.4-2.1-2.5-2.9c-1.1-0.8-2.6-1.2-4.7-1.2c-1.4,0-2.7,0.2-3.8,0.7
			c-1.2,0.5-2,1-2.5,1.5c0,0.6,0.1,1.5,0.4,2.6c0.3,1.2,0.4,2.2,0.4,3.2s-0.5,2-1.4,2.9s-2.3,1.3-3.9,1.3c-1.5,0-2.6-0.5-3.3-1.6
			s-1.1-2.3-1.1-3.6c0-1.4,0.5-2.7,1.5-3.9c1-1.3,2.2-2.4,3.8-3.4c1.3-0.8,3-1.5,4.9-2.1s3.8-0.9,5.6-0.9c2.5,0,4.7,0.2,6.6,0.5
			c1.9,0.3,3.6,1.1,5.1,2.2c1.5,1.1,2.7,2.6,3.5,4.5c0.8,1.9,1.2,4.4,1.2,7.3c0,4.3,0,8.1-0.1,11.4c-0.1,3.3-0.1,6.9-0.1,10.9
			c0,1.2,0.2,2.1,0.6,2.8c0.4,0.7,1,1.3,1.9,1.8c0.4,0.3,1.2,0.4,2.1,0.4c1,0,2,0,3,0L235.5,165.2L235.5,165.2z M219.8,141.5
			c-2.5,0.7-4.8,1.5-6.7,2.2s-3.7,1.6-5.3,2.7c-1.5,1-2.7,2.2-3.5,3.6c-0.9,1.4-1.3,3.1-1.3,5c0,2.5,0.6,4.3,2,5.5
			c1.3,1.2,3,1.8,5,1.8c2.1,0,4-0.5,5.6-1.6c1.6-1,3-2.3,4.1-3.7L219.8,141.5z"/>
		<path d="M311.7,166h-20.9v-3c0.7,0,1.4-0.1,2.1-0.2c0.7-0.1,1.3-0.2,1.9-0.4c0.8-0.3,1.5-0.7,1.9-1.4s0.6-1.6,0.6-2.6v-22.9
			c0-3.1-0.7-5.5-2.1-7.2c-1.4-1.7-3.2-2.5-5.3-2.5c-1.5,0-2.8,0.2-4.1,0.7c-1.3,0.4-2.5,1.1-3.6,1.9c-0.9,0.7-1.6,1.4-2.2,2.1
			c-0.6,0.8-1,1.4-1.3,1.9V158c0,1.1,0.2,1.9,0.5,2.6c0.4,0.7,1,1.2,1.8,1.6c0.7,0.3,1.3,0.5,1.9,0.6s1.3,0.2,2.2,0.3v3H264v-3
			c0.7,0,1.4-0.1,2-0.2c0.6-0.1,1.2-0.2,1.8-0.4c0.8-0.3,1.5-0.7,1.9-1.4s0.6-1.6,0.6-2.6v-22.9c0-3.1-0.7-5.5-2.1-7.2
			c-1.4-1.7-3.2-2.5-5.3-2.5c-1.5,0-2.9,0.2-4.1,0.7c-1.3,0.5-2.5,1.1-3.6,1.9c-0.9,0.7-1.6,1.4-2.2,2.2c-0.6,0.8-1.1,1.5-1.4,1.9
			v25.3c0,1,0.2,1.9,0.6,2.6c0.4,0.7,1,1.2,1.9,1.6c0.6,0.3,1.3,0.5,1.9,0.7c0.5,0.1,1,0.2,1.5,0.2v3h-20.2v-3c0.5,0,1-0.1,1.5-0.1
			c0.7-0.1,1.4-0.2,1.9-0.4c0.8-0.3,1.5-0.7,1.9-1.4s0.6-1.6,0.6-2.6v-27.6c0-1-0.2-1.8-0.7-2.6c-0.4-0.8-1-1.4-1.8-2
			c-0.6-0.4-1.3-0.6-2.1-0.9c-0.8-0.2-1.7-0.4-2.6-0.4v-3l14.8-1l0.6,0.6v6.3h0.3c0.7-0.8,1.7-1.6,2.7-2.7c1.1-1,2.1-1.8,3-2.5
			c1.1-0.7,2.4-1.3,3.9-1.8c1.6-0.5,3.3-0.7,5.1-0.7c2.9,0,5.3,0.8,7.4,2.3s3.6,3.4,4.5,5.6c1.1-1,2-2,2.8-2.8
			c0.8-0.8,1.9-1.6,3.3-2.5c1.1-0.8,2.5-1.4,4-1.9s3.3-0.7,5.1-0.7c3.7,0,6.7,1.2,8.9,3.7c2.2,2.5,3.3,6.2,3.3,11.3v22.5
			c0,1.1,0.2,1.9,0.5,2.6c0.4,0.7,1,1.2,1.8,1.6c0.7,0.3,1.4,0.5,2,0.6c0.5,0.1,1,0.2,1.6,0.2L311.7,166z"/>
		<path d="M334.2,166h-20.1v-3c0.5,0,1-0.1,1.5-0.1c0.7-0.1,1.4-0.2,1.9-0.4c0.8-0.3,1.5-0.7,1.9-1.4s0.6-1.6,0.6-2.6v-27.3
			c0-1-0.2-1.8-0.7-2.6c-0.4-0.8-1-1.5-1.8-2c-0.6-0.4-1.4-0.7-2.5-0.9c-1.1-0.3-2.1-0.4-3-0.5v-3l15.6-1l0.6,0.6v36.1
			c0,1,0.2,1.9,0.6,2.6c0.4,0.7,1,1.2,1.9,1.5c0.7,0.3,1.3,0.5,1.9,0.7c0.4,0.1,0.9,0.2,1.4,0.3L334.2,166z M329.2,107.3
			c0,1.7-0.6,3.2-1.7,4.5s-2.5,1.9-4.2,1.9c-1.5,0-2.9-0.6-4-1.8c-1.1-1.2-1.7-2.6-1.7-4.2s0.6-3.1,1.7-4.3c1.1-1.2,2.4-1.8,4-1.8
			c1.7,0,3.1,0.6,4.2,1.7C328.7,104.4,329.2,105.8,329.2,107.3"/>
		<path d="M356.6,166h-20.3v-3c0.5,0,1-0.1,1.5-0.1c0.8-0.1,1.4-0.2,1.9-0.3c0.8-0.3,1.5-0.7,1.9-1.4s0.6-1.5,0.6-2.6v-51.4
			c0-1.1-0.2-2.1-0.7-3s-1.1-1.7-1.8-2.2c-0.5-0.4-1.5-0.7-3-1c-1.4-0.3-2.6-0.5-3.5-0.5v-2.9l16.7-1l0.6,0.7v60.6
			c0,1,0.2,1.9,0.6,2.6c0.4,0.7,1,1.2,1.9,1.6c0.7,0.3,1.3,0.5,2,0.7c0.5,0.1,1,0.2,1.5,0.2L356.6,166z"/>
		<path d="M354.3,180.5c0-1.5,0.4-2.7,1.2-3.7c0.8-0.9,1.8-1.4,3.1-1.4c1,0,1.8,0.2,2.5,0.5c0.7,0.4,1.3,0.8,1.8,1.4
			c0.4,0.4,0.9,1.1,1.4,1.8c0.5,0.8,0.9,1.4,1.2,1.9c1.5-0.8,3.3-2.9,5.4-6.3c2.1-3.4,3.6-6.4,4.5-9c-2.8-7.1-5.4-13.5-7.7-19
			c-2.3-5.6-4.7-11.4-7.2-17.4c-0.6-1.4-1.5-2.4-2.9-3.2s-2.7-1.3-4-1.5v-3h20.2v3.1c-0.9,0-2,0.2-3.2,0.6c-1.3,0.3-1.9,0.8-1.9,1.4
			c0.3,0.9,0.6,1.6,0.7,2c1.1,3,2.9,7.2,5.2,12.8c2.3,5.6,4.1,10,5.4,13.4c1.3-3.2,2.8-6.5,4.2-9.9c1.5-3.4,3.1-7.5,4.9-12.1
			c0.2-0.6,0.5-1.4,0.9-2.4s0.6-1.9,0.6-2.6c0-0.8-0.7-1.5-2-2.2c-1.4-0.7-2.7-1.1-3.9-1.2v-2.9h16.5v2.8c-0.9,0.2-2.1,0.7-3.5,1.5
			c-1.5,0.9-2.6,2.1-3.3,3.8c-3.6,8.3-6.7,15.8-9.5,22.6s-4.9,11.8-6.3,15c-1.9,4.2-3.6,7.5-5.1,9.8c-1.5,2.4-2.9,4.2-4.3,5.6
			c-1.4,1.3-2.6,2.1-3.8,2.5c-1.1,0.4-2.3,0.7-3.5,0.7c-2.3,0-4.2-0.6-5.5-1.7C354.9,183.2,354.3,181.9,354.3,180.5"/>
	</g>
</g>
</svg>
