<?xml version="1.0" encoding="utf-8"?>
<!-- Generator: Adobe Illustrator 19.0.0, SVG Export Plug-In . SVG Version: 6.00 Build 0)  -->
<svg version="1.1" id="Layer_1" xmlns="http://www.w3.org/2000/svg" xmlns:xlink="http://www.w3.org/1999/xlink" x="0px" y="0px"
	 viewBox="0 0 56.7 56.7" style="enable-background:new 0 0 56.7 56.7;" xml:space="preserve">
<style type="text/css">
	.st0{fill:#D2D5E1;}
	.st1{fill:#14B8EC;}
	.st2{fill:#FBAA19;}
	.st3{fill:none;}
	.st4{fill:#107C3F;}
	.st5{fill:#1699D1;}
	.st6{fill:#D28F2A;}
</style>
<g id="XMLID_1_">
	<path id="XMLID_64_" class="st0" d="M4.5,16.6c7.1,2,38.5,26,29.6,36.5C23.3,65.1-2.8,23.3,4.5,16.6z"/>
	<path id="XMLID_61_" class="st1" d="M27.1,18.4c-7.8-2.8-14.1-7-19.6-4.6c-4,1.7-7.1,9.1,0.3,13.8c4.5,2.8,13,4.1,20.7,2.5
		c8.8-1.8,16.8-8.3,19.9-11.1c7.9-7,6.1-19.4-3.9-17.4C40.7,2.4,33.4,8.8,27.1,18.4z"/>
	<path id="XMLID_18_" class="st2" d="M52.3,5.1c-14.5,4.7-36.9,49.5-22,50C39.1,55.4,58.4,12.6,52.3,5.1z"/>
	<g id="XMLID_70_">
		<path id="XMLID_71_" class="st3" d="M53.2,7.3c0.6,3.7-1,8.3-4.8,11.7c-2.8,2.5-9.4,7.9-17,10.3C25,42,22.3,54.8,30.2,55.1
			C38.5,55.3,55.6,18.6,53.2,7.3z"/>
	</g>
	<path id="XMLID_72_" class="st4" d="M53.2,7.3c-0.2-0.9-0.5-1.6-0.9-2.2C45.5,7.3,37,18.2,31.4,29.3c7.6-2.4,14.2-7.9,17-10.3
		C52.2,15.6,53.8,10.9,53.2,7.3z"/>
	<path id="XMLID_68_" class="st5" d="M24.2,30.7c-7.4-7.1-16.3-13.1-19.7-14c-0.1,0.1-0.2,0.2-0.3,0.3c-1.7,3-1.5,7.5,3.6,10.6
		C11.5,29.9,17.8,31.1,24.2,30.7z"/>
	<path id="XMLID_73_" class="st6" d="M28.7,35.3c-4.3,10.5-5.1,19.6,1.6,19.8c1.1,0,2.3-0.6,3.6-1.7c0.1-0.1,0.2-0.2,0.3-0.3
		C37.9,48.7,34.4,41.8,28.7,35.3z"/>
</g>
</svg>
