<?xml version="1.0" encoding="utf-8"?>
<!-- Generator: Adobe Illustrator 19.0.0, SVG Export Plug-In . SVG Version: 6.00 Build 0)  -->
<svg version="1.1" id="Layer_1" xmlns="http://www.w3.org/2000/svg" xmlns:xlink="http://www.w3.org/1999/xlink" x="0px" y="0px"
	 viewBox="0 0 280.6 161.6" style="enable-background:new 0 0 280.6 161.6;" xml:space="preserve">
<style type="text/css">
	.st0{fill:#FFFFFF;}
</style>
<g id="XMLID_1_">
	<path id="XMLID_264_" class="st0" d="M280.6,38.5c0,0.5-0.4,1-1,1h-43.2c-0.5,0-1-0.4-1-1V38c0-0.5,0.4-1,1-1h43.2c0.5,0,1,0.4,1,1
		V38.5z"/>
	<path id="XMLID_263_" class="st0" d="M45.2,38.5c0,0.5-0.4,1-1,1H1c-0.5,0-1-0.4-1-1V38c0-0.5,0.4-1,1-1h43.2c0.5,0,1,0.4,1,1V38.5
		z"/>
	<path id="XMLID_262_" class="st0" d="M280.6,159.9c0,0.5-0.4,1-1,1h-43.2c-0.5,0-1-0.4-1-1v-1.4c0-0.5,0.4-1,1-1h43.2
		c0.5,0,1,0.4,1,1V159.9z"/>
	<path id="XMLID_261_" class="st0" d="M208.3,14.3c0,0.5-0.4,1-1,1h-52.4c-0.5,0-1-0.4-1-1v-0.9c0-0.5,0.4-1,1-1h52.4
		c0.5,0,1,0.4,1,1V14.3z"/>
	<path id="XMLID_260_" class="st0" d="M249,26.6c0,0.5-0.4,1-1,1h-52.4c-0.5,0-1-0.4-1-1v-0.9c0-0.5,0.4-1,1-1h52.4c0.5,0,1,0.4,1,1
		V26.6z"/>
	<path id="XMLID_259_" class="st0" d="M208.3,135.4c0,0.5-0.4,1-1,1h-52.4c-0.5,0-1-0.4-1-1v-0.9c0-0.5,0.4-1,1-1h52.4
		c0.5,0,1,0.4,1,1V135.4z"/>
	<path id="XMLID_258_" class="st0" d="M249,147.5c0,0.5-0.4,1-1,1h-52.4c-0.5,0-1-0.4-1-1v-1c0-0.5,0.4-1,1-1h52.4c0.5,0,1,0.4,1,1
		V147.5z"/>
	<path id="XMLID_257_" class="st0" d="M167.5,1.9c0,0.4-0.4,0.8-0.8,0.8h-52.7c-0.4,0-0.8-0.4-0.8-0.8V1.5c0-0.4,0.4-0.8,0.8-0.8
		h52.7c0.4,0,0.8,0.4,0.8,0.8V1.9z"/>
	<path id="XMLID_256_" class="st0" d="M167.5,123.6c0,0.5-0.4,1-1,1h-52.4c-0.5,0-1-0.4-1-1v-1.4c0-0.5,0.4-1,1-1h52.4
		c0.5,0,1,0.4,1,1V123.6z"/>
	<path id="XMLID_255_" class="st0" d="M0,63.3c0,0.5,0.4,0.9,0.9,0.9h43.3c0.5,0,0.9-0.4,0.9-0.9v-1.8c0-0.5-0.4-0.9-0.9-0.9H1
		C0.4,60.6,0,61,0,61.5V63.3z"/>
	<path id="XMLID_254_" class="st0" d="M235.5,63.3c0,0.5,0.4,0.9,0.9,0.9h43.3c0.5,0,0.9-0.4,0.9-0.9v-1.8c0-0.5-0.4-0.9-0.9-0.9
		h-43.3c-0.5,0-0.9,0.4-0.9,0.9V63.3z"/>
	<path id="XMLID_253_" class="st0" d="M0,159.9c0,0.5,0.4,1,1,1h43.2c0.5,0,1-0.4,1-1v-1.4c0-0.5-0.4-1-1-1H1c-0.5,0-1,0.4-1,1
		V159.9z"/>
	<path id="XMLID_252_" class="st0" d="M72.4,14.3c0,0.5,0.4,1,1,1h52.4c0.5,0,1-0.4,1-1v-0.9c0-0.5-0.4-1-1-1H73.3c-0.5,0-1,0.4-1,1
		V14.3z"/>
	<path id="XMLID_251_" class="st0" d="M31.6,26.6c0,0.5,0.4,1,1,1H85c0.5,0,1-0.4,1-1v-0.9c0-0.5-0.4-1-1-1H32.6c-0.5,0-1,0.4-1,1
		V26.6z"/>
	<path id="XMLID_250_" class="st0" d="M72.4,135.4c0,0.5,0.4,1,1,1h52.4c0.5,0,1-0.4,1-1v-0.9c0-0.5-0.4-1-1-1H73.3
		c-0.5,0-1,0.4-1,1V135.4z"/>
	<path id="XMLID_249_" class="st0" d="M31.6,147.5c0,0.5,0.4,1,1,1H85c0.5,0,1-0.4,1-1v-1c0-0.5-0.4-1-1-1H32.6c-0.5,0-1,0.4-1,1
		V147.5z"/>
	<path id="XMLID_248_" class="st0" d="M167.5,27.8c0,1-0.8,1.8-1.8,1.8H115c-1,0-1.8-0.8-1.8-1.8v-3.2c0-1,0.8-1.8,1.8-1.8h50.7
		c1,0,1.8,0.8,1.8,1.8V27.8z"/>
	<path id="XMLID_247_" class="st0" d="M85.9,51.3c0,1-0.8,1.8-1.8,1.8H33.4c-1,0-1.8-0.8-1.8-1.8v-1.8c0-1,0.8-1.8,1.8-1.8h50.7
		c1,0,1.8,0.8,1.8,1.8V51.3z"/>
	<path id="XMLID_246_" class="st0" d="M167.5,53.1c0,1-0.8,1.8-1.8,1.8H115c-1,0-1.8-0.8-1.8-1.8v-5.5c0-1,0.8-1.8,1.8-1.8h50.7
		c1,0,1.8,0.8,1.8,1.8V53.1z"/>
	<path id="XMLID_245_" class="st0" d="M249,51.3c0,1-0.8,1.8-1.8,1.8h-50.7c-1,0-1.8-0.8-1.8-1.8v-1.8c0-1,0.8-1.8,1.8-1.8h50.7
		c1,0,1.8,0.8,1.8,1.8V51.3z"/>
	<path id="XMLID_244_" class="st0" d="M85.9,76.4c0,1-0.8,1.8-1.8,1.8H33.4c-1,0-1.8-0.8-1.8-1.8v-3.7c0-1,0.8-1.9,1.8-1.9h50.7
		c1,0,1.8,0.8,1.8,1.9V76.4z"/>
	<path id="XMLID_243_" class="st0" d="M167.5,76.4c0,1-0.8,1.8-1.8,1.8H115c-1,0-1.8-0.8-1.8-1.8v-3.7c0-1,0.8-1.9,1.8-1.9h50.7
		c1,0,1.8,0.8,1.8,1.9V76.4z"/>
	<path id="XMLID_242_" class="st0" d="M249,76.4c0,1-0.8,1.8-1.8,1.8h-50.7c-1,0-1.8-0.8-1.8-1.8v-3.7c0-1,0.8-1.9,1.8-1.9h50.7
		c1,0,1.8,0.8,1.8,1.9V76.4z"/>
	<path id="XMLID_241_" class="st0" d="M85.9,100.3c0,1-0.8,1.8-1.8,1.8H33.4c-1,0-1.8-0.8-1.8-1.8v-3.2c0-1,0.8-1.8,1.8-1.8h50.7
		c1,0,1.8,0.8,1.8,1.8V100.3z"/>
	<path id="XMLID_240_" class="st0" d="M167.5,99.6c0,1-0.8,1.8-1.8,1.8H115c-1,0-1.8-0.8-1.8-1.8v-1.8c0-1,0.8-1.8,1.8-1.8h50.7
		c1,0,1.8,0.8,1.8,1.8V99.6z"/>
	<path id="XMLID_239_" class="st0" d="M249,100.3c0,1-0.8,1.8-1.8,1.8h-50.7c-1,0-1.8-0.8-1.8-1.8v-3.2c0-1,0.8-1.8,1.8-1.8h50.7
		c1,0,1.8,0.8,1.8,1.8V100.3z"/>
	<path id="XMLID_238_" class="st0" d="M85.9,123.6c0,1-0.8,1.8-1.8,1.8H33.4c-1,0-1.8-0.8-1.8-1.8v-1.4c0-1,0.8-1.8,1.8-1.8h50.7
		c1,0,1.8,0.8,1.8,1.8V123.6z"/>
	<path id="XMLID_237_" class="st0" d="M249,123.6c0,1-0.8,1.8-1.8,1.8h-50.7c-1,0-1.8-0.8-1.8-1.8v-1.4c0-1,0.8-1.8,1.8-1.8h50.7
		c1,0,1.8,0.8,1.8,1.8V123.6z"/>
	<path id="XMLID_236_" class="st0" d="M126.7,40.2c0,1-0.8,1.8-1.8,1.8H74.2c-1,0-1.8-0.8-1.8-1.8v-4c0-1,0.8-1.8,1.8-1.8h50.7
		c1,0,1.8,0.8,1.8,1.8V40.2z"/>
	<path id="XMLID_235_" class="st0" d="M208.3,40.2c0,1-0.8,1.8-1.8,1.8h-50.7c-1,0-1.8-0.8-1.8-1.8v-4c0-1,0.8-1.8,1.8-1.8h50.7
		c1,0,1.8,0.8,1.8,1.8V40.2z"/>
	<path id="XMLID_234_" class="st0" d="M126.7,64.7c0,1-0.8,1.8-1.8,1.8H74.2c-1,0-1.8-0.8-1.8-1.8v-4.6c0-1,0.8-1.8,1.8-1.8h50.7
		c1,0,1.8,0.8,1.8,1.8V64.7z"/>
	<path id="XMLID_233_" class="st0" d="M208.3,64.7c0,1-0.8,1.8-1.8,1.8h-50.7c-1,0-1.8-0.8-1.8-1.8v-4.6c0-1,0.8-1.8,1.8-1.8h50.7
		c1,0,1.8,0.8,1.8,1.8V64.7z"/>
	<path id="XMLID_232_" class="st0" d="M45.2,86.8c0,1-0.8,1.8-1.8,1.8H1.9c-1,0-1.8-0.8-1.8-1.8v-0.5c0-1,0.8-1.8,1.8-1.8h41.5
		c1,0,1.8,0.8,1.8,1.8V86.8z"/>
	<path id="XMLID_231_" class="st0" d="M126.7,88.5c0,1-0.8,1.8-1.8,1.8H74.2c-1,0-1.8-0.8-1.8-1.8v-3.7c0-1,0.8-1.8,1.8-1.8h50.7
		c1,0,1.8,0.8,1.8,1.8V88.5z"/>
	<path id="XMLID_230_" class="st0" d="M280.6,86.8c0,1-0.8,1.8-1.8,1.8h-41.5c-1,0-1.8-0.8-1.8-1.8v-0.5c0-1,0.8-1.8,1.8-1.8h41.5
		c1,0,1.8,0.8,1.8,1.8V86.8z"/>
	<path id="XMLID_229_" class="st0" d="M208.3,88.5c0,1-0.8,1.8-1.8,1.8h-50.7c-1,0-1.8-0.8-1.8-1.8v-3.7c0-1,0.8-1.8,1.8-1.8h50.7
		c1,0,1.8,0.8,1.8,1.8V88.5z"/>
	<path id="XMLID_228_" class="st0" d="M45.2,111.5c0,1-0.8,1.8-1.8,1.8H1.9c-1,0-1.8-0.8-1.8-1.8v-1.4c0-1,0.8-1.8,1.8-1.8h41.5
		c1,0,1.8,0.8,1.8,1.8V111.5z"/>
	<path id="XMLID_227_" class="st0" d="M126.7,111.5c0,1-0.8,1.8-1.8,1.8H74.2c-1,0-1.8-0.8-1.8-1.8v-1.4c0-1,0.8-1.8,1.8-1.8h50.7
		c1,0,1.8,0.8,1.8,1.8V111.5z"/>
	<path id="XMLID_226_" class="st0" d="M280.6,111.5c0,1-0.8,1.8-1.8,1.8h-41.5c-1,0-1.8-0.8-1.8-1.8v-1.4c0-1,0.8-1.8,1.8-1.8h41.5
		c1,0,1.8,0.8,1.8,1.8V111.5z"/>
	<path id="XMLID_225_" class="st0" d="M208.3,111.5c0,1-0.8,1.8-1.8,1.8h-50.7c-1,0-1.8-0.8-1.8-1.8v-1.4c0-1,0.8-1.8,1.8-1.8h50.7
		c1,0,1.8,0.8,1.8,1.8V111.5z"/>
	<path id="XMLID_224_" class="st0" d="M45.2,135.7c0,1-0.8,1.8-1.8,1.8H1.9c-1,0-1.8-0.8-1.8-1.8v-1.4c0-1,0.8-1.8,1.8-1.8h41.5
		c1,0,1.8,0.8,1.8,1.8V135.7z"/>
	<path id="XMLID_223_" class="st0" d="M280.6,135.7c0,1-0.8,1.8-1.8,1.8h-41.5c-1,0-1.8-0.8-1.8-1.8v-1.4c0-1,0.8-1.8,1.8-1.8h41.5
		c1,0,1.8,0.8,1.8,1.8V135.7z"/>
</g>
</svg>
