<?xml version="1.0" encoding="utf-8"?>
<!-- Generator: Adobe Illustrator 21.0.0, SVG Export Plug-In . SVG Version: 6.00 Build 0)  -->
<svg version="1.1" id="Layer_1" xmlns="http://www.w3.org/2000/svg" xmlns:xlink="http://www.w3.org/1999/xlink" x="0px" y="0px"
	 viewBox="0 0 425 60" style="enable-background:new 0 0 425 60;" xml:space="preserve">
<style type="text/css">
	.st0{fill:#55565A;}
</style>
<g>
	<g>
		<path class="st0" d="M31.3,52.4c-3.5,1.8-7.4,2.6-11.4,2.6c-8.5,0-14.7-5.6-14.7-14.3s6.2-14.3,14.7-14.3c4.3,0,8.1,1,10.8,3.5
			l-4.2,4.6c-1.6-1.7-3.6-2.6-6.6-2.6c-5.1,0-8.4,3.7-8.4,8.7s3.3,8.7,8.4,8.7c2.6,0,4.5-0.7,5.6-1.3v-4.4h-4.8v-5.5h10.6V52.4z"/>
		<path class="st0" d="M40.7,27.1h6v21.7h11v5.5h-17V27.1z"/>
		<path class="st0" d="M78.1,26.4c8.5,0,14.7,5.6,14.7,14.3S86.6,55,78.1,55s-14.7-5.6-14.7-14.3S69.6,26.4,78.1,26.4z M78.1,49.5
			c5.1,0,8.4-3.7,8.4-8.7s-3.3-8.7-8.4-8.7s-8.4,3.7-8.4,8.7S73,49.5,78.1,49.5z"/>
		<path class="st0" d="M100.6,27.1h10.1c4.8,0,9.9,1,9.9,6.9c0,3-1.9,5.1-4.7,6v0.1c3.6,0.5,5.9,3.1,5.9,6.6c0,5.7-5.4,7.6-10.2,7.6
			h-11.1V27.1H100.6z M106.6,38h4.3c1.8,0,3.8-0.8,3.8-3c0-2.3-2.1-2.8-4-2.8h-4.1V38z M106.6,49.2h5.4c1.9,0,4-0.8,4-3.2
			c0-2.6-2.9-3-4.8-3h-4.5L106.6,49.2L106.6,49.2z"/>
		<path class="st0" d="M138.3,27.1h4.9L155,54.3h-6.8l-2.3-5.8h-10.5l-2.3,5.8h-6.6L138.3,27.1z M140.6,35l-3.3,8.4h6.6L140.6,35z"
			/>
		<path class="st0" d="M161.8,27.1h6v21.7h11.1v5.5h-17.1V27.1z"/>
		<path class="st0" d="M210.2,27.1h4.9l11.8,27.2h-6.8l-2.3-5.8h-10.5l-2.3,5.8h-6.6L210.2,27.1z M212.5,35l-3.3,8.4h6.6L212.5,35z"
			/>
		<path class="st0" d="M251.3,34.2c-1.2-1.4-2.9-2.2-5.1-2.2c-4.5,0-7.9,3.7-7.9,8.7s3.3,8.7,7.7,8.7c2.4,0,4.4-1.1,5.6-2.9l5,3.7
			c-2.3,3.2-6.1,4.7-9.8,4.7c-8.5,0-14.7-5.6-14.7-14.3s6.2-14.3,14.7-14.3c3,0,6.9,1,9.2,4L251.3,34.2z"/>
		<path class="st0" d="M272.6,27.1h4.9l11.8,27.2h-6.8l-2.3-5.8h-10.5l-2.3,5.8h-6.6L272.6,27.1z M274.9,35l-3.3,8.4h6.6L274.9,35z"
			/>
		<path class="st0" d="M295.9,27.1h9c8.7,0,16.1,3.7,16.1,13.7c0,8.8-7.2,13.5-15.3,13.5h-9.8L295.9,27.1L295.9,27.1z M301.9,48.8
			h3.1c5.6,0,9.7-2.1,9.7-8.3c0-5.3-4.3-7.8-9.3-7.8h-3.5L301.9,48.8L301.9,48.8z"/>
		<path class="st0" d="M329.1,27.1h18.5v5.5h-12.5v5.1h11.8v5.5h-11.8v5.5h13.2v5.5h-19.1V27.1H329.1z"/>
		<path class="st0" d="M356.9,27.1h9.1l6.3,17.7h0.1l6.3-17.7h9v27.2h-6V33.5h-0.1l-7.1,20.8h-4.6L363,33.5h-0.1v20.8h-6L356.9,27.1
			L356.9,27.1z"/>
		<path class="st0" d="M403.6,42.7l-10.2-15.6h7.4l5.8,10.2l6.1-10.2h7.1l-10.2,15.6v11.6h-6L403.6,42.7L403.6,42.7z"/>
	</g>
	<g>
		<g>
			<g>
				<path class="st0" d="M83.1,11.4c0,3.5-1.9,5.3-5.5,5.3c-3.5,0-5.5-1.9-5.5-5.3V5.3h4v5.9c0,1.6,0.5,2.4,1.5,2.4
					c1.1,0,1.6-0.7,1.6-2.5V5.3h4v6.1H83.1z"/>
				<polygon class="st0" points="26,8.1 26,16.4 22,16.4 22,8.1 18.6,8.1 18.6,5.3 29.3,5.3 29.3,8.1 				"/>
				<path class="st0" d="M36.1,7.8l-1,3.8h2L36.1,7.8z M38.7,16.4l-0.7-2h-3.8l-0.7,2h-4l4.1-11.2h5.1l4,11.2H38.7z"/>
				<path class="st0" d="M96.1,15.6l-1.2-2.9c-0.7,0.5-1.4,1-2.6,1c-1.6,0-2.6-1.3-2.6-2.9s0.9-3,2.6-3c1,0,1.9,0.5,2.7,1.1l1.2-2.8
					C94.9,5.4,93.5,5,91.7,5c-3.4,0-6,2.3-6,5.7c0,3.6,2.5,5.9,6.1,5.9C93.6,16.7,95,16.2,96.1,15.6z"/>
				<polygon class="st0" points="105.1,16.4 102.6,12.4 102.6,16.4 98.7,16.4 98.7,5.3 102.6,5.3 102.6,9.4 105,5.3 109.3,5.3 
					105.7,10.8 109.8,16.4 				"/>
				<path class="st0" d="M11.8,16.7c2.5,0,5.2-0.9,5.2-3.8c0-2.6-2.2-3.3-3.9-3.6c-1.3-0.3-1.9-0.4-1.9-0.9c0-0.7,0.9-0.7,1.3-0.7
					c1.2,0,2.2,0.5,3.2,1l1-2.6c-1.4-0.6-3-1.1-4.6-1.1C9.5,5,7.4,6.3,7.4,8.8c0,2.1,1.6,2.9,3.3,3.3c1.2,0.3,2,0.4,2,1
					s-0.6,0.8-1.2,0.8c-1.3,0-2.5-0.6-3.3-1.2l-1.3,2.5C8.5,16.1,10.2,16.7,11.8,16.7z"/>
				<path class="st0" d="M115.7,16.7c2.5,0,5.2-0.9,5.2-3.8c0-2.6-2.2-3.3-3.9-3.6c-1.3-0.3-1.9-0.4-1.9-0.9c0-0.7,0.9-0.7,1.3-0.7
					c1.2,0,2.2,0.5,3.2,1l1-2.6c-1.4-0.6-3-1.1-4.6-1.1c-2.6,0-4.7,1.3-4.7,3.8c0,2.1,1.6,2.9,3.3,3.3c1.2,0.3,2,0.4,2,1
					s-0.6,0.8-1.2,0.8c-1.3,0-2.5-0.6-3.3-1.2l-1.3,2.5C112.4,16.1,114.1,16.7,115.7,16.7z"/>
				<g>
					<path class="st0" d="M53.4,12.3c1.4-0.5,2.1-1.9,2.1-3.2c0-2.6-1.8-3.8-4.4-3.8h-6v11.2H49v-3.3h1l2,3.3h4.2L53.4,12.3z
						 M51.5,9.1c0,0.7-0.5,1.2-1.2,1.2h-1.4V8h1.4C51.1,7.9,51.5,8.3,51.5,9.1L51.5,9.1z"/>
				</g>
				<g>
					<path class="st0" d="M67,10.7c1.5-0.3,2.2-1.1,2.2-2.5c0-1.9-1.4-3-3.9-3h-6.4v11.2H65c3,0,4.4-1,4.4-3.2
						C69.4,11.8,68.4,10.9,67,10.7z M62.6,7.7H64c0.7,0,1.2,0.3,1.2,1l0,0c0,0.6-0.5,1-1.2,1h-1.4V7.7z M65.3,13c0,0.7-0.5,1-1.3,1
						h-1.4v-2.1H64C64.8,11.9,65.3,12.3,65.3,13L65.3,13z"/>
				</g>
			</g>
		</g>
		<g>
			<g>
				<path class="st0" d="M123.3,7.4H123V5.6h-0.7V5.3h1.6v0.3h-0.7L123.3,7.4L123.3,7.4z"/>
				<path class="st0" d="M125.3,6.9L125.3,6.9l0.6-1.6h0.5v2.1h-0.3V5.7l0,0l-0.7,1.7h-0.2l-0.7-1.7l0,0v1.7h-0.3V5.3h0.5L125.3,6.9
					z"/>
			</g>
		</g>
	</g>
</g>
</svg>
