<?xml version="1.0" encoding="utf-8"?>
<!-- Generator: Adobe Illustrator 21.0.0, SVG Export Plug-In . SVG Version: 6.00 Build 0)  -->
<svg version="1.1" id="Layer_1" xmlns="http://www.w3.org/2000/svg" xmlns:xlink="http://www.w3.org/1999/xlink" x="0px" y="0px"
	 viewBox="0 0 290 76" style="enable-background:new 0 0 290 76;" xml:space="preserve">
<style type="text/css">
	.st0{fill:#FFFFFF;}
</style>
<g id="XMLID_37_">
	<g id="XMLID_38_">
		<path id="XMLID_41_" class="st0" d="M58.2,24.7c-1.3,0-2.2-1-2.2-2.2c0-1.3,1-2.2,2.2-2.2h7.2c1.3,0,2.2,1,2.2,2.2v3.7
			c5-4.6,9.1-6.7,13.9-6.7c6.1,0,8.9,3.3,9.8,7c4.9-4.9,9.7-7,14.7-7c8.9,0,10.2,6.6,10.2,10.6v22.4h3.9c1.3,0,2.2,1,2.2,2.2
			c0,1.3-1,2.2-2.2,2.2h-14c-1.3,0-2.2-1-2.2-2.2c0-1.3,1-2.2,2.2-2.2h4.2v-22c0-3.6-1.9-5.9-5.8-5.9c-4,0-8.2,2.4-12.5,6.3v21.5
			h3.9c1.3,0,2.2,1,2.2,2.2c0,1.3-1,2.2-2.2,2.2h-14c-1.3,0-2.2-1-2.2-2.2c0-1.3,1-2.2,2.2-2.2h4.2v-22c0-3.6-1.9-5.9-5.8-5.9
			c-4,0-8.2,2.4-12.4,6.3v21.5h4.2c1.3,0,2.2,1,2.2,2.2c0,1.3-1,2.2-2.2,2.2h-34c-1.3,0-2.2-1-2.2-2.2c0-1.3,1-2.2,2.2-2.2h5
			l-4.7-16.1H21l-4.5,16.1h5c1.3,0,2.2,1,2.2,2.2c0,1.3-1,2.2-2.2,2.2h-16c-1.2,0.3-2.2-0.7-2.2-2s1-2.2,2.2-2.2h4.8l13.1-43H17
			c-1.3,0-2.2-1-2.2-2.2c0-1.3,1-2.2,2.2-2.2h16.1c1.5,0,2.5,0.9,2.9,2.2L50,52.6h11.9V24.7H58.2z M31,9.5h-2.2l-6.2,22.1H37L31,9.5
			z M136.9,26.2c2.5-4.1,6.9-6.7,12.5-6.7c9.6,0,16.2,7.3,16.2,18.9c0,11.4-6.2,19.3-16.5,19.3c-5,0-9.4-1.9-12.2-6.3v17.4h5.3
			c1.3,0,2.2,1,2.2,2.2c0,1.3-1,2.2-2.2,2.2h-15.5c-1.3,0-2.2-1-2.2-2.2c0-1.3,1-2.2,2.2-2.2h4.2V24.7h-3.6c-1.3,0-2.2-1-2.2-2.2
			c0-1.3,1-2.2,2.2-2.2h7.2c1.3,0,2.2,1,2.2,2.2v3.7H136.9z M159.6,38.6c0-9.6-5.1-14.2-11.4-14.2c-6.2,0-11.4,4.5-11.4,14.2
			c0,9.6,5.1,14.2,11.4,14.2C154.6,52.8,159.6,48.3,159.6,38.6z M182.9,52.5h4.9c1.3,0,2.2,1,2.2,2.2c0,1.3-1,2.2-2.2,2.2H172
			c-1.3,0-2.2-1-2.2-2.2c0-1.3,1-2.2,2.2-2.2h4.9V8H172c-1.3,0-2.2-1-2.2-2.2c0-1.3,1-2.2,2.2-2.2h8.7c1.3,0,2.2,1,2.2,2.2
			L182.9,52.5L182.9,52.5z M206.9,52.5h4.9c1.3,0,2.2,1,2.2,2.2c0,1.3-1,2.2-2.2,2.2H196c-1.3,0-2.2-1-2.2-2.2c0-1.3,1-2.2,2.2-2.2
			h4.9V24.7H196c-1.3,0-2.2-1-2.2-2.2c0-1.3,1-2.2,2.2-2.2h8.7c1.3,0,2.2,1,2.2,2.2L206.9,52.5L206.9,52.5z M203.6,4.3
			c2.8,0,5,2.2,5,5c0,2.7-2.2,5-5,5c-2.7,0-5-2.2-5-5S200.9,4.3,203.6,4.3z M279,20.2c1.3,0,2.2,1,2.2,2.2c0,1.3-1,2.2-2.2,2.2h-2.7
			l-13.5,32.2c-3.9,9.3-7,16.6-17.4,16.6c-2,0-3.9-0.3-5.1-0.7c-3.3-1.1-2-5.6,0.8-5c1.3,0.2,2.8,0.6,4.1,0.6c3.2,0,5.4-1.1,7-3
			s2.9-4.5,3.7-6.4l0.7-1.8l-13-32.6h-12.6v27.8h5.6c1.3,0,2.2,1,2.2,2.2c0,1.3-1,2.2-2.2,2.2h-16.5c-1.3,0-2.2-1-2.2-2.2
			c0-1.3,1-2.2,2.2-2.2h4.9V24.7h-4.9c-1.3,0-2.2-1-2.2-2.2c0-1.3,1-2.2,2.2-2.2h4.9V15c0-8.1,5.3-12.8,12.9-12.8
			c3.2,0,6.1,0.7,7.9,1.3c3.4,1.2,2,6.2-1.8,4.9c-1.6-0.5-3.6-1.1-5.8-1.1c-5.3,0-7.3,3.5-7.3,8.2v4.7h22.8c1.3,0,2.2,1,2.2,2.2
			c0,1.3-1,2.2-2.2,2.2h-3.9l10.1,26l10.4-26H266c-1.3,0-2.2-1-2.2-2.2c0-1.3,1-2.2,2.2-2.2H279z"/>
		<path id="XMLID_39_" class="st0" d="M281,46.3c3.2,0,5.7,2.5,5.7,5.7s-2.5,5.7-5.7,5.7s-5.8-2.5-5.8-5.7S277.9,46.3,281,46.3z"/>
	</g>
</g>
</svg>
