<?xml version="1.0" encoding="utf-8"?>
<!-- Generator: Adobe Illustrator 19.0.0, SVG Export Plug-In . SVG Version: 6.00 Build 0)  -->
<svg version="1.1" id="Layer_1" xmlns="http://www.w3.org/2000/svg" xmlns:xlink="http://www.w3.org/1999/xlink" x="0px" y="0px"
	 viewBox="0 0 368.5 141.7" style="enable-background:new 0 0 368.5 141.7;" xml:space="preserve">
<style type="text/css">
	.st0{fill:#FFFFFF;}
</style>
<g>
	<g>
		<path class="st0" d="M366.8,77.7c0,34.1-81.7,61.8-182.6,61.8C83.4,139.5,1.7,111.9,1.7,77.7c0-34.1,81.7-61.8,182.6-61.8
			C285.1,15.9,366.8,43.6,366.8,77.7z"/>
		<g>
			<path d="M117.7,111.7c0-3.2-1.8-4.1-5.9-4.1c-3,0-5.8,0.6-6.4,3.4c-0.4,2.1,0.8,2.5,6.6,3.3c5.9,0.8,8.2,1.9,7.3,5.7
				c-0.8,3.9-4.5,6.3-10.7,6.3c-6.3,0-9.6-2.1-8.6-6.8h2.6c-0.2,3.3,1.4,4.4,6.5,4.4c3.9,0,6.7-0.8,7.4-3.8c0.4-2-0.8-2.8-6.8-3.5
				c-6-0.6-7.9-2.1-7.1-5.6c0.7-3.4,4-5.9,9.8-5.9c6.4,0,8.6,2.3,8,6.5H117.7z"/>
			<path d="M139.8,105.3c7.6,0,10.2,5,9,10.5c-1.2,5.5-5.8,10.5-13.4,10.5c-7.6,0-10.2-5-9-10.5
				C127.5,110.3,132.2,105.3,139.8,105.3z M135.8,123.9c5.3,0,9.1-3.4,10.1-8.1c1-4.8-1.4-8.1-6.7-8.1c-5.3,0-9.1,3.4-10.1,8.1
				C128.2,120.5,130.5,123.9,135.8,123.9z"/>
			<path d="M159.9,98.3h2.8l-5.8,27.4h-2.8L159.9,98.3z"/>
			<path d="M182.6,121.8L182.6,121.8c-1.4,2.1-4.8,4.5-9.2,4.5c-6.6,0-7.8-3.4-6.8-8.1l2.6-12.2h2.8l-2.7,12.7
				c-0.8,3.9,1.3,5.3,4.8,5.3c5.5,0,8.6-2.8,9.6-7.3l2.3-10.7h2.8l-4.2,19.8h-2.8L182.6,121.8z"/>
			<path d="M200.1,99.6h2.8l-1.3,6.2h5.6l-0.5,2.1h-5.6l-2.8,13.1c-0.4,1.7,0,2.5,2.3,2.5c1.4,0,2.3-0.1,2.8-0.2l-0.5,2.4
				c-1.1,0.2-2.2,0.2-3.1,0.2c-4.4,0-5-1.7-4.3-4.9l2.8-13h-4.3l0.5-2.1h4.3L200.1,99.6z"/>
			<path d="M214,105.9h2.8l-4.2,19.8h-2.8L214,105.9z M215.6,98.3h2.8l-0.9,4.2h-2.8L215.6,98.3z"/>
			<path d="M235.5,105.3c7.6,0,10.2,5,9,10.5c-1.2,5.5-5.8,10.5-13.4,10.5c-7.6,0-10.2-5-9-10.5
				C223.3,110.3,227.9,105.3,235.5,105.3z M231.6,123.9c5.3,0,9.1-3.4,10.1-8.1c1-4.8-1.4-8.1-6.7-8.1c-5.3,0-9.1,3.4-10.1,8.1
				C223.9,120.5,226.3,123.9,231.6,123.9z"/>
			<path d="M269.4,112.9c0.8-3.9-1.3-5.3-4.8-5.3c-5.5,0-8.6,2.8-9.6,7.3l-2.3,10.7h-2.8l4.2-19.8h2.8l-0.8,3.9h0.1
				c1.3-2.1,4.8-4.5,9.1-4.5c6.6,0,7.8,3.4,6.8,8.1l-2.6,12.2h-2.8L269.4,112.9z"/>
			<path d="M295.3,111.7c0-3.2-1.8-4.1-5.9-4.1c-3,0-5.8,0.6-6.4,3.4c-0.4,2.1,0.8,2.5,6.6,3.3c5.9,0.8,8.2,1.9,7.3,5.7
				c-0.8,3.9-4.5,6.3-10.7,6.3c-6.3,0-9.6-2.1-8.6-6.8h2.6c-0.2,3.3,1.4,4.4,6.5,4.4c3.9,0,6.7-0.8,7.4-3.8c0.4-2-0.8-2.8-6.8-3.5
				c-6-0.6-7.9-2.1-7.1-5.6c0.7-3.4,4-5.9,9.8-5.9c6.4,0,8.6,2.3,8,6.5H295.3z"/>
		</g>
		<g>
			<path d="M111.4,69.3c1.8-4.3,4.1-6.9,8-8.6c3.8-1.6,9.1-2.2,16.7-2.2c14.5,0,19.6,3.3,17.6,12.6l-3.2,15.1
				c-0.5,2.4-0.2,3.8,0.3,4.8h-14.6c-0.1-0.9,0-1.9,0.1-3.1c-3.8,3-9,4.3-16.5,4.3c-9.6,0-15.1-2.6-13.4-10.6
				c1.2-5.7,6-9.4,16.7-9.8l12.2-0.6c2.9-0.2,4-0.9,4.4-2.6c0.4-2.1-1.9-3-6-3c-3.3,0-6.6,0.5-7.9,3.5H111.4z M138.2,76.8
				c-2.5,0.5-6.6,0.9-11.8,1.3c-2.7,0.2-4.1,1.1-4.5,3.1c-0.5,2.2,1,3.5,4.6,3.5c4.8,0,10.4-1.2,11.5-6.6L138.2,76.8z"/>
			<path d="M159.1,59.8h13.8l-1.3,6h0.1c4.7-4.8,9.8-6.8,14.7-6.8c1.5,0,3.1,0.1,4.6,0.3l-2.7,12.8c-2.4-0.6-4.4-1.1-6.9-1.1
				c-5.1,0-10.8,1.6-12.3,8.4L166.7,91h-14.3L159.1,59.8z"/>
			<path d="M216.6,87.7h-0.1c-3.2,3-7.5,4.6-13.8,4.6c-9.2,0-16.7-5.1-14.2-16.7c2.5-11.6,12-16.7,21.3-16.7c5.8,0,9.6,1.4,11.4,4.4
				h0.1l3.1-14.5h14.3l-9,42.2h-13.8L216.6,87.7z M212.4,68.6c-5.1,0-8.4,3.1-9.3,7.1c-0.9,4.1,0.8,7.1,6.3,7.1
				c5.5,0,8.4-2.6,9.3-7.1C219.7,71.2,217.9,68.6,212.4,68.6z"/>
			<path d="M235,92.5c1.1,0.1,1.8,0.2,3.5,0.2c3,0,4.2-0.1,5.8-2.4l1.2-1.7l-8.4-28.7H252l3.5,16l10.3-16h14.9l-25.2,36.3
				c-3.2,4.4-5.3,6.1-12.9,6.1c-3.2,0-7-0.3-9.6-0.5L235,92.5z"/>
			<path d="M309.8,59.8l2.1-10h14.3l-2.1,10h7.7l-1.9,8.9h-7.7l-2.3,11c-0.6,2.9,0.5,3.1,3.6,3.1c1.1,0,2.5-0.1,3.8-0.1l-1.8,8.3
				c-2.6,0.3-6.1,0.7-10.5,0.7c-8.7,0-11.6-1.7-9.8-10.2l2.7-12.8L309.8,59.8z"/>
		</g>
		<g>
			<polygon points="304.5,52.6 302.2,48.9 295.4,48.9 293.8,56.8 306.5,56.8 			"/>
			<polygon points="286.5,91 300.7,91 307.4,59.8 293.1,59.8 			"/>
		</g>
		<path d="M313,82.9C313,82.9,313,82.9,313,82.9c0-0.1,0-0.1,0-0.2C313,82.8,313,82.9,313,82.9z"/>
		<path class="st0" d="M201.3,4.2c-62.5,0-93.9,34.2-114,79c-2.7,6.1-3.4,12.2-2.4,17.9h12.6c1.4-4.4,3.1-9.4,4.8-14.3
			C117.5,43.2,155.5,7.8,212,7.8c55.7,0,100.9,34.2,102.4,76.9C314.2,40.2,263.7,4.2,201.3,4.2z"/>
		<path d="M200,2.2c-60.4,0-91.8,32-112,74.6h0l0,0.1c-0.3,0.5-0.5,1.1-0.8,1.7L86,81.1h-0.1l-0.8-31.5H68.8L54.5,81.1h-0.1l0-31.5
			H34.7l4.1,51.5h20l13.1-28.6h0.1l0.9,28.6h23.1l6.8-20.1c0,0,0,0,0,0c16.2-42.4,52.6-75.3,107.7-75.3
			c55.2,0,100.1,33.6,102.3,75.7h0C312,37.6,261.8,2.2,200,2.2z"/>
	</g>
	<g>
		<path d="M337.1,49.7v0.9h-2v5.8h-1v-5.8h-2v-0.9H337.1z M343.6,56.4l-0.3-4c0-0.5,0-1.2,0-1.8h-0.1c-0.2,0.6-0.4,1.3-0.6,1.9
			l-1.4,3.8h-0.8l-1.4-3.9c-0.2-0.5-0.3-1.2-0.5-1.8h0c0,0.6,0,1.2,0,1.8l-0.3,4h-1l0.5-6.7h1.3l1.3,3.6c0.2,0.5,0.3,1.1,0.5,1.7h0
			c0.1-0.6,0.3-1.2,0.5-1.7l1.3-3.6h1.3l0.5,6.7H343.6z"/>
	</g>
</g>
</svg>
