<?xml version="1.0" encoding="utf-8"?>
<!-- Generator: Adobe Illustrator 19.0.0, SVG Export Plug-In . SVG Version: 6.00 Build 0)  -->
<svg version="1.1" id="Layer_1" xmlns="http://www.w3.org/2000/svg" xmlns:xlink="http://www.w3.org/1999/xlink" x="0px" y="0px"
	 viewBox="0 0 56.7 56.7" style="enable-background:new 0 0 56.7 56.7;" xml:space="preserve">
<style type="text/css">
	.st0{fill:#424345;}
</style>
<path class="st0" d="M53.3,7.9C53.2,7,52.9,6,52.5,5.2c-1.5-3.1-4.7-4.4-8.7-3.5c-4.2,0.9-11.3,7.6-17,16c-1.6-0.6-3.1-1.2-4.5-1.9
	c-5.4-2.3-10.1-4.3-14.5-2.4c-1.5,0.6-2.7,1.9-3.5,3.4c-1.3,1.6-1.5,4.3-0.5,8.1C6.4,35.1,18,52.7,27.4,55c0.7,0.2,1.4,0.3,2,0.3
	c1.8,0,3.5-0.7,4.8-2c4.7-3.9,9.4-12.9,11-16.2c3.1-6.3,5.7-13.1,7-18.6C53.5,13.8,53.8,10.3,53.3,7.9z M50.5,5.3
	C43.8,8,36,18.2,30.7,28.6c-0.8,0.2-1.6,0.5-2.4,0.6c-1.2,0.2-2.4,0.4-3.7,0.5C18,23.4,10.3,18.2,6.5,16.5c0.6-0.7,1.3-1.2,2-1.5
	c1-0.4,2-0.6,3.1-0.6c3,0,6.3,1.4,10,3c1.7,0.7,3.4,1.5,5.2,2.1l0.6,0.2l0.4-0.6C34,9.8,40.9,4,44.1,3.3C47,2.7,49.3,3.4,50.5,5.3z
	 M47.2,18.7c-2.9,2.6-8.1,6.7-14.1,9.1c5.1-9.5,12.2-18.6,18.1-20.9c0.2,0.3,0.3,0.7,0.4,1.2C52.1,11.2,50.9,15.4,47.2,18.7z
	 M29.7,30.6c-0.5,1-0.9,2-1.3,2.9c-0.7-0.8-1.4-1.5-2.2-2.3c0.8-0.1,1.6-0.2,2.4-0.4C29,30.8,29.4,30.7,29.7,30.6z M5,20.3
	C5,19.4,5.3,18.7,5.6,18c3.2,1.2,10.3,6,16.7,11.8c-5.1,0.1-10.2-1-13.3-3C5.4,24.6,4.8,22,5,20.3z M30.3,53.4
	C30.2,53.4,30.2,53.4,30.3,53.4c-2.3-0.1-3.5-1.3-3.9-3.8c-0.4-3.1,0.6-7.8,2.6-12.9c2.5,3,4.4,6,5.3,8.7c0.8,2.6,0.5,4.7-0.8,6.3
	c-0.1,0.1-0.2,0.2-0.4,0.4C31.9,53,31,53.4,30.3,53.4z M8,28.3c3.3,2.1,8.4,3.3,13.7,3.3c0.7,0,1.5,0,2.3-0.1
	c1.3,1.2,2.5,2.5,3.7,3.8c-2.3,5.7-3.5,11-3,14.5c0.1,1.1,0.4,2,0.9,2.7c-3.4-1.7-7.3-5.4-11.1-10.5c-3.6-4.9-6.7-10.5-8.3-15.2
	C6.7,27.4,7.3,27.8,8,28.3z M36.3,48.7c0.1-1.1-0.1-2.4-0.5-3.7c-1-3.2-3.3-6.6-6.2-10c0.7-1.6,1.4-3.3,2.3-5
	c7-2.3,13.1-7.1,16.4-10c1-0.9,1.9-1.9,2.6-3c-1.2,5.5-3.7,12.4-7.2,19.4C41.3,41.4,38.7,45.7,36.3,48.7z"/>
</svg>
