<?xml version="1.0" encoding="utf-8"?>
<!-- Generator: Adobe Illustrator 21.0.0, SVG Export Plug-In . SVG Version: 6.00 Build 0)  -->
<svg version="1.1"
	 id="svg2" xmlns:cc="http://creativecommons.org/ns#" xmlns:dc="http://purl.org/dc/elements/1.1/" xmlns:rdf="http://www.w3.org/1999/02/22-rdf-syntax-ns#" xmlns:svg="http://www.w3.org/2000/svg"
	 xmlns="http://www.w3.org/2000/svg" xmlns:xlink="http://www.w3.org/1999/xlink" x="0px" y="0px" viewBox="0 0 570 158"
	 style="enable-background:new 0 0 570 158;" xml:space="preserve">
<style type="text/css">
	.st0{fill:#FFFFFF;}
</style>
<g id="layer1" transform="translate(-72.21875,-91.625)">
	<g id="flowRoot3755" transform="matrix(9.5931332,0,0,9.8022588,-1256.5719,-2727.1871)">
		<path id="path3007" class="st0" d="M147.1,293.7v-5.9h3.5v15.2h-3.5v-1.6c-0.5,0.6-1,1.1-1.6,1.4c-0.6,0.3-1.3,0.4-2,0.4
			c-1.3,0-2.5-0.5-3.3-1.6c-0.9-1.1-1.3-2.5-1.3-4.1c0-1.7,0.4-3.1,1.3-4.1c0.9-1.1,2-1.6,3.3-1.6c0.8,0,1.4,0.2,2,0.5
			C146.1,292.6,146.7,293.1,147.1,293.7 M144.8,300.8c0.7,0,1.3-0.3,1.7-0.8c0.4-0.5,0.6-1.3,0.6-2.4c0-1-0.2-1.8-0.6-2.4
			c-0.4-0.5-1-0.8-1.7-0.8c-0.7,0-1.3,0.3-1.7,0.8c-0.4,0.5-0.6,1.3-0.6,2.4s0.2,1.8,0.6,2.4C143.5,300.6,144.1,300.8,144.8,300.8"
			/>
		<path id="path3009" class="st0" d="M165,296.4v6.7h-3.5V302v-4c0-1,0-1.6-0.1-2c0-0.4-0.1-0.6-0.2-0.8c-0.1-0.2-0.3-0.4-0.6-0.5
			c-0.2-0.1-0.5-0.2-0.8-0.2c-0.7,0-1.3,0.3-1.7,0.8c-0.4,0.6-0.6,1.3-0.6,2.3v5.4H154v-15.2h3.5v5.9c0.5-0.6,1.1-1.1,1.7-1.4
			c0.6-0.3,1.2-0.5,2-0.5c1.3,0,2.2,0.4,2.9,1.2C164.7,293.8,165,294.9,165,296.4"/>
		<path id="path3011" class="st0" d="M168.3,292.1h3.5v10.9h-3.5V292.1 M168.3,287.9h3.5v2.9h-3.5V287.9"/>
		<path id="path3013" class="st0" d="M183.7,292.5v2.7c-0.7-0.3-1.5-0.5-2.2-0.7c-0.7-0.2-1.4-0.2-2-0.2c-0.7,0-1.2,0.1-1.5,0.3
			c-0.3,0.2-0.5,0.4-0.5,0.8c0,0.3,0.1,0.5,0.4,0.6c0.2,0.1,0.7,0.3,1.3,0.3l0.6,0.1c1.8,0.2,3,0.6,3.6,1.1c0.6,0.5,0.9,1.3,0.9,2.5
			c0,1.2-0.4,2-1.3,2.6c-0.9,0.6-2.1,0.9-3.8,0.9c-0.7,0-1.5-0.1-2.2-0.2c-0.8-0.1-1.6-0.3-2.4-0.5V300c0.7,0.3,1.4,0.6,2.1,0.8
			c0.7,0.2,1.5,0.3,2.2,0.3c0.7,0,1.2-0.1,1.5-0.3c0.3-0.2,0.5-0.5,0.5-0.8c0-0.3-0.1-0.5-0.4-0.7c-0.2-0.2-0.7-0.3-1.4-0.4
			l-0.6-0.1c-1.6-0.2-2.6-0.6-3.3-1.1c-0.6-0.5-0.9-1.3-0.9-2.4c0-1.2,0.4-2,1.2-2.6c0.8-0.6,2-0.8,3.7-0.8c0.6,0,1.3,0,2,0.1
			C182.1,292.1,182.9,292.3,183.7,292.5"/>
	</g>
</g>
<g id="g3826" transform="translate(-72.21875,-91.625)">
	<g id="flowRoot3828" transform="matrix(9.5931332,0,0,9.8022588,-802.5719,-2727.1871)">
		<path id="path3016" class="st0" d="M143.8,300.3h6.4v2.8h-10.6v-2.8l5.3-4.7c0.5-0.4,0.8-0.8,1.1-1.3c0.2-0.4,0.3-0.8,0.3-1.3
			c0-0.7-0.2-1.2-0.7-1.7c-0.5-0.4-1.1-0.6-1.8-0.6c-0.6,0-1.2,0.1-1.9,0.4c-0.7,0.2-1.4,0.6-2.2,1.1v-3.2c0.8-0.3,1.7-0.5,2.5-0.6
			c0.8-0.1,1.6-0.2,2.4-0.2c1.7,0,3.1,0.4,4.1,1.2c1,0.8,1.5,1.8,1.5,3.2c0,0.8-0.2,1.5-0.6,2.2c-0.4,0.7-1.3,1.6-2.6,2.8
			L143.8,300.3"/>
	</g>
</g>
</svg>
