<?xml version="1.0" encoding="utf-8"?>
<!-- Generator: Adobe Illustrator 19.0.0, SVG Export Plug-In . SVG Version: 6.00 Build 0)  -->
<svg version="1.1" id="Layer_1" xmlns="http://www.w3.org/2000/svg" xmlns:xlink="http://www.w3.org/1999/xlink" x="0px" y="0px"
	 viewBox="75 -20.7 283.5 90.7" style="enable-background:new 75 -20.7 283.5 90.7;" xml:space="preserve">
<style type="text/css">
	.st0{fill:#E52544;}
</style>
<g>
	<g>
		<path class="st0" d="M155.7,24c-0.5-0.3-1.1-0.6-1.9-0.6c-0.8-0.2-1.5-0.2-2.5-0.2h-3.7l-1.7,9.3h3.9v-0.2c2.3,0,4.2-0.3,5.6-1.1
			s2-2,2-3.9c0-0.8-0.2-1.5-0.5-2C156.6,24.7,156.1,24.4,155.7,24z"/>
		<path class="st0" d="M183.3,2.5H88.2L76.4,69.1h95.1l6.2-35.4h-7.4l9.3-10L183.3,2.5z M128.2,39.9c-0.5,2.3-1.1,4.3-2,6.2
			c-0.9,1.9-2,3.4-3.6,4.6c-1.4,1.2-3.2,2.3-5.3,2.9s-4.3,1.1-7,1.1c-2.3,0-4.3-0.3-6.2-0.8c-1.9-0.5-3.4-1.4-4.8-2.3
			c-1.2-1.1-2.3-2.3-2.9-3.7c-0.8-1.5-1.1-3.1-1.1-4.9c0-0.5,0-1.1,0.2-1.5c0-0.6,0.2-1.1,0.2-1.7l4.2-23.9h9l-4,23
			c0,0.3-0.2,0.8-0.2,1.1c0,0.5,0,0.8,0,1.1c0,0.8,0.2,1.5,0.3,2.3c0.2,0.8,0.6,1.4,1.1,1.9c0.5,0.6,1.2,0.9,2,1.4
			c0.8,0.3,1.9,0.5,2.9,0.5c1.5,0,2.8-0.3,3.7-0.8c0.9-0.5,1.9-1.1,2.5-1.9c0.6-0.8,1.1-1.7,1.4-2.6c0.3-0.9,0.6-1.9,0.8-2.9
			l4.1-23.2h8.8L128.2,39.9z M165.2,32.3c-0.8,1.7-1.9,2.9-3.4,4s-3.2,1.9-5.3,2.3c-2,0.5-4.3,0.8-7,0.8h-4.9L142,53.9h-8.8l6.6-38
			h12.7c4.5,0,7.9,0.9,10.3,2.8c2.3,1.9,3.6,4.5,3.6,7.7C166.5,28.8,166,30.6,165.2,32.3z"/>
	</g>
	<g>
		<path class="st0" d="M194-19.7l-7.4,42.6l5.4,10.8h-7.4L182.3,47h163.1l11.7-66.7H194z M215.6,7.3c0.8,0.6,2,1.2,3.6,1.7
			c1.7,0.6,3.1,1.2,4.5,1.9c1.2,0.8,2.3,1.5,3.2,2.3s1.5,1.9,2,3.1c0.5,1.1,0.8,2.5,0.8,3.9c0,2.3-0.5,4.2-1.4,5.9
			c-0.9,1.5-2.2,2.9-3.7,4s-3.2,1.7-5.1,2.2c-1.9,0.5-3.7,0.8-5.6,0.8c-1.4,0-2.8-0.2-4-0.3c-1.4-0.3-2.6-0.6-3.9-1.1
			c-1.2-0.5-2.5-1.1-3.6-1.9s-2-1.5-2.8-2.6l6.6-5.4c0.8,1.1,1.9,2,3.4,2.8c1.4,0.8,2.9,1.1,4.5,1.1c0.8,0,1.5-0.2,2.3-0.3
			c0.8-0.2,1.4-0.5,2-0.8s1.1-0.9,1.4-1.4c0.3-0.6,0.5-1.2,0.5-2.2c0-1.4-0.5-2.3-1.5-3.1c-1.1-0.8-2.5-1.4-4.3-2
			c-1.2-0.5-2.5-0.9-3.6-1.4c-1.1-0.5-2-1.2-2.8-2c-0.8-0.8-1.4-1.7-2-2.8c-0.5-1.1-0.8-2.5-0.8-4c0-2,0.5-3.7,1.2-5.3
			c0.8-1.5,1.9-2.9,3.2-4c1.4-1.1,3.1-2,4.9-2.5c1.9-0.6,3.9-0.9,6-0.9c1.1,0,2.2,0.2,3.4,0.3c1.1,0.2,2.3,0.5,3.2,0.9
			c1.1,0.5,2,0.9,2.9,1.5s1.7,1.2,2.3,2.2L226.1,3c-0.8-0.9-1.5-1.7-2.6-2.2S221.2,0,219.9,0c-0.6,0-1.2,0.2-2,0.3
			c-0.6,0.2-1.2,0.5-1.9,0.8c-0.6,0.3-1.1,0.9-1.4,1.4C214.3,3,214,3.7,214,4.7C214.4,5.8,214.8,6.5,215.6,7.3z M263,1.3h-15.8
			L246,8.7h15l-1.2,7.3h-15l-1.4,8.2h17.3l-1.4,7.7h-25.8v-0.2l6.6-38h24.2L263,1.3z M296.4,31.7h-10l-6.3-15.3h-3.7l-2.6,15.3h-8.6
			l6.6-38h13c4.2,0,7.4,0.9,9.7,2.6c2.3,1.7,3.6,4.3,3.6,7.4s-0.8,5.6-2.5,7.6c-1.7,2-4,3.2-6.8,4L296.4,31.7z M317.2,31.7h-9.4
			l-5.9-38h9.6l2.9,27.2h0.2l14.8-27.2h10.3L317.2,31.7z"/>
		<path class="st0" d="M287.3,1.7c-1.1-0.6-2.6-0.9-4.5-0.9h-3.9l-1.5,9h4V10c2.5,0,4.3-0.5,5.6-1.2c1.4-0.8,2-2,2-3.7
			S288.3,2.4,287.3,1.7z"/>
	</g>
</g>
</svg>
