<?xml version="1.0" encoding="utf-8"?>
<!-- Generator: Adobe Illustrator 19.0.0, SVG Export Plug-In . SVG Version: 6.00 Build 0)  -->
<svg version="1.1" xmlns="http://www.w3.org/2000/svg" xmlns:xlink="http://www.w3.org/1999/xlink" x="0px" y="0px"
	 viewBox="0 0 412.7 353" style="enable-background:new 0 0 412.7 353;" xml:space="preserve">
<style type="text/css">
	.st0{fill:#FFFFFF;stroke:#000000;stroke-width:3;stroke-miterlimit:3.8637;}
	.st1{fill-rule:evenodd;clip-rule:evenodd;}
	.st2{fill:none;stroke:#000000;stroke-width:0.197;stroke-miterlimit:3.8637;}
</style>
<g id="Ebene_1">
	<g>
		<g>
			<polygon class="st0" points="4.7,3.8 351.3,3.8 351.3,350.4 4.7,350.4 4.7,3.8 			"/>
			<polygon points="228.9,335.4 228.9,232 267.2,232 299.7,286 299.7,232 338,232 338,335.4 299.7,335.4 267.2,285.5 267.2,335.4 
				228.9,335.4 			"/>
			<path class="st1" d="M68.3,297.1h21l-10.5-33.2L68.3,297.1L68.3,297.1z M20.5,335.4l37.4-103.3h41.2l38.1,103.3h-39l-3.1-7.7
				H62.5l-3.1,7.7H20.5L20.5,335.4z"/>
			<polygon class="st2" points="68.4,297 89.2,297 78.8,264.1 68.4,297 			"/>
			<polygon class="st2" points="21,334.9 58,232.6 98.9,232.6 136.6,334.9 97.9,334.9 94.9,327.3 62.7,327.3 59.7,334.9 21,334.9 
							"/>
			<path d="M131.8,335.4l0-103.4h56.4c0,0,46.2,3.6,46.2,51.7c0,48.8-47.1,51.7-47.1,51.7H131.8L131.8,335.4z"/>
		</g>
		<g>
			<path d="M408.8,22.6c0,11.3-9.2,20.2-20.1,20.2c-10.9,0-20.1-9-20.1-20.2c0-11.3,9.4-20.1,20.1-20.1
				C399.7,2.4,408.8,11.4,408.8,22.6z M370.9,22.6c0,10,8,17.9,17.7,17.9c9.8,0,17.7-8,17.7-17.9c0-9.5-7.7-17.7-17.7-17.7
				C379,4.8,370.9,12.8,370.9,22.6z M381.3,11.6h7.7c1.6,0,7.4,0,7.4,5.4c0,0.6,0,4-4,5.2c2.2,0.5,3,1.5,3.3,4.2
				c0.3,2.7,0.5,4.7,1.3,6.8h-3.1c-0.4-1.4-0.6-2.2-1.1-5.6c-0.3-3.3-1.2-4.2-4.7-4.2h-3.7v9.8h-3V11.6z M384.3,20.9h4.7
				c1.5,0,4.3,0,4.3-3.3c0-3.4-2.7-3.4-4.3-3.4h-4.7V20.9z"/>
		</g>
	</g>
</g>
<g id="Ebene_2">
</g>
</svg>
