<?xml version="1.0" encoding="utf-8"?>
<!-- Generator: Adobe Illustrator 21.0.0, SVG Export Plug-In . SVG Version: 6.00 Build 0)  -->
<svg version="1.1" id="Layer_1" xmlns="http://www.w3.org/2000/svg" xmlns:xlink="http://www.w3.org/1999/xlink" x="0px" y="0px"
	 viewBox="0 0 280.8 79.2" style="enable-background:new 0 0 280.8 79.2;" xml:space="preserve">
<style type="text/css">
	.st0{fill:#FFFFFF;}
</style>
<g>
	<path class="st0" d="M35.6,47.1C29.2,56,24.3,66.2,21,77.7h2.7c5.6-19.1,15.9-34.8,29.9-46.2c1-0.7,2-1.4,3-2.1
		c-7.4,9.9-10.9,24-11.2,37.7L26.8,77.7H32L45.4,70c0,2.6,0.2,5.1,0.4,7.6h2.6c-0.3-3-0.4-6-0.4-9.1l33.8-19.2l16.2,28.3h3L84,48
		l31.6-18c11.8,7.2,25.7,18.3,42.1,34.9l-22,12.7h5.2l18.7-10.7c3.3,3.4,6.6,6.9,10.1,10.7h2.7l0.5-0.4c-3.8-4.1-7.4-8-10.9-11.7
		l38.7-22.2c11.6,9.6,22.2,21.1,31.4,34.3h3.2C225.8,64,215,52,203.1,41.9l21.3-12.3c17.4,12.2,32.1,28.4,42.8,48h2.9
		C247.4,35.1,206.8,8,159,2.6l-0.1-0.2l-0.3,0.2c-5.8-0.6-11.6-1-17.6-1c-0.5,0-1.1,0-1.6,0c-21.9,0.2-42.7,4.8-61.4,13
		c-9.7,3.6-18.5,8.7-26.3,15C34.6,42.1,20.4,58.3,10.6,77.5l0.3,0.1h2.6C19.4,66.3,26.8,56.1,35.6,47.1z M98.3,11.9
		c13.7-2.2,27.8-1.7,41.7,1.2l-24.5,14C101.1,18.6,89.8,15.9,81,16.3C86.5,14.4,92.3,12.9,98.3,11.9z M48,65.6
		c0.7-16.9,6.4-34.4,18.8-42.3l13.6,23.9L48,65.6z M82.7,45.8L69.1,21.9c0.4-0.2,0.9-0.5,1.3-0.7c8.9-4,22.5-4.3,42.6,7.3L82.7,45.8
		z M160,63.7c-16.2-16.4-30.1-27.7-42-35L143.7,14c19.2,4.7,38,14.2,54.8,27.6L160,63.7z M201,40.1c-9.7-7.9-20.1-14.5-31.1-19.6
		c-7.5-3.5-15.2-6.3-22.9-8.4l12.2-7C182.3,7.9,203.6,15.7,222,28L201,40.1z M139.5,4.1c5.2-0.1,10.2,0.1,15.3,0.6l-11.4,6.5
		c-13.3-3.1-26.7-4-39.8-2.6C115.1,5.8,127.1,4.3,139.5,4.1z"/>
</g>
</svg>
