<?xml version="1.0" encoding="utf-8"?>
<!-- Generator: Adobe Illustrator 19.0.0, SVG Export Plug-In . SVG Version: 6.00 Build 0)  -->
<svg version="1.1" id="Layer_1" xmlns="http://www.w3.org/2000/svg" xmlns:xlink="http://www.w3.org/1999/xlink" x="0px" y="0px"
	 viewBox="-61.9 71.6 141.7 141.7" style="enable-background:new -61.9 71.6 141.7 141.7;" xml:space="preserve">
<style type="text/css">
	.st0{display:none;}
	.st1{display:inline;}
	.st2{fill:none;stroke:#9E1F63;stroke-width:0.1596;stroke-miterlimit:10;}
	.st3{fill:none;stroke:#00A651;stroke-width:0.75;stroke-miterlimit:10;}
	.st4{fill:#9E1F63;}
	.st5{display:inline;fill:#9E1F63;}
	.st6{fill:#C22036;}
	.st7{fill:#8DA5B5;}
	.st8{fill:#F05235;}
	.st9{fill:#FAAA3A;}
	.st10{display:inline;fill:none;stroke:#000000;stroke-width:1.3072;stroke-miterlimit:10;}
	.st11{display:inline;fill:#FFFFFF;}
	.st12{display:inline;fill:#414042;}
	.st13{display:inline;fill:#C22036;}
	.st14{display:inline;fill:#F05235;}
	.st15{display:inline;fill:#D1D3D4;}
	.st16{display:inline;fill:#8DA5B5;}
	.st17{display:inline;fill:#560935;}
	.st18{display:inline;fill:#991C50;}
	.st19{display:inline;fill:#9A3354;}
	.st20{display:inline;fill:#9A4259;}
	.st21{display:inline;fill:#FAAA3A;}
</style>
<g id="Layer_7" class="st0">
	<g class="st1">
		<rect x="-78.4" y="-102.3" class="st2" width="61.8" height="61.8"/>
		<rect x="-16.6" y="-102.3" class="st2" width="61.8" height="61.8"/>
		<rect x="45.2" y="-102.3" class="st2" width="61.8" height="61.8"/>
		<rect x="106.9" y="-102.3" class="st2" width="61.8" height="61.8"/>
		<rect x="-78.4" y="-40.5" class="st2" width="61.8" height="61.8"/>
		<rect x="-16.6" y="-40.5" class="st2" width="61.8" height="61.8"/>
		<rect x="45.2" y="-40.5" class="st2" width="61.8" height="61.8"/>
		<rect x="106.9" y="-40.5" class="st2" width="61.8" height="61.8"/>
		<rect x="-78.4" y="21.2" class="st2" width="61.8" height="61.8"/>
		<rect x="-16.6" y="21.2" class="st2" width="61.8" height="61.8"/>
		<rect x="45.2" y="21.2" class="st2" width="61.8" height="61.8"/>
		<rect x="106.9" y="21.2" class="st2" width="61.8" height="61.8"/>
		<rect x="-78.4" y="83" class="st2" width="61.8" height="61.8"/>
		<rect x="-16.6" y="83" class="st2" width="61.8" height="61.8"/>
		<rect x="45.2" y="83" class="st2" width="61.8" height="61.8"/>
		<rect x="106.9" y="83" class="st2" width="61.8" height="61.8"/>
		<circle class="st2" cx="45.2" cy="21.2" r="123.5"/>
	</g>
	<g class="st1">
		<rect x="168.7" y="-102.3" class="st2" width="61.8" height="61.8"/>
		<rect x="230.4" y="-102.3" class="st2" width="61.8" height="61.8"/>
		<rect x="292.2" y="-102.3" class="st2" width="61.8" height="61.8"/>
		<rect x="353.9" y="-102.3" class="st2" width="61.8" height="61.8"/>
		<rect x="168.7" y="-40.5" class="st2" width="61.8" height="61.8"/>
		<rect x="230.4" y="-40.5" class="st2" width="61.8" height="61.8"/>
		<rect x="292.2" y="-40.5" class="st2" width="61.8" height="61.8"/>
		<rect x="353.9" y="-40.5" class="st2" width="61.8" height="61.8"/>
		<rect x="168.7" y="21.2" class="st2" width="61.8" height="61.8"/>
		<rect x="230.4" y="21.2" class="st2" width="61.8" height="61.8"/>
		<rect x="292.2" y="21.2" class="st2" width="61.8" height="61.8"/>
		<rect x="353.9" y="21.2" class="st2" width="61.8" height="61.8"/>
		<rect x="168.7" y="83" class="st2" width="61.8" height="61.8"/>
		<rect x="230.4" y="83" class="st2" width="61.8" height="61.8"/>
		<rect x="292.2" y="83" class="st2" width="61.8" height="61.8"/>
		<rect x="353.9" y="83" class="st2" width="61.8" height="61.8"/>
		<circle class="st2" cx="292.2" cy="21.2" r="123.5"/>
	</g>
	<g class="st1">
		<rect x="-78.4" y="144.4" class="st2" width="61.8" height="61.8"/>
		<rect x="-16.6" y="144.4" class="st2" width="61.8" height="61.8"/>
		<rect x="45.2" y="144.4" class="st2" width="61.8" height="61.8"/>
		<rect x="106.9" y="144.4" class="st2" width="61.8" height="61.8"/>
		<rect x="-78.4" y="206.2" class="st2" width="61.8" height="61.8"/>
		<rect x="-16.6" y="206.2" class="st2" width="61.8" height="61.8"/>
		<rect x="45.2" y="206.2" class="st2" width="61.8" height="61.8"/>
		<rect x="106.9" y="206.2" class="st2" width="61.8" height="61.8"/>
		<rect x="-78.4" y="268" class="st2" width="61.8" height="61.8"/>
		<rect x="-16.6" y="268" class="st2" width="61.8" height="61.8"/>
		<rect x="45.2" y="268" class="st2" width="61.8" height="61.8"/>
		<rect x="106.9" y="268" class="st2" width="61.8" height="61.8"/>
		<rect x="-78.4" y="329.7" class="st2" width="61.8" height="61.8"/>
		<rect x="-16.6" y="329.7" class="st2" width="61.8" height="61.8"/>
		<rect x="45.2" y="329.7" class="st2" width="61.8" height="61.8"/>
		<rect x="106.9" y="329.7" class="st2" width="61.8" height="61.8"/>
		<circle class="st2" cx="45.2" cy="268" r="123.5"/>
	</g>
	<g class="st1">
		<rect x="168.7" y="144.4" class="st2" width="61.8" height="61.8"/>
		<rect x="230.4" y="144.4" class="st2" width="61.8" height="61.8"/>
		<rect x="292.2" y="144.4" class="st2" width="61.8" height="61.8"/>
		<rect x="353.9" y="144.4" class="st2" width="61.8" height="61.8"/>
		<rect x="168.7" y="206.2" class="st2" width="61.8" height="61.8"/>
		<rect x="230.4" y="206.2" class="st2" width="61.8" height="61.8"/>
		<rect x="292.2" y="206.2" class="st2" width="61.8" height="61.8"/>
		<rect x="353.9" y="206.2" class="st2" width="61.8" height="61.8"/>
		<rect x="168.7" y="268" class="st2" width="61.8" height="61.8"/>
		<rect x="230.4" y="268" class="st2" width="61.8" height="61.8"/>
		<rect x="292.2" y="268" class="st2" width="61.8" height="61.8"/>
		<rect x="353.9" y="268" class="st2" width="61.8" height="61.8"/>
		<rect x="168.7" y="329.7" class="st2" width="61.8" height="61.8"/>
		<rect x="230.4" y="329.7" class="st2" width="61.8" height="61.8"/>
		<rect x="292.2" y="329.7" class="st2" width="61.8" height="61.8"/>
		<rect x="353.9" y="329.7" class="st2" width="61.8" height="61.8"/>
		<circle class="st2" cx="292.2" cy="268" r="123.5"/>
	</g>
	<g class="st1">
		<polygon class="st3" points="228.9,108.3 119.8,108.3 141.1,84.8 232.8,84.7 		"/>
		<polygon class="st3" points="222.3,156 76.8,156 97.9,131.7 226,131.7 		"/>
		<polygon class="st3" points="215.5,203.8 34.2,203.8 55.3,180.7 219.1,180.7 		"/>
		<path class="st3" d="M299.5,108.2l-41.6,0.2l-3.2,23.3h38.4l-3.5,24.4h-38.4l-6.9,47.7h-28.9l16.8-119h70.3L299.5,108.2z"/>
		<circle class="st3" cx="168.3" cy="144.3" r="184.8"/>
	</g>
</g>
<g id="Layer_2" class="st0">
	<g class="st1">
		<polygon class="st4" points="48.3,-3.4 17,-3.4 23.8,-10.9 48.3,-10.9 		"/>
		<polygon class="st4" points="48.3,11.8 3.3,11.8 10,4 48.3,4 		"/>
		<polygon class="st4" points="48.3,27 -10.3,27 -3.6,19.6 48.3,19.6 		"/>
	</g>
	<g class="st1">
		<path class="st4" d="M57.9-3.5v9.1h12.2V13H57.9v14h-9.2v-37.9h22.4v7.4H57.9z"/>
		<path class="st4" d="M92.8,27l-0.5-3.2c-1.4,2.2-3.8,4.1-8,4.1c-7.8,0-10.7-5.8-10.7-15c0-8.8,3.2-15,11.1-15c4.4,0,6.5,1.9,7.6,4
			h0.1l0.4-3.2h8.1v28.4L92.8,27L92.8,27z M91.9,10.8c0-3.6-1.9-5.9-4.4-5.9c-3.3,0-4.6,2.6-4.6,6.1v3.6c0,4,1.6,6.1,4.4,6.1
			c3,0,4.7-2.6,4.7-5.8L91.9,10.8L91.9,10.8z"/>
		<path class="st4" d="M115.2,27.8c-3.5,0-6.7-0.6-9.8-2l0.5-6.8c2.5,1.4,5.5,2.3,8.3,2.3c3.4,0,4-1.2,4-2.4c0-1.3-0.9-1.9-3.3-2.8
			l-1.9-0.6c-4-1.4-7.4-3.6-7.4-9.1c0-6,4.9-8.7,11.8-8.7c3.1,0,6.5,0.9,8.5,1.8l-0.4,6.8c-2.5-1.3-5.6-2.2-7.4-2.2
			c-2.4,0-3.2,0.8-3.2,1.9c0,1.2,1,1.9,3.5,2.8l1.6,0.7c3.8,1.3,7.2,3.5,7.2,9C127.2,24.4,123,27.8,115.2,27.8z"/>
		<path class="st4" d="M142.6,27.9c-5.7,0-8.3-3-8.3-8.6l0.1-13.6h-5.7v-7.2h5.7l0.1-7l9-1l-0.1,8h6.6v7.2h-6.6l-0.1,11.7
			c0,2.6,0.9,3.3,3,3.3c1.2,0,2.8-0.4,3.4-0.6l0.4,6.4C148.9,27,145.9,27.9,142.6,27.9z"/>
		<path class="st4" d="M154.4,27v-37.9h9.2v30.6l13.6,0.1V27C177.2,27,154.4,27,154.4,27z"/>
		<path class="st4" d="M198.5,27l-0.5-3.2c-1.4,2.2-3.8,4.1-8,4.1c-7.8,0-10.7-5.8-10.7-15c0-8.8,3.2-15,11.1-15
			c4.4,0,6.5,1.9,7.6,4h0.1l0.4-3.2h8.1v28.4L198.5,27L198.5,27z M197.6,10.8c0-3.6-1.9-5.9-4.4-5.9c-3.3,0-4.6,2.6-4.6,6.1v3.6
			c0,4,1.6,6.1,4.4,6.1c3,0,4.7-2.6,4.7-5.8v-4.1C197.7,10.8,197.6,10.8,197.6,10.8z"/>
		<path class="st4" d="M230.5,27V10.1c0-2.4-0.8-4.5-4.1-4.5c-2.7,0-4.9,2-4.9,4.3V27h-9V-1.4h8.6v3.2h0.1c1-1.3,4.2-4,9-4
			c5.1,0,9.3,2.5,9.3,9.5V27C239.5,27,230.5,27,230.5,27z"/>
		<path class="st4" d="M269.6,15.2h-16.9v0.3c0,2.6,1.5,5.3,6.2,5.3c3.2,0,6.3-0.9,8.9-2l0.4,6.8c-2.2,1.2-5.7,2.2-10.3,2.2
			c-11.1,0-14-5.6-14-14.9c0-9.1,3.6-15.2,13.9-15.2c9.1,0,12,5.4,12,14.1C269.7,12.4,269.7,14.3,269.6,15.2z M257.3,3.6
			c-3.4,0-4.8,3-4.8,5.9h8.9C261.4,6.9,260.9,3.6,257.3,3.6z"/>
	</g>
	<g class="st1">
		<polygon class="st4" points="460.3,-2.6 425.6,-2.6 432.3,-10.1 461.5,-10.1 		"/>
		<polygon class="st4" points="458.2,12.5 411.9,12.5 418.6,4.8 459.4,4.8 		"/>
		<polygon class="st4" points="456,27.7 398.3,27.7 405,20.4 457.2,20.4 		"/>
	</g>
	<path class="st5" d="M482.7-2.8l-13.2,0.1l-1.2,9.1h12.2l-1.1,7.4h-12.2l-1.9,14H456l5.3-37.9h22.4L482.7-2.8z"/>
	<path class="st5" d="M508.6,27.7h-7.9l0.3-4.2h-0.1c-1,1.6-4.2,5.1-9.1,5.1c-5.8,0-8.7-3.9-8.7-10.9C483,6.6,488-1.5,496.6-1.5
		c4,0,6.4,1.9,7,2.9h0.1l0.3-2h8.6L508.6,27.7z M498.2,5.6c-3.1,0-4.9,3-5.5,6.5l-0.5,3.7c-0.1,0.5-0.1,1.1-0.1,1.5
		c0,2.5,1.1,4,3.2,4c3,0,5.7-4,6.2-7.9l0.9-6.1C501.9,6.8,500.4,5.6,498.2,5.6z"/>
	<path class="st5" d="M537.4,7.4c-1.3-0.8-4.8-2.4-7.8-2.4c-1.2,0-3.2,0.3-3.2,2c0,1.3,1.1,1.9,3.1,2.7l0.8,0.3
		c3.4,1.4,7.2,3.3,7.2,8.2c0,7.4-6.1,10.4-13.2,10.4c-4.8,0-8.4-1.4-9.6-2l1.4-6.9c1.2,0.8,4.4,2.4,7.9,2.4c1.9,0,4.3-0.6,4.3-2.5
		c0-1.3-1.5-2-3.6-2.9l-0.7-0.3c-3.5-1.4-6.7-3.8-6.7-8.2c0-6.8,5.6-9.7,12.1-9.7c4.9,0,8.4,1.4,9.6,2L537.4,7.4z"/>
	<path class="st5" d="M562.5,6.5h-6.6l-1.7,12.1c-0.1,0.4-0.1,0.6-0.1,0.7c0,1.8,1.2,2.2,2.8,2.2c1.3,0,3.2-0.6,3.9-1l-0.5,6.7
		c-1,0.5-4,1.4-7.6,1.4c-5.2,0-7.8-2.4-7.8-7.3c0-0.7,0.1-1.5,0.2-2.3l1.8-12.6h-5.7l1-7.2h5.7l1-7l9.1-1l-1.1,8h6.6L562.5,6.5z"/>
	<path class="st5" d="M588,27.7h-22.8l5.3-37.9h9.2l-4.2,30.7l13.6,0.1L588,27.7z"/>
	<path class="st5" d="M618.6,27.7h-7.9l0.3-4.2h-0.1c-1,1.6-4.2,5.1-9.1,5.1c-5.8,0-8.7-3.9-8.7-10.9C593,6.6,598-1.5,606.6-1.5
		c4,0,6.4,1.9,7,2.9h0.1l0.3-2h8.6L618.6,27.7z M608.2,5.6c-3.1,0-4.9,3-5.5,6.5l-0.5,3.7c-0.1,0.5-0.1,1.1-0.1,1.5
		c0,2.5,1.1,4,3.2,4c3,0,5.7-4,6.2-7.9l0.9-6.1C611.9,6.8,610.4,5.6,608.2,5.6z"/>
	<path class="st5" d="M652.7,27.7h-9l2.5-17.5c0.1-0.4,0.1-0.6,0.1-0.9c0-1.4-0.5-3.4-2.8-3.4c-3.6,0-6.4,4.8-6.9,8.4l-1.9,13.4h-9
		l4-28.4h8.2l-0.6,4.5h0.1c1.1-1.8,4.7-5.3,10.2-5.3c5.2,0,8,3.2,8,8.2c0,0.7-0.1,1.4-0.2,2.2L652.7,27.7z"/>
	<path class="st5" d="M668.4,17.1v0.5c0,2,1.6,4,5.2,4c4.3,0,8.2-2.3,9.7-3.4l-0.6,7.4c-1.4,1-5.5,3-10.9,3
		c-7.4,0-12.2-3.7-12.2-11.4c0-13.1,7.5-18.7,16-18.7c7.2,0,10.9,3.6,10.9,8.8C686.6,14.7,676,17.1,668.4,17.1z M675.2,4.3
		c-3,0-5.7,2.6-6.3,7c5.3,0,9.4-1.5,9.4-4.1C678.3,5.4,677.2,4.3,675.2,4.3z"/>
	<g class="st1">
		<polygon points="48.3,-85.6 17,-85.6 23.8,-93.1 48.3,-93.1 		"/>
		<polygon points="48.3,-70.5 3.3,-70.5 10,-78.2 48.3,-78.2 		"/>
		<polygon points="48.3,-55.2 -10.3,-55.2 -3.6,-62.6 48.3,-62.6 		"/>
	</g>
	<g class="st1">
		<path d="M57.9-85.7v9.1h12.2v7.4H57.9v14h-9.2v-37.9h22.4v7.4L57.9-85.7z"/>
		<path d="M92.8-55.3l-0.5-3.2c-1.4,2.2-3.8,4.1-8,4.1c-7.8,0-10.7-5.8-10.7-15c0-8.8,3.2-15,11.1-15c4.4,0,6.5,1.9,7.6,4h0.1
			l0.4-3.2h8.1v28.4h-8.1L92.8-55.3L92.8-55.3z M91.9-71.4c0-3.6-1.9-5.9-4.4-5.9c-3.3,0-4.6,2.6-4.6,6.1v3.6c0,4,1.6,6.1,4.4,6.1
			c3,0,4.7-2.6,4.7-5.8L91.9-71.4L91.9-71.4z"/>
		<path d="M115.2-54.4c-3.5,0-6.7-0.6-9.8-2l0.5-6.8c2.5,1.4,5.5,2.3,8.3,2.3c3.4,0,4-1.2,4-2.4c0-1.3-0.9-1.9-3.3-2.8l-1.9-0.6
			c-4-1.4-7.4-3.6-7.4-9.1c0-6,4.9-8.7,11.8-8.7c3.1,0,6.5,0.9,8.5,1.8l-0.4,6.8c-2.5-1.3-5.6-2.2-7.4-2.2c-2.4,0-3.2,0.8-3.2,1.9
			c0,1.2,1,1.9,3.5,2.8l1.9,0.6c3.8,1.3,7.2,3.5,7.2,9C127.2-57.8,123-54.4,115.2-54.4z"/>
		<path d="M142.6-54.4c-5.7,0-8.3-3-8.3-8.6l0.1-13.6h-5.7v-7.2h5.7l0.1-7l9-1l-0.1,8h6.6v7.2h-6.6l-0.1,11.7c0,2.6,0.9,3.3,3,3.3
			c1.2,0,2.8-0.4,3.4-0.6l0.4,6.4C148.9-55.3,145.9-54.4,142.6-54.4z"/>
		<path d="M154.4-55.3v-37.9h9.2v30.6l13.6,0.1v7.2H154.4z"/>
		<path d="M198.5-55.3l-0.5-3.2c-1.4,2.2-3.8,4.1-8,4.1c-7.8,0-10.7-5.8-10.7-15c0-8.8,3.2-15,11.1-15c4.4,0,6.5,1.9,7.6,4h0.1
			l0.4-3.2h8.1v28.4h-8.1V-55.3z M197.6-71.4c0-3.6-1.9-5.9-4.4-5.9c-3.3,0-4.6,2.6-4.6,6.1v3.6c0,4,1.6,6.1,4.4,6.1
			c3,0,4.7-2.6,4.7-5.8v-4.1L197.6-71.4L197.6-71.4z"/>
		<path d="M230.5-55.3v-16.9c0-2.4-0.8-4.5-4.1-4.5c-2.7,0-4.9,2-4.9,4.3v17.1h-9v-28.4h8.6v3.2h0.1c1-1.3,4.2-4,9-4
			c5.1,0,9.3,2.5,9.3,9.5v19.7L230.5-55.3L230.5-55.3z"/>
		<path d="M269.6-67.1h-16.9v0.3c0,2.6,1.5,5.3,6.2,5.3c3.2,0,6.3-0.9,8.9-2l0.4,6.8c-2.2,1.2-5.7,2.2-10.3,2.2
			c-11.1,0-14-5.6-14-14.9c0-9.1,3.6-15.2,13.9-15.2c9.1,0,12,5.4,12,14.1C269.7-69.8,269.7-67.9,269.6-67.1z M257.3-78.7
			c-3.4,0-4.8,3-4.8,5.9h8.9C261.4-75.4,260.9-78.7,257.3-78.7z"/>
	</g>
	<path class="st1" d="M508.6-54.5h-7.9l0.3-4.3h-0.1c-1,1.6-4.2,5.1-9.1,5.1c-5.8,0-8.7-3.9-8.7-10.9c0-11.2,4.9-19.3,13.5-19.3
		c4,0,6.4,1.9,7,2.9h0.1l0.3-2h8.6L508.6-54.5z M498.2-76.6c-3.1,0-4.9,3-5.5,6.5l-0.5,3.7c-0.1,0.5-0.1,1.1-0.1,1.5
		c0,2.5,1.1,4,3.2,4c3,0,5.7-4,6.2-7.9l0.9-6.1C501.9-75.5,500.4-76.6,498.2-76.6z"/>
	<path class="st1" d="M537.4-74.9c-1.3-0.8-4.8-2.4-7.8-2.4c-1.2,0-3.2,0.3-3.2,2c0,1.3,1.1,1.9,3.1,2.7l0.8,0.3
		c3.4,1.4,7.2,3.3,7.2,8.2c0,7.4-6.1,10.4-13.2,10.4c-4.8,0-8.4-1.4-9.6-2l1.4-6.9c1.2,0.8,4.4,2.4,7.9,2.4c1.9,0,4.3-0.6,4.3-2.5
		c0-1.3-1.5-2-3.6-2.9l-0.7-0.3c-3.5-1.4-6.7-3.8-6.7-8.2c0-6.8,5.6-9.7,12.1-9.7c4.9,0,8.4,1.4,9.6,2L537.4-74.9z"/>
	<path class="st1" d="M562.5-75.7h-6.6l-1.7,12.1c-0.1,0.4-0.1,0.6-0.1,0.7c0,1.8,1.2,2.2,2.8,2.2c1.3,0,3.2-0.6,3.9-1l-0.5,6.7
		c-1,0.5-4,1.4-7.6,1.4c-5.2,0-7.8-2.4-7.8-7.3c0-0.7,0.1-1.5,0.2-2.3l1.8-12.6h-5.7l1-7.2h5.7l1-7l9.1-1l-1.1,8h6.6L562.5-75.7z"/>
	<path class="st1" d="M588-54.5h-22.8l5.3-37.9h9.2l-4.3,30.6l13.6,0.1L588-54.5z"/>
	<path class="st1" d="M618.6-54.5h-7.9l0.3-4.3h-0.1c-1,1.6-4.2,5.1-9.1,5.1c-5.8,0-8.7-3.9-8.7-10.9c0-11.2,4.9-19.3,13.5-19.3
		c4,0,6.4,1.9,7,2.9h0.1l0.3-2h8.6L618.6-54.5z M608.2-76.6c-3.1,0-4.9,3-5.5,6.5l-0.5,3.7c-0.1,0.5-0.1,1.1-0.1,1.5
		c0,2.5,1.1,4,3.2,4c3,0,5.7-4,6.2-7.9l0.9-6.1C611.9-75.5,610.4-76.6,608.2-76.6z"/>
	<path class="st1" d="M652.7-54.5h-9l2.5-17.5c0.1-0.4,0.1-0.6,0.1-0.9c0-1.4-0.5-3.4-2.8-3.4c-3.6,0-6.4,4.8-6.9,8.4l-1.9,13.4h-9
		l4-28.4h8.2l-0.6,4.5h0.1c1.1-1.8,4.7-5.3,10.2-5.3c5.2,0,8,3.2,8,8.2c0,0.7-0.1,1.4-0.2,2.2L652.7-54.5z"/>
	<path class="st1" d="M668.4-65.1v0.5c0,2,1.6,4,5.2,4c4.3,0,8.2-2.3,9.7-3.4l-0.6,7.4c-1.4,1-5.5,3-10.9,3
		c-7.4,0-12.2-3.7-12.2-11.4c0-13.1,7.5-18.7,16-18.7c7.2,0,10.9,3.6,10.9,8.8C686.6-67.6,676-65.1,668.4-65.1z M675.2-77.9
		c-3,0-5.7,2.6-6.3,7c5.3,0,9.4-1.5,9.4-4.1C678.3-76.9,677.2-77.9,675.2-77.9z"/>
	<g class="st1">
		<polygon class="st6" points="48.3,85.9 17,85.9 23.8,78.4 48.3,78.4 		"/>
		<polygon class="st6" points="48.3,101.1 3.3,101.1 10,93.4 48.3,93.3 		"/>
		<polygon class="st6" points="48.3,116.3 -10.3,116.3 -3.6,109 48.3,108.9 		"/>
	</g>
	<g class="st1">
		<path class="st6" d="M57.9,85.8v9.1h12.2v7.4H57.9v14h-9.2V78.4h22.4v7.4H57.9z"/>
		<path class="st6" d="M92.8,116.3l-0.5-3.2c-1.4,2.2-3.8,4.1-8,4.1c-7.8,0-10.7-5.8-10.7-15c0-8.8,3.2-15,11.1-15
			c4.4,0,6.5,1.9,7.6,4h0.1l0.4-3.2h8.1v28.4L92.8,116.3L92.8,116.3z M91.9,100.1c0-3.6-1.9-5.9-4.4-5.9c-3.3,0-4.6,2.6-4.6,6.1v3.6
			c0,4,1.6,6.1,4.4,6.1c3,0,4.7-2.6,4.7-5.8L91.9,100.1L91.9,100.1z"/>
		<path class="st6" d="M115.2,117.1c-3.5,0-6.7-0.6-9.8-2l0.5-6.8c2.5,1.4,5.5,2.3,8.3,2.3c3.4,0,4-1.2,4-2.4c0-1.3-0.9-1.9-3.3-2.8
			l-1.9-0.6c-4-1.4-7.4-3.6-7.4-9.1c0-6,4.9-8.7,11.8-8.7c3.1,0,6.5,0.9,8.5,1.8l-0.4,6.8c-2.5-1.3-5.6-2.2-7.4-2.2
			c-2.4,0-3.2,0.8-3.2,1.9c0,1.2,1,1.9,3.5,2.8l1.9,0.6c3.8,1.3,7.2,3.5,7.2,9C127.2,113.7,123,117.1,115.2,117.1z"/>
		<path class="st6" d="M142.6,117.2c-5.7,0-8.3-3-8.3-8.6l0.1-13.6h-5.7v-7.1h5.7l0.1-7l9-1l-0.1,8h6.6v7.2h-6.6l-0.1,11.7
			c0,2.6,0.9,3.3,3,3.3c1.2,0,2.8-0.4,3.4-0.6l0.4,6.4C148.9,116.3,145.9,117.2,142.6,117.2z"/>
		<path class="st6" d="M154.4,116.3V78.4h9.2V109l13.6,0.1v7.2H154.4z"/>
		<path class="st6" d="M198.5,116.3l-0.5-3.2c-1.4,2.2-3.8,4.1-8,4.1c-7.8,0-10.7-5.8-10.7-15c0-8.8,3.2-15,11.1-15
			c4.4,0,6.5,1.9,7.6,4h0.1l0.4-3.2h8.1v28.4L198.5,116.3L198.5,116.3z M197.6,100.1c0-3.6-1.9-5.9-4.4-5.9c-3.3,0-4.6,2.6-4.6,6.1
			v3.6c0,4,1.6,6.1,4.4,6.1c3,0,4.7-2.6,4.7-5.8v-4.1H197.6z"/>
		<path class="st6" d="M230.5,116.3V99.4c0-2.4-0.8-4.5-4.1-4.5c-2.7,0-4.9,2-4.9,4.3v17.1h-9V87.9h8.6v3.2h0.1c1-1.3,4.2-4,9-4
			c5.1,0,9.3,2.5,9.3,9.5v19.7C239.5,116.3,230.5,116.3,230.5,116.3z"/>
		<path class="st6" d="M269.6,104.5h-16.9v0.3c0,2.6,1.5,5.3,6.2,5.3c3.2,0,6.3-0.9,8.9-2l0.4,6.8c-2.2,1.2-5.7,2.2-10.3,2.2
			c-11.1,0-14-5.6-14-14.9c0-9.1,3.6-15.2,13.9-15.2c9.1,0,12,5.4,12,14.1C269.7,101.7,269.7,103.6,269.6,104.5z M257.3,92.9
			c-3.4,0-4.8,3-4.8,5.9h8.9C261.4,96.2,260.9,92.9,257.3,92.9z"/>
	</g>
	<g class="st1">
		<polygon class="st6" points="460.3,86.7 425.6,86.7 432.3,79.2 461.5,79.2 		"/>
		<polygon class="st6" points="458.2,101.8 411.9,101.8 418.6,94.1 459.4,94.1 		"/>
		<polygon class="st6" points="456,117.1 398.3,117.1 405,109.7 457.2,109.7 		"/>
	</g>
	<g class="st1">
		<g>
			<path class="st6" d="M482.7,86.5l-13.2,0.1l-1.2,9.1h12.2l-1.1,7.4h-12.2l-1.9,14H456l5.3-37.9h22.4L482.7,86.5z"/>
			<path class="st6" d="M508.6,117.1h-7.9l0.3-4.3h-0.1c-1,1.6-4.2,5.1-9.1,5.1c-5.8,0-8.7-3.9-8.7-10.9c0-11.2,4.9-19.3,13.5-19.3
				c4,0,6.4,1.9,7,2.9h0.1l0.3-2h8.6L508.6,117.1z M498.2,94.9c-3.1,0-4.9,3-5.5,6.5l-0.5,3.7c-0.1,0.5-0.1,1.1-0.1,1.5
				c0,2.5,1.1,4,3.2,4c3,0,5.7-4,6.2-7.9l0.9-6.1C501.9,96.1,500.4,94.9,498.2,94.9z"/>
			<path class="st6" d="M537.4,96.7c-1.3-0.8-4.8-2.4-7.8-2.4c-1.2,0-3.2,0.3-3.2,2c0,1.3,1.1,1.9,3.1,2.7l0.8,0.3
				c3.4,1.4,7.2,3.3,7.2,8.2c0,7.4-6.1,10.4-13.2,10.4c-4.8,0-8.4-1.4-9.6-2l1.4-6.9c1.2,0.8,4.4,2.4,7.9,2.4c1.9,0,4.3-0.6,4.3-2.5
				c0-1.3-1.5-2-3.6-2.9l-0.7-0.3c-3.5-1.4-6.7-3.8-6.7-8.2c0-6.8,5.6-9.7,12.1-9.7c4.9,0,8.4,1.4,9.6,2L537.4,96.7z"/>
			<path class="st6" d="M562.5,95.8h-6.6l-1.7,12.1c-0.1,0.4-0.1,0.6-0.1,0.7c0,1.8,1.2,2.2,2.8,2.2c1.3,0,3.2-0.6,3.9-1l-0.5,6.7
				c-1,0.5-4,1.4-7.6,1.4c-5.2,0-7.8-2.4-7.8-7.3c0-0.7,0.1-1.5,0.2-2.3l1.8-12.6h-5.7l1-7.2h5.7l1-7l9.1-1l-1.1,8h6.6L562.5,95.8z"
				/>
			<path class="st6" d="M588,117.1h-22.8l5.3-37.9h9.2l-4.3,30.6l13.6,0.1L588,117.1z"/>
			<path class="st6" d="M618.6,117.1h-7.9l0.3-4.3h-0.1c-1,1.6-4.2,5.1-9.1,5.1c-5.8,0-8.7-3.9-8.7-10.9c0-11.2,4.9-19.3,13.5-19.3
				c4,0,6.4,1.9,7,2.9h0.1l0.3-2h8.6L618.6,117.1z M608.2,94.9c-3.1,0-4.9,3-5.5,6.5l-0.5,3.7c-0.1,0.5-0.1,1.1-0.1,1.5
				c0,2.5,1.1,4,3.2,4c3,0,5.7-4,6.2-7.9l0.9-6.1C611.9,96.1,610.4,94.9,608.2,94.9z"/>
			<path class="st6" d="M652.7,117.1h-9l2.5-17.5c0.1-0.4,0.1-0.6,0.1-0.9c0-1.4-0.5-3.4-2.8-3.4c-3.6,0-6.4,4.8-6.9,8.4l-1.9,13.4
				h-9l4-28.4h8.2l-0.6,4.5h0.1c1.1-1.8,4.7-5.3,10.2-5.3c5.2,0,8,3.2,8,8.2c0,0.7-0.1,1.4-0.2,2.2L652.7,117.1z"/>
			<path class="st6" d="M668.4,106.4v0.5c0,2,1.6,4,5.2,4c4.3,0,8.2-2.3,9.7-3.4l-0.6,7.4c-1.4,1-5.5,3-10.9,3
				c-7.4,0-12.2-3.7-12.2-11.4c0-13.1,7.5-18.7,16-18.7c7.2,0,10.9,3.6,10.9,8.8C686.6,104,676,106.4,668.4,106.4z M675.2,93.6
				c-3,0-5.7,2.6-6.3,7c5.3,0,9.4-1.5,9.4-4.1C678.3,94.7,677.2,93.6,675.2,93.6z"/>
		</g>
	</g>
	<g class="st1">
		<polygon class="st7" points="48.3,176 17,176 23.8,168.5 48.3,168.5 		"/>
		<polygon class="st7" points="48.3,191.2 3.3,191.2 10,183.4 48.3,183.4 		"/>
		<polygon class="st7" points="48.3,206.4 -10.3,206.4 -3.6,199 48.3,199 		"/>
	</g>
	<g class="st1">
		<path class="st7" d="M57.9,175.9v9.1h12.2v7.4H57.9v14h-9.2v-37.9h22.4v7.4H57.9z"/>
		<path class="st7" d="M92.8,206.3l-0.5-3.2c-1.4,2.2-3.8,4.1-8,4.1c-7.8,0-10.7-5.8-10.7-15c0-8.8,3.2-15,11.1-15
			c4.4,0,6.5,1.9,7.6,4h0.1l0.4-3.2h8.1v28.4h-8.1L92.8,206.3L92.8,206.3z M91.9,190.2c0-3.6-1.9-5.9-4.4-5.9
			c-3.3,0-4.6,2.6-4.6,6.1v3.6c0,4,1.6,6.1,4.4,6.1c3,0,4.7-2.6,4.7-5.8L91.9,190.2L91.9,190.2z"/>
		<path class="st7" d="M115.2,207.2c-3.5,0-6.7-0.6-9.8-2l0.5-6.8c2.5,1.4,5.5,2.3,8.3,2.3c3.4,0,4-1.2,4-2.4c0-1.3-0.9-1.9-3.3-2.8
			l-1.9-0.6c-4-1.4-7.4-3.6-7.4-9.1c0-6,4.9-8.7,11.8-8.7c3.1,0,6.5,0.9,8.5,1.8l-0.4,6.8c-2.5-1.3-5.6-2.2-7.4-2.2
			c-2.4,0-3.2,0.8-3.2,1.9c0,1.2,1,1.9,3.5,2.8l1.9,0.6c3.8,1.3,7.2,3.5,7.2,9C127.2,203.8,123,207.2,115.2,207.2z"/>
		<path class="st7" d="M142.6,207.3c-5.7,0-8.3-3-8.3-8.6l0.1-13.6h-5.7v-7.2h5.7l0.1-7l9-1l-0.1,8h6.6v7.2h-6.6l-0.1,11.7
			c0,2.6,0.9,3.3,3,3.3c1.2,0,2.8-0.4,3.4-0.6l0.4,6.4C148.9,206.3,145.9,207.3,142.6,207.3z"/>
		<path class="st7" d="M154.4,206.3v-37.8h9.2v30.6l13.6,0.1v7.2L154.4,206.3L154.4,206.3z"/>
		<path class="st7" d="M198.5,206.3l-0.5-3.2c-1.4,2.2-3.8,4.1-8,4.1c-7.8,0-10.7-5.8-10.7-15c0-8.8,3.2-15,11.1-15
			c4.4,0,6.5,1.9,7.6,4h0.1l0.4-3.2h8.1v28.4h-8.1V206.3z M197.6,190.2c0-3.6-1.9-5.9-4.4-5.9c-3.3,0-4.6,2.6-4.6,6.1v3.6
			c0,4,1.6,6.1,4.4,6.1c3,0,4.7-2.6,4.7-5.8v-4.1C197.7,190.2,197.6,190.2,197.6,190.2z"/>
		<path class="st7" d="M230.5,206.3v-16.9c0-2.4-0.8-4.5-4.1-4.5c-2.7,0-4.9,2-4.9,4.3v17.1h-9V178h8.6v3.2h0.1c1-1.3,4.2-4,9-4
			c5.1,0,9.3,2.5,9.3,9.5v19.7L230.5,206.3L230.5,206.3z"/>
		<path class="st7" d="M269.6,194.5h-16.9v0.3c0,2.6,1.5,5.3,6.2,5.3c3.2,0,6.3-0.9,8.9-2l0.4,6.8c-2.2,1.2-5.7,2.2-10.3,2.2
			c-11.1,0-14-5.6-14-14.9c0-9.1,3.6-15.2,13.9-15.2c9.1,0,12,5.4,12,14.1C269.7,191.8,269.7,193.7,269.6,194.5z M257.3,183
			c-3.4,0-4.8,3-4.8,5.9h8.9C261.4,186.2,260.9,183,257.3,183z"/>
	</g>
	<g class="st1">
		<polygon class="st7" points="460.3,176.7 425.6,176.7 432.3,169.2 461.5,169.2 		"/>
		<polygon class="st7" points="458.2,191.9 411.9,191.9 418.6,184.2 459.4,184.2 		"/>
		<polygon class="st7" points="456,207.1 398.3,207.1 405,199.8 457.2,199.8 		"/>
	</g>
	<g class="st1">
		<g>
			<path class="st7" d="M482.7,176.6l-13.2,0.1l-1.2,9.1h12.2l-1.1,7.4h-12.2l-1.9,14H456l5.3-37.9h22.4L482.7,176.6z"/>
			<path class="st7" d="M508.6,207.1h-7.9l0.3-4.3h-0.1c-1,1.6-4.2,5.1-9.1,5.1c-5.8,0-8.7-3.9-8.7-10.9c0-11.2,4.9-19.3,13.5-19.3
				c4,0,6.4,1.9,7,2.9h0.1l0.3-2h8.6L508.6,207.1z M498.2,185c-3.1,0-4.9,3-5.5,6.5l-0.5,3.7c-0.1,0.5-0.1,1.1-0.1,1.5
				c0,2.5,1.1,4,3.2,4c3,0,5.7-4,6.2-7.9l0.9-6.1C501.9,186.2,500.4,185,498.2,185z"/>
			<path class="st7" d="M537.4,186.7c-1.3-0.8-4.8-2.4-7.8-2.4c-1.2,0-3.2,0.3-3.2,2c0,1.3,1.1,1.9,3.1,2.7l0.8,0.3
				c3.4,1.4,7.2,3.3,7.2,8.2c0,7.4-6.1,10.4-13.2,10.4c-4.8,0-8.4-1.4-9.6-2l1.4-6.9c1.2,0.8,4.4,2.4,7.9,2.4c1.9,0,4.3-0.6,4.3-2.5
				c0-1.3-1.5-2-3.6-2.9l-0.7-0.3c-3.5-1.4-6.7-3.8-6.7-8.2c0-6.8,5.6-9.7,12.1-9.7c4.9,0,8.4,1.4,9.6,2L537.4,186.7z"/>
			<path class="st7" d="M562.5,185.9h-6.6l-1.7,12.1c-0.1,0.4-0.1,0.6-0.1,0.7c0,1.8,1.2,2.2,2.8,2.2c1.3,0,3.2-0.6,3.9-1l-0.5,6.7
				c-1,0.5-4,1.4-7.6,1.4c-5.2,0-7.8-2.4-7.8-7.3c0-0.7,0.1-1.5,0.2-2.3l1.8-12.6h-5.7l1-7.2h5.7l1-7l9.1-1l-1.1,8h6.6L562.5,185.9z
				"/>
			<path class="st7" d="M588,207.1h-22.8l5.3-37.9h9.2l-4.3,30.6l13.6,0.1L588,207.1z"/>
			<path class="st7" d="M618.6,207.1h-7.9l0.3-4.3h-0.1c-1,1.6-4.2,5.1-9.1,5.1c-5.8,0-8.7-3.9-8.7-10.9c0-11.2,4.9-19.3,13.5-19.3
				c4,0,6.4,1.9,7,2.9h0.1l0.3-2h8.6L618.6,207.1z M608.2,185c-3.1,0-4.9,3-5.5,6.5l-0.5,3.7c-0.1,0.5-0.1,1.1-0.1,1.5
				c0,2.5,1.1,4,3.2,4c3,0,5.7-4,6.2-7.9l0.9-6.1C611.9,186.2,610.4,185,608.2,185z"/>
			<path class="st7" d="M652.7,207.1h-9l2.5-17.5c0.1-0.4,0.1-0.6,0.1-0.9c0-1.4-0.5-3.4-2.8-3.4c-3.6,0-6.4,4.8-6.9,8.4l-1.9,13.4
				h-9l4-28.4h8.2l-0.6,4.5h0.1c1.1-1.8,4.7-5.3,10.2-5.3c5.2,0,8,3.2,8,8.2c0,0.7-0.1,1.4-0.2,2.2L652.7,207.1z"/>
			<path class="st7" d="M668.4,196.5v0.5c0,2,1.6,4,5.2,4c4.3,0,8.2-2.3,9.7-3.4l-0.6,7.4c-1.4,1-5.5,3-10.9,3
				c-7.4,0-12.2-3.7-12.2-11.4c0-13.1,7.5-18.7,16-18.7c7.2,0,10.9,3.6,10.9,8.8C686.6,194.1,676,196.5,668.4,196.5z M675.2,183.7
				c-3,0-5.7,2.6-6.3,7c5.3,0,9.4-1.5,9.4-4.1C678.3,184.7,677.2,183.7,675.2,183.7z"/>
		</g>
	</g>
	<g class="st1">
		<polygon class="st8" points="48.3,263.3 17,263.3 23.8,255.8 48.3,255.8 		"/>
		<polygon class="st8" points="48.3,278.5 3.3,278.5 10,270.7 48.3,270.7 		"/>
		<polygon class="st8" points="48.3,293.7 -10.3,293.7 -3.6,286.3 48.3,286.3 		"/>
	</g>
	<g class="st1">
		<path class="st8" d="M57.9,263.2v9.1h12.2v7.4H57.9v14h-9.2v-37.9h22.4v7.4H57.9z"/>
		<path class="st8" d="M92.8,293.7l-0.5-3.2c-1.4,2.2-3.8,4.1-8,4.1c-7.8,0-10.7-5.8-10.7-15c0-8.8,3.2-15,11.1-15
			c4.4,0,6.5,1.9,7.6,4h0.1l0.4-3.2h8.1v28.4h-8.1L92.8,293.7L92.8,293.7z M91.9,277.5c0-3.6-1.9-5.9-4.4-5.9
			c-3.3,0-4.6,2.6-4.6,6.1v3.6c0,4,1.6,6.1,4.4,6.1c3,0,4.7-2.6,4.7-5.8L91.9,277.5L91.9,277.5z"/>
		<path class="st8" d="M115.2,294.5c-3.5,0-6.7-0.6-9.8-2l0.5-6.8c2.5,1.4,5.5,2.3,8.3,2.3c3.4,0,4-1.2,4-2.4c0-1.3-0.9-1.9-3.3-2.8
			l-1.9-0.6c-4-1.4-7.4-3.6-7.4-9.1c0-6,4.9-8.7,11.8-8.7c3.1,0,6.5,0.9,8.5,1.8l-0.4,6.8c-2.5-1.3-5.6-2.2-7.4-2.2
			c-2.4,0-3.2,0.8-3.2,1.9c0,1.2,1,1.9,3.5,2.8l1.9,0.6c3.8,1.3,7.2,3.5,7.2,9C127.2,291.1,123,294.5,115.2,294.5z"/>
		<path class="st8" d="M142.6,294.6c-5.7,0-8.3-3-8.3-8.6l0.1-13.6h-5.7v-7.2h5.7l0.1-7l9-1l-0.1,8h6.6v7.2h-6.6l-0.1,11.7
			c0,2.6,0.9,3.3,3,3.3c1.2,0,2.8-0.4,3.4-0.6l0.4,6.4C148.9,293.7,145.9,294.6,142.6,294.6z"/>
		<path class="st8" d="M154.4,293.7v-37.9h9.2v30.6l13.6,0.1v7.2H154.4z"/>
		<path class="st8" d="M198.5,293.7l-0.5-3.2c-1.4,2.2-3.8,4.1-8,4.1c-7.8,0-10.7-5.8-10.7-15c0-8.8,3.2-15,11.1-15
			c4.4,0,6.5,1.9,7.6,4h0.1l0.4-3.2h8.1v28.4h-8.1V293.7z M197.6,277.5c0-3.6-1.9-5.9-4.4-5.9c-3.3,0-4.6,2.6-4.6,6.1v3.6
			c0,4,1.6,6.1,4.4,6.1c3,0,4.7-2.6,4.7-5.8v-4.1H197.6z"/>
		<path class="st8" d="M230.5,293.7v-16.9c0-2.4-0.8-4.5-4.1-4.5c-2.7,0-4.9,2-4.9,4.3v17.1h-9v-28.4h8.6v3.2h0.1c1-1.3,4.2-4,9-4
			c5.1,0,9.3,2.5,9.3,9.5v19.7L230.5,293.7L230.5,293.7z"/>
		<path class="st8" d="M269.6,281.8h-16.9v0.3c0,2.6,1.5,5.3,6.2,5.3c3.2,0,6.3-0.9,8.9-2l0.4,6.8c-2.2,1.2-5.7,2.2-10.3,2.2
			c-11.1,0-14-5.6-14-14.9c0-9.1,3.6-15.2,13.9-15.2c9.1,0,12,5.4,12,14.1C269.7,279.1,269.7,281,269.6,281.8z M257.3,270.3
			c-3.4,0-4.8,3-4.8,5.9h8.9C261.4,273.5,260.9,270.3,257.3,270.3z"/>
	</g>
	<g class="st1">
		<polygon class="st8" points="460.3,264 425.6,264 432.3,256.5 461.5,256.5 		"/>
		<polygon class="st8" points="458.2,279.2 411.9,279.2 418.6,271.5 459.4,271.5 		"/>
		<polygon class="st8" points="456,294.4 398.3,294.4 405,287.1 457.2,287.1 		"/>
	</g>
	<g class="st1">
		<g>
			<path class="st8" d="M482.7,263.9l-13.2,0.1l-1.2,9.1h12.2l-1.1,7.4h-12.2l-1.9,14H456l5.3-37.9h22.4L482.7,263.9z"/>
			<path class="st8" d="M508.6,294.4h-7.9l0.3-4.3h-0.1c-1,1.6-4.2,5.1-9.1,5.1c-5.8,0-8.7-3.9-8.7-10.9c0-11.2,4.9-19.3,13.5-19.3
				c4,0,6.4,1.9,7,2.9h0.1l0.3-2h8.6L508.6,294.4z M498.2,272.3c-3.1,0-4.9,3-5.5,6.5l-0.5,3.7c-0.1,0.5-0.1,1.1-0.1,1.5
				c0,2.5,1.1,4,3.2,4c3,0,5.7-4,6.2-7.9l0.9-6.1C501.9,273.5,500.4,272.3,498.2,272.3z"/>
			<path class="st8" d="M537.4,274c-1.3-0.8-4.8-2.4-7.8-2.4c-1.2,0-3.2,0.3-3.2,2c0,1.3,1.1,1.9,3.1,2.7l0.8,0.3
				c3.4,1.4,7.2,3.3,7.2,8.2c0,7.4-6.1,10.4-13.2,10.4c-4.8,0-8.4-1.4-9.6-2l1.4-6.9c1.2,0.8,4.4,2.4,7.9,2.4c1.9,0,4.3-0.6,4.3-2.5
				c0-1.3-1.5-2-3.6-2.9L524,283c-3.5-1.4-6.7-3.8-6.7-8.2c0-6.8,5.6-9.7,12.1-9.7c4.9,0,8.4,1.4,9.6,2L537.4,274z"/>
			<path class="st8" d="M562.5,273.2h-6.6l-1.7,12.1c-0.1,0.4-0.1,0.6-0.1,0.7c0,1.8,1.2,2.2,2.8,2.2c1.3,0,3.2-0.6,3.9-1l-0.5,6.7
				c-1,0.5-4,1.4-7.6,1.4c-5.2,0-7.8-2.4-7.8-7.3c0-0.7,0.1-1.5,0.2-2.3l1.8-12.6h-5.7l1-7.2h5.7l1-7l9.1-1l-1.1,8h6.6L562.5,273.2z
				"/>
			<path class="st8" d="M588,294.4h-22.8l5.3-37.9h9.2l-4.3,30.6l13.6,0.1L588,294.4z"/>
			<path class="st8" d="M618.6,294.4h-7.9l0.3-4.3h-0.1c-1,1.6-4.2,5.1-9.1,5.1c-5.8,0-8.7-3.9-8.7-10.9c0-11.2,4.9-19.3,13.5-19.3
				c4,0,6.4,1.9,7,2.9h0.1l0.3-2h8.6L618.6,294.4z M608.2,272.3c-3.1,0-4.9,3-5.5,6.5l-0.5,3.7c-0.1,0.5-0.1,1.1-0.1,1.5
				c0,2.5,1.1,4,3.2,4c3,0,5.7-4,6.2-7.9l0.9-6.1C611.9,273.5,610.4,272.3,608.2,272.3z"/>
			<path class="st8" d="M652.7,294.4h-9l2.5-17.5c0.1-0.4,0.1-0.6,0.1-0.9c0-1.4-0.5-3.4-2.8-3.4c-3.6,0-6.4,4.8-6.9,8.4l-1.9,13.4
				h-9l4-28.4h8.2l-0.6,4.5h0.1c1.1-1.8,4.7-5.3,10.2-5.3c5.2,0,8,3.2,8,8.2c0,0.7-0.1,1.4-0.2,2.2L652.7,294.4z"/>
			<path class="st8" d="M668.4,283.8v0.5c0,2,1.6,4,5.2,4c4.3,0,8.2-2.3,9.7-3.4l-0.6,7.4c-1.4,1-5.5,3-10.9,3
				c-7.4,0-12.2-3.7-12.2-11.4c0-13.1,7.5-18.7,16-18.7c7.2,0,10.9,3.6,10.9,8.8C686.6,281.4,676,283.8,668.4,283.8z M675.2,271
				c-3,0-5.7,2.6-6.3,7c5.3,0,9.4-1.5,9.4-4.1C678.3,272,677.2,271,675.2,271z"/>
		</g>
	</g>
	<g class="st1">
		<polygon class="st9" points="48.3,351.4 17,351.4 23.8,343.8 48.3,343.8 		"/>
		<polygon class="st9" points="48.3,366.5 3.3,366.5 10,358.8 48.3,358.8 		"/>
		<polygon class="st9" points="48.3,381.7 -10.3,381.7 -3.6,374.4 48.3,374.4 		"/>
	</g>
	<g class="st1">
		<path class="st9" d="M57.9,351.3v9.1h12.2v7.4H57.9v14h-9.2v-37.9h22.4v7.4H57.9z"/>
		<path class="st9" d="M92.8,381.7l-0.5-3.2c-1.4,2.2-3.8,4.1-8,4.1c-7.8,0-10.7-5.8-10.7-15c0-8.8,3.2-15,11.1-15
			c4.4,0,6.5,1.9,7.6,4h0.1l0.4-3.2h8.1v28.4L92.8,381.7L92.8,381.7z M91.9,365.5c0-3.6-1.9-5.9-4.4-5.9c-3.3,0-4.6,2.6-4.6,6.1v3.6
			c0,4,1.6,6.1,4.4,6.1c3,0,4.7-2.6,4.7-5.8L91.9,365.5L91.9,365.5z"/>
		<path class="st9" d="M115.2,382.6c-3.5,0-6.7-0.6-9.8-2l0.5-6.8c2.5,1.4,5.5,2.3,8.3,2.3c3.4,0,4-1.2,4-2.4c0-1.3-0.9-1.9-3.3-2.8
			l-1.9-0.6c-4-1.4-7.4-3.6-7.4-9.1c0-6,4.9-8.7,11.8-8.7c3.1,0,6.5,0.9,8.5,1.8l-0.4,6.8c-2.5-1.3-5.6-2.2-7.4-2.2
			c-2.4,0-3.2,0.8-3.2,1.9c0,1.2,1,1.9,3.5,2.8l1.9,0.6c3.8,1.3,7.2,3.5,7.2,9C127.2,379.2,123,382.6,115.2,382.6z"/>
		<path class="st9" d="M142.6,382.6c-5.7,0-8.3-3-8.3-8.6l0.1-13.6h-5.7v-7.2h5.7l0.1-7l9-1l-0.1,8h6.6v7.2h-6.6l-0.1,11.7
			c0,2.6,0.9,3.3,3,3.3c1.2,0,2.8-0.4,3.4-0.6l0.4,6.4C148.9,381.7,145.9,382.6,142.6,382.6z"/>
		<path class="st9" d="M154.4,381.7v-37.9h9.2v30.6l13.6,0.1v7.2L154.4,381.7L154.4,381.7z"/>
		<path class="st9" d="M198.5,381.7l-0.5-3.2c-1.4,2.2-3.8,4.1-8,4.1c-7.8,0-10.7-5.8-10.7-15c0-8.8,3.2-15,11.1-15
			c4.4,0,6.5,1.9,7.6,4h0.1l0.4-3.2h8.1v28.4L198.5,381.7L198.5,381.7z M197.6,365.5c0-3.6-1.9-5.9-4.4-5.9c-3.3,0-4.6,2.6-4.6,6.1
			v3.6c0,4,1.6,6.1,4.4,6.1c3,0,4.7-2.6,4.7-5.8v-4.1H197.6z"/>
		<path class="st9" d="M230.5,381.7v-16.9c0-2.4-0.8-4.5-4.1-4.5c-2.7,0-4.9,2-4.9,4.3v17.1h-9v-28.4h8.6v3.2h0.1c1-1.3,4.2-4,9-4
			c5.1,0,9.3,2.5,9.3,9.5v19.7L230.5,381.7L230.5,381.7z"/>
		<path class="st9" d="M269.6,369.9h-16.9v0.3c0,2.6,1.5,5.3,6.2,5.3c3.2,0,6.3-0.9,8.9-2l0.4,6.8c-2.2,1.2-5.7,2.2-10.3,2.2
			c-11.1,0-14-5.6-14-14.9c0-9.1,3.6-15.2,13.9-15.2c9.1,0,12,5.4,12,14.1C269.7,367.2,269.7,369.1,269.6,369.9z M257.3,358.3
			c-3.4,0-4.8,3-4.8,5.9h8.9C261.4,361.6,260.9,358.3,257.3,358.3z"/>
	</g>
	<g class="st1">
		<polygon class="st9" points="460.3,352.1 425.6,352.1 432.3,344.6 461.5,344.6 		"/>
		<polygon class="st9" points="458.2,367.3 411.9,367.3 418.6,359.5 459.4,359.5 		"/>
		<polygon class="st9" points="456,382.5 398.3,382.5 405,375.1 457.2,375.1 		"/>
	</g>
	<g class="st1">
		<g>
			<path class="st9" d="M482.7,352l-13.2,0.1l-1.2,9.1h12.2l-1.1,7.4h-12.2l-1.9,14H456l5.3-37.9h22.4L482.7,352z"/>
			<path class="st9" d="M508.6,382.5h-7.9l0.3-4.3h-0.1c-1,1.6-4.2,5.1-9.1,5.1c-5.8,0-8.7-3.9-8.7-10.9c0-11.2,4.9-19.3,13.5-19.3
				c4,0,6.4,1.9,7,2.9h0.1l0.3-2h8.6L508.6,382.5z M498.2,360.3c-3.1,0-4.9,3-5.5,6.5l-0.5,3.7c-0.1,0.5-0.1,1.1-0.1,1.5
				c0,2.5,1.1,4,3.2,4c3,0,5.7-4,6.2-7.9l0.9-6.1C501.9,361.5,500.4,360.3,498.2,360.3z"/>
			<path class="st9" d="M537.4,362.1c-1.3-0.8-4.8-2.4-7.8-2.4c-1.2,0-3.2,0.3-3.2,2c0,1.3,1.1,1.9,3.1,2.7l0.8,0.3
				c3.4,1.4,7.2,3.3,7.2,8.2c0,7.4-6.1,10.4-13.2,10.4c-4.8,0-8.4-1.4-9.6-2l1.4-6.9c1.2,0.8,4.4,2.4,7.9,2.4c1.9,0,4.3-0.6,4.3-2.5
				c0-1.3-1.5-2-3.6-2.9l-0.7-0.3c-3.5-1.4-6.7-3.8-6.7-8.2c0-6.8,5.6-9.7,12.1-9.7c4.9,0,8.4,1.4,9.6,2L537.4,362.1z"/>
			<path class="st9" d="M562.5,361.2h-6.6l-1.7,12.1c-0.1,0.4-0.1,0.6-0.1,0.7c0,1.8,1.2,2.2,2.8,2.2c1.3,0,3.2-0.6,3.9-1l-0.5,6.7
				c-1,0.5-4,1.4-7.6,1.4c-5.2,0-7.8-2.4-7.8-7.3c0-0.7,0.1-1.5,0.2-2.3l1.8-12.6h-5.7l1-7.2h5.7l1-7l9.1-1l-1.1,8h6.6L562.5,361.2z
				"/>
			<path class="st9" d="M588,382.5h-22.8l5.3-37.9h9.2l-4.3,30.6l13.6,0.1L588,382.5z"/>
			<path class="st9" d="M618.6,382.5h-7.9l0.3-4.3h-0.1c-1,1.6-4.2,5.1-9.1,5.1c-5.8,0-8.7-3.9-8.7-10.9c0-11.2,4.9-19.3,13.5-19.3
				c4,0,6.4,1.9,7,2.9h0.1l0.3-2h8.6L618.6,382.5z M608.2,360.3c-3.1,0-4.9,3-5.5,6.5l-0.5,3.7c-0.1,0.5-0.1,1.1-0.1,1.5
				c0,2.5,1.1,4,3.2,4c3,0,5.7-4,6.2-7.9l0.9-6.1C611.9,361.5,610.4,360.3,608.2,360.3z"/>
			<path class="st9" d="M652.7,382.5h-9l2.5-17.5c0.1-0.4,0.1-0.6,0.1-0.9c0-1.4-0.5-3.4-2.8-3.4c-3.6,0-6.4,4.8-6.9,8.4l-1.9,13.4
				h-9l4-28.4h8.2l-0.6,4.5h0.1c1.1-1.8,4.7-5.3,10.2-5.3c5.2,0,8,3.2,8,8.2c0,0.7-0.1,1.4-0.2,2.2L652.7,382.5z"/>
			<path class="st9" d="M668.4,371.9v0.5c0,2,1.6,4,5.2,4c4.3,0,8.2-2.3,9.7-3.4l-0.6,7.4c-1.4,1-5.5,3-10.9,3
				c-7.4,0-12.2-3.7-12.2-11.4c0-13.1,7.5-18.7,16-18.7c7.2,0,10.9,3.6,10.9,8.8C686.6,369.4,676,371.9,668.4,371.9z M675.2,359.1
				c-3,0-5.7,2.6-6.3,7c5.3,0,9.4-1.5,9.4-4.1C678.3,360.1,677.2,359.1,675.2,359.1z"/>
		</g>
	</g>
	<g class="st1">
		<polygon points="-212.1,4.3 -272.1,4.3 -260.3,-8.6 -210,-8.6 		"/>
		<polygon points="-215.7,30.5 -295.7,30.5 -284.1,17.2 -213.7,17.2 		"/>
		<polygon points="-219.5,56.8 -319.1,56.8 -307.5,44.1 -217.5,44.1 		"/>
		<path d="M-173.5,4.1l-22.8,0.1l-2.2,15.7h21.1l-1.9,12.7h-21.1l-3.3,24.1h-15.9l9.2-65.4h38.6L-173.5,4.1z"/>
	</g>
	<circle class="st10" cx="-245.4" cy="24.1" r="101.5"/>
	<g class="st1">
		<polygon points="-216.6,258.7 -276.6,258.7 -264.8,245.8 -214.5,245.8 		"/>
		<polygon points="-220.2,284.9 -300.2,284.9 -288.6,271.6 -218.2,271.6 		"/>
		<polygon points="-224,311.1 -323.6,311.1 -312,298.5 -222,298.5 		"/>
		<path d="M-169,258.5l-22.8,0.1l-2.2,15.7h21.1l-1.9,12.7h-21.1l-3.3,24.1H-215l9.2-65.4h38.6L-169,258.5z"/>
	</g>
	<circle class="st10" cx="-245.4" cy="278.5" r="101.5"/>
	<polygon class="st1" points="482.8,-84.9 483.7,-92.4 461.3,-92.4 461.3,-92.4 432.3,-92.4 425.6,-84.9 460.3,-84.9 459.2,-77.4 
		418.6,-77.4 411.9,-69.7 458.1,-69.7 457,-61.8 405,-61.8 398.3,-54.5 456,-54.5 456,-54.5 465.2,-54.5 467.4,-69.7 479.6,-69.7 
		480.7,-77.4 468.5,-77.4 469.5,-84.9 	"/>
</g>
<g id="Layer_3" class="st0">
	<g class="st1">
		<polygon class="st4" points="-515.3,-3.4 -546.7,-3.4 -539.9,-10.9 -515.3,-10.9 		"/>
		<polygon class="st4" points="-515.3,11.8 -560.4,11.8 -553.6,4 -515.3,4 		"/>
		<polygon class="st4" points="-515.3,27 -573.9,27 -567.2,19.6 -515.3,19.6 		"/>
	</g>
	<g class="st1">
		<path class="st4" d="M-494.8-3.5v9.1h12.2V13h-12.2v14h-9.2v-37.9h22.4v7.4H-494.8z"/>
		<path class="st4" d="M-459.8,27l-0.5-3.2c-1.4,2.2-3.8,4.1-8,4.1c-7.8,0-10.7-5.8-10.7-15c0-8.8,3.2-15,11.1-15
			c4.4,0,6.5,1.9,7.6,4h0.1l0.4-3.2h8.1v28.4L-459.8,27L-459.8,27z M-460.7,10.8c0-3.6-1.9-5.9-4.4-5.9c-3.3,0-4.6,2.6-4.6,6.1v3.6
			c0,4,1.6,6.1,4.4,6.1c3,0,4.7-2.6,4.7-5.8v-4.1C-460.6,10.8-460.7,10.8-460.7,10.8z"/>
		<path class="st4" d="M-437.5,27.8c-3.5,0-6.7-0.6-9.8-2l0.5-6.8c2.5,1.4,5.5,2.3,8.3,2.3c3.4,0,4-1.2,4-2.4c0-1.3-0.9-1.9-3.3-2.8
			l-1.9-0.6c-4-1.4-7.4-3.6-7.4-9.1c0-6,4.9-8.7,11.8-8.7c3.1,0,6.5,0.9,8.5,1.8l-0.4,6.8c-2.5-1.3-5.6-2.2-7.4-2.2
			c-2.4,0-3.2,0.8-3.2,1.9c0,1.2,1,1.9,3.5,2.8l1.9,0.6c3.8,1.3,7.2,3.5,7.2,9C-425.5,24.4-429.7,27.8-437.5,27.8z"/>
		<path class="st4" d="M-410.1,27.9c-5.7,0-8.3-3-8.3-8.6l0.1-13.6h-5.7v-7.2h5.7l0.1-7l9-1l-0.1,8h6.6v7.2h-6.6l-0.1,11.7
			c0,2.6,0.9,3.3,3,3.3c1.2,0,2.8-0.4,3.4-0.6l0.4,6.4C-403.8,27-406.7,27.9-410.1,27.9z"/>
		<path class="st4" d="M-398.3,27v-37.9h9.2v30.6l13.6,0.1V27C-375.5,27-398.3,27-398.3,27z"/>
		<path class="st4" d="M-354.1,27l-0.5-3.2c-1.4,2.2-3.8,4.1-8,4.1c-7.8,0-10.7-5.8-10.7-15c0-8.8,3.2-15,11.1-15
			c4.4,0,6.5,1.9,7.6,4h0.1l0.4-3.2h8.1v28.4L-354.1,27L-354.1,27z M-355.1,10.8c0-3.6-1.9-5.9-4.4-5.9c-3.3,0-4.6,2.6-4.6,6.1v3.6
			c0,4,1.6,6.1,4.4,6.1c3,0,4.7-2.6,4.7-5.8v-4.1C-355,10.8-355.1,10.8-355.1,10.8z"/>
		<path class="st4" d="M-322.1,27V10.1c0-2.4-0.8-4.5-4.1-4.5c-2.7,0-4.9,2-4.9,4.3V27h-9V-1.4h8.6v3.2h0.1c1-1.3,4.2-4,9-4
			c5.1,0,9.3,2.5,9.3,9.5V27C-313.1,27-322.1,27-322.1,27z"/>
		<path class="st4" d="M-283.1,15.2H-300v0.3c0,2.6,1.5,5.3,6.2,5.3c3.2,0,6.3-0.9,8.9-2l0.4,6.8c-2.2,1.2-5.7,2.2-10.3,2.2
			c-11.1,0-14-5.6-14-14.9c0-9.1,3.6-15.2,13.9-15.2c9.1,0,12,5.4,12,14.1C-282.9,12.4-283,14.3-283.1,15.2z M-295.3,3.6
			c-3.4,0-4.8,3-4.8,5.9h8.9C-291.2,6.9-291.7,3.6-295.3,3.6z"/>
	</g>
	<g class="st1">
		<polygon class="st4" points="32.8,-3.7 -1.9,-3.7 4.9,-11.2 34.1,-11.2 		"/>
		<polygon class="st4" points="30.7,11.5 -15.6,11.5 -8.9,3.7 31.9,3.7 		"/>
		<polygon class="st4" points="28.6,26.7 -29.2,26.7 -22.4,19.3 29.7,19.3 		"/>
	</g>
	<g class="st1">
		<g>
			<path class="st4" d="M66.2-3.8H53l-1.2,9.1H64l-1.1,7.4H50.7l-1.9,14h-9.2l5.3-37.9h22.4L66.2-3.8z"/>
			<path class="st4" d="M92.1,26.7h-7.9l0.3-4.3h-0.1c-1,1.6-4.2,5.1-9.1,5.1c-5.8,0-8.7-3.9-8.7-10.9c0-11.2,4.9-19.3,13.5-19.3
				c4,0,6.4,1.9,7,2.9h0.1l0.3-2h8.6L92.1,26.7z M81.7,4.5c-3.1,0-4.9,3-5.5,6.5l-0.5,3.7c-0.1,0.5-0.1,1.1-0.1,1.5
				c0,2.5,1.1,4,3.2,4c3,0,5.7-4,6.2-7.9l0.9-6.1C85.4,5.7,83.9,4.5,81.7,4.5z"/>
			<path class="st4" d="M120.9,6.3c-1.3-0.8-4.8-2.4-7.8-2.4c-1.2,0-3.2,0.3-3.2,2c0,1.3,1.1,1.9,3.1,2.7l0.8,0.3
				c3.4,1.4,7.2,3.3,7.2,8.2c0,7.4-6.1,10.4-13.2,10.4c-4.8,0-8.4-1.4-9.6-2l1.4-6.9c1.2,0.8,4.4,2.4,7.9,2.4c1.9,0,4.3-0.6,4.3-2.5
				c0-1.3-1.5-2-3.6-2.9l-0.7-0.3c-3.5-1.4-6.7-3.8-6.7-8.2c0-6.8,5.6-9.7,12.1-9.7c4.9,0,8.4,1.4,9.6,2L120.9,6.3z"/>
			<path class="st4" d="M146.1,5.4h-6.6l-1.8,12.1c-0.1,0.4-0.1,0.6-0.1,0.7c0,1.8,1.2,2.2,2.8,2.2c1.3,0,3.2-0.6,3.9-1l-0.5,6.7
				c-1,0.5-4,1.4-7.6,1.4c-5.2,0-7.8-2.4-7.8-7.3c0-0.7,0.1-1.5,0.2-2.3l1.8-12.6h-5.7l1-7.2h5.7l1-7l9.1-1l-1.1,8h6.6L146.1,5.4z"
				/>
			<path class="st4" d="M171.6,26.7h-22.8l5.3-37.9h9.2L159,19.4l13.6,0.1L171.6,26.7z"/>
			<path class="st4" d="M202.1,26.7h-7.9l0.3-4.3h-0.1c-1,1.6-4.2,5.1-9.1,5.1c-5.8,0-8.7-3.9-8.7-10.9c0-11.2,4.9-19.3,13.5-19.3
				c4,0,6.4,1.9,7,2.9h0.1l0.3-2h8.6L202.1,26.7z M191.7,4.5c-3.1,0-4.9,3-5.5,6.5l-0.5,3.7c-0.1,0.5-0.1,1.1-0.1,1.5
				c0,2.5,1.1,4,3.2,4c3,0,5.7-4,6.2-7.9l0.9-6.1C195.4,5.7,193.9,4.5,191.7,4.5z"/>
			<path class="st4" d="M236.3,26.7h-9l2.5-17.5c0.1-0.4,0.1-0.6,0.1-0.9c0-1.4-0.5-3.4-2.8-3.4c-3.6,0-6.4,4.8-6.9,8.4l-1.9,13.4
				h-9l4-28.4h8.2l-0.6,4.5h0.1c1.1-1.8,4.7-5.3,10.2-5.3c5.2,0,8,3.2,8,8.2c0,0.7-0.1,1.4-0.2,2.2L236.3,26.7z"/>
			<path class="st4" d="M252,16.1v0.5c0,2,1.6,4,5.2,4c4.3,0,8.2-2.3,9.7-3.4l-0.6,7.4c-1.4,1-5.5,3-10.9,3
				c-7.4,0-12.2-3.7-12.2-11.4c0-13.1,7.5-18.7,16-18.7c7.2,0,10.9,3.6,10.9,8.8C270.1,13.6,259.6,16.1,252,16.1z M258.7,3.3
				c-3,0-5.7,2.6-6.3,7c5.3,0,9.4-1.5,9.4-4.1C261.8,4.3,260.8,3.3,258.7,3.3z"/>
		</g>
	</g>
	<g class="st1">
		<polygon points="-515.3,-85.6 -546.7,-85.6 -539.9,-93.1 -515.3,-93.1 		"/>
		<polygon points="-515.3,-70.5 -560.4,-70.5 -553.6,-78.2 -515.3,-78.2 		"/>
		<polygon points="-515.3,-55.2 -573.9,-55.2 -567.2,-62.6 -515.3,-62.6 		"/>
	</g>
	<g class="st1">
		<path d="M-494.8-85.7v9.1h12.2v7.4h-12.2v14h-9.2v-37.9h22.4v7.4L-494.8-85.7z"/>
		<path d="M-459.8-55.3l-0.5-3.2c-1.4,2.2-3.8,4.1-8,4.1c-7.8,0-10.7-5.8-10.7-15c0-8.8,3.2-15,11.1-15c4.4,0,6.5,1.9,7.6,4h0.1
			l0.4-3.2h8.1v28.4h-8.1V-55.3z M-460.7-71.4c0-3.6-1.9-5.9-4.4-5.9c-3.3,0-4.6,2.6-4.6,6.1v3.6c0,4,1.6,6.1,4.4,6.1
			c3,0,4.7-2.6,4.7-5.8v-4.1L-460.7-71.4L-460.7-71.4z"/>
		<path d="M-437.5-54.4c-3.5,0-6.7-0.6-9.8-2l0.5-6.8c2.5,1.4,5.5,2.3,8.3,2.3c3.4,0,4-1.2,4-2.4c0-1.3-0.9-1.9-3.3-2.8l-1.9-0.6
			c-4-1.4-7.4-3.6-7.4-9.1c0-6,4.9-8.7,11.8-8.7c3.1,0,6.5,0.9,8.5,1.8l-0.4,6.8c-2.5-1.3-5.6-2.2-7.4-2.2c-2.4,0-3.2,0.8-3.2,1.9
			c0,1.2,1,1.9,3.5,2.8l1.9,0.6c3.8,1.3,7.2,3.5,7.2,9C-425.5-57.8-429.7-54.4-437.5-54.4z"/>
		<path d="M-410.1-54.4c-5.7,0-8.3-3-8.3-8.6l0.1-13.6h-5.7v-7.2h5.7l0.1-7l9-1l-0.1,8h6.6v7.2h-6.6l-0.1,11.7c0,2.6,0.9,3.3,3,3.3
			c1.2,0,2.8-0.4,3.4-0.6l0.4,6.4C-403.8-55.3-406.7-54.4-410.1-54.4z"/>
		<path d="M-398.3-55.3v-37.9h9.2v30.6l13.6,0.1v7.2H-398.3z"/>
		<path d="M-354.1-55.3l-0.5-3.2c-1.4,2.2-3.8,4.1-8,4.1c-7.8,0-10.7-5.8-10.7-15c0-8.8,3.2-15,11.1-15c4.4,0,6.5,1.9,7.6,4h0.1
			l0.4-3.2h8.1v28.4h-8.1V-55.3z M-355.1-71.4c0-3.6-1.9-5.9-4.4-5.9c-3.3,0-4.6,2.6-4.6,6.1v3.6c0,4,1.6,6.1,4.4,6.1
			c3,0,4.7-2.6,4.7-5.8v-4.1L-355.1-71.4L-355.1-71.4z"/>
		<path d="M-322.1-55.3v-16.9c0-2.4-0.8-4.5-4.1-4.5c-2.7,0-4.9,2-4.9,4.3v17.1h-9v-28.4h8.6v3.2h0.1c1-1.3,4.2-4,9-4
			c5.1,0,9.3,2.5,9.3,9.5v19.7L-322.1-55.3L-322.1-55.3z"/>
		<path d="M-283.1-67.1H-300v0.3c0,2.6,1.5,5.3,6.2,5.3c3.2,0,6.3-0.9,8.9-2l0.4,6.8c-2.2,1.2-5.7,2.2-10.3,2.2
			c-11.1,0-14-5.6-14-14.9c0-9.1,3.6-15.2,13.9-15.2c9.1,0,12,5.4,12,14.1C-282.9-69.8-283-67.9-283.1-67.1z M-295.3-78.7
			c-3.4,0-4.8,3-4.8,5.9h8.9C-291.2-75.4-291.7-78.7-295.3-78.7z"/>
	</g>
	<g class="st1">
		<polygon points="32.8,-85.9 -1.9,-85.9 4.9,-93.4 34.1,-93.4 		"/>
		<polygon points="30.7,-70.8 -15.6,-70.8 -8.9,-78.5 31.9,-78.5 		"/>
		<polygon points="28.6,-55.6 -29.2,-55.6 -22.4,-62.9 29.7,-62.9 		"/>
	</g>
	<g class="st1">
		<g>
			<path d="M66.2-86.1L53-86l-1.2,9.1H64l-1.1,7.4H50.7l-1.9,14h-9.2l5.3-37.9h22.4L66.2-86.1z"/>
			<path d="M92.1-55.6h-7.9l0.3-4.3h-0.1c-1,1.6-4.2,5.1-9.1,5.1c-5.8,0-8.7-3.9-8.7-10.9c0-11.2,4.9-19.3,13.5-19.3
				c4,0,6.4,1.9,7,2.9h0.1l0.3-2h8.6L92.1-55.6z M81.7-77.7c-3.1,0-4.9,3-5.5,6.5l-0.5,3.7c-0.1,0.5-0.1,1.1-0.1,1.5
				c0,2.5,1.1,4,3.2,4c3,0,5.7-4,6.2-7.9l0.9-6.1C85.4-76.5,83.9-77.7,81.7-77.7z"/>
			<path d="M120.9-75.9c-1.3-0.8-4.8-2.4-7.8-2.4c-1.2,0-3.2,0.3-3.2,2c0,1.3,1.1,1.9,3.1,2.7l0.8,0.3c3.4,1.4,7.2,3.3,7.2,8.2
				c0,7.4-6.1,10.4-13.2,10.4c-4.8,0-8.4-1.4-9.6-2l1.4-6.9c1.2,0.8,4.4,2.4,7.9,2.4c1.9,0,4.3-0.6,4.3-2.5c0-1.3-1.5-2-3.6-2.9
				l-0.7-0.3c-3.5-1.4-6.7-3.8-6.7-8.2c0-6.8,5.6-9.7,12.1-9.7c4.9,0,8.4,1.4,9.6,2L120.9-75.9z"/>
			<path d="M146.1-76.8h-6.6l-1.7,12.1c-0.1,0.4-0.1,0.6-0.1,0.7c0,1.8,1.2,2.2,2.8,2.2c1.3,0,3.2-0.6,3.9-1l-0.5,6.7
				c-1,0.5-4,1.4-7.6,1.4c-5.2,0-7.8-2.4-7.8-7.3c0-0.7,0.1-1.5,0.2-2.3l1.8-12.6h-5.7l1-7.2h5.7l1-7l9.1-1l-1.1,8h6.6L146.1-76.8z"
				/>
			<path d="M171.6-55.6h-22.8l5.3-37.9h9.2L159-62.9l13.6,0.1L171.6-55.6z"/>
			<path d="M202.1-55.6h-7.9l0.3-4.3h-0.1c-1,1.6-4.2,5.1-9.1,5.1c-5.8,0-8.7-3.9-8.7-10.9c0-11.2,4.9-19.3,13.5-19.3
				c4,0,6.4,1.9,7,2.9h0.1l0.3-2h8.6L202.1-55.6z M191.7-77.7c-3.1,0-4.9,3-5.5,6.5l-0.5,3.7c-0.1,0.5-0.1,1.1-0.1,1.5
				c0,2.5,1.1,4,3.2,4c3,0,5.7-4,6.2-7.9l0.9-6.1C195.4-76.5,193.9-77.7,191.7-77.7z"/>
			<path d="M236.3-55.6h-9l2.5-17.5c0.1-0.4,0.1-0.6,0.1-0.9c0-1.4-0.5-3.4-2.8-3.4c-3.6,0-6.4,4.8-6.9,8.4l-1.9,13.4h-9l4-28.4h8.2
				l-0.6,4.5h0.1c1.1-1.8,4.7-5.3,10.2-5.3c5.2,0,8,3.2,8,8.2c0,0.7-0.1,1.4-0.2,2.2L236.3-55.6z"/>
			<path d="M252-66.2v0.5c0,2,1.6,4,5.2,4c4.3,0,8.2-2.3,9.7-3.4l-0.6,7.4c-1.4,1-5.5,3-10.9,3c-7.4,0-12.2-3.7-12.2-11.4
				c0-13.1,7.5-18.7,16-18.7c7.2,0,10.9,3.6,10.9,8.8C270.1-68.6,259.6-66.2,252-66.2z M258.7-79c-3,0-5.7,2.6-6.3,7
				c5.3,0,9.4-1.5,9.4-4.1C261.8-77.9,260.8-79,258.7-79z"/>
		</g>
	</g>
	<g class="st1">
		<polygon class="st6" points="-515.3,85.9 -546.7,85.9 -539.9,78.4 -515.3,78.4 		"/>
		<polygon class="st6" points="-515.3,101.1 -560.4,101.1 -553.6,93.4 -515.3,93.3 		"/>
		<polygon class="st6" points="-515.3,116.3 -573.9,116.3 -567.2,109 -515.3,108.9 		"/>
	</g>
	<g class="st1">
		<path class="st6" d="M-494.8,85.8v9.1h12.2v7.4h-12.2v14h-9.2V78.4h22.4v7.4H-494.8z"/>
		<path class="st6" d="M-459.8,116.3l-0.5-3.2c-1.4,2.2-3.8,4.1-8,4.1c-7.8,0-10.7-5.8-10.7-15c0-8.8,3.2-15,11.1-15
			c4.4,0,6.5,1.9,7.6,4h0.1l0.4-3.2h8.1v28.4L-459.8,116.3L-459.8,116.3z M-460.7,100.1c0-3.6-1.9-5.9-4.4-5.9
			c-3.3,0-4.6,2.6-4.6,6.1v3.6c0,4,1.6,6.1,4.4,6.1c3,0,4.7-2.6,4.7-5.8v-4.1H-460.7z"/>
		<path class="st6" d="M-437.5,117.1c-3.5,0-6.7-0.6-9.8-2l0.5-6.8c2.5,1.4,5.5,2.3,8.3,2.3c3.4,0,4-1.2,4-2.4
			c0-1.3-0.9-1.9-3.3-2.8l-1.9-0.6c-4-1.4-7.4-3.6-7.4-9.1c0-6,4.9-8.7,11.8-8.7c3.1,0,6.5,0.9,8.5,1.8l-0.4,6.8
			c-2.5-1.3-5.6-2.2-7.4-2.2c-2.4,0-3.2,0.8-3.2,1.9c0,1.2,1,1.9,3.5,2.8l1.9,0.6c3.8,1.3,7.2,3.5,7.2,9
			C-425.5,113.7-429.7,117.1-437.5,117.1z"/>
		<path class="st6" d="M-410.1,117.2c-5.7,0-8.3-3-8.3-8.6l0.1-13.6h-5.7v-7.1h5.7l0.1-7l9-1l-0.1,8h6.6v7.2h-6.6l-0.1,11.7
			c0,2.6,0.9,3.3,3,3.3c1.2,0,2.8-0.4,3.4-0.6l0.4,6.4C-403.8,116.3-406.7,117.2-410.1,117.2z"/>
		<path class="st6" d="M-398.3,116.3V78.4h9.2V109l13.6,0.1v7.2H-398.3z"/>
		<path class="st6" d="M-354.1,116.3l-0.5-3.2c-1.4,2.2-3.8,4.1-8,4.1c-7.8,0-10.7-5.8-10.7-15c0-8.8,3.2-15,11.1-15
			c4.4,0,6.5,1.9,7.6,4h0.1l0.4-3.2h8.1v28.4L-354.1,116.3L-354.1,116.3z M-355.1,100.1c0-3.6-1.9-5.9-4.4-5.9
			c-3.3,0-4.6,2.6-4.6,6.1v3.6c0,4,1.6,6.1,4.4,6.1c3,0,4.7-2.6,4.7-5.8v-4.1H-355.1z"/>
		<path class="st6" d="M-322.1,116.3V99.4c0-2.4-0.8-4.5-4.1-4.5c-2.7,0-4.9,2-4.9,4.3v17.1h-9V87.9h8.6v3.2h0.1c1-1.3,4.2-4,9-4
			c5.1,0,9.3,2.5,9.3,9.5v19.7C-313.1,116.3-322.1,116.3-322.1,116.3z"/>
		<path class="st6" d="M-283.1,104.5H-300v0.3c0,2.6,1.5,5.3,6.2,5.3c3.2,0,6.3-0.9,8.9-2l0.4,6.8c-2.2,1.2-5.7,2.2-10.3,2.2
			c-11.1,0-14-5.6-14-14.9c0-9.1,3.6-15.2,13.9-15.2c9.1,0,12,5.4,12,14.1C-282.9,101.7-283,103.6-283.1,104.5z M-295.3,92.9
			c-3.4,0-4.8,3-4.8,5.9h8.9C-291.2,96.2-291.7,92.9-295.3,92.9z"/>
	</g>
	<g class="st1">
		<polygon class="st6" points="32.8,85.6 -1.9,85.6 4.9,78.1 34.1,78.1 		"/>
		<polygon class="st6" points="30.7,100.8 -15.6,100.8 -8.9,93 31.9,93 		"/>
		<polygon class="st6" points="28.6,116 -29.2,116 -22.4,108.6 29.7,108.6 		"/>
	</g>
	<g class="st1">
		<g>
			<path class="st6" d="M66.2,85.5H53l-1.2,9.1H64l-1.1,7.4H50.7l-1.9,14h-9.2l5.3-37.9h22.4L66.2,85.5z"/>
			<path class="st6" d="M92.1,116h-7.9l0.3-4.3h-0.1c-1,1.6-4.2,5.1-9.1,5.1c-5.8,0-8.7-3.9-8.7-10.9c0-11.2,4.9-19.3,13.5-19.3
				c4,0,6.4,1.9,7,2.9h0.1l0.3-2h8.6L92.1,116z M81.7,93.8c-3.1,0-4.9,3-5.5,6.5l-0.5,3.7c-0.1,0.5-0.1,1.1-0.1,1.5
				c0,2.5,1.1,4,3.2,4c3,0,5.7-4,6.2-7.9l0.9-6.1C85.4,95,83.9,93.8,81.7,93.8z"/>
			<path class="st6" d="M120.9,95.6c-1.3-0.8-4.8-2.4-7.8-2.4c-1.2,0-3.2,0.3-3.2,2c0,1.3,1.1,1.9,3.1,2.7l0.8,0.3
				c3.4,1.4,7.2,3.3,7.2,8.2c0,7.4-6.1,10.4-13.2,10.4c-4.8,0-8.4-1.4-9.6-2l1.4-6.9c1.2,0.8,4.4,2.4,7.9,2.4c1.9,0,4.3-0.6,4.3-2.5
				c0-1.3-1.5-2-3.6-2.9l-0.7-0.3c-3.5-1.4-6.7-3.8-6.7-8.2c0-6.8,5.6-9.7,12.1-9.7c4.9,0,8.4,1.4,9.6,2L120.9,95.6z"/>
			<path class="st6" d="M146.1,94.7h-6.6l-1.7,12.1c-0.1,0.4-0.1,0.6-0.1,0.7c0,1.8,1.2,2.2,2.8,2.2c1.3,0,3.2-0.6,3.9-1l-0.5,6.7
				c-1,0.5-4,1.4-7.6,1.4c-5.2,0-7.8-2.4-7.8-7.3c0-0.7,0.1-1.5,0.2-2.3l1.8-12.6h-5.7l1-7.2h5.7l1-7l9.1-1l-1.1,8h6.6L146.1,94.7z"
				/>
			<path class="st6" d="M171.6,116h-22.8l5.3-37.9h9.2l-4.3,30.6l13.6,0.1L171.6,116z"/>
			<path class="st6" d="M202.1,116h-7.9l0.3-4.3h-0.1c-1,1.6-4.2,5.1-9.1,5.1c-5.8,0-8.7-3.9-8.7-10.9c0-11.2,4.9-19.3,13.5-19.3
				c4,0,6.4,1.9,7,2.9h0.1l0.3-2h8.6L202.1,116z M191.7,93.8c-3.1,0-4.9,3-5.5,6.5l-0.5,3.7c-0.1,0.5-0.1,1.1-0.1,1.5
				c0,2.5,1.1,4,3.2,4c3,0,5.7-4,6.2-7.9l0.9-6.1C195.4,95,193.9,93.8,191.7,93.8z"/>
			<path class="st6" d="M236.3,116h-9l2.5-17.5c0.1-0.4,0.1-0.6,0.1-0.9c0-1.4-0.5-3.4-2.8-3.4c-3.6,0-6.4,4.8-6.9,8.4l-1.9,13.4h-9
				l4-28.4h8.2l-0.6,4.5h0.1c1.1-1.8,4.7-5.3,10.2-5.3c5.2,0,8,3.2,8,8.2c0,0.7-0.1,1.4-0.2,2.2L236.3,116z"/>
			<path class="st6" d="M252,105.4v0.5c0,2,1.6,4,5.2,4c4.3,0,8.2-2.3,9.7-3.4l-0.6,7.4c-1.4,1-5.5,3-10.9,3
				c-7.4,0-12.2-3.7-12.2-11.4c0-13.1,7.5-18.7,16-18.7c7.2,0,10.9,3.6,10.9,8.8C270.1,102.9,259.6,105.4,252,105.4z M258.7,92.6
				c-3,0-5.7,2.6-6.3,7c5.3,0,9.4-1.5,9.4-4.1C261.8,93.6,260.8,92.6,258.7,92.6z"/>
		</g>
	</g>
	<g class="st1">
		<polygon class="st7" points="-515.3,176 -546.7,176 -539.9,168.5 -515.3,168.5 		"/>
		<polygon class="st7" points="-515.3,191.2 -560.4,191.2 -553.6,183.4 -515.3,183.4 		"/>
		<polygon class="st7" points="-515.3,206.4 -573.9,206.4 -567.2,199 -515.3,199 		"/>
	</g>
	<g class="st1">
		<path class="st7" d="M-494.8,175.9v9.1h12.2v7.4h-12.2v14h-9.2v-37.9h22.4v7.4H-494.8z"/>
		<path class="st7" d="M-459.8,206.3l-0.5-3.2c-1.4,2.2-3.8,4.1-8,4.1c-7.8,0-10.7-5.8-10.7-15c0-8.8,3.2-15,11.1-15
			c4.4,0,6.5,1.9,7.6,4h0.1l0.4-3.2h8.1v28.4h-8.1V206.3z M-460.7,190.2c0-3.6-1.9-5.9-4.4-5.9c-3.3,0-4.6,2.6-4.6,6.1v3.6
			c0,4,1.6,6.1,4.4,6.1c3,0,4.7-2.6,4.7-5.8v-4.1C-460.6,190.2-460.7,190.2-460.7,190.2z"/>
		<path class="st7" d="M-437.5,207.2c-3.5,0-6.7-0.6-9.8-2l0.5-6.8c2.5,1.4,5.5,2.3,8.3,2.3c3.4,0,4-1.2,4-2.4
			c0-1.3-0.9-1.9-3.3-2.8l-1.9-0.6c-4-1.4-7.4-3.6-7.4-9.1c0-6,4.9-8.7,11.8-8.7c3.1,0,6.5,0.9,8.5,1.8l-0.4,6.8
			c-2.5-1.3-5.6-2.2-7.4-2.2c-2.4,0-3.2,0.8-3.2,1.9c0,1.2,1,1.9,3.5,2.8l1.9,0.6c3.8,1.3,7.2,3.5,7.2,9
			C-425.5,203.8-429.7,207.2-437.5,207.2z"/>
		<path class="st7" d="M-410.1,207.3c-5.7,0-8.3-3-8.3-8.6l0.1-13.6h-5.7v-7.2h5.7l0.1-7l9-1l-0.1,8h6.6v7.2h-6.6l-0.1,11.7
			c0,2.6,0.9,3.3,3,3.3c1.2,0,2.8-0.4,3.4-0.6l0.4,6.4C-403.8,206.3-406.7,207.3-410.1,207.3z"/>
		<path class="st7" d="M-398.3,206.3v-37.8h9.2v30.6l13.6,0.1v7.2L-398.3,206.3L-398.3,206.3z"/>
		<path class="st7" d="M-354.1,206.3l-0.5-3.2c-1.4,2.2-3.8,4.1-8,4.1c-7.8,0-10.7-5.8-10.7-15c0-8.8,3.2-15,11.1-15
			c4.4,0,6.5,1.9,7.6,4h0.1l0.4-3.2h8.1v28.4h-8.1V206.3z M-355.1,190.2c0-3.6-1.9-5.9-4.4-5.9c-3.3,0-4.6,2.6-4.6,6.1v3.6
			c0,4,1.6,6.1,4.4,6.1c3,0,4.7-2.6,4.7-5.8v-4.1C-355,190.2-355.1,190.2-355.1,190.2z"/>
		<path class="st7" d="M-322.1,206.3v-16.9c0-2.4-0.8-4.5-4.1-4.5c-2.7,0-4.9,2-4.9,4.3v17.1h-9V178h8.6v3.2h0.1c1-1.3,4.2-4,9-4
			c5.1,0,9.3,2.5,9.3,9.5v19.7L-322.1,206.3L-322.1,206.3z"/>
		<path class="st7" d="M-283.1,194.5H-300v0.3c0,2.6,1.5,5.3,6.2,5.3c3.2,0,6.3-0.9,8.9-2l0.4,6.8c-2.2,1.2-5.7,2.2-10.3,2.2
			c-11.1,0-14-5.6-14-14.9c0-9.1,3.6-15.2,13.9-15.2c9.1,0,12,5.4,12,14.1C-282.9,191.8-283,193.7-283.1,194.5z M-295.3,183
			c-3.4,0-4.8,3-4.8,5.9h8.9C-291.2,186.2-291.7,183-295.3,183z"/>
	</g>
	<g class="st1">
		<polygon class="st7" points="32.8,175.7 -1.9,175.7 4.9,168.2 34.1,168.2 		"/>
		<polygon class="st7" points="30.7,190.8 -15.6,190.8 -8.9,183.1 31.9,183.1 		"/>
		<polygon class="st7" points="28.6,206.1 -29.2,206.1 -22.4,198.7 29.7,198.7 		"/>
	</g>
	<g class="st1">
		<g>
			<path class="st7" d="M66.2,175.5L53,175.6l-1.2,9.1H64l-1.1,7.4H50.7l-1.9,14h-9.2l5.3-37.9h22.4L66.2,175.5z"/>
			<path class="st7" d="M92.1,206.1h-7.9l0.3-4.3h-0.1c-1,1.6-4.2,5.1-9.1,5.1c-5.8,0-8.7-3.9-8.7-10.9c0-11.2,4.9-19.3,13.5-19.3
				c4,0,6.4,1.9,7,2.9h0.1l0.3-2h8.6L92.1,206.1z M81.7,183.9c-3.1,0-4.9,3-5.5,6.5l-0.5,3.7c-0.1,0.5-0.1,1.1-0.1,1.5
				c0,2.5,1.1,4,3.2,4c3,0,5.7-4,6.2-7.9l0.9-6.1C85.4,185.1,83.9,183.9,81.7,183.9z"/>
			<path class="st7" d="M120.9,185.7c-1.3-0.8-4.8-2.4-7.8-2.4c-1.2,0-3.2,0.3-3.2,2c0,1.3,1.1,1.9,3.1,2.7l0.8,0.3
				c3.4,1.4,7.2,3.3,7.2,8.2c0,7.4-6.1,10.4-13.2,10.4c-4.8,0-8.4-1.4-9.6-2l1.4-6.9c1.2,0.8,4.4,2.4,7.9,2.4c1.9,0,4.3-0.6,4.3-2.5
				c0-1.3-1.5-2-3.6-2.9l-0.7-0.3c-3.5-1.4-6.7-3.8-6.7-8.2c0-6.8,5.6-9.7,12.1-9.7c4.9,0,8.4,1.4,9.6,2L120.9,185.7z"/>
			<path class="st7" d="M146.1,184.8h-6.6l-1.7,12.1c-0.1,0.4-0.1,0.6-0.1,0.7c0,1.8,1.2,2.2,2.8,2.2c1.3,0,3.2-0.6,3.9-1l-0.5,6.7
				c-1,0.5-4,1.4-7.6,1.4c-5.2,0-7.8-2.4-7.8-7.3c0-0.7,0.1-1.5,0.2-2.3l1.8-12.6h-5.7l1-7.2h5.7l1-7l9.1-1l-1.1,8h6.6L146.1,184.8z
				"/>
			<path class="st7" d="M171.6,206.1h-22.8l5.3-37.9h9.2l-4.3,30.6l13.6,0.1L171.6,206.1z"/>
			<path class="st7" d="M202.1,206.1h-7.9l0.3-4.3h-0.1c-1,1.6-4.2,5.1-9.1,5.1c-5.8,0-8.7-3.9-8.7-10.9c0-11.2,4.9-19.3,13.5-19.3
				c4,0,6.4,1.9,7,2.9h0.1l0.3-2h8.6L202.1,206.1z M191.7,183.9c-3.1,0-4.9,3-5.5,6.5l-0.5,3.7c-0.1,0.5-0.1,1.1-0.1,1.5
				c0,2.5,1.1,4,3.2,4c3,0,5.7-4,6.2-7.9l0.9-6.1C195.4,185.1,193.9,183.9,191.7,183.9z"/>
			<path class="st7" d="M236.3,206.1h-9l2.5-17.5c0.1-0.4,0.1-0.6,0.1-0.9c0-1.4-0.5-3.4-2.8-3.4c-3.6,0-6.4,4.8-6.9,8.4l-1.9,13.4
				h-9l4-28.4h8.2l-0.6,4.5h0.1c1.1-1.8,4.7-5.3,10.2-5.3c5.2,0,8,3.2,8,8.2c0,0.7-0.1,1.4-0.2,2.2L236.3,206.1z"/>
			<path class="st7" d="M252,195.4v0.5c0,2,1.6,4,5.2,4c4.3,0,8.2-2.3,9.7-3.4l-0.6,7.4c-1.4,1-5.5,3-10.9,3
				c-7.4,0-12.2-3.7-12.2-11.4c0-13.1,7.5-18.7,16-18.7c7.2,0,10.9,3.6,10.9,8.8C270.1,193,259.6,195.4,252,195.4z M258.7,182.7
				c-3,0-5.7,2.6-6.3,7c5.3,0,9.4-1.5,9.4-4.1C261.8,183.7,260.8,182.7,258.7,182.7z"/>
		</g>
	</g>
	<g class="st1">
		<polygon class="st8" points="-515.3,263.3 -546.7,263.3 -539.9,255.8 -515.3,255.8 		"/>
		<polygon class="st8" points="-515.3,278.5 -560.4,278.5 -553.6,270.7 -515.3,270.7 		"/>
		<polygon class="st8" points="-515.3,293.7 -573.9,293.7 -567.2,286.3 -515.3,286.3 		"/>
	</g>
	<g class="st1">
		<path class="st8" d="M-494.8,263.2v9.1h12.2v7.4h-12.2v14h-9.2v-37.9h22.4v7.4H-494.8z"/>
		<path class="st8" d="M-459.8,293.7l-0.5-3.2c-1.4,2.2-3.8,4.1-8,4.1c-7.8,0-10.7-5.8-10.7-15c0-8.8,3.2-15,11.1-15
			c4.4,0,6.5,1.9,7.6,4h0.1l0.4-3.2h8.1v28.4h-8.1V293.7z M-460.7,277.5c0-3.6-1.9-5.9-4.4-5.9c-3.3,0-4.6,2.6-4.6,6.1v3.6
			c0,4,1.6,6.1,4.4,6.1c3,0,4.7-2.6,4.7-5.8v-4.1H-460.7z"/>
		<path class="st8" d="M-437.5,294.5c-3.5,0-6.7-0.6-9.8-2l0.5-6.8c2.5,1.4,5.5,2.3,8.3,2.3c3.4,0,4-1.2,4-2.4
			c0-1.3-0.9-1.9-3.3-2.8l-1.9-0.6c-4-1.4-7.4-3.6-7.4-9.1c0-6,4.9-8.7,11.8-8.7c3.1,0,6.5,0.9,8.5,1.8l-0.4,6.8
			c-2.5-1.3-5.6-2.2-7.4-2.2c-2.4,0-3.2,0.8-3.2,1.9c0,1.2,1,1.9,3.5,2.8l1.9,0.6c3.8,1.3,7.2,3.5,7.2,9
			C-425.5,291.1-429.7,294.5-437.5,294.5z"/>
		<path class="st8" d="M-410.1,294.6c-5.7,0-8.3-3-8.3-8.6l0.1-13.6h-5.7v-7.2h5.7l0.1-7l9-1l-0.1,8h6.6v7.2h-6.6l-0.1,11.7
			c0,2.6,0.9,3.3,3,3.3c1.2,0,2.8-0.4,3.4-0.6l0.4,6.4C-403.8,293.7-406.7,294.6-410.1,294.6z"/>
		<path class="st8" d="M-398.3,293.7v-37.9h9.2v30.6l13.6,0.1v7.2H-398.3z"/>
		<path class="st8" d="M-354.1,293.7l-0.5-3.2c-1.4,2.2-3.8,4.1-8,4.1c-7.8,0-10.7-5.8-10.7-15c0-8.8,3.2-15,11.1-15
			c4.4,0,6.5,1.9,7.6,4h0.1l0.4-3.2h8.1v28.4h-8.1V293.7z M-355.1,277.5c0-3.6-1.9-5.9-4.4-5.9c-3.3,0-4.6,2.6-4.6,6.1v3.6
			c0,4,1.6,6.1,4.4,6.1c3,0,4.7-2.6,4.7-5.8v-4.1H-355.1z"/>
		<path class="st8" d="M-322.1,293.7v-16.9c0-2.4-0.8-4.5-4.1-4.5c-2.7,0-4.9,2-4.9,4.3v17.1h-9v-28.4h8.6v3.2h0.1c1-1.3,4.2-4,9-4
			c5.1,0,9.3,2.5,9.3,9.5v19.7L-322.1,293.7L-322.1,293.7z"/>
		<path class="st8" d="M-283.1,281.8H-300v0.3c0,2.6,1.5,5.3,6.2,5.3c3.2,0,6.3-0.9,8.9-2l0.4,6.8c-2.2,1.2-5.7,2.2-10.3,2.2
			c-11.1,0-14-5.6-14-14.9c0-9.1,3.6-15.2,13.9-15.2c9.1,0,12,5.4,12,14.1C-282.9,279.1-283,281-283.1,281.8z M-295.3,270.3
			c-3.4,0-4.8,3-4.8,5.9h8.9C-291.2,273.5-291.7,270.3-295.3,270.3z"/>
	</g>
	<g class="st1">
		<polygon class="st8" points="32.8,263 -1.9,263 4.9,255.5 34.1,255.5 		"/>
		<polygon class="st8" points="30.7,278.2 -15.6,278.2 -8.9,270.4 31.9,270.4 		"/>
		<polygon class="st8" points="28.6,293.4 -29.2,293.4 -22.4,286 29.7,286 		"/>
	</g>
	<g class="st1">
		<g>
			<path class="st8" d="M66.2,262.9L53,263l-1.2,9.1H64l-1.1,7.4H50.7l-1.9,14h-9.2l5.3-37.9h22.4L66.2,262.9z"/>
			<path class="st8" d="M92.1,293.4h-7.9l0.3-4.3h-0.1c-1,1.6-4.2,5.1-9.1,5.1c-5.8,0-8.7-3.9-8.7-10.9c0-11.2,4.9-19.3,13.5-19.3
				c4,0,6.4,1.9,7,2.9h0.1l0.3-2h8.6L92.1,293.4z M81.7,271.2c-3.1,0-4.9,3-5.5,6.5l-0.5,3.7c-0.1,0.5-0.1,1.1-0.1,1.5
				c0,2.5,1.1,4,3.2,4c3,0,5.7-4,6.2-7.9l0.9-6.1C85.4,272.4,83.9,271.2,81.7,271.2z"/>
			<path class="st8" d="M120.9,273c-1.3-0.8-4.8-2.4-7.8-2.4c-1.2,0-3.2,0.3-3.2,2c0,1.3,1.1,1.9,3.1,2.7l0.8,0.3
				c3.4,1.4,7.2,3.3,7.2,8.2c0,7.4-6.1,10.4-13.2,10.4c-4.8,0-8.4-1.4-9.6-2l1.4-6.9c1.2,0.8,4.4,2.4,7.9,2.4c1.9,0,4.3-0.6,4.3-2.5
				c0-1.3-1.5-2-3.6-2.9l-0.7-0.3c-3.5-1.4-6.7-3.8-6.7-8.2c0-6.8,5.6-9.7,12.1-9.7c4.9,0,8.4,1.4,9.6,2L120.9,273z"/>
			<path class="st8" d="M146.1,272.1h-6.6l-1.7,12.1c-0.1,0.4-0.1,0.6-0.1,0.7c0,1.8,1.2,2.2,2.8,2.2c1.3,0,3.2-0.6,3.9-1l-0.5,6.7
				c-1,0.5-4,1.4-7.6,1.4c-5.2,0-7.8-2.4-7.8-7.3c0-0.7,0.1-1.5,0.2-2.3l1.8-12.6h-5.7l1-7.2h5.7l1-7l9.1-1l-1.1,8h6.6L146.1,272.1z
				"/>
			<path class="st8" d="M171.6,293.4h-22.8l5.3-37.9h9.2l-4.3,30.6l13.6,0.1L171.6,293.4z"/>
			<path class="st8" d="M202.1,293.4h-7.9l0.3-4.3h-0.1c-1,1.6-4.2,5.1-9.1,5.1c-5.8,0-8.7-3.9-8.7-10.9c0-11.2,4.9-19.3,13.5-19.3
				c4,0,6.4,1.9,7,2.9h0.1l0.3-2h8.6L202.1,293.4z M191.7,271.2c-3.1,0-4.9,3-5.5,6.5l-0.5,3.7c-0.1,0.5-0.1,1.1-0.1,1.5
				c0,2.5,1.1,4,3.2,4c3,0,5.7-4,6.2-7.9l0.9-6.1C195.4,272.4,193.9,271.2,191.7,271.2z"/>
			<path class="st8" d="M236.3,293.4h-9l2.5-17.5c0.1-0.4,0.1-0.6,0.1-0.9c0-1.4-0.5-3.4-2.8-3.4c-3.6,0-6.4,4.8-6.9,8.4l-1.9,13.4
				h-9l4-28.4h8.2l-0.6,4.5h0.1c1.1-1.8,4.7-5.3,10.2-5.3c5.2,0,8,3.2,8,8.2c0,0.7-0.1,1.4-0.2,2.2L236.3,293.4z"/>
			<path class="st8" d="M252,282.7v0.5c0,2,1.6,4,5.2,4c4.3,0,8.2-2.3,9.7-3.4l-0.6,7.4c-1.4,1-5.5,3-10.9,3
				c-7.4,0-12.2-3.7-12.2-11.4c0-13.1,7.5-18.7,16-18.7c7.2,0,10.9,3.6,10.9,8.8C270.1,280.3,259.6,282.7,252,282.7z M258.7,270
				c-3,0-5.7,2.6-6.3,7c5.3,0,9.4-1.5,9.4-4.1C261.8,271,260.8,270,258.7,270z"/>
		</g>
	</g>
	<g class="st1">
		<polygon class="st9" points="-515.3,351.4 -546.7,351.4 -539.9,343.8 -515.3,343.8 		"/>
		<polygon class="st9" points="-515.3,366.5 -560.4,366.5 -553.6,358.8 -515.3,358.8 		"/>
		<polygon class="st9" points="-515.3,381.7 -573.9,381.7 -567.2,374.4 -515.3,374.4 		"/>
	</g>
	<g class="st1">
		<path class="st9" d="M-494.8,351.3v9.1h12.2v7.4h-12.2v14h-9.2v-37.9h22.4v7.4H-494.8z"/>
		<path class="st9" d="M-459.8,381.7l-0.5-3.2c-1.4,2.2-3.8,4.1-8,4.1c-7.8,0-10.7-5.8-10.7-15c0-8.8,3.2-15,11.1-15
			c4.4,0,6.5,1.9,7.6,4h0.1l0.4-3.2h8.1v28.4L-459.8,381.7L-459.8,381.7z M-460.7,365.5c0-3.6-1.9-5.9-4.4-5.9
			c-3.3,0-4.6,2.6-4.6,6.1v3.6c0,4,1.6,6.1,4.4,6.1c3,0,4.7-2.6,4.7-5.8v-4.1H-460.7z"/>
		<path class="st9" d="M-437.5,382.6c-3.5,0-6.7-0.6-9.8-2l0.5-6.8c2.5,1.4,5.5,2.3,8.3,2.3c3.4,0,4-1.2,4-2.4
			c0-1.3-0.9-1.9-3.3-2.8l-1.9-0.6c-4-1.4-7.4-3.6-7.4-9.1c0-6,4.9-8.7,11.8-8.7c3.1,0,6.5,0.9,8.5,1.8l-0.4,6.8
			c-2.5-1.3-5.6-2.2-7.4-2.2c-2.4,0-3.2,0.8-3.2,1.9c0,1.2,1,1.9,3.5,2.8l1.9,0.6c3.8,1.3,7.2,3.5,7.2,9
			C-425.5,379.2-429.7,382.6-437.5,382.6z"/>
		<path class="st9" d="M-410.1,382.6c-5.7,0-8.3-3-8.3-8.6l0.1-13.6h-5.7v-7.2h5.7l0.1-7l9-1l-0.1,8h6.6v7.2h-6.6l-0.1,11.7
			c0,2.6,0.9,3.3,3,3.3c1.2,0,2.8-0.4,3.4-0.6l0.4,6.4C-403.8,381.7-406.7,382.6-410.1,382.6z"/>
		<path class="st9" d="M-398.3,381.7v-37.9h9.2v30.6l13.6,0.1v7.2L-398.3,381.7L-398.3,381.7z"/>
		<path class="st9" d="M-354.1,381.7l-0.5-3.2c-1.4,2.2-3.8,4.1-8,4.1c-7.8,0-10.7-5.8-10.7-15c0-8.8,3.2-15,11.1-15
			c4.4,0,6.5,1.9,7.6,4h0.1l0.4-3.2h8.1v28.4L-354.1,381.7L-354.1,381.7z M-355.1,365.5c0-3.6-1.9-5.9-4.4-5.9
			c-3.3,0-4.6,2.6-4.6,6.1v3.6c0,4,1.6,6.1,4.4,6.1c3,0,4.7-2.6,4.7-5.8v-4.1H-355.1z"/>
		<path class="st9" d="M-322.1,381.7v-16.9c0-2.4-0.8-4.5-4.1-4.5c-2.7,0-4.9,2-4.9,4.3v17.1h-9v-28.4h8.6v3.2h0.1c1-1.3,4.2-4,9-4
			c5.1,0,9.3,2.5,9.3,9.5v19.7L-322.1,381.7L-322.1,381.7z"/>
		<path class="st9" d="M-283.1,369.9H-300v0.3c0,2.6,1.5,5.3,6.2,5.3c3.2,0,6.3-0.9,8.9-2l0.4,6.8c-2.2,1.2-5.7,2.2-10.3,2.2
			c-11.1,0-14-5.6-14-14.9c0-9.1,3.6-15.2,13.9-15.2c9.1,0,12,5.4,12,14.1C-282.9,367.2-283,369.1-283.1,369.9z M-295.3,358.3
			c-3.4,0-4.8,3-4.8,5.9h8.9C-291.2,361.6-291.7,358.3-295.3,358.3z"/>
	</g>
	<g class="st1">
		<polygon class="st9" points="32.8,351 -1.9,351 4.9,343.5 34.1,343.5 		"/>
		<polygon class="st9" points="30.7,366.2 -15.6,366.2 -8.9,358.5 31.9,358.5 		"/>
		<polygon class="st9" points="28.6,381.4 -29.2,381.4 -22.4,374.1 29.7,374.1 		"/>
	</g>
	<g class="st1">
		<g>
			<path class="st9" d="M66.2,350.9L53,351l-1.2,9.1H64l-1.1,7.4H50.7l-1.9,14h-9.2l5.3-37.9h22.4L66.2,350.9z"/>
			<path class="st9" d="M92.1,381.4h-7.9l0.3-4.3h-0.1c-1,1.6-4.2,5.1-9.1,5.1c-5.8,0-8.7-3.9-8.7-10.9c0-11.2,4.9-19.3,13.5-19.3
				c4,0,6.4,1.9,7,2.9h0.1l0.3-2h8.6L92.1,381.4z M81.7,359.3c-3.1,0-4.9,3-5.5,6.5l-0.5,3.7c-0.1,0.5-0.1,1.1-0.1,1.5
				c0,2.5,1.1,4,3.2,4c3,0,5.7-4,6.2-7.9l0.9-6.1C85.4,360.5,83.9,359.3,81.7,359.3z"/>
			<path class="st9" d="M120.9,361c-1.3-0.8-4.8-2.4-7.8-2.4c-1.2,0-3.2,0.3-3.2,2c0,1.3,1.1,1.9,3.1,2.7l0.8,0.3
				c3.4,1.4,7.2,3.3,7.2,8.2c0,7.4-6.1,10.4-13.2,10.4c-4.8,0-8.4-1.4-9.6-2l1.4-6.9c1.2,0.8,4.4,2.4,7.9,2.4c1.9,0,4.3-0.6,4.3-2.5
				c0-1.3-1.5-2-3.6-2.9l-0.7-0.3c-3.5-1.4-6.7-3.8-6.7-8.2c0-6.8,5.6-9.7,12.1-9.7c4.9,0,8.4,1.4,9.6,2L120.9,361z"/>
			<path class="st9" d="M146.1,360.2h-6.6l-1.7,12.1c-0.1,0.4-0.1,0.6-0.1,0.7c0,1.8,1.2,2.2,2.8,2.2c1.3,0,3.2-0.6,3.9-1l-0.5,6.7
				c-1,0.5-4,1.4-7.6,1.4c-5.2,0-7.8-2.4-7.8-7.3c0-0.7,0.1-1.5,0.2-2.3l1.8-12.6h-5.7l1-7.2h5.7l1-7l9.1-1l-1.1,8h6.6L146.1,360.2z
				"/>
			<path class="st9" d="M171.6,381.4h-22.8l5.3-37.9h9.2l-4.3,30.6l13.6,0.1L171.6,381.4z"/>
			<path class="st9" d="M202.1,381.4h-7.9l0.3-4.3h-0.1c-1,1.6-4.2,5.1-9.1,5.1c-5.8,0-8.7-3.9-8.7-10.9c0-11.2,4.9-19.3,13.5-19.3
				c4,0,6.4,1.9,7,2.9h0.1l0.3-2h8.6L202.1,381.4z M191.7,359.3c-3.1,0-4.9,3-5.5,6.5l-0.5,3.7c-0.1,0.5-0.1,1.1-0.1,1.5
				c0,2.5,1.1,4,3.2,4c3,0,5.7-4,6.2-7.9l0.9-6.1C195.4,360.5,193.9,359.3,191.7,359.3z"/>
			<path class="st9" d="M236.3,381.4h-9l2.5-17.5c0.1-0.4,0.1-0.6,0.1-0.9c0-1.4-0.5-3.4-2.8-3.4c-3.6,0-6.4,4.8-6.9,8.4l-1.9,13.4
				h-9l4-28.4h8.2l-0.6,4.5h0.1c1.1-1.8,4.7-5.3,10.2-5.3c5.2,0,8,3.2,8,8.2c0,0.7-0.1,1.4-0.2,2.2L236.3,381.4z"/>
			<path class="st9" d="M252,370.8v0.5c0,2,1.6,4,5.2,4c4.3,0,8.2-2.3,9.7-3.4l-0.6,7.4c-1.4,1-5.5,3-10.9,3
				c-7.4,0-12.2-3.7-12.2-11.4c0-13.1,7.5-18.7,16-18.7c7.2,0,10.9,3.6,10.9,8.8C270.1,368.4,259.6,370.8,252,370.8z M258.7,358
				c-3,0-5.7,2.6-6.3,7c5.3,0,9.4-1.5,9.4-4.1C261.8,359,260.8,358,258.7,358z"/>
		</g>
	</g>
	<rect x="519.2" y="-41.6" class="st11" width="98.6" height="98.6"/>
	<rect x="617.7" y="-41.6" class="st12" width="98.6" height="98.6"/>
	<rect x="716.1" y="-41.6" class="st13" width="98.6" height="98.6"/>
	<rect x="814.6" y="-41.6" class="st14" width="98.6" height="98.6"/>
	<rect x="519.2" y="56.9" class="st15" width="98.6" height="98.6"/>
	<rect x="617.7" y="56.9" class="st16" width="98.6" height="98.6"/>
	<rect x="716.1" y="56.9" class="st17" width="98.6" height="98.6"/>
	<rect x="814.6" y="56.9" class="st5" width="98.6" height="98.6"/>
	<rect x="519.2" y="155.5" class="st18" width="98.6" height="98.6"/>
	<rect x="617.7" y="155.5" class="st19" width="98.6" height="98.6"/>
	<rect x="716.1" y="155.5" class="st20" width="98.6" height="98.6"/>
	<rect x="814.6" y="155.5" class="st21" width="98.6" height="98.6"/>
</g>
<g id="Layer_4" class="st0">
	<g class="st1">
		<path d="M-296.1-19.5V-8h15.5v9.4h-15.5v17.7h-11.7v-48h28.4v9.4L-296.1-19.5z"/>
		<path d="M-250.8,19.1l-0.6-4.1c-1.8,2.7-4.8,5.2-10.2,5.2c-9.9,0-13.5-7.4-13.5-19.1c0-11.2,4-19.1,14-19.1c5.5,0,8.3,2.4,9.6,5.1
			h0.1l0.5-4h10.3v36H-250.8z M-252-1.4c0-4.5-2.4-7.5-5.6-7.5c-4.2,0-5.8,3.3-5.8,7.8v4.5c0,5.1,2.1,7.7,5.5,7.7
			c3.8,0,5.9-3.2,5.9-7.4L-252-1.4L-252-1.4z"/>
		<path d="M-220.5,20.2c-4.5,0-8.5-0.8-12.5-2.5l0.6-8.6c3.2,1.7,7,3,10.5,3c4.2,0,5-1.5,5-3c0-1.7-1.1-2.4-4.2-3.5l-2.4-0.8
			c-5-1.7-9.4-4.6-9.4-11.6c0-7.6,6.3-11,14.9-11c4,0,8.2,1.1,10.7,2.2l-0.5,8.6c-3.2-1.7-7.1-2.7-9.4-2.7c-3,0-4.1,1-4.1,2.4
			c0,1.5,1.2,2.4,4.5,3.5l2.4,0.8c4.8,1.7,9.1,4.4,9.1,11.4C-205.3,15.9-210.6,20.2-220.5,20.2z"/>
		<path d="M-184.8,20.3c-7.3,0-10.6-3.7-10.6-10.9l0.1-17.2h-7.3v-9.1h7.3l0.1-8.9l11.4-1.2l-0.1,10.1h8.4v9.1h-8.4L-184,7
			c0,3.2,1.2,4.2,3.7,4.2c1.6,0,3.5-0.5,4.2-0.7l0.5,8.1C-176.8,19.1-180.5,20.3-184.8,20.3z"/>
		<path d="M-167.8,19.1v-48h11.7V9.9l17.2,0.1v9.1C-138.9,19.1-167.8,19.1-167.8,19.1z"/>
		<path d="M-110.8,19.1l-0.6-4.1c-1.8,2.7-4.8,5.2-10.2,5.2c-9.9,0-13.5-7.4-13.5-19.1c0-11.2,4-19.1,14-19.1c5.5,0,8.3,2.4,9.6,5.1
			h0.1l0.5-4h10.3v36H-110.8z M-112-1.4c0-4.5-2.4-7.5-5.6-7.5c-4.2,0-5.8,3.3-5.8,7.8v4.5c0,5.1,2.1,7.7,5.5,7.7
			c3.8,0,5.9-3.2,5.9-7.4C-112,3.7-112-1.4-112-1.4z"/>
		<path d="M-68.3,19.1V-2.4c0-3.1-1-5.7-5.2-5.7c-3.4,0-6.2,2.6-6.2,5.5v21.7h-11.4v-36h10.9v4h0.1c1.3-1.7,5.3-5.1,11.4-5.1
			c6.5,0,11.8,3.2,11.8,12.1v25C-56.9,19.1-68.3,19.1-68.3,19.1z"/>
		<path d="M-17.7,4.2h-21.5v0.4c0,3.3,1.9,6.8,7.9,6.8c4.1,0,8-1.1,11.2-2.5l0.5,8.6c-2.7,1.5-7.3,2.7-13.1,2.7
			c-14.1,0-17.7-7.1-17.7-18.9c0-11.5,4.5-19.2,17.6-19.2c11.6,0,15.2,6.8,15.2,17.9C-17.6,0.7-17.6,3.1-17.7,4.2z M-33.3-10.5
			c-4.3,0-6.1,3.8-6.1,7.5h11.3C-28.1-6.3-28.7-10.5-33.3-10.5z"/>
	</g>
	<g class="st1">
		<path d="M42.9-19.5V-8h15.5v9.4H42.9v17.7H31.2v-48h28.4v9.4L42.9-19.5z"/>
		<path d="M85.2,19.1L84.6,15c-1.8,2.7-4.8,5.2-10.2,5.2c-9.9,0-13.5-7.4-13.5-19.1c0-11.2,4-19.1,14-19.1c5.5,0,8.3,2.4,9.6,5.1
			h0.1l0.5-4h10.3v36H85.2z M84-1.4c0-4.5-2.4-7.5-5.6-7.5c-4.2,0-5.8,3.3-5.8,7.8v4.5c0,5.1,2.1,7.7,5.5,7.7c3.8,0,5.9-3.2,5.9-7.4
			L84-1.4L84-1.4z"/>
		<path d="M111.5,20.2c-4.5,0-8.5-0.8-12.5-2.5l0.6-8.6c3.2,1.7,7,3,10.5,3c4.2,0,5-1.5,5-3c0-1.7-1.1-2.4-4.2-3.5l-2.4-0.8
			c-5-1.7-9.4-4.6-9.4-11.6c0-7.6,6.3-11,14.9-11c4,0,8.2,1.1,10.7,2.2L124.2-7c-3.2-1.7-7.1-2.7-9.4-2.7c-3,0-4.1,1-4.1,2.4
			c0,1.5,1.2,2.4,4.5,3.5l2.4,0.8c4.8,1.7,9.1,4.4,9.1,11.4C126.7,15.9,121.4,20.2,111.5,20.2z"/>
		<path d="M144.2,20.3c-7.3,0-10.6-3.7-10.6-10.9l0.1-17.2h-7.3v-9.1h7.3l0.1-8.9l11.4-1.2l-0.1,10.1h8.4v9.1h-8.4L145,7
			c0,3.2,1.2,4.2,3.7,4.2c1.6,0,3.5-0.5,4.2-0.7l0.5,8.1C152.2,19.1,148.5,20.3,144.2,20.3z"/>
		<path d="M157.2,19.1v-48h11.7V9.9l17.2,0.1v9.1C186.1,19.1,157.2,19.1,157.2,19.1z"/>
		<path d="M211.2,19.1l-0.6-4.1c-1.8,2.7-4.8,5.2-10.2,5.2c-9.9,0-13.5-7.4-13.5-19.1c0-11.2,4-19.1,14-19.1c5.5,0,8.3,2.4,9.6,5.1
			h0.1l0.5-4h10.3v36H211.2z M210-1.4c0-4.5-2.4-7.5-5.6-7.5c-4.2,0-5.8,3.3-5.8,7.8v4.5c0,5.1,2.1,7.7,5.5,7.7
			c3.8,0,5.9-3.2,5.9-7.4V-1.4z"/>
		<path d="M249.7,19.1V-2.4c0-3.1-1-5.7-5.2-5.7c-3.4,0-6.2,2.6-6.2,5.5v21.7h-11.4v-36h10.9v4h0.1c1.3-1.7,5.3-5.1,11.4-5.1
			c6.5,0,11.8,3.2,11.8,12.1v25C261.1,19.1,249.7,19.1,249.7,19.1z"/>
		<path d="M297.3,4.2h-21.5v0.4c0,3.3,1.9,6.8,7.9,6.8c4.1,0,8-1.1,11.2-2.5l0.5,8.6c-2.7,1.5-7.3,2.7-13.1,2.7
			c-14.1,0-17.7-7.1-17.7-18.9c0-11.5,4.5-19.2,17.6-19.2c11.6,0,15.2,6.8,15.2,17.9C297.4,0.7,297.4,3.1,297.3,4.2z M281.7-10.5
			c-4.3,0-6.1,3.8-6.1,7.5h11.3C286.9-6.3,286.3-10.5,281.7-10.5z"/>
	</g>
	<g class="st1">
		<path d="M58.1,159.5v13.6H74v7.8H58.1v18.7h-9.5v-48h26.7v7.8L58.1,159.5z"/>
		<path d="M103.7,199.6l-0.5-4.5h-0.1c-1.9,2.9-4.8,5.5-10.4,5.5c-9.9,0-13.5-7.7-13.5-18.9c0-10.8,3.9-19.1,14-19.1
			c5.7,0,8.5,2.7,9.9,5.5h0.1l0.4-4.5h8.4v36H103.7z M102.8,178.9c0-5.2-3.2-8.7-6.8-8.7c-5.1,0-7.1,4.1-7.1,9.3v4.5
			c0,5.8,2.6,9.1,6.8,9.1c4.3,0,7.1-3.9,7.1-8.4V178.9z"/>
		<path d="M130,200.6c-4.2,0-7.9-0.9-11.6-2.5l0.4-7.3c3.2,1.8,6.7,3,10.3,3c4.8,0,6-1.9,6-4c0-2.4-1.6-3.5-5.8-4.9l-0.9-0.3
			c-5.9-1.9-10-4.9-10-11.4c0-6.8,5.4-10.5,14-10.5c4,0,7.8,1.1,10.2,2.3l-0.4,7.3c-3.4-1.8-7.1-2.7-9.2-2.7c-3.7,0-5.1,1.3-5.1,3.2
			c0,2.1,1.6,3.2,5.3,4.5l2.4,0.9c4.9,1.7,8.9,4.4,8.9,11C144.6,196.3,139.6,200.6,130,200.6z"/>
		<path d="M164.1,200.6c-6.9,0-9.9-3.5-9.9-10.3l0.1-19.2h-7.7v-7.5h7.7l0.1-9l9.3-1.1l-0.1,10.1h8.9v7.5h-8.9l-0.1,17.6
			c0,3.2,1.2,4.5,4,4.5c1.7,0,3.8-0.6,4.6-0.9l0.4,6.8C171.3,199.6,167.9,200.6,164.1,200.6z"/>
		<path d="M178.6,199.6v-48h9.5v40.3L206,192v7.7L178.6,199.6L178.6,199.6z"/>
		<path d="M233.7,199.6l-0.5-4.5h-0.1c-1.9,2.9-4.8,5.5-10.4,5.5c-9.9,0-13.5-7.7-13.5-18.9c0-10.8,3.9-19.1,14-19.1
			c5.7,0,8.5,2.7,9.9,5.5h0.1l0.4-4.5h8.4v36H233.7z M232.8,178.9c0-5.2-3.2-8.7-6.8-8.7c-5.1,0-7.1,4.1-7.1,9.3v4.5
			c0,5.8,2.6,9.1,6.8,9.1c4.3,0,7.1-3.9,7.1-8.4V178.9z"/>
		<path d="M272.1,199.6v-22c0-3.5-1-6.8-6-6.8c-4,0-7.4,3.2-7.4,6.6v22.2h-9.4v-36h8.9v4.4h0.1c1.3-1.7,5.3-5.4,11.4-5.4
			c7.1,0,11.7,3.6,11.7,12.1v24.9C281.4,199.6,272.1,199.6,272.1,199.6z"/>
		<path d="M318.2,184.1h-22v0.8c0,4.2,2.2,8.4,8.7,8.4c4.1,0,7.9-1.1,11.1-2.6l0.4,7.3c-2.7,1.6-7.2,2.7-12.5,2.7
			c-13.5,0-16.9-7.3-16.9-18.9c0-11.4,4.5-19.2,16.8-19.2c9.9,0,14.5,5.5,14.5,17.3C318.4,180.6,318.3,183,318.2,184.1z M303.5,169
			c-5.2,0-7.3,4.5-7.3,8.9h13.5C309.6,173.6,308.9,169,303.5,169z"/>
	</g>
	<g class="st1">
		<path d="M58.1,220.5v13.6H74v7.8H58.1v18.7h-9.5v-48h26.7v7.8L58.1,220.5z"/>
		<path d="M104.7,260.6l-0.5-4.5h-0.1c-1.9,2.9-4.8,5.5-10.4,5.5c-9.9,0-13.5-7.7-13.5-18.9c0-10.8,3.9-19.1,14-19.1
			c5.7,0,8.5,2.7,9.9,5.5h0.1l0.4-4.5h8.4v36H104.7z M103.8,239.9c0-5.2-3.2-8.7-6.8-8.7c-5.1,0-7.1,4.1-7.1,9.3v4.5
			c0,5.8,2.6,9.1,6.8,9.1c4.3,0,7.1-3.9,7.1-8.4V239.9z"/>
		<path d="M133,261.6c-4.2,0-7.9-0.9-11.6-2.5l0.4-7.3c3.2,1.8,6.7,3,10.3,3c4.8,0,6-1.9,6-4c0-2.4-1.6-3.5-5.8-4.9l-0.9-0.3
			c-5.9-1.9-10-4.9-10-11.4c0-6.8,5.4-10.5,14-10.5c4,0,7.8,1.1,10.2,2.3l-0.4,7.3c-3.4-1.8-7.1-2.7-9.2-2.7c-3.7,0-5.1,1.3-5.1,3.2
			c0,2.1,1.6,3.2,5.3,4.5l2.4,0.9c4.9,1.7,8.9,4.4,8.9,11C147.6,257.3,142.6,261.6,133,261.6z"/>
		<path d="M168.1,261.6c-6.9,0-9.9-3.5-9.9-10.3l0.1-19.2h-7.7v-7.5h7.7l0.1-9l9.3-1.1l-0.1,10.1h8.9v7.5h-8.9l-0.1,17.6
			c0,3.2,1.2,4.5,4,4.5c1.7,0,3.8-0.6,4.6-0.9l0.4,6.8C175.3,260.6,171.9,261.6,168.1,261.6z"/>
		<path d="M184.6,260.6v-48h9.5v40.3L212,253v7.7h-27.4V260.6z"/>
		<path d="M241.7,260.6l-0.5-4.5h-0.1c-1.9,2.9-4.8,5.5-10.4,5.5c-9.9,0-13.5-7.7-13.5-18.9c0-10.8,3.9-19.1,14-19.1
			c5.7,0,8.5,2.7,9.9,5.5h0.1l0.4-4.5h8.4v36H241.7z M240.8,239.9c0-5.2-3.2-8.7-6.8-8.7c-5.1,0-7.1,4.1-7.1,9.3v4.5
			c0,5.8,2.6,9.1,6.8,9.1c4.3,0,7.1-3.9,7.1-8.4V239.9z"/>
		<path d="M283.1,260.6v-22c0-3.5-1-6.8-6-6.8c-4,0-7.4,3.2-7.4,6.6v22.2h-9.4v-36h8.9v4.4h0.1c1.3-1.7,5.3-5.4,11.4-5.4
			c7.1,0,11.7,3.6,11.7,12.1v24.9H283.1z"/>
		<path d="M331.2,245.1h-22v0.8c0,4.2,2.2,8.4,8.7,8.4c4.1,0,7.9-1.1,11.1-2.6l0.4,7.3c-2.7,1.6-7.2,2.7-12.5,2.7
			c-13.5,0-16.9-7.3-16.9-18.9c0-11.4,4.5-19.2,16.8-19.2c9.9,0,14.5,5.5,14.5,17.3C331.4,241.6,331.3,244,331.2,245.1z M316.5,230
			c-5.2,0-7.3,4.5-7.3,8.9h13.5C322.6,234.6,321.9,230,316.5,230z"/>
	</g>
	<g class="st1">
		<path d="M397.1,220.5v13.6H413v7.8h-15.9v18.7h-9.5v-48h26.7v7.8L397.1,220.5z"/>
		<path d="M440.7,260.6l-0.5-4.5h-0.1c-1.9,2.9-4.8,5.5-10.4,5.5c-9.9,0-13.5-7.7-13.5-18.9c0-10.8,3.9-19.1,14-19.1
			c5.7,0,8.5,2.7,9.9,5.5h0.1l0.4-4.5h8.4v36H440.7z M439.8,239.9c0-5.2-3.2-8.7-6.8-8.7c-5.1,0-7.1,4.1-7.1,9.3v4.5
			c0,5.8,2.6,9.1,6.8,9.1c4.3,0,7.1-3.9,7.1-8.4V239.9z"/>
		<path d="M465,261.6c-4.2,0-7.9-0.9-11.6-2.5l0.4-7.3c3.2,1.8,6.7,3,10.3,3c4.8,0,6-1.9,6-4c0-2.4-1.6-3.5-5.8-4.9l-0.9-0.3
			c-5.9-1.9-10-4.9-10-11.4c0-6.8,5.4-10.5,14-10.5c4,0,7.8,1.1,10.2,2.3l-0.4,7.3c-3.4-1.8-7.1-2.7-9.2-2.7c-3.7,0-5.1,1.3-5.1,3.2
			c0,2.1,1.6,3.2,5.3,4.5l2.4,0.9c4.9,1.7,8.9,4.4,8.9,11C479.6,257.3,474.6,261.6,465,261.6z"/>
		<path d="M498.1,261.6c-6.9,0-9.9-3.5-9.9-10.3l0.1-19.2h-7.7v-7.5h7.7l0.1-9l9.3-1.1l-0.1,10.1h8.9v7.5h-8.9l-0.1,17.6
			c0,3.2,1.2,4.5,4,4.5c1.7,0,3.8-0.6,4.6-0.9l0.4,6.8C505.3,260.6,501.9,261.6,498.1,261.6z"/>
		<path d="M510.6,260.6v-48h9.5v40.3L538,253v7.7h-27.4V260.6z"/>
		<path d="M563.7,260.6l-0.5-4.5h-0.1c-1.9,2.9-4.8,5.5-10.4,5.5c-9.9,0-13.5-7.7-13.5-18.9c0-10.8,3.9-19.1,14-19.1
			c5.7,0,8.5,2.7,9.9,5.5h0.1l0.4-4.5h8.4v36H563.7z M562.8,239.9c0-5.2-3.2-8.7-6.8-8.7c-5.1,0-7.1,4.1-7.1,9.3v4.5
			c0,5.8,2.6,9.1,6.8,9.1c4.3,0,7.1-3.9,7.1-8.4V239.9z"/>
		<path d="M601.1,260.6v-22c0-3.5-1-6.8-6-6.8c-4,0-7.4,3.2-7.4,6.6v22.2h-9.4v-36h8.9v4.4h0.1c1.3-1.7,5.3-5.4,11.4-5.4
			c7.1,0,11.7,3.6,11.7,12.1v24.9H601.1z"/>
		<path d="M646.2,245.1h-22v0.8c0,4.2,2.2,8.4,8.7,8.4c4.1,0,7.9-1.1,11.1-2.6l0.4,7.3c-2.7,1.6-7.2,2.7-12.5,2.7
			c-13.5,0-16.9-7.3-16.9-18.9c0-11.4,4.5-19.2,16.8-19.2c9.9,0,14.5,5.5,14.5,17.3C646.4,241.6,646.3,244,646.2,245.1z M631.5,230
			c-5.2,0-7.3,4.5-7.3,8.9h13.5C637.6,234.6,636.9,230,631.5,230z"/>
	</g>
	<g class="st1">
		<path d="M-297.9,279.5v13.6h15.9v7.8h-15.9v18.7h-9.5v-48h26.7v7.8L-297.9,279.5z"/>
		<path d="M-255.6,319.6l-0.5-4.7h-0.1c-0.9,1.9-4.5,5.7-11,5.7c-7.4,0-10.9-4.5-10.9-10.7c0-7.9,6.6-12,16.1-12
			c2.3,0,4.5,0.2,5.2,0.3v-3.1c0-3.8-2.7-5.2-6.9-5.2c-4,0-7.6,1.1-11.2,2.7l-0.4-7.3c3.7-1.7,8.2-2.7,13.2-2.7
			c8.4,0,14.7,2.2,14.7,12.5v24.5H-255.6z M-256.8,304c-0.5-0.1-1.9-0.2-3.8-0.2c-3.6,0-8.1,1.3-8.1,5.5c0,3,1.9,4.5,4.8,4.5
			c3.7,0,7.2-3.5,7.2-8.1L-256.8,304L-256.8,304z"/>
		<path d="M-230,320.7c-4.2,0-7.9-0.9-11.6-2.5l0.4-7.3c3.2,1.8,6.7,3,10.3,3c4.8,0,6-1.9,6-4c0-2.4-1.6-3.5-5.8-4.9l-0.9-0.3
			c-5.9-1.9-10-4.9-10-11.4c0-6.8,5.4-10.5,14-10.5c4,0,7.8,1.1,10.2,2.3l-0.4,7.3c-3.4-1.8-7.1-2.7-9.2-2.7c-3.7,0-5.1,1.3-5.1,3.2
			c0,2.1,1.6,3.2,5.3,4.5l2.4,0.9c4.9,1.7,8.9,4.4,8.9,11C-215.4,316.3-220.4,320.7-230,320.7z"/>
		<path d="M-196.9,320.7c-6.9,0-9.9-3.5-9.9-10.3l0.1-19.2h-7.7v-7.5h7.7l0.1-9l9.3-1.1l-0.1,10.1h8.9v7.5h-8.9l-0.1,17.6
			c0,3.2,1.2,4.5,4,4.5c1.7,0,3.8-0.6,4.6-0.9l0.4,6.8C-189.7,319.6-193.1,320.7-196.9,320.7z"/>
		<path d="M-182.4,319.6v-48h9.5v40.3l17.9,0.1v7.7h-27.4V319.6z"/>
		<path d="M-129.6,319.6l-0.5-4.7h-0.1c-0.9,1.9-4.5,5.7-11,5.7c-7.4,0-10.9-4.5-10.9-10.7c0-7.9,6.6-12,16.1-12
			c2.3,0,4.5,0.2,5.2,0.3v-3.1c0-3.8-2.7-5.2-6.9-5.2c-4,0-7.6,1.1-11.2,2.7l-0.4-7.3c3.7-1.7,8.2-2.7,13.2-2.7
			c8.4,0,14.7,2.2,14.7,12.5v24.5H-129.6z M-130.8,304c-0.5-0.1-1.9-0.2-3.8-0.2c-3.6,0-8.1,1.3-8.1,5.5c0,3,1.9,4.5,4.8,4.5
			c3.7,0,7.2-3.5,7.2-8.1L-130.8,304L-130.8,304z"/>
		<path d="M-90.9,319.6v-22c0-3.5-1-6.8-6-6.8c-4,0-7.4,3.2-7.4,6.6v22.2h-9.4v-36h8.9v4.4h0.1c1.3-1.7,5.3-5.4,11.4-5.4
			c7.1,0,11.7,3.6,11.7,12.1v24.9H-90.9z"/>
		<path d="M-44.8,304.1h-22v0.8c0,4.2,2.2,8.4,8.7,8.4c4.1,0,7.9-1.1,11.1-2.6l0.4,7.3c-2.7,1.6-7.2,2.7-12.5,2.7
			c-13.5,0-16.9-7.3-16.9-18.9c0-11.4,4.5-19.2,16.8-19.2c9.9,0,14.5,5.5,14.5,17.3C-44.6,300.6-44.7,303-44.8,304.1z M-59.5,289
			c-5.2,0-7.3,4.5-7.3,8.9h13.5C-53.4,293.7-54.1,289-59.5,289z"/>
	</g>
	<g class="st1">
		<path d="M-297.9,183.5v13.6h15.9v7.8h-15.9v18.7h-9.5v-48h26.7v7.8L-297.9,183.5z"/>
		<path d="M-256.6,223.6l-0.5-4.7h-0.1c-0.9,1.9-4.5,5.7-11,5.7c-7.4,0-10.9-4.5-10.9-10.7c0-7.9,6.6-12,16.1-12
			c2.3,0,4.5,0.2,5.2,0.3v-3.1c0-3.8-2.7-5.2-6.9-5.2c-4,0-7.6,1.1-11.2,2.7l-0.4-7.3c3.7-1.7,8.2-2.7,13.2-2.7
			c8.4,0,14.7,2.2,14.7,12.5v24.5H-256.6z M-257.8,208c-0.5-0.1-1.9-0.2-3.8-0.2c-3.6,0-8.1,1.3-8.1,5.5c0,3,1.9,4.5,4.8,4.5
			c3.7,0,7.2-3.5,7.2-8.1L-257.8,208L-257.8,208z"/>
		<path d="M-231,224.7c-4.2,0-7.9-0.9-11.6-2.5l0.4-7.3c3.2,1.8,6.7,3,10.3,3c4.8,0,6-1.9,6-4c0-2.4-1.6-3.5-5.8-4.9l-0.9-0.3
			c-5.9-1.9-10-4.9-10-11.4c0-6.8,5.4-10.5,14-10.5c4,0,7.8,1.1,10.2,2.3l-0.4,7.3c-3.4-1.8-7.1-2.7-9.2-2.7c-3.7,0-5.1,1.3-5.1,3.2
			c0,2.1,1.6,3.2,5.3,4.5l2.4,0.9c4.9,1.7,8.9,4.4,8.9,11C-216.4,220.3-221.4,224.7-231,224.7z"/>
		<path d="M-196.9,224.7c-6.9,0-9.9-3.5-9.9-10.3l0.1-19.2h-7.7v-7.5h7.7l0.1-9l9.3-1.1l-0.1,10.1h8.9v7.5h-8.9l-0.1,17.6
			c0,3.2,1.2,4.5,4,4.5c1.7,0,3.8-0.6,4.6-0.9l0.4,6.8C-189.7,223.6-193.1,224.7-196.9,224.7z"/>
		<path d="M-182.4,223.6v-48h9.5v40.3l17.9,0.1v7.7h-27.4V223.6z"/>
		<path d="M-128.6,223.6l-0.5-4.7h-0.1c-0.9,1.9-4.5,5.7-11,5.7c-7.4,0-10.9-4.5-10.9-10.7c0-7.9,6.6-12,16.1-12
			c2.3,0,4.5,0.2,5.2,0.3v-3.1c0-3.8-2.7-5.2-6.9-5.2c-4,0-7.6,1.1-11.2,2.7l-0.4-7.3c3.7-1.7,8.2-2.7,13.2-2.7
			c8.4,0,14.7,2.2,14.7,12.5v24.5H-128.6z M-129.8,208c-0.5-0.1-1.9-0.2-3.8-0.2c-3.6,0-8.1,1.3-8.1,5.5c0,3,1.9,4.5,4.8,4.5
			c3.7,0,7.2-3.5,7.2-8.1V208C-129.7,208-129.8,208-129.8,208z"/>
		<path d="M-89.9,223.6v-22c0-3.5-1-6.8-6-6.8c-4,0-7.4,3.2-7.4,6.6v22.2h-9.4v-36h8.9v4.4h0.1c1.3-1.7,5.3-5.4,11.4-5.4
			c7.1,0,11.7,3.6,11.7,12.1v24.9H-89.9z"/>
		<path d="M-43.8,208.1h-22v0.8c0,4.2,2.2,8.4,8.7,8.4c4.1,0,7.9-1.1,11.1-2.6l0.4,7.3c-2.7,1.6-7.2,2.7-12.5,2.7
			c-13.5,0-16.9-7.3-16.9-18.9c0-11.4,4.5-19.2,16.8-19.2c9.9,0,14.5,5.5,14.5,17.3C-43.6,204.6-43.7,207-43.8,208.1z M-58.5,193
			c-5.2,0-7.3,4.5-7.3,8.9h13.5C-52.4,197.7-53.1,193-58.5,193z"/>
	</g>
</g>
<g id="Layer_5" class="st0">
	<g class="st1">
		<polygon points="-59.1,265.2 -149.5,265.2 -131.8,245.6 -55.9,245.6 		"/>
		<polygon points="-64.6,304.6 -185,304.6 -167.5,284.5 -61.5,284.5 		"/>
		<polygon points="-70.2,344.2 -220.3,344.2 -202.8,325.1 -67.2,325 		"/>
	</g>
	<g class="st1">
		<polygon points="-30.9,-35.1 -112.5,-35.1 -94.8,-54.7 -30.9,-54.7 		"/>
		<polygon points="-30.9,4.3 -148,4.3 -130.5,-15.8 -30.9,-15.8 		"/>
		<polygon points="-30.9,43.8 -183.3,43.8 -165.8,24.7 -30.9,24.7 		"/>
	</g>
	<g class="st1">
		<g>
			<path d="M22.5,264.8l-34.4,0.1l-3.2,23.6h31.8l-2.8,19.2H-18l-5,36.3h-23.9l13.9-98.4h58.2L22.5,264.8z"/>
			<path d="M89.9,344.2H69.4l0.7-11.1H70c-2.5,4.3-10.9,13.3-23.8,13.3c-15.1,0-22.7-10-22.7-28.2c0-29.1,12.9-50.1,35.2-50.1
				c10.5,0,16.5,5,18.2,7.5H77l0.9-5.3h22.3L89.9,344.2z M62.8,286.5c-8,0-12.9,7.7-14.2,16.8l-1.3,9.7c-0.1,1.3-0.3,2.8-0.3,4
				c0,6.5,3,10.3,8.3,10.3c7.7,0,14.8-10.5,16.2-20.5l2.2-15.8C72.4,289.6,68.5,286.5,62.8,286.5z"/>
			<path d="M164.8,291.1c-3.4-2.1-12.4-6.4-20.4-6.4c-3.1,0-8.4,0.9-8.4,5.2c0,3.4,2.8,5,8,7.1l2.1,0.9c8.9,3.5,18.6,8.6,18.6,21.4
				c0,19.2-15.8,27-34.3,27c-12.4,0-21.9-3.5-25-5.2l3.5-17.9c3.1,2.1,11.4,6.2,20.5,6.2c4.9,0,11.1-1.5,11.1-6.5
				c0-3.4-3.8-5.3-9.3-7.5l-1.9-0.7c-9-3.5-17.4-9.9-17.4-21.4c0-17.7,14.6-25.3,31.5-25.3c12.7,0,21.9,3.5,25,5.2L164.8,291.1z"/>
			<path d="M230.1,288.9h-17.3l-4.4,31.5c-0.1,1-0.1,1.5-0.1,1.9c0,4.7,3.1,5.6,7.4,5.6c3.4,0,8.3-1.6,10.2-2.5l-1.3,17.4
				c-2.7,1.2-10.3,3.7-19.6,3.7c-13.4,0-20.4-6.2-20.4-18.9c0-1.9,0.1-3.8,0.4-5.9l4.6-32.8h-14.8l2.5-18.6h14.9l2.7-18.2l23.6-2.5
				l-3,20.7h17.3L230.1,288.9z"/>
			<path d="M296.4,344.2h-59.2l13.9-98.5H275l-11.2,79.6l35.3,0.1L296.4,344.2z"/>
			<path d="M375.9,344.2h-20.5l0.7-11.1H356c-2.5,4.3-10.9,13.3-23.8,13.3c-15.1,0-22.7-10-22.7-28.2c0-29.1,12.9-50.1,35.2-50.1
				c10.5,0,16.5,5,18.2,7.5h0.1l0.9-5.3h22.3L375.9,344.2z M348.8,286.5c-8,0-12.9,7.7-14.2,16.8l-1.3,9.7c-0.1,1.3-0.3,2.8-0.3,4
				c0,6.5,3,10.3,8.3,10.3c7.7,0,14.8-10.5,16.2-20.5l2.2-15.8C358.4,289.6,354.5,286.5,348.8,286.5z"/>
			<path d="M464.7,344.2h-23.5l6.5-45.5c0.1-1,0.1-1.6,0.1-2.2c0-3.7-1.2-8.7-7.2-8.7c-9.3,0-16.5,12.4-17.9,21.7l-4.9,34.7h-23.5
				l10.5-73.9h21.3l-1.6,11.7h0.1c3-4.6,12.3-13.9,26.6-13.9c13.6,0,20.7,8.3,20.7,21.4c0,1.8-0.1,3.7-0.4,5.6L464.7,344.2z"/>
			<path d="M505.4,316.5v1.3c0,5.2,4.3,10.3,13.4,10.3c11.1,0,21.4-5.9,25.1-8.9l-1.5,19.2c-3.5,2.5-14.2,7.8-28.2,7.8
				c-19.4,0-31.6-9.6-31.6-29.7c0-34.1,19.5-48.6,41.7-48.6c18.8,0,28.2,9.3,28.2,22.9C552.5,310.2,525.2,316.5,505.4,316.5z
				 M523,283.3c-7.7,0-14.9,6.6-16.4,18.2c13.9,0,24.4-4,24.4-10.8C531,286,528.3,283.3,523,283.3z"/>
		</g>
	</g>
	<g class="st1">
		<path d="M7-35.3v23.6h31.7V7.5H7v36.3h-24v-98.5h58.2v19.2L7-35.3z"/>
		<path d="M97.8,43.8l-1.2-8.4C92.9,41,86.7,46,75.8,46C55.6,46,48,30.8,48,6.9c0-22.9,8.3-39.1,28.8-39.1c11.4,0,17,5,19.6,10.5
			h0.1l1-8.3h21.1v73.8C118.6,43.8,97.8,43.8,97.8,43.8z M95.4,1.7c0-9.3-5-15.4-11.5-15.4c-8.6,0-12,6.8-12,15.9v9.3
			c0,10.5,4.3,15.8,11.4,15.8c7.8,0,12.1-6.6,12.1-15.2V1.7z"/>
		<path d="M155.9,46c-9.2,0-17.4-1.6-25.5-5.2l1.2-17.7c6.5,3.5,14.3,6.1,21.6,6.1c8.7,0,10.3-3.1,10.3-6.2c0-3.4-2.2-5-8.6-7.2
			l-5-1.6c-10.3-3.5-19.3-9.4-19.3-23.8c0-15.7,12.8-22.6,30.6-22.6c8.1,0,16.8,2.2,22,4.6l-1,17.7c-6.5-3.4-14.6-5.6-19.3-5.6
			c-6.2,0-8.4,2.1-8.4,5c0,3.1,2.5,5,9.2,7.2l5,1.6c9.9,3.4,18.6,9,18.6,23.3C187.1,37.2,176.1,46,155.9,46z"/>
		<path d="M227.1,46.2c-14.9,0-21.7-7.7-21.7-22.3l0.1-35.3h-14.9V-30h14.9l0.1-18.2l23.3-2.5L228.8-30h17.3v18.6h-17.3L228.7,19
			c0,6.6,2.4,8.6,7.7,8.6c3.2,0,7.2-1,8.7-1.5l1,16.7C243.5,43.8,235.8,46.2,227.1,46.2z"/>
		<path d="M257.8,43.8v-98.5h23.9v79.6L317,25v18.8H257.8z"/>
		<path d="M372.6,43.8l-1.2-8.4C367.7,41,361.5,46,350.6,46c-20.2,0-27.8-15.2-27.8-39.1c0-22.9,8.3-39.1,28.8-39.1
			c11.4,0,17,5,19.6,10.5h0.1l1-8.3h21.1v73.8C393.4,43.8,372.6,43.8,372.6,43.8z M370.2,1.7c0-9.3-5-15.4-11.5-15.4
			c-8.6,0-12,6.8-12,15.9v9.3c0,10.5,4.3,15.8,11.4,15.8c7.8,0,12.1-6.6,12.1-15.2V1.7z"/>
		<path d="M455.8,43.8v-44c0-6.3-2.1-11.7-10.6-11.7c-6.9,0-12.7,5.3-12.7,11.2v44.4H409v-73.8h22.3v8.3h0.3
			c2.7-3.4,10.9-10.5,23.5-10.5c13.3,0,24.2,6.5,24.2,24.8v51.2L455.8,43.8L455.8,43.8z"/>
		<path d="M557.4,13.1h-44V14c0,6.8,3.8,13.9,16.2,13.9c8.4,0,16.4-2.2,23-5.2l1,17.7c-5.6,3.1-14.9,5.6-26.9,5.6
			c-28.9,0-36.3-14.5-36.3-38.8c0-23.6,9.3-39.4,36-39.4c23.8,0,31.2,14,31.2,36.6C557.7,6,557.6,10.9,557.4,13.1z M525.5-17
			C516.6-17,513-9.2,513-1.6h23.2C536.1-8.5,534.8-17,525.5-17z"/>
	</g>
</g>
<g id="Layer_6">
	<g>
		<g>
			<polygon points="75.6,116.6 -2.6,116.6 8.6,104.2 79.3,104.2 			"/>
			<path d="M75.9,117H-3.4l12-13.1h71.3L75.9,117z M-1.7,116.2h77l3.4-11.6H8.8L-1.7,116.2z"/>
		</g>
		<g>
			<polygon points="70.8,133 -17.4,133 -7.7,122.2 74,122.2 			"/>
			<path d="M71.1,133.3h-89.4l10.4-11.5h82.4L71.1,133.3z M-16.6,132.5h87.1l2.9-10h-81L-16.6,132.5z"/>
		</g>
		<g>
			<polygon points="65.9,149.1 -32.2,149.1 -24.1,140.1 68.6,140.1 			"/>
			<path d="M66.3,149.5h-99.4l8.9-9.7h93.4L66.3,149.5z M-31.4,148.8h96.9l2.5-8.2h-91.9L-31.4,148.8z"/>
		</g>
		<g>
			<polygon points="61.3,165 -46.6,165 -40.5,158.2 63.3,158.2 			"/>
			<path d="M61.6,165.3H-47.6l6.8-7.5H63.7L61.6,165.3z M-45.7,164.5H61l1.8-6h-103L-45.7,164.5z"/>
		</g>
		<g>
			<polygon points="56.6,180.7 -60.9,180.7 -56.8,176.3 57.9,176.3 			"/>
			<path d="M-61.9,181.1l4.8-5.3H58.4l-1.5,5.3H-61.9z M-56.6,176.6l-3.4,3.8H56.4l1.1-3.6L-56.6,176.6z"/>
		</g>
	</g>
</g>
</svg>
