<?xml version="1.0" encoding="UTF-8"?>
<!DOCTYPE svg PUBLIC "-//W3C//DTD SVG 1.1//EN" "http://www.w3.org/Graphics/SVG/1.1/DTD/svg11.dtd">
<!-- Creator: CorelDRAW X7 -->
<svg xmlns="http://www.w3.org/2000/svg" xml:space="preserve" width="100mm" height="95mm" version="1.1" style="shape-rendering:geometricPrecision; text-rendering:geometricPrecision; image-rendering:optimizeQuality; fill-rule:evenodd; clip-rule:evenodd"
viewBox="0 0 10000 9500"
 xmlns:xlink="http://www.w3.org/1999/xlink">
 <defs>
  <style type="text/css">
   <![CDATA[
    .fil0 {fill:#FEFEFE;fill-rule:nonzero}
   ]]>
  </style>
 </defs>
 <g id="Layer_x0020_1">
  <metadata id="CorelCorpID_0Corel-Layer"/>
  <g id="_941534368">
   <path class="fil0" d="M4793 2757l0 -2750c-2614,0 -4734,2114 -4743,4726l0 34c9,2611 2129,4726 4743,4726l0 -2742 0 -10c-1185,0 -2077,-892 -2077,-1992 0,-1101 892,-1992 2077,-1992z"/>
   <path class="fil0" d="M5207 6744l0 2749c2620,0 4743,-2123 4743,-4743 0,-2619 -2123,-4743 -4743,-4743l0 2743 0 9c1185,0 2077,892 2077,1993 0,1100 -892,1992 -2077,1992z"/>
   <path class="fil0" d="M6645 4746c0,805 -736,1458 -1644,1458 -908,0 -1645,-653 -1645,-1458 0,-806 737,-1459 1645,-1459 908,0 1644,653 1644,1459z"/>
  </g>
 </g>
</svg>
