<svg id="Layer_1" data-name="Layer 1" xmlns="http://www.w3.org/2000/svg" width="164" height="69.24" viewBox="0 0 164 69.24"><defs><style>.cls-1{fill:#00a88e;}.cls-2{fill:#a0cf67;}</style></defs><title>extracare-trust-logo</title><polygon class="cls-1" points="0.09 32.47 0.09 4.09 14.61 4.09 13.36 7.49 3.93 7.49 3.93 16.28 13.27 16.28 13.27 19.64 3.93 19.64 3.93 29.07 14.69 29.07 14.69 32.47 0.09 32.47"/><polygon class="cls-1" points="32.14 32.47 26.71 24.38 21.28 32.47 17.14 32.47 24.47 21.96 17.7 12.1 22.06 12.1 27.14 19.76 32.31 12.1 36.36 12.1 29.42 22.13 36.4 32.47 32.14 32.47"/><path class="cls-1" d="M45.44,32.9c-3.18,0-4.61-1.81-4.61-4.48V15.15h-3.4V12.09h3.38V7.52l3.83-1.21v5.77h6.29l-1.25,3.06h-5v12c0,1.68.67,2.46,2,2.46a6.38,6.38,0,0,0,3.53-1.34l1.12,2.58a10.64,10.64,0,0,1-5.85,2.07"/><path class="cls-1" d="M64.85,15.8a4.49,4.49,0,0,0-2.11-.47,6.89,6.89,0,0,0-4.27,2.24v14.9H54.64V12.09h3.19l.47,2.28c2.54-2.32,4.13-2.8,5.73-2.8a4.39,4.39,0,0,1,2.32.67Z"/><path class="cls-1" d="M79.26,22.83,75.55,23c-3.34.13-4.74,1.25-4.74,3.34s1.25,3.44,3.75,3.44a6.4,6.4,0,0,0,4.67-2V22.83Zm1.07,9.65-.81-1.94a8.68,8.68,0,0,1-6.16,2.37A6.14,6.14,0,0,1,67,27q0-.22,0-.44c0-4.09,3-6.5,8.31-6.68l4-.13V19c0-3.14-1.81-4.27-4.22-4.27A8.9,8.9,0,0,0,69.7,16.5l-1.42-2.58a11.9,11.9,0,0,1,7.45-2.32c4.27,0,7.34,1.81,7.34,7.06V25.5c0,4.83.13,6.24.43,7H80.33Z"/><path class="cls-1" d="M101.57,32.63c-8.61,0-13.83-6.12-13.83-14.3S93.6,3.61,102.31,3.61a14.86,14.86,0,0,1,7.28,1.64l0,3.79a12.73,12.73,0,0,0-7.28-2.11c-6.42,0-10.38,5-10.38,11.16,0,6.42,3.83,11.11,10.21,11.11a14.29,14.29,0,0,0,6.76-1.81l1.12,3a16.79,16.79,0,0,1-8.4,2.28"/><path class="cls-1" d="M125.24,22.56l-3.71.13c-3.34.13-4.74,1.25-4.74,3.34,0,1.94,1.25,3.44,3.75,3.44a6.39,6.39,0,0,0,4.67-2V22.56Zm1.07,9.65-.82-1.94a8.68,8.68,0,0,1-6.16,2.37A6.14,6.14,0,0,1,113,26.75q0-.22,0-.44c0-4.09,3-6.5,8.31-6.68l4-.13v-.77c0-3.14-1.81-4.27-4.22-4.27a8.89,8.89,0,0,0-5.34,1.77l-1.42-2.6a11.9,11.9,0,0,1,7.45-2.32c4.27,0,7.34,1.81,7.34,7.06v6.85c0,4.83.13,6.24.43,7h-3.16Z"/><path class="cls-1" d="M144.49,15.54a4.49,4.49,0,0,0-2.11-.47,6.91,6.91,0,0,0-4.27,2.24v14.9h-3.83V11.83h3.19l.47,2.28c2.54-2.32,4.13-2.8,5.73-2.8A4.38,4.38,0,0,1,146,12Z"/><path class="cls-1" d="M155.55,14.41c-2.84,0-4.61,2.5-4.61,5.43h9c0-2.63-1.46-5.43-4.44-5.43M151,22.81c0,3.62,2.32,6.59,6.42,6.59A10.06,10.06,0,0,0,162.32,28l1.07,2.54a11.77,11.77,0,0,1-6.76,2.11c-6.63,0-9.69-5.21-9.69-10.9,0-5.86,3.4-10.42,8.61-10.42S164,15.5,164,21.82v1H151Z"/><polygon class="cls-2" points="23.5 1.62 21.54 1.62 21.54 7.67 20.22 7.67 20.22 1.62 18.15 1.62 18.15 0.53 23.81 0.53 23.5 1.62"/><path class="cls-2" d="M27.64,7.67v-3c0-.57-.09-1.11-.78-1.11a2.06,2.06,0,0,0-1.25.54V7.68H24.27V0h1.34V3.1a2.67,2.67,0,0,1,1.7-.67c.79,0,1.64.38,1.64,1.89V7.66H27.64Z"/><path class="cls-2" d="M32.19,3.41a1.06,1.06,0,0,0-1,1.11v0h2a1,1,0,0,0-.95-1.13h0m-1,2A1.34,1.34,0,0,0,32.6,6.75h.07A2.67,2.67,0,0,0,34,6.39l.31.83a3.3,3.3,0,0,1-1.86.56A2.45,2.45,0,0,1,29.9,5.11a2.47,2.47,0,0,1,2.33-2.67c1.46,0,2.3,1.05,2.3,2.67v.38H31.19Z"/><path class="cls-2" d="M93.51,45a3.41,3.41,0,0,1-3.6-3.61,3.66,3.66,0,0,1,3.6-3.72h.27a4,4,0,0,1,1.86.39v1.2a3.38,3.38,0,0,0-1.81-.51,2.56,2.56,0,0,0-.1,5.11,3.6,3.6,0,0,0,1.76-.47l.36.94a4.39,4.39,0,0,1-2.32.67"/><path class="cls-2" d="M100,44.88v-3c0-.57-.09-1.11-.78-1.11a2.06,2.06,0,0,0-1.25.54v3.57h-1.3V37.21H98v3.1a2.67,2.67,0,0,1,1.7-.67c.79,0,1.64.38,1.64,1.89v3.34H100Z"/><path class="cls-2" d="M105.34,42.53h-.73c-.71,0-1,.26-1,.67a.72.72,0,0,0,.72.72h.12a1.34,1.34,0,0,0,.92-.33V42.53Zm.33,2.36-.22-.45A2.12,2.12,0,0,1,104,45a1.6,1.6,0,0,1-1.68-1.51s0-.1,0-.14c0-1.06.83-1.64,2.15-1.68l.91,0v-.16a.85.85,0,0,0-.82-.88h-.16A2.52,2.52,0,0,0,103,41l-.42-.81a3.38,3.38,0,0,1,2-.56c1.27,0,2,.52,2,1.86v2a5.23,5.23,0,0,0,.09,1.34h-1.09Z"/><path class="cls-2" d="M110.78,41a1.19,1.19,0,0,0-.61-.16,1.5,1.5,0,0,0-1,.45v3.63h-1.34V39.75h1.09l.14.54a2.08,2.08,0,0,1,1.42-.67,1.27,1.27,0,0,1,.71.22Z"/><path class="cls-2" d="M111.86,39.75h1.3v5.13h-1.3Zm.67-.79a.79.79,0,1,1,.81-.79.8.8,0,0,1-.81.79h0"/><path class="cls-2" d="M116.26,45a1.11,1.11,0,0,1-1.27-1.2V40.73h-.91v-1H115V38.57l1.3-.39v1.57h1.6l-.38,1h-1.22V43.3a.47.47,0,0,0,.33.57h.16a1.68,1.68,0,0,0,.86-.28l.35.83a3.17,3.17,0,0,1-1.72.55"/><path class="cls-2" d="M121.52,42.53h-.73c-.71,0-1,.26-1,.67a.72.72,0,0,0,.72.72h.12a1.34,1.34,0,0,0,.92-.33V42.53Zm.33,2.36-.22-.45a2.12,2.12,0,0,1-1.48.56,1.6,1.6,0,0,1-1.68-1.51s0-.1,0-.14c0-1.06.83-1.64,2.15-1.68l.91,0v-.16a.85.85,0,0,0-.82-.88h-.16a2.52,2.52,0,0,0-1.34.38l-.43-.81a3.38,3.38,0,0,1,2-.56c1.27,0,2,.52,2,1.86v2a5.18,5.18,0,0,0,.09,1.34h-1.09Z"/><path class="cls-2" d="M126.09,40.72a1.74,1.74,0,0,0-.73.16v2.94a1.91,1.91,0,0,0,.67.1,1.58,1.58,0,0,0,1.51-1.64v-.06a1.42,1.42,0,0,0-1.33-1.5h-.1M125.78,45a3.46,3.46,0,0,1-1.69-.37V37.2h1.3v2.58a3.52,3.52,0,0,1,1-.15,2.34,2.34,0,0,1,2.45,2.5A2.85,2.85,0,0,1,126,45h-.23"/><path class="cls-2" d="M130.95,45a1,1,0,0,1-1.18-1.13V37.19h1.3v6.09c0,.38.07.53.35.53a1.66,1.66,0,0,0,.38-.05l.17,1a2,2,0,0,1-1,.26"/><path class="cls-2" d="M134.78,40.6a1.06,1.06,0,0,0-1,1.11v0h2a1,1,0,0,0-.95-1.13h0m-1,2a1.34,1.34,0,0,0,1.38,1.29h.07a2.67,2.67,0,0,0,1.34-.36l.31.83A3.29,3.29,0,0,1,135,45a2.68,2.68,0,0,1-.22-5.34c1.46,0,2.3,1.05,2.3,2.67v.38h-3.34Z"/><polygon class="cls-2" points="144.93 38.83 142.98 38.83 142.98 44.88 141.66 44.88 141.66 38.83 139.59 38.83 139.59 37.73 145.25 37.73 144.93 38.83"/><path class="cls-2" d="M148,41a1.18,1.18,0,0,0-.61-.16,1.5,1.5,0,0,0-1,.45v3.63h-1.34V39.75h1.09l.14.54a2.08,2.08,0,0,1,1.42-.67,1.26,1.26,0,0,1,.71.22Z"/><path class="cls-2" d="M152.49,44.88l-.23-.51a2.33,2.33,0,0,1-1.57.62c-.67,0-1.74-.35-1.74-2V39.74h1.3v3.16a.89.89,0,0,0,.72,1h.2a1.52,1.52,0,0,0,1-.42V39.74h1.3v3.73a5.15,5.15,0,0,0,.1,1.42h-1.08Z"/><path class="cls-2" d="M156.24,45a3.54,3.54,0,0,1-1.9-.48l.42-1a2.49,2.49,0,0,0,1.38.45c.53,0,.88-.19.88-.54,0-.92-2.36-.57-2.36-2.32,0-.89.71-1.52,1.94-1.52a3.9,3.9,0,0,1,1.51.26V41a3.93,3.93,0,0,0-1.46-.33c-.45,0-.73.14-.73.45,0,.81,2.4.54,2.4,2.31,0,1.15-1,1.6-2.09,1.6"/><path class="cls-2" d="M161,45a1.11,1.11,0,0,1-1.27-1.2V40.73h-.91v-1h.91V38.57l1.3-.39v1.57h1.6l-.38,1H161V43.3a.47.47,0,0,0,.33.57h.16a1.7,1.7,0,0,0,.86-.28l.35.83A3.16,3.16,0,0,1,161,45"/><path class="cls-1" d="M2.84,66H0V57.07H2.85A2.31,2.31,0,0,1,5.43,59.3a2,2,0,0,1-1.11,1.86h0A2.19,2.19,0,0,1,6,63.32C6,64.61,5.09,66,2.84,66Zm-.39-7.56h-.8v2.37h1a1.18,1.18,0,0,0,1.17-1.18C3.79,58.93,3.36,58.46,2.44,58.46Zm.32,3.71H1.65v2.47h1c1.1,0,1.64-.49,1.64-1.34C4.33,62.64,3.77,62.16,2.76,62.16Z"/><path class="cls-1" d="M8.55,63.24a1.7,1.7,0,0,0,1.78,1.62h0A3.34,3.34,0,0,0,12,64.4l.39,1a4.11,4.11,0,0,1-2.3.71,3.06,3.06,0,0,1-3.19-3.34C6.92,61,8,59.49,9.83,59.49s2.88,1.34,2.88,3.34v.47H8.57Zm1.22-2.56a1.34,1.34,0,0,0-1.26,1.4H11A1.34,1.34,0,0,0,9.77,60.67Z"/><path class="cls-1" d="M16.12,66.17a1.39,1.39,0,0,1-1.59-1.51V60.83H13.39V59.6h1.14V58.12l1.63-.49v2h2l-.51,1.22H16.12v3.23a.59.59,0,0,0,.61.73,2.1,2.1,0,0,0,1.07-.35l.43,1A4,4,0,0,1,16.12,66.17Z"/><path class="cls-1" d="M21.31,66.17a1.39,1.39,0,0,1-1.59-1.51V60.83H18.59V59.6h1.14V58.12l1.63-.49v2h2l-.49,1.22H21.35v3.23a.59.59,0,0,0,.61.73A2.1,2.1,0,0,0,23,64.44l.43,1A4,4,0,0,1,21.31,66.17Z"/><path class="cls-1" d="M25.74,63.24a1.7,1.7,0,0,0,1.78,1.62h0a3.34,3.34,0,0,0,1.67-.45l.39,1a4.11,4.11,0,0,1-2.34.71,3.06,3.06,0,0,1-3.19-3.34c0-1.84,1.09-3.34,2.92-3.34s2.88,1.34,2.88,3.34v.47H25.74ZM27,60.67a1.34,1.34,0,0,0-1.26,1.4h2.5A1.34,1.34,0,0,0,27,60.67Z"/><path class="cls-1" d="M34.73,61.11a1.49,1.49,0,0,0-.76-.2,1.88,1.88,0,0,0-1.24.57V66H31.1V59.6h1.37l.17.67a2.6,2.6,0,0,1,1.78-.83,1.58,1.58,0,0,1,.89.27Z"/><path class="cls-1" d="M39.42,66V57.07h1.64v7.56h3.2V66H39.42Z"/><path class="cls-1" d="M46.16,58.61a1,1,0,1,1,1-1,1,1,0,0,1-1,1ZM45.34,66V59.6H47V66Z"/><path class="cls-1" d="M51.78,66.06H50.6L48,59.6h1.67L51.23,64h0l1.63-4.37h1.58Z"/><path class="cls-1" d="M56.44,63.24a1.7,1.7,0,0,0,1.8,1.6,3.34,3.34,0,0,0,1.67-.45l.39,1a4.11,4.11,0,0,1-2.34.71,3.06,3.06,0,0,1-3.19-3.34c0-1.84,1.09-3.34,2.92-3.34s2.88,1.34,2.88,3.34v.47H56.43Zm1.22-2.56a1.34,1.34,0,0,0-1.26,1.4h2.5a1.34,1.34,0,0,0-1.24-1.42Z"/><path class="cls-1" d="M63.68,66.17a4.45,4.45,0,0,1-2.38-.59l.53-1.2a3.12,3.12,0,0,0,1.72.57c.67,0,1.1-.25,1.1-.67,0-1.15-3-.72-3-2.9,0-1.11.88-1.9,2.43-1.9A4.87,4.87,0,0,1,66,59.8v1.34a4.9,4.9,0,0,0-1.82-.42c-.57,0-.91.17-.91.55,0,1,3,.67,3,2.89C66.3,65.6,65,66.17,63.68,66.17Z"/><path class="cls-2" d="M74.43,57.89a2.14,2.14,0,0,0-.81-.17.73.73,0,0,0-.76.87v1h1.7l-.41,1.22H72.86V66H71.23V60.83H70.3V59.58h.93v-.89a2.1,2.1,0,0,1,2.27-2.3,3.11,3.11,0,0,1,1.26.29Z"/><path class="cls-2" d="M80.5,65.23a3.37,3.37,0,0,1-4.51.13,3.34,3.34,0,0,1-1-2.51,3.49,3.49,0,0,1,.93-2.48,3.14,3.14,0,0,1,2.28-.91,3.2,3.2,0,0,1,2.36.92,3.48,3.48,0,0,1,.85,2.42A3.4,3.4,0,0,1,80.5,65.23Zm-2.34-4.49c-1,0-1.54.87-1.54,2.06s.59,2.09,1.58,2.09,1.54-.88,1.54-2.09S79.17,60.74,78.16,60.74Z"/><path class="cls-2" d="M86.28,61.11a1.48,1.48,0,0,0-.76-.2,1.88,1.88,0,0,0-1.24.57V66H82.65V59.6H84l.17.67A2.6,2.6,0,0,1,86,59.44a1.58,1.58,0,0,1,.89.27Z"/><path class="cls-2" d="M98.41,64.87a5,5,0,0,1-6.45.19,4.49,4.49,0,0,1-1.42-3.42,4.67,4.67,0,0,1,1.29-3.34,4.87,4.87,0,0,1,6.72.08A5,5,0,0,1,98.41,64.87Zm-3.3-6.5c-1.67,0-2.84,1.21-2.84,3.22s1.17,3.23,2.84,3.23,2.82-1.21,2.82-3.23-1.11-3.22-2.83-3.22Z"/><path class="cls-2" d="M102.41,66.17a1.34,1.34,0,0,1-1.48-1.42V56.41h1.63V64c0,.47.09.67.43.67a2,2,0,0,0,.47-.07l.21,1.21A2.56,2.56,0,0,1,102.41,66.17Z"/><path class="cls-2" d="M107.81,66.17a3.2,3.2,0,0,1-3.49-3.3,3.34,3.34,0,0,1,3.26-3.42h.3a4.67,4.67,0,0,1,.81.05v-3.1h1.63v9.23A5.42,5.42,0,0,1,107.81,66.17Zm.88-5.34a2.72,2.72,0,0,0-.76-.09,1.9,1.9,0,0,0-2,2,1.92,1.92,0,0,0,1.79,2h.21a2.92,2.92,0,0,0,.73-.09V60.83Z"/><path class="cls-2" d="M113.17,63.24A1.7,1.7,0,0,0,115,64.85h0a3.34,3.34,0,0,0,1.67-.45l.39,1a4.11,4.11,0,0,1-2.34.71,3.06,3.06,0,0,1-3.19-3.34c0-1.84,1.09-3.34,2.92-3.34s2.88,1.34,2.88,3.34v.47h-4.14Zm1.22-2.56a1.34,1.34,0,0,0-1.26,1.4h2.5A1.34,1.34,0,0,0,114.4,60.67Z"/><path class="cls-2" d="M122.16,61.11a1.48,1.48,0,0,0-.76-.2,1.88,1.88,0,0,0-1.24.57V66h-1.63V59.6h1.37l.17.67a2.6,2.6,0,0,1,1.78-.83,1.58,1.58,0,0,1,.89.27Z"/><path class="cls-2" d="M128.94,62.9h-.45V66h-1.64V57.07h2.3c1.94,0,3.22,1,3.22,2.88C132.36,61.2,131.48,62.9,128.94,62.9Zm0-4.44h-.49v3.15H129a1.49,1.49,0,0,0,1.7-1.62,1.52,1.52,0,0,0-1.48-1.55Z"/><path class="cls-2" d="M134.68,63.24a1.7,1.7,0,0,0,1.78,1.62h0a3.34,3.34,0,0,0,1.67-.45l.39,1a4.11,4.11,0,0,1-2.34.71A3.06,3.06,0,0,1,133,62.82c0-1.84,1.09-3.34,2.92-3.34s2.88,1.34,2.88,3.34v.47h-4.14Zm1.22-2.56a1.34,1.34,0,0,0-1.26,1.4h2.5A1.34,1.34,0,0,0,135.91,60.67Z"/><path class="cls-2" d="M145.29,65.23a3.42,3.42,0,0,1-4.55.13,3.34,3.34,0,0,1-1-2.51,3.49,3.49,0,0,1,.93-2.48,3.14,3.14,0,0,1,2.28-.91,3.2,3.2,0,0,1,2.36.92,3.48,3.48,0,0,1,.85,2.42A3.4,3.4,0,0,1,145.29,65.23ZM143,60.74c-1,0-1.54.87-1.54,2.06s.59,2.09,1.58,2.09,1.54-.88,1.54-2.09S144,60.74,143,60.74Z"/><path class="cls-2" d="M150,66.17a2.92,2.92,0,0,1-.92-.15v3.22h-1.63V59.89a7.34,7.34,0,0,1,2.5-.43c2.28,0,3.46,1.26,3.46,3.26a3.34,3.34,0,0,1-3.22,3.45Zm-.17-5.34a2.86,2.86,0,0,0-.75.09v3.82a2.33,2.33,0,0,0,.84.16c1.14,0,1.79-.83,1.79-2.08a1.79,1.79,0,0,0-1.57-2Z"/><path class="cls-2" d="M156.11,66.17a1.34,1.34,0,0,1-1.48-1.42V56.41h1.63V64c0,.47.09.67.43.67a2,2,0,0,0,.47-.07l.21,1.21A2.56,2.56,0,0,1,156.11,66.17Z"/><path class="cls-2" d="M159.65,63.24a1.7,1.7,0,0,0,1.78,1.62h0a3.34,3.34,0,0,0,1.67-.45l.39,1a4.11,4.11,0,0,1-2.34.71A3.06,3.06,0,0,1,158,62.82c0-1.84,1.09-3.34,2.92-3.34s2.88,1.34,2.88,3.34v.47h-4.14Zm1.22-2.56a1.34,1.34,0,0,0-1.26,1.4h2.5a1.34,1.34,0,0,0-1.22-1.42Z"/></svg>