<?xml version="1.0" encoding="utf-8"?>
<!-- Generator: Adobe Illustrator 19.0.0, SVG Export Plug-In . SVG Version: 6.00 Build 0)  -->
<svg version="1.1" id="Layer_1" xmlns="http://www.w3.org/2000/svg" xmlns:xlink="http://www.w3.org/1999/xlink" x="0px" y="0px"
	 viewBox="52 10.4 245.7 135.5" style="enable-background:new 52 10.4 245.7 135.5;" xml:space="preserve">
<style type="text/css">
	.st0{fill:#FFFFFF;}
	.st1{clip-path:url(#SVGID_2_);}
	.st2{clip-path:url(#SVGID_4_);}
	.st3{clip-path:url(#SVGID_6_);}
	.st4{clip-path:url(#SVGID_8_);}
</style>
<title>extracare-logo-revised</title>
<polygon class="st0" points="52.1,90.9 52.1,48.3 73.9,48.3 72,53.4 57.9,53.4 57.9,66.6 71.9,66.6 71.9,71.6 57.9,71.6 57.9,85.8 
	74,85.8 74,90.9 "/>
<polygon class="st0" points="100.1,90.9 92,78.7 83.9,90.9 77.7,90.9 88.7,75.1 78.5,60.3 85,60.3 92.7,71.8 100.4,60.3 106.5,60.3 
	96.1,75.4 106.5,90.9 "/>
<path class="st0" d="M120.1,91.5c-4.8,0-6.9-2.7-6.9-6.7V64.9h-5.1v-4.6h5.1v-6.8l5.7-1.8v8.6h9.4l-1.9,4.6h-7.5v17.9
	c0,2.5,1,3.7,3,3.7c1.9-0.1,3.8-0.8,5.3-2l1.7,3.9C126.3,90.3,123.2,91.4,120.1,91.5"/>
<path class="st0" d="M149.1,65.9c-1-0.5-2.1-0.7-3.2-0.7c-1.8,0-4.5,1.4-6.4,3.4v22.3h-5.7V60.3h4.8l0.7,3.4
	c3.8-3.5,6.2-4.2,8.6-4.2c1.2,0,2.4,0.3,3.5,1L149.1,65.9z"/>
<path class="st0" d="M170.7,76.4l-5.5,0.2c-5,0.2-7.1,1.9-7.1,5c0,2.9,1.9,5.2,5.6,5.2c2.6,0,5.2-1.1,7-3L170.7,76.4L170.7,76.4z
	 M172.3,90.9l-1.2-2.9c-2.5,2.4-5.8,3.6-9.2,3.5c-5.1,0.2-9.3-3.7-9.5-8.8c0-0.2,0-0.4,0-0.7c0-6.1,4.5-9.7,12.5-10l5.9-0.2v-1.2
	c0-4.7-2.7-6.4-6.3-6.4c-2.9,0-5.7,0.9-8,2.6l-2.1-3.9c3.2-2.4,7.2-3.6,11.2-3.5c6.4,0,11,2.7,11,10.6v10.3c0,7.2,0.2,9.4,0.6,10.5
	L172.3,90.9L172.3,90.9z"/>
<path class="st0" d="M204.1,91.1c-12.9,0-20.7-9.2-20.7-21.4s8.8-22.1,21.8-22.1c3.8-0.1,7.5,0.7,10.9,2.5l-0.1,5.7
	c-3.2-2.1-7-3.2-10.9-3.2c-9.6,0-15.5,7.4-15.5,16.7c0,9.6,5.7,16.6,15.3,16.6c3.5,0,7-1,10.1-2.7l1.7,4.5
	C212.9,89.9,208.6,91.1,204.1,91.1"/>
<path class="st0" d="M239.6,76l-5.5,0.2c-5,0.2-7.1,1.9-7.1,5c0,2.9,1.9,5.2,5.6,5.2c2.6,0,5.2-1.1,7-3L239.6,76L239.6,76z
	 M241.2,90.5l-1.2-2.9c-2.5,2.4-5.8,3.6-9.2,3.5c-5.1,0.2-9.3-3.7-9.5-8.8c0-0.2,0-0.4,0-0.7c0-6.1,4.5-9.7,12.5-10l5.9-0.2v-1.2
	c0-4.7-2.7-6.4-6.3-6.4c-2.9,0-5.7,0.9-8,2.6l-2.1-3.9c3.2-2.4,7.2-3.6,11.2-3.5c6.4,0,11,2.7,11,10.6V80c0,7.2,0.2,9.4,0.6,10.5
	H241.2L241.2,90.5z"/>
<path class="st0" d="M268.4,65.5c-1-0.5-2.1-0.7-3.2-0.7c-1.8,0-4.5,1.4-6.4,3.4v22.3h-5.7V59.9h4.8l0.7,3.4
	c3.8-3.5,6.2-4.2,8.6-4.2c1.2,0,2.4,0.3,3.5,1L268.4,65.5z"/>
<path class="st0" d="M285,63.8c-4.3,0-6.9,3.7-6.9,8.1h13.5C291.6,68,289.5,63.8,285,63.8 M278.1,76.4c0,5.4,3.5,9.9,9.6,9.9
	c2.6-0.1,5.2-0.8,7.4-2.1l1.6,3.8c-3,2.1-6.5,3.2-10.1,3.2c-9.9,0-14.5-7.8-14.5-16.3c0-8.8,5.1-15.6,12.9-15.6
	c8,0,12.6,6.3,12.6,15.7v1.5L278.1,76.4L278.1,76.4z"/>
<polygon class="st0" points="87.2,44.7 84.3,44.7 84.3,53.7 82.3,53.7 82.3,44.7 79.2,44.7 79.2,43 87.7,43 "/>
<path class="st0" d="M93.4,53.7v-4.5c0-0.9-0.1-1.7-1.2-1.7c-0.7,0-1.4,0.3-1.9,0.8v5.4h-2V42.2h2v4.6c0.7-0.6,1.6-1,2.5-1
	c1.2,0,2.5,0.6,2.5,2.8v5L93.4,53.7L93.4,53.7z"/>
<path class="st0" d="M100.2,47.3c-0.9,0-1.6,0.8-1.5,1.7c0,0,0,0,0,0h3C101.8,48.2,101.1,47.4,100.2,47.3
	C100.3,47.3,100.2,47.3,100.2,47.3 M98.8,50.4c0,1.1,1,2,2.1,1.9c0,0,0.1,0,0.1,0c0.7,0,1.4-0.2,2-0.5l0.5,1.2
	c-0.8,0.6-1.8,0.8-2.8,0.8c-2.7,0-3.8-2-3.8-4s1.3-4,3.5-4s3.4,1.6,3.4,4v0.6L98.8,50.4L98.8,50.4z"/>
<path class="st0" d="M192.1,109.6c-2.8,0.2-5.2-2-5.4-4.8c0-0.2,0-0.4,0-0.6c0-3,2.4-5.5,5.4-5.6c0.1,0,0.3,0,0.4,0
	c1,0,1.9,0.2,2.8,0.6v1.8c-0.8-0.5-1.8-0.8-2.7-0.8c-2.1,0.1-3.8,1.8-3.7,3.9c0.1,2,1.6,3.6,3.6,3.7c0.9,0,1.8-0.3,2.6-0.7l0.5,1.4
	C194.5,109.3,193.3,109.6,192.1,109.6"/>
<path class="st0" d="M201.9,109.4V105c0-0.9-0.1-1.7-1.2-1.7c-0.7,0.1-1.4,0.3-1.9,0.8v5.4h-2V97.9h2v4.6c0.7-0.6,1.6-1,2.5-1
	c1.2,0,2.5,0.6,2.5,2.8v5L201.9,109.4L201.9,109.4z"/>
<path class="st0" d="M209.8,105.9h-1.1c-1.1,0-1.5,0.4-1.5,1c0,0.6,0.5,1.1,1.1,1.1c0.1,0,0.1,0,0.2,0c0.5,0,1-0.2,1.4-0.5V105.9
	L209.8,105.9z M210.3,109.4l-0.3-0.7c-0.6,0.6-1.4,0.9-2.2,0.8c-1.3,0.1-2.4-0.9-2.5-2.3c0-0.1,0-0.1,0-0.2c0-1.6,1.2-2.5,3.2-2.5
	l1.4,0v-0.2c0-0.7-0.5-1.3-1.2-1.3c-0.1,0-0.2,0-0.2,0c-0.7,0-1.4,0.2-2,0.6l-0.6-1.2c0.9-0.6,1.9-0.9,3-0.8c1.9,0,3,0.8,3,2.8v3
	c0,0.7,0,1.3,0.1,2h-1.6L210.3,109.4z"/>
<path class="st0" d="M217.9,103.6c-0.3-0.2-0.6-0.2-0.9-0.2c-0.6,0-1.1,0.3-1.5,0.7v5.4h-2v-7.7h1.6l0.2,0.8c0.6-0.6,1.3-1,2.1-1
	c0.4,0,0.8,0.1,1.1,0.3L217.9,103.6z"/>
<path class="st0" d="M219.5,101.8h2v7.7h-2V101.8z M220.5,100.6c-0.7,0-1.2-0.6-1.1-1.2c0-0.7,0.6-1.2,1.2-1.1
	c0.6,0,1.1,0.5,1.1,1.2C221.8,100,221.2,100.6,220.5,100.6C220.6,100.6,220.6,100.6,220.5,100.6"/>
<path class="st0" d="M226.1,109.6c-0.9,0.1-1.8-0.5-1.9-1.4c0-0.1,0-0.3,0-0.4v-4.6h-1.4v-1.5h1.4V100l2-0.6v2.4h2.4l-0.6,1.5h-1.8
	v3.9c-0.1,0.4,0.1,0.8,0.5,0.9c0.1,0,0.2,0,0.2,0c0.5,0,0.9-0.2,1.3-0.4l0.5,1.2C228,109.3,227.1,109.6,226.1,109.6"/>
<path class="st0" d="M234,105.9h-1.1c-1.1,0-1.5,0.4-1.5,1c0,0.6,0.5,1.1,1.1,1.1c0.1,0,0.1,0,0.2,0c0.5,0,1-0.2,1.4-0.5V105.9
	L234,105.9z M234.5,109.4l-0.3-0.7c-0.6,0.6-1.4,0.9-2.2,0.8c-1.3,0.1-2.4-0.9-2.5-2.3c0-0.1,0-0.1,0-0.2c0-1.6,1.2-2.5,3.2-2.5
	l1.4,0v-0.2c0-0.7-0.5-1.3-1.2-1.3c-0.1,0-0.2,0-0.2,0c-0.7,0-1.4,0.2-2,0.6l-0.6-1.2c0.9-0.6,1.9-0.9,3-0.8c1.9,0,3.1,0.8,3.1,2.8
	v3c0,0.7,0,1.3,0.1,2h-1.6L234.5,109.4z"/>
<path class="st0" d="M240.9,103.2c-0.4,0-0.7,0.1-1.1,0.2v4.4c0.3,0.1,0.7,0.2,1,0.1c1.3-0.1,2.3-1.1,2.3-2.5c0,0,0-0.1,0-0.1
	c0.1-1.2-0.8-2.2-2-2.2C241,103.2,240.9,103.2,240.9,103.2 M240.4,109.6c-0.9,0-1.7-0.2-2.5-0.5V97.9h2v3.9c0.5-0.1,1-0.2,1.5-0.2
	c1.9-0.1,3.6,1.4,3.7,3.3c0,0.1,0,0.3,0,0.4c0,2.4-1.9,4.3-4.2,4.3C240.6,109.6,240.5,109.6,240.4,109.6"/>
<path class="st0" d="M248.1,109.6c-0.8,0.1-1.6-0.5-1.8-1.3c0-0.1,0-0.3,0-0.4v-10h2v9.1c0,0.6,0.1,0.8,0.5,0.8c0.2,0,0.4,0,0.6-0.1
	l0.2,1.4C249.2,109.5,248.7,109.6,248.1,109.6"/>
<path class="st0" d="M253.9,103c-0.9,0-1.6,0.8-1.5,1.7c0,0,0,0,0,0h3C255.4,103.9,254.8,103.1,253.9,103
	C253.9,103,253.9,103,253.9,103 M252.4,106.1c0,1.1,1,2,2.1,1.9c0,0,0.1,0,0.1,0c0.7,0,1.4-0.2,2-0.5l0.5,1.2
	c-0.8,0.6-1.8,0.8-2.8,0.8c-2.7,0-3.8-2-3.8-4s1.3-4,3.5-4s3.4,1.6,3.4,4v0.6L252.4,106.1L252.4,106.1z"/>
<polygon class="st0" points="269.1,100.4 266.2,100.4 266.2,109.4 264.2,109.4 264.2,100.4 261.1,100.4 261.1,98.7 269.6,98.7 "/>
<path class="st0" d="M273.7,103.6c-0.3-0.2-0.6-0.2-0.9-0.2c-0.6,0-1.1,0.3-1.5,0.7v5.4h-2v-7.7h1.6l0.2,0.8c0.6-0.6,1.3-1,2.1-1
	c0.4,0,0.8,0.1,1.1,0.3L273.7,103.6z"/>
<path class="st0" d="M280.4,109.4l-0.3-0.8c-0.6,0.6-1.5,0.9-2.3,0.9c-1,0-2.6-0.5-2.6-3v-4.9h2v4.7c-0.1,0.7,0.4,1.4,1.1,1.5
	c0.1,0,0.2,0,0.3,0c0.6,0,1.1-0.2,1.5-0.6v-5.7h2v5.6c0,0.7,0,1.4,0.2,2.1L280.4,109.4L280.4,109.4z"/>
<path class="st0" d="M286,109.6c-1,0-2-0.2-2.8-0.7l0.6-1.4c0.6,0.4,1.3,0.7,2.1,0.7c0.8,0,1.3-0.3,1.3-0.8c0-1.4-3.5-0.9-3.5-3.5
	c0-1.3,1.1-2.3,2.9-2.3c0.8,0,1.5,0.1,2.3,0.4v1.6c-0.7-0.3-1.4-0.5-2.2-0.5c-0.7,0-1.1,0.2-1.1,0.7c0,1.2,3.6,0.8,3.6,3.5
	C289.1,108.9,287.6,109.6,286,109.6"/>
<path class="st0" d="M293.1,109.6c-0.9,0.1-1.8-0.5-1.9-1.4c0-0.1,0-0.3,0-0.4v-4.6h-1.4v-1.5h1.4V100l2-0.6v2.4h2.4l-0.6,1.5h-1.8
	v3.9c-0.1,0.4,0.1,0.8,0.5,0.9c0.1,0,0.2,0,0.2,0c0.5,0,0.9-0.2,1.3-0.4l0.5,1.2C295,109.3,294.1,109.6,293.1,109.6"/>
<path class="st0" d="M56.2,141.1H52v-13.4h4.3c2.6,0,3.9,1.7,3.9,3.3c0,1.2-0.6,2.3-1.7,2.8l0,0c1.5,0.3,2.6,1.7,2.5,3.2
	C61,139,59.6,141.1,56.2,141.1z M55.7,129.8h-1.2v3.5h1.5c1,0,1.8-0.8,1.8-1.8C57.7,130.5,57,129.8,55.7,129.8z M56.1,135.3h-1.7
	v3.7H56c1.6,0,2.5-0.7,2.5-2C58.5,136.1,57.6,135.3,56.1,135.3z"/>
<path class="st0" d="M64.8,136.9c0.1,1.4,1.3,2.5,2.7,2.4c0,0,0,0,0,0c0.9,0,1.7-0.2,2.5-0.7l0.6,1.6c-1,0.7-2.2,1.1-3.5,1.1
	c-3.4,0-4.8-2.4-4.8-5c0-2.8,1.6-5,4.4-5s4.3,2,4.3,5v0.7h-6.2L64.8,136.9z M66.6,133.1c-1.1,0.1-1.9,1-1.9,2.1c0,0,0,0,0,0h3.7
	C68.5,134.1,67.7,133.2,66.6,133.1z"/>
<path class="st0" d="M76.1,141.3c-1.1,0.2-2.2-0.6-2.4-1.7c0-0.2,0-0.3,0-0.5v-5.7h-1.7v-1.8h1.7v-2.2l2.4-0.7v3h3l-0.8,1.8h-2.3
	v4.8c-0.1,0.5,0.2,1,0.6,1.1c0.1,0,0.2,0,0.3,0c0.6,0,1.1-0.2,1.6-0.5l0.6,1.5C78.4,140.9,77.3,141.3,76.1,141.3z"/>
<path class="st0" d="M83.9,141.3c-1.1,0.2-2.2-0.6-2.4-1.7c0-0.2,0-0.3,0-0.5v-5.7h-1.7v-1.8h1.7v-2.2l2.4-0.7v3h3l-0.7,1.8H84v4.8
	c-0.1,0.5,0.2,1,0.6,1.1c0.1,0,0.2,0,0.3,0c0.6,0,1.1-0.2,1.6-0.5l0.6,1.5C86.2,140.9,85.1,141.3,83.9,141.3z"/>
<path class="st0" d="M90.6,136.9c0.1,1.4,1.3,2.5,2.7,2.4c0,0,0,0,0,0c0.9,0,1.7-0.2,2.5-0.7l0.6,1.6c-1,0.7-2.3,1.1-3.5,1.1
	c-3.4,0-4.8-2.4-4.8-5c0-2.8,1.6-5,4.4-5s4.3,2,4.3,5v0.7L90.6,136.9L90.6,136.9z M92.4,133.1c-1.1,0.1-1.9,1-1.9,2.1c0,0,0,0,0,0
	h3.7C94.3,134.1,93.5,133.2,92.4,133.1z"/>
<path class="st0" d="M104,133.8c-0.3-0.2-0.7-0.3-1.1-0.3c-0.7,0-1.4,0.3-1.9,0.9v6.8h-2.4v-9.6h2l0.3,1c0.7-0.7,1.6-1.2,2.7-1.2
	c0.5,0,0.9,0.1,1.3,0.4L104,133.8z"/>
<path class="st0" d="M111.1,141.1v-13.4h2.5V139h4.8v2.1H111.1L111.1,141.1z"/>
<path class="st0" d="M121.1,130c-0.8,0-1.5-0.7-1.4-1.5c0-0.8,0.7-1.5,1.5-1.4c0.8,0,1.4,0.7,1.4,1.5C122.7,129.3,122,130,121.1,130
	C121.2,130,121.1,130,121.1,130z M119.9,141.1v-9.6h2.4v9.6H119.9z"/>
<path class="st0" d="M129.6,141.2h-1.8l-4-9.7h2.5l2.4,6.5l0,0l2.4-6.5h2.4L129.6,141.2z"/>
<path class="st0" d="M136.5,136.9c0.1,1.4,1.3,2.5,2.7,2.4c0.9,0,1.7-0.2,2.5-0.7l0.6,1.6c-1,0.7-2.3,1.1-3.5,1.1
	c-3.4,0-4.8-2.4-4.8-5c0-2.8,1.6-5,4.4-5s4.3,2,4.3,5v0.7L136.5,136.9L136.5,136.9z M138.4,133.1c-1.1,0.1-1.9,1-1.9,2.1
	c0,0,0,0,0,0h3.7C140.3,134.1,139.5,133.2,138.4,133.1L138.4,133.1z"/>
<path class="st0" d="M147.4,141.3c-1.2,0-2.5-0.3-3.6-0.9l0.8-1.8c0.8,0.5,1.7,0.8,2.6,0.9c1,0,1.6-0.4,1.6-1c0-1.7-4.4-1.1-4.4-4.4
	c0-1.7,1.3-2.9,3.6-2.9c1,0,1.9,0.1,2.8,0.5v2c-0.9-0.4-1.8-0.6-2.7-0.6c-0.9,0-1.4,0.3-1.4,0.8c0,1.5,4.5,1,4.5,4.3
	C151.3,140.5,149.4,141.3,147.4,141.3z"/>
<path class="st0" d="M163.5,128.9c-0.4-0.2-0.8-0.3-1.2-0.3c-0.6,0-1.1,0.4-1.2,1c0,0.1,0,0.2,0,0.3v1.5h2.5l-0.6,1.8h-1.9v7.8h-2.4
	v-7.8h-1.4v-1.9h1.4v-1.3c-0.2-1.7,1.1-3.3,2.8-3.4c0.2,0,0.4,0,0.6,0c0.7,0,1.3,0.2,1.9,0.4L163.5,128.9z"/>
<path class="st0" d="M172.6,139.9c-0.9,0.9-2.2,1.4-3.4,1.4c-1.2,0-2.4-0.4-3.3-1.2c-1-1-1.5-2.4-1.5-3.8c0-1.4,0.5-2.7,1.4-3.7
	c0.9-0.9,2.1-1.4,3.4-1.4c1.3,0,2.6,0.5,3.5,1.4c0.9,1,1.3,2.3,1.3,3.6C174,137.6,173.5,139,172.6,139.9z M169.1,133.2
	c-1.5,0-2.3,1.3-2.3,3.1s0.9,3.1,2.4,3.1s2.3-1.3,2.3-3.1S170.6,133.2,169.1,133.2z"/>
<path class="st0" d="M181.2,133.8c-0.3-0.2-0.7-0.3-1.1-0.3c-0.7,0-1.4,0.3-1.9,0.9v6.8h-2.4v-9.6h2l0.3,1c0.7-0.7,1.6-1.2,2.7-1.2
	c0.5,0,0.9,0.1,1.3,0.4L181.2,133.8z"/>
<path class="st0" d="M199.4,139.4c-2.7,2.5-6.8,2.6-9.7,0.3c-1.4-1.3-2.2-3.2-2.1-5.1c0-1.9,0.6-3.7,1.9-5c2.9-2.7,7.3-2.6,10.1,0.1
	C202,132.5,201.9,136.6,199.4,139.4z M194.5,129.6c-2.5,0-4.2,1.8-4.2,4.8s1.8,4.8,4.2,4.8s4.2-1.8,4.2-4.8S197,129.6,194.5,129.6
	L194.5,129.6z"/>
<path class="st0" d="M205.4,141.3c-1.1,0.1-2.1-0.7-2.2-1.8c0-0.1,0-0.2,0-0.4v-12.5h2.4v11.4c0,0.7,0.1,1,0.6,1
	c0.2,0,0.5,0,0.7-0.1l0.3,1.8C206.7,141.2,206.1,141.3,205.4,141.3z"/>
<path class="st0" d="M213.5,141.3c-2.9,0-5.2-1.7-5.2-4.9c-0.1-2.8,2.1-5.1,4.9-5.1c0.2,0,0.3,0,0.5,0c0.4,0,0.8,0,1.2,0.1v-4.6h2.4
	v13.8C216.1,141.1,214.8,141.4,213.5,141.3z M214.8,133.3c-0.4-0.1-0.8-0.1-1.1-0.1c-1.6-0.1-2.9,1.1-3,2.7c0,0.1,0,0.3,0,0.4
	c-0.1,1.6,1.1,2.9,2.7,3c0.1,0,0.2,0,0.3,0c0.4,0,0.7,0,1.1-0.1L214.8,133.3L214.8,133.3z"/>
<path class="st0" d="M221.5,136.9c0.1,1.4,1.3,2.5,2.7,2.4c0,0,0,0,0,0c0.9,0,1.7-0.2,2.5-0.7l0.6,1.6c-1,0.7-2.3,1.1-3.5,1.1
	c-3.4,0-4.8-2.4-4.8-5c0-2.8,1.6-5,4.4-5s4.3,2,4.3,5v0.7L221.5,136.9L221.5,136.9z M223.4,133.1c-1.1,0.1-1.9,1-1.9,2.1
	c0,0,0,0,0,0h3.7C225.3,134.1,224.4,133.2,223.4,133.1z"/>
<path class="st0" d="M235,133.8c-0.3-0.2-0.7-0.3-1.1-0.3c-0.7,0-1.4,0.3-1.8,0.9v6.8h-2.4v-9.6h2l0.3,1c0.7-0.7,1.6-1.2,2.7-1.2
	c0.5,0,0.9,0.1,1.3,0.4L235,133.8z"/>
<path class="st0" d="M245.1,136.4h-0.7v4.7H242v-13.4h3.4c2.9,0,4.8,1.5,4.8,4.3C250.3,133.9,248.9,136.4,245.1,136.4z M245.2,129.8
	h-0.7v4.7h0.8c1.2,0.2,2.4-0.7,2.5-1.9c0-0.2,0-0.4,0-0.5c0-1.3-1-2.3-2.2-2.3C245.4,129.8,245.3,129.8,245.2,129.8z"/>
<path class="st0" d="M253.7,136.9c0.1,1.4,1.3,2.5,2.7,2.4c0,0,0,0,0,0c0.9,0,1.7-0.2,2.5-0.7l0.6,1.6c-1,0.7-2.3,1.1-3.5,1.1
	c-3.4,0-4.8-2.4-4.8-5c0-2.8,1.6-5,4.4-5s4.3,2,4.3,5v0.7L253.7,136.9L253.7,136.9z M255.6,133.1c-1.1,0.1-1.9,1-1.9,2.1
	c0,0,0,0,0,0h3.7C257.5,134.1,256.7,133.2,255.6,133.1z"/>
<path class="st0" d="M269.6,139.9c-0.9,0.9-2.2,1.4-3.5,1.4c-1.2,0-2.4-0.4-3.3-1.2c-1-1-1.5-2.4-1.5-3.8c0-1.4,0.5-2.7,1.4-3.7
	c0.9-0.9,2.1-1.4,3.4-1.4c1.3,0,2.6,0.5,3.5,1.4c0.9,1,1.3,2.3,1.3,3.6C271,137.6,270.5,138.9,269.6,139.9z M266.1,133.2
	c-1.5,0-2.3,1.3-2.3,3.1s0.9,3.1,2.4,3.1s2.3-1.3,2.3-3.1S267.6,133.2,266.1,133.2L266.1,133.2z"/>
<path class="st0" d="M276.7,141.3c-0.5,0-0.9-0.1-1.4-0.2v4.8h-2.4v-14c1.2-0.4,2.5-0.7,3.7-0.6c3.4,0,5.2,1.9,5.2,4.9
	c0.1,2.8-2.1,5.1-4.8,5.2C276.9,141.3,276.8,141.3,276.7,141.3z M276.4,133.3c-0.4,0-0.8,0-1.1,0.1v5.7c0.4,0.2,0.8,0.2,1.3,0.2
	c1.7,0,2.7-1.2,2.7-3.1c0.2-1.5-0.9-2.8-2.3-3C276.7,133.3,276.6,133.3,276.4,133.3z"/>
<path class="st0" d="M285.8,141.3c-1.1,0.1-2.1-0.7-2.2-1.8c0-0.1,0-0.2,0-0.4v-12.5h2.4v11.4c0,0.7,0.1,1,0.7,1
	c0.2,0,0.5,0,0.7-0.1l0.3,1.8C287.1,141.2,286.5,141.3,285.8,141.3z"/>
<path class="st0" d="M291.1,136.9c0.1,1.4,1.3,2.5,2.7,2.4c0,0,0,0,0,0c0.9,0,1.7-0.2,2.5-0.7l0.6,1.6c-1,0.7-2.3,1.1-3.5,1.1
	c-3.4,0-4.8-2.4-4.8-5c0-2.8,1.6-5,4.4-5s4.3,2,4.3,5v0.7L291.1,136.9L291.1,136.9z M293,133.1c-1.1,0.1-1.9,1-1.9,2.1c0,0,0,0,0,0
	h3.7C294.9,134.1,294.1,133.2,293,133.1L293,133.1z"/>
<path class="st0" d="M154.6,58.5h-0.1c-0.3-0.2-0.4-0.6-0.3-1c0.1-0.3,0.1-0.7,0-1c0-0.3-0.1-0.5-0.1-0.8c0-0.2,0-0.4,0-0.5
	c-0.1-0.4,0-0.8,0.2-1.1c0.2-0.2,0.5-0.4,0.8-0.5c0.2,0,0.3-0.1,0.5-0.2c0.4-0.2,0.8-0.5,1.1-0.7l0.2-0.1l0.2,1.1l1,0.4l-0.2,0.1
	c-1,0.8-1.7,1.8-2.2,3c-0.1,0.2-0.2,0.4-0.3,0.6C155.3,58.1,155,58.4,154.6,58.5z M156.7,52.9c-0.4,0.2-0.6,0.4-1,0.6
	c-0.2,0.1-0.4,0.2-0.5,0.2c-0.2,0-0.5,0.2-0.6,0.4c-0.2,0.3-0.3,0.7-0.1,1c0,0.2,0,0.4,0,0.6c0,0.2,0,0.5,0,0.7
	c0.1,0.4,0.1,0.7,0,1.1c-0.1,0.3,0,0.5,0.1,0.7c0.3-0.1,0.5-0.3,0.6-0.7c0.1-0.2,0.2-0.4,0.2-0.6c0.4-1.1,1.1-2.2,2.1-2.9l-0.7-0.3
	L156.7,52.9z"/>
<path class="st0" d="M183.6,23.3l-0.5-0.3l-0.8-0.1v-0.1c0-0.2,0.1-0.5,0.1-0.7c0-0.6,0.2-1.2,0.6-1.6c0.7-0.8,1.2-1.3,1.6-1.2
	c0.2,0,0.4,0.2,0.5,0.4c0.2,0.4,0.1,0.9-0.2,1.3l-0.1,0.1c-0.1,0.2-0.3,0.4-0.5,0.5c-0.2,0.1-0.3,0.3-0.5,0.4
	c-0.1,0.2-0.1,0.3-0.1,0.5c0,0.2,0,0.4-0.1,0.6L183.6,23.3z M182.6,22.7h0.5l0.3,0.2c0-0.1,0.1-0.3,0.1-0.4c0-0.2,0-0.4,0.1-0.6
	c0.1-0.2,0.3-0.4,0.5-0.5c0.2-0.1,0.3-0.3,0.5-0.4l0.1-0.1c0.2-0.3,0.3-0.7,0.2-1c0-0.1-0.2-0.2-0.3-0.2c-0.6,0.2-1.1,0.6-1.4,1.1
	c-0.3,0.4-0.5,0.9-0.5,1.5C182.7,22.3,182.7,22.5,182.6,22.7L182.6,22.7z"/>
<path class="st0" d="M154.7,33.4c-0.2,0-0.4-0.1-0.6-0.2c-0.2-0.3-0.2-0.7,0-0.9c0.1-0.2,0.3-0.4,0.5-0.5c0.2-0.1,0.3-0.3,0.5-0.5
	c0.2-0.4,0.3-0.9,0.3-1.4c0-0.2,0-0.4,0-0.6v-0.3l0.7,0.8h0.9V30v0.3c-0.1,1-0.3,2.3-1.4,2.9C155.3,33.4,155,33.4,154.7,33.4z
	 M155.6,29.7c0,0.1,0,0.2,0,0.3c0,0.5-0.1,1-0.4,1.5c-0.1,0.2-0.3,0.4-0.5,0.5c-0.2,0.1-0.3,0.3-0.5,0.4c-0.2,0.2-0.2,0.5,0,0.6
	c0.3,0.2,0.8,0.2,1.1-0.1c1-0.5,1.1-1.8,1.3-2.7v-0.2H156L155.6,29.7z"/>
<g>
	<defs>
		<path id="SVGID_1_" d="M166.6,38.6c-0.4,1.1-0.7,1.8-1.1,3.1c-0.4,1.3-0.8,2.7-1.1,4.1c-1.7,0.4-3.3,1.3-4.5,2.5
			c-1.4,1.2-2.5,2.6-3.2,4.2c-0.5,1.1,0.5,1.9,1.5,1.5c1.8-0.5,3.6-1.2,5.3-2c2.4-1.3,4.1-1.9,5.8-4.1c2.3-3.2,2.8-5.5,4-9l-3-0.1
			l-1-0.2L166.6,38.6L166.6,38.6z"/>
	</defs>
	<use xlink:href="#SVGID_1_"  style="overflow:visible;fill:#FFFFFF;"/>
	<clipPath id="SVGID_2_">
		<use xlink:href="#SVGID_1_"  style="overflow:visible;"/>
	</clipPath>
	<g class="st1">
		<rect x="153.6" y="35.1" transform="matrix(-0.5 0.866 -0.866 -0.5 287.3135 -72.8833)" class="st0" width="22.2" height="22.8"/>
	</g>
</g>
<path class="st0" d="M157.7,54.3c-0.4,0-0.7-0.2-1-0.5c-0.3-0.4-0.4-0.9-0.1-1.3c0.6-1.3,1.5-2.5,2.5-3.5l0.7-0.7
	c1.2-1.3,2.8-2.1,4.5-2.6c0.6-2.6,1.4-5.2,2.4-7.7v-0.1l3.7,0.8l3.1,0.1l-0.1,0.2c-0.2,0.7-0.5,1.3-0.7,1.9
	c-0.7,2.5-1.9,4.9-3.4,7.1c-1.2,1.6-2.9,2.8-4.7,3.6l-1.1,0.5c-1.4,0.7-2.9,1.3-4.5,1.8l-0.9,0.3C158.1,54.2,157.9,54.2,157.7,54.3z
	 M166.9,38.3c-0.5,1.2-0.9,2.3-1.3,3.5c-0.4,1.3-0.8,2.7-1.1,4.1v0.1h-0.1c-1.7,0.4-3.2,1.3-4.5,2.5l-0.7,0.7
	c-1.1,1-1.9,2.1-2.5,3.4c-0.2,0.3-0.2,0.8,0.1,1c0.3,0.4,0.9,0.5,1.3,0.3l0.9-0.3c1.5-0.4,3-1,4.4-1.7l1.1-0.5
	c1.8-0.7,3.4-1.9,4.6-3.5c1.5-2.1,2.7-4.5,3.4-7c0.2-0.6,0.4-1.1,0.6-1.8l-2.8-0.1L166.9,38.3z"/>
<path class="st0" d="M179.4,52.3h-0.1c-0.4-0.2-0.6-0.6-0.5-1c0.1-0.7,0-1.4-0.4-2.1c-0.4-0.9-0.2-1.1,0.2-1.3
	c0.2-0.1,0.3-0.2,0.4-0.3c0.1-0.2,0.2-0.4,0.4-0.6c0.1-0.2,0.3-0.4,0.4-0.7h0.2l0.1,0.8l0.5,0.5l0.8-0.1v0.2c-0.1,0.5-0.3,1-0.4,1.5
	c-0.2,0.8-0.4,1.6-0.7,2.4C180.3,51.9,179.9,52.2,179.4,52.3z M179.8,46.6l-0.2,0.3c-0.1,0.2-0.2,0.4-0.3,0.6
	c-0.1,0.2-0.3,0.4-0.5,0.5c-0.3,0.2-0.5,0.3-0.1,1c0.4,0.7,0.5,1.4,0.4,2.2c-0.1,0.3,0,0.6,0.3,0.8c0.3,0,0.6-0.3,0.7-0.6
	c0.3-0.8,0.5-1.6,0.7-2.4c0.1-0.4,0.2-0.9,0.3-1.4l-0.6,0.1l-0.6-0.6L179.8,46.6z"/>
<g>
	<defs>
		<path id="SVGID_3_" d="M174.9,22.5c-0.2,0.3-0.4,0.5-0.7,0.6l0.6,2.2l-0.3,3.8l-1.3,3.3l1.6-0.2c0.3-0.5,0.6-1.1,0.8-1.6
			c0.2-0.5,0.4-1,0.6-1.5c2.1,2,4.7,1.3,5.5,0.2c1.1-1.4,1.9-3.1,2.3-4.8c0.4-1.4-0.3-1.8-1.1-2s-2,1.4-3,2.7
			c-0.6-0.6-1.2-1.1-1.8-1.6c-1-0.7-1.4-0.9-2.7-1.7C175.1,22.1,175,22.3,174.9,22.5"/>
	</defs>
	<use xlink:href="#SVGID_3_"  style="overflow:visible;fill:#FFFFFF;"/>
	<clipPath id="SVGID_4_">
		<use xlink:href="#SVGID_3_"  style="overflow:visible;"/>
	</clipPath>
	<g class="st2">
		
			<rect x="172.5" y="20.9" transform="matrix(-0.1736 0.9848 -0.9848 -0.1736 236.4642 -143.9637)" class="st0" width="12.3" height="12.7"/>
	</g>
</g>
<path class="st0" d="M172.9,32.7l1.4-3.5l0.3-3.8l-0.6-2.3h0.1c0.3-0.2,0.5-0.4,0.7-0.6c0.1-0.2,0.3-0.3,0.4-0.5l0.1-0.1l0.1,0.1
	c0.5,0.3,0.9,0.6,1.2,0.8c0.5,0.3,1,0.6,1.4,0.9c0.6,0.5,1.2,1,1.7,1.5c0.8-1,2-2.6,2.9-2.6h0.1c0.4,0,0.9,0.3,1.1,0.6
	c0.2,0.5,0.3,1,0.1,1.5c-0.4,1.8-1.2,3.4-2.3,4.8c-0.5,0.7-1.3,1.1-2.1,1.1c-1.2,0.1-2.5-0.3-3.4-1.2c-0.2,0.5-0.3,0.8-0.5,1.4
	c-0.2,0.6-0.5,1.1-0.8,1.7v0.1L172.9,32.7z M174.3,23.2l0.6,2.2l0,0l-0.3,3.8l-1.2,3.1l1.3-0.2c0.3-0.5,0.6-1,0.8-1.6
	c0.2-0.5,0.4-1,0.6-1.5l0.1-0.2l0.1,0.1c0.9,0.9,2.1,1.3,3.3,1.2c0.8,0,1.5-0.4,2-1c1.1-1.4,1.8-3,2.3-4.8c0.2-0.4,0.1-0.9-0.1-1.3
	c-0.2-0.3-0.6-0.5-1-0.5c-0.5-0.1-1.6,0.9-2.8,2.6l-0.1,0.1l-0.1-0.1c-0.6-0.6-1.2-1.1-1.8-1.6c-0.4-0.3-0.9-0.6-1.4-0.9
	c-0.3-0.2-0.7-0.4-1.1-0.7c-0.1,0.2-0.2,0.3-0.3,0.5C174.8,22.8,174.6,23,174.3,23.2L174.3,23.2z"/>
<g>
	<defs>
		<path id="SVGID_5_" d="M174,32l-0.8,0.1l-3,1.6l-3,1.7l-2.3,1.3l-0.2,0.4c1.4,1.8,5.4,2.1,9,2.1c2,0,4.1-0.3,6.1-0.8
			c-0.5,2.2-1,4.1-0.8,5.5c0.5,2.5,0.5,3.4,1.3,3.8c1.3,0.5,2.8-2.7,3.4-3.8c1.4-2.8,2-6,1.8-9.1c-0.2-1.6-2.2-2.1-4-2.5
			c-0.7-0.1-1.4-0.3-2.1-0.4h-5.6L174,32z"/>
	</defs>
	<use xlink:href="#SVGID_5_"  style="overflow:visible;fill:#FFFFFF;"/>
	<clipPath id="SVGID_6_">
		<use xlink:href="#SVGID_5_"  style="overflow:visible;"/>
	</clipPath>
	<g class="st3">
		
			<rect x="163.1" y="27" transform="matrix(-0.5002 0.8659 -0.8659 -0.5002 297.9763 -91.5956)" class="st0" width="24.6" height="26.4"/>
	</g>
</g>
<path class="st0" d="M180.8,47.9c-0.1,0-0.2,0-0.3-0.1c-0.8-0.3-0.9-1-1.2-2.6c-0.1-0.4-0.1-0.8-0.2-1.2c-0.1-1.5,0-3.1,0.5-4.6
	l0.2-0.9l-1,0.2c-1.6,0.4-3.3,0.5-4.9,0.6h-0.5c-4.8,0-7.7-0.8-8.7-2.4l-0.1-0.1l2.7-1.5l3-1.7l3-1.6c2.8-0.5,5.7-0.4,8.5,0.2
	c2,0.4,3.9,1,4.1,2.6c0.2,3.2-0.4,6.3-1.8,9.2l-0.3,0.5C183,45.9,181.9,47.9,180.8,47.9z M180.1,38.3v0.2c-0.1,0.4-0.2,0.7-0.2,1
	c-0.5,1.4-0.6,2.9-0.5,4.5c0.1,0.5,0.2,0.9,0.2,1.2c0.3,1.5,0.4,2.1,1,2.4c1,0.4,2.3-1.9,3-3.2l0.3-0.5c1.3-2.8,1.9-5.9,1.8-9
	c-0.2-1.4-2-2-3.9-2.4c-2.8-0.6-5.6-0.7-8.4-0.2l-2.9,1.6l-3,1.7l-2.5,1.4c1,1.5,4,2.2,8.9,2.1c1.6,0,3.3-0.2,4.9-0.6l1.2-0.2
	L180.1,38.3z M172.1,20.6l-0.1-0.2c0.3-0.1,0.5-0.2,0.7-0.4c0.2-0.2,0.4-0.3,0.5-0.6l0.2,0.1c-0.2,0.2-0.4,0.4-0.6,0.6
	C172.6,20.3,172.4,20.5,172.1,20.6L172.1,20.6z"/>
<g>
	<defs>
		<path id="SVGID_7_" d="M160.5,21c-2.6,1.6-3.8,2.8-4.9,6.3c-0.5,1.7-0.3,3.1,0.9,2.9c1.8-0.3,2-1.1,3.1-2.2
			c0.9-0.8,1.7-1.8,2.3-2.9c1.3,0.6,2.7,0.9,4.1,0.9c-0.2,1.6-0.1,3.3,0.4,4.9l-6.5,5.3c2,1.6,6.5,1.6,9.9-0.3s4.6-4.2,5.3-7.8
			c0.7-3.4-0.7-6.5-3-7.6c-1.8-0.7-3.7-1.1-5.6-1.1C164.4,19.4,162.3,19.9,160.5,21"/>
	</defs>
	<use xlink:href="#SVGID_7_"  style="overflow:visible;fill:#FFFFFF;"/>
	<clipPath id="SVGID_8_">
		<use xlink:href="#SVGID_7_"  style="overflow:visible;"/>
	</clipPath>
	<g class="st4">
		
			<rect x="153.2" y="13.1" transform="matrix(-0.4983 0.867 -0.867 -0.4983 272.4659 -104.2328)" class="st0" width="26.4" height="27.3"/>
	</g>
</g>
<path class="st0" d="M164.1,37.4c-1.5,0.1-3-0.3-4.2-1.2l-0.1-0.1l6.5-5.3c-0.2-0.7-0.3-1.5-0.4-2.3c-0.1-0.8-0.1-1.6,0-2.4
	c-0.6,0-1.2-0.1-1.8-0.2c-0.7-0.1-1.4-0.3-2.1-0.6c-0.6,1.1-1.4,2-2.3,2.9c-0.3,0.2-0.5,0.5-0.7,0.7c-0.6,0.8-1.5,1.3-2.5,1.5
	c-0.4,0.1-0.7,0-1-0.3c-0.5-0.9-0.5-1.9-0.1-2.8c1.1-3.4,2.2-4.6,5-6.4c3.9-2.4,9.3-1.6,11.8-0.5s3.8,4.3,3.1,7.7
	c-0.8,3.9-2.3,6.1-5.4,7.9C168.2,36.9,166.2,37.4,164.1,37.4z M160.1,36.2c2.1,1.5,6.5,1.4,9.6-0.4s4.5-3.9,5.3-7.7
	c0.6-3.2-0.6-6.4-3-7.4s-7.7-1.9-11.5,0.5c-2.5,1.3-4.2,3.5-4.9,6.2c-0.4,0.8-0.4,1.7,0,2.6c0.2,0.2,0.5,0.3,0.8,0.2
	c0.9-0.1,1.8-0.7,2.4-1.4c0.2-0.2,0.4-0.5,0.7-0.7c0.9-0.8,1.7-1.8,2.3-2.9l0-0.1h0.1c0.7,0.3,1.4,0.5,2.1,0.7
	c0.6,0.1,1.3,0.2,1.9,0.2h0.2v0.1c-0.2,1.6-0.1,3.3,0.4,4.9v0.1L160.1,36.2z"/>
<path class="st0" d="M174.1,18.1l0.2,0.1c-0.1-0.5-0.5-0.9-0.9-1.1c-0.5-0.3-1.1-0.3-1.6-0.1C172.7,16.8,173.6,17.2,174.1,18.1"/>
<path class="st0" d="M175.5,16.8l0.3,0.1c-0.1-0.4-0.4-0.7-0.8-0.8c-0.4,0-0.7-0.1-1.1-0.2c-0.3-0.1-0.6-0.4-0.7-0.7
	c-0.3-0.7-1.1-1.1-1.9-0.9c0.4,0.1,0.8,0.2,1.1,0.3c0.3,0.2,0.5,0.5,0.7,0.9c0.3,0.4,0.8,0.7,1.4,0.8
	C174.9,16.1,175.3,16.4,175.5,16.8"/>
<path class="st0" d="M176.7,16.1v0.2c1.1,0.8,0.6,1.9,0,2.8c-0.4,0.9-1.4,1.3-2.4,1.2c-0.7-0.2-1.2-0.6-0.9-2.1
	c-0.5,1.3-0.1,1.9,0.8,2.3c1.1,0.4,2.2-0.5,2.7-1.2C177.6,18.2,178.1,16.9,176.7,16.1"/>
<path class="st0" d="M170.1,12c0.7,0,1.4,0.1,2.1,0.2c0.6,0.2,1.1,0.6,1.4,1.2c0.4,0.6,1,1.1,1.8,1.2c0.6,0.1,1.1,0.4,1.4,0.9
	c0.2,0.3,0.3,0.7,0.3,1.1l0.2,0.3c0.1-0.6,0-1.3-0.5-1.7c-0.4-0.5-0.9-0.7-1.5-0.8c-0.6-0.1-1.2-0.4-1.5-1c-0.5-0.6-0.4-0.9-1.5-1.2
	C171.6,11.9,170.9,11.9,170.1,12"/>
<path class="st0" d="M170.3,11.7c0.6,0.2,1.1,0.7,1.3,1.3c0.4,0.7,0.6,1.5,0.4,2.3c-0.1,0.8,0.2,1.7,0.8,2.3c-0.6-0.4-0.9-1-1-1.7
	c-0.1-0.6,0.1-0.9,0-1.5C171.6,13.3,171.1,12.3,170.3,11.7"/>
<path class="st0" d="M165.9,26.1c-0.5,0-0.9,0-1.4-0.1c-1.1-0.1-2.2-0.5-3.2-1.1l0.1-0.2c2.1,1.2,4.7,1.4,7,0.7l0.1,0.2
	C167.7,25.9,166.8,26,165.9,26.1z M175.2,22.1c-0.2-0.2-0.2-0.5-0.2-0.8c0-0.3,0.1-0.7,0.3-0.9l0.1-0.1l0.2,0.1l-0.1,0.1
	c-0.2,0.2-0.3,0.5-0.2,0.8c0,0.2,0.1,0.5,0.2,0.7L175.2,22.1z"/>
</svg>
