<?xml version="1.0" encoding="UTF-8"?>
<!DOCTYPE svg PUBLIC "-//W3C//DTD SVG 1.1//EN" "http://www.w3.org/Graphics/SVG/1.1/DTD/svg11.dtd">
<!-- Creator: CorelDRAW X7 -->
<svg xmlns="http://www.w3.org/2000/svg" xml:space="preserve" width="100mm" height="100mm" version="1.1" style="shape-rendering:geometricPrecision; text-rendering:geometricPrecision; image-rendering:optimizeQuality; fill-rule:evenodd; clip-rule:evenodd"
viewBox="0 0 10000 10000"
 xmlns:xlink="http://www.w3.org/1999/xlink"
 enable-background="new 0 0 100 100">
 <defs>
  <style type="text/css">
   <![CDATA[
    .fil1 {fill:#0090C1}
    .fil0 {fill:#414151}
   ]]>
  </style>
 </defs>
 <g id="Layer_x0020_1">
  <metadata id="CorelCorpID_0Corel-Layer"/>
  <path class="fil0" d="M9323 4729c-140,-2266 -2022,-4060 -4323,-4060 -2392,0 -4331,1939 -4332,4331l0 0c1,2392 1940,4331 4332,4331 91,0 181,-3 271,-8l0 -582 0 -1421 0 -542 0 -1507 0 -542 0 -1507c476,16 927,76 1338,170 93,410 153,862 170,1337l541 0c-13,-408 -55,-801 -123,-1171 199,69 385,146 552,231 343,173 611,377 784,585 100,119 168,237 209,355l581 0zm-4052 -2049l0 -1422c118,42 236,109 355,208 311,259 607,728 816,1338 -370,-68 -763,-111 -1171,-124zm-897 -1214c119,-99 237,-166 355,-208l0 1422c-408,13 -801,55 -1171,123 69,-199 146,-385 231,-552 173,-343 376,-611 585,-785zm355 1755l0 1508 -1507 0c16,-476 76,-927 170,-1338 410,-94 862,-153 1337,-170zm-2050 1508l-1421 0c42,-118 109,-236 208,-355 259,-311 728,-607 1338,-816 -69,370 -111,763 -125,1171zm1 542c13,408 55,801 123,1171 -199,-69 -385,-146 -552,-231 -343,-173 -611,-377 -785,-585 -99,-119 -166,-237 -208,-355l1422 0zm541 0l1508 0 0 1507c-476,-16 -927,-76 -1338,-170 -94,-410 -153,-862 -170,-1337zm1508 2049l0 1421c-118,-41 -236,-108 -355,-207 -311,-259 -607,-728 -816,-1338 370,68 763,111 1171,124zm3809 -3678c-322,-244 -722,-444 -1180,-601 -99,-34 -200,-65 -304,-95 -97,-343 -218,-658 -360,-940 -101,-199 -213,-381 -335,-544 499,192 948,486 1321,858 372,373 666,822 858,1322zm-6218 -1322c373,-372 822,-666 1322,-858 -244,322 -444,723 -602,1180 -33,99 -64,200 -94,304 -342,97 -658,218 -940,360 -199,101 -381,213 -544,335 192,-499 486,-948 858,-1321zm-858 4038c322,244 723,445 1180,601 99,34 200,65 304,95 98,342 218,658 360,939 101,200 213,382 335,545 -499,-192 -948,-486 -1321,-858 -372,-373 -666,-822 -858,-1322z"/>
  <polygon class="fil1" points="5678,5131 5678,9453 7208,9453 7208,9039 6093,9039 6093,5546 9585,5546 9585,9039 8442,9039 8442,9453 10000,9453 10000,5131 "/>
  <path class="fil1" d="M8716 6598l-17 0c-195,0 -367,-126 -427,-311l-6 -16c-134,-414 -720,-414 -854,0l-6 16c-60,185 -232,311 -427,311l-17 0c-435,0 -616,556 -264,812l14 10c157,115 223,317 163,503l-5 16c-120,368 241,678 570,563l0 1431 363 -442 392 442 0 -1452c340,160 738,-158 613,-542l-5 -16c-60,-186 6,-388 163,-503l14 -10c352,-256 171,-812 -264,-812zm-877 1283c-303,0 -549,-246 -549,-549 0,-304 246,-550 549,-550 303,0 549,246 549,550 0,303 -246,549 -549,549z"/>
 </g>
</svg>
