<?xml version="1.0" encoding="utf-8"?>
<!-- Generator: Adobe Illustrator 19.0.0, SVG Export Plug-In . SVG Version: 6.00 Build 0)  -->
<svg version="1.1" xmlns="http://www.w3.org/2000/svg" xmlns:xlink="http://www.w3.org/1999/xlink" x="0px" y="0px"
	 viewBox="0 0 1234 837" style="enable-background:new 0 0 1234 837;" xml:space="preserve">
<style type="text/css">
	.st0{fill:#FFFFFF;}
	.st1{opacity:0.23;fill:#C5C5C5;}
	.st2{opacity:0.23;fill:#9D9D9D;}
	.st3{fill:#203255;}
	.st4{fill:#2E3640;}
	.st5{fill:#0E3548;}
	.st6{fill:#023A45;}
	.st7{fill:#1F1301;}
	.st8{fill:#230341;}
	.st9{fill:#231F20;}
</style>
<g id="Layer_1">
	<rect class="st0" width="1234" height="837"/>
</g>
<g id="Layer_4">
	<path class="st1" d="M0,300.8V615h1234V262.5c0,0-369.5,169.7-691.9,13.5C205.9,113.2,0,300.8,0,300.8z"/>
	<path class="st2" d="M1234,442.1V615H0V421c0,0,369.5,93.4,691.9,7.5C1028.1,338.8,1234,442.1,1234,442.1z"/>
</g>
<g id="Layer_5">
	<rect x="208.8" y="568.9" class="st3" width="30.1" height="30.1"/>
	<rect x="172.9" y="579.1" class="st3" width="30.1" height="30.1"/>
	<rect x="139.3" y="552.2" class="st3" width="30.1" height="30.1"/>
	<rect x="174.5" y="538.8" class="st3" width="30.1" height="30.1"/>
	<rect x="205.1" y="505.5" class="st3" width="30.1" height="30.1"/>
	<rect x="159.5" y="494" class="st3" width="30.1" height="30.1"/>
	<rect x="101.9" y="579.1" class="st3" width="30.1" height="30.1"/>
	<rect x="66.2" y="568.9" class="st3" width="30.1" height="30.1"/>
	<rect x="6.1" y="579.1" class="st4" width="58.4" height="58.4"/>
	<rect x="26.4" y="535.5" class="st4" width="47.9" height="47.9"/>
	<rect x="54.7" y="441.6" class="st4" width="19.6" height="19.6"/>
	<rect x="955" y="451.4" class="st4" width="19.6" height="19.6"/>
	<rect x="1043.2" y="436.8" class="st4" width="19.6" height="19.6"/>
	<rect x="1026.3" y="407" class="st4" width="19.6" height="19.6"/>
	<rect x="923.3" y="422.8" class="st4" width="13.6" height="13.6"/>
	<rect x="991.4" y="433.1" class="st4" width="13.6" height="13.6"/>
	<rect x="951.2" y="341.2" class="st4" width="13.6" height="13.6"/>
	<rect x="1206.4" y="348.1" class="st4" width="19.6" height="19.6"/>
	<rect x="1191.7" y="323.7" class="st4" width="9.8" height="9.8"/>
	<rect x="1186.8" y="241.8" class="st4" width="9.8" height="9.8"/>
	<rect x="129.5" y="487.5" class="st3" width="19.6" height="19.6"/>
	<rect x="993.3" y="369.3" class="st4" width="9.8" height="9.8"/>
	<rect x="967.1" y="394.8" class="st4" width="14.7" height="14.7"/>
	<rect x="903.4" y="434.9" class="st4" width="9.8" height="9.8"/>
	<rect x="913.2" y="394.8" class="st4" width="9.8" height="9.8"/>
	<rect x="900.9" y="269.1" class="st4" width="9.8" height="9.8"/>
	<rect x="750" y="250.4" class="st4" width="18.1" height="18.1"/>
	<rect x="606.8" y="420.6" class="st4" width="18.1" height="18.1"/>
	<rect x="776.3" y="226.9" class="st4" width="9" height="9"/>
	<rect x="585.2" y="367.2" class="st4" width="9" height="9"/>
	<rect x="449.1" y="385.6" class="st4" width="9" height="9"/>
	<rect x="606.8" y="392" class="st4" width="9" height="9"/>
	<rect x="503.8" y="264.6" class="st4" width="9" height="9"/>
	<rect x="442.1" y="236" class="st4" width="9" height="9"/>
	<rect x="475.1" y="286.7" class="st4" width="9" height="9"/>
	<rect x="405.6" y="218.4" class="st4" width="9" height="9"/>
	<rect x="314" y="381.4" class="st4" width="9" height="9"/>
	<rect x="285.5" y="400.1" class="st4" width="9" height="9"/>
	<rect x="269.7" y="421.5" class="st4" width="21.1" height="21.1"/>
	<rect x="483.8" y="327.8" class="st4" width="21.1" height="21.1"/>
	<rect x="802.8" y="259.1" class="st4" width="9" height="9"/>
	<rect x="712.4" y="208.9" class="st4" width="9" height="9"/>
	<rect x="988.4" y="457.2" class="st4" width="9.8" height="9.8"/>
	<rect x="1048.1" y="369.3" class="st4" width="9.8" height="9.8"/>
	<rect x="1081.3" y="226.9" class="st3" width="9.8" height="9.8"/>
	<rect x="1036.1" y="294.8" class="st4" width="4.9" height="4.9"/>
	<rect x="1021.8" y="249.6" class="st4" width="4.9" height="4.9"/>
	<rect x="1087.8" y="216.7" class="st4" width="4.9" height="4.9"/>
	<rect x="989" y="305.8" class="st4" width="4.9" height="4.9"/>
	<rect x="942.7" y="388" class="st4" width="4.9" height="4.9"/>
	<rect x="1000.7" y="404.6" class="st4" width="4.9" height="4.9"/>
	<rect x="910.7" y="371.8" class="st4" width="4.9" height="4.9"/>
	<rect x="925.2" y="289.3" class="st4" width="4.9" height="4.9"/>
	<rect x="825.2" y="171.2" class="st4" width="4.9" height="4.9"/>
	<rect x="905.8" y="339.3" class="st4" width="4.9" height="4.9"/>
	<rect x="908.9" y="291.2" class="st4" width="4.9" height="4.9"/>
	<rect x="883.6" y="246.7" class="st3" width="4.9" height="4.9"/>
	<rect x="894.4" y="229.3" class="st4" width="4.9" height="4.9"/>
	<rect x="791.6" y="263.6" class="st4" width="4.9" height="4.9"/>
	<rect x="643.1" y="244.3" class="st4" width="4.9" height="4.9"/>
	<rect x="613.4" y="299.5" class="st4" width="4.9" height="4.9"/>
	<rect x="553.4" y="246.7" class="st4" width="4.9" height="4.9"/>
	<rect x="316.4" y="249.6" class="st4" width="4.9" height="4.9"/>
	<rect x="96.6" y="215.5" class="st3" width="4.9" height="4.9"/>
	<rect x="335.6" y="293.7" class="st4" width="4.9" height="4.9"/>
	<rect x="319.8" y="322.7" class="st4" width="4.9" height="4.9"/>
	<rect x="183.2" y="204" class="st4" width="4.9" height="4.9"/>
	<rect x="762.8" y="235.6" class="st4" width="4.9" height="4.9"/>
	<rect x="866" y="193.7" class="st4" width="4.9" height="4.9"/>
	<rect x="807.3" y="254.6" class="st3" width="4.9" height="4.9"/>
	<rect x="1016.9" y="339.3" class="st4" width="4.9" height="4.9"/>
	<rect x="591.7" y="249.2" class="st4" width="4.9" height="4.9"/>
	<rect x="940.3" y="444.2" class="st4" width="4.9" height="4.9"/>
	<rect x="1163.1" y="185.9" class="st4" width="4.9" height="4.9"/>
	<rect x="1180.3" y="219.1" class="st4" width="6.8" height="6.8"/>
	<rect x="1221.1" y="307.3" class="st4" width="6.8" height="6.8"/>
	<rect x="1112.1" y="203.5" class="st4" width="6.8" height="6.8"/>
	<rect x="1201.5" y="276.5" class="st4" width="9.8" height="9.8"/>
	<rect x="1221.1" y="376.9" class="st4" width="9.8" height="9.8"/>
	<rect x="972" y="434.9" class="st4" width="9.8" height="9.8"/>
	<rect x="26.4" y="315.8" class="st4" width="9.8" height="9.8"/>
	<rect x="47.4" y="489.1" class="st4" width="9.8" height="9.8"/>
	<rect x="121.3" y="446.5" class="st3" width="9.8" height="9.8"/>
	<rect x="149.4" y="362.1" class="st4" width="9.8" height="9.8"/>
	<rect x="170" y="438.5" class="st3" width="19.6" height="19.6"/>
	<rect x="246.6" y="559.1" class="st3" width="19.6" height="19.6"/>
	<rect x="242" y="529.1" class="st3" width="19.6" height="19.6"/>
	<rect x="212" y="461.2" class="st3" width="19.6" height="19.6"/>
	<rect x="92.1" y="400.6" class="st4" width="19.6" height="19.6"/>
	<rect x="87.7" y="300.9" class="st4" width="19.6" height="19.6"/>
	<rect x="96.1" y="537.2" class="st3" width="30.1" height="30.1"/>
	<rect x="68.7" y="497.3" class="st3" width="30.1" height="30.1"/>
	<rect x="12.4" y="509" class="st4" width="30.1" height="30.1"/>
	<rect x="1056.1" y="396.5" class="st4" width="30.1" height="30.1"/>
	<rect x="1004.6" y="454.2" class="st4" width="48.4" height="48.4"/>
	<rect x="117.8" y="587.7" class="st4" width="170.3" height="30.1"/>
	<g>
		
			<rect x="691.3" y="276.8" transform="matrix(0.9993 3.619785e-02 -3.619785e-02 0.9993 11.9475 -24.8197)" class="st5" width="0.1" height="81.5"/>
		
			<rect x="701.5" y="277.3" transform="matrix(0.9993 3.630085e-02 -3.630085e-02 0.9993 12.005 -25.259)" class="st5" width="0.1" height="81.4"/>
		
			<rect x="711.7" y="277.8" transform="matrix(0.9993 3.640443e-02 -3.640443e-02 0.9993 12.0627 -25.6998)" class="st5" width="0.1" height="81.3"/>
		
			<rect x="721.8" y="278.2" transform="matrix(0.9993 3.650860e-02 -3.650860e-02 0.9993 12.1208 -26.142)" class="st5" width="0.1" height="81.2"/>
		
			<rect x="732.2" y="278.7" transform="matrix(0.9994 3.589639e-02 -3.589639e-02 0.9994 11.9319 -26.0811)" class="st5" width="0.1" height="81"/>
		
			<rect x="742.6" y="279.2" transform="matrix(0.9993 3.671874e-02 -3.671874e-02 0.9993 12.2393 -27.0552)" class="st5" width="0.1" height="80.9"/>
		
			<rect x="753" y="279.7" transform="matrix(0.9993 3.610361e-02 -3.610361e-02 0.9993 12.0484 -26.9795)" class="st5" width="0.1" height="80.8"/>
		
			<rect x="763.3" y="280.2" transform="matrix(0.9993 3.620813e-02 -3.620813e-02 0.9993 12.1071 -27.431)" class="st5" width="0.1" height="80.7"/>
		
			<rect x="773.6" y="280.7" transform="matrix(0.9993 3.631324e-02 -3.631324e-02 0.9993 12.1662 -27.884)" class="st5" width="0.1" height="80.6"/>
		
			<rect x="783.9" y="281.2" transform="matrix(0.9993 3.641897e-02 -3.641897e-02 0.9993 12.2256 -28.3385)" class="st5" width="0.1" height="80.5"/>
		
			<rect x="681.1" y="276.3" transform="matrix(0.9993 3.609544e-02 -3.609544e-02 0.9993 11.8903 -24.3808)" class="st5" width="0.1" height="81.6"/>
		
			<rect x="670.8" y="275.8" transform="matrix(0.9994 3.599361e-02 -3.599361e-02 0.9994 11.8334 -23.9434)" class="st5" width="0.1" height="81.7"/>
		
			<rect x="724.7" y="216" transform="matrix(-4.322702e-02 0.9991 -0.9991 -4.322702e-02 1034.1761 -433.7299)" class="st5" width="0.2" height="124.7"/>
		
			<rect x="724.1" y="229.4" transform="matrix(-4.268068e-02 0.9991 -0.9991 -4.268068e-02 1046.6129 -419.2987)" class="st5" width="0.2" height="124.7"/>
		
			<rect x="723.5" y="242.9" transform="matrix(-4.330671e-02 0.9991 -0.9991 -4.330671e-02 1059.8835 -404.488)" class="st5" width="0.2" height="124.7"/>
		
			<rect x="722.9" y="256.3" transform="matrix(-4.330671e-02 0.9991 -0.9991 -4.330671e-02 1072.7086 -389.8797)" class="st5" width="0.2" height="124.7"/>
		
			<rect x="722.4" y="269.7" transform="matrix(-4.330671e-02 0.9991 -0.9991 -4.330671e-02 1085.5334 -375.2716)" class="st5" width="0.2" height="124.7"/>
		
			<rect x="721.8" y="283.2" transform="matrix(-4.330671e-02 0.9991 -0.9991 -4.330671e-02 1098.3583 -360.6637)" class="st5" width="0.2" height="124.7"/>
		<g>
			<polygon class="st6" points="659.7,357.3 659.2,357 662.8,348.6 662.8,348.5 669.6,343.3 686.1,330.4 700.5,344.3 710.7,338.2 
				721.5,318.6 723.9,304.8 732.8,308.6 743,314.5 753.3,306.4 757.9,293.2 775.2,284.7 775.5,285.2 758.3,293.6 753.8,306.8 
				743,315.2 732.5,309.1 724.4,305.7 722.1,318.8 711.2,338.6 700.4,345 686.1,331.1 670,343.7 663.2,349 			"/>
		</g>
		<g>
			<polygon class="st7" points="659.3,356.8 658.9,356.5 667.1,343.3 670.2,329.5 685.2,343.7 690.6,330.5 701,327.2 711.6,323 
				721.3,327.1 727.9,318.5 732,322.3 743.1,305.7 757.5,306.3 763.8,293.3 774.8,297.6 774.6,298.1 764,294 757.8,306.9 
				743.4,306.3 732.1,323.2 728,319.4 721.5,327.9 711.6,323.6 701.2,327.7 691,331 685.4,344.8 670.6,330.6 667.6,343.6 			"/>
		</g>
		<g>
			<polygon class="st8" points="659.2,357.2 658.7,357.1 667,329.7 671.3,302.1 681.2,316.5 691.7,312.4 691.8,312.4 701.5,315.1 
				708.6,304.1 718.1,318.2 741.5,342 744.6,332.9 744.7,332.8 762.8,326.9 768.3,307.1 782,294.3 782.4,294.7 768.9,307.4 
				763.3,327.4 745,333.3 741.8,343 717.6,318.6 708.6,305.2 701.8,315.8 691.7,313 681,317.2 680.9,317 671.6,303.6 667.5,329.9 
							"/>
		</g>
		<g>
			<polygon class="st3" points="658.9,357.7 658,357.6 661.5,276.7 662.4,276.8 			"/>
			<polygon points="660.2,276.7 663.8,276.8 662.1,274 			"/>
		</g>
		<polygon class="st3" points="658,357.6 658.1,356.6 783.9,361.1 783.9,362.2 		"/>
		<g>
			<path class="st7" d="M671.3,330.2c0,0.6-0.5,1.1-1,1.1c-0.5,0-1-0.6-0.9-1.2c0-0.6,0.5-1.1,1-1.1
				C670.9,329.1,671.3,329.6,671.3,330.2z"/>
			
				<ellipse transform="matrix(0.9992 3.980906e-02 -3.980906e-02 0.9992 13.6763 -26.4234)" class="st0" cx="670.3" cy="330.2" rx="0.6" ry="0.8"/>
		</g>
		<g>
			<path class="st7" d="M691.8,331.1c0,0.6-0.5,1.1-1,1.1c-0.5,0-1-0.6-0.9-1.2c0-0.6,0.5-1.1,1-1.1
				C691.4,329.9,691.8,330.4,691.8,331.1z"/>
			
				<ellipse transform="matrix(0.9992 3.988025e-02 -3.988025e-02 0.9992 13.7506 -27.2873)" class="st0" cx="690.8" cy="331" rx="0.6" ry="0.7"/>
		</g>
		<g>
			<path class="st7" d="M686.3,344.3c0,0.6-0.5,1.1-1,1.1c-0.5,0-1-0.6-0.9-1.2c0-0.6,0.5-1.1,1-1.1
				C685.9,343.1,686.3,343.6,686.3,344.3z"/>
			<path class="st0" d="M685.9,344.3c0,0.4-0.3,0.7-0.7,0.7c-0.4,0-0.6-0.4-0.6-0.8c0-0.4,0.3-0.7,0.7-0.7
				C685.7,343.5,685.9,343.9,685.9,344.3z"/>
		</g>
		<g>
			
				<ellipse transform="matrix(0.999 4.363205e-02 -4.363205e-02 0.999 13.8539 -29.0079)" class="st8" cx="671.4" cy="302.9" rx="1" ry="1.2"/>
			
				<ellipse transform="matrix(0.999 4.363415e-02 -4.363415e-02 0.999 13.8546 -29.0093)" class="st0" cx="671.4" cy="302.9" rx="0.6" ry="0.8"/>
		</g>
		<g>
			
				<ellipse transform="matrix(0.9991 4.183464e-02 -4.183464e-02 0.9991 13.8407 -28.2177)" class="st8" cx="681.1" cy="316.6" rx="1" ry="1.2"/>
			
				<ellipse transform="matrix(0.9991 4.179985e-02 -4.179985e-02 0.9991 13.8287 -28.1945)" class="st0" cx="681.1" cy="316.6" rx="0.6" ry="0.7"/>
		</g>
		<g>
			
				<ellipse transform="matrix(0.9991 4.207066e-02 -4.207066e-02 0.9991 13.8962 -29.2387)" class="st8" cx="701.6" cy="315.5" rx="1" ry="1.2"/>
			
				<ellipse transform="matrix(0.9991 4.211514e-02 -4.211514e-02 0.9991 13.9115 -29.2694)" class="st0" cx="701.6" cy="315.5" rx="0.6" ry="0.7"/>
		</g>
		<g>
			
				<ellipse transform="matrix(0.999 4.362521e-02 -4.362521e-02 0.999 13.965 -30.6229)" class="st8" cx="708.6" cy="304.7" rx="1" ry="1.2"/>
			
				<ellipse transform="matrix(0.999 4.361177e-02 -4.361177e-02 0.999 13.9605 -30.6136)" class="st0" cx="708.6" cy="304.7" rx="0.6" ry="0.7"/>
		</g>
		<g>
			<path class="st8" d="M742.6,342.6c0,0.6-0.5,1.1-1,1.1c-0.5,0-0.9-0.6-0.9-1.2c0-0.6,0.5-1.1,1-1.1
				C742.2,341.4,742.6,341.9,742.6,342.6z"/>
			
				<ellipse transform="matrix(0.9993 3.854016e-02 -3.854016e-02 0.9993 13.7525 -28.3283)" class="st0" cx="741.6" cy="342.5" rx="0.6" ry="0.7"/>
		</g>
		<g>
			<path class="st6" d="M686.9,330.7c0,0.6-0.5,1.1-1,1.1c-0.5,0-1-0.6-0.9-1.2c0-0.6,0.5-1.1,1-1.1
				C686.5,329.5,686.9,330.1,686.9,330.7z"/>
			
				<ellipse transform="matrix(0.9992 3.990229e-02 -3.990229e-02 0.9992 13.74 -27.1049)" class="st0" cx="685.9" cy="330.7" rx="0.6" ry="0.7"/>
		</g>
		<g>
			<path class="st6" d="M701.4,344.4c0,0.6-0.5,1.1-1,1.1c-0.5,0-1-0.6-0.9-1.2s0.5-1.1,1-1.1C701,343.3,701.4,343.8,701.4,344.4z"
				/>
			
				<ellipse transform="matrix(0.9993 3.810057e-02 -3.810057e-02 0.9993 13.6309 -26.4349)" class="st0" cx="700.4" cy="344.4" rx="0.6" ry="0.7"/>
		</g>
		<g>
			<path class="st6" d="M711.9,338.4c0,0.6-0.5,1.1-1,1.1c-0.5,0-1-0.6-0.9-1.2c0-0.6,0.5-1.1,1-1.1
				C711.5,337.2,712,337.8,711.9,338.4z"/>
			
				<ellipse transform="matrix(0.9992 3.892082e-02 -3.892082e-02 0.9992 13.7087 -27.4145)" class="st0" cx="711" cy="338.4" rx="0.6" ry="0.7"/>
		</g>
		<g>
			
				<ellipse transform="matrix(0.999 4.365901e-02 -4.365901e-02 0.999 14.0129 -31.3127)" class="st6" cx="723.9" cy="305.2" rx="1" ry="1.2"/>
			
				<ellipse transform="matrix(0.999 4.364001e-02 -4.364001e-02 0.999 14.0065 -31.2992)" class="st0" cx="723.9" cy="305.2" rx="0.6" ry="0.7"/>
		</g>
		<g>
			
				<ellipse transform="matrix(0.9991 4.240073e-02 -4.240073e-02 0.9991 14.0232 -31.2132)" class="st6" cx="742.8" cy="315" rx="1" ry="1.2"/>
			
				<ellipse transform="matrix(0.9991 4.244252e-02 -4.244252e-02 0.9991 14.0376 -31.2437)" class="st0" cx="742.8" cy="315" rx="0.6" ry="0.7"/>
		</g>
		<g>
			<path class="st6" d="M776.3,285c0,0.6-0.5,1.1-1,1.1c-0.5,0-0.9-0.6-0.9-1.2s0.5-1.1,1-1.1C775.9,283.8,776.3,284.3,776.3,285z"
				/>
			
				<ellipse transform="matrix(0.9989 4.675220e-02 -4.675220e-02 0.9989 14.1689 -35.937)" class="st0" cx="775.3" cy="284.9" rx="0.6" ry="0.7"/>
		</g>
		<g>
			
				<ellipse transform="matrix(0.9992 4.083615e-02 -4.083615e-02 0.9992 13.9961 -30.8868)" class="st8" cx="763" cy="327.2" rx="1" ry="1.1"/>
			
				<ellipse transform="matrix(0.9992 4.076768e-02 -4.076768e-02 0.9992 13.9716 -30.8355)" class="st0" cx="763" cy="327.2" rx="0.6" ry="0.7"/>
		</g>
		<g>
			
				<ellipse transform="matrix(0.999 4.368912e-02 -4.368912e-02 0.999 14.1513 -33.2892)" class="st8" cx="768.7" cy="307.1" rx="1" ry="1.1"/>
			
				<ellipse transform="matrix(0.999 4.370869e-02 -4.370869e-02 0.999 14.158 -33.304)" class="st0" cx="768.7" cy="307.1" rx="0.6" ry="0.7"/>
		</g>
		<g>
			
				<ellipse transform="matrix(0.9991 4.176697e-02 -4.176697e-02 0.9991 13.9572 -30.1285)" class="st7" cx="728" cy="319" rx="1" ry="1.2"/>
			
				<ellipse transform="matrix(0.9991 4.171350e-02 -4.171350e-02 0.9991 13.9385 -30.0903)" class="st0" cx="728" cy="319" rx="0.6" ry="0.7"/>
		</g>
		<g>
			
				<ellipse transform="matrix(0.9991 4.130369e-02 -4.130369e-02 0.9991 13.9509 -29.9624)" class="st7" cx="732.1" cy="322.6" rx="1" ry="1.2"/>
			
				<ellipse transform="matrix(0.9992 4.120782e-02 -4.120782e-02 0.9992 13.917 -29.8935)" class="st0" cx="732.1" cy="322.6" rx="0.6" ry="0.7"/>
		</g>
		<g>
			
				<ellipse transform="matrix(0.999 4.553441e-02 -4.553441e-02 0.999 14.1637 -34.4684)" class="st7" cx="763.7" cy="293.7" rx="1" ry="1.1"/>
			
				<ellipse transform="matrix(0.999 4.548030e-02 -4.548030e-02 0.999 14.1459 -34.4278)" class="st0" cx="763.7" cy="293.7" rx="0.6" ry="0.7"/>
		</g>
		<g>
			
				<ellipse transform="matrix(0.9992 4.056869e-02 -4.056869e-02 0.9992 13.8723 -28.9982)" class="st7" cx="721.4" cy="327.3" rx="1" ry="1.2"/>
			
				<ellipse transform="matrix(0.9992 4.053444e-02 -4.053444e-02 0.9992 13.86 -28.974)" class="st0" cx="721.4" cy="327.3" rx="0.6" ry="0.7"/>
		</g>
	</g>
	<path class="st4" d="M1115.4,375.3c0,0-3.3-7.8-7-10.5c-3.7-2.7-5.5-11.7-10.9-13.5c-5.5-1.8-21.4,3.9-28.1,1.6
		c-6.6-2.3-7.6-10.3-6.8-14.2c0.8-3.9,6.4-10.7,5.8-12.1c-0.6-1.4-5.1-2.7-4.1-4.5s0.4-3.9,1-7c0.6-3.1,5.7-6.6,5.5-7.8
		c-0.2-1.2-4.7-1.6-5.7-3.1c-1-1.6,0.4-4.9,4.9-9.6c4.5-4.7,5.5-5.3,4.5-8.4c-1-3.1-4.7-7-2.9-10.7c1.8-3.7,2.5-8.4,2.1-10.5
		c-0.4-2.1-6.2-8.2-3.9-14.2c2.3-6,13.5-30.6,54.8-29.6c41.3,1,42.9,15.8,46,17c3.1,1.2,28.1,13.3,25.5,41.1
		c-2.5,27.9-20.1,43.1-20.5,47c-0.4,3.9,7.8,17,7.8,17l-2.3,2.7c0,0,28.9,18.1,40.8,34.7c11.9,16.6,12.1,20.1,12.1,20.1V665h-65.5
		c0,0,4.9-78.2,2.1-92.8c-2.7-14.6-14.6-23.4-14.6-23.4s-26.7-3.5-31.8-3.5s-17.9,1.8-17.9,1.8l-9,1.2l-2.5-7.8
		c0,0-25.9-3.5-46.2-9.7c-20.3-6.2-32.4-10.9-36.9-11.3c-4.5-0.4-20.1,4.1-28.7,3.7c-8.6-0.4-31.4-5.3-34.3-8
		c-2.9-2.7-3.3-4.9-3.7-6.8c-0.4-1.9-5.1-3.3-5.8-6.6c-0.8-3.3,0-5.1,0-5.1s5.7-2.1,5.1-3.9c-0.6-1.8-15.2-2.5-21.4-3.9
		c-6.2-1.4-5.3-8.2-2.5-10.1c2.7-1.9,22.8,0.8,25,0.8c2.1,0-12.3-9.6-20.1-12.3c-7.8-2.7-15-7-16.4-10.1c-1.4-3.1,0.4-6.6,2.9-6.6
		s11.5,4.5,21.8,7.4c10.3,2.9,22.4,9.4,26.9,10.5s20.5,3.5,24.4,4.1c3.9,0.6,20.3,10.7,23.6,11.1c3.3,0.4,12.5-1,27.1,1.2
		c14.6,2.1,33.9,4.9,33.9,4.9s-3.3-19.5-1.8-26.3c1.6-6.8,25.7-57.5,34.9-66.3c9.2-8.8,10.1-12.7,10.1-12.7l-1.6-4.3L1115.4,375.3z"
		/>
	<path class="st0" d="M1115.2,377.8l2.2,6.8c0,0-3.2,2.5-9.1,14.9c-5.8,12.5-17.2,30.3-17.8,48.6c-0.7,18.3,0,36.3,0,36.3
		s9.6-2.2,10-2.2s7.8-18.5,7.8-18.5s-3.2-8.8-3.4-10c-0.1-1.2,7.8-16.1,8.6-27.6c0.8-11.4,2.6-19.5,2.6-19.5l3.5-3.1l-1.3-14.4
		l8.3-12.2c0,0-4.5,1.8-7.8,1.8C1115.5,378.7,1115.2,377.8,1115.2,377.8z"/>
	<path class="st4" d="M293.8,507.9c0,0-0.4-20.3,0-32.4c0.4-12.1,3.1-38.2,3.9-46.8c0.8-8.6,24.2-40.6,38.2-49.1
		s28.1-11.6,28.9-13.8c0.8-2.2,0-9.6,0-9.6h-12.5c0,0-2.3-4.3-2.3-9.7s-4.3-10.1-4.3-17.2s8.2-16.4,7.8-22.2
		c-0.4-5.8,0.8-21.4,5.5-29.6c4.7-8.2,15.2-12.5,18.3-17.5c3.1-5.1,15.6-14,26.5-16.4c10.9-2.3,17.2-2.7,20.7-3.9
		c3.5-1.2,21.8,3.9,26.9,9c5.1,5.1,5.5,0,9,3.1c3.5,3.1,12.5,7,14.4,14c1.9,7-3.5,17.2-4.3,18.3c-0.8,1.2-3.9,12.9-2.7,16.4
		c1.2,3.5,1.6,12.5,0.8,14.4c-0.8,1.9-0.2,7.4,0.4,8.8c0.6,1.4,5.8,10.7,5.3,12.1c-0.6,1.4-1.4,4.7-4.3,5.8
		c-2.9,1.2-2.1,5.3-1.6,6.6c0.6,1.4-3.1,5.1-3.3,5.8c-0.2,0.8,0.2,2.9-1,3.9c-1.2,1-2.9,2.5-3.3,4.3c-0.4,1.8-0.2,9-9.4,9
		c-9.2,0-11.3-2.1-15.6-0.6c-4.3,1.6-8.2,7.2-8.2,7.2l13.6,19.3c0,0-5.1,2.9-6,5.7c-1,2.7-2.1,10.5-2.1,11.1c0,0.6,8.2,20.7,10.9,30
		c2.7,9.4-0.2,33.9-0.2,33.9l-23.8,2.5l-5.7,2.3c0,0-11.5,2.3-16.4,2.9c-4.9,0.6-25.7,2.5-25.7,2.5l-4.9,2.1l-14.8,2.5
		c0,0-22.6,5.3-35.5,8.6C304.1,504.8,293.8,507.9,293.8,507.9z"/>
	<path class="st0" d="M367.3,365.8c0,0,15.6,25.7,19.3,37.3c3.7,11.6,3.9,16.1,3.9,16.1l13.9-9.3c0,0,0.6,10.7,1.3,11.8
		c0.7,1.1,9.1,23.3,15.2,30.8c6.1,7.5,9.4,10.1,9.5,14.3s0,11.6,0,11.6h7.1c0,0,1.3-22.5,0-32.2s-7-26.6-7.3-27.3
		c-0.3-0.6,2.1-10,2.1-10l1-2.2l-10.5-22.5l-5.8,6.1l6.6,11.8c0,0-3.4,24.3-4.3,27c-0.9,2.7-1.7,4-1.7,4s-1.6-11.7-0.5-18.5
		c1-6.8,2.9-7.8,1.6-10.8s-12-12-13.9-17.4c-1.9-5.5-18.5-22.1-20.4-23.4c-1.9-1.3-3.5-1.3-3.5-1.3s0.6,4.3-4.5,4.8
		C371.1,367.1,367.3,365.8,367.3,365.8z"/>
	<g>
		<path class="st4" d="M449.1,476.2c0.8,0,4.4-29.4,5.5-38.5c1-9.1,0.3-38.5,4.7-48.6c4.4-10.1,15.1-19.5,21.8-24.7
			c6.8-5.2,10.1-10.4,18.2-13.5c8.1-3.1,13-6.8,13-6.8s1.8-10.3,2-11.9c0.2-1.6,5.8-0.9,5.8-0.9l0.7-2.4c0,0-1.9-0.8-2.4-1.9
			c-0.6-1.2-1.4-9-3.6-15.2c-2.2-6.2-6.4-29-3.2-36.1c3.2-7.1,13.4-19.3,31.7-22.9c18.3-3.6,35.1,2,41.5,10c6.4,8,4.7,14.2,4.3,15.1
			c-0.4,0.9,1.9,11.9,1.6,12.9c-0.3,1-1.8,2.9-1.7,4c0.1,1.1,0.6,1.5,0.5,2.1c-0.1,0.7-0.8,3.4,0.6,5.8c1.4,2.3,4.1,8.1,4,9.2
			c-0.1,1.1-1.7,2.5-3.2,2.5c-1.6,0-1.9,2.3-1.8,3.2c0.1,0.9,0.9,1.9,0,2.8c-0.9,0.8-1.3,1.8-0.8,3.1s0,3.8-0.4,3.9
			c-0.4,0.1-0.4,4.4,0.2,6.5c0.7,2.1-1.9,7.3-7.4,7c-5.6-0.3-10.1-1-13.5,3.2c-3.4,4.1-5.6,7.4-5.6,7.4s4.6,7,8.5,12.1
			c3.9,5.1,8.4,9.5,12.8,12.4c4.4,2.9,15.1,18.1,17.8,25.5c2.7,7.4,5.7,22.8,11.1,34.7s4.9,24,4.9,24s10.7,3.3,11.1,4.3
			c0.4,1,0,1.9,0,1.9s-51.3,0-83.1,1.9C512.9,470.3,449.1,476.2,449.1,476.2z"/>
		<path class="st0" d="M515.1,332.7l-2.2,13.3c0,0,30.2,29,30.5,28.7c0.3-0.3,5.8-5.8,5.8-5.8s6.2,7,8.7,11.7
			c2.4,4.7,3.3,9.7,3.3,9.7v-12.8l4.7-9.5l3.3,3.8l1-8.1l-9.3-11.3l-2.4,12.1l1.4,5.4l-1.5,7.4l-0.9-6.4v-6.8l-37.7-31.2H515.1z"/>
	</g>
	<g>
		<path class="st4" d="M57.2,619.4c1.3,0,7.6-50.2,9.3-65.8c1.8-15.6,0.4-65.8,8-83.1c7.6-17.3,25.8-33.3,37.3-42.2
			c11.6-8.9,17.3-17.8,31.1-23.1c13.8-5.3,22.2-11.6,22.2-11.6s3.1-17.7,3.4-20.3c0.3-2.7,9.8-1.5,9.8-1.5l1.2-4.2
			c0,0-3.2-1.3-4.2-3.3c-1-2-2.3-15.3-6.2-26c-3.8-10.7-11-49.5-5.5-61.7c5.5-12.2,22.8-33,54.2-39.2c31.3-6.2,60,3.5,71,17.2
			c11,13.7,8,24.3,7.3,25.8s3.4,22.1,2.9,23.8c-0.5,1.7-3.1,3.9-2.9,5.7c0.2,1.8,0.9,1.8,0.7,3c-0.2,1.2-1.3,5.8,1,9.8
			c2.3,4,9.1,13.7,8.9,15.5c-0.2,1.8-4.3,2.6-7.6,4.5c-2.3,1.3-3.2,4-3,5.5c0.2,1.5,1.6,3.3,0.1,4.7c-1.5,1.4-2.2,3.1-1.3,5.2
			c0.9,2.2,0,6.5-0.7,6.7c-0.7,0.2-0.7,7.5,0.4,11.1c1.2,3.6-3.2,12.5-12.7,12c-9.5-0.5-17.2-1.7-23,5.4c-5.7,7.1-9.6,12.6-9.6,12.6
			s7.8,12,14.5,20.7c6.7,8.7,14.3,16.2,21.9,21.2c7.6,5,25.8,30.9,30.4,43.5c4.7,12.7,9.7,39,19,59.3c9.3,20.3,8.3,41,8.3,41
			s18.3,5.7,19,7.3c0.7,1.7,0,3.3,0,3.3s-87.6,0-142,3.3C166.2,609.3,57.2,619.4,57.2,619.4z"/>
		<path class="st0" d="M169.9,374.2l-3.8,22.7c0,0,34.5,46.8,35,46.3c0.5-0.5,14-23.1,14-23.1s23.7,27.8,27.9,35.8
			c4.2,8,7.4,34.1,7.4,34.1l-1.7-39.4l5.5-27.2l8.2,17.6l1.7-13.9l-15.8-19.2l-4.2,20.7l2.3,9.2l-2.5,12.7l-1.5-11l-25.7-32.9
			l-38.8-32.1H169.9z"/>
	</g>
	<polygon class="st4" points="523.7,526.1 442.1,581.2 628,592.6 664.6,532.8 	"/>
	<polygon class="st4" points="645.9,498 626.2,526.1 817.5,523.5 807.1,500.6 	"/>
	<polygon class="st4" points="645.5,478.4 677.1,476.2 712.6,486.4 679.1,489.9 	"/>
	<polygon class="st4" points="519.2,478.4 607.3,473.2 676.7,492.7 580.8,500.9 	"/>
	<polygon class="st4" points="459.9,507.9 550.8,495 637.7,514.1 546.5,534 	"/>
	<polygon class="st4" points="947.7,506.5 848.6,456.2 870.1,439.8 968,485.7 	"/>
	<path class="st4" d="M699.5,309.3c0,0-1.4-7-1.6-8.2c-0.2-1.2,3.3-5.6,3.8-6.6c0.5-1,13.8-4,14.7-3.3c0.9,0.7,6.3,5.9,10.6,8.2
		c4.4,2.3,5.9,2.3,5.9,2.3l-0.7-1.4l12.9-1.3c0,0,4.4-3.3,7.3-2.6c3,0.7,4.9,1.7,4.9,1.7s11.2-4,14.3-4.4c3.1-0.3,3.3,0.2,4.9-0.5
		c1.6-0.7,12.2-4.5,14-5.2c1.7-0.7,5.8-10.2,11.3-13s8-10.6,8.9-14.3c0.9-3.7,8.4-14.7,8.4-14.7s-1.3-1.6-1.7-1.7
		c-0.4-0.1-3.1,0.5-4.9,0c-1.7-0.5,1.8-9.3,2.1-11.1s-0.6-2-2.9-2.3c-2.3-0.3-3.5-3.8-5.5-5.4c-2-1.7-3.5-1.4-3.4-4.3
		c0.1-2.9,3.4-6.6,4-10.5c0.6-3.8,0.4-7,5.6-10.1c5.1-3.1,17.5-16.1,28.9-14.7c11.3,1.4,13.2,3,13.2,3s11.3,4.2,13.4,11.8
		c2.2,7.6,2.8,13.6,4,14.6s3.4,1.7,2.8,4.4c-0.6,2.7-1.4,3.3-1.1,4.7c0.3,1.4,2.4,0.3,0.5,3.4c-1.9,3.1-2.6,2.5-1.4,4.7
		c1.2,2.2-0.9,3.3-0.9,3.3s9.6,7.3,12.6,12.6c3,5.2,17.6,14.8,21.8,31.1c4.2,16.2,6.3,22.5,4.2,29c-2.1,6.5-5.4,14.7-5.4,14.7
		s-3.3,44.6-0.5,54c2.8,9.4-5,27.6-2.1,33.2c3,5.6-11,62.9-11,62.9s-51.7-5.2-64.2-5.7s-12.6-0.5-12.6-0.5s5.6-30.4-1.9-31.9
		c-7.4-1.6-11.1-1.1-8.3-6.2s14.4-14.9,11.6-19.1c-2.8-4.2-14.8-8.8-11.6-10.9c3.2-2.1,14.4,3,16.7,2.6c2.3-0.5,3-7.4,2.6-9.3
		c-0.5-1.9,3-2.3-2.6-5.1c-5.6-2.8-5.1-22.1-4-29.3c1.2-7.2-3.7-30.3-3-36.8c0.7-6.5-0.5-18.2-0.5-18.2s-15.6,14-32.3,14.7
		c-16.8,0.7-49.8-0.5-50.5-1.2c-0.7-0.7,1.4-3.7-1.9-3.7c-3.3,0-7.4,1.9-10.7,1.4c-3.3-0.5-14-3-16.1-3
		C700.3,310.9,699.5,309.3,699.5,309.3z"/>
	<path class="st9" d="M703.4,302c0,0-15.2,18.2-14.1,18.3c1,0.2,15.9-14.7,15.9-14.7L703.4,302z"/>
	<path class="st0" d="M840.5,259.2c0,0,0.7,7.3,14.8,6.8c14.1-0.5,25-13.9,24.8-18.5c-0.2-4.7-7.3-9.4-7.3-9.4s5.1,5.4,4.2,9.4
		c-0.9,4-12.9,15.9-23.7,14.7C842.5,261,840.5,259.2,840.5,259.2z"/>
	<polygon class="st4" points="637.7,260.6 624.9,465.7 628,465.7 641.9,266 811.2,274.9 811.2,269 	"/>
	<polygon class="st4" points="804.7,296.6 808.4,465.5 814.8,467 811.2,291 	"/>
	<path class="st4" d="M295.3,361.8c0,0-1.6,3-1.6,5.6c0,2.6,2.3,5.2,2.3,6.8s-0.9,3.7,0,5c0.9,1.3,0.9,2.3,0,3.2
		c-0.9,0.9-2.8,2.6-2.3,3.5c0.6,0.9,2.9,0.7-0.1,1.2c-3.1,0.4-4.1-0.1-4.6,1.3c-0.6,1.4-1.4,2.2-4.2,1.6c-2.7-0.6-2.4-1.3-4.5-0.7
		c-2,0.6-5.9,1.1-6.5,0.9c-0.6-0.2,0.9-0.1-2.7-0.9c-3.6-0.8-3.8,0.1-4.5-0.6c-0.7-0.7-1.8-2.1-2.8-2.1c-1,0,2.6-1.6,7.1-2.7
		C275.4,382.5,295.3,361.8,295.3,361.8z"/>
	<path class="st4" d="M293.6,284.2c2.6-2.1,6.3-12.4,6.6-18.1c0.3-5.8,0.6-14.1-1.7-14.4c-2.3-0.3-5.8-2.3-8.1-7.2
		c-2.3-4.9-6-5.8-6.9-5c-0.9,0.7-2.6-10.2-15.5-13.9c-12.9-3.7-6.9,3.7-8.1,3.7s-22.2-6.3-28.5-6.3c-6.3,0-6.3,1.7-7.8,2.6
		c-1.4,0.9-6.9,0.9-10.6,2c-3.7,1.2-21.3,2-23.9,6.3c-2.6,4.3-0.6,8.3-5.8,10.1c-5.2,1.7-3.5-2-6.6,2.9c-3.2,4.9-2,4-4.9,6.8
		c-2.9,2.7-9.5,18.3-11.8,20.3c-2.3,2-6.3,2.9-4.6,8.3c1.7,5.5,5.8,7.8,4.9,15.5c-0.9,7.8-1.4,13.5-0.9,16.4
		c0.6,2.9,5.2,18.9,6.6,18.6c1.4-0.3,8.7,10.1,10.1,11.6C177.6,345.7,293.6,284.2,293.6,284.2z"/>
	<rect x="899.4" y="313.1" class="st0" width="12" height="12"/>
	<rect x="886" y="357" class="st0" width="6" height="6"/>
	<rect x="897.9" y="362.8" class="st0" width="6" height="6"/>
	<rect x="899.8" y="410.3" class="st0" width="6" height="6"/>
	<rect x="893.8" y="324.1" class="st0" width="6" height="6"/>
	<rect x="811.8" y="189.6" class="st0" width="6" height="6"/>
	<rect x="819.2" y="193.5" class="st0" width="6" height="6"/>
	<rect x="535.5" y="277.3" class="st0" width="6" height="6"/>
	<rect x="488.4" y="367.7" class="st0" width="6" height="6"/>
	<rect x="472" y="453.2" class="st0" width="6" height="6"/>
	<rect x="458.1" y="258.1" class="st0" width="6" height="6"/>
	<rect x="356.8" y="277.1" class="st0" width="6" height="6"/>
	<rect x="329.6" y="388.1" class="st0" width="6" height="6"/>
	<rect x="315.5" y="401.1" class="st0" width="6" height="6"/>
	<rect x="274.2" y="226.5" class="st0" width="6" height="6"/>
	<rect x="338" y="363.9" class="st0" width="13.6" height="13.6"/>
	<rect x="292.9" y="434.9" class="st0" width="7.5" height="7.5"/>
	<rect x="155.1" y="258.8" class="st0" width="13.6" height="13.6"/>
	<rect x="167.7" y="285.1" class="st0" width="6.8" height="6.8"/>
	<rect x="231.8" y="220.5" class="st0" width="6.8" height="6.8"/>
	<rect x="124.3" y="403.4" class="st0" width="13.6" height="13.6"/>
	<rect x="300.4" y="405.6" class="st0" width="13.6" height="13.6"/>
	<rect x="62.9" y="476.7" class="st0" width="13.6" height="13.6"/>
	<rect x="54.5" y="541.9" class="st0" width="13.6" height="13.6"/>
	<rect x="76.9" y="511.8" class="st0" width="24.2" height="24.2"/>
	<rect x="91.9" y="459.6" class="st0" width="6.8" height="6.8"/>
	<rect x="145.6" y="406.9" class="st0" width="6.8" height="6.8"/>
	<rect x="278.7" y="446.4" class="st0" width="6.8" height="6.8"/>
	<rect x="461.2" y="244.7" class="st0" width="13.8" height="13.8"/>
	<rect x="488.4" y="350.7" class="st0" width="11.8" height="11.8"/>
	<rect x="452.2" y="430.5" class="st0" width="11.8" height="11.8"/>
	<rect x="504.9" y="285.1" class="st0" width="11.8" height="11.8"/>
	<rect x="521" y="254.1" class="st0" width="6" height="6"/>
	<rect x="834.5" y="179.4" class="st0" width="6" height="6"/>
	<rect x="1098.8" y="216.3" class="st0" width="8.1" height="8.1"/>
	<rect x="1143.1" y="205.6" class="st0" width="20" height="20"/>
	<rect x="1201.2" y="360.7" class="st0" width="20" height="20"/>
	<rect x="1186.6" y="342.1" class="st0" width="10" height="10"/>
	<rect x="1219.4" y="388" class="st0" width="10" height="10"/>
	<rect x="1168" y="259.6" class="st0" width="10" height="10"/>
	<rect x="1211.2" y="442.9" class="st0" width="10" height="10"/>
	<rect x="1194.3" y="453.6" class="st0" width="19.8" height="19.8"/>
	<rect x="1186.6" y="257.7" class="st0" width="6.9" height="6.9"/>
	<rect x="1125.6" y="215.8" class="st0" width="4.6" height="4.6"/>
	<rect x="1158.5" y="228.4" class="st0" width="4.6" height="4.6"/>
	<rect x="1071.1" y="234.7" class="st0" width="4.6" height="4.6"/>
	<rect x="1153.1" y="223.5" class="st0" width="4.6" height="4.6"/>
</g>
<g id="Layer_3">
	<rect y="599" class="st4" width="1234" height="238"/>
</g>
<g id="Layer_7">
</g>
<g id="Layer_6">
</g>
</svg>
