<?xml version="1.0" encoding="utf-8"?>
<!-- Generator: Adobe Illustrator 18.1.1, SVG Export Plug-In . SVG Version: 6.00 Build 0)  -->
<svg version="1.1" id="Layer_1" xmlns="http://www.w3.org/2000/svg" xmlns:xlink="http://www.w3.org/1999/xlink" x="0px" y="0px"
	 viewBox="0 0 72.4 55.2" enable-background="new 0 0 72.4 55.2" xml:space="preserve">
<g>
	<g>
		<path fill="#8C0B42" d="M69.2,40.4c0,0-0.5-0.5-1.3-1.4c-1-1.1-0.9-2.2-0.9-2.2V11.2h-9.7v20.5c-0.1,1.9-2,2.4-3.1,2.4
			c-1.5,0-2.4-0.9-2.4-2.3V11.2h-9.4v0c-2.2,0-3.9,0-6.6,0c-5.2,0-10,0.8-11.7,5.1l-1-3.8c-0.2-0.8-1.1-1.3-1.9-1.3H4.4
			c-0.2,0-0.3,0.1-0.2,0.3c0,0,0.5,0.4,1.3,1.4c1.2,1.3,0.7,3.1,0.7,3.1L0,40.7h9l1.3-5.4H19l1.4,5.4h9.2c0.9,0,1.8,0,2.6,0
			c4.9,0,8.8-0.5,10.8-3.5c1.5,2.8,4.6,4.1,10.1,3.6c1.9-0.2,3.8-1.1,4.6-2.5l0.4,1.2c0.3,0.7,1,1.3,1.9,1.3h9
			C69.3,40.7,69.3,40.6,69.2,40.4 M11.6,29.9l3-12.1l3,12.1H11.6z"/>
		<path fill="#FFCA38" d="M22,16.5c0,0-0.1,0.1,0,0.1c0,0,0,0.1,0,0.1l1.7,1.6l0,0l0,0v0l0-0.1c0-0.3,0.1-0.5,0.1-0.8v0l0,0l-1.6-1
			C22.2,16.5,22.1,16.4,22,16.5"/>
		<path fill="#FFCA38" d="M20.4,18.8l3.2,2.1l0,0l0,0l0,0l0,0c0-0.3,0-0.7,0-1c0,0,0,0,0,0v-0.1c0,0,0,0,0,0l-3-1.2
			c0,0-0.1,0-0.2,0.1C20.3,18.7,20.4,18.8,20.4,18.8"/>
		<path fill="#FFCA38" d="M19.2,21.2l5.1,2.2l0.1,0l0,0l0,0l0-0.1c-0.2-0.5-0.4-0.9-0.5-1.5v0h0l-4.5-1c0,0-0.1,0-0.2,0.1
			C19.1,21.1,19.2,21.2,19.2,21.2"/>
		<path fill="#FFCA38" d="M37.1,32.4c0-2.1-2.4-2.9-5.1-3.9c-2.8-1-6-2.1-7.5-4.8l0,0h0l-5.9-0.4c0,0-0.2,0-0.2,0.1
			c0,0.1,0.1,0.2,0.1,0.2l6,1.5c0,0,0.1,0,0.1,0.1c0,0-0.1,0.1-0.1,0.1l-6.2,0.6c0,0-0.1,0-0.1,0.2c0,0.1,0.1,0.2,0.1,0.2l6.2,0.6
			c0,0,0.1,0,0.1,0c0,0.1-0.1,0.1-0.1,0.1l-5.9,1.5c0,0-0.1,0.1-0.1,0.2c0,0.1,0.2,0.1,0.2,0.1l6.2-0.4c0,0,0.1,0,0.1,0
			c0,0.1,0,0.1,0,0.1l-5.6,2.4c0,0-0.1,0.1-0.1,0.2c0,0.1,0.2,0.1,0.2,0.1l6-1.3c0,0,0.1,0,0.1,0c0,0,0,0.1,0,0.1l-5,3.3
			c0,0-0.1,0.1,0,0.2c0.1,0.1,0.2,0.1,0.2,0.1l5.6-2.3c0,0,0.1,0,0.1,0c0,0,0,0.1,0,0.1l-4.3,4c0,0-0.1,0.1,0,0.2
			c0.1,0.1,0.2,0,0.2,0l5.1-3.1c0,0,0.1,0,0.1,0c0.1,0,0,0.1,0,0.1L24,37.2c0,0-0.1,0.1,0.1,0.2c0.1,0.1,0.2,0,0.2,0l4.4-3.9
			c0,0,0.1,0,0.1,0c0.1,0,0,0.1,0,0.1l-2.5,5.1c0,0,0,0.1,0.1,0.2c0.1,0.1,0.2,0,0.2,0l3.7-4.5c0,0,1.4,0.5,2,0.6
			c1.7,0.2,3.3-0.2,4.2-1C36.9,33.5,37.1,33,37.1,32.4"/>
		<path fill="#FFCA38" d="M45.2,37.2l-1.4-1.9c-0.1,0.3-0.3,0.8-0.3,0.8l1.4,1.2c0,0,0.1,0.1,0.2,0C45.2,37.3,45.2,37.2,45.2,37.2"
			/>
		<path fill="#FFCA38" d="M47.2,35.3l-2.9-2.7c0,0.5-0.1,1.3-0.1,1.3l2.8,1.7c0,0,0.1,0.1,0.2,0C47.2,35.4,47.2,35.3,47.2,35.3"/>
		<path fill="#FFCA38" d="M48.8,33.2l-4.6-3c0.1,0.6,0.1,1.6,0.1,1.6l4.3,1.7c0,0,0.1,0,0.2-0.1C48.9,33.3,48.8,33.2,48.8,33.2"/>
		<path fill="#FFCA38" d="M51,26c0,0,0-0.1-0.1-0.1c-0.1,0-0.1-0.1-0.1-0.1l-6.1-0.6h0c0,0-0.1,0-0.1,0c0,0,0,0,0,0c0,0,0,0,0,0h0
			l6-1.5c0,0,0.1,0,0.1-0.1c0,0,0-0.1,0-0.1c0-0.1-0.1-0.1-0.2-0.1c-0.1,0-6.1,0.4-6.1,0.4h0c0,0-0.1,0-0.1,0c0,0,0,0,0,0
			c0,0,0,0,0,0l5.6-2.4c0,0,0,0,0.1-0.1c0,0,0-0.1,0-0.1c0-0.1-0.2-0.1-0.2-0.1c-0.1,0-6,1.4-6,1.4h0c0,0-0.1,0-0.1,0c0,0,0,0,0,0
			c0,0,0,0,0,0h0l5-3.3c0,0,0.1-0.1,0.1-0.1c0,0,0-0.1,0-0.1c-0.1-0.1-0.2-0.1-0.2-0.1c-0.1,0-5.6,2.3-5.6,2.3h0c0,0-0.1,0-0.1,0
			c0,0,0,0,0,0c0,0,0,0,0,0h0l4.3-4c0,0,0.1,0,0.1-0.1c0,0,0-0.1,0-0.1c-0.1-0.1-0.2,0-0.2,0l-5.1,3.1v0h0c0,0-0.1,0-0.1,0
			c0,0,0,0,0,0c0,0,0,0,0,0h0l0,0c0,0,3.3-4.3,3.4-4.6c0,0,0.1-0.1,0.1-0.1c0,0,0-0.1-0.1-0.1c0,0-0.2-0.1-0.2,0
			c-0.1,0.1-4.4,3.9-4.4,3.9v0c0,0-0.1,0-0.1,0c0,0,0,0,0,0c0,0,0,0,0,0v0l2.5-5.1c0,0,0.1-0.2-0.1-0.2c-0.1-0.1-0.2,0-0.2,0
			l-3.7,4.6c0,0-1.9-0.8-3.6-0.8c-1.6,0-2.8,0.3-3.5,0.9c-0.4,0.4-0.6,0.9-0.6,1.4c0,0.8,0.5,1.4,1.4,2.1c0.9,0.5,2.1,1,3.3,1.5
			c1.6,0.6,3.5,1.3,5.1,2.4c2.9,2,3.2,4.6,3.2,4.6l5.7,1.3c0,0,0.1,0,0.2-0.1c0,0,0-0.1,0-0.1c0,0-0.1-0.1-0.1-0.1l-5.5-2.4h0
			c0,0,0,0,0,0c0,0,0,0,0,0c0,0,0,0,0.1,0h0c0,0,5.9,0.4,6.2,0.4c0,0,0.1,0,0.2-0.1c0,0,0-0.1,0-0.1c0,0-0.1-0.1-0.1-0.1l-5.9-1.5h0
			c0,0,0,0,0,0c0,0,0,0,0,0c0,0,0-0.1,0.1-0.1h0c0,0,6.1-0.6,6.1-0.6c0,0,0.1,0,0.1,0C51,26.1,51,26.1,51,26"/>
		<path fill="#8C0B42" d="M70.4,15.1c-1,0-1.8-0.8-1.8-1.8c0-1,0.8-1.8,1.8-1.8c1,0,1.8,0.8,1.8,1.8C72.2,14.3,71.4,15.1,70.4,15.1
			 M70.4,11.2c-1.1,0-2.1,0.9-2.1,2.1c0,1.2,1,2.1,2.1,2.1c1.2,0,2.1-0.9,2.1-2.1C72.5,12.2,71.6,11.2,70.4,11.2z M69.6,12.1h0.7
			c0.3,0,0.5,0,0.7,0.2c0.1,0.1,0.3,0.3,0.3,0.6c0,0.4-0.3,0.6-0.5,0.6l0.5,0.9h-0.5l-0.5-0.9H70v0.9h-0.4V12.1z M70,12.5v0.7h0.1
			c0.1,0,0.2,0,0.3,0c0.1,0,0.4,0,0.4-0.4c0,0,0-0.2-0.2-0.3c-0.1,0-0.2,0-0.5,0H70z"/>
	</g>
</g>
</svg>
