<?xml version="1.0" encoding="utf-8"?>
<!-- Generator: Adobe Illustrator 21.0.0, SVG Export Plug-In . SVG Version: 6.00 Build 0)  -->
<svg version="1.1" id="Layer_1" xmlns="http://www.w3.org/2000/svg" xmlns:xlink="http://www.w3.org/1999/xlink" x="0px" y="0px"
	 viewBox="0 0 480 181" style="enable-background:new 0 0 480 181;" xml:space="preserve">
<style type="text/css">
	.st0{fill:none;stroke:#878787;stroke-linecap:round;stroke-linejoin:round;}
	.st1{fill:none;stroke:#878787;}
</style>
<g>
	<path class="st0" d="M323.4,146.6c0.2-4.2,0.2-6.2,0.2-8.3c0.2-4.7,1.4-8.9,2.2-13.5c0.7-3.7,1.9-9.4-0.5-12.9
		c-2.3-3.1-4.2,0.1-4.2,2.7c-0.1,4.1,2.3,7.8,4.4,11.1c1.6,2.5,5.8,7,6.3,10.1c0.3,2.2-0.9,4.4-3.2,4.5c-2.2,0.1-5.5-4-6.7-5.6
		c-4.3-5.7-10.3-9.8-10.1-17.5c0.1-4.9,3.6-9.4,6.9-13.6c1.3-1.6,7.6-6.3,11.2-7.5c1.8-0.7,7.7-1.5,9-1.9c2.6-0.7,5.5-1.3,7.6-3.1
		c2.5-2.2,4-6,4.1-9.3c0.1-3.2-0.8-8.1-3.7-9.9c-3.2-2-6.2,1.1-7.5,3.7c-4.2,8.5,2,17,16.9,23.9c4.4,2.1,6.5,8.8,4.4,18
		c-2.1,9.1-1.6,24.6,4.4,29.5c3.2,2.6,2.9-11.1,3-14.4c0.2-6.6,2-12.7,3.1-19.2c1-5.3,2.6-13.5-0.9-18.2c-3.2-4.4-5.9,0.1-5.9,4
		c-0.1,5.7,3.2,11.1,6.3,15.8c2.3,3.6,8.5,8.3,9.1,12.7c0.4,3.1-1.3,6.2-4.5,6.4s-8-4.1-9.7-6.3c-6.2-8-14.6-13.8-14.4-24.8
		c0.1-7,5.1-13.5,9.9-19.2c2-2.4,10.8-8.8,15.9-10.5c2.5-0.9,5.1-1.6,6.8-2.1c3.7-0.9,7.8-1.9,10.8-4.4c3.6-3.2,5.6-8.6,5.8-13.3
		c0.2-4.5-1.1-11.5-5.4-14.1c-4.5-2.7-8.8,1.4-10.7,5.3c-5.8,12.1,2.6,22.8,13.2,27.9c9.4,4.5,19,4,25.8,13c3.1,4,5.2,9,7.1,13.5
		c1.4,3.3,3,5.9,2.1,9.6c-2,8-9.9,14.2-15.9,19.1c-4.1,3.3-8.1,7.9-13.8,8.5c-9,0.9-3.2-7.8-0.8-11c5.2-6.8,12.2-12.6,14.4-21
		c0.8-2.7,1.5-9.3-2.3-10.2c-5.2-1.2-6.2,7.2-6.3,10.4c-0.3,7.8,1.1,15.9,2.2,23.7c0.8,5.8,2.7,14.1,3.2,20.1c0,0,9.9,2.4,9.1-6.2
		c-0.7-8.5-1.3-22.4,0.3-31.2s4.1-12.9,10-14.6c1.9-0.5,3.5-1.2,4.8-1.4c2.6-0.7,5.5-1.3,7.6-3.1c2.5-2.2,4-6,4.1-9.3
		c0.1-3.2-0.8-8.1-3.7-9.9c-3.2-2-6.2,1.1-7.5,3.7c-4.2,8.5,1.9,16.1,9.3,19.7c6.6,3.2,13.4,2.7,18.2,9.1c2.1,2.9,3.6,6.4,5.1,9.6
		c1,2.3,2.1,4.2,1.5,6.8c-1.4,5.6-6.9,10-11.3,13.4c-2.9,2.3-5.7,5.6-9.8,5.9c-6.4,0.5-2.2-5.5-0.5-7.7c3.6-4.8,8.6-8.9,10.2-14.8
		c0.5-1.9,1.1-6.6-1.6-7.2c-3.6-0.9-4.3,5.2-4.4,7.4c-0.2,5.5,0.8,11.3,1.5,16.7c0.8,5.2,1.9,15.7,1.9,15.4c0,0,25.4-10.4,56.2-10.4
		"/>
	<path class="st1" d="M2.7,0c143,13.7,175.8,94.8,268.6,135.6c19.2,8.5,51.5,21.4,52.1,11"/>
</g>
</svg>
