<?xml version="1.0" encoding="utf-8"?>
<!-- Generator: Adobe Illustrator 19.0.0, SVG Export Plug-In . SVG Version: 6.00 Build 0)  -->
<svg version="1.1" id="Layer_1" xmlns="http://www.w3.org/2000/svg" xmlns:xlink="http://www.w3.org/1999/xlink" x="0px" y="0px"
	 viewBox="-137 139.5 8 4" style="enable-background:new -137 139.5 8 4;" xml:space="preserve">
<path d="M-135,139.5c-1.3,0-2,1-2,2s0.7,2,2,2c0.8,0,1.4-0.6,2-1.2c0.6,0.7,1.2,1.2,2,1.2c1.3,0,2-1,2-2s-0.7-2-2-2
	c-0.8,0-1.4,0.6-2,1.2C-133.6,140-134.2,139.5-135,139.5z M-135,140.5c0.4,0,0.9,0.5,1.3,1c-0.5,0.5-0.9,1-1.3,1c-0.7,0-1-0.5-1-1
	S-135.7,140.5-135,140.5z M-131,140.5c0.7,0,1,0.5,1,1s-0.3,1-1,1c-0.4,0-0.9-0.5-1.3-1C-131.9,140.9-131.4,140.5-131,140.5z"/>
</svg>
