<?xml version="1.0" encoding="UTF-8" standalone="no"?>
<!-- Created with Inkscape (http://www.inkscape.org/) -->

<svg
   xmlns:dc="http://purl.org/dc/elements/1.1/"
   xmlns:cc="http://creativecommons.org/ns#"
   xmlns:rdf="http://www.w3.org/1999/02/22-rdf-syntax-ns#"
   xmlns:svg="http://www.w3.org/2000/svg"
   xmlns="http://www.w3.org/2000/svg"
   version="1.1"
   width="190.6454"
   height="58.582344"
   id="svg29793"
   xml:space="preserve"><metadata
     id="metadata29799"><rdf:RDF><cc:Work
         rdf:about=""><dc:format>image/svg+xml</dc:format><dc:type
           rdf:resource="http://purl.org/dc/dcmitype/StillImage" /><dc:title></dc:title></cc:Work></rdf:RDF></metadata><defs
     id="defs29797"><clipPath
       id="clipPath29863"><path
         d="m 42.492,693.54 512.864,0 0,-157.595 -512.864,0 0,157.595 z"
         id="path29865" /></clipPath><clipPath
       id="clipPath29879"><path
         d="m 42.492,693.54 512.864,0 0,-157.595 -512.864,0 0,157.595 z"
         id="path29881" /></clipPath><linearGradient
       x1="0"
       y1="0"
       x2="1"
       y2="0"
       id="linearGradient29897"
       gradientUnits="userSpaceOnUse"
       gradientTransform="matrix(439.484,0,0,-439.484,72.773,211.104)"
       spreadMethod="pad"><stop
         id="stop29899"
         style="stop-color:#42a5dc;stop-opacity:1"
         offset="0" /><stop
         id="stop29901"
         style="stop-color:#394c99;stop-opacity:1"
         offset="1" /></linearGradient><clipPath
       id="clipPath30041"><path
         d="m 40.075,299.742 0,-156.372 516.061,0 0,156.372"
         id="path30043" /></clipPath><clipPath
       id="clipPath29863-6"><path
         d="m 42.492,693.54 512.864,0 0,-157.595 -512.864,0 0,157.595 z"
         id="path29865-5" /></clipPath><clipPath
       id="clipPath29879-0"><path
         d="m 42.492,693.54 512.864,0 0,-157.595 -512.864,0 0,157.595 z"
         id="path29881-9" /></clipPath></defs><g
     transform="matrix(1.25,0,0,-1.25,-553.57032,1088.5604)"
     id="g29801"><g
       transform="matrix(0.29738173,0,0,0.29738173,430.21991,664.60223)"
       id="g30053"><path
         d="m 241.955,558.435 7.5823,0 0,44.885 -7.5823,0 0,-44.885 z"
         id="path29803"
         style="fill:#002a54;fill-opacity:1;fill-rule:nonzero;stroke:none" /><g
         transform="translate(365.409,603.308)"
         id="g29805"><path
           d="m 0,0 27.975,0 0,-4.877 -20.248,-0.002 0.003,-14.112 19.976,0 0,-5.008 -19.994,-0.008 0,-15.964 20.237,-0.007 0,-4.892 L 0,-44.87 0,0"
           id="path29807"
           style="fill:#002a54;fill-opacity:1;fill-rule:nonzero;stroke:none" /></g><g
         transform="translate(524.948,603.308)"
         id="g29809"><path
           d="m 0,0 27.975,0 0,-4.877 -20.247,-0.002 0.003,-14.112 19.976,0 0,-5.008 -19.995,-0.008 0,-15.964 20.237,-0.007 0,-4.892 L 0,-44.87 0,0"
           id="path29811"
           style="fill:#002a54;fill-opacity:1;fill-rule:nonzero;stroke:none" /></g><g
         transform="translate(422.951,561.206)"
         id="g29813"><path
           d="m 0,0 c -7.903,0 -14.314,8.747 -14.314,19.537 0,10.793 6.411,19.538 14.314,19.538 7.906,0 14.314,-8.745 14.314,-19.538 C 14.314,8.747 7.906,0 0,0 z m -0.17,43.072 c -12.77,0 -23.125,-10.537 -23.125,-23.535 0,-12.998 10.355,-23.533 23.125,-23.533 12.773,0 23.128,10.535 23.128,23.533 0,12.998 -10.355,23.535 -23.128,23.535"
           id="path29815"
           style="fill:#002a54;fill-opacity:1;fill-rule:nonzero;stroke:none" /></g><g
         transform="translate(257.988,603.318)"
         id="g29817"><path
           d="m 0,0 5.339,0 28.446,-32.131 0.009,32.13 4.856,0 0.01,-44.873 -4.862,0 -28.924,32.382 -0.029,-32.382 -4.901,0"
           id="path29819"
           style="fill:#002a54;fill-opacity:1;fill-rule:nonzero;stroke:none" /></g><g
         transform="translate(490.916,603.258)"
         id="g29821"><path
           d="m 0,0 7.718,0 0.001,-39.968 20.283,-10e-4 0,-4.905 L 0,-44.874 0,0"
           id="path29823"
           style="fill:#002a54;fill-opacity:1;fill-rule:nonzero;stroke:none" /></g><g
         transform="translate(341.279,599.598)"
         id="g29825"><path
           d="m 0,0 c -2.256,0 -5.153,-0.001 -6.97,-0.001 0,-1.865 0.01,-18.447 0.01,-18.447 0,0 6.465,0.006 6.792,0.006 6.447,0 9.002,4.304 9.002,9.582 C 8.834,-2.978 6.106,0 0,0 z m -14.688,3.713 c 0,0 15.48,0 17.044,0 13.493,0 15.384,-8.298 15.384,-11.501 0,-7.759 -4.511,-13.985 -18.242,-13.985 l -6.471,0 0.012,-19.376 -7.715,0 -0.012,44.862"
           id="path29827"
           style="fill:#002a54;fill-opacity:1;fill-rule:nonzero;stroke:none" /></g><g
         transform="translate(467.046,599.668)"
         id="g29829"><path
           d="m 0,0 c -2.256,0 -5.154,-0.001 -6.971,-0.001 0,-1.866 0.009,-18.448 0.009,-18.448 0,0 6.466,0.006 6.794,0.006 6.446,0 9.001,4.303 9.001,9.581 C 8.833,-2.979 6.105,0 0,0 z m -14.689,3.712 c 0,0 15.48,0 17.044,0 13.494,0 15.384,-8.297 15.384,-11.501 0,-7.759 -4.511,-13.986 -18.243,-13.986 l -6.47,0 0.012,-19.376 -7.715,0 -0.012,44.863"
           id="path29831"
           style="fill:#002a54;fill-opacity:1;fill-rule:nonzero;stroke:none" /></g><path
         d="m 241.955,625.498 7.5823,0 0,44.884 -7.5823,0 0,-44.884 z"
         id="path29833"
         style="fill:#002a54;fill-opacity:1;fill-rule:nonzero;stroke:none" /><g
         transform="translate(463.338,628.245)"
         id="g29835"><path
           d="m 0,0 c -7.906,0 -14.313,8.748 -14.313,19.536 0,10.789 6.407,19.535 14.313,19.535 7.907,0 14.315,-8.746 14.315,-19.535 C 14.315,8.748 7.907,0 0,0 z m -0.169,43.069 c -12.771,0 -23.124,-10.535 -23.124,-23.533 0,-12.996 10.353,-23.532 23.124,-23.532 12.773,0 23.127,10.536 23.127,23.532 0,12.998 -10.354,23.533 -23.127,23.533"
           id="path29837"
           style="fill:#002a54;fill-opacity:1;fill-rule:nonzero;stroke:none" /></g><g
         transform="translate(257.988,670.37)"
         id="g29839"><path
           d="m 0,0 5.339,0 28.446,-32.127 -0.005,32.124 4.887,0 -0.001,-44.865 -4.868,0 -28.924,32.375 -0.002,-32.375 -4.928,0"
           id="path29841"
           style="fill:#002a54;fill-opacity:1;fill-rule:nonzero;stroke:none" /></g><g
         transform="translate(336.215,670.37)"
         id="g29843"><path
           d="m 0,0 5.751,0 -17.265,-44.868 -5.751,0 L -34.293,0 -24.596,0 -12.025,-34.179 0,0"
           id="path29845"
           style="fill:#002a54;fill-opacity:1;fill-rule:nonzero;stroke:none" /></g><g
         transform="translate(346.717,670.377)"
         id="g29847"><path
           d="m 0,0 26.971,-0.008 0,-4.858 -19.43,-0.007 -0.007,-14.124 19.168,0 0,-5.003 -19.168,-0.013 -0.004,-15.969 19.414,-0.004 0,-4.889 L 0,-44.868 0,0"
           id="path29849"
           style="fill:#002a54;fill-opacity:1;fill-rule:nonzero;stroke:none" /></g><g
         transform="translate(422.05,665.567)"
         id="g29851"><path
           d="m 0,0 -12.145,-0.009 -0.006,4.812 31.972,0 0,-4.881 L 7.726,-0.089 7.735,-40.065 -0.001,-40.073 0,0"
           id="path29853"
           style="fill:#002a54;fill-opacity:1;fill-rule:nonzero;stroke:none" /></g><g
         transform="translate(499.207,666.649)"
         id="g29855"><path
           d="m 0,0 c 0,0 5.577,-0.056 5.644,-0.056 6.01,0 8.366,-4.324 8.366,-8.793 0,-5.159 -2.651,-9.579 -8.661,-9.579 -0.168,0 -5.348,-0.007 -5.348,-0.007 L 0,0 z m 15.608,-41.105 9.696,0 -13.43,19.985 c 0.201,0.048 11.036,2.05 11.036,12.519 0,8.675 -6.12,12.324 -15.792,12.324 -1.565,0 -14.86,0 -14.86,0 l 0,-44.869 7.777,0 -0.022,19.389 2.798,0 12.797,-19.348"
           id="path29857"
           style="fill:#002a54;fill-opacity:1;fill-rule:nonzero;stroke:none" /></g><g
         id="g29859"><g
           clip-path="url(#clipPath29863-6)"
           id="g29861"><g
             transform="translate(133.495,552.367)"
             id="g29867"><path
               d="m 0,0 c -11.521,0 -25.89,-11.168 -36.575,-7.535 0,0 2.636,-4.947 8.362,-5.454 11.323,-1.002 20.235,6.38 31.773,5.547 11.369,-0.822 17.056,-9.104 17.078,-8.979 C 22.05,-8.519 13.229,0 0,0 z m 28.374,128.145 c 0,0 -10.199,15.395 -30.063,12.715 0,0 9.87,-14.954 30.063,-12.715 z m 11.203,-6.768 c -5.721,2.01 -13.437,2.979 -22.315,-0.416 0,0 13.309,-12.559 32.864,-5.612 0,0 -0.013,0.012 -0.021,0.02 0.019,-0.007 0.038,-0.013 0.038,-0.013 -3.312,20.049 -21.012,25.145 -21.012,25.145 1.286,-9.193 5.881,-15.257 10.446,-19.124 z M 36.368,109.43 c 0,0 7.152,-17.264 28.27,-18.963 0,0 -0.007,0.017 -0.01,0.024 0.013,-0.012 0.029,-0.025 0.029,-0.025 5.298,20.057 -9.063,32.206 -9.063,32.206 -2.644,-9.101 -0.9,-16.671 1.737,-22.182 -4.489,4.265 -11.272,8.393 -20.963,8.94 z M 65.832,73.754 c -2.491,5.878 -7.205,12.569 -16.138,17.075 0,0 -0.342,-19.26 18.923,-29.555 0,0 0,0.019 0,0.027 0.007,-0.017 0.016,-0.034 0.016,-0.034 13.259,16.78 4.682,34.169 4.682,34.169 C 67.071,87.92 65.607,80.047 65.832,73.754 z M 62.638,45.837 c 0.066,6.385 -1.581,14.4 -7.971,22.1 0,0 -8.011,-17.518 5.535,-34.655 0,0 0.007,0.018 0.01,0.024 10e-4,-0.015 0.002,-0.036 0.002,-0.036 C 79.076,43.353 78.162,62.721 78.162,62.721 69.436,58.329 64.947,51.697 62.638,45.837 z M 25.605,5.81 c 4.91,4.383 9.877,11.205 11.305,21.425 0,0 -18.913,-6.068 -22.558,-28.286 0,0 0.019,0.006 0.032,0.01 C 14.367,-1.057 14.351,-1.074 14.351,-1.074 35.134,-8.436 49.255,5.715 49.255,5.715 39.843,9.31 31.673,8.121 25.605,5.81 z M 50.14,45.414 c 0,0 -14.482,-12.707 -9.14,-33.885 0,0 0.015,0.014 0.022,0.021 -0.007,-0.019 -0.016,-0.04 -0.016,-0.04 21.337,1.479 28.433,19.526 28.433,19.526 -9.761,-0.437 -16.572,-4.651 -21.078,-9.052 2.675,5.796 4.456,13.787 1.779,23.43 z m -61.596,95.403 c -19.864,2.681 -30.064,-12.715 -30.064,-12.715 20.194,-2.237 30.064,12.715 30.064,12.715 z m -51.506,-25.51 c 19.555,-6.948 32.865,5.61 32.865,5.61 -8.877,3.395 -16.592,2.428 -22.313,0.418 4.564,3.867 9.157,9.931 10.443,19.122 0,0 -17.7,-5.094 -21.011,-25.143 0,0 0.02,0.005 0.034,0.01 -0.006,-0.005 -0.018,-0.017 -0.018,-0.017 z M -77.464,90.449 c -0.003,-0.007 -0.01,-0.024 -0.01,-0.024 21.121,1.697 28.27,18.963 28.27,18.963 -9.691,-0.548 -16.473,-4.676 -20.963,-8.941 2.636,5.512 4.382,13.082 1.738,22.185 0,0 -14.359,-12.152 -9.062,-32.207 0,0 0.014,0.015 0.027,0.024 z m -3.987,-29.187 c 0,-0.011 0,-0.03 0,-0.03 19.263,10.294 18.921,29.554 18.921,29.554 -8.935,-4.506 -13.648,-11.198 -16.138,-17.076 0.225,6.295 -1.239,14.168 -7.483,21.686 0,0 -8.577,-17.39 4.682,-34.172 0,0 0.009,0.02 0.018,0.038 z m 8.402,-28.036 c 0,0 0,0.022 0.001,0.04 0.004,-0.007 0.012,-0.025 0.012,-0.025 13.544,17.137 5.53,34.651 5.53,34.651 -6.387,-7.697 -8.033,-15.714 -7.967,-22.095 -2.309,5.859 -6.798,12.488 -15.523,16.882 0,0 -0.915,-19.365 17.947,-29.453 z m 45.83,-34.31 c 0.013,-0.004 0.032,-0.012 0.032,-0.012 -3.646,22.222 -22.557,28.287 -22.557,28.287 1.428,-10.217 6.394,-17.04 11.304,-21.423 -6.067,2.31 -14.238,3.501 -23.648,-0.095 0,0 14.119,-14.153 34.902,-6.791 0,0 -0.016,0.017 -0.033,0.034 z m -26.638,12.589 c 0.007,-0.006 0.022,-0.019 0.022,-0.019 5.342,21.176 -9.14,33.884 -9.14,33.884 -2.677,-9.641 -0.897,-17.629 1.777,-23.426 -4.506,4.402 -11.316,8.611 -21.077,9.049 0,0 7.098,-18.044 28.433,-19.526 0,0 -0.008,0.021 -0.015,0.038"
               id="path29869"
               style="fill:#002a54;fill-opacity:1;fill-rule:evenodd;stroke:none" /></g></g></g><g
         transform="translate(393.795,667.26)"
         id="g29871"><path
           d="m 0,0 c -7.2,0 -10.651,-8.755 -1.994,-13.404 3.252,-1.746 11.526,-5.417 13.947,-10.419 3.561,-7.357 -0.745,-18.717 -16.216,-18.717 -7.453,0 -10.51,2.628 -10.51,2.628 l 1.887,8.306 1.238,0 c 0.174,-0.961 1.358,-7.06 8.98,-7.06 5.726,0 8.422,4.733 7.346,8.965 -1.046,4.118 -10.666,8.329 -13.82,10.422 -9.317,6.182 -6.771,23.38 9.405,23.38 6.713,0 10.714,-3.238 10.714,-3.238 l -2.09,-6.481 -0.981,0 C 6.511,-1.871 3.876,0 0,0"
           id="path29873"
           style="fill:#002a54;fill-opacity:1;fill-rule:nonzero;stroke:none" /></g><g
         id="g29875"><g
           clip-path="url(#clipPath29879-0)"
           id="g29877"><g
             transform="translate(542.229,667.097)"
             id="g29883"><path
               d="m 0,0 c -7.199,0 -10.65,-8.756 -1.994,-13.404 3.253,-1.747 11.526,-5.417 13.948,-10.42 3.56,-7.357 -0.745,-18.717 -16.216,-18.717 -7.453,0 -10.511,2.629 -10.511,2.629 l 1.888,8.305 1.237,0 c 0.174,-0.961 1.358,-7.059 8.98,-7.059 5.727,0 8.423,4.733 7.346,8.965 -1.046,4.118 -10.665,8.329 -13.82,10.422 -9.317,6.181 -6.77,23.38 9.406,23.38 6.712,0 10.713,-3.238 10.713,-3.238 l -2.09,-6.482 -0.98,0 C 6.512,-1.871 3.877,0 0,0"
               id="path29885"
               style="fill:#002a54;fill-opacity:1;fill-rule:nonzero;stroke:none" /></g></g></g></g></g></svg>