<?xml version="1.0" encoding="UTF-8"?>
<!DOCTYPE svg PUBLIC "-//W3C//DTD SVG 1.1//EN" "http://www.w3.org/Graphics/SVG/1.1/DTD/svg11.dtd">
<!-- Creator: CorelDRAW X7 -->
<svg xmlns="http://www.w3.org/2000/svg" xml:space="preserve" width="105mm" height="50mm" version="1.1" style="shape-rendering:geometricPrecision; text-rendering:geometricPrecision; image-rendering:optimizeQuality; fill-rule:evenodd; clip-rule:evenodd"
viewBox="0 0 10500 5000"
 xmlns:xlink="http://www.w3.org/1999/xlink">
 <defs>
  <style type="text/css">
   <![CDATA[
    .fil0 {fill:#ACE0EE}
    .fil1 {fill:#C5E6F0}
   ]]>
  </style>
 </defs>
 <g id="Layer_x0020_1">
  <metadata id="CorelCorpID_0Corel-Layer"/>
  <g id="_943438304">
   <path class="fil0" d="M3535 3431c0,-352 412,-348 567,-755l695 -1c111,136 117,225 347,390 186,133 241,195 240,497 -2,479 2,959 0,1438l239 0c1,-317 25,-1612 -29,-1765 -16,-47 -38,-83 -63,-124 -85,-137 -254,-212 -469,-461 63,-111 108,-110 107,-307 0,-588 0,-545 -710,-545 -276,0 -589,-55 -685,141 -42,87 -24,281 -24,385 -1,237 25,189 108,326 -241,260 -232,209 -372,352 -169,173 -191,232 -190,542l0 1456 239 0 0 -1569zm453 -1397l941 0 1 403 -941 1 -1 -404z"/>
   <path class="fil0" d="M1850 1179c193,-115 467,-418 806,-301 252,87 471,400 321,750 -82,192 -639,699 -833,895 -75,77 -217,239 -294,290l-578 -568c-114,-106 -476,-459 -543,-604 -158,-343 51,-664 301,-758 341,-129 630,175 820,296zm0 1880c81,-47 864,-871 1002,-1010 107,-107 225,-198 295,-379 216,-555 -332,-1306 -1085,-843 -71,44 -135,100 -212,132 -243,-121 -536,-432 -965,-200 -262,143 -484,506 -332,911 65,172 185,268 285,371 117,119 218,223 334,342 115,118 219,222 335,340 83,84 243,271 343,336z"/>
   <path class="fil1" d="M8384 670c171,-88 254,202 101,255 -155,55 -263,-172 -101,-255zm-867 -670c5,962 87,904 -580,902 -241,-1 -513,60 -557,-177 -26,-141 -7,-538 -5,-725l-174 0c1,498 -97,907 243,1054 126,54 282,12 418,38 184,1045 1447,964 1632,103 20,-95 -6,-64 60,-105 46,-29 68,-28 104,-67 184,-201 29,-630 -309,-538 -52,14 -76,35 -110,63 -123,101 -145,261 -84,386 53,109 124,134 181,170 -7,79 -40,154 -74,218 -68,128 -56,91 -139,179 -57,62 -94,81 -178,122 -321,158 -818,-17 -908,-541 747,0 657,-162 651,-1082l-171 0z"/>
   <path class="fil1" d="M9597 1957c357,-129 495,408 199,524 -375,147 -493,-417 -199,-524zm364 597c34,-76 89,-101 121,-220 71,-265 -119,-541 -404,-534 -187,5 -312,125 -366,271 -89,244 41,341 97,478 -168,186 -615,169 -507,643 238,56 10,-211 256,-336 151,-76 316,-118 363,-244 163,34 164,39 330,4 56,126 229,170 375,247 225,118 9,385 243,330 108,-469 -319,-457 -508,-639z"/>
   <path class="fil0" d="M4460 3787l126 400 -272 2 146 -402zm-207 585l395 0 77 218 237 -5 -378 -1055 -253 -2c-62,174 -359,948 -376,1061l223 0 75 -217z"/>
   <path class="fil1" d="M6890 4098c50,-121 353,-595 460,-778l75 -105c23,25 -4,-7 29,35l507 850 -1071 -2zm-153 83l1377 -5 -689 -1123 -688 1128z"/>
   <path class="fil0" d="M1719 1805c-97,115 -323,255 -188,334 112,47 223,-155 319,-212 80,47 249,303 345,196 76,-84 -168,-265 -214,-318 66,-133 322,-222 188,-361 -104,-13 -126,34 -176,84 -49,50 -90,96 -143,135 -66,-50 -247,-309 -346,-192 -78,91 169,245 215,334z"/>
   <path class="fil1" d="M98 3938c259,-357 609,-292 800,0 -196,286 -581,303 -800,0zm-84 0c50,110 286,305 503,298 173,-6 478,-216 461,-312 -16,-93 -311,-310 -497,-304 -190,7 -425,208 -467,318z"/>
   <path class="fil1" d="M429 3786c-200,103 -37,383 147,286 160,-85 61,-392 -147,-286z"/>
  </g>
 </g>
</svg>
