<?xml version="1.0" encoding="utf-8"?>
<!-- Generator: Adobe Illustrator 18.1.1, SVG Export Plug-In . SVG Version: 6.00 Build 0)  -->
<svg version="1.1" id="Layer_1" xmlns="http://www.w3.org/2000/svg" xmlns:xlink="http://www.w3.org/1999/xlink" x="0px" y="0px"
	 viewBox="0 0 49.7 55.2" enable-background="new 0 0 49.7 55.2" xml:space="preserve">
<g>
	<g>
		<g>
			<g>
				<path fill="none" d="M4.9,33.1l-0.4-2.6l0,0l-0.2,2.7l-0.6,0.1l-1.1-2.5l0,0L3,33.4l-0.8,0.1l-0.7-3.8l1.1-0.2l1,2.4l0,0
					l0.2-2.6L5,29.1l0.7,3.8L4.9,33.1z"/>
				<path fill="none" d="M8.1,32.5l-0.3-0.7L6.9,32l0,0.7L6,32.9l0.3-4l1.1-0.2L9,32.4L8.1,32.5z M7,29.6L7,29.6l-0.1,1.7l0.7-0.1
					L7,29.6z"/>
				<path fill="none" d="M10.4,29.1C10.2,29,10,28.9,9.8,29c-0.2,0-0.4,0.2-0.3,0.5c0,0.2,0.2,0.3,0.6,0.4c0.4,0.1,0.9,0.3,1,1
					c0.1,0.8-0.3,1.3-1,1.5c-0.5,0.1-0.9,0-1.2-0.2l0.3-0.7c0.2,0.1,0.4,0.2,0.7,0.2c0.2,0,0.3-0.2,0.3-0.5c0-0.2-0.2-0.3-0.6-0.4
					c-0.5-0.1-0.8-0.3-1-1c-0.1-0.8,0.4-1.3,1-1.4c0.4-0.1,0.8,0,1,0.2L10.4,29.1z"/>
				<path fill="none" d="M12.4,28.6l0.5,3.1l-0.8,0.1l-0.5-3.1l-0.7,0.1l-0.1-0.7l2.2-0.4l0.1,0.7L12.4,28.6z"/>
				<path fill="none" d="M14,31.5l-0.7-3.8l1.8-0.3l0.1,0.8l-1,0.2l0.1,0.7l0.9-0.2l0.1,0.7l-0.9,0.2l0.1,0.8l1.1-0.2l0.1,0.8
					L14,31.5z"/>
				<path fill="none" d="M18,30.8l-0.8-1.4l-0.3,0l0.3,1.5L16.4,31l-0.7-3.8L17,27c0.7-0.1,1.2,0.2,1.4,0.9c0.1,0.6-0.1,0.9-0.4,1.1
					l1,1.6L18,30.8z M17,27.8l-0.3,0l0.2,1l0.3,0c0.2,0,0.4-0.2,0.4-0.6C17.4,27.8,17.2,27.7,17,27.8z"/>
				<path fill="none" d="M20.4,30.3l-0.7-3.8l0.9-0.2l0.5,3l1-0.2l0.1,0.8L20.4,30.3z"/>
				<path fill="none" d="M23.9,29.8c-0.9,0.2-1.6-0.6-1.8-1.8c-0.2-1.2,0.2-2.1,1.1-2.3c0.9-0.2,1.6,0.5,1.8,1.7
					C25.2,28.8,24.8,29.7,23.9,29.8z M23.3,26.7c-0.4,0.1-0.5,0.6-0.4,1.3c0.1,0.7,0.4,1.1,0.8,1.1c0.4-0.1,0.5-0.6,0.4-1.3
					C24,27.1,23.7,26.6,23.3,26.7z"/>
				<path fill="none" d="M27.2,29.2c-1,0.2-1.7-0.5-1.9-1.7c-0.2-1.2,0.2-2.1,1.1-2.3c0.5-0.1,0.9,0,1.1,0.3l-0.4,0.7
					c-0.2-0.2-0.3-0.2-0.6-0.2c-0.5,0.1-0.6,0.7-0.5,1.3c0.1,0.6,0.4,1.2,0.9,1.1c0.1,0,0.2-0.1,0.3-0.1l-0.1-0.7l-0.4,0.1l-0.1-0.8
					l1.2-0.2l0.4,2C28,29,27.7,29.1,27.2,29.2z"/>
				<path fill="none" d="M30.2,28.7c-0.9,0.2-1.6-0.6-1.8-1.8c-0.2-1.2,0.2-2.1,1.1-2.3c0.9-0.2,1.6,0.5,1.8,1.7
					C31.5,27.7,31.1,28.6,30.2,28.7z M29.6,25.5c-0.4,0.1-0.5,0.6-0.4,1.3c0.1,0.7,0.4,1.1,0.8,1.1c0.4-0.1,0.5-0.6,0.4-1.3
					C30.3,25.9,30,25.5,29.6,25.5z"/>
				<path fill="none" d="M34.3,27.9l-0.9,0.2l0.6-3.3L32.6,25l-0.1-0.8l2.2-0.4l0.1,0.6L34.3,27.9z"/>
				<path fill="none" d="M36.3,27.8l-0.5,0l0.3-4.4l0.5,0L36.3,27.8z"/>
				<path fill="none" d="M39,25.4l-0.6,1l1.2-0.2l0.1,0.7l-2.3,0.4l-0.1-0.8l0.9-1.5c0.1-0.2,0.2-0.5,0.2-0.7c0-0.2-0.2-0.4-0.4-0.3
					c-0.2,0-0.3,0.2-0.3,0.6L37,24.6c-0.1-0.8,0.4-1.3,1-1.4c0.7-0.1,1.2,0.2,1.3,0.9C39.5,24.6,39.3,25.1,39,25.4z"/>
				<path fill="none" d="M41.6,26.7c-1,0.2-1.5-0.9-1.6-1.8c-0.2-0.9-0.1-2,0.9-2.2c1-0.2,1.5,0.9,1.6,1.8
					C42.6,25.3,42.6,26.5,41.6,26.7z M41,23.5c-0.3,0.1-0.3,0.8-0.2,1.3c0.1,0.5,0.3,1.2,0.6,1.2c0.3-0.1,0.3-0.8,0.2-1.3
					C41.5,24.1,41.4,23.4,41,23.5z"/>
				<path fill="none" d="M44.2,26.2l-0.5-2.8l-0.5,0.5l-0.5-0.6l0.9-1l0.8-0.1L45,26L44.2,26.2z"/>
				<path fill="none" d="M48,24.7l0.1,0.8l-0.8,0.1l-0.1-0.8l-1.4,0.2l-0.1-0.7l0.7-2.5l1-0.2l0.4,2.3l0.4-0.1l0.1,0.7L48,24.7z
					 M46.8,22.6L46.8,22.6l-0.4,1.6l0.7-0.1L46.8,22.6z"/>
			</g>
			<g>
				<g>
					<circle fill="#FFFFFF" cx="25" cy="27.6" r="25"/>
					<path fill="#007042" d="M27.5,13.4c-0.2,0-1.3-0.2-2.5-0.2c-1.2,0-2.3,0.2-2.5,0.2c-0.1,0-0.2-0.1-0.1-0.2c0.1-0.1,2.6-2,2.6-2
						s2.5,1.9,2.6,2C27.6,13.3,27.6,13.5,27.5,13.4z M23.1,25.8c0,0-0.1,0-0.2,0.2c0.5,0.4,0.9,1.3,2,1.3c1.1,0,1.5-0.9,2-1.3
						c0-0.1-0.2-0.2-0.2-0.2S26.1,26,25,26C23.8,26,23.1,25.8,23.1,25.8z M25,24.2c-0.3,0-0.4-0.1-0.6-0.1c-0.2,0-0.6,0.2-0.7,0.3
						c0,0.1,0,0.1,0.1,0.2c0.4,0.1,0.6,0.3,1.2,0.3c0.5,0,0.7-0.2,1.2-0.3c0.1-0.1,0.1-0.1,0.1-0.2c-0.1-0.1-0.5-0.3-0.7-0.3
						C25.3,24.1,25.3,24.2,25,24.2z M49.9,29c0,0.6-0.1,1.2-0.2,1.8c-2.8,0.5-3.8-2-6.7-1.9c0.2,0.6,0.3,1.2,0.4,1.9
						c2.4,0,3.3,2.2,6,1.9c-0.1,0.7-0.3,1.4-0.5,2c-2.1,0.2-2.8-1.9-5.3-1.8c0,0.3,0,0.7,0,1c0,0.2,0,0.4,0,0.6
						c2.1,0,2.7,1.9,4.7,1.8c-0.2,0.7-0.5,1.3-0.8,2c-1.4-0.1-1.9-1.9-4.1-1.8c-0.1,0.5-0.1,0.9-0.2,1.4c1.9-0.1,2.3,1.6,3.6,1.7
						c-0.3,0.6-0.7,1.2-1.1,1.8c-0.8-0.4-1.5-1.7-3-1.8c0.2-0.5,0.3-1,0.4-1.5c-1.3,0-2.9-0.5-4.2-1.7c0.4-2.4-3.3-4.8-3.3-6.5
						c0-1.9,1-2.9,1-5.5c0-1.9-0.9-3.9-2.3-5.3c-0.3-0.3-0.5-0.5-0.9-0.7c1.3,1.6,2.2,3.4,2.2,5.6c0,2.4-1.1,3.7-1.1,5.9
						c0,2.2,3.2,4.1,3.2,6.4c0,0.9-0.3,1.8-1.2,3.5c1.4,1.4,3.3,2.2,4.6,2.2c0.4,0,0.6-0.1,0.7-0.4c0.1-0.3,0.2-0.5,0.3-0.8
						c1.3,0.1,1.9,1.2,2.6,1.7c-0.4,0.5-0.8,1.1-1.3,1.6c-0.5-0.5-1.1-1.4-2.1-1.7c-0.2,0.3-0.4,0.7-0.5,1c0.8,0.2,1.4,1.1,1.8,1.6
						c-0.5,0.5-1,1-1.5,1.4c-0.3-0.5-0.8-1.1-1.4-1.5c-0.2,0.3-0.4,0.5-0.6,0.8c0.5,0.3,0.9,0.9,1.2,1.4c-0.6,0.5-1.2,0.9-1.8,1.3
						c-0.3-2.5-3.8-4.3-2.8-7.2c-0.3,0.5-0.7,1.2-0.7,1.9c0,2.1,2.3,3.8,2.4,5.9c-0.5,0.3-1,0.5-1.4,0.8c-0.1-2.3-2.5-4.9-2.5-6.8
						c0-2.1,2.8-4.3,2.8-6.8c0-2.5-3.2-4.3-3.2-6.5c0-2.2,1.4-3.5,1.4-6.3c0-2.1-1-4.2-2.5-5.5c-0.3-0.2-0.5-0.4-0.9-0.6
						c1.4,1.7,2.3,3.3,2.3,5.7c0,2.7-1.6,4.1-1.6,6.7c0,2.6,3.2,4.1,3.2,6.5c0,2.4-2.9,4.5-2.9,7c0,2.3,2.6,4.5,2.6,7.2
						c-0.6,0.2-1.1,0.5-1.7,0.7c0.3-2.7-2.6-5.5-2.6-7.7c0-2.4,3.1-4.5,3.1-7.1c0-2.6-3.1-3.8-3.1-6.5s1.9-4.2,1.9-7.1
						c0-2.3-1.1-4.4-2.8-5.7c0,0-0.1-0.1-0.1-0.1c-0.2-0.1-0.3,0-0.2,0.2c1.2,1.5,1.8,3,1.8,5.2c0,2.7-2.2,4.9-2.2,7.6
						c0,3.1,2.9,4,2.9,6.5c0,2.5-3.1,4.6-3.1,7.3c0,2.5,3,5.3,2.5,8.2c-0.6,0.2-1.2,0.3-1.8,0.4c0.6-3.6-2.4-6.2-2.4-8.5
						c0-2.6,3.3-4.8,3.3-7.3c0-2.4-2.3-3.1-2.6-5.5c0-0.3-0.3-0.6-0.7-0.5c-0.5,0.1-1.1,0.4-2,0.4c-1,0-1.6-0.3-2-0.4
						c-0.4-0.1-0.6,0.2-0.7,0.5c-0.3,2.4-2.6,3.2-2.6,5.5c0,2.5,3.3,4.8,3.3,7.3c0,2.4-2.9,4.9-2.4,8.5c-0.6-0.1-1.2-0.2-1.8-0.4
						c-0.5-2.9,2.5-5.7,2.5-8.2c0-2.7-3.1-4.7-3.1-7.3c0-2.5,2.9-3.4,2.9-6.5c0-2.6-2.2-4.8-2.2-7.6c0-2.2,0.6-3.7,1.8-5.2
						c0.1-0.1,0-0.3-0.2-0.2c0,0-0.1,0.1-0.1,0.1c-1.7,1.3-2.8,3.4-2.8,5.7c0,3,1.9,4.5,1.9,7.1s-3.1,3.9-3.1,6.5c0,2.6,3,4.7,3,7.1
						c0,2.2-2.9,5-2.6,7.7c-0.6-0.2-1.2-0.4-1.7-0.7c0-2.7,2.6-5,2.6-7.2c0-2.5-2.9-4.5-2.9-7c0-2.4,3.2-3.9,3.2-6.5
						c0-2.6-1.6-4.1-1.6-6.7c0-2.4,0.8-3.9,2.3-5.7c-0.3,0.2-0.6,0.4-0.9,0.6c-1.5,1.3-2.5,3.4-2.5,5.5c0,2.8,1.4,4.1,1.4,6.3
						c0,2.2-3.2,4-3.2,6.5c0,2.5,2.8,4.7,2.8,6.8c0,1.9-2.4,4.5-2.5,6.8c-0.5-0.3-1-0.5-1.4-0.8c0.2-2.1,2.4-3.8,2.4-5.9
						c0-0.8-0.4-1.4-0.7-1.9c0.9,2.9-2.5,4.7-2.8,7.2C10.5,48,9.9,47.5,9.3,47c0.3-0.5,0.7-1,1.2-1.4c-0.2-0.3-0.4-0.5-0.6-0.8
						c-0.6,0.3-1.1,1-1.4,1.5c-0.5-0.4-1-0.9-1.5-1.4c0.4-0.5,1-1.4,1.8-1.6c-0.2-0.3-0.4-0.6-0.5-1c-1,0.3-1.6,1.2-2.1,1.7
						c-0.4-0.5-0.9-1-1.3-1.6c0.7-0.5,1.3-1.7,2.6-1.7c0.1,0.3,0.2,0.5,0.3,0.8C8.1,41.9,8.3,42,8.7,42c1.2,0,3.1-0.8,4.6-2.2
						c-0.9-1.7-1.2-2.6-1.2-3.5c0-2.3,3.2-4.2,3.2-6.4c0-2.2-1.1-3.5-1.1-5.9c0-2.2,1-4,2.2-5.6c-0.3,0.2-0.6,0.4-0.9,0.7
						c-1.4,1.4-2.3,3.4-2.3,5.3c0,2.5,1,3.6,1,5.5c0,1.7-3.7,4.1-3.3,6.5c-1.3,1.2-2.8,1.7-4.2,1.7c0.1,0.5,0.3,1,0.4,1.5
						c-1.5,0.1-2.2,1.4-3,1.8c-0.4-0.6-0.8-1.2-1.1-1.8c1.3-0.1,1.7-1.9,3.6-1.7c-0.1-0.5-0.2-0.9-0.2-1.4c-2.2-0.1-2.6,1.7-4.1,1.8
						c-0.3-0.6-0.6-1.3-0.8-2c2,0.1,2.6-1.8,4.7-1.8c0-0.2,0-0.4,0-0.6c0-0.4,0-0.7,0-1c-2.4-0.1-3.2,2-5.3,1.8
						c-0.2-0.7-0.4-1.3-0.5-2c2.7,0.3,3.6-1.9,6-1.9c0.1-0.6,0.2-1.3,0.4-1.9C4,28.7,3,31.2,0.2,30.7C0.1,30.2,0.1,29.6,0,29
						c3.3,0.4,4.5-2.3,7.5-2c0.3-0.7,0.6-1.4,1-2.1c-3.7-0.7-5,2.5-8.5,2C0.4,13.4,11.4,2.6,25,2.6c13.5,0,24.6,10.8,24.9,24.2
						c-3.5,0.5-4.8-2.7-8.5-2c0.4,0.7,0.7,1.4,1,2.1C45.4,26.6,46.6,29.3,49.9,29z M14.2,18.5c-1.8-0.8-4.1-0.6-6,0.6
						C8,17.4,7,15.8,5.6,14.9c-0.2-0.1-0.4,0-0.4,0.2c0.3,3.7-1.9,7-4.6,9.8c2.8,0.8,5.1-2.7,8.7-1.5C10.7,21.5,12.3,19.8,14.2,18.5
						z M25,16.2c-2.3,0-4.3,1.3-4.8,3c0,0.1,0,0.2,0.2,0.1c0.4-0.2,0.9-0.3,1.4-0.3c0.9,0,1.8,0.3,2.3,1c0.2,0.7,0.2,1.8,0,2.4
						c-0.4-0.1-0.5-0.4-0.9-0.4c-0.4,0-0.7,0.3-1.3,0.3c-0.6,0-0.7-0.3-1.1-0.3c-0.5,0-0.6,0.5-0.6,1.1c0,2.6,2.4,6.1,4.9,6.1
						c2.5,0,4.9-3.6,4.9-6.1c0-0.6-0.1-1.1-0.6-1.1c-0.3,0.2-0.5,0.4-1.1,0.4c-0.6,0-0.8-0.3-1.2-0.3c-0.5,0-0.4,1-1,1
						c-0.4-0.9-0.4-2-0.1-3c0.5-0.6,1.3-1,2.3-1c0.5,0,1,0.1,1.4,0.3c0.2,0.1,0.2,0,0.2-0.1C29.2,17.6,27.3,16.2,25,16.2z
						 M28.6,19.9c-0.6,0-1.2,0.2-1.6,0.6c0,0.1,0,0.3,0,0.4c1-0.3,1.9-0.4,2.3,0.1c0.2-0.2,0.3-0.4,0.3-0.6
						C29.7,20.2,29.3,19.9,28.6,19.9z M20.5,21.1c0.5-0.5,1.5-0.5,2.6-0.1c0-0.5-0.9-1.1-1.8-1.1c-0.7,0-1,0.2-1,0.6
						C20.2,20.7,20.3,20.9,20.5,21.1z M36.5,12.4c-1.8,0.1-3.4,0.8-4.7,1.8c0.5-1.5,1.2-2.9,2.1-4.2c-2.3,0.2-4.3,1.1-5.7,2.6
						l-1.1-2.9l2.5-2.2l-3.3-0.2L25,4.1l-1.3,3.1l-3.3,0.2l2.5,2.2l-1.1,2.9c-1.4-1.5-3.4-2.3-5.7-2.6c0.9,1.3,1.6,2.7,2.1,4.2
						c-1.3-1-2.9-1.7-4.7-1.8c1.1,1.4,2.1,2.9,2.8,4.5c0.1,0.2,0.3,0.2,0.4,0.1c2.5-1.2,5.3-1.9,8.3-1.9c3,0,5.8,0.7,8.3,1.9
						c0.2,0.1,0.4,0,0.4-0.1C34.4,15.3,35.4,13.8,36.5,12.4z M40.5,23.4c3.6-1.2,5.9,2.3,8.7,1.5c-2.7-2.9-4.9-6.1-4.6-9.8
						c0-0.2-0.2-0.3-0.4-0.2c-1.4,0.9-2.3,2.5-2.6,4.3c-1.9-1.2-4.1-1.4-6-0.6C37.6,19.8,39.2,21.5,40.5,23.4z"/>
				</g>
			</g>
		</g>
		<g>
			<path fill="#007042" d="M41.1,49.5c1.1,0,2.1,0.9,2.1,2.1c0,1.2-0.9,2.1-2.1,2.1c-1.1,0-2.1-0.9-2.1-2.1
				C39.1,50.4,40,49.5,41.1,49.5z M41.1,53.3c0.9,0,1.7-0.8,1.7-1.8c0-1-0.8-1.8-1.7-1.8c-1,0-1.7,0.8-1.7,1.8
				C39.4,52.5,40.2,53.3,41.1,53.3z M40.3,50.3h0.9c0.6,0,0.8,0.2,0.8,0.7c0,0.4-0.3,0.6-0.6,0.7l0.7,1.1h-0.4l-0.7-1h-0.4v1h-0.4
				V50.3z M40.7,51.4h0.4c0.3,0,0.6,0,0.6-0.4c0-0.3-0.3-0.4-0.5-0.4h-0.5V51.4z"/>
		</g>
	</g>
</g>
</svg>
